<?xml version="1.0" encoding="UTF-8"?>
<svg id="Layer_1" data-name="Layer 1" xmlns="http://www.w3.org/2000/svg" width="559.8934" height="101.0148" version="1.1" viewBox="0 0 559.8934 101.0148">
  <defs>
    <style>
      .cls-1 {
        fill: #f93;
      }

      .cls-1, .cls-2, .cls-3 {
        stroke-width: 0px;
      }

      .cls-2 {
        fill: #900;
      }

      .cls-3 {
        fill: #621539;
      }
    </style>
  </defs>
  <g>
    <path class="cls-3" d="M9.1143,94.4785l.1235-.5508c.3369-.0293.6011-.127.7915-.291.1914-.165.3262-.3936.4043-.6855.0791-.292.1182-.6777.1182-1.1562,0-.293-.0112-.6104-.0337-.9551l-.0786-1.4492h-4.9414l-.6177,1.1016c-.292.5156-.5054.96-.6401,1.3301-.1348.3711-.2021.6982-.2021.9824,0,.6289.3779,1.0039,1.1343,1.123l-.1235.5508H.4556l.1235-.5508c.2319-.0293.4512-.1211.6572-.2744.2056-.1533.4248-.3857.6567-.6963s.5576-.8262.9771-1.5449l7.1987-12.4434h1.6958l.8086,12.5225c.0376.5918.105,1.0537.2021,1.3867s.2305.5801.3984.7412c.1689.1611.4141.2637.7358.3086l-.1235.5508h-4.6719ZM6.0034,88.4141h4.3911l-.1909-3.6162c-.0225-.4941-.041-1.1123-.0562-1.8525-.0151-.7422-.0225-1.2773-.0225-1.6064h-.1235l-3.998,7.0752Z"/>
    <path class="cls-3" d="M24.5674,83.6406h.6738l-.7861,2.7637.1348.0449c.7114-.9814,1.4058-1.707,2.083-2.1797.6777-.4707,1.376-.707,2.0947-.707.5464,0,1.0034.041,1.3701.123l-.5391,2.5156h-1.1567c-.0601-.3887-.1533-.6846-.2808-.8867s-.3257-.3027-.5952-.3027c-.292,0-.6289.1494-1.0107.4492-.3818.2988-.771.7109-1.168,1.2344-.397.5244-.6943,1.0078-.8931,1.4492-.1982.4414-.3496.9316-.4546,1.4707l-1.022,4.8633h-1.9429l1.707-7.6699c.1572-.7041.2358-1.2393.2358-1.6064,0-.21-.0337-.3721-.1011-.4883s-.1758-.2021-.3257-.2588c-.1499-.0557-.4043-.0957-.7637-.1172l.1235-.5957,2.6167-.1016Z"/>
    <path class="cls-3" d="M38.3809,92.2441c-.5542.6055-1.0854,1.085-1.5947,1.4375-.5093.3516-1.0181.6025-1.5273.752s-1.0708.2246-1.6846.2246c-.5913,0-1.1006-.0957-1.5273-.2861-.4268-.1914-.7803-.4531-1.0615-.7861-.2803-.333-.4883-.7305-.623-1.1904-.1348-.4609-.2021-.96-.2021-1.499,0-.8018.144-1.6611.4326-2.5781.2881-.917.7241-1.7402,1.3081-2.4707.584-.7295,1.2842-1.2949,2.1001-1.6953s1.6846-.6016,2.6055-.6016c.9058,0,1.5854.1836,2.0381.5508.4531.3672.6797.9395.6797,1.7188,0,1.2725-.5972,2.2266-1.791,2.8633-1.1943.6367-2.9668.9551-5.3179.9551-.0898.4492-.1348.9355-.1348,1.459,0,.7871.1533,1.3574.4604,1.7129s.8086.5332,1.5049.5332c.689,0,1.314-.1494,1.8755-.4492.5615-.2988,1.1494-.7598,1.7632-1.3809l.6963.7305ZM32.4062,88.6836c.689-.0078,1.2935-.0469,1.8135-.1182.5205-.0713.9678-.168,1.3423-.292.3745-.123.6851-.2715.9321-.4434s.4434-.3613.5898-.5674c.1455-.2061.2471-.4229.3027-.6514.0566-.2285.0845-.4658.0845-.7129,0-.457-.1069-.8145-.3198-1.0723-.2139-.2588-.5298-.3877-.9492-.3877-.5239,0-1.0391.1895-1.5439.5674-.5059.3779-.9512.8867-1.3369,1.5273-.3853.6396-.6904,1.3564-.915,2.1504Z"/>
    <path class="cls-3" d="M47.0283,86.3594c-.0825-.6738-.2754-1.1631-.5781-1.4658-.3037-.3037-.7734-.4551-1.4097-.4551-.3521,0-.6699.0654-.9546.1963s-.5093.3223-.6738.5732-.2471.5439-.2471.8818c0,.2764.0562.5293.1685.7578s.3013.4658.5669.7129c.2661.2471.6387.5312,1.1177.8535.7261.4863,1.2354.958,1.5273,1.415s.438.9844.438,1.583c0,.7041-.1685,1.3018-.5054,1.792s-.7974.8555-1.3813,1.0947-1.2427.3594-1.9766.3594c-.6587,0-1.2744-.0488-1.8477-.1465-.5723-.0967-1.1284-.2207-1.6675-.3701l.5278-2.4258h.876c.0522.6885.249,1.2031.5898,1.5439.3403.3408.8364.5117,1.4878.5117.6665,0,1.1865-.167,1.561-.5s.5615-.7734.5615-1.3203c0-.3213-.0562-.6094-.1685-.8643s-.2881-.498-.5278-.7295c-.2397-.2324-.5801-.498-1.022-.7979-.4717-.3223-.8535-.625-1.1455-.9092-.292-.2852-.5186-.5977-.6792-.9385-.1611-.3408-.2417-.7168-.2417-1.1279,0-.6221.1533-1.1611.4604-1.6172.3071-.457.7432-.8057,1.3086-1.0449.5649-.2393,1.2256-.3594,1.9819-.3594,1.2354,0,2.3247.1611,3.2681.4824l-.5166,2.3145h-.8984Z"/>
    <path class="cls-3" d="M51.9136,91.6709c-.0825.3818-.1348.6611-.1572.8369s-.0337.3232-.0337.4434c0,.2246.0376.4004.1123.5273.0747.1279.1909.2246.3481.293.1572.0664.4155.1191.7749.1562l-.1011.5508h-3.4814l1.6958-7.5693c.0972-.4346.1646-.7803.2021-1.0391.0376-.2578.0562-.4736.0562-.6455,0-.2168-.0317-.3857-.0952-.5059-.064-.1191-.1704-.209-.3203-.2695-.1499-.0596-.4082-.0967-.7749-.1113l.1235-.5957,2.7402-.1016h.6626l-1.752,8.0303ZM54.6875,79.3398l-.5166,2.1787h-1.9878l.5166-2.1787h1.9878Z"/>
    <path class="cls-3" d="M60.3027,78.4189h.6626l-2.9199,13.252c-.0825.3594-.1348.6309-.1572.8145s-.0337.3389-.0337.4658c0,.2246.0376.4004.1123.5273.0747.1279.1909.2246.3481.293.1572.0664.4155.1191.7749.1562l-.0898.5508h-3.5039l2.8975-12.8926c.0747-.3291.1274-.5762.1572-.7412s.0522-.3223.0674-.4717.0225-.2812.0225-.3926c0-.2246-.041-.3955-.1235-.5117s-.2002-.2002-.3535-.252c-.1538-.0527-.4287-.0898-.8257-.1133l.1348-.584,2.8301-.1006Z"/>
    <path class="cls-3" d="M64.2783,91.6709c-.0825.3818-.1348.6611-.1572.8369s-.0337.3232-.0337.4434c0,.2246.0376.4004.1123.5273.0747.1279.1909.2246.3481.293.1572.0664.4155.1191.7749.1562l-.1011.5508h-3.4814l1.6958-7.5693c.0972-.4346.1646-.7803.2021-1.0391.0376-.2578.0562-.4736.0562-.6455,0-.2168-.0317-.3857-.0952-.5059-.064-.1191-.1704-.209-.3203-.2695-.1499-.0596-.4082-.0967-.7749-.1113l.1235-.5957,2.7402-.1016h.6626l-1.752,8.0303ZM67.0522,79.3398l-.5166,2.1787h-1.9878l.5166-2.1787h1.9878Z"/>
    <path class="cls-3" d="M76.1377,92.2441c-.5542.6055-1.0854,1.085-1.5947,1.4375-.5093.3516-1.0181.6025-1.5273.752s-1.0708.2246-1.6846.2246c-.5913,0-1.1006-.0957-1.5273-.2861-.4268-.1914-.7803-.4531-1.0615-.7861-.2803-.333-.4883-.7305-.623-1.1904-.1348-.4609-.2021-.96-.2021-1.499,0-.8018.144-1.6611.4326-2.5781.2881-.917.7241-1.7402,1.3081-2.4707.584-.7295,1.2842-1.2949,2.1001-1.6953s1.6846-.6016,2.6055-.6016c.9058,0,1.5854.1836,2.0381.5508.4531.3672.6797.9395.6797,1.7188,0,1.2725-.5972,2.2266-1.791,2.8633-1.1943.6367-2.9668.9551-5.3179.9551-.0898.4492-.1348.9355-.1348,1.459,0,.7871.1533,1.3574.4604,1.7129s.8086.5332,1.5049.5332c.689,0,1.314-.1494,1.8755-.4492.5615-.2988,1.1494-.7598,1.7632-1.3809l.6963.7305ZM70.1631,88.6836c.689-.0078,1.2935-.0469,1.8135-.1182.5205-.0713.9678-.168,1.3423-.292.3745-.123.6851-.2715.9321-.4434s.4434-.3613.5898-.5674c.1455-.2061.2471-.4229.3027-.6514.0566-.2285.0845-.4658.0845-.7129,0-.457-.1069-.8145-.3198-1.0723-.2139-.2588-.5298-.3877-.9492-.3877-.5239,0-1.0391.1895-1.5439.5674-.5059.3779-.9512.8867-1.3369,1.5273-.3853.6396-.6904,1.3564-.915,2.1504Z"/>
    <path class="cls-3" d="M88.0981,94.4785h-3.5376l1.4263-5.7051c.0898-.3672.1777-.7715.2642-1.2129.0859-.4414.1289-.8389.1289-1.1904,0-.5312-.0918-.9131-.2754-1.1455-.1831-.2324-.4697-.3477-.8589-.3477-.3145,0-.6533.1211-1.0161.3643-.3633.2432-.7432.6064-1.1401,1.0898-.397.4824-.7319.9727-1.0054,1.4707-.2729.498-.4844,1.1025-.6343,1.8135l-1.022,4.8633h-1.9429l1.707-7.6699c.0376-.1729.0879-.4277.1519-.7637.0635-.3379.0952-.6182.0952-.8428,0-.21-.0317-.3721-.0952-.4883-.064-.1162-.1724-.2021-.3262-.2588-.1533-.0557-.4136-.0957-.7803-.1172l.1348-.5957,2.5493-.1016h.6401l-.7524,2.9199.1348.0449c.7339-1.0332,1.4414-1.7979,2.1226-2.2959s1.3628-.7471,2.0439-.7471c.7261,0,1.2764.2002,1.6509.6006s.5615.9941.5615,1.7803c0,.2695-.0244.5635-.0728.8818-.0488.3184-.103.6006-.1631.8477l-.9434,3.998c-.1274.5391-.1909.9658-.1909,1.2803,0,.2246.0376.4004.1123.5273.0747.1279.1909.2246.3481.293.1572.0664.4155.1191.7749.1562l-.0898.5508Z"/>
    <path class="cls-3" d="M97.397,92.4121c-.6138.7412-1.2202,1.3008-1.8193,1.6787s-1.2354.5674-1.9092.5674c-.7935,0-1.3853-.2021-1.7744-.6064s-.584-.9922-.584-1.7627c0-.4727.0674-1,.2021-1.584l1.3926-5.8281h-1.6733l.1235-.5732c.4419-.0527.7915-.1475,1.0503-.2861.2578-.1387.4751-.3223.6514-.5508.1758-.2285.3384-.5254.4883-.8926s.3369-.9023.5615-1.6055h1.5498l-.6177,2.7734h3.5601l-.2471,1.1348h-3.5713l-1.0781,4.3574c-.2993,1.2129-.4492,2.1182-.4492,2.7168,0,.457.0991.8037.2979,1.0391.1982.2363.4883.3535.8701.3535.3442,0,.7056-.1328,1.084-.3984.3779-.2656.7915-.668,1.2407-1.207l.6514.6738Z"/>
    <path class="cls-3" d="M112.1875,84.293l1.0332-.7422.7188.1797-1.7183,7.626c-.105.4492-.1758.7959-.2134,1.0391s-.0562.4434-.0562.6006c0,.3066.0859.5293.2583.668s.5015.2266.9883.2637l-.1011.5508h-3.2119l.7075-2.8184-.146-.0449c-.7188,1.0479-1.3999,1.8154-2.0439,2.3018s-1.3252.7295-2.0439.7295c-.8237,0-1.4619-.3105-1.9146-.9316-.4531-.6211-.6797-1.4941-.6797-2.6172,0-.7188.0825-1.4385.2471-2.1611s.4136-1.4082.7471-2.0557c.333-.6475.7314-1.2188,1.1958-1.7129s1.0015-.8867,1.6118-1.1787c.6099-.292,1.2744-.4385,1.9932-.4385.4644,0,.9058.0547,1.3252.1631s.8535.3018,1.3027.5791ZM111.1992,87.6387c.0674-.3066.1123-.5723.1348-.7969s.0337-.4678.0337-.7305c0-.584-.1235-1.0088-.3706-1.2744s-.6587-.3984-1.2354-.3984c-.3145,0-.6138.0508-.8984.1514-.2847.1016-.5728.2695-.8647.5059-.292.2354-.5708.5449-.8364.9258-.2661.3828-.5073.8467-.7246,1.3926-.2173.5469-.3857,1.1328-.5054,1.7578s-.1797,1.2334-.1797,1.8252c0,.7783.1069,1.3604.3198,1.7461.2139.3857.5713.5791,1.0728.5791.2319,0,.4736-.0527.7241-.1582.251-.1045.5298-.2969.8369-.5781.3071-.2803.6553-.6943,1.0444-1.2402.3521-.502.6309-.998.8364-1.4883.2061-.4902.3765-1.0693.5112-1.7354l.1011-.4834Z"/>
    <path class="cls-3" d="M125.5068,94.4785h-3.5376l1.4263-5.7051c.0898-.3672.1777-.7715.2642-1.2129.0859-.4414.1289-.8389.1289-1.1904,0-.5312-.0918-.9131-.2754-1.1455-.1831-.2324-.4697-.3477-.8589-.3477-.3145,0-.6533.1211-1.0161.3643-.3633.2432-.7432.6064-1.1401,1.0898-.397.4824-.7319.9727-1.0054,1.4707-.2729.498-.4844,1.1025-.6343,1.8135l-1.022,4.8633h-1.9429l1.707-7.6699c.0376-.1729.0879-.4277.1519-.7637.0635-.3379.0952-.6182.0952-.8428,0-.21-.0317-.3721-.0952-.4883-.064-.1162-.1724-.2021-.3262-.2588-.1533-.0557-.4136-.0957-.7803-.1172l.1348-.5957,2.5493-.1016h.6401l-.7524,2.9199.1348.0449c.7339-1.0332,1.4414-1.7979,2.1226-2.2959s1.3628-.7471,2.0439-.7471c.7261,0,1.2764.2002,1.6509.6006s.5615.9941.5615,1.7803c0,.2695-.0244.5635-.0728.8818-.0488.3184-.103.6006-.1631.8477l-.9434,3.998c-.1274.5391-.1909.9658-.1909,1.2803,0,.2246.0376.4004.1123.5273.0747.1279.1909.2246.3481.293.1572.0664.4155.1191.7749.1562l-.0898.5508Z"/>
    <path class="cls-3" d="M136.9956,81.5859c.0601-.2471.1123-.5205.1572-.8203.0449-.2988.0674-.5605.0674-.7852s-.041-.3955-.1235-.5117-.2002-.2002-.354-.252c-.1533-.0527-.4282-.0898-.8252-.1133l.1348-.584,2.8188-.1006h.6626l-2.9087,12.9375c-.105.4717-.1758.8232-.2134,1.0557s-.0562.4268-.0562.584c0,.3066.0859.5293.2583.668s.5015.2266.9883.2637l-.1011.5508h-3.2119l.7075-2.8184-.146-.0449c-.7188,1.0479-1.3999,1.8154-2.0439,2.3018s-1.3252.7295-2.0439.7295c-.8237,0-1.4619-.3105-1.9146-.9316-.4531-.6211-.6797-1.4941-.6797-2.6172,0-.7188.0825-1.4385.2471-2.1611s.4136-1.4082.7471-2.0557c.333-.6475.7314-1.2188,1.1958-1.7129s1.0015-.8867,1.6118-1.1787c.6099-.292,1.2744-.4385,1.9932-.4385.4565,0,.8779.0469,1.2637.1406.3853.0938.7803.2568,1.1846.4883l.584-2.5938ZM135.603,87.6387c.1123-.5391.1685-1.0479.1685-1.5273,0-.584-.1235-1.0088-.3706-1.2744s-.6587-.3984-1.2354-.3984c-.3145,0-.6138.0508-.8984.1514-.2847.1016-.5728.2695-.8647.5059-.292.2354-.5708.5449-.8364.9258-.2661.3828-.5073.8467-.7246,1.3926-.2173.5469-.3857,1.1328-.5054,1.7578s-.1797,1.2334-.1797,1.8252c0,.7783.1069,1.3604.3198,1.7461.2139.3857.5713.5791,1.0728.5791.2319,0,.4736-.0527.7241-.1582.251-.1045.5298-.2969.8369-.5781.3071-.2803.6553-.6943,1.0444-1.2402.3521-.502.6309-.998.8364-1.4883.2061-.4902.3765-1.0693.5112-1.7354l.1011-.4834Z"/>
    <path class="cls-3" d="M148.8101,83.6406h.6738l-.7861,2.7637.1348.0449c.7114-.9814,1.4058-1.707,2.083-2.1797.6777-.4707,1.376-.707,2.0947-.707.5464,0,1.0034.041,1.3701.123l-.5391,2.5156h-1.1567c-.0601-.3887-.1533-.6846-.2808-.8867s-.3257-.3027-.5952-.3027c-.292,0-.6289.1494-1.0107.4492-.3818.2988-.771.7109-1.168,1.2344-.397.5244-.6943,1.0078-.8931,1.4492-.1982.4414-.3496.9316-.4546,1.4707l-1.022,4.8633h-1.9429l1.707-7.6699c.1572-.7041.2358-1.2393.2358-1.6064,0-.21-.0337-.3721-.1011-.4883s-.1758-.2021-.3257-.2588c-.1499-.0557-.4043-.0957-.7637-.1172l.1235-.5957,2.6167-.1016Z"/>
    <path class="cls-3" d="M162.6235,92.2441c-.5542.6055-1.0854,1.085-1.5947,1.4375-.5093.3516-1.0181.6025-1.5273.752s-1.0708.2246-1.6846.2246c-.5913,0-1.1006-.0957-1.5273-.2861-.4268-.1914-.7803-.4531-1.0615-.7861-.2803-.333-.4883-.7305-.623-1.1904-.1348-.4609-.2021-.96-.2021-1.499,0-.8018.144-1.6611.4326-2.5781.2881-.917.7241-1.7402,1.3081-2.4707.584-.7295,1.2842-1.2949,2.1001-1.6953s1.6846-.6016,2.6055-.6016c.9058,0,1.5854.1836,2.0381.5508.4531.3672.6797.9395.6797,1.7188,0,1.2725-.5972,2.2266-1.791,2.8633-1.1943.6367-2.9668.9551-5.3179.9551-.0898.4492-.1348.9355-.1348,1.459,0,.7871.1533,1.3574.4604,1.7129s.8086.5332,1.5049.5332c.689,0,1.314-.1494,1.8755-.4492.5615-.2988,1.1494-.7598,1.7632-1.3809l.6963.7305ZM156.6489,88.6836c.689-.0078,1.2935-.0469,1.8135-.1182.5205-.0713.9678-.168,1.3423-.292.3745-.123.6851-.2715.9321-.4434s.4434-.3613.5898-.5674c.1455-.2061.2471-.4229.3027-.6514.0566-.2285.0845-.4658.0845-.7129,0-.457-.1069-.8145-.3198-1.0723-.2139-.2588-.5298-.3877-.9492-.3877-.5239,0-1.0391.1895-1.5439.5674-.5059.3779-.9512.8867-1.3369,1.5273-.3853.6396-.6904,1.3564-.915,2.1504Z"/>
    <path class="cls-3" d="M169.4966,78.4189h.6626l-2.9199,13.252c-.0825.3594-.1348.6309-.1572.8145s-.0337.3389-.0337.4658c0,.2246.0376.4004.1123.5273.0747.1279.1909.2246.3481.293.1572.0664.4155.1191.7749.1562l-.0898.5508h-3.5039l2.8975-12.8926c.0747-.3291.1274-.5762.1572-.7412s.0522-.3223.0674-.4717.0225-.2812.0225-.3926c0-.2246-.041-.3955-.1235-.5117s-.2002-.2002-.3535-.252c-.1538-.0527-.4287-.0898-.8257-.1133l.1348-.584,2.8301-.1006Z"/>
    <path class="cls-3" d="M173.4722,91.6709c-.0825.3818-.1348.6611-.1572.8369s-.0337.3232-.0337.4434c0,.2246.0376.4004.1123.5273.0747.1279.1909.2246.3481.293.1572.0664.4155.1191.7749.1562l-.1011.5508h-3.4814l1.6958-7.5693c.0972-.4346.1646-.7803.2021-1.0391.0376-.2578.0562-.4736.0562-.6455,0-.2168-.0317-.3857-.0952-.5059-.064-.1191-.1704-.209-.3203-.2695-.1499-.0596-.4082-.0967-.7749-.1113l.1235-.5957,2.7402-.1016h.6626l-1.752,8.0303ZM176.2461,79.3398l-.5166,2.1787h-1.9878l.5166-2.1787h1.9878Z"/>
    <path class="cls-3" d="M185.5562,84.293l1.0332-.7422.7188.1797-1.7183,7.626c-.105.4492-.1758.7959-.2134,1.0391s-.0562.4434-.0562.6006c0,.3066.0859.5293.2583.668s.5015.2266.9883.2637l-.1011.5508h-3.2119l.7075-2.8184-.146-.0449c-.7188,1.0479-1.3999,1.8154-2.0439,2.3018s-1.3252.7295-2.0439.7295c-.8237,0-1.4619-.3105-1.9146-.9316-.4531-.6211-.6797-1.4941-.6797-2.6172,0-.7188.0825-1.4385.2471-2.1611s.4136-1.4082.7471-2.0557c.333-.6475.7314-1.2188,1.1958-1.7129s1.0015-.8867,1.6118-1.1787c.6099-.292,1.2744-.4385,1.9932-.4385.4644,0,.9058.0547,1.3252.1631s.8535.3018,1.3027.5791ZM184.5679,87.6387c.0674-.3066.1123-.5723.1348-.7969s.0337-.4678.0337-.7305c0-.584-.1235-1.0088-.3706-1.2744s-.6587-.3984-1.2354-.3984c-.3145,0-.6138.0508-.8984.1514-.2847.1016-.5728.2695-.8647.5059-.292.2354-.5708.5449-.8364.9258-.2661.3828-.5073.8467-.7246,1.3926-.2173.5469-.3857,1.1328-.5054,1.7578s-.1797,1.2334-.1797,1.8252c0,.7783.1069,1.3604.3198,1.7461.2139.3857.5713.5791,1.0728.5791.2319,0,.4736-.0527.7241-.1582.251-.1045.5298-.2969.8369-.5781.3071-.2803.6553-.6943,1.0444-1.2402.3521-.502.6309-.998.8364-1.4883.2061-.4902.3765-1.0693.5112-1.7354l.1011-.4834Z"/>
    <path class="cls-3" d="M190.9019,93.9277l-1.0332.7305-.7188-.1797,2.9087-12.8359c.0449-.1875.0991-.457.1631-.8086.0635-.3525.0952-.6367.0952-.8535,0-.3145-.0952-.5361-.2866-.6631-.1904-.127-.5332-.1982-1.0273-.2139l.1348-.584,2.8413-.1006h.6514l-1.9766,7.8613.146.0449c.7261-.9736,1.4077-1.6768,2.0439-2.1113s1.2729-.6514,1.9092-.6514c.8159,0,1.4507.3105,1.9033.9316.4531.6221.6797,1.498.6797,2.6289,0,.8086-.1104,1.6201-.3311,2.4365-.2212.8164-.5283,1.5537-.9209,2.2119-.3936.6592-.8311,1.2002-1.3145,1.623-.4824.4229-.9917.7393-1.5273.9492-.5352.21-1.0986.3145-1.6899.3145-.9956,0-1.8794-.2432-2.6504-.7305ZM191.8901,90.5703c-.0747.3369-.1216.623-.1401.8594-.019.2354-.0283.458-.0283.668,0,.5918.1289,1.0186.3877,1.2803.2578.2617.6865.3936,1.2856.3936.3892,0,.7451-.0752,1.0669-.2246.3218-.1504.627-.3691.915-.6572.2886-.2881.5508-.6387.7861-1.0498.2363-.4121.4438-.8818.6235-1.4102.1797-.5273.3164-1.0742.4097-1.6396.0938-.5654.1406-1.0908.1406-1.5771,0-.7793-.1104-1.3633-.3311-1.752-.2212-.3896-.5747-.584-1.0615-.584-.3594,0-.7129.1133-1.0615.3418-.3477.2285-.7354.6064-1.1621,1.1348-.4268.5273-.7749,1.0684-1.0444,1.623-.2695.5537-.498,1.2607-.6851,2.1221l-.1011.4717Z"/>
    <path class="cls-3" d="M205.9395,78.4189h.6626l-2.9199,13.252c-.0825.3594-.1348.6309-.1572.8145s-.0337.3389-.0337.4658c0,.2246.0376.4004.1123.5273.0747.1279.1909.2246.3481.293.1572.0664.4155.1191.7749.1562l-.0898.5508h-3.5039l2.8975-12.8926c.0747-.3291.1274-.5762.1572-.7412s.0522-.3223.0674-.4717.0225-.2812.0225-.3926c0-.2246-.041-.3955-.1235-.5117s-.2002-.2002-.3535-.252c-.1538-.0527-.4287-.0898-.8257-.1133l.1348-.584,2.8301-.1006Z"/>
    <path class="cls-3" d="M215.5415,92.2441c-.5537.6055-1.0859,1.085-1.5947,1.4375-.5093.3516-1.0181.6025-1.5273.752s-1.0708.2246-1.6846.2246c-.5913,0-1.1006-.0957-1.5273-.2861-.4268-.1914-.7803-.4531-1.0615-.7861-.2803-.333-.4883-.7305-.623-1.1904-.1348-.4609-.2021-.96-.2021-1.499,0-.8018.144-1.6611.4326-2.5781.2881-.917.7241-1.7402,1.3081-2.4707.584-.7295,1.2842-1.2949,2.1001-1.6953s1.6846-.6016,2.6055-.6016c.9062,0,1.585.1836,2.0381.5508s.6797.9395.6797,1.7188c0,1.2725-.5967,2.2266-1.791,2.8633s-2.9668.9551-5.3179.9551c-.0898.4492-.1348.9355-.1348,1.459,0,.7871.1533,1.3574.4604,1.7129s.8086.5332,1.5049.5332c.689,0,1.314-.1494,1.8755-.4492.5615-.2988,1.1494-.7598,1.7632-1.3809l.6963.7305ZM209.5669,88.6836c.689-.0078,1.2935-.0469,1.8135-.1182.5205-.0713.9678-.168,1.3423-.292.3745-.123.6851-.2715.9321-.4434s.4434-.3613.5898-.5674c.1455-.2061.2471-.4229.3027-.6514.0566-.2285.085-.4658.085-.7129,0-.457-.1074-.8145-.3203-1.0723-.2139-.2588-.5298-.3877-.9492-.3877-.5239,0-1.0391.1895-1.5439.5674-.5059.3779-.9512.8867-1.3369,1.5273-.3853.6396-.6904,1.3564-.915,2.1504Z"/>
    <path class="cls-3" d="M224.8291,94.6699c-.2549,1.1973-.6045,2.1484-1.0503,2.8516-.4453.7041-.9863,1.21-1.623,1.5166s-1.4072.46-2.3135.46c-.3291,0-.625-.0371-.8877-.1113l.2588-.9883c.1797.0596.4414.0898.7861.0898.3965,0,.7207-.0527.9717-.1582.251-.1045.4824-.2744.6963-.5107.2129-.2354.415-.5801.6064-1.0332.1904-.4531.3721-1.0498.5439-1.791l2.2808-10.1182h-1.3589l.1348-.5732c.3667-.0371.6255-.0879.7749-.1514s.2715-.1504.3652-.2588.1777-.2617.2529-.46c.0742-.1982.1826-.541.3252-1.0273.3965-1.3477.9941-2.3604,1.791-3.0381.7979-.6777,1.8174-1.0166,3.0605-1.0166.5166,0,.9697.0371,1.3584.1123l-.4492,1.9766h-.9092c0-.374-.0791-.6592-.2354-.8535-.1582-.1943-.3672-.292-.6289-.292-.4727,0-.8691.2207-1.1914.6621-.3213.4424-.6289,1.2773-.9199,2.5049l-.293,1.2803h2.5723l-.2471,1.1348h-2.583l-2.0889,9.793Z"/>
    <path class="cls-3" d="M232.2188,91.6709c-.083.3818-.1348.6611-.1582.8369-.0215.1758-.0332.3232-.0332.4434,0,.2246.0371.4004.1123.5273.0752.1279.1904.2246.3486.293.1562.0664.415.1191.7744.1562l-.1006.5508h-3.4824l1.6963-7.5693c.0977-.4346.165-.7803.2021-1.0391.0371-.2578.0566-.4736.0566-.6455,0-.2168-.0322-.3857-.0957-.5059-.0635-.1191-.1709-.209-.3203-.2695-.1494-.0596-.4082-.0967-.7754-.1113l.124-.5957,2.7402-.1016h.6631l-1.752,8.0303ZM234.9922,79.3398l-.5166,2.1787h-1.9873l.5156-2.1787h1.9883Z"/>
    <path class="cls-3" d="M245.5254,94.4785h-3.5371l1.4258-5.7051c.0898-.3672.1787-.7715.2646-1.2129s.1289-.8389.1289-1.1904c0-.5312-.0918-.9131-.2754-1.1455s-.4697-.3477-.8584-.3477c-.3145,0-.6533.1211-1.0166.3643s-.7432.6064-1.1396,1.0898c-.3975.4824-.7324.9727-1.0059,1.4707s-.4844,1.1025-.6348,1.8135l-1.0215,4.8633h-1.9434l1.707-7.6699c.0381-.1729.0889-.4277.1523-.7637.0635-.3379.0957-.6182.0957-.8428,0-.21-.0322-.3721-.0957-.4883s-.1729-.2021-.3262-.2588c-.1533-.0557-.4131-.0957-.7803-.1172l.1348-.5957,2.5498-.1016h.6396l-.7529,2.9199.1348.0449c.7344-1.0332,1.4414-1.7979,2.123-2.2959s1.3623-.7471,2.0439-.7471c.7266,0,1.2764.2002,1.6514.6006.374.4004.5605.9941.5605,1.7803,0,.2695-.0234.5635-.0723.8818s-.1035.6006-.1631.8477l-.9434,3.998c-.127.5391-.1904.9658-.1904,1.2803,0,.2246.0371.4004.1113.5273.0752.1279.1914.2246.3486.293.1572.0664.415.1191.7744.1562l-.0898.5508Z"/>
    <path class="cls-3" d="M256.6104,84.293l1.0332-.7422.7188.1797-1.7178,7.626c-.1055.4492-.1768.7959-.2139,1.0391s-.0557.4434-.0557.6006c0,.3066.0859.5293.2578.668s.502.2266.9883.2637l-.1016.5508h-3.2109l.707-2.8184-.1465-.0449c-.7188,1.0479-1.3994,1.8154-2.043,2.3018-.6445.4863-1.3262.7295-2.0449.7295-.8232,0-1.4609-.3105-1.9141-.9316s-.6797-1.4941-.6797-2.6172c0-.7188.082-1.4385.2471-2.1611s.4141-1.4082.7471-2.0557.7314-1.2188,1.1953-1.7129c.4648-.4941,1.002-.8867,1.6123-1.1787s1.2744-.4385,1.9932-.4385c.4639,0,.9062.0547,1.3252.1631s.8535.3018,1.3027.5791ZM255.6221,87.6387c.0674-.3066.1123-.5723.1348-.7969s.0342-.4678.0342-.7305c0-.584-.124-1.0088-.3711-1.2744s-.6592-.3984-1.2354-.3984c-.3145,0-.6143.0508-.8984.1514-.2842.1016-.5732.2695-.8643.5059-.293.2354-.5713.5449-.8369.9258-.2656.3828-.5078.8467-.7246,1.3926-.2168.5469-.3857,1.1328-.5049,1.7578-.1201.625-.1797,1.2334-.1797,1.8252,0,.7783.1064,1.3604.3193,1.7461.2139.3857.5713.5791,1.0732.5791.2314,0,.4727-.0527.7236-.1582.251-.1045.5303-.2969.8369-.5781.3066-.2803.6553-.6943,1.0449-1.2402.3516-.502.6299-.998.8359-1.4883s.377-1.0693.5117-1.7354l.1006-.4834Z"/>
    <path class="cls-3" d="M269.9297,94.4785h-3.5371l1.4258-5.7051c.0898-.3672.1787-.7715.2646-1.2129s.1289-.8389.1289-1.1904c0-.5312-.0918-.9131-.2754-1.1455s-.4697-.3477-.8584-.3477c-.3145,0-.6533.1211-1.0166.3643s-.7432.6064-1.1396,1.0898c-.3975.4824-.7324.9727-1.0059,1.4707s-.4844,1.1025-.6348,1.8135l-1.0215,4.8633h-1.9434l1.707-7.6699c.0381-.1729.0889-.4277.1523-.7637.0635-.3379.0957-.6182.0957-.8428,0-.21-.0322-.3721-.0957-.4883s-.1729-.2021-.3262-.2588c-.1533-.0557-.4131-.0957-.7803-.1172l.1348-.5957,2.5498-.1016h.6396l-.7529,2.9199.1348.0449c.7344-1.0332,1.4414-1.7979,2.123-2.2959s1.3623-.7471,2.0439-.7471c.7266,0,1.2764.2002,1.6514.6006.374.4004.5605.9941.5605,1.7803,0,.2695-.0234.5635-.0723.8818s-.1035.6006-.1631.8477l-.9434,3.998c-.127.5391-.1904.9658-.1904,1.2803,0,.2246.0371.4004.1113.5273.0752.1279.1914.2246.3486.293.1572.0664.415.1191.7744.1562l-.0898.5508Z"/>
    <path class="cls-3" d="M279.9023,86.4375c-.0146-.5693-.0615-.9805-.1396-1.2354-.0791-.2549-.2061-.4453-.3818-.5732-.1758-.127-.4248-.1904-.7471-.1904-.7559,0-1.4355.3018-2.0381.9043s-1.0957,1.4561-1.4766,2.5605c-.3828,1.1045-.5732,2.165-.5732,3.1836,0,.3145.0283.6104.084.8877.0566.2764.1533.5156.292.7188.1387.2012.3223.3604.5508.4766s.5186.1738.8701.1738c.6816,0,1.2705-.1289,1.7686-.3867.498-.2588,1.0244-.665,1.5781-1.2188l.6855.6855c-.7041.7783-1.4141,1.3477-2.1289,1.707s-1.4844.5391-2.3076.5391c-1.0859,0-1.9092-.3223-2.4707-.9668-.5615-.6436-.8428-1.5791-.8428-2.8066,0-.8018.1504-1.6816.4492-2.6396.2998-.958.7383-1.8008,1.3145-2.5264.5762-.7266,1.25-1.2695,2.0215-1.6289s1.5947-.5391,2.4707-.5391c.5986,0,1.1211.0332,1.5664.1016.4453.0664.8408.1455,1.1855.2354l-.5508,2.5381h-1.1797Z"/>
    <path class="cls-3" d="M285.125,91.6709c-.083.3818-.1348.6611-.1582.8369-.0215.1758-.0332.3232-.0332.4434,0,.2246.0371.4004.1123.5273.0752.1279.1904.2246.3486.293.1562.0664.415.1191.7744.1562l-.1006.5508h-3.4824l1.6963-7.5693c.0977-.4346.165-.7803.2021-1.0391.0371-.2578.0566-.4736.0566-.6455,0-.2168-.0322-.3857-.0957-.5059-.0635-.1191-.1709-.209-.3203-.2695-.1494-.0596-.4082-.0967-.7754-.1113l.124-.5957,2.7402-.1016h.6631l-1.752,8.0303ZM287.8984,79.3398l-.5166,2.1787h-1.9873l.5156-2.1787h1.9883Z"/>
    <path class="cls-3" d="M297.208,84.293l1.0332-.7422.7188.1797-1.7178,7.626c-.1055.4492-.1768.7959-.2139,1.0391s-.0557.4434-.0557.6006c0,.3066.0859.5293.2578.668s.502.2266.9883.2637l-.1016.5508h-3.2109l.707-2.8184-.1465-.0449c-.7188,1.0479-1.3994,1.8154-2.043,2.3018-.6445.4863-1.3262.7295-2.0449.7295-.8232,0-1.4609-.3105-1.9141-.9316s-.6797-1.4941-.6797-2.6172c0-.7188.082-1.4385.2471-2.1611s.4141-1.4082.7471-2.0557.7314-1.2188,1.1953-1.7129c.4648-.4941,1.002-.8867,1.6123-1.1787s1.2744-.4385,1.9932-.4385c.4639,0,.9062.0547,1.3252.1631s.8535.3018,1.3027.5791ZM296.2197,87.6387c.0674-.3066.1123-.5723.1348-.7969s.0342-.4678.0342-.7305c0-.584-.124-1.0088-.3711-1.2744s-.6592-.3984-1.2354-.3984c-.3145,0-.6143.0508-.8984.1514-.2842.1016-.5732.2695-.8643.5059-.293.2354-.5713.5449-.8369.9258-.2656.3828-.5078.8467-.7246,1.3926-.2168.5469-.3857,1.1328-.5049,1.7578-.1201.625-.1797,1.2334-.1797,1.8252,0,.7783.1064,1.3604.3193,1.7461.2139.3857.5713.5791,1.0732.5791.2314,0,.4727-.0527.7236-.1582.251-.1045.5303-.2969.8369-.5781.3066-.2803.6553-.6943,1.0449-1.2402.3516-.502.6299-.998.8359-1.4883s.377-1.0693.5117-1.7354l.1006-.4834Z"/>
    <path class="cls-3" d="M305.6094,78.4189h.6621l-2.9199,13.252c-.082.3594-.1348.6309-.1572.8145s-.0342.3389-.0342.4658c0,.2246.0381.4004.1133.5273.0742.1279.1904.2246.3477.293.1572.0664.416.1191.7754.1562l-.0898.5508h-3.5039l2.8965-12.8926c.0752-.3291.1279-.5762.1582-.7412.0293-.165.0518-.3223.0664-.4717.0156-.1494.0234-.2812.0234-.3926,0-.2246-.042-.3955-.124-.5117s-.2002-.2002-.3535-.252c-.1533-.0527-.4287-.0898-.8252-.1133l.1348-.584,2.8301-.1006Z"/>
    <path class="cls-3" d="M318.5469,86.3594c-.082-.6738-.2754-1.1631-.5781-1.4658-.3037-.3037-.7734-.4551-1.4102-.4551-.3516,0-.6699.0654-.9541.1963s-.5088.3223-.6738.5732-.2471.5439-.2471.8818c0,.2764.0566.5293.168.7578.1133.2285.3018.4658.5674.7129s.6387.5312,1.1182.8535c.7256.4863,1.2344.958,1.5273,1.415.291.457.4375.9844.4375,1.583,0,.7041-.168,1.3018-.5059,1.792-.3359.4902-.7969.8555-1.3809,1.0947s-1.2432.3594-1.9766.3594c-.6592,0-1.2744-.0488-1.8477-.1465-.5723-.0967-1.1289-.2207-1.668-.3701l.5283-2.4258h.876c.0527.6885.249,1.2031.5898,1.5439s.8359.5117,1.4883.5117c.666,0,1.1865-.167,1.5605-.5s.5615-.7734.5615-1.3203c0-.3213-.0557-.6094-.1689-.8643-.1113-.2549-.2881-.498-.5273-.7295-.2393-.2324-.5801-.498-1.0215-.7979-.4727-.3223-.8535-.625-1.1465-.9092-.291-.2852-.5176-.5977-.6787-.9385s-.2412-.7168-.2412-1.1279c0-.6221.1533-1.1611.46-1.6172.3066-.457.7432-.8057,1.3086-1.0449s1.2256-.3594,1.9814-.3594c1.2363,0,2.3252.1611,3.2686.4824l-.5166,2.3145h-.8984Z"/>
    <path class="cls-3" d="M329.0576,92.2441c-.5537.6055-1.0859,1.085-1.5947,1.4375-.5088.3516-1.0186.6025-1.5273.752s-1.0703.2246-1.6846.2246c-.5918,0-1.1006-.0957-1.5273-.2861-.4268-.1914-.7803-.4531-1.0615-.7861-.2803-.333-.4883-.7305-.623-1.1904-.1348-.4609-.2021-.96-.2021-1.499,0-.8018.1445-1.6611.4326-2.5781s.7246-1.7402,1.3086-2.4707c.584-.7295,1.2832-1.2949,2.0996-1.6953s1.6846-.6016,2.6055-.6016c.9062,0,1.585.1836,2.0381.5508s.6797.9395.6797,1.7188c0,1.2725-.5967,2.2266-1.791,2.8633s-2.9668.9551-5.3174.9551c-.0898.4492-.1348.9355-.1348,1.459,0,.7871.1533,1.3574.46,1.7129s.8086.5332,1.5049.5332c.6885,0,1.3145-.1494,1.875-.4492.5625-.2988,1.1494-.7598,1.7637-1.3809l.6963.7305ZM323.083,88.6836c.6885-.0078,1.293-.0469,1.8135-.1182s.9678-.168,1.3418-.292c.375-.123.6855-.2715.9326-.4434s.4434-.3613.5898-.5674c.1455-.2061.2471-.4229.3027-.6514.0566-.2285.085-.4658.085-.7129,0-.457-.1074-.8145-.3203-1.0723-.2139-.2588-.5303-.3877-.9492-.3877-.5244,0-1.0391.1895-1.5439.5674-.5059.3779-.9512.8867-1.3369,1.5273-.3857.6396-.6904,1.3564-.915,2.1504Z"/>
    <path class="cls-3" d="M338.6816,86.4375c-.0146-.5693-.0615-.9805-.1396-1.2354-.0791-.2549-.2061-.4453-.3818-.5732-.1758-.127-.4248-.1904-.7471-.1904-.7559,0-1.4355.3018-2.0381.9043s-1.0957,1.4561-1.4766,2.5605c-.3828,1.1045-.5732,2.165-.5732,3.1836,0,.3145.0283.6104.084.8877.0566.2764.1533.5156.292.7188.1387.2012.3223.3604.5508.4766s.5186.1738.8701.1738c.6816,0,1.2705-.1289,1.7686-.3867.498-.2588,1.0244-.665,1.5781-1.2188l.6855.6855c-.7041.7783-1.4141,1.3477-2.1289,1.707s-1.4844.5391-2.3076.5391c-1.0859,0-1.9092-.3223-2.4707-.9668-.5615-.6436-.8428-1.5791-.8428-2.8066,0-.8018.1504-1.6816.4492-2.6396.2998-.958.7383-1.8008,1.3145-2.5264.5762-.7266,1.25-1.2695,2.0215-1.6289s1.5947-.5391,2.4707-.5391c.5986,0,1.1211.0332,1.5664.1016.4453.0664.8408.1455,1.1855.2354l-.5508,2.5381h-1.1797Z"/>
    <path class="cls-3" d="M347.9707,92.4121c-.6133.7412-1.2197,1.3008-1.8184,1.6787-.5996.3779-1.2363.5674-1.9102.5674-.793,0-1.3848-.2021-1.7734-.6064-.3896-.4043-.584-.9922-.584-1.7627,0-.4727.0664-1,.2012-1.584l1.3926-5.8281h-1.6729l.124-.5732c.4414-.0527.791-.1475,1.0498-.2861.2578-.1387.4756-.3223.6514-.5508s.3389-.5254.4883-.8926.3369-.9023.5615-1.6055h1.5498l-.6172,2.7734h3.5596l-.2471,1.1348h-3.5713l-1.0781,4.3574c-.2998,1.2129-.4492,2.1182-.4492,2.7168,0,.457.0996.8037.2979,1.0391.1982.2363.4883.3535.8701.3535.3447,0,.7061-.1328,1.084-.3984s.792-.668,1.2412-1.207l.6504.6738Z"/>
    <path class="cls-3" d="M352.7656,94.6699c-1.1611,0-2.0615-.3262-2.7012-.9775-.6406-.6514-.9609-1.5869-.9609-2.8076,0-.4492.0566-.9766.1689-1.584.1426-.7852.3447-1.4824.6064-2.0879.3369-.7568.7695-1.4102,1.2969-1.96.5283-.5508,1.1348-.9697,1.8193-1.2578.6855-.2881,1.4209-.4326,2.207-.4326.8613,0,1.5664.165,2.1172.4941.5498.3291.9482.7764,1.1963,1.3418.2461.5654.3701,1.2188.3701,1.96,0,.666-.0938,1.3779-.2803,2.1338-.2695,1.1084-.6631,2.0479-1.1797,2.8184-.5166.7715-1.1641,1.3574-1.9434,1.7578-.7783.4004-1.6836.6016-2.7168.6016ZM351.0693,91.3672c0,.8242.1699,1.4326.5107,1.8252.3408.3936.8555.5898,1.5449.5898.7334,0,1.3848-.3291,1.9531-.9883.5693-.6592,1.0186-1.582,1.3477-2.7686.3301-1.1865.4941-2.2285.4941-3.127,0-.8086-.1562-1.417-.4707-1.8252s-.8057-.6123-1.4717-.6123c-.7783,0-1.458.3262-2.0381.9766-.5801.6523-1.0371,1.584-1.3701,2.7969s-.5,2.2578-.5,3.1328Z"/>
    <path class="cls-3" d="M364.2998,83.6406h.6738l-.7861,2.7637.1348.0449c.7109-.9814,1.4053-1.707,2.083-2.1797.6777-.4707,1.376-.707,2.0947-.707.5469,0,1.0029.041,1.3701.123l-.5391,2.5156h-1.1572c-.0596-.3887-.1533-.6846-.2803-.8867s-.3252-.3027-.5947-.3027c-.293,0-.6289.1494-1.0117.4492-.3809.2988-.7705.7109-1.168,1.2344-.3965.5244-.6943,1.0078-.8926,1.4492s-.3496.9316-.4551,1.4707l-1.0215,4.8633h-1.9434l1.707-7.6699c.1582-.7041.2363-1.2393.2363-1.6064,0-.21-.0332-.3721-.1016-.4883-.0664-.1162-.1758-.2021-.3252-.2588-.1494-.0557-.4043-.0957-.7637-.1172l.124-.5957,2.6162-.1016Z"/>
    <path class="cls-3" d="M377.1123,94.6699c-.2549,1.1973-.6045,2.1484-1.0498,2.8516-.4453.7041-.9863,1.21-1.623,1.5166s-1.4072.46-2.3135.46c-.3291,0-.625-.0371-.8877-.1113l.2588-.9883c.1797.0596.4414.0898.7861.0898.3965,0,.7207-.0527.9717-.1582.251-.1045.4824-.2744.6963-.5107.2129-.2354.415-.5801.6064-1.0332.1904-.4531.3721-1.0498.5439-1.791l2.2803-10.1182h-1.3584l.1348-.5732c.3662-.0371.625-.0879.7744-.1514s.2715-.1504.3652-.2588.1777-.2617.2529-.46c.0742-.1982.1826-.541.3252-1.0273.3965-1.3477,1.0088-2.3604,1.8359-3.0381s1.8818-1.0166,3.1611-1.0166c.7344,0,1.3672.0596,1.8984.1797l-.4375,1.9092h-.9883c-.1055-.4268-.2422-.7334-.4102-.9209-.1689-.1875-.418-.2812-.7471-.2812-.4268,0-.79.1162-1.0889.3486-.2998.2324-.5566.582-.7695,1.0498-.2139.4678-.4102,1.0957-.5898,1.8809l-.2812,1.2246h2.5723l-.2471,1.1348h-2.583l-2.0889,9.793Z"/>
    <path class="cls-3" d="M385.5801,94.6699c-1.1611,0-2.0615-.3262-2.7012-.9775-.6406-.6514-.9609-1.5869-.9609-2.8076,0-.4492.0566-.9766.1689-1.584.1426-.7852.3447-1.4824.6064-2.0879.3369-.7568.7695-1.4102,1.2969-1.96.5283-.5508,1.1348-.9697,1.8193-1.2578.6855-.2881,1.4209-.4326,2.207-.4326.8613,0,1.5664.165,2.1172.4941.5498.3291.9482.7764,1.1963,1.3418.2461.5654.3701,1.2188.3701,1.96,0,.666-.0938,1.3779-.2803,2.1338-.2695,1.1084-.6631,2.0479-1.1797,2.8184-.5166.7715-1.1641,1.3574-1.9434,1.7578-.7783.4004-1.6836.6016-2.7168.6016ZM383.8838,91.3672c0,.8242.1699,1.4326.5107,1.8252.3408.3936.8555.5898,1.5449.5898.7334,0,1.3848-.3291,1.9531-.9883.5693-.6592,1.0186-1.582,1.3477-2.7686.3301-1.1865.4941-2.2285.4941-3.127,0-.8086-.1562-1.417-.4707-1.8252s-.8057-.6123-1.4717-.6123c-.7783,0-1.458.3262-2.0381.9766-.5801.6523-1.0371,1.584-1.3701,2.7969s-.5,2.2578-.5,3.1328Z"/>
    <path class="cls-3" d="M397.1143,83.6406h.6738l-.7861,2.7637.1348.0449c.7109-.9814,1.4053-1.707,2.083-2.1797.6777-.4707,1.376-.707,2.0947-.707.5469,0,1.0029.041,1.3701.123l-.5391,2.5156h-1.1572c-.0596-.3887-.1533-.6846-.2803-.8867s-.3252-.3027-.5947-.3027c-.293,0-.6289.1494-1.0117.4492-.3809.2988-.7705.7109-1.168,1.2344-.3965.5244-.6943,1.0078-.8926,1.4492s-.3496.9316-.4551,1.4707l-1.0215,4.8633h-1.9434l1.707-7.6699c.1582-.7041.2363-1.2393.2363-1.6064,0-.21-.0332-.3721-.1016-.4883-.0664-.1162-.1758-.2021-.3252-.2588-.1494-.0557-.4043-.0957-.7637-.1172l.124-.5957,2.6162-.1016Z"/>
    <path class="cls-3" d="M416.2158,92.2441c-.5537.6055-1.0859,1.085-1.5947,1.4375-.5088.3516-1.0186.6025-1.5273.752s-1.0703.2246-1.6846.2246c-.5918,0-1.1006-.0957-1.5273-.2861-.4268-.1914-.7803-.4531-1.0615-.7861-.2803-.333-.4883-.7305-.623-1.1904-.1348-.4609-.2021-.96-.2021-1.499,0-.8018.1445-1.6611.4326-2.5781s.7246-1.7402,1.3086-2.4707c.584-.7295,1.2832-1.2949,2.0996-1.6953s1.6846-.6016,2.6055-.6016c.9062,0,1.585.1836,2.0381.5508s.6797.9395.6797,1.7188c0,1.2725-.5967,2.2266-1.791,2.8633s-2.9668.9551-5.3174.9551c-.0898.4492-.1348.9355-.1348,1.459,0,.7871.1533,1.3574.46,1.7129s.8086.5332,1.5049.5332c.6885,0,1.3145-.1494,1.875-.4492.5625-.2988,1.1494-.7598,1.7637-1.3809l.6963.7305ZM410.2412,88.6836c.6885-.0078,1.293-.0469,1.8135-.1182s.9678-.168,1.3418-.292c.375-.123.6855-.2715.9326-.4434s.4434-.3613.5898-.5674c.1455-.2061.2471-.4229.3027-.6514.0566-.2285.085-.4658.085-.7129,0-.457-.1074-.8145-.3203-1.0723-.2139-.2588-.5303-.3877-.9492-.3877-.5244,0-1.0391.1895-1.5439.5674-.5059.3779-.9512.8867-1.3369,1.5273-.3857.6396-.6904,1.3564-.915,2.1504Z"/>
    <path class="cls-3" d="M428.0752,83.7422l.3037.5615c-.2773.666-.4893,1.1602-.6348,1.4824-.1465.3223-.3447.7246-.5957,1.207-.251.4834-.5312.9902-.8418,1.5225-.3105.5312-.665,1.0996-1.0615,1.707-.3965.6055-.8477,1.2725-1.3535,1.998-.5049.7266-1.0986,1.5391-1.7803,2.4375h-1.4033l-1.0439-8.4785c-.0684-.5469-.1406-.9385-.2197-1.1738-.0781-.2363-.1924-.4082-.3428-.5166-.1494-.1084-.3848-.1748-.707-.1963l.123-.5508h2.8867l.8535,8.9277c1.2881-1.7734,2.2422-3.2676,2.8633-4.4805.6221-1.2129.9326-2.1973.9326-2.9531,0-.3525-.0752-.5918-.2246-.7188-.1494-.1279-.4043-.2031-.7637-.2246l.1123-.5508h2.8975Z"/>
    <path class="cls-3" d="M437.1943,92.2441c-.5537.6055-1.0859,1.085-1.5947,1.4375-.5088.3516-1.0186.6025-1.5273.752s-1.0703.2246-1.6846.2246c-.5918,0-1.1006-.0957-1.5273-.2861-.4268-.1914-.7803-.4531-1.0615-.7861-.2803-.333-.4883-.7305-.623-1.1904-.1348-.4609-.2021-.96-.2021-1.499,0-.8018.1445-1.6611.4326-2.5781s.7246-1.7402,1.3086-2.4707c.584-.7295,1.2832-1.2949,2.0996-1.6953s1.6846-.6016,2.6055-.6016c.9062,0,1.585.1836,2.0381.5508s.6797.9395.6797,1.7188c0,1.2725-.5967,2.2266-1.791,2.8633s-2.9668.9551-5.3174.9551c-.0898.4492-.1348.9355-.1348,1.459,0,.7871.1533,1.3574.46,1.7129s.8086.5332,1.5049.5332c.6885,0,1.3145-.1494,1.875-.4492.5625-.2988,1.1494-.7598,1.7637-1.3809l.6963.7305ZM431.2197,88.6836c.6885-.0078,1.293-.0469,1.8135-.1182s.9678-.168,1.3418-.292c.375-.123.6855-.2715.9326-.4434s.4434-.3613.5898-.5674c.1455-.2061.2471-.4229.3027-.6514.0566-.2285.085-.4658.085-.7129,0-.457-.1074-.8145-.3203-1.0723-.2139-.2588-.5303-.3877-.9492-.3877-.5244,0-1.0391.1895-1.5439.5674-.5059.3779-.9512.8867-1.3369,1.5273-.3857.6396-.6904,1.3564-.915,2.1504Z"/>
    <path class="cls-3" d="M443.0342,83.6406h.6738l-.7861,2.7637.1348.0449c.7109-.9814,1.4053-1.707,2.083-2.1797.6777-.4707,1.376-.707,2.0947-.707.5469,0,1.0029.041,1.3701.123l-.5391,2.5156h-1.1572c-.0596-.3887-.1533-.6846-.2803-.8867s-.3252-.3027-.5947-.3027c-.293,0-.6289.1494-1.0117.4492-.3809.2988-.7705.7109-1.168,1.2344-.3965.5244-.6943,1.0078-.8926,1.4492s-.3496.9316-.4551,1.4707l-1.0215,4.8633h-1.9434l1.707-7.6699c.1582-.7041.2363-1.2393.2363-1.6064,0-.21-.0332-.3721-.1016-.4883-.0664-.1162-.1758-.2021-.3252-.2588-.1494-.0557-.4043-.0957-.7637-.1172l.124-.5957,2.6162-.1016Z"/>
    <path class="cls-3" d="M450.3457,86.1904c-.0752-.5693-.1465-.9639-.2139-1.1846s-.1758-.3896-.3252-.5059c-.1504-.1162-.3936-.1855-.7305-.207l.123-.5508h2.8867l.8535,8.9277c2.5303-3.459,3.7959-5.9365,3.7959-7.4336,0-.3525-.0752-.5918-.2246-.7188-.1494-.1279-.4043-.2031-.7637-.2246l.1123-.5508h2.8975l.3037.5615c-.3975,1.041-.9043,2.1191-1.5225,3.2344-.6172,1.1152-1.374,2.3359-2.2686,3.6611s-1.8887,2.7031-2.9814,4.1328c-.8389,1.1006-1.542,1.9316-2.1113,2.4932-.4414.4268-.8477.751-1.2188.9717-.3701.2207-.7295.3779-1.0781.4717-.3477.0938-.7168.1396-1.1064.1396-.2012,0-.4297-.0205-.6846-.0615s-.4717-.0947-.6514-.1631l.4824-2.0996h.877c.0068.2549.0664.457.1797.6064.1113.1494.2764.2246.4941.2246.2393,0,.4453-.0244.6172-.0732s.3535-.1289.5449-.2412c.1904-.1123.4229-.292.6963-.5391s.582-.5742.9268-.9824c.3438-.4082.7295-.9004,1.1562-1.4775l-1.0664-8.4111Z"/>
    <path class="cls-3" d="M463.3281,94.6699c-1.1611,0-2.0615-.3262-2.7012-.9775-.6406-.6514-.9609-1.5869-.9609-2.8076,0-.4492.0566-.9766.1689-1.584.1426-.7852.3447-1.4824.6064-2.0879.3369-.7568.7695-1.4102,1.2969-1.96.5283-.5508,1.1348-.9697,1.8193-1.2578.6855-.2881,1.4209-.4326,2.207-.4326.8613,0,1.5664.165,2.1172.4941.5498.3291.9482.7764,1.1963,1.3418.2461.5654.3701,1.2188.3701,1.96,0,.666-.0938,1.3779-.2803,2.1338-.2695,1.1084-.6631,2.0479-1.1797,2.8184-.5166.7715-1.1641,1.3574-1.9434,1.7578-.7783.4004-1.6836.6016-2.7168.6016ZM461.6318,91.3672c0,.8242.1699,1.4326.5107,1.8252.3408.3936.8555.5898,1.5449.5898.7334,0,1.3848-.3291,1.9531-.9883.5693-.6592,1.0186-1.582,1.3477-2.7686.3301-1.1865.4941-2.2285.4941-3.127,0-.8086-.1562-1.417-.4707-1.8252s-.8057-.6123-1.4717-.6123c-.7783,0-1.458.3262-2.0381.9766-.5801.6523-1.0371,1.584-1.3701,2.7969s-.5,2.2578-.5,3.1328Z"/>
    <path class="cls-3" d="M480.9824,94.4785h-3.5371l1.4258-5.7051c.0898-.3672.1787-.7715.2646-1.2129s.1289-.8389.1289-1.1904c0-.5312-.0918-.9131-.2754-1.1455s-.4697-.3477-.8584-.3477c-.3145,0-.6533.1211-1.0166.3643s-.7432.6064-1.1396,1.0898c-.3975.4824-.7324.9727-1.0059,1.4707s-.4844,1.1025-.6348,1.8135l-1.0215,4.8633h-1.9434l1.707-7.6699c.0381-.1729.0889-.4277.1523-.7637.0635-.3379.0957-.6182.0957-.8428,0-.21-.0322-.3721-.0957-.4883s-.1729-.2021-.3262-.2588c-.1533-.0557-.4131-.0957-.7803-.1172l.1348-.5957,2.5498-.1016h.6396l-.7529,2.9199.1348.0449c.7344-1.0332,1.4414-1.7979,2.123-2.2959s1.3623-.7471,2.0439-.7471c.7266,0,1.2764.2002,1.6514.6006.374.4004.5605.9941.5605,1.7803,0,.2695-.0234.5635-.0723.8818s-.1035.6006-.1631.8477l-.9434,3.998c-.127.5391-.1904.9658-.1904,1.2803,0,.2246.0371.4004.1113.5273.0752.1279.1914.2246.3486.293.1572.0664.415.1191.7744.1562l-.0898.5508Z"/>
    <path class="cls-3" d="M491.8428,92.2441c-.5537.6055-1.0859,1.085-1.5947,1.4375-.5088.3516-1.0186.6025-1.5273.752s-1.0703.2246-1.6846.2246c-.5918,0-1.1006-.0957-1.5273-.2861-.4268-.1914-.7803-.4531-1.0615-.7861-.2803-.333-.4883-.7305-.623-1.1904-.1348-.4609-.2021-.96-.2021-1.499,0-.8018.1445-1.6611.4326-2.5781s.7246-1.7402,1.3086-2.4707c.584-.7295,1.2832-1.2949,2.0996-1.6953s1.6846-.6016,2.6055-.6016c.9062,0,1.585.1836,2.0381.5508s.6797.9395.6797,1.7188c0,1.2725-.5967,2.2266-1.791,2.8633s-2.9668.9551-5.3174.9551c-.0898.4492-.1348.9355-.1348,1.459,0,.7871.1533,1.3574.46,1.7129s.8086.5332,1.5049.5332c.6885,0,1.3145-.1494,1.875-.4492.5625-.2988,1.1494-.7598,1.7637-1.3809l.6963.7305ZM485.8682,88.6836c.6885-.0078,1.293-.0469,1.8135-.1182s.9678-.168,1.3418-.292c.375-.123.6855-.2715.9326-.4434s.4434-.3613.5898-.5674c.1455-.2061.2471-.4229.3027-.6514.0566-.2285.085-.4658.085-.7129,0-.457-.1074-.8145-.3203-1.0723-.2139-.2588-.5303-.3877-.9492-.3877-.5244,0-1.0391.1895-1.5439.5674-.5059.3779-.9512.8867-1.3369,1.5273-.3857.6396-.6904,1.3564-.915,2.1504Z"/>
  </g>
  <g id="Layer_2" data-name="Layer 2">
    <g>
      <rect class="cls-1" x="13.893" y="53.1002" width="40.3708" height="4.0916"/>
      <path class="cls-1" d="M27.8591,44.9714c0,2.1277-1.6912,3.928-3.8734,3.928-2.1277,0-3.928-1.6912-3.928-3.8734,0-2.1277,1.6912-3.928,3.8734-3.928h0c2.1822,0,3.928,1.6912,3.928,3.8734Z"/>
      <path class="cls-1" d="M48.0445,44.9714c0,2.1277-1.6912,3.8734-3.8734,3.928-2.1277,0-3.8734-1.6912-3.928-3.8734,0-2.1277,1.6912-3.8734,3.8734-3.928h0c2.1822,0,3.928,1.6912,3.928,3.8734Z"/>
      <path class="cls-1" d="M48.0445,44.9714c0,2.1277-1.6912,3.8734-3.8734,3.928-2.1277,0-3.8734-1.6912-3.928-3.8734,0-2.1277,1.6912-3.8734,3.8734-3.928h0c2.1822,0,3.928,1.6912,3.928,3.8734Z"/>
      <path class="cls-1" d="M58.1372,44.9714c.0546,2.1277-1.5821,3.928-3.7098,4.0371s-3.928-1.5821-4.0371-3.7098v-.2728c.0546-2.1277,1.9094-3.8189,4.0371-3.7098,2.0185,0,3.6552,1.5821,3.7098,3.6552Z"/>
      <path class="cls-1" d="M10.0196,44.9714c0,2.1277,1.6912,3.8734,3.8734,3.928s3.8734-1.6912,3.928-3.8734-1.6912-3.8734-3.8734-3.928h0c-2.1822,0-3.928,1.6912-3.928,3.8734Z"/>
      <path class="cls-1" d="M39.0975,7.1647v-2.5641h-3.7643V1h-2.5641v3.6006h-3.7097v2.5641h3.7643v3.928c-2.6186.7092-4.1462,3.3824-3.437,6.0011s3.3824,4.1462,6.0011,3.437,4.1462-3.3824,3.437-6.0011c-.4364-1.6912-1.8003-3.0005-3.437-3.437v-3.928h3.7097Z"/>
      <rect class="cls-1" x="13.893" y="59.8104" width="40.3708" height="4.0916"/>
      <path class="cls-1" d="M37.9518,44.9714c0,2.1277-1.7458,3.8734-3.8734,3.8734s-3.8734-1.7458-3.8734-3.8734,1.7458-3.8734,3.8734-3.8734h0c2.1276,0,3.8734,1.6912,3.8734,3.8734Z"/>
      <path class="cls-1" d="M64.2474,26.6409c-2.7278-2.6186-7.4741-2.6186-12.384-1.2002-.1091-.6001-.2728-1.2002-.5456-1.8003-.6547-1.3639-2.1822-3.0551-5.5646-3.3279-3.7098-.3273-8.6197,1.7458-11.6748,4.5826-3.0551-2.8369-7.9105-4.91-11.6202-4.5826-3.3824.3273-4.91,1.964-5.5646,3.3279-.2728.5456-.4364,1.1457-.5456,1.8003-4.91-1.4184-9.6563-1.4184-12.384,1.2002-1.3093,1.0911-1.964,2.6732-1.964,4.3099.0546,3.4915,3.1096,7.0376,6.9831,10.7474.2182-.3273.4364-.6001.7092-.8729.9274-.8729,2.0731-1.473,3.3279-1.6367-3.1642-3.0551-6.3284-6.3284-6.3284-8.2924,0-.3273.1637-.7092.4364-.9274,1.473-1.4184,5.4555-1.0911,9.7108.491.7638,2.5641,2.2368,5.6192,4.419,9.2744,1.6912-.8729,3.6552-.8729,5.3464-.0546l-.8729-1.473c-4.2007-6.6557-4.91-9.9836-4.91-11.4566,0-.3819.0546-.7092.1637-1.0365.2182-.4364.8183-.7092,1.8549-.7638,2.8369-.2728,7.2558,1.964,8.947,4.3099v10.3109c1.473-.6001,3.1642-.6001,4.6372,0v-10.3655c1.6912-2.3459,6.1102-4.5281,8.947-4.3099,1.0365.1091,1.6367.3819,1.8549.7638.1091.3273.2182.7092.1637,1.0365,0,1.473-.7092,4.8009-4.91,11.4566,0,0-.3273.6001-.8729,1.473,1.6912-.8183,3.6552-.8183,5.3464.0546,2.2368-3.6552,3.6552-6.7103,4.419-9.2744,4.2553-1.5821,8.2378-1.9094,9.7108-.491.2728.2182.4364.5456.4364.9274-.0546,1.964-3.2188,5.2373-6.4375,8.2378,1.2548.1637,2.455.7638,3.3279,1.6367.2728.2728.491.5456.7092.8729,3.8734-3.7098,6.9285-7.2558,6.9831-10.7474.0545-1.5275-.6547-3.1096-1.8549-4.2007Z"/>
    </g>
    <g>
      <path class="cls-2" d="M98.5626,16.1118h6.2193c6.9831,0,13.1478,1.964,13.1478,9.438s-6.1647,9.438-13.1478,9.438h-6.2193v-18.8761ZM103.1452,32.0419h2.5641c3.8189,0,7.5286-2.3459,7.5286-6.4375s-3.7098-6.4375-7.5286-6.4375h-2.5641v12.875Z"/>
      <path class="cls-2" d="M123.9307,20.3125h4.8009l5.6737,14.6753h-4.3099l-1.0911-3.1096h-5.5101l-1.1457,3.1096h-3.9825l5.5646-14.6753ZM126.3312,23.3676h0l-1.9094,5.7283h3.6552l-1.7458-5.7283Z"/>
      <path class="cls-2" d="M136.8058,20.3125h4.9645l4.9645,9.929h.0546l-.0546-9.929h3.5461v14.6753h-4.8554l-5.1282-9.9836h-.0546l.1091,10.0381h-3.6006v-14.7299h.0546Z"/>
      <path class="cls-2" d="M154.318,20.3125h3.928v14.6753h-3.928v-14.6753Z"/>
      <path class="cls-2" d="M161.9011,31.3872c1.2548.6547,2.6186.982,4.0371.982,1.2548,0,2.4004-.2728,2.4004-1.4184,0-2.7278-6.9285-.982-6.9285-6.3284,0-3.5461,3.437-4.4735,6.383-4.4735,1.2548,0,2.5641.1637,3.7643.5456l-.2728,3.0005c-1.0365-.4364-2.1276-.7092-3.2733-.6547-.982,0-2.6186.1091-2.6186,1.3639,0,2.4004,6.9285.7638,6.9285,6.0556,0,3.8189-3.2188,4.8554-6.4375,4.8554-1.473,0-2.946-.2182-4.3644-.6547l.3819-3.2733Z"/>
      <path class="cls-2" d="M175.7036,20.3125h3.928v5.6192h4.6372v-5.6192h3.928v14.6753h-3.928v-6.2738h-4.6372v6.2738h-3.928v-14.6753Z"/>
      <path class="cls-2" d="M199.326,16.1118h12.6568v2.946h-8.1287v4.6372h7.6923v2.946h-7.6923v8.2924h-4.5826v-18.8215h.0545Z"/>
      <path class="cls-2" d="M215.0378,20.3125h3.928v14.6753h-3.928v-14.6753Z"/>
      <path class="cls-2" d="M223.0574,20.3125h4.9645l4.9645,9.929h.0546l-.0546-9.929h3.5461v14.6753h-4.8554l-5.0736-9.9836h-.0546l.1091,10.0381h-3.6006v-14.7299Z"/>
      <path class="cls-2" d="M244.5522,20.3125h4.8008l5.6192,14.6753h-4.3099l-1.0911-3.1096h-5.5101l-1.1457,3.1096h-3.9825l5.6192-14.6753ZM246.9526,23.3676h0l-1.9094,5.7283h3.6552l-1.7458-5.7283Z"/>
      <path class="cls-2" d="M257.7,20.3125h4.9645l4.9645,9.929h.0546l-.0546-9.929h3.5461v14.6753h-4.8554l-5.1282-9.9836h-.0546l.1091,10.0381h-3.6006v-14.7299h.0546Z"/>
      <path class="cls-2" d="M286.7233,34.6605c-1.4184.3819-2.8914.6001-4.3644.6001-3.928,0-8.4015-1.964-8.4015-7.5286,0-5.0736,3.5461-7.6377,8.4015-7.6377,1.473.0546,2.946.2728,4.3644.7638l-.3273,3.1642c-1.1456-.6547-2.455-1.0365-3.8189-1.0365-2.7823,0-4.5826,2.0185-4.5826,4.7463,0,2.8914,2.0185,4.6372,4.9099,4.6372,1.2548,0,2.5095-.2728,3.6552-.7638l.1637,3.0551Z"/>
      <path class="cls-2" d="M290.2694,20.3125h3.928v14.6753h-3.928v-14.6753Z"/>
      <path class="cls-2" d="M302.6534,20.3125h4.8008l5.6192,14.6753h-4.2553l-1.0911-3.1096h-5.5101l-1.1456,3.1096h-3.9825l5.5646-14.6753ZM305.0538,23.3676h0l-1.9094,5.7283h3.6552l-1.7458-5.7283Z"/>
      <path class="cls-2" d="M315.583,20.3125h3.928v11.7839h6.0011v2.8914h-9.929v-14.6753Z"/>
      <path class="cls-2" d="M110.8375,48.5175c-1.473-.5456-3.0551-.8183-4.6372-.8183s-3.6006.5456-3.6006,2.6186c0,3.2733,9.9836,1.9094,9.9836,8.1833,0,4.1462-3.928,5.6737-8.5652,5.6737-1.964,0-3.928-.2728-5.8374-.7092l.4364-3.3824c1.6367.7638,3.3824,1.1457,5.1827,1.1457,1.7458,0,4.0371-.7092,4.0371-2.4004,0-3.6006-9.9836-2.1277-9.9836-8.3469,0-4.2007,3.928-5.7283,7.9651-5.7283,1.8549,0,3.6552.2182,5.4555.6547l-.4364,3.1096Z"/>
      <path class="cls-2" d="M128.4588,58.3375c0,4.0371-2.6186,5.8374-6.4375,5.8374s-6.4375-1.8003-6.4375-5.8374v-9.1107h3.928v8.456c0,1.9094.5456,3.5461,2.5095,3.5461s2.5095-1.6367,2.5095-3.5461v-8.456h3.928v9.1107Z"/>
      <path class="cls-2" d="M131.8958,49.2267h4.6372c4.4735,0,6.5466,1.5275,6.5466,4.8009,0,2.946-2.1822,4.7463-5.8374,4.7463h-1.5275v5.1282h-3.928l.1091-14.6753ZM135.7692,55.9916h1.0365c1.3639,0,2.4004-.491,2.4004-2.0185s-1.0911-1.964-2.4004-1.964h-1.0365v3.9825Z"/>
      <path class="cls-2" d="M146.0801,49.2267h10.3655v2.7823h-6.4375v3.0551h6.0556v2.7823h-6.0556v3.3279h6.6557v2.7823h-10.5837v-14.7299h0Z"/>
      <path class="cls-2" d="M160.4281,49.2267h6.9831c2.6186,0,4.7463,1.2002,4.7463,3.7098,0,1.964-.9274,3.2733-2.8369,3.7098v.0546c1.2548.3273,1.3639,1.473,2.0731,3.2188l1.4184,3.9825h-4.0916l-.8183-2.6732c-.8183-2.5095-1.3093-3.1642-2.7278-3.1642h-.8183v5.7828h-3.928v-14.6208h0ZM164.3561,55.3369h1.0365c1.2548,0,2.8369-.0546,2.8369-1.6912,0-1.3639-1.3639-1.6367-2.8369-1.6367h-1.0365v3.3279Z"/>
      <path class="cls-2" d="M174.2306,49.2267h4.1462l3.2733,11.5111h.0546l3.2733-11.5111h4.0371l-5.0191,14.6753h-4.8554l-4.91-14.6753Z"/>
      <path class="cls-2" d="M191.3609,49.2267h3.928v14.6753h-3.928v-14.6753Z"/>
      <path class="cls-2" d="M198.9441,60.3014c1.2548.6547,2.6186.982,4.0371.982,1.2548,0,2.4004-.2728,2.4004-1.4184,0-2.7278-6.9285-.982-6.9285-6.3284,0-3.5461,3.437-4.4735,6.383-4.4735,1.2548,0,2.5641.1637,3.7643.5456l-.2728,3.0005c-1.0365-.4364-2.1276-.7092-3.2733-.6547-.982,0-2.6186.1091-2.6186,1.3639,0,2.4004,6.9285.7638,6.9285,6.0556,0,3.8189-3.2188,4.8554-6.4375,4.8554-1.473,0-2.946-.2182-4.3644-.6547l.3819-3.2733Z"/>
      <path class="cls-2" d="M219.1295,49.0085c4.8554,0,7.3649,2.8914,7.3649,7.5832s-2.5641,7.5832-7.3649,7.5832-7.3104-2.946-7.3104-7.5832,2.5095-7.5832,7.3104-7.5832ZM219.1295,61.2289c2.4004,0,3.3279-2.2913,3.3279-4.6917,0-2.5641-.9274-4.6917-3.3279-4.6917s-3.3279,2.1277-3.3279,4.6917c.0546,2.455.982,4.6917,3.3279,4.6917Z"/>
      <path class="cls-2" d="M229.3858,49.2267h6.9831c2.6186,0,4.7463,1.2002,4.7463,3.7098,0,1.964-.9274,3.2733-2.7823,3.7098v.0546c1.2548.3273,1.3639,1.473,2.0731,3.2188l1.4184,3.9825h-4.0916l-.8183-2.6732c-.8183-2.5095-1.3093-3.1642-2.7278-3.1642h-.8729v5.7828h-3.928v-14.6208ZM233.3138,55.3369h1.0365c1.2548,0,2.8369-.0546,2.8369-1.6912,0-1.3639-1.3639-1.6367-2.8369-1.6367h-1.0365v3.3279Z"/>
      <path class="cls-2" d="M247.8255,58.392l-5.401-9.1653h4.4735l2.8914,5.892,2.8369-5.892h4.4735l-5.401,9.1653v5.5101h-3.928v-5.5101h.0545Z"/>
      <path class="cls-2" d="M273.6846,45.026h5.1827l8.9471,18.8761h-5.0736l-1.964-4.3099h-9.2198l-1.964,4.3099h-4.7463l8.8379-18.8761ZM276.1942,48.8449h-.0546l-3.2733,7.8014h6.6557l-3.3279-7.8014Z"/>
      <path class="cls-2" d="M302.5988,58.3375c0,4.0371-2.6186,5.8374-6.4375,5.8374s-6.4375-1.8003-6.4375-5.8374v-9.1107h3.8734v8.456c0,1.9094.5456,3.5461,2.5095,3.5461s2.5095-1.6367,2.5095-3.5461v-8.456h3.928l.0546,9.1107Z"/>
      <path class="cls-2" d="M308.709,52.1182h-3.6006v-2.8914h11.1293v2.8914h-3.6006v11.7839h-3.928v-11.7839h0Z"/>
      <path class="cls-2" d="M318.6381,49.2267h3.928v5.6192h4.6372v-5.6192h3.928v14.6753h-3.928v-6.2738h-4.6372v6.2738h-3.928v-14.6753Z"/>
      <path class="cls-2" d="M341.1148,49.0085c4.8008,0,7.3649,2.8914,7.3649,7.5832s-2.5641,7.5832-7.3649,7.5832-7.3649-2.946-7.3649-7.5832,2.5641-7.5832,7.3649-7.5832ZM341.1148,61.2289c2.3459,0,3.3279-2.2913,3.3279-4.6917,0-2.5641-.9274-4.6917-3.3279-4.6917s-3.3279,2.1277-3.3279,4.6917c.0545,2.455.982,4.6917,3.3279,4.6917Z"/>
      <path class="cls-2" d="M351.262,49.2267h6.9831c2.6186,0,4.7463,1.2002,4.7463,3.7098,0,1.964-.9274,3.2733-2.8369,3.7098v.0546c1.2548.3273,1.3639,1.473,2.0731,3.2188l1.4184,3.9825h-4.0916l-.8183-2.6732c-.8183-2.5095-1.3093-3.1642-2.7278-3.1642h-.8183v5.7828h-3.928v-14.6208ZM355.19,55.3369h1.0366c1.2548,0,2.8369-.0546,2.8369-1.6912,0-1.3639-1.3639-1.6367-2.8369-1.6367h-1.0366v3.3279Z"/>
      <path class="cls-2" d="M366.9194,49.2267h3.928v14.6753h-3.928v-14.6753Z"/>
      <path class="cls-2" d="M377.6122,52.1182h-3.6006v-2.8914h11.1293v2.8914h-3.6006v11.7839h-3.928v-11.7839Z"/>
      <path class="cls-2" d="M392.1784,58.392l-5.401-9.1653h4.4735l2.8914,5.892,2.8369-5.892h4.4735l-5.401,9.1653v5.5101h-3.928l.0546-5.5101Z"/>
    </g>
  </g>
  <metadata>
    <sfw xmlns="http://ns.adobe.com/SaveForWeb/1.0/">
      <slices/>
      <sliceSourceBounds x="0.46" y="-40.8" width="492.33" height="98.5" bottomLeftOrigin="true"/>
    </sfw>
  </metadata>
</svg>