<?xml version="1.0" encoding="utf-8"?>
<!-- Generator: Adobe Illustrator 24.0.0, SVG Export Plug-In . SVG Version: 6.00 Build 0)  -->
<svg version="1.1" id="Layer_1" xmlns:xodm="http://www.corel.com/coreldraw/odm/2003"
	 xmlns="http://www.w3.org/2000/svg" xmlns:xlink="http://www.w3.org/1999/xlink" x="0px" y="0px" viewBox="0 0 279 261"
	 style="enable-background:new 0 0 279 261;" xml:space="preserve">
<style type="text/css">
	.st0{enable-background:new    ;}
	.st1{fill:#2A2F3C;}
	.st2{fill:#D5933B;}
	.st3{fill-rule:evenodd;clip-rule:evenodd;fill:#2A2F3C;}
	.st4{fill-rule:evenodd;clip-rule:evenodd;fill:#D49238;}
</style>
<g>
	<g transform="matrix(0.885538 0 0 1 -2.48773E+003 -2.03506E+002)">
		<g class="st0">
			<path class="st1" d="M2854,368.8c-0.4,0-0.7,0.1-1,0.2c-0.3,0.2-0.5,0.4-0.7,0.7c-0.2,0.3-0.4,0.6-0.5,1.1
				c-0.1,0.4-0.2,0.9-0.2,1.4c0,0.7,0.1,1.3,0.3,1.8c0.2,0.5,0.5,0.9,0.8,1.1c0.4,0.2,0.8,0.4,1.4,0.4c0.5,0,1-0.1,1.5-0.2
				s0.9-0.3,1.4-0.5v2.6c-0.5,0.2-1,0.4-1.5,0.5c-0.5,0.1-1.1,0.1-1.7,0.1c-1.2,0-2.2-0.2-3-0.7c-0.8-0.5-1.4-1.2-1.7-2
				s-0.6-1.9-0.6-3c0-0.9,0.1-1.6,0.4-2.4c0.2-0.7,0.6-1.3,1.1-1.9c0.5-0.5,1-0.9,1.7-1.2c0.7-0.3,1.5-0.4,2.3-0.4
				c0.5,0,1.1,0.1,1.7,0.2c0.6,0.1,1.2,0.3,1.8,0.6l-0.9,2.4c-0.4-0.2-0.8-0.4-1.3-0.5C2854.9,368.9,2854.5,368.8,2854,368.8z"/>
		</g>
		<g class="st0">
			<path class="st1" d="M2865.9,377.8h-6.7v-11.3h6.7v2.5h-3.7v1.8h3.4v2.5h-3.4v2.1h3.7V377.8z"/>
			<path class="st1" d="M2878.7,377.8h-4l-4.1-8h-0.1c0,0.2,0,0.5,0.1,0.9c0,0.3,0,0.7,0.1,1c0,0.4,0,0.7,0,1v5.1h-2.7v-11.3h4
				l4.1,7.9h0c0-0.2,0-0.5,0-0.9c0-0.3,0-0.7,0-1c0-0.3,0-0.6,0-0.9v-5.1h2.7V377.8z"/>
			<path class="st1" d="M2886.1,377.8h-3.1V369h-2.8v-2.5h8.6v2.5h-2.8V377.8z"/>
			<path class="st1" d="M2894.2,366.5c1,0,1.9,0.1,2.6,0.4c0.7,0.3,1.2,0.6,1.5,1.1c0.3,0.5,0.5,1.1,0.5,1.8c0,0.5-0.1,0.9-0.2,1.3
				c-0.2,0.4-0.4,0.7-0.7,1c-0.3,0.3-0.6,0.6-1,0.8l3.3,4.9h-3.5l-2.4-4.1h-0.8v4.1h-3.1v-11.3H2894.2z M2894.1,368.8h-0.6v2.6h0.6
				c0.5,0,0.9-0.1,1.2-0.3c0.3-0.2,0.4-0.6,0.4-1.1c0-0.4-0.1-0.7-0.4-0.9S2894.7,368.8,2894.1,368.8z"/>
			<path class="st1" d="M2908.1,377.8l-0.6-2.1h-3.7l-0.6,2.1h-3.4l3.7-11.4h4.1l3.7,11.4H2908.1z M2906.9,373.2l-0.5-1.9
				c-0.1-0.2-0.1-0.5-0.2-0.9s-0.2-0.8-0.3-1.2c-0.1-0.4-0.2-0.7-0.2-1c0,0.3-0.1,0.6-0.2,1c-0.1,0.4-0.2,0.8-0.3,1.1
				c-0.1,0.4-0.2,0.7-0.2,0.9l-0.5,1.9H2906.9z"/>
			<path class="st1" d="M2912.7,377.8v-11.3h3.1v8.8h4.4v2.5H2912.7z"/>
			<path class="st1" d="M2926,366.5h3.9c1.6,0,2.8,0.2,3.5,0.7c0.7,0.5,1,1.2,1,2.1c0,0.5-0.1,0.9-0.3,1.3c-0.2,0.3-0.4,0.6-0.7,0.8
				c-0.3,0.2-0.5,0.3-0.8,0.4v0.1c0.3,0.1,0.6,0.2,0.9,0.4c0.3,0.2,0.6,0.4,0.8,0.8s0.3,0.8,0.3,1.4c0,0.7-0.2,1.3-0.5,1.8
				c-0.3,0.5-0.8,0.9-1.5,1.1c-0.6,0.3-1.4,0.4-2.3,0.4h-4.4V366.5z M2929.1,370.8h0.9c0.5,0,0.9-0.1,1.1-0.3
				c0.2-0.2,0.3-0.5,0.3-0.8c0-0.3-0.1-0.5-0.4-0.7s-0.6-0.2-1.1-0.2h-0.9V370.8z M2929.1,373.1v2.4h1.1c0.5,0,0.9-0.1,1.1-0.3
				s0.3-0.5,0.3-0.9c0-0.2,0-0.4-0.1-0.6c-0.1-0.2-0.2-0.3-0.5-0.4c-0.2-0.1-0.5-0.2-0.9-0.2H2929.1z"/>
			<path class="st1" d="M2943.7,377.8l-0.6-2.1h-3.7l-0.6,2.1h-3.4l3.7-11.4h4.1l3.7,11.4H2943.7z M2942.5,373.2l-0.5-1.9
				c-0.1-0.2-0.1-0.5-0.2-0.9s-0.2-0.8-0.3-1.2c-0.1-0.4-0.2-0.7-0.2-1c0,0.3-0.1,0.6-0.2,1c-0.1,0.4-0.2,0.8-0.3,1.1
				c-0.1,0.4-0.2,0.7-0.2,0.9l-0.5,1.9H2942.5z"/>
			<path class="st1" d="M2959,377.8h-4l-4.1-8h-0.1c0,0.2,0,0.5,0.1,0.9c0,0.3,0,0.7,0.1,1c0,0.4,0,0.7,0,1v5.1h-2.7v-11.3h4
				l4.1,7.9h0c0-0.2,0-0.5,0-0.9s0-0.7,0-1c0-0.3,0-0.6,0-0.9v-5.1h2.7V377.8z"/>
			<path class="st1" d="M2971.1,377.8h-3.5l-2.2-4.3l-0.9,0.5v3.8h-3.1v-11.3h3.1v4.9c0.1-0.2,0.3-0.5,0.4-0.7
				c0.2-0.2,0.3-0.5,0.5-0.7l2.4-3.5h3.3l-3.6,5.1L2971.1,377.8z"/>
			<path class="st1" d="M2987,372.1c0,0.9-0.1,1.7-0.3,2.4c-0.2,0.7-0.5,1.3-1,1.8c-0.4,0.5-1,0.9-1.7,1.2c-0.7,0.3-1.5,0.4-2.5,0.4
				c-0.9,0-1.8-0.1-2.5-0.4c-0.7-0.3-1.3-0.7-1.7-1.2c-0.4-0.5-0.8-1.1-1-1.8c-0.2-0.7-0.3-1.5-0.3-2.4c0-1.2,0.2-2.2,0.6-3.1
				c0.4-0.9,1-1.5,1.8-2c0.8-0.5,1.9-0.7,3.1-0.7c1.3,0,2.3,0.2,3.1,0.7c0.8,0.5,1.4,1.2,1.8,2C2986.8,369.9,2987,370.9,2987,372.1z
				 M2979.2,372.1c0,0.7,0.1,1.3,0.2,1.8c0.2,0.5,0.4,0.9,0.7,1.1c0.3,0.3,0.8,0.4,1.3,0.4c0.6,0,1-0.1,1.3-0.4
				c0.3-0.3,0.6-0.6,0.7-1.1c0.1-0.5,0.2-1.1,0.2-1.8c0-1-0.2-1.8-0.5-2.4s-0.9-0.9-1.8-0.9c-0.6,0-1,0.1-1.3,0.4
				c-0.3,0.3-0.6,0.6-0.7,1.1C2979.3,370.9,2979.2,371.4,2979.2,372.1z"/>
			<path class="st1" d="M2992.1,377.8h-3v-11.3h6.7v2.5h-3.7v2.2h3.4v2.5h-3.4V377.8z"/>
			<path class="st1" d="M3008.5,377.8h-6.7v-11.3h6.7v2.5h-3.7v1.8h3.4v2.5h-3.4v2.1h3.7V377.8z"/>
			<path class="st1" d="M3017.8,374.4c0,0.6-0.2,1.2-0.5,1.7c-0.3,0.5-0.8,1-1.4,1.3c-0.7,0.3-1.5,0.5-2.5,0.5c-0.5,0-1,0-1.4-0.1
				c-0.4,0-0.8-0.1-1.1-0.2c-0.3-0.1-0.7-0.2-1-0.4v-2.7c0.6,0.3,1.2,0.5,1.9,0.7c0.6,0.2,1.2,0.2,1.7,0.2c0.3,0,0.6,0,0.7-0.1
				c0.2-0.1,0.3-0.2,0.4-0.3c0.1-0.1,0.1-0.3,0.1-0.4c0-0.2-0.1-0.4-0.2-0.5c-0.1-0.1-0.4-0.3-0.7-0.4c-0.3-0.1-0.7-0.3-1.2-0.6
				c-0.4-0.2-0.8-0.4-1.1-0.6c-0.3-0.2-0.6-0.4-0.9-0.7c-0.2-0.3-0.4-0.6-0.6-0.9c-0.1-0.4-0.2-0.8-0.2-1.3c0-0.7,0.2-1.3,0.5-1.8
				c0.4-0.5,0.9-0.9,1.5-1.1c0.6-0.2,1.4-0.4,2.2-0.4c0.7,0,1.4,0.1,2,0.2c0.6,0.2,1.1,0.4,1.6,0.6l-0.9,2.4c-0.5-0.2-1-0.4-1.4-0.5
				c-0.5-0.1-0.9-0.2-1.3-0.2c-0.3,0-0.5,0-0.6,0.1c-0.2,0.1-0.3,0.2-0.4,0.3c-0.1,0.1-0.1,0.2-0.1,0.4c0,0.2,0.1,0.3,0.2,0.5
				s0.4,0.3,0.7,0.5s0.8,0.4,1.3,0.6c0.6,0.2,1,0.5,1.4,0.8c0.4,0.3,0.7,0.6,0.9,1C3017.7,373.3,3017.8,373.8,3017.8,374.4z"/>
			<path class="st1" d="M3034.6,366.5l-2.8,11.3h-3.6l-1.1-4.9c0-0.1-0.1-0.3-0.1-0.5c0-0.2-0.1-0.5-0.1-0.8
				c-0.1-0.3-0.1-0.6-0.1-0.8c0-0.3-0.1-0.5-0.1-0.7c0,0.2-0.1,0.4-0.1,0.7s-0.1,0.6-0.2,0.8c-0.1,0.3-0.1,0.5-0.2,0.8
				c0,0.2-0.1,0.4-0.1,0.5l-1.1,4.9h-3.6l-2.8-11.3h2.9l1.2,5.7c0,0.1,0.1,0.3,0.1,0.6c0.1,0.3,0.1,0.5,0.2,0.8s0.1,0.6,0.2,0.9
				c0.1,0.3,0.1,0.5,0.1,0.7c0-0.3,0.1-0.7,0.2-1.1s0.1-0.8,0.2-1.2c0.1-0.4,0.2-0.8,0.2-1.2c0.1-0.4,0.1-0.7,0.2-0.9l1-4.3h2.8
				l1,4.3c0.1,0.2,0.1,0.5,0.2,0.9c0.1,0.4,0.2,0.8,0.2,1.2c0.1,0.4,0.2,0.8,0.2,1.3c0.1,0.4,0.1,0.8,0.2,1.1c0-0.3,0.1-0.6,0.2-1
				c0.1-0.4,0.1-0.8,0.2-1.2c0.1-0.4,0.1-0.7,0.2-0.8l1.3-5.7H3034.6z"/>
			<path class="st1" d="M3043,377.8l-0.6-2.1h-3.7l-0.6,2.1h-3.4l3.7-11.4h4.1l3.7,11.4H3043z M3041.8,373.2l-0.5-1.9
				c-0.1-0.2-0.1-0.5-0.2-0.9s-0.2-0.8-0.3-1.2c-0.1-0.4-0.2-0.7-0.2-1c0,0.3-0.1,0.6-0.2,1c-0.1,0.4-0.2,0.8-0.3,1.1
				c-0.1,0.4-0.2,0.7-0.2,0.9l-0.5,1.9H3041.8z"/>
			<path class="st1" d="M3052.5,377.8h-3.1V369h-2.8v-2.5h8.6v2.5h-2.8V377.8z"/>
			<path class="st1" d="M3056.9,377.8v-11.3h3.1v11.3H3056.9z"/>
			<path class="st1" d="M3073.2,377.8h-4l-4.1-8h-0.1c0,0.2,0,0.5,0.1,0.9c0,0.3,0,0.7,0.1,1c0,0.4,0,0.7,0,1v5.1h-2.7v-11.3h4
				l4.1,7.9h0c0-0.2,0-0.5,0-0.9c0-0.3,0-0.7,0-1c0-0.3,0-0.6,0-0.9v-5.1h2.7V377.8z"/>
			<path class="st1" d="M3075.7,377.8v-11.3h3.1v11.3H3075.7z"/>
		</g>
	</g>
	<g class="st0">
		<path class="st2" d="M73.9,181.4v4.7c0,0.7-0.1,1.2-0.4,1.7s-0.6,0.9-1.1,1.1c-0.5,0.3-1.1,0.4-1.9,0.4c-1.1,0-1.9-0.3-2.5-0.8
			c-0.6-0.6-0.9-1.3-0.9-2.4v-4.8h2.1v4.6c0,0.6,0.1,1,0.3,1.2c0.2,0.3,0.5,0.4,0.9,0.4c0.3,0,0.5-0.1,0.7-0.2s0.3-0.3,0.4-0.5
			c0.1-0.2,0.1-0.5,0.1-0.9v-4.6H73.9z"/>
		<path class="st2" d="M78.9,189.3l-1.6-5.7h0c0,0.1,0,0.3,0,0.6c0,0.3,0,0.5,0,0.8c0,0.3,0,0.6,0,0.8v3.4h-1.9v-7.9h2.8L80,187h0
			l1.6-5.6h2.8v7.9h-1.9v-3.4c0-0.2,0-0.5,0-0.8c0-0.3,0-0.6,0-0.8c0-0.3,0-0.5,0-0.6h0l-1.6,5.6H78.9z"/>
		<path class="st2" d="M93.6,189.3h-2.8l-2.9-5.5h0c0,0.2,0,0.4,0,0.6s0,0.5,0,0.7s0,0.5,0,0.7v3.5h-1.9v-7.9h2.8l2.9,5.5h0
			c0-0.2,0-0.4,0-0.6s0-0.5,0-0.7c0-0.2,0-0.4,0-0.6v-3.5h1.9V189.3z"/>
		<path class="st2" d="M98.8,189.3h-2.1v-6.1h-1.9v-1.7h6v1.7h-1.9V189.3z"/>
		<path class="st2" d="M107,186.9c0,0.4-0.1,0.8-0.3,1.2c-0.2,0.4-0.5,0.7-1,0.9c-0.5,0.2-1,0.4-1.8,0.4c-0.4,0-0.7,0-0.9,0
			c-0.3,0-0.5-0.1-0.8-0.2s-0.5-0.2-0.7-0.3V187c0.4,0.2,0.9,0.4,1.3,0.5c0.4,0.1,0.8,0.2,1.2,0.2c0.2,0,0.4,0,0.5-0.1
			c0.1-0.1,0.2-0.1,0.3-0.2s0.1-0.2,0.1-0.3c0-0.1,0-0.3-0.1-0.3c-0.1-0.1-0.2-0.2-0.5-0.3s-0.5-0.2-0.8-0.4
			c-0.3-0.1-0.6-0.3-0.8-0.4c-0.2-0.1-0.4-0.3-0.6-0.5c-0.2-0.2-0.3-0.4-0.4-0.6s-0.1-0.5-0.1-0.9c0-0.5,0.1-0.9,0.4-1.3
			c0.2-0.3,0.6-0.6,1-0.8c0.4-0.2,1-0.3,1.5-0.3c0.5,0,1,0.1,1.4,0.2c0.4,0.1,0.8,0.2,1.1,0.4l-0.6,1.6c-0.3-0.2-0.7-0.3-1-0.4
			c-0.3-0.1-0.6-0.1-0.9-0.1c-0.2,0-0.3,0-0.4,0.1c-0.1,0-0.2,0.1-0.3,0.2c-0.1,0.1-0.1,0.2-0.1,0.3c0,0.1,0,0.2,0.1,0.3
			c0.1,0.1,0.3,0.2,0.5,0.3c0.2,0.1,0.5,0.3,0.9,0.4c0.4,0.2,0.7,0.4,1,0.6c0.3,0.2,0.5,0.4,0.6,0.7
			C106.9,186.1,107,186.5,107,186.9z"/>
		<path class="st2" d="M114.9,189.3h-2.1v-3.2h-2.5v3.2h-2.1v-7.9h2.1v2.9h2.5v-2.9h2.1V189.3z"/>
		<path class="st2" d="M124,185.3c0,0.6-0.1,1.2-0.2,1.7c-0.1,0.5-0.4,0.9-0.7,1.3c-0.3,0.4-0.7,0.6-1.2,0.8s-1.1,0.3-1.7,0.3
			c-0.7,0-1.2-0.1-1.7-0.3c-0.5-0.2-0.9-0.5-1.2-0.8s-0.5-0.8-0.7-1.3c-0.2-0.5-0.2-1.1-0.2-1.7c0-0.8,0.1-1.5,0.4-2.1
			c0.3-0.6,0.7-1.1,1.3-1.4s1.3-0.5,2.2-0.5c0.9,0,1.6,0.2,2.2,0.5c0.6,0.3,1,0.8,1.2,1.4S124,184.5,124,185.3z M118.6,185.3
			c0,0.5,0.1,0.9,0.2,1.2s0.3,0.6,0.5,0.8s0.5,0.3,0.9,0.3c0.4,0,0.7-0.1,0.9-0.3c0.2-0.2,0.4-0.4,0.5-0.8c0.1-0.3,0.2-0.7,0.2-1.2
			c0-0.7-0.1-1.3-0.4-1.7s-0.6-0.6-1.2-0.6c-0.4,0-0.7,0.1-0.9,0.3c-0.2,0.2-0.4,0.5-0.5,0.8C118.6,184.5,118.6,184.9,118.6,185.3z"
			/>
		<path class="st2" d="M125.4,189.3v-7.9h2.1v6.1h3v1.7H125.4z"/>
		<path class="st2" d="M131.8,189.3v-7.9h2.1v7.9H131.8z"/>
		<path class="st2" d="M148.9,181.4l-1.9,7.9h-2.5l-0.8-3.4c0-0.1,0-0.2-0.1-0.3s-0.1-0.3-0.1-0.5c0-0.2-0.1-0.4-0.1-0.6
			s-0.1-0.4-0.1-0.5c0,0.1,0,0.3-0.1,0.5s-0.1,0.4-0.1,0.6c0,0.2-0.1,0.4-0.1,0.5s-0.1,0.3-0.1,0.3l-0.8,3.4h-2.5l-1.9-7.9h2
			l0.9,3.9c0,0.1,0.1,0.2,0.1,0.4c0,0.2,0.1,0.4,0.1,0.6c0,0.2,0.1,0.4,0.1,0.6c0,0.2,0.1,0.4,0.1,0.5c0-0.2,0.1-0.5,0.1-0.8
			c0-0.3,0.1-0.6,0.2-0.9c0.1-0.3,0.1-0.6,0.2-0.8c0.1-0.3,0.1-0.5,0.1-0.6l0.7-3h2l0.7,3c0,0.2,0.1,0.4,0.1,0.6
			c0.1,0.3,0.1,0.5,0.2,0.8c0.1,0.3,0.1,0.6,0.2,0.9c0,0.3,0.1,0.5,0.1,0.7c0-0.2,0.1-0.4,0.1-0.7c0.1-0.3,0.1-0.5,0.2-0.8
			s0.1-0.5,0.1-0.6l0.9-3.9H148.9z"/>
		<path class="st2" d="M154.6,189.3h-4.7v-7.9h4.7v1.7H152v1.2h2.4v1.7H152v1.5h2.5V189.3z"/>
		<path class="st2" d="M159.4,189.3l-1.6-5.7h0c0,0.1,0,0.3,0,0.6c0,0.3,0,0.5,0,0.8c0,0.3,0,0.6,0,0.8v3.4h-1.9v-7.9h2.8l1.6,5.6h0
			l1.6-5.6h2.8v7.9h-1.9v-3.4c0-0.2,0-0.5,0-0.8c0-0.3,0-0.6,0-0.8c0-0.3,0-0.5,0-0.6h0l-1.6,5.6H159.4z"/>
		<path class="st2" d="M171.4,189.3l-0.4-1.5h-2.6l-0.4,1.5h-2.3l2.6-7.9h2.8l2.6,7.9H171.4z M170.6,186.1l-0.3-1.3
			c0-0.1-0.1-0.3-0.2-0.6c-0.1-0.3-0.1-0.5-0.2-0.8s-0.1-0.5-0.2-0.7c0,0.2-0.1,0.4-0.1,0.7c-0.1,0.3-0.1,0.5-0.2,0.8
			s-0.1,0.5-0.2,0.6l-0.3,1.3H170.6z"/>
		<path class="st2" d="M179.7,186.9c0,0.4-0.1,0.8-0.3,1.2c-0.2,0.4-0.5,0.7-1,0.9s-1,0.4-1.8,0.4c-0.4,0-0.7,0-0.9,0
			c-0.3,0-0.5-0.1-0.8-0.2c-0.2-0.1-0.5-0.2-0.7-0.3V187c0.4,0.2,0.9,0.4,1.3,0.5c0.4,0.1,0.8,0.2,1.2,0.2c0.2,0,0.4,0,0.5-0.1
			c0.1-0.1,0.2-0.1,0.3-0.2s0.1-0.2,0.1-0.3c0-0.1,0-0.3-0.1-0.3s-0.2-0.2-0.5-0.3s-0.5-0.2-0.8-0.4c-0.3-0.1-0.6-0.3-0.8-0.4
			s-0.4-0.3-0.6-0.5c-0.2-0.2-0.3-0.4-0.4-0.6c-0.1-0.2-0.1-0.5-0.1-0.9c0-0.5,0.1-0.9,0.4-1.3s0.6-0.6,1-0.8c0.4-0.2,1-0.3,1.5-0.3
			c0.5,0,1,0.1,1.4,0.2c0.4,0.1,0.8,0.2,1.1,0.4l-0.6,1.6c-0.3-0.2-0.7-0.3-1-0.4c-0.3-0.1-0.6-0.1-0.9-0.1c-0.2,0-0.3,0-0.4,0.1
			s-0.2,0.1-0.3,0.2c-0.1,0.1-0.1,0.2-0.1,0.3c0,0.1,0,0.2,0.1,0.3s0.3,0.2,0.5,0.3c0.2,0.1,0.5,0.3,0.9,0.4c0.4,0.2,0.7,0.4,1,0.6
			c0.3,0.2,0.5,0.4,0.6,0.7S179.7,186.5,179.7,186.9z"/>
		<path class="st2" d="M191.3,181.4l-1.9,7.9h-2.5l-0.8-3.4c0-0.1,0-0.2-0.1-0.3s-0.1-0.3-0.1-0.5c0-0.2-0.1-0.4-0.1-0.6
			s-0.1-0.4-0.1-0.5c0,0.1,0,0.3-0.1,0.5s-0.1,0.4-0.1,0.6c0,0.2-0.1,0.4-0.1,0.5s-0.1,0.3-0.1,0.3l-0.8,3.4h-2.5l-1.9-7.9h2
			l0.9,3.9c0,0.1,0.1,0.2,0.1,0.4c0,0.2,0.1,0.4,0.1,0.6c0,0.2,0.1,0.4,0.1,0.6c0,0.2,0.1,0.4,0.1,0.5c0-0.2,0.1-0.5,0.1-0.8
			c0-0.3,0.1-0.6,0.2-0.9c0.1-0.3,0.1-0.6,0.2-0.8c0.1-0.3,0.1-0.5,0.1-0.6l0.7-3h2l0.7,3c0,0.2,0.1,0.4,0.1,0.6
			c0.1,0.3,0.1,0.5,0.2,0.8c0.1,0.3,0.1,0.6,0.2,0.9c0,0.3,0.1,0.5,0.1,0.7c0-0.2,0.1-0.4,0.1-0.7c0.1-0.3,0.1-0.5,0.2-0.8
			s0.1-0.5,0.1-0.6l0.9-3.9H191.3z"/>
		<path class="st2" d="M197.1,189.3l-0.4-1.5h-2.6l-0.4,1.5h-2.3l2.6-7.9h2.8l2.6,7.9H197.1z M196.3,186.1l-0.3-1.3
			c0-0.1-0.1-0.3-0.2-0.6c-0.1-0.3-0.1-0.5-0.2-0.8s-0.1-0.5-0.2-0.7c0,0.2-0.1,0.4-0.1,0.7c-0.1,0.3-0.1,0.5-0.2,0.8
			s-0.1,0.5-0.2,0.6l-0.3,1.3H196.3z"/>
		<path class="st2" d="M203.8,189.3h-2.1v-6.1h-1.9v-1.7h6v1.7h-1.9V189.3z"/>
		<path class="st2" d="M206.8,189.3v-7.9h2.1v7.9H206.8z"/>
	</g>
	<path class="st3" d="M50.3,184.3L50.3,184.3c8.5,0,15.3,0.3,15.3,0.6v0c0,0.3-6.9,0.6-15.3,0.6h0c-8.5,0-15.3-0.3-15.3-0.6v0
		C35,184.6,41.9,184.3,50.3,184.3z"/>
	<path class="st3" d="M223.3,184.5L223.3,184.5c7,0,12.7,0.3,12.7,0.6v0c0,0.3-5.7,0.6-12.7,0.6l0,0c-7,0-12.7-0.3-12.7-0.6v0
		C210.6,184.8,216.3,184.5,223.3,184.5z"/>
	<g id="_105553540206272">
		<polygon class="st4" points="105,213.8 105,213.8 105,213.8 		"/>
		<path class="st4" d="M71.7,226.6h12.6l0.7,0.3l0.2,0l0.9-0.3h21.4l0.6,1H71.7c-0.2,0-0.5,0-0.7,0.1c-0.2,0.1-0.4,0.2-0.6,0.4
			c-0.2,0.2-0.3,0.4-0.4,0.6c-0.1,0.2-0.1,0.4-0.1,0.7c0,0.2,0,0.5,0.1,0.7c0.1,0.2,0.2,0.4,0.4,0.6s0.4,0.3,0.6,0.4
			c0.2,0.1,0.4,0.1,0.7,0.1h38.6l0.7,1H83c-0.2-0.2-0.3-0.4-0.5-0.7l0-0.1h-2.3c-0.4,0.3-0.9,0.6-1.8,0.7c-0.2,0-1,0-1.3,0.1l-0.2,0
			h-5.2c-0.4,0-0.7-0.1-1.1-0.2c-0.3-0.1-0.6-0.3-0.9-0.6c-0.3-0.3-0.5-0.6-0.6-0.9c-0.1-0.3-0.2-0.7-0.2-1c0-0.4,0.1-0.7,0.2-1.1
			c0.1-0.3,0.3-0.6,0.6-0.9c0.3-0.3,0.6-0.5,0.9-0.6C71,226.7,71.3,226.6,71.7,226.6L71.7,226.6z M185.1,226.6h22.4
			c0.4,0,0.7,0.1,1.1,0.2c0.3,0.1,0.6,0.3,0.9,0.6c0.3,0.3,0.5,0.6,0.6,0.9c0.1,0.3,0.2,0.7,0.2,1.1c0,0.4-0.1,0.7-0.2,1
			c-0.1,0.3-0.3,0.6-0.6,0.9c-0.3,0.3-0.6,0.5-0.9,0.6c-0.3,0.1-0.7,0.2-1.1,0.2H198c-0.3-0.1-0.5-0.3-0.7-0.4H195l0,0.1l-0.2,0.3
			h-12.8l0.6-1h24.9c0.5,0,0.9-0.2,1.3-0.5c0.2-0.2,0.3-0.4,0.4-0.6c0.1-0.2,0.1-0.4,0.1-0.7c0-0.2,0-0.5-0.1-0.7
			c-0.1-0.2-0.2-0.4-0.4-0.6c-0.2-0.2-0.4-0.3-0.6-0.4c-0.2-0.1-0.4-0.1-0.7-0.1h-22.9L185.1,226.6L185.1,226.6z"/>
		<path class="st4" d="M85,215.9L71.9,221l13.1,5.9l0.2,0l7-2.5h-0.5v-0.2l-6.6,2.4l-12.4-5.6l12.4-4.9l6.6,3.1v-0.3h0.1l-6.7-3.1
			L85,215.9L85,215.9z M209,224c0.2-0.1,0.4-0.3,0.6-0.4c0.5-0.5,0.8-1.1,0.8-1.8l0-0.3l0,0.2c0,0.4-0.1,0.7-0.2,1
			c-0.1,0.3-0.3,0.6-0.6,0.9C209.4,223.8,209.2,223.9,209,224L209,224z"/>
		<path class="st4" d="M197.3,245.9c-0.5-1.4-1.4-2.8,0-3.6c0.3,0.2,1.5,1.2,0.6,2.8C197.6,245.8,197.6,245.6,197.3,245.9z
			 M198.8,239c1.5,0.6,1.7,2.2,1.9,3.6C199.3,242,197.6,241,198.8,239z M191.5,240.7c0.6-1.5-1.2-3.1,1.4-3.8
			c0.6,1.5,0.2,3.1-1.6,4.1C191.4,240.9,191.5,240.7,191.5,240.7L191.5,240.7z M193.4,242.2c0.8-1.5,0.4-3.3,2.4-3.7
			C196.1,241.3,194.9,241.9,193.4,242.2z M198.4,235.6C204.9,236.9,200.3,240.1,198.4,235.6z M195,231.8c-1.5,2.9-5,1.2-5.5,8.8
			c0.1,0.1,0.3,0.1,0.7,0.3c0.5,0.1-0.1-0.1,0.5,0.1c0.1,3,1.2,2.8,1.8,5l1.7-1.2c0.9,2.8,1.6,1.2,2.7,3.6c0.7-0.3,2.3-0.9,2.4-0.9
			c1.7-0.8,3.5-3.7,3.6-5.6c0.6,0.3,0.4,0.4,1.4,1.3c0.3-0.9,0.2-1.8-0.3-2.7l0.9-0.3c0-2.9-1.1-1.8,0.2-2.8
			c-0.8-3.3-1.6-4.5-4.7-4.7c-0.3,0-1.1,0-1.3-0.1c-0.9-0.1-1.4-0.4-1.8-0.7L195,231.8L195,231.8z"/>
		<path class="st4" d="M80.2,245.6c0.5-1.4,1.4-2.8,0-3.6c-0.3,0.2-1.5,1.2-0.6,2.8C79.9,245.4,79.9,245.2,80.2,245.6z M78.7,238.6
			c-1.5,0.6-1.7,2.2-1.9,3.6C78.3,241.6,79.9,240.6,78.7,238.6z M86,240.3c-0.6-1.5,1.2-3.1-1.4-3.8c-0.6,1.5-0.2,3.1,1.6,4.1
			C86.1,240.5,86,240.4,86,240.3L86,240.3z M84.1,241.8c-0.8-1.5-0.4-3.3-2.4-3.7C81.4,240.9,82.6,241.5,84.1,241.8z M79.1,235.2
			C72.6,236.5,77.2,239.8,79.1,235.2z M82.5,231.4c1.5,2.9,5,1.2,5.5,8.8c-0.1,0.1-0.3,0.1-0.7,0.3c-0.5,0.1,0.1-0.1-0.5,0.1
			c-0.1,3-1.2,2.8-1.8,5l-1.7-1.2c-0.9,2.8-1.6,1.2-2.7,3.6c-0.7-0.3-2.3-0.9-2.4-0.9c-1.7-0.8-3.5-3.7-3.6-5.6
			c-0.6,0.3-0.4,0.4-1.4,1.3c-0.3-0.9-0.2-1.8,0.3-2.7l-0.9-0.3c0-2.9,1.1-1.8-0.2-2.8c0.8-3.3,1.6-4.5,4.7-4.7c0.3,0,1.1,0,1.3-0.1
			c0.9-0.1,1.4-0.4,1.8-0.7L82.5,231.4L82.5,231.4L82.5,231.4z"/>
		<path class="st4" d="M91.7,218.9h19l-0.6,1H92.4v3.5H108l-0.5,1H91.7v-0.2l-6.6,2.4l-12.4-5.6l12.4-4.9l6.6,3.1L91.7,218.9
			L91.7,218.9z M181.2,218.9h26.4c0.4,0,0.7,0.1,1.1,0.2c0.3,0.1,0.6,0.3,0.9,0.6c0.3,0.3,0.5,0.6,0.6,0.9c0.1,0.3,0.2,0.7,0.2,1
			s-0.1,0.7-0.2,1c-0.1,0.3-0.3,0.6-0.6,0.9c-0.3,0.3-0.6,0.5-0.9,0.6c-0.3,0.1-0.7,0.2-1.1,0.2h-23l-0.5-1h23.6
			c0.5,0,0.9-0.2,1.3-0.5c0.2-0.2,0.3-0.4,0.4-0.6c0.1-0.2,0.1-0.4,0.1-0.7c0-0.2,0-0.5-0.1-0.7c-0.1-0.2-0.2-0.4-0.4-0.6
			c-0.2-0.2-0.4-0.3-0.6-0.4c-0.2-0.1-0.4-0.1-0.7-0.1h-25.7L181.2,218.9L181.2,218.9z"/>
		<path class="st4" d="M145.8,200.5l0.7,0c-17.1,0.1-31.8,10.3-38.5,25c8.7,16.4,22.9,26.4,38.6,25.7c-0.2-0.4-0.3-0.7-0.4-1.1h0.3
			c8.6-0.3,16.1-2.4,22.4-6.4c6.2-4,11.3-9.8,15.2-17.7c-4.2-8.2-9.6-14.3-15.9-18.3c-6.2-4-13.5-6-21.7-6c0.3-0.4,0.6-0.8,1-1.2
			c8,0.2,15.2,2.3,21.4,6.2c6.6,4.2,12.1,10.5,16.5,19.1l0.1,0.3l-0.1,0.3c-4,8.2-9.3,14.3-15.8,18.5c-6.5,4.1-14.2,6.3-23,6.6h0
			c-8.4,0-15.9-2.2-22.4-6.5c-6.5-4.3-12.2-10.7-17-19l-0.2-0.3l0.1-0.3c4.5-9,10.1-15.1,16.7-19.1
			C130.3,202.3,137.7,200.6,145.8,200.5L145.8,200.5L145.8,200.5z"/>
		<path class="st4" d="M146.6,251.3c-15.7,0.7-29.9-9.4-38.6-25.7c6.7-15,21.9-25.3,39.4-25c-7.2,8.3,3.4,11.9,2.3,18.1
			c-0.6,3.3-5.6,5.6-0.3,11.4C155.5,236.5,140.3,237.1,146.6,251.3z M137.5,227.1h2.7v6h-2.7V227.1z M126.3,217.7h2.7v6h-2.7V217.7
			L126.3,217.7z M120.7,217.7h2.7v6h-2.7V217.7L120.7,217.7z M120.7,227.1h2.7v6h-2.7V227.1z M126.3,227.1h2.7v6h-2.7V227.1z
			 M131.9,227.1h2.7v6h-2.7V227.1z M131.9,217.7h2.7v6h-2.7V217.7L131.9,217.7z M137.5,217.7h2.7v6h-2.7V217.7L137.5,217.7z"/>
		<path class="st4" d="M170.7,227.5h2.7v6h-2.7V227.5z M159.5,218.1h2.7v6h-2.7V218.1L159.5,218.1z M153.9,218.1h2.7v6h-2.7V218.1
			L153.9,218.1z M153.9,227.5h2.7v6h-2.7V227.5z M159.5,227.5h2.7v6h-2.7V227.5z M165.1,227.5h2.7v6h-2.7V227.5z M165.1,218.1h2.7v6
			h-2.7V218.1L165.1,218.1z M170.7,218.1h2.7v6h-2.7V218.1L170.7,218.1z"/>
	</g>
	<path class="st1" d="M93.2,152.7c-0.1,0.1-0.2,0.1-0.4,0.2c-1.5,0.7-3,1.2-4.5,1.7c-1.6,0.5-3.3,1-5,1.3c-0.9,0.2-1.9,0.3-2.8,0.4
		c-0.9,0.1-1.8,0.2-2.8,0.2l-0.9,0.1c-0.6,0-1.2,0.1-1.8,0.1l-2.7-0.1c-0.5,0-0.9,0-1.4-0.1c-0.5,0-0.9-0.1-1.4-0.2l-0.7-0.1
		c-0.6-0.1-1.3-0.2-1.9-0.3c-0.9-0.2-1.7-0.4-2.6-0.6c-0.9-0.2-1.7-0.5-2.6-0.8c-1.9-0.7-3.1-1.2-4.9-1.9c-0.8-0.4-1.6-0.8-2.4-1.2
		c-0.8-0.4-1.5-0.9-2.3-1.3c-3.1-1.9-5.9-4.1-8.4-6.6c-2.5-2.5-4.7-5.4-6.5-8.4c-1.8-3-3.2-6.1-4.2-9.4c-1-3.3-1.6-6.6-1.9-10.1
		c0-0.4-0.1-0.8-0.1-1.3c0-0.5,0-0.9,0-1.3c0-3.1,0.4-6.2,1.2-9.2c0.8-3,1.9-5.9,3.4-8.7c1.4-2.5,3-4.9,4.8-7.1
		c1.8-2.2,3.9-4.2,6.1-6c2.2-1.8,4.6-3.4,7-4.8c2.5-1.4,5-2.6,7.7-3.6c2.9-1.1,5.8-1.9,8.9-2.4c2.7-0.5,5.5-0.8,8.3-0.8l0,0l0.1,0
		l0.1,0l3.3-0.1l0,0l0.3,0c0.7,0,1.3,0,1.9,0.1c0.7,0,1.3,0.1,1.9,0.2c1.4,0.2,2.9,0.4,4.3,0.6c1.5,0.2,2.8,0.5,4.1,0.8
		c0.6,0.1,1.2,0.3,1.8,0.3c0.6,0.1,1.2,0.2,1.8,0.3c0.6,0.1,1.1,0.1,1.7,0.2h0.2l0.1,0c0.2,0,0.4-0.1,0.6-0.2
		c0.2-0.1,0.4-0.2,0.6-0.4c0.2-0.2,0.5-0.5,0.7-0.7c0.2-0.3,0.4-0.5,0.6-0.8l0.5,0.3h0h0.6v20.9h-0.6h0l0,0v0.1
		c0.2,0.2,0.3,0.3,0,0.3h-0.4l-0.1-0.4l0-0.1v0l0-0.1c-0.1-0.2-0.1-0.4-0.2-0.6l0,0c-0.1-0.4-0.3-0.8-0.5-1.3
		c-0.2-0.5-0.5-1.1-0.8-1.8l0,0c-0.1-0.3-0.3-0.6-0.4-0.9c-0.1-0.3-0.3-0.6-0.5-0.9l0,0c-0.2-0.5-0.5-1-0.8-1.5
		c-0.2-0.4-0.4-0.7-0.6-1.1l-0.2-0.2c-0.3-0.5-0.7-1.1-1-1.6c-0.5-0.8-1.1-1.6-1.7-2.3c-0.6-0.7-1.2-1.5-1.9-2.2l0,0
		c-0.1-0.1-0.3-0.3-0.4-0.4l-0.5-0.4c-0.2-0.2-0.3-0.3-0.4-0.4l-0.5-0.4c-0.3-0.3-0.6-0.5-1-0.7c-0.3-0.2-0.7-0.5-1-0.7l-0.5-0.3
		c-0.2-0.1-0.3-0.2-0.5-0.3l-0.3-0.2l-0.6-0.3L88,72.8c-0.7-0.3-1.4-0.6-2.1-0.8c-0.7-0.2-1.4-0.4-2.1-0.5c-0.2,0-0.4-0.1-0.6-0.1
		l-0.4,0v0l-0.1,0c-0.3,0-0.6,0-0.9,0l-2.5,0.1l-0.3,0c-2.8,0-5.6,0.6-8.3,1.6c-2.6,1-5.1,2.4-7.3,4.3c-1.8,1.5-3.3,3.3-4.6,5.2
		c-1.3,1.9-2.4,4-3.2,6.2c-0.7,2-1.3,4-1.7,6c-0.4,2-0.7,4-0.8,6.1v0c-0.2,2-0.3,4-0.3,6c-0.1,2-0.1,4-0.1,6.1c0,2.5,0.1,5,0.4,7.4
		c0.2,2.5,0.6,5,1.1,7.4c0.1,0.2,0.1,0.5,0.1,0.7c0.1,0.4,0.1,0.7,0.2,1.1l0.5,1.8c0.2,0.6,0.4,1.2,0.6,1.8c0.2,0.6,0.4,1.2,0.6,1.8
		l0,0c0.1,0.3,0.2,0.6,0.3,0.9c0.1,0.3,0.3,0.6,0.4,0.8l0.8,1.8l0.5,0.9c0.5,0.8,0.9,1.6,1.5,2.4l0,0c0.4,0.5,0.8,1.1,1.2,1.6
		c0.4,0.5,0.9,1,1.3,1.5l1.4,1.5l1.6,1.4c0.6,0.5,1.1,0.9,1.7,1.3c0.6,0.4,1.2,0.8,1.9,1.2l0,0c0.4,0.2,0.8,0.4,1.3,0.6
		c0.2,0.1,0.5,0.2,0.8,0.4l0,0c0.4,0.2,0.7,0.4,1,0.5c0.3,0.1,0.7,0.3,1.1,0.4l2.3,0.7c0.5,0.2,1.1,0.3,1.7,0.4l0.7,0.1
		c0.8,0.2,1.7,0.3,2.5,0.3c0.9,0.1,1.7,0.1,2.6,0c1.6-0.1,3.2-0.3,4.8-0.6c1.5-0.3,2.9-0.8,4.3-1.3L94,151l0.5,1.1
		c-0.4,0.2-0.8,0.4-1.1,0.5L93.2,152.7L93.2,152.7z M103.2,91.7L103.2,91.7L103.2,91.7L103.2,91.7z"/>
	<path class="st4" d="M266.4,155.1c-2.6,16.8-8.3,32.4-16.5,46.2c-8.5,14.3-19.6,26.8-32.6,36.7l-0.2,0.2l-3.4,0.1l2.1-1.6
		c12.3-9.5,22.8-21.3,30.8-34.8c7.7-13,13.1-27.7,15.5-43.5l0-0.1c5.2-33.7-3.9-66.4-22.9-92c-19-25.6-47.8-44-82-49.3l-0.1,0
		c-34.2-5.3-67.3,3.6-93.1,22.3C38.2,57.9,19.7,86.3,14.5,120C11,142.8,14,165,22.1,184.9c8.4,20.6,22.3,38.7,40.2,52.3l2,1.5h-3.4
		l-0.2-0.2c-18.7-14.1-33.2-33.1-41.9-54.7c-8.5-20.9-11.6-44.2-7.9-68.1l0-0.1c5.4-35.3,24.7-65,51.4-84.6
		C88.8,11.5,123,2.1,158.2,7.6l0.1,0c35.3,5.4,65,24.7,84.6,51.4C262.4,85.6,271.8,119.7,266.4,155.1L266.4,155.1L266.4,155.1z"/>
	<path class="st4" d="M178.3,127.1c0,0.7,0.1,1.4,0.1,2.1l0,0.5l-0.1,0.9c0,0.6-0.1,1.2-0.2,1.9v0c-0.1,0.6-0.2,1.2-0.3,1.8
		c-0.1,0.6-0.3,1.2-0.4,1.8l0,0c-0.2,0.6-0.4,1.2-0.6,1.7c-0.2,0.6-0.4,1.1-0.7,1.7l0,0c-0.3,0.6-0.6,1.1-0.8,1.6
		c-0.3,0.5-0.6,1-0.9,1.6l0,0c-1.3,2-2.8,3.8-4.6,5.4c-1.8,1.6-3.7,2.9-5.9,3.9l0,0c-2,0.9-4,1.7-6.1,2.2c-2.1,0.5-4.3,0.9-6.4,1
		c-3.6,0.3-7.1,0.3-11,0.3l-4.2,0c-0.5,0-1,0-1.5,0c-1.9,0-3.5-0.1-4.9-0.5c-0.5-0.1-1-0.2-1.5-0.3c-0.3-0.1-0.6-0.2-0.9-0.3
		c-0.3-0.1-0.6-0.2-0.8-0.3h-0.1l-0.1-0.1c-1.2-0.4-2.4-1-3.5-1.6c-1.1-0.6-2.2-1.4-3.2-2.2c-0.4-0.3-0.8-0.7-1.2-1
		c-0.4-0.3-0.7-0.7-1.1-1l-0.3-0.1v-0.1c-1.4-1.4-2.7-3-3.7-4.8c-1-1.8-1.8-3.8-2.3-5.9l0-0.1v-0.1c-0.1-0.5-0.2-1.1-0.2-1.6
		c-0.1-0.6-0.1-1.1-0.1-1.7l0-57.7c0-1.4-0.5-2.6-1.4-3.5c-0.9-0.9-2.1-1.4-3.5-1.4h-0.6v-1.3c9,0,18,0,27.1,0v31.7
		c2.2-0.3,4.4-0.2,6.6-0.4c1.2-0.1,4.4-0.9,6.7-4.5c1.4-2.2,2.4-5.6,2.4-10.5c0-14.3-8.9-15-9.8-15.1l-0.1,0l0-1.2h0.8
		c1.9,0,3.8-0.1,5.6-0.2l2.4-0.1c1.5-0.1,2.9-0.1,4.4,0c1.5,0.1,3,0.3,4.4,0.6c1.7,0.3,3.3,0.9,4.9,1.7c1.5,0.8,2.9,1.8,4.2,3l0,0
		c0.3,0.3,0.7,0.7,1,1.1c0.3,0.4,0.6,0.8,0.9,1.2c0.3,0.4,0.6,0.9,0.8,1.3c0.3,0.5,0.5,0.9,0.7,1.4l0,0c0.2,0.5,0.4,1,0.6,1.6
		c0.2,0.5,0.3,1.1,0.4,1.6l0,0c0,0.3,0.1,0.5,0.1,0.8l0.1,0.8c0,0.3,0.1,0.6,0.1,0.9c0,0.3,0,0.5,0,0.6c0,0.1,0,0.4,0,0.6
		c0,0.3,0,0.6-0.1,0.9l-0.1,0.8c0,0.3-0.1,0.6-0.1,0.8l0,0c-0.1,0.5-0.3,1.1-0.4,1.6c-0.2,0.5-0.4,1-0.6,1.6l0,0
		c-0.2,0.5-0.4,0.9-0.7,1.4c-0.3,0.5-0.5,0.9-0.8,1.3c-0.3,0.4-0.6,0.8-0.9,1.2c-0.3,0.4-0.6,0.7-1,1.1l0,0c-1.3,1.2-2.7,2.2-4.2,3
		c-1.5,0.8-3.2,1.4-4.9,1.7l-0.2,0c0.9,0.2,1.7,0.4,2.5,0.6c2.1,0.6,4.1,1.3,6.1,2.3l0,0c2.1,1.1,4.1,2.4,5.8,4
		c1.7,1.6,3.3,3.4,4.5,5.4c0.3,0.5,0.6,1,0.9,1.6c0.3,0.5,0.6,1.1,0.8,1.6l0,0c0.3,0.6,0.5,1.1,0.7,1.7c0.2,0.6,0.4,1.2,0.6,1.8
		c0.2,0.6,0.3,1.2,0.5,1.9c0.1,0.6,0.2,1.2,0.3,1.8c0,0.3,0.1,0.6,0.1,0.9C178.2,126.5,178.2,126.8,178.3,127.1L178.3,127.1
		L178.3,127.1z M138.3,102.8h-6.1v31.2c0,6.3,0.3,11.4,1.1,15c0.8,3.3,1.9,5.3,3.7,5.4c0.1,0,0.1,0,0.2,0l1.6,0l0.5,0
		c2.6-0.2,8.7-1.4,12.9-7.6c2.6-3.8,4.5-9.5,4.5-18c0-8.6-1.9-14.4-4.6-18.3c-4.4-6.4-10.7-7.5-13-7.7l-0.4,0L138.3,102.8
		L138.3,102.8z M137.2,154.6L137.2,154.6l0-0.1l0,0L137.2,154.6L137.2,154.6z"/>
	<path class="st1" d="M226.7,127h-0.6v-0.6c0-3.4-1.8-6.4-4.5-8.7c-2.9-2.5-6.9-4.1-10.6-4.1h-3.2V113v-0.6v0.6v-0.6h3.2
		c3.7,0,7.7-1.6,10.6-4.1c2.7-2.3,4.5-5.4,4.5-8.7v-0.6h1.3V127H226.7L226.7,127z M207.8,113.6V113V113.6z M233,95L233,95
		c-0.1-5.9-2.7-12-6.6-16.5c-3.6-4.2-8.5-7-13.9-7v-0.6v0.6v-0.6v-0.6h21.7V95l0,0.5V96H233L233,95L233,95z M212.5,70.2v0.6V70.2z
		 M233.6,155.8l-24.6,0l0.1-1.2c6.1,0,14.1-2.4,17.4-7.2c4-4.6,6.5-10.9,6.5-16.8v-0.6h1.3v25.8L233.6,155.8L233.6,155.8z
		 M203.5,70.9v63.2c0,6.3,0.3,11.4,1.1,15c0.8,3.4,2,5.3,3.8,5.4l0.8,0l0,1.2c-0.9,0-1.8,0-2.6,0c-0.6,0-1.3,0-1.9-0.1l-0.5,0
		c-0.8,0-1.5-0.1-2.3-0.3c-0.8-0.1-1.6-0.3-2.3-0.5l0,0c-0.6-0.2-1.2-0.4-1.8-0.6l-0.2-0.1l0,0c-1.1-0.4-2.3-1-3.3-1.6
		c-1.1-0.6-2.2-1.4-3.2-2.2c-0.4-0.3-0.8-0.7-1.2-1c-0.3-0.3-0.6-0.6-0.9-0.9h-0.4v-0.4c-1.4-1.4-2.7-3-3.7-4.8
		c-1-1.8-1.8-3.8-2.3-5.9l0-0.1v-0.1c-0.1-0.5-0.2-1.1-0.2-1.6c-0.1-0.6-0.1-1.1-0.1-1.7l0-57.3c0-1.5-0.6-2.8-1.6-3.8
		c-1-1-2.3-1.6-3.8-1.6v-0.6v0.6v-0.6v-0.6h26.8L203.5,70.9L203.5,70.9z M176.7,70.2v0.6V70.2z"/>
</g>
</svg>
