<?xml version="1.0" encoding="UTF-8"?>
<svg id="Layer_1" data-name="Layer 1" xmlns="http://www.w3.org/2000/svg" viewBox="0 0 167.78 53.87">
  <defs>
    <style>
      .cls-1 {
        fill: #fff;
      }

      .cls-2 {
        fill: #5d87b1;
      }

      .cls-3 {
        fill: #575756;
      }

      .cls-4 {
        fill: #97b6d5;
      }
    </style>
  </defs>
  <g>
    <path class="cls-3" d="M62.47,37.37h2.67v.51h-2.06v1.67h1.81v.51h-1.81v1.98h2.11v.51h-2.72v-5.19Z"/>
    <path class="cls-3" d="M66.12,41.49v-2.67h.57v2.56c0,.47,.16,.76,.67,.76,.57,0,1-.58,1.08-.69v-2.64h.57v2.96c0,.32,.04,.64,.07,.79h-.58c-.02-.09-.05-.37-.05-.55-.17,.23-.57,.65-1.22,.65-.8,0-1.11-.52-1.11-1.17Z"/>
    <path class="cls-3" d="M70.29,38.82h.57v.58c.15-.25,.48-.68,1-.68,.23,0,.34,.05,.39,.08l-.14,.55s-.13-.06-.33-.06c-.56,0-.87,.65-.92,.76v2.51h-.57v-3.74Z"/>
    <path class="cls-3" d="M72.65,40.7c0-.87,.44-1.97,1.71-1.97s1.79,1.08,1.79,1.96-.5,1.97-1.76,1.97-1.73-1.08-1.73-1.96Zm2.89,0c0-.8-.41-1.48-1.19-1.48s-1.09,.66-1.09,1.47,.35,1.48,1.13,1.48,1.15-.66,1.15-1.47Z"/>
    <path class="cls-3" d="M77.09,38.82h.57v.41c.19-.23,.54-.5,1.08-.5,.91,0,1.52,.72,1.52,1.96s-.69,1.97-1.65,1.97c-.53,0-.81-.2-.95-.33v1.94h-.57v-5.45Zm2.57,1.88c0-.83-.32-1.46-1.03-1.46-.52,0-.87,.38-.97,.52v2.06c.17,.16,.44,.34,.9,.34,.72,0,1.1-.62,1.1-1.47Z"/>
    <path class="cls-3" d="M80.89,40.67c0-1.1,.69-1.94,1.68-1.94,.93,0,1.47,.66,1.47,1.68,0,.09,0,.17-.02,.27h-2.53c.02,.79,.33,1.49,1.18,1.49,.52,0,.87-.23,1.04-.34l.23,.44c-.19,.12-.61,.38-1.29,.38-1.18,0-1.77-.88-1.77-1.99Zm2.57-.44c-.02-.53-.26-1.01-.9-1.01-.6,0-.93,.42-1.03,1.01h1.93Z"/>
    <path class="cls-3" d="M84.75,41.65c0-.99,1.09-1.29,2-1.29h.16v-.35c0-.55-.23-.78-.75-.78-.34,0-.64,.11-.97,.41l-.3-.4c.37-.34,.79-.51,1.32-.51,.82,0,1.28,.39,1.28,1.24v1.75c0,.37,.04,.67,.09,.85h-.57c-.02-.1-.05-.34-.05-.45-.25,.31-.66,.55-1.12,.55-.62,0-1.07-.4-1.07-1.01Zm2.16-.02v-.84h-.16c-.8,0-1.39,.22-1.39,.85,0,.39,.33,.53,.55,.53,.42,0,.76-.22,1-.54Z"/>
    <path class="cls-3" d="M88.72,38.82h.57v.54c.33-.42,.76-.63,1.22-.63,.79,0,1.1,.52,1.1,1.17v2.67h-.57v-2.56c0-.47-.16-.76-.66-.76-.42,0-.82,.32-1.08,.69v2.64h-.57v-3.74Z"/>
    <path class="cls-3" d="M94.77,37.37h.61v5.19h-.61v-5.19Z"/>
    <path class="cls-3" d="M96.81,38.82h.57v.54c.33-.42,.76-.63,1.22-.63,.79,0,1.1,.52,1.1,1.17v2.67h-.57v-2.56c0-.47-.16-.76-.66-.76-.42,0-.82,.32-1.08,.69v2.64h-.57v-3.74Z"/>
    <path class="cls-3" d="M100.62,42.3l.25-.44c.14,.1,.48,.3,.93,.3s.76-.2,.76-.54-.28-.49-.83-.73c-.58-.25-1.03-.51-1.03-1.15,0-.58,.44-1.03,1.19-1.03,.62,0,.99,.27,1.11,.36l-.28,.41c-.13-.1-.41-.28-.83-.28-.4,0-.62,.2-.62,.51,0,.35,.3,.5,.72,.67,.61,.26,1.16,.52,1.16,1.15,0,.68-.51,1.11-1.33,1.11-.54,0-.95-.2-1.19-.36Z"/>
    <path class="cls-3" d="M104.08,41.49v-2.67h.57v2.56c0,.47,.16,.76,.67,.76,.57,0,1-.58,1.08-.69v-2.64h.57v2.96c0,.32,.04,.64,.07,.79h-.58c-.02-.09-.05-.37-.05-.55-.17,.23-.57,.65-1.22,.65-.8,0-1.11-.52-1.11-1.17Z"/>
    <path class="cls-3" d="M108.25,38.82h.57v.58c.15-.25,.48-.68,1-.68,.23,0,.34,.05,.39,.08l-.14,.55s-.13-.06-.33-.06c-.56,0-.87,.65-.92,.76v2.51h-.57v-3.74Z"/>
    <path class="cls-3" d="M110.64,41.65c0-.99,1.09-1.29,2-1.29h.16v-.35c0-.55-.23-.78-.75-.78-.34,0-.64,.11-.97,.41l-.3-.4c.37-.34,.79-.51,1.32-.51,.82,0,1.28,.39,1.28,1.24v1.75c0,.37,.04,.67,.09,.85h-.57c-.02-.1-.05-.34-.05-.45-.25,.31-.66,.55-1.12,.55-.62,0-1.07-.4-1.07-1.01Zm2.16-.02v-.84h-.16c-.8,0-1.39,.22-1.39,.85,0,.39,.33,.53,.55,.53,.42,0,.76-.22,1-.54Z"/>
    <path class="cls-3" d="M114.62,38.82h.57v.54c.33-.42,.76-.63,1.22-.63,.79,0,1.1,.52,1.1,1.17v2.67h-.57v-2.56c0-.47-.16-.76-.66-.76-.42,0-.82,.32-1.08,.69v2.64h-.57v-3.74Z"/>
    <path class="cls-3" d="M118.42,40.69c0-1.28,.8-1.96,1.72-1.96,.62,0,.97,.23,1.15,.37l-.27,.43c-.19-.15-.44-.31-.88-.31-.77,0-1.11,.64-1.11,1.46s.34,1.49,1.12,1.49c.47,0,.8-.23,.91-.31l.23,.43c-.15,.12-.52,.37-1.18,.37-1.11,0-1.7-.94-1.7-1.97Z"/>
    <path class="cls-3" d="M121.82,40.67c0-1.1,.69-1.94,1.68-1.94,.93,0,1.47,.66,1.47,1.68,0,.09,0,.17-.02,.27h-2.53c.02,.79,.33,1.49,1.18,1.49,.52,0,.87-.23,1.04-.34l.23,.44c-.19,.12-.61,.38-1.29,.38-1.18,0-1.77-.88-1.77-1.99Zm2.57-.44c-.02-.53-.26-1.01-.9-1.01-.6,0-.93,.42-1.03,1.01h1.93Z"/>
    <path class="cls-3" d="M127.42,41.65c0-.99,1.09-1.29,2-1.29h.16v-.35c0-.55-.23-.78-.75-.78-.34,0-.64,.11-.97,.41l-.3-.4c.37-.34,.79-.51,1.32-.51,.82,0,1.28,.39,1.28,1.24v1.75c0,.37,.04,.67,.09,.85h-.57c-.02-.1-.05-.34-.05-.45-.25,.31-.66,.55-1.12,.55-.62,0-1.07-.4-1.07-1.01Zm2.16-.02v-.84h-.16c-.8,0-1.39,.22-1.39,.85,0,.39,.33,.53,.55,.53,.42,0,.76-.22,1-.54Z"/>
    <path class="cls-3" d="M131.4,38.82h.57v.54c.33-.42,.76-.63,1.22-.63,.79,0,1.1,.52,1.1,1.17v2.67h-.57v-2.56c0-.47-.16-.76-.66-.76-.42,0-.82,.32-1.08,.69v2.64h-.57v-3.74Z"/>
    <path class="cls-3" d="M135.21,40.7c0-1.19,.71-1.97,1.65-1.97,.39,0,.71,.11,.95,.33v-2.1h.57v4.85c0,.26,.05,.57,.09,.76h-.57c-.02-.08-.06-.29-.07-.43-.26,.32-.63,.52-1.08,.52-.9,0-1.54-.71-1.54-1.96Zm2.6,.93v-2.07c-.23-.22-.51-.34-.9-.34-.71,0-1.1,.62-1.1,1.47s.3,1.46,1.05,1.46c.33,0,.7-.19,.94-.51Z"/>
    <path class="cls-3" d="M62.13,49.47c0-1.43,.94-2.7,2.54-2.7s2.56,1.26,2.56,2.68-.94,2.7-2.54,2.7-2.56-1.26-2.56-2.68Zm4.46,0c0-1.17-.66-2.19-1.9-2.19s-1.92,1.01-1.92,2.18,.66,2.19,1.9,2.19,1.92-1.01,1.92-2.18Z"/>
    <path class="cls-3" d="M67.99,50.19c0-1.28,.8-1.96,1.72-1.96,.62,0,.97,.23,1.15,.37l-.27,.43c-.19-.15-.44-.31-.88-.31-.77,0-1.11,.64-1.11,1.46s.34,1.49,1.12,1.49c.47,0,.8-.23,.91-.31l.23,.43c-.15,.12-.52,.37-1.18,.37-1.11,0-1.7-.94-1.7-1.97Z"/>
    <path class="cls-3" d="M71.38,50.19c0-1.28,.8-1.96,1.72-1.96,.62,0,.97,.23,1.15,.37l-.27,.43c-.19-.15-.44-.31-.88-.31-.77,0-1.11,.64-1.11,1.46s.34,1.49,1.12,1.49c.47,0,.8-.23,.91-.31l.23,.43c-.15,.12-.52,.37-1.18,.37-1.11,0-1.7-.94-1.7-1.97Z"/>
    <path class="cls-3" d="M75.1,50.99v-2.67h.57v2.56c0,.47,.16,.76,.67,.76,.57,0,1-.58,1.08-.69v-2.64h.57v2.96c0,.32,.04,.64,.07,.79h-.58c-.02-.09-.05-.37-.05-.55-.17,.23-.57,.65-1.22,.65-.8,0-1.11-.52-1.11-1.17Z"/>
    <path class="cls-3" d="M79.26,48.32h.57v.41c.19-.23,.54-.5,1.08-.5,.91,0,1.52,.72,1.52,1.96s-.69,1.97-1.65,1.97c-.53,0-.81-.2-.95-.33v1.94h-.57v-5.45Zm2.57,1.88c0-.83-.32-1.46-1.03-1.46-.52,0-.87,.38-.97,.52v2.06c.17,.16,.44,.34,.9,.34,.72,0,1.1-.62,1.1-1.47Z"/>
    <path class="cls-3" d="M83.09,51.15c0-.99,1.09-1.29,2-1.29h.16v-.35c0-.55-.23-.78-.75-.78-.34,0-.64,.11-.97,.41l-.3-.4c.37-.34,.79-.51,1.32-.51,.82,0,1.28,.39,1.28,1.24v1.75c0,.37,.04,.67,.09,.85h-.57c-.02-.1-.05-.34-.05-.45-.25,.31-.66,.55-1.12,.55-.62,0-1.07-.4-1.07-1.01Zm2.16-.02v-.84h-.16c-.8,0-1.39,.22-1.39,.85,0,.39,.33,.53,.55,.53,.42,0,.76-.22,1-.54Z"/>
    <path class="cls-3" d="M87.2,51.16v-2.39h-.62v-.45h.62v-1.07h.57v1.07h.94v.45h-.94v2.34c0,.37,.11,.55,.44,.55,.23,0,.44-.12,.51-.16l.21,.43c-.11,.07-.38,.23-.79,.23-.62,0-.94-.37-.94-.99Z"/>
    <path class="cls-3" d="M89.66,47.2c0-.23,.19-.42,.42-.42s.42,.19,.42,.42-.19,.42-.42,.42-.42-.19-.42-.42Zm.13,1.12h.58v3.74h-.58v-3.74Z"/>
    <path class="cls-3" d="M91.37,50.2c0-.87,.44-1.97,1.71-1.97s1.79,1.08,1.79,1.96-.5,1.97-1.76,1.97-1.73-1.08-1.73-1.96Zm2.89,0c0-.8-.41-1.48-1.19-1.48s-1.09,.66-1.09,1.47,.35,1.48,1.13,1.48,1.15-.66,1.15-1.47Z"/>
    <path class="cls-3" d="M95.81,48.32h.57v.54c.33-.42,.76-.63,1.22-.63,.79,0,1.1,.52,1.1,1.17v2.67h-.57v-2.56c0-.47-.16-.76-.66-.76-.42,0-.82,.32-1.08,.69v2.64h-.57v-3.74Z"/>
    <path class="cls-3" d="M99.65,51.15c0-.99,1.09-1.29,2-1.29h.16v-.35c0-.55-.23-.78-.75-.78-.34,0-.64,.11-.97,.41l-.3-.4c.37-.34,.79-.51,1.32-.51,.82,0,1.28,.39,1.28,1.24v1.75c0,.37,.04,.67,.09,.85h-.57c-.02-.1-.05-.34-.05-.45-.25,.31-.66,.55-1.12,.55-.62,0-1.07-.4-1.07-1.01Zm2.16-.02v-.84h-.16c-.8,0-1.39,.22-1.39,.85,0,.39,.33,.53,.55,.53,.42,0,.76-.22,1-.54Z"/>
    <path class="cls-3" d="M103.64,46.45h.57v5.61h-.57v-5.61Z"/>
    <path class="cls-3" d="M107.37,46.87h1.3c1.04,0,1.82,.5,1.82,1.5s-.7,1.6-1.91,1.6h-.61v2.1h-.61v-5.19Zm1.22,2.58c.91,0,1.29-.37,1.29-1.06,0-.59-.34-1.01-1.26-1.01h-.63v2.07h.61Z"/>
    <path class="cls-3" d="M111.02,50.17c0-1.1,.69-1.94,1.68-1.94,.93,0,1.47,.66,1.47,1.68,0,.09,0,.17-.02,.27h-2.53c.02,.79,.33,1.49,1.18,1.49,.52,0,.87-.23,1.04-.34l.23,.44c-.19,.12-.61,.38-1.29,.38-1.18,0-1.77-.88-1.77-1.99Zm2.57-.44c-.02-.53-.26-1.01-.9-1.01-.6,0-.93,.42-1.03,1.01h1.93Z"/>
    <path class="cls-3" d="M115.17,48.32h.57v.54c.33-.42,.76-.63,1.22-.63,.79,0,1.1,.52,1.1,1.17v2.67h-.57v-2.56c0-.47-.16-.76-.66-.76-.42,0-.82,.32-1.08,.69v2.64h-.57v-3.74Z"/>
    <path class="cls-3" d="M118.98,51.8l.25-.44c.14,.1,.48,.3,.93,.3s.76-.2,.76-.54-.28-.49-.83-.73c-.58-.25-1.03-.51-1.03-1.15,0-.58,.44-1.03,1.19-1.03,.62,0,.99,.27,1.11,.36l-.28,.41c-.13-.1-.41-.28-.83-.28-.4,0-.62,.2-.62,.51,0,.35,.3,.5,.72,.67,.61,.26,1.16,.52,1.16,1.15,0,.68-.51,1.11-1.33,1.11-.54,0-.95-.2-1.19-.36Z"/>
    <path class="cls-3" d="M122.4,47.2c0-.23,.19-.42,.42-.42s.42,.19,.42,.42-.19,.42-.42,.42-.42-.19-.42-.42Zm.13,1.12h.58v3.74h-.58v-3.74Z"/>
    <path class="cls-3" d="M124.1,50.2c0-.87,.44-1.97,1.71-1.97s1.79,1.08,1.79,1.96-.5,1.97-1.76,1.97-1.73-1.08-1.73-1.96Zm2.89,0c0-.8-.41-1.48-1.19-1.48s-1.09,.66-1.09,1.47,.35,1.48,1.13,1.48,1.15-.66,1.15-1.47Z"/>
    <path class="cls-3" d="M128.55,48.32h.57v.54c.33-.42,.76-.63,1.22-.63,.79,0,1.1,.52,1.1,1.17v2.67h-.57v-2.56c0-.47-.16-.76-.66-.76-.42,0-.82,.32-1.08,.69v2.64h-.57v-3.74Z"/>
    <path class="cls-3" d="M132.36,51.8l.25-.44c.14,.1,.48,.3,.93,.3s.76-.2,.76-.54-.28-.49-.83-.73c-.58-.25-1.03-.51-1.03-1.15,0-.58,.44-1.03,1.19-1.03,.62,0,.99,.27,1.11,.36l-.28,.41c-.13-.1-.41-.28-.83-.28-.4,0-.62,.2-.62,.51,0,.35,.3,.5,.72,.67,.61,.26,1.16,.52,1.16,1.15,0,.68-.51,1.11-1.33,1.11-.54,0-.95-.2-1.19-.36Z"/>
    <path class="cls-3" d="M139.13,46.87h.59l2,5.19h-.66l-.48-1.29h-2.36l-.48,1.29h-.6l1.99-5.19Zm1.25,3.39l-.66-1.78c-.16-.44-.23-.65-.32-.9h-.02c-.09,.26-.17,.5-.32,.9l-.66,1.78h1.97Z"/>
    <path class="cls-3" d="M142.43,50.99v-2.67h.57v2.56c0,.47,.16,.76,.67,.76,.57,0,1-.58,1.08-.69v-2.64h.57v2.96c0,.32,.04,.64,.07,.79h-.58c-.02-.09-.05-.37-.05-.55-.17,.23-.57,.65-1.22,.65-.8,0-1.11-.52-1.11-1.17Z"/>
    <path class="cls-3" d="M146.76,51.16v-2.39h-.62v-.45h.62v-1.07h.57v1.07h.94v.45h-.94v2.34c0,.37,.11,.55,.44,.55,.23,0,.44-.12,.51-.16l.21,.43c-.11,.07-.38,.23-.79,.23-.62,0-.94-.37-.94-.99Z"/>
    <path class="cls-3" d="M149.28,46.45h.57v2.41c.16-.21,.56-.63,1.22-.63,.79,0,1.1,.52,1.1,1.17v2.67h-.57v-2.56c0-.47-.16-.76-.66-.76-.58,0-1.01,.58-1.08,.69v2.64h-.57v-5.61Z"/>
    <path class="cls-3" d="M153.09,50.2c0-.87,.44-1.97,1.71-1.97s1.79,1.08,1.79,1.96-.5,1.97-1.76,1.97-1.73-1.08-1.73-1.96Zm2.89,0c0-.8-.41-1.48-1.19-1.48s-1.09,.66-1.09,1.47,.35,1.48,1.13,1.48,1.15-.66,1.15-1.47Z"/>
    <path class="cls-3" d="M157.53,48.32h.57v.58c.15-.25,.48-.68,1-.68,.23,0,.34,.05,.39,.08l-.14,.55s-.13-.06-.33-.06c-.56,0-.87,.65-.92,.76v2.51h-.57v-3.74Z"/>
    <path class="cls-3" d="M160.14,47.2c0-.23,.19-.42,.42-.42s.42,.19,.42,.42-.19,.42-.42,.42-.42-.19-.42-.42Zm.13,1.12h.58v3.74h-.58v-3.74Z"/>
    <path class="cls-3" d="M162.35,51.16v-2.39h-.62v-.45h.62v-1.07h.57v1.07h.94v.45h-.94v2.34c0,.37,.11,.55,.44,.55,.23,0,.44-.12,.51-.16l.21,.43c-.11,.07-.38,.23-.79,.23-.62,0-.94-.37-.94-.99Z"/>
    <path class="cls-3" d="M164.33,53.83l.08-.48c.05,0,.1,.02,.29,.02,.52,0,.74-.3,.94-.85l.18-.49-1.41-3.72h.64l1.07,2.99h.02l1.04-2.99h.61l-1.59,4.24c-.26,.69-.58,1.31-1.5,1.31-.19,0-.29-.02-.36-.04Z"/>
  </g>
  <g>
    <g>
      <path class="cls-1" d="M54.68,16.46l-15.38,9.47c-1.37,.84-3.18,1.26-4.98,1.26s-3.52-.4-4.86-1.2l-.26-.15h0s3.54-2.18,3.54-2.18l10.48-6.46c1.57-.97,2.44-2.3,2.43-3.75,0-1.45-.89-2.77-2.47-3.72L29.18,1.34h0s-.83,.51-.83,.51h0s0,0,0,0l14.39,8.62c2.72,1.63,2.73,4.32,.04,5.98l-14.42,8.87h0s0,0,0,0h0s0,0,0,0l-14.42-8.87c-2.7-1.66-2.68-4.35,.04-5.98L28.35,1.87h0s0,0,0,0l-.83-.51h0S13.51,9.73,13.51,9.73c-1.59,.95-2.46,2.27-2.47,3.72,0,1.45,.85,2.78,2.43,3.75l10.48,6.46,3.54,2.18h0l-.26,.15c-1.34,.8-3.1,1.2-4.86,1.2s-3.62-.42-4.98-1.26L2.01,16.46C.68,15.64,.01,14.57,0,13.5v2.41s0,0,0,0c.39,.5,.91,.95,1.55,1.35l15.38,9.47c1.46,.9,3.39,1.39,5.44,1.39s3.88-.47,5.31-1.33l.67-.4,.67,.4c1.43,.86,3.31,1.33,5.31,1.33s3.98-.49,5.44-1.39l15.38-9.47c.64-.39,1.16-.85,1.55-1.35h0s0-2.41,0-2.41c-.01,1.07-.68,2.14-2.01,2.96Z"/>
      <g>
        <path class="cls-4" d="M27.39,1.26C26.02,.42,24.21,0,22.4,0,20.64,0,18.89,.4,17.55,1.2L2.05,10.49C.68,11.31,0,12.41,0,13.5c.01,1.07,.68,2.14,2.01,2.96l15.38,9.47c1.37,.84,3.18,1.26,4.98,1.26s3.52-.4,4.86-1.2l.25-.15h0s-3.54-2.18-3.54-2.18l-10.48-6.46c-1.57-.97-2.44-2.3-2.43-3.75,0-1.45,.89-2.77,2.47-3.72L27.51,1.35l-.13-.08Z"/>
        <path class="cls-4" d="M29.31,1.26C30.67,.42,32.48,0,34.29,0,36.05,0,37.81,.4,39.15,1.2l15.49,9.28c1.38,.82,2.06,1.92,2.04,3.02-.01,1.07-.68,2.14-2.01,2.96l-15.38,9.47c-1.37,.84-3.18,1.26-4.98,1.26s-3.52-.4-4.86-1.2l-.25-.15h0s3.54-2.18,3.54-2.18l10.48-6.46c1.57-.97,2.44-2.3,2.43-3.75,0-1.45-.89-2.77-2.47-3.72L29.18,1.34l.13-.08Z"/>
      </g>
      <g>
        <path class="cls-2" d="M56.69,15.92c-.39,.5-.91,.95-1.55,1.35l-15.38,9.47c-1.46,.9-3.39,1.39-5.44,1.39s-3.88-.47-5.31-1.33l-.67-.4-.67,.4c-1.43,.86-3.31,1.33-5.31,1.33s-3.98-.49-5.44-1.39L1.55,17.26C.91,16.87,.39,16.41,0,15.92H0c0,1.73,0,5.49,0,5.5-.02,1.1,.65,2.2,2.01,3.04l15.38,9.47c1.37,.84,3.18,1.26,4.98,1.26s3.52-.4,4.86-1.2l1.12-.68,1.12,.68c1.34,.8,3.1,1.2,4.86,1.2s3.62-.42,4.98-1.26l15.38-9.47c1.36-.84,2.03-1.94,2.01-3.04,0,0,0-3.77,0-5.5h0Z"/>
        <path class="cls-2" d="M13.92,16.46l14.42,8.87,14.42-8.87c2.7-1.66,2.68-4.35-.04-5.98L28.35,1.87,13.96,10.48c-2.72,1.63-2.73,4.32-.04,5.98Z"/>
      </g>
    </g>
    <g>
      <polygon class="cls-1" points="28.34 5.34 28.68 6.09 29.79 6.08 28.89 6.55 29.26 7.33 28.34 6.84 27.43 7.33 27.79 6.55 26.9 6.08 28.01 6.09 28.34 5.34"/>
      <polygon class="cls-1" points="28.34 18.3 28.76 19.41 30.11 19.4 29.02 20.1 29.46 21.27 28.34 20.54 27.23 21.27 27.67 20.1 26.58 19.41 27.93 19.41 28.34 18.3"/>
      <polygon class="cls-1" points="24.57 6.06 24.86 6.82 25.98 6.82 25.05 7.3 25.36 8.09 24.47 7.59 23.52 8.09 23.94 7.3 23.06 6.82 24.18 6.82 24.57 6.06"/>
      <polygon class="cls-1" points="21.56 8.12 21.83 8.94 22.99 8.94 22 9.45 22.28 10.31 21.38 9.77 20.37 10.31 20.84 9.45 19.96 8.94 21.12 8.94 21.56 8.12"/>
      <polygon class="cls-1" points="20.12 11.17 20.38 12.08 21.59 12.07 20.54 12.64 20.82 13.58 19.89 12.99 18.81 13.58 19.33 12.64 18.42 12.07 19.64 12.08 20.12 11.17"/>
      <polygon class="cls-1" points="20.85 14.54 21.13 15.54 22.41 15.53 21.31 16.16 21.62 17.2 20.63 16.55 19.5 17.2 20.04 16.16 19.07 15.53 20.35 15.54 20.85 14.54"/>
      <polygon class="cls-1" points="23.87 17.24 24.2 18.32 25.54 18.32 24.42 19 24.79 20.13 23.73 19.42 22.59 20.13 23.09 19 22.06 18.32 23.39 18.32 23.87 17.24"/>
      <polygon class="cls-1" points="32.12 6.06 31.83 6.82 30.71 6.82 31.64 7.3 31.33 8.09 32.22 7.59 33.17 8.09 32.76 7.3 33.63 6.82 32.51 6.82 32.12 6.06"/>
      <polygon class="cls-1" points="35.13 8.12 34.86 8.94 33.71 8.94 34.7 9.45 34.41 10.31 35.31 9.77 36.32 10.31 35.85 9.45 36.73 8.94 35.57 8.94 35.13 8.12"/>
      <polygon class="cls-1" points="36.57 11.17 36.32 12.08 35.1 12.07 36.15 12.64 35.87 13.58 36.8 12.99 37.88 13.58 37.36 12.64 38.27 12.07 37.06 12.08 36.57 11.17"/>
      <polygon class="cls-1" points="35.84 14.54 35.56 15.54 34.28 15.53 35.38 16.16 35.07 17.2 36.06 16.55 37.19 17.2 36.65 16.16 37.62 15.53 36.34 15.54 35.84 14.54"/>
      <polygon class="cls-1" points="32.83 17.24 32.49 18.32 31.16 18.32 32.27 19 31.91 20.13 32.96 19.42 34.11 20.13 33.6 19 34.63 18.32 33.3 18.32 32.83 17.24"/>
    </g>
  </g>
  <g>
    <path class="cls-3" d="M152.91,11.51h-13.93c-.9,0-.9,1.33,0,1.33h13.93c.99,0,1.8,.66,1.8,1.8v1.99c-.47-.33-1.04-.47-1.66-.47h-14.93c-1.61,0-2.84,1.14-2.89,2.84-.05,2.32,0,3.7,0,3.7,0,1.75,1.42,2.89,3.17,2.89h14.4c1.75,0,3.17-1.18,3.22-3.08v-7.87c0-1.71-1.16-3.04-3.13-3.13Zm1.79,10.95c0,1.73-1.73,1.73-1.73,1.73h-14.75c-1.73,0-1.73-1.73-1.73-1.73v-3.24c0-1.73,1.73-1.73,1.73-1.73h14.75c1.73,0,1.73,1.73,1.73,1.73v3.24Z"/>
    <path class="cls-3" d="M130.45,11.51h-18.62c-.38,0-.71,.33-.71,.66v20.39c0,.9,1.33,.9,1.33,0v-5.34c0-1.12,1.08-1.65,1.8-1.65h15.97c1.85,0,3.13-1.28,3.13-3.03V14.45c0-1.8-1.14-2.94-2.89-2.94m1.52,11.04c0,1.04-.66,1.66-1.75,1.66h-15.97c-.66,0-1.23,.19-1.75,.52V12.84h18.1c.95,0,1.37,.62,1.37,1.61v8.1Z"/>
    <path class="cls-3" d="M106.28,11.51h-14.85s-2.97,0-2.97,2.97v8.09s0,2.97,2.97,2.97h14.85s2.97,0,2.97-2.97V14.48s0-2.97-2.97-2.97m1.58,10.96c0,1.73-1.73,1.73-1.73,1.73h-14.56c-1.73,0-1.73-1.73-1.73-1.73v-7.9c0-1.73,1.73-1.73,1.73-1.73h14.56c1.73,0,1.73,1.73,1.73,1.73v7.9Z"/>
    <path class="cls-3" d="M86.54,24.87V12.12c0-.9-1.33-.9-1.33,0v12.75c0,.9,1.33,.9,1.33,0"/>
    <path class="cls-3" d="M65.63,25.54h13.9c.9,0,.9-1.33,0-1.33h-13.91c-.99,0-1.8-.66-1.8-1.8v-1.99c.47,.33,1.04,.47,1.66,.47h14.9c1.61,0,2.84-1.14,2.89-2.84,.05-2.32,0-3.7,0-3.7,0-1.75-1.42-2.89-3.17-2.89h-14.38c-1.75,0-3.17,1.18-3.22,3.08v7.87c0,1.71,1.16,3.04,3.13,3.13Zm-1.78-10.95c0-1.73,1.73-1.73,1.73-1.73h14.73c1.73,0,1.73,1.73,1.73,1.73v3.24c0,1.73-1.73,1.73-1.73,1.73h-14.73c-1.73,0-1.73-1.73-1.73-1.73v-3.24Z"/>
  </g>
</svg>