<svg id="Layer_1" data-name="Layer 1" xmlns="http://www.w3.org/2000/svg" viewBox="0 0 1117.44 339.49"><defs><style>.cls-1{fill:#1a3a5a;}.cls-2{fill:#038f96;}.cls-3{fill:#ec4c3b;}.cls-4{fill:#fdfefe;}</style></defs><path class="cls-1" d="M188.2,20c.26.18.51.48.8.51,3.94.42,7.91.6,11.81,1.26,5.57.93,11.13,2,16.59,3.38a168.63,168.63,0,0,1,63.69,31.76,172.12,172.12,0,0,1,17.44,15.94,176.05,176.05,0,0,1,16.58,20.38,167.14,167.14,0,0,1,14,24.27,165,165,0,0,1,11.27,31.83,140.41,140.41,0,0,1,3.3,18c.4,3.76.63,7.53,1.13,11.27.7,5.33.44,10.67.36,16-.06,4.13-.69,8.25-.9,12.38a123.58,123.58,0,0,1-1.65,12.28,146.91,146.91,0,0,1-4.51,19.33,171.28,171.28,0,0,1-46.66,75A171.78,171.78,0,0,1,260,336.91a169.67,169.67,0,0,1-36.28,15.57,159.58,159.58,0,0,1-21,4.77c-4.8.74-9.62,1.24-14.47,1.7a160.37,160.37,0,0,1-23.09.25,158.47,158.47,0,0,1-25.59-3.53,172.45,172.45,0,0,1-32.42-10.45,157.42,157.42,0,0,1-29.75-16.84c-4.83-3.49-9.5-7.22-14-11.13s-8.57-7.85-12.55-12.06a160.38,160.38,0,0,1-20.76-27.32,169.43,169.43,0,0,1-17.74-40A161.22,161.22,0,0,1,7.63,217,110.33,110.33,0,0,1,6,202.25c0-.29-.31-.57-.47-.85V178c.16-.28.47-.56.47-.84a122.47,122.47,0,0,1,2.21-17.89,162.52,162.52,0,0,1,7.48-27.67,169.45,169.45,0,0,1,14.44-30A158.74,158.74,0,0,1,49.9,75.25c4.26-4.56,8.78-8.92,13.47-13,4.45-3.93,9.16-7.61,14-11.13A149.39,149.39,0,0,1,100,37.49,173.43,173.43,0,0,1,130.3,26,183.89,183.89,0,0,1,150,21.74c3.72-.6,7.51-.8,11.26-1.21.27,0,.51-.35.77-.53ZM331.36,189.89c-.51-42.55-15.22-79.1-44.77-109.25s-65.93-46-108.14-46.79C135.53,33,98.11,47.75,67.15,77.57c-30.72,29.59-46.84,66.14-47.78,108.68-.94,43.07,13.86,80.63,43.88,111.67,29.66,30.66,66.26,46.76,108.87,47.61,43.77.87,81.75-14.39,112.87-45.2C315.66,270,330.85,232.78,331.36,189.89Z" transform="translate(-5.5 -20)"/><path class="cls-1" d="M930.52,327.68H917.1c-.43-2.06-.57-66.28-.16-70.53h9.44l42.72,46.79v-46.8h13.59v70.48h-9.46s-44.54-48.55-42.71-47Z" transform="translate(-5.5 -20)"/><path class="cls-1" d="M547.71,257.07h9.22l42.93,47V257.15h13.58v70.47H604l-42.66-46.86v46.83H547.88Z" transform="translate(-5.5 -20)"/><path class="cls-1" d="M635.13,152.51h9.22l17,40.58,17.72-40.55h9.23q5.37,31.82,10.78,63.92c-2.07.52-10.52.25-12.9.25-1.88-12.87-3.77-25.71-5.72-39.06l-17,39h-4.61c-5.32-12.78-10.68-25.65-16.19-38.86-2.36,13.14-4.28,26-6.58,38.87H623.31C624.08,211.14,634.11,158,635.13,152.51Z" transform="translate(-5.5 -20)"/><path class="cls-1" d="M603.16,152.54l10.73,63.89c-2.3.54-10.42.28-12.71.28-1.29-6.34-2-12.82-2.92-19.26s-1.93-12.77-3-19.48c-2.17,4.23-15.08,34.22-17,38.61h-4.54C568.31,204,563.07,191,557.51,177.77c-2.4,13.15-4.35,26-6.54,38.85H538.21C538.86,211.1,549,158,550,152.55h9.26l17,40.57,17.73-40.58Z" transform="translate(-5.5 -20)"/><path class="cls-1" d="M788.6,327.69H774.82l-.14-.16c0-.06-.16-.13-.16-.2q0-34.56,0-69.12c0-.34,0-.68.06-1.19H776c6.72,0,13.45-.08,20.16,0,4.89.07,9.72.76,14,3.33a19,19,0,0,1,9.65,15.05,23.67,23.67,0,0,1-.68,9.27,17.49,17.49,0,0,1-11,12.08c-1.23.46-2.47.89-3.84,1.38l21.56,29.17c-.33.22-.48.4-.62.4-5.09,0-10.17,0-15.26,0-1.25,0-1.7-.78-2.26-1.62q-6-9-12-18c-1.75-2.62-3.54-5.22-5.24-7.87-.46-.72-.87-1.1-1.91-.63Zm0-59.22V289.1a.42.42,0,0,0,.11.22,3.34,3.34,0,0,0,.54.41l6.63-.58c5.09-.45,10.23-4.1,9.77-11a9.69,9.69,0,0,0-6.47-8.7C795.77,268.31,792.31,268.33,788.59,268.47Z" transform="translate(-5.5 -20)"/><path class="cls-1" d="M963.2,174v42.74c-2.13,0-10.23,0-12.22,0-.46-1.91-.57-60.68-.1-64.28,2.4,0,4.84,0,7.27,0a2.57,2.57,0,0,1,2.09,1c3.6,3.95,36,39.32,38.31,41.86V152.55H1011v64h-9Z" transform="translate(-5.5 -20)"/><path class="cls-1" d="M528.74,185a35.1,35.1,0,0,1-5.57,18.88c-4.57,7-11.12,11.11-19,13.32a38,38,0,0,1-14.24,1,33.39,33.39,0,0,1-19.05-8,31.71,31.71,0,0,1-10.58-19.71A36,36,0,0,1,463,169.69a29.47,29.47,0,0,1,11.32-13.1,35.22,35.22,0,0,1,17.53-5.41A36.72,36.72,0,0,1,511.35,155c9.34,4.89,14.76,12.66,16.61,23C528.37,180.28,528.49,182.63,528.74,185Zm-34.58-22.28a20,20,0,0,0-19.35,12.52,24.55,24.55,0,0,0-1.51,13.71c1.52,8.48,6.06,14.24,14.33,16.89a22,22,0,0,0,10.63.62c7.5-1.31,12.55-5.57,15.49-12.39a24.61,24.61,0,0,0,1-15.62,19.39,19.39,0,0,0-5.6-10A20.32,20.32,0,0,0,494.16,162.67Z" transform="translate(-5.5 -20)"/><path class="cls-1" d="M869.08,184.73a33.28,33.28,0,0,1,5.73-19.42,30.86,30.86,0,0,1,16.59-12.4,38.94,38.94,0,0,1,10.06-1.74,38.19,38.19,0,0,1,14.27,1.76c10.94,3.63,17.9,11.18,21,22.12a33.06,33.06,0,0,1,.94,14.16,36.71,36.71,0,0,1-3.91,12.49,31,31,0,0,1-15.68,13.89,37.85,37.85,0,0,1-18.56,2.58c-8.8-.87-16.55-4.23-22.46-11a30.88,30.88,0,0,1-7.13-14.89C869.48,189.76,869.36,187.23,869.08,184.73Zm13.08-.14c.27,2,.39,4.13.85,6.13a19.47,19.47,0,0,0,12.17,14.46,21.63,21.63,0,0,0,12.15,1.27q12.4-2.2,16.31-13.94a23.78,23.78,0,0,0,.9-11.69c-1.12-6.71-4.2-12-10.14-15.43-4.92-2.86-10.16-3.3-15.67-2.22a18.85,18.85,0,0,0-11.87,7.31A22.87,22.87,0,0,0,882.16,184.59Z" transform="translate(-5.5 -20)"/><path class="cls-1" d="M739.51,257.08h13.57a9.94,9.94,0,0,1,.16,1.28c0,15.07,0,30.14-.06,45.2a25.92,25.92,0,0,1-5.61,16.25,22.33,22.33,0,0,1-8.82,6.6,33,33,0,0,1-15.49,2.88c-5.81-.4-11.34-1.81-16.17-5.25A23.89,23.89,0,0,1,697,306.93a81,81,0,0,1-.42-10.55c0-12.16,0-24.33,0-36.49v-2.76h13.92c0,.71.09,1.4.09,2.09,0,13.8,0,27.6,0,41.4,0,3.19.24,6.32,1.92,9.13A13.09,13.09,0,0,0,723,316.39a17.12,17.12,0,0,0,6.71-.52A13,13,0,0,0,739,305.61a32.63,32.63,0,0,0,.53-6.71c0-13,0-26,0-38.94Z" transform="translate(-5.5 -20)"/><path class="cls-1" d="M903.39,327.62h-15q-3-7-6.19-14.51H853.84l-6.15,14.49H833a1.55,1.55,0,0,1-.18-.26.51.51,0,0,1,0-.27c10-23.1,30-69.63,30.15-69.92h10.83C878.83,268.71,898.4,315.7,903.39,327.62ZM868,277l-9.66,24.49h19.22C877.35,299.38,869.73,279.79,868,277Z" transform="translate(-5.5 -20)"/><path class="cls-1" d="M1103.37,189.79c3.05,5,6.62,9.13,9.8,13.56s6.42,8.7,9.77,13.22h-15.77c-.67-.95-1.46-2-2.2-3.16-4.71-7-9.43-14.06-14.08-21.14-.55-.84-1-1.45-2.23-1v25.34H1076.2v-64c.51-.05,1.11-.15,1.7-.16,6.09,0,12.18-.11,18.26,0,5.09.12,10,1.1,14.22,4.26a17,17,0,0,1,7.06,13.08,23.07,23.07,0,0,1-.37,6.45c-1.41,6.62-5.35,10.81-11.65,12.95C1104.91,189.38,1104.39,189.5,1103.37,189.79Zm-14.55-26.95c-.43,5.31-.28,17.2.25,19.22a21.46,21.46,0,0,0,8.71-.81,8.72,8.72,0,0,0,6.67-7.85c.36-5.37-2.64-8.49-5.84-9.6A25.8,25.8,0,0,0,1088.82,162.84Z" transform="translate(-5.5 -20)"/><path class="cls-1" d="M1087.39,284.64c7.89.16,15.85,0,23.93.1v11.93h-24.2v18.95c8.47.32,16.86,0,25.32.2v11.55c-1.77.47-35.37.6-39.06.12V257.35c2.15-.48,28.7-.66,39-.25a33.57,33.57,0,0,1,.17,5.85c0,1.9,0,3.79,0,5.86a65.74,65.74,0,0,1-8.4.19c-2.81.05-5.63,0-8.44,0a74.27,74.27,0,0,0-8.32.15C1086.89,271.48,1086.89,282.21,1087.39,284.64Z" transform="translate(-5.5 -20)"/><path class="cls-1" d="M669.66,273.27c-1.21-1.15-2.24-2.28-3.42-3.22a13,13,0,0,0-14.2-1.21,7,7,0,0,0-.54,12,27.86,27.86,0,0,0,5.1,2.37c4.06,1.66,8.33,2.8,12.21,4.9,5.74,3.12,9.3,7.74,10.29,14.34a23.38,23.38,0,0,1-5.39,19.32,18.21,18.21,0,0,1-7,5c-10.27,4.33-20,3.31-29.08-3.17a26.73,26.73,0,0,1-7.24-7.75l9-8.5c.86,1.18,1.58,2.21,2.35,3.19a15.54,15.54,0,0,0,16.95,5.3c5.44-1.71,7.53-7.31,5.66-12.18-1.12-2.9-3.68-4.34-6.28-5.61a45.71,45.71,0,0,0-5-1.87,49.35,49.35,0,0,1-10.1-4.35c-4-2.53-7.16-5.75-8.19-10.6-2.15-10.1,2-20.29,12.12-24a27.75,27.75,0,0,1,24.84,2.42,41.87,41.87,0,0,1,4.09,3.1,1.42,1.42,0,0,1,.3,2.15C674,267.73,671.8,270.5,669.66,273.27Z" transform="translate(-5.5 -20)"/><path class="cls-1" d="M1055.32,260v15.85c-3.57-3.35-7.25-6.1-12.08-7.06-6.93-1.38-13.27-.3-18.88,4.07-5.2,4.07-7.91,9.54-9,16a24.52,24.52,0,0,0,2.35,15.14,21.62,21.62,0,0,0,15,11.72c5.49,1.33,11,1.16,16-1.68a66.63,66.63,0,0,0,6.28-4.5c.39,1.71.5,10.52.14,15.41a23,23,0,0,1-8.38,3.26,40.6,40.6,0,0,1-13.65.73,37.19,37.19,0,0,1-13.33-3.91,37.93,37.93,0,0,1-13.69-12.85c-3.86-5.79-5.27-12.29-5.41-19.16a37.64,37.64,0,0,1,4.43-19.22c5.18-9.45,13-15.46,23.74-17.49a43.72,43.72,0,0,1,10.45-.92,37.16,37.16,0,0,1,14.77,3.71,6,6,0,0,1,.7.4A4.89,4.89,0,0,1,1055.32,260Z" transform="translate(-5.5 -20)"/><path class="cls-1" d="M1039.94,163.42c-.47,2.22-.52,11.22-.1,14.13h21.83v11c-2.31.37-19.38.17-22,.17v17h23v10.78h-35.63v-64h35.67v10.53C1062.23,163.16,1040.77,163.39,1039.94,163.42Z" transform="translate(-5.5 -20)"/><path class="cls-1" d="M736.16,206l8-7.76c.56.76,1,1.3,1.39,1.89a14.67,14.67,0,0,0,11.25,6.59,9.93,9.93,0,0,0,8.41-2.85,8.11,8.11,0,0,0-1-12.3,31.58,31.58,0,0,0-8.56-3.85,35.6,35.6,0,0,1-9.91-4.74,14.67,14.67,0,0,1-6.26-11.69A19.21,19.21,0,0,1,742.14,160a17.76,17.76,0,0,1,12.89-8.5,27.71,27.71,0,0,1,13.54.9c3.15,1.1,7.63,3.58,9.79,6.43L772,167.15c-1.57-1.27-2.87-2.51-4.34-3.48a11.23,11.23,0,0,0-11-.89,6.47,6.47,0,0,0-4,5.92,5.54,5.54,0,0,0,3.27,5.72c2.32,1.15,4.77,2,7.18,3,3.25,1.28,6.56,2.36,9.57,4.23a16.36,16.36,0,0,1,7.54,10.4,21.61,21.61,0,0,1-1,13.68c-2.72,6.62-7.86,10.43-14.67,12A26.07,26.07,0,0,1,736.16,206Z" transform="translate(-5.5 -20)"/><path class="cls-1" d="M795.15,198.18c1.68,2.66,3.12,4.85,5.49,6.19,3.81,2.14,7.73,3.31,12.1,1.72a8.35,8.35,0,0,0,5.8-7.67c.28-3.29-1.5-5.74-4.23-7.33a53.39,53.39,0,0,0-6.12-2.75c-3.05-1.29-6.19-2.4-9.16-3.84a14.94,14.94,0,0,1-8.52-11.15,18.7,18.7,0,0,1,1.13-10.6c3-7.3,8.71-10.63,16.26-11.51a27.57,27.57,0,0,1,13.16,1.7,23.32,23.32,0,0,1,8.25,5.71l-6.44,8.48a34.68,34.68,0,0,0-4.19-3.46c-3.87-2.26-7.95-2.7-12-.43a6.29,6.29,0,0,0-2.24,9.08,8.38,8.38,0,0,0,3.06,2.5c2.08,1,4.29,1.8,6.47,2.61,3.62,1.35,7.25,2.62,10.47,4.86a16.47,16.47,0,0,1,6.75,10.63,21.56,21.56,0,0,1-.5,10.64c-2.15,7.6-7.42,12.08-14.73,14a25.51,25.51,0,0,1-18.89-2.14,26.23,26.23,0,0,1-10.16-9.37Z" transform="translate(-5.5 -20)"/><path class="cls-1" d="M450.4,169.31c-2.76-1.76-5-3.61-7.61-4.78-7.24-3.26-14.28-2.53-20.63,2.23-6.77,5.08-9.28,12.26-8.65,20.45.62,7.85,4.64,13.92,11.73,17.28,8.36,4,16.42,3.11,23.52-3.28l1.36-1.23a7.62,7.62,0,0,1,.27,1.26c0,3.9,0,7.81,0,11.71a2.13,2.13,0,0,1-1.45,2.26,30.79,30.79,0,0,1-10.57,2.94,38.59,38.59,0,0,1-17.32-2,27,27,0,0,1-7.7-4.37c-6.56-5.45-11.32-12-12.57-20.76-1.36-9.45,0-18.28,5.39-26.29a29.08,29.08,0,0,1,20.06-12.91,37,37,0,0,1,7.73-.89c5.2.26,10.38.86,15.07,3.49.77.42,1.36.75,1.35,1.77C450.38,160.53,450.4,164.87,450.4,169.31Z" transform="translate(-5.5 -20)"/><path class="cls-1" d="M469.29,56,448,109.48c-2.74-6.85-12.38-33.34-15-40.39l-16,40.55c-6.59-18.08-13-35.73-19.54-53.6h6.5c4.3,12.18,8.65,24.55,13.15,37.29,2.89-6.73,13.08-33,15.67-39.53a1.46,1.46,0,0,1,.39,0c.07,0,14.94,39.12,15,39.1S462.92,56,462.64,56.28C462.58,56.34,467,56,469.29,56Z" transform="translate(-5.5 -20)"/><path class="cls-1" d="M512.29,327.74V257.15h13.63c.53,2.1.77,59.12.26,70.41a48.65,48.65,0,0,1-6.94.17C517,327.77,514.73,327.74,512.29,327.74Z" transform="translate(-5.5 -20)"/><path class="cls-1" d="M426.72,303.27c-6.8,0-12.05-1.67-16.33-5.65a19.92,19.92,0,0,1-6.33-13.32,22.61,22.61,0,0,1,1.63-11.51c3.19-7,8.72-10.89,16.37-12.08a24.42,24.42,0,0,1,11.41.93c7.39,2.36,11.85,7.57,13.67,15a22.07,22.07,0,0,1-.9,13.24c-2.57,6.89-7.67,10.91-14.62,12.72A32.32,32.32,0,0,1,426.72,303.27ZM439.34,282c-.25-1.49-.41-3-.77-4.48-2.45-10.26-15.26-12.36-21.77-6.34-3.86,3.57-5,8.08-4.35,13a12.57,12.57,0,0,0,5.65,9.38,14.45,14.45,0,0,0,8.74,2.13,12.43,12.43,0,0,0,8.25-3.47A13.74,13.74,0,0,0,439.34,282Z" transform="translate(-5.5 -20)"/><path class="cls-1" d="M767.21,54.92a26.38,26.38,0,1,1-.55,52.75,26.38,26.38,0,1,1,.55-52.75Zm20.34,26.43c-.23-11.34-8.22-20.66-20.34-20.89-12.44-.23-20.69,10.16-20.72,20.74s8,20.85,20.3,20.9C778.94,102.15,787.29,92.68,787.55,81.35Z" transform="translate(-5.5 -20)"/><path class="cls-1" d="M856.24,216.61H843.83V152.56H856C856.49,155,856.69,205.22,856.24,216.61Z" transform="translate(-5.5 -20)"/><path class="cls-1" d="M711.82,152.49H724c.43,2,.54,60.66.11,64.13H711.82Z" transform="translate(-5.5 -20)"/><path class="cls-1" d="M1060.24,106.52h-5.4V51.19h5.35c.12,2.88,0,23.47,0,26.7,1-.7,1.74-1.29,2.53-1.81a12,12,0,0,1,13.64.33,8.52,8.52,0,0,1,3.34,5.1,19.15,19.15,0,0,1,.53,4.53c0,6.72,0,13.43,0,20.28-1.81.6-3.69.18-5.71.29,0-.79-.11-14-.13-19.86a10,10,0,0,0-.3-3c-.76-2.36-2.17-4.16-4.87-4.44-3.11-.32-5.75.47-7.44,3.3a13,13,0,0,0-1.6,6.73C1060.21,95,1060.24,100.63,1060.24,106.52Z" transform="translate(-5.5 -20)"/><path class="cls-1" d="M924.89,91.9H900.72c-.63,1.94.2,3.59.9,5.15a8.08,8.08,0,0,0,5,4.69c5.52,1.65,9.76.65,13.53-5.71l4.52,2.35a14.18,14.18,0,0,1-5.47,6.66c-6.37,4.29-15.56,3.14-20.36-2-3.83-4.12-4.79-9.19-4.18-14.57a18.21,18.21,0,0,1,3.05-8.24,13.51,13.51,0,0,1,8-5.57c4.83-1.24,9.49-.63,13.52,2.51a11.8,11.8,0,0,1,3.25,3.55A19.2,19.2,0,0,1,924.89,91.9Zm-23.8-4.59h17.75c-.09-4.35-4-7.93-8.55-8C905.34,79.27,901.35,82.67,901.09,87.31Z" transform="translate(-5.5 -20)"/><path class="cls-1" d="M1095.78,92c-.39,4.8,1.75,8.64,6.3,9.91,5.52,1.54,8.72.63,13.05-5.71a10.32,10.32,0,0,1,4.59,2.63c-2.68,4.46-6.19,7.67-11.5,8.6-8.65,1.5-17.85-3.43-18.51-14a23.34,23.34,0,0,1,.45-7.53c1.42-5.35,4.42-9.2,9.76-10.95,6.49-2.13,14.27-.13,17.63,6a25.69,25.69,0,0,1,2,6.05,37.83,37.83,0,0,1,.52,4.95Zm18.29-4.7c-.93-5.33-5-8.64-10.69-7.9a8.89,8.89,0,0,0-7.41,8.07h17.35A4,4,0,0,0,1114.07,87.26Z" transform="translate(-5.5 -20)"/><path class="cls-1" d="M477.16,277.17v7H464.77a86.13,86.13,0,0,0-.18,9c0,2.89,0,5.78,0,8.84h-8V261.51h21.52v6.7c-2.17.43-4.42.14-6.65.19s-4.5,0-6.78,0v8.76Z" transform="translate(-5.5 -20)"/><path class="cls-1" d="M952.8,90.67c-.13-9.26,6.83-16.63,16.85-16.55,10.31.09,16.87,7.24,16.86,16.85,0,10.45-7.79,16.85-17.26,16.69S952.44,100.27,952.8,90.67Zm16.73,11.7a9.93,9.93,0,0,0,7.23-2.39c3.72-3,4.66-9.41,3-13.88-2.67-7.19-12-8.81-17.24-4.27-3.14,2.7-3.89,6.23-3.84,10.22C958.75,97.58,963.68,102.81,969.53,102.37Z" transform="translate(-5.5 -20)"/><path class="cls-1" d="M590.19,91.07c.36,9.08-7.16,16.81-17.08,16.6-9.65-.21-16.51-6.92-16.59-16.55-.08-10.08,6.84-17,17-17S590.53,81.78,590.19,91.07Zm-5.94.19c0-.62,0-.89,0-1.16.35-6.72-6.47-12.77-14.43-10.26-6.76,2.12-9.47,10.7-5.92,17.2,2,3.62,5.17,5.29,9.34,5.37a10.21,10.21,0,0,0,9.52-5A10,10,0,0,0,584.25,91.26Z" transform="translate(-5.5 -20)"/><path class="cls-1" d="M824.5,106.22v-26l-3-.44V75.12l2.92-.18c0-.67.13-1.36.14-2,0-4.08,0-8.17.06-12.25,0-5.18,3.34-9.16,8.93-10.22a17.25,17.25,0,0,1,7.74.19c5,1.31,7.06,4.2,7.79,9.2a33.22,33.22,0,0,1,0,4.69H843.9c-.22-1.33-.51-2.62-.62-3.94-.23-2.73-2.15-3.92-4.39-4.5a9.67,9.67,0,0,0-4.31.1c-2.8.6-4.35,2.75-4.41,6-.08,4.16,0,8.33,0,12.78h7.9v5h-7.74c-.33,3.13-.12,6-.15,8.89s0,5.81,0,8.71v8.69A10.82,10.82,0,0,1,824.5,106.22Z" transform="translate(-5.5 -20)"/><path class="cls-1" d="M626,106.51h-5.78V104c0-6,0-12,0-18a7.13,7.13,0,0,0-1.34-4.56c-2.74-3.58-9.71-2.88-11.69,2a16.24,16.24,0,0,0-1.21,6.3c0,4.63,0,9.25,0,13.88v2.82h-5.43V75.26c1.67-.5,3.43-.11,5.38-.28v3.36c2.29-2.27,4.6-3.74,7.6-4.08,6-.69,11.28,2.52,12.08,8a31,31,0,0,1,.47,4.27c.05,6.35,0,12.7,0,19A9.18,9.18,0,0,1,626,106.51Z" transform="translate(-5.5 -20)"/><path class="cls-1" d="M690,106.51h-5.38V75.13h5.33c.05,1,.09,1.93.15,3a41.53,41.53,0,0,1,3.42-2.52c5.42-3.17,13.67-1.06,15.6,4.55a13.87,13.87,0,0,1,.95,4.16c.09,7.33,0,14.67,0,22.15H704.6c0-5.44,0-10.77,0-16.1a42.4,42.4,0,0,0-.47-6.17,5.52,5.52,0,0,0-5.3-4.88c-5.07-.5-7.83,2.82-8.39,7.47C689.65,93.28,690.14,99.79,690,106.51Z" transform="translate(-5.5 -20)"/><path class="cls-1" d="M1002.38,75h7.55v5c-2.35.07-4.76,0-7.09,0l-.27.23a.74.74,0,0,0-.14.22.8.8,0,0,0,0,.27c0,8.52,0,17,0,25.71a28.4,28.4,0,0,1-5.77.15V80.21l-2.79-.38V75.14l2.71-.24c0-4.32,0-8.56,0-12.79a23.8,23.8,0,0,1,.52-5.35,7.89,7.89,0,0,1,5.33-6,10.48,10.48,0,0,1,7.5,0v5.44a29.29,29.29,0,0,0-3.25-.42c-3.22-.06-3.82,1.21-4.21,3.77a25.3,25.3,0,0,0-.08,3.8C1002.37,67.22,1002.38,71,1002.38,75Z" transform="translate(-5.5 -20)"/><path class="cls-1" d="M810.06,80.14v26.34h-5.7V80.2l-3-.34V75.19l2.91-.3c0-.69.09-1.38.09-2.08,0-4.63,0-9.26.08-13.88.1-4.86,2.62-7.55,7.37-8.53a11.94,11.94,0,0,1,4.77.11A1.43,1.43,0,0,1,818,52.16c0,1.35,0,2.7,0,4.05-1.45-.13-2.76-.33-4.06-.35a3.22,3.22,0,0,0-3.54,2.66,6.11,6.11,0,0,0-.39,1.82c0,4.8,0,9.59,0,14.67h7.93v4.72C815.48,80.32,812.93,79.72,810.06,80.14Z" transform="translate(-5.5 -20)"/><path class="cls-1" d="M548,77.14v6.55c-6.71-6.49-14-4.71-17.56-1.34-3.77,3.56-4.59,12.13-.55,16.62,2.46,2.72,5.67,3.61,9.31,3.42s6.39-2.1,9.21-4.84c.23,2.47.07,4.5.14,6.46-6.53,5.7-17,4.13-22.32-.89-6.07-5.71-6.67-16.52-1.16-23.16A17.49,17.49,0,0,1,548,77.14Z" transform="translate(-5.5 -20)"/><path class="cls-1" d="M886.23,97.8v6.68a17.63,17.63,0,0,1-23.77-3.39c-4.48-6-4.07-17.2,2.16-22.74,5.88-5.23,16.57-5.6,21.55-.89v6.27c-6.87-6.42-13.95-5.28-17.94-1.14s-4.31,11.68-.11,16.5c2.43,2.79,5.74,3.57,9.34,3.26A13.52,13.52,0,0,0,886.23,97.8Z" transform="translate(-5.5 -20)"/><path class="cls-1" d="M512.39,80,508,82.26a30.12,30.12,0,0,0-2.72-2.44,4.13,4.13,0,0,0-4.55.34,3.2,3.2,0,0,0,.54,5.24c1.47.85,3.09,1.44,4.61,2.2A38.66,38.66,0,0,1,510.34,90c4.74,3.21,4.88,8.32,2.6,12.65-2.18,4.14-8,5.65-12,4.82-4.56-.93-7.42-3.73-8.89-8.14l4.75-1.9c.85,1.13,1.63,2.31,2.55,3.35,1.65,1.86,3.85,1.94,6,1.35,2.88-.8,4.15-5.24,1.87-7.27a21.28,21.28,0,0,0-3.85-2.4c-2.11-1.17-4.32-2.16-6.37-3.43-4.58-2.83-3.41-10.94.85-13.38a10.22,10.22,0,0,1,10.5-.29C510.23,76.37,511.24,78,512.39,80Z" transform="translate(-5.5 -20)"/><path class="cls-1" d="M635.88,99.24l4.43-1.82c.81,1.15,1.48,2.21,2.28,3.16a5.1,5.1,0,0,0,4.32,1.81c3.21-.09,5-2,4.92-5.13a2.74,2.74,0,0,0-1.07-2.37,30.85,30.85,0,0,0-4.14-2.45,36.15,36.15,0,0,1-6.56-3.67c-3.72-2.88-3.13-10.29,1-13,5.34-3.44,12.66-1.46,14.54,4.29l-4.43,2.29c-.49-.68-.81-1.21-1.21-1.67a4.24,4.24,0,0,0-5.17-.9,3.13,3.13,0,0,0-.36,5.5c1.44.9,3.07,1.49,4.6,2.25a46,46,0,0,1,4.53,2.32c5.1,3.26,5,8.54,2.76,12.8-2.37,4.45-8.06,5.61-12,4.79a10.82,10.82,0,0,1-8.17-6.38,3.36,3.36,0,0,1-.27-.75A7.89,7.89,0,0,1,635.88,99.24Z" transform="translate(-5.5 -20)"/><path class="cls-1" d="M1042.28,106.54h-5.88V80.11l-3.2-.23V75.07h3.1V63.72h5.93V75h5.34v4.88h-4.84a4.85,4.85,0,0,0-.35.4.52.52,0,0,0-.1.23Z" transform="translate(-5.5 -20)"/><path class="cls-1" d="M476.6,317.59V321c-.61.06-1.21.16-1.81.16H410.18c-2.8,0-3.14-.56-2.1-3.54Z" transform="translate(-5.5 -20)"/><path class="cls-1" d="M672.29,106.5H666.7V75.28c1.72-.56,3.59-.15,5.59-.25Z" transform="translate(-5.5 -20)"/><path class="cls-1" d="M482.44,106.5h-5.6V75.27c1.74-.53,3.6-.16,5.6-.21Z" transform="translate(-5.5 -20)"/><path class="cls-1" d="M843.74,106.48V75.25c1.68-.48,3.45-.11,5.32-.26v31.49Z" transform="translate(-5.5 -20)"/><path class="cls-1" d="M669.54,66.9a4,4,0,0,1-4-3.83,4.06,4.06,0,0,1,4-3.9,3.81,3.81,0,0,1,4.08,4A3.72,3.72,0,0,1,669.54,66.9Z" transform="translate(-5.5 -20)"/><path class="cls-1" d="M479.65,66.9a3.69,3.69,0,0,1-4-3.77,3.94,3.94,0,0,1,3.89-4,4.11,4.11,0,0,1,4.18,4A3.78,3.78,0,0,1,479.65,66.9Z" transform="translate(-5.5 -20)"/><path class="cls-1" d="M78.55,189.65c.62-26.16,9.47-48.91,27.92-67.62,18.89-19.15,42-28.84,68.81-28.88s49.78,9.63,68.64,28.61c18.65,18.77,28.07,41.73,28,68,0,26.81-9.82,50.07-29.12,68.92-18.7,18.27-41.4,27.55-67.46,27.52-26.78,0-49.93-9.68-68.83-28.81C88,238.65,79.13,215.82,78.55,189.65Zm80.85-48.29a8.07,8.07,0,0,1,3.73-4.57,2.67,2.67,0,0,0,1.15-1.13,3.6,3.6,0,0,0,.28-2c-.17-.8-.95-1-1.75-.91-.45,0-.91,0-1.35.13a53,53,0,0,0-11.24,3.6,21.7,21.7,0,0,1-9.87,2.44,22.47,22.47,0,0,0-5.81.91c-1.56.36-1.91.94-2,2.45,0,.46,0,.91,0,1.37,0,3.08.08,6.16.08,9.25,0,2.05-.43,2.64-2.18,3.21-.25.09-.55,0-.81.11-2.25.78-4.35,1.73-5.27,4.23a9.28,9.28,0,0,1-1.46,2.26c-2.48,3.22-2.49,3.27.66,5.66,1.71,1.29,2,2.45,1.41,4.7-.95,3.64-1.88,7.28-2.71,10.95a4.74,4.74,0,0,0,.11,2.92c1.57,3,2.67,6.44,6.63,7.25a4.28,4.28,0,0,1,1,.44c3.28,1.61,5.47,4.45,7.81,7.07a31.08,31.08,0,0,0,6.5,6.1,8.7,8.7,0,0,1,3,3.38,14.12,14.12,0,0,1,1.51,6.22,17.26,17.26,0,0,0,1.12,5.79,8.78,8.78,0,0,1,0,6.55,11.34,11.34,0,0,0,.63,9.17,5.49,5.49,0,0,0,4.17,3.45,5.05,5.05,0,0,1,3.32,2.18c1.15,1.68,2.77,2.11,4.7,2.11q22.76,0,45.52,0c1.09,0,2.18,0,3.27,0,1.4-.09,1.71-.49,1.78-1.82,0-1,.27-1.93.31-2.9a8.65,8.65,0,0,0-.15-2.39c-.48-2-1.07-4-1.62-5.95-.84-3-1.18-6.09,0-9a29.25,29.25,0,0,0,2-13.23,7.12,7.12,0,0,1,2-5.69,5.56,5.56,0,0,0,1.66-3.88c-.08-2.59,1-4.7,2.08-6.87.53-1,.93-2.14,1.4-3.2a120.51,120.51,0,0,1,7.2-14.76,12.8,12.8,0,0,0,1.27-3.51,2.8,2.8,0,0,0-1.46-2.85c-1.11-.52-1.75.17-2.31.88a90,90,0,0,0-7.49,10.25c-2.07,3.55-5,6.42-8.18,9.65a10.65,10.65,0,0,1,.09-1.53,10.12,10.12,0,0,1,3.65-5.55,3.44,3.44,0,0,0,1.59-3.22,46.45,46.45,0,0,1-.44-5.37,2.36,2.36,0,0,0-1.32-2.42l-1.38-.78c0-1.74-.08-3.37,0-5a4,4,0,0,0-2.41-4.12c-.68-.35-1.68-.88-1.78-1.47-.47-2.68-2.16-3.52-4.59-3.62a11.18,11.18,0,0,1-1.53-.47,42.71,42.71,0,0,0-6.09-1,13.22,13.22,0,0,1-5.42-1.42,58.5,58.5,0,0,0-14-4.73c-2.44-.51-4.93-1.12-6.18-3.79a5,5,0,0,0-1.77-1.61A22.43,22.43,0,0,0,159.4,141.36Z" transform="translate(-5.5 -20)"/><path class="cls-2" d="M53.25,189.69c.29,5,.35,9.81.88,14.56a121.83,121.83,0,0,0,24.06,59.82,115.83,115.83,0,0,0,13.86,15.24A119,119,0,0,0,117.15,297a124.11,124.11,0,0,0,20.78,8.64,112.17,112.17,0,0,0,15.92,3.72c5.24.81,10.49,1.38,15.8,1.74,2.9.19,5.71-.32,8.58-.14a49.57,49.57,0,0,0,8.44-.17,132.11,132.11,0,0,0,31.08-6.92,117.85,117.85,0,0,0,30.55-16.25c3.82-2.84,7.59-1.37,9.76,1.25,1.67,2,1.47,7.08-1.2,9a151.12,151.12,0,0,1-16.64,10.49,131.72,131.72,0,0,1-25,10.29,129.51,129.51,0,0,1-15.66,3.7c-4.78.83-9.61,1.24-14.43,1.73a98.47,98.47,0,0,1-15.73.28A126.37,126.37,0,0,1,155.16,323c-4.85-.83-9.7-1.62-14.49-2.82A133.53,133.53,0,0,1,97.3,300.57a111,111,0,0,1-12.71-10.06c-2.31-2.17-4.71-4.25-6.91-6.52a133.77,133.77,0,0,1-14.2-17.38,127.36,127.36,0,0,1-10.92-19.17,128.71,128.71,0,0,1-9.5-28.95,103.5,103.5,0,0,1-2.21-14.88c-.14-2.94-.84-5.88-.84-8.82,0-5.87,0-11.78.55-17.62A137.69,137.69,0,0,1,51.31,135a129.58,129.58,0,0,1,13-23.2A119.43,119.43,0,0,1,76.07,97.35c2.77-2.85,5.57-5.68,8.48-8.37a113.17,113.17,0,0,1,19.28-14.3c4.18-2.46,8.45-4.79,12.81-6.88a111.59,111.59,0,0,1,22.15-8.06c4.61-1.1,9.22-2.16,13.85-3.14,1.76-.37,3.57-.45,5.36-.65,2.85-.3,5.71-.79,8.57-.84,5.27-.1,10.56-.72,15.82.21a4.38,4.38,0,0,0,.81,0,98.25,98.25,0,0,1,15,1.59A130.37,130.37,0,0,1,222.06,63a133.5,133.5,0,0,1,25.87,12.49,154.4,154.4,0,0,1,19,14.27c2.31,2,2.49,4.61,1.89,7.2-.52,2.28-2.2,3.66-4.66,4.31A6.18,6.18,0,0,1,258,99.72a117.75,117.75,0,0,0-24.49-17.18,124.71,124.71,0,0,0-22.82-9.26,174.87,174.87,0,0,0-19.4-4.15,75.39,75.39,0,0,0-7.54-.64c-2.25-.17-4.49-.42-6.74-.44s-4.39.22-6.59.34c-.63,0-1.27,0-1.9,0a107.18,107.18,0,0,0-21.83,3,114.59,114.59,0,0,0-16.15,4.86A121.32,121.32,0,0,0,109.6,86.79,130.12,130.12,0,0,0,93,99.36a118.93,118.93,0,0,0-23.65,29.35A121,121,0,0,0,55,169.48a89,89,0,0,0-1.12,9.9C53.79,182.89,53.47,186.39,53.25,189.69Z" transform="translate(-5.5 -20)"/><path class="cls-2" d="M310.4,189.8c0,1.72.07,3.45,0,5.17a150.22,150.22,0,0,1-2.61,22.15,131.24,131.24,0,0,1-8.55,27.56,120.24,120.24,0,0,1-14.54,25.14c-2.41,3.15-4.8,6.32-7.37,9.33-1.54,1.79-3.49,3.1-6.11,2.67-3-.5-5-2.06-5.83-5.17a6.31,6.31,0,0,1,1.59-6,125.33,125.33,0,0,0,11.51-15.32,134.69,134.69,0,0,0,9.13-17.66,115.24,115.24,0,0,0,6.66-20.61c.83-3.65,1.31-7.39,1.91-11.09a93.94,93.94,0,0,0,1-20.51c-.27-4.73-.63-9.46-1.33-14.18a155.69,155.69,0,0,0-3.56-16.5,96.44,96.44,0,0,0-3.37-9.87,9.06,9.06,0,0,1-.26-5.34,5.45,5.45,0,0,1,4.09-4c3.2-.77,6.67-.25,8.37,4a130.3,130.3,0,0,1,7,23.88,82.61,82.61,0,0,1,1.86,14.4c.05,4,.45,7.92.69,11.88Z" transform="translate(-5.5 -20)"/><path class="cls-3" d="M280.33,101.46c1.52,2.77,2.9,5.16,4.16,7.6a6.08,6.08,0,0,0,2.8,2.78c2.3,1.15,4.55,2.38,6.81,3.62a6.27,6.27,0,0,1,1.09,1,14.22,14.22,0,0,1-1.37,1c-2.18,1.22-4.34,2.46-6.56,3.6a6.06,6.06,0,0,0-2.78,2.79c-1.26,2.45-2.61,4.84-4,7.43-.53-.29-1.15-.41-1.37-.77a55.91,55.91,0,0,1-3-5.35,8.7,8.7,0,0,0-4.28-4.48c-2.24-1-4.36-2.35-6.81-3.69.26-.45.43-1.11.84-1.36,1.75-1,3.54-2,5.37-2.93a9.66,9.66,0,0,0,4.9-5,46.66,46.66,0,0,1,2.82-5.14C279.19,102.15,279.72,101.93,280.33,101.46Z" transform="translate(-5.5 -20)"/><path class="cls-4" d="M159.4,141.36a22.43,22.43,0,0,1,9.08,3.89,5,5,0,0,1,1.77,1.61c1.25,2.67,3.74,3.28,6.18,3.79a58.5,58.5,0,0,1,14,4.73,13.22,13.22,0,0,0,5.42,1.42,42.71,42.71,0,0,1,6.09,1,11.18,11.18,0,0,0,1.53.47c2.43.1,4.12.94,4.59,3.62.1.59,1.1,1.12,1.78,1.47a4,4,0,0,1,2.41,4.12c-.1,1.62,0,3.25,0,5l1.38.78a2.36,2.36,0,0,1,1.32,2.42,46.45,46.45,0,0,0,.44,5.37,3.44,3.44,0,0,1-1.59,3.22,10.12,10.12,0,0,0-3.65,5.55,10.65,10.65,0,0,0-.09,1.53c3.16-3.23,6.11-6.1,8.18-9.65a90,90,0,0,1,7.49-10.25c.56-.71,1.2-1.4,2.31-.88a2.8,2.8,0,0,1,1.46,2.85,12.8,12.8,0,0,1-1.27,3.51,120.51,120.51,0,0,0-7.2,14.76c-.47,1.06-.87,2.17-1.4,3.2-1.11,2.17-2.16,4.28-2.08,6.87a5.56,5.56,0,0,1-1.66,3.88,7.12,7.12,0,0,0-2,5.69,29.25,29.25,0,0,1-2,13.23c-1.17,2.91-.83,6,0,9,.55,2,1.14,3.95,1.62,5.95a8.65,8.65,0,0,1,.15,2.39c0,1-.26,1.93-.31,2.9-.07,1.33-.38,1.73-1.78,1.82-1.09.06-2.18,0-3.27,0q-22.77,0-45.52,0c-1.93,0-3.55-.43-4.7-2.11a5.05,5.05,0,0,0-3.32-2.18,5.49,5.49,0,0,1-4.17-3.45,11.34,11.34,0,0,1-.63-9.17,8.78,8.78,0,0,0,0-6.55,17.26,17.26,0,0,1-1.12-5.79,14.12,14.12,0,0,0-1.51-6.22,8.7,8.7,0,0,0-3-3.38,31.08,31.08,0,0,1-6.5-6.1c-2.34-2.62-4.53-5.46-7.81-7.07a4.28,4.28,0,0,0-1-.44c-4-.81-5.06-4.29-6.63-7.25a4.74,4.74,0,0,1-.11-2.92c.83-3.67,1.76-7.31,2.71-10.95.6-2.25.3-3.41-1.41-4.7-3.15-2.39-3.14-2.44-.66-5.66a9.28,9.28,0,0,0,1.46-2.26c.92-2.5,3-3.45,5.27-4.23.26-.08.56,0,.81-.11,1.75-.57,2.18-1.16,2.18-3.21,0-3.09,0-6.17-.08-9.25,0-.46,0-.91,0-1.37.09-1.51.44-2.09,2-2.45a22.47,22.47,0,0,1,5.81-.91,21.7,21.7,0,0,0,9.87-2.44,53,53,0,0,1,11.24-3.6c.44-.09.9-.08,1.35-.13.8-.09,1.58.11,1.75.91a3.6,3.6,0,0,1-.28,2,2.67,2.67,0,0,1-1.15,1.13A8.07,8.07,0,0,0,159.4,141.36Z" transform="translate(-5.5 -20)"/></svg>