<?xml version="1.0" encoding="utf-8"?>
<!-- Generator: Adobe Illustrator 24.0.1, SVG Export Plug-In . SVG Version: 6.00 Build 0)  -->
<svg version="1.1" id="Livello_1" xmlns="http://www.w3.org/2000/svg" xmlns:xlink="http://www.w3.org/1999/xlink" x="0px" y="0px"
	 viewBox="0 0 124 29" style="enable-background:new 0 0 124 29;" xml:space="preserve">
<style type="text/css">
	.st0{fill:#3E1B68;}
</style>
<title>color</title>
<g>
	<path class="st0" d="M20.6,0C16.7,0,13,1.5,10.2,4.3l-6.3,6.3l10.3,10.2c1.6,1.7,3.9,2.6,6.3,2.6c2.3,0,4.6-0.9,6.3-2.6l-2.4-2.4
		c-2.2,2.2-5.7,2.2-7.9,0l-7.9-7.9l4-3.9c4.4-4.4,11.5-4.4,15.9,0l10.3,10.3l2.4-2.4L30.9,4.2C28.2,1.5,24.5,0,20.6,0z"/>
	<path class="st0" d="M20.6,5.6c-2.4,0-4.7,0.9-6.2,2.6l2.4,2.4c2.2-2.2,5.7-2.2,7.9,0l7.9,7.9l-4,3.9c-4.4,4.4-11.5,4.4-15.9,0
		L2.4,12.1L0,14.5l10.3,10.3C13,27.5,16.7,29,20.6,29c3.9,0,7.6-1.5,10.3-4.2l6.3-6.3L26.9,8.2C25.3,6.5,23,5.6,20.6,5.6z"/>
	<path class="st0" d="M77.1,4.9v20.7h5.2v-8.1h10.4v-4.1H82.3V7.5h10.1c0.9,0,1.6-0.7,1.6-1.6V3.3H78.7C77.8,3.3,77.1,4,77.1,4.9z"
		/>
	<path class="st0" d="M120.7,3.3c-0.9,0-2,0.5-2.5,1.3l-7.8,12.2l-7.8-12.2C102,3.8,101,3.3,100,3.3h-3.3v22.3h5.2v-13l6,9.1h4.8
		l6-9.1v13.1h5.2V3.3H120.7z"/>
	<path class="st0" d="M64.1,3.4H61c-0.6,0-1.1,0.3-1.4,0.9L50,25.7h5.3l2-4.8h10.5l1.9,4.8h5.4L65.5,4.3C65.3,3.8,64.7,3.4,64.1,3.4
		z M59,17l3.6-8.6l3.5,8.6H59z"/>
</g>
</svg>
