<svg width="133" height="40" viewBox="0 0 133 40" fill="none" xmlns="http://www.w3.org/2000/svg">
<path d="M64.7701 32.654L62.9753 26.6341H53.9503L52.1554 32.654H46.5L55.2372 7.25948H61.6546L70.4256 32.654H64.7701ZM61.7223 22.1364L59.9274 16.2548C59.8146 15.8627 59.6622 15.3611 59.4703 14.7498C59.2897 14.1271 59.1034 13.4986 58.9115 12.8643C58.7309 12.2185 58.5841 11.6591 58.4713 11.1863C58.3584 11.6591 58.2003 12.2473 57.9971 12.9508C57.8052 13.6427 57.619 14.3001 57.4384 14.9228C57.2578 15.5456 57.1279 15.9896 57.0489 16.2548L55.271 22.1364H61.7223Z" fill="white"/>
<path d="M78.7225 32.654H73.5581V7.36327H87.7475V11.7572H78.7225V18.2788H87.121V22.6554H78.7225V32.654Z" fill="white"/>
<path d="M107.203 25.6307C107.203 27.13 106.847 28.4331 106.136 29.5403C105.425 30.6474 104.386 31.5008 103.021 32.1005C101.666 32.7002 100.018 33 98.0763 33C97.2184 33 96.3774 32.9423 95.5534 32.827C94.7406 32.7117 93.9561 32.5445 93.1997 32.3254C92.4547 32.0947 91.7436 31.8122 91.0663 31.4777V26.4957C92.2402 27.0262 93.4594 27.5048 94.7237 27.9315C95.988 28.3582 97.241 28.5715 98.4827 28.5715C99.3406 28.5715 100.029 28.4562 100.548 28.2255C101.079 27.9949 101.463 27.6778 101.7 27.2741C101.937 26.8705 102.055 26.4092 102.055 25.8902C102.055 25.2559 101.847 24.7139 101.429 24.2641C101.011 23.8144 100.436 23.3934 99.7018 23.0013C98.9794 22.6092 98.161 22.1883 97.2466 21.7385C96.6709 21.4617 96.0444 21.1273 95.3671 20.7352C94.6898 20.3316 94.0464 19.8414 93.4368 19.2648C92.8272 18.6882 92.3249 17.9905 91.9298 17.1717C91.546 16.3413 91.3541 15.3495 91.3541 14.1963C91.3541 12.6855 91.6927 11.3939 92.37 10.3214C93.0473 9.24884 94.0125 8.43003 95.2655 7.86494C96.5298 7.28831 98.0199 7 99.7357 7C101.023 7 102.247 7.15569 103.41 7.46707C104.584 7.76691 105.809 8.20514 107.084 8.78177L105.391 12.9508C104.251 12.4779 103.229 12.1147 102.326 11.8609C101.423 11.5957 100.503 11.4631 99.5664 11.4631C98.9116 11.4631 98.3529 11.5726 97.89 11.7917C97.4272 11.9993 97.0773 12.2992 96.8402 12.6913C96.6032 13.0719 96.4846 13.5159 96.4846 14.0233C96.4846 14.623 96.654 15.1304 96.9926 15.5456C97.3426 15.9492 97.8618 16.3413 98.5504 16.7219C99.2503 17.1025 100.119 17.5465 101.158 18.0539C102.422 18.6651 103.5 19.3052 104.392 19.9741C105.295 20.6314 105.989 21.4098 106.475 22.3094C106.96 23.1974 107.203 24.3045 107.203 25.6307Z" fill="white"/>
<path d="M126.845 32.654L125.05 26.6341H116.025L114.23 32.654H108.574L117.312 7.25948H123.729L132.5 32.654H126.845ZM123.797 22.1364L122.002 16.2548C121.889 15.8627 121.737 15.3611 121.545 14.7498C121.364 14.1271 121.178 13.4986 120.986 12.8643C120.805 12.2185 120.659 11.6591 120.546 11.1863C120.433 11.6591 120.275 12.2473 120.072 12.9508C119.88 13.6427 119.693 14.3001 119.513 14.9228C119.332 15.5456 119.202 15.9896 119.123 16.2548L117.345 22.1364H123.797Z" fill="white"/>
<path fill-rule="evenodd" clip-rule="evenodd" d="M18.8581 0.0375998C18.724 0.056757 18.2355 0.123535 17.7564 0.180797C17.287 0.238069 16.3961 0.409864 15.7927 0.562567C11.4435 1.62202 7.68829 3.87454 4.9006 7.09107C2.20871 10.1932 0.647246 13.7246 0.129964 17.8287C-0.454416 22.5915 0.95378 27.7648 3.9139 31.6876C7.31467 36.1926 12.1908 39.0177 17.948 39.8387C19.3371 40.0295 22.0578 40.0582 23.3606 39.8863C27.1445 39.39 30.5932 38.0347 33.4576 35.9254C34.2718 35.324 35.6225 34.1692 35.6225 34.0737C35.6225 34.0069 30.689 29.2632 29.9514 28.6238L29.6066 28.3183L28.754 28.996C26.4836 30.8094 24.0503 31.7161 21.1573 31.8307C18.839 31.9166 17.0093 31.5253 14.9784 30.5231C9.47964 27.8125 6.8644 21.7611 8.75156 16.1393C9.77657 13.1042 11.8554 10.6893 14.7389 9.20044C16.6548 8.21736 18.4461 7.78783 20.6783 7.79741C24.0694 7.79741 26.7996 8.85679 29.4053 11.1666L30.325 11.9875L33.1893 9.2195C34.7604 7.69239 36.0631 6.41339 36.0823 6.37521C36.1206 6.27026 34.4826 4.82904 33.4766 4.0941C30.7369 2.08014 27.7097 0.810719 24.2228 0.209395C23.3606 0.0661986 19.4521 -0.0674213 18.8581 0.0375998ZM22.7666 2.56694C24.9029 2.796 27.0966 3.41642 28.9647 4.31357C29.9705 4.80037 32.2792 6.25117 32.423 6.48975C32.4612 6.55659 32.0397 7.0338 31.3788 7.68281L30.2675 8.77095L29.6831 8.3414C26.8188 6.23208 22.9104 5.17263 19.3371 5.51622C18.6761 5.57349 18.1013 5.63076 18.0535 5.64027C17.948 5.65942 17.2105 3.04415 17.2679 2.88187C17.3062 2.78642 17.8331 2.69098 19.1934 2.52876C19.8448 2.44283 21.8948 2.47149 22.7666 2.56694ZM15.237 4.80994C15.4382 5.57349 15.5819 6.24166 15.5531 6.27984C15.5244 6.32753 15.3424 6.41346 15.1413 6.48023C14.9497 6.5375 14.3365 6.82382 13.7809 7.10065C9.66172 9.18137 6.91233 12.7033 6.03096 17.0366C5.91608 17.5615 5.82984 18.1342 5.82984 18.2965V18.5924H4.24921C3.14756 18.5924 2.66858 18.5638 2.66858 18.4874C2.66858 18.0578 3.01344 16.2254 3.25289 15.3758C4.51743 10.8994 7.61165 7.08156 11.9129 4.70492C12.4685 4.39951 14.6718 3.426 14.8346 3.41642C14.8634 3.41642 15.0453 4.04634 15.237 4.80994ZM5.85854 21.6276C6.03096 23.2216 6.7686 25.369 7.64036 26.858C9.26895 29.6164 12.0566 32.0026 14.8634 33.0524C15.1125 33.1479 15.3137 33.2337 15.3137 33.2529C15.3137 33.272 15.17 33.816 14.9879 34.465C14.806 35.1045 14.6144 35.8108 14.5569 36.0304L14.4515 36.4217L13.848 36.1831C12.3344 35.5818 10.7634 34.6751 9.32642 33.5965C8.5025 32.976 6.82608 31.2771 6.14592 30.3799C4.20128 27.8125 2.9272 24.5769 2.69729 21.6371L2.63981 20.8736L5.78191 20.9309L5.85854 21.6276ZM30.6795 32.6325C31.3405 33.272 31.8865 33.8255 31.8865 33.8638C31.8865 34.0069 30.0471 35.1237 28.888 35.6772C27.4511 36.374 26.1004 36.8225 24.4622 37.1757C23.303 37.4144 23.054 37.4334 20.9178 37.4429C19.0689 37.4429 18.4366 37.4048 17.6799 37.2711C16.9038 37.1184 16.7506 37.0611 16.7889 36.9372C16.8176 36.8416 17.0189 36.1354 17.2296 35.3432C17.4499 34.5604 17.632 33.9019 17.6415 33.8924C17.6607 33.8828 17.8619 33.921 18.0917 33.9878C18.36 34.0546 19.3563 34.0928 20.6783 34.0928C22.5464 34.0928 22.9582 34.0642 23.7725 33.8828C25.631 33.4724 27.6906 32.6421 28.8689 31.8308C29.1372 31.6493 29.3766 31.4966 29.4149 31.4871C29.4437 31.4776 30.0184 31.9931 30.6795 32.6325Z" fill="#87105A"/>
<path fill-rule="evenodd" clip-rule="evenodd" d="M19.6909 12.2067C16.4625 12.5789 13.7515 14.9365 12.9659 18.0671C12.7456 18.9261 12.7456 20.5105 12.9563 21.3791C13.9622 25.5692 18.3305 28.1653 22.5935 27.1154C27.4503 25.9128 29.9123 20.835 27.7761 16.4541C26.6361 14.1251 24.3178 12.5408 21.5398 12.1972C20.6584 12.0922 20.6393 12.0922 19.6909 12.2067ZM22.0667 14.5355C24.0017 15.0415 25.6015 16.6068 26.0901 18.4679C26.2721 19.1456 26.2721 20.3864 26.0997 21.0355C25.6111 22.8872 24.0209 24.4524 22.1433 24.9392C21.4344 25.1206 19.9208 25.1206 19.2023 24.9392C17.3535 24.462 15.792 22.9444 15.2651 21.1309C15.016 20.2719 15.1022 18.6589 15.4471 17.8284C16.0985 16.244 17.5259 15.0033 19.2406 14.5451C19.94 14.3542 21.3578 14.3542 22.0667 14.5355Z" fill="#87105A"/>
</svg>
