<svg width="334" height="103" viewBox="0 0 334 103" fill="none" xmlns="http://www.w3.org/2000/svg">
<path d="M308.366 75.1902H307.511V79.8705H308.366V75.1902Z" fill="black"/>
<path fill-rule="evenodd" clip-rule="evenodd" d="M295.046 15.974C295.989 16.9588 295.958 18.5292 294.968 19.4725C294.859 19.5762 294.74 19.6695 294.616 19.7524C294.367 19.9338 294.279 19.7524 294.212 20.2915H296.575L297.7 18.8091V16.5389L303.235 16.2902C303.619 16.4923 306.495 18.0472 305.034 19.4155C304.448 19.9546 304.246 19.9546 304.158 20.4055H306.563L307.573 18.156C307.428 18.1457 307.314 18.0317 307.304 17.8865V16.1761C307.304 16.0206 307.304 15.7511 307.573 15.7252C307.843 15.7045 306.044 10.8221 302.51 10.7961H301.406C299.949 11.4129 298.285 11.3196 296.907 10.5474C294.771 10.7028 294.025 10.8376 293.714 10.3452C293.227 10.537 292.703 10.6147 292.185 10.5681C291.869 10.8583 291.936 10.9516 290.34 10.9516C290.231 11.2315 290.298 11.5529 290.521 11.7602C290.703 12.009 294.885 15.8548 295.02 16.1036" fill="black"/>
<path fill-rule="evenodd" clip-rule="evenodd" d="M303.256 77.0092C303.256 75.7497 302.764 75.0759 301.478 75.0759C300.96 75.0863 300.452 75.2418 300.017 75.5268V76.268C300.379 75.9674 300.83 75.8016 301.297 75.7964C302.131 75.7964 302.401 76.2006 302.401 77.0092H301.546C300.711 77.0092 299.498 77.3927 299.498 78.5382C299.498 79.6836 300.151 79.9998 301.095 79.9998C301.649 80.0102 302.178 79.7407 302.489 79.2794V79.8858H303.256C303.235 79.5852 303.235 79.2846 303.256 78.9839V77.0092ZM302.427 78.0458C302.489 78.6781 302.033 79.2379 301.4 79.3001C301.338 79.3053 301.276 79.3053 301.214 79.3053C300.768 79.3157 300.395 78.9632 300.379 78.5175C300.379 77.683 301.483 77.6415 301.934 77.6415H302.427V78.0458Z" fill="black"/>
<path fill-rule="evenodd" clip-rule="evenodd" d="M278.647 30.7971L284.944 25.2409H291.895L292.19 24.5671H284.291L278.647 28.6825V30.7971Z" fill="black"/>
<path fill-rule="evenodd" clip-rule="evenodd" d="M305.168 75.9983V75.2312H304.334V79.8648H305.168V77.8175C305.168 76.6462 305.687 75.905 306.448 75.905H306.806V75.1638H306.355C305.832 75.2001 305.365 75.5214 305.142 75.9983" fill="black"/>
<path fill-rule="evenodd" clip-rule="evenodd" d="M300.11 19.5707C299.814 19.6847 299.628 19.975 299.638 20.2911H301.888C302.105 19.8506 302.463 19.4981 302.898 19.2804C303.131 18.4926 303.541 17.7722 304.09 17.1658C303.759 16.9118 303.406 16.6941 303.033 16.5127H301.478C301.478 17.2798 301.478 19.0109 300.016 19.5292" fill="black"/>
<path fill-rule="evenodd" clip-rule="evenodd" d="M307.957 73.5212C307.667 73.4591 307.382 73.6508 307.32 73.9411C307.257 74.2313 307.449 74.5164 307.739 74.5786C307.812 74.5941 307.885 74.5941 307.957 74.5786C308.242 74.5682 308.465 74.3246 308.455 74.0396C308.455 73.7649 308.237 73.5368 307.957 73.5212Z" fill="black"/>
<path fill-rule="evenodd" clip-rule="evenodd" d="M266.788 41.0598V46.7767C266.788 47.6111 265.731 48.1502 265.731 48.1502V55.9558C266.156 55.9558 266.182 56.2927 266.182 56.2927V57.6662H266.539V49.7673L270.587 45.2684C270.587 45.2684 270.587 44.9989 270.587 41.2619C270.292 39.5101 270.971 37.7323 272.365 36.6283L276.076 33.1868L276.569 32.7151L276.926 33.1868L280.705 38.6549L282.664 42.9309C282.861 42.9464 283.032 43.0656 283.115 43.247L283.856 44.662H284.224L283.483 42.9309L281.435 38.2039C281.435 38.2039 279.792 35.1874 278.823 33.1868C278.305 32.2175 277.947 31.4971 277.947 31.4971L278.238 31.2068V28.9574C278.346 28.1696 278.165 27.3662 277.719 26.708H278.103C277.885 26.3555 277.647 26.0186 277.382 25.6973L277.766 25.4277C277.408 25.179 274.345 23.1783 274.257 21.7167C274.241 21.271 274.475 20.8563 274.863 20.6386C274.998 20.7941 275.314 21.271 275.651 21.7167C275.988 22.1676 276.641 22.774 277.092 22.774V20.5194H279.342L279.678 19.799H278.668C278.476 19.8508 278.279 19.7316 278.227 19.5398C278.175 19.3481 278.295 19.1511 278.486 19.0993C278.543 19.0837 278.606 19.0837 278.663 19.0993H279.989L280.394 18.2233L279.694 17.3008C278.937 17.2593 278.186 17.1712 277.445 17.0312C275.848 16.7151 276.252 15.3208 277.445 15.1653C278.165 15.1653 278.839 15.1653 279.849 14.9425C281.985 14.5175 282.529 12.693 281.783 10.4436C281.783 10.2207 281.358 10.086 281.062 10.4436C281.197 10.9153 281.285 11.3973 281.332 11.8845C281.275 12.1644 281 12.3406 280.72 12.2836C280.518 12.2421 280.363 12.0866 280.321 11.8845L280.072 10.7131C280.072 10.2415 279.601 10.1067 279.285 10.4902C279.31 10.5784 279.31 10.6717 279.285 10.7598L279.487 11.8171C279.601 12.4494 278.631 12.6049 278.476 11.8171L278.227 10.625C278.227 10.1533 277.756 9.97194 277.393 10.4021C277.419 10.4902 277.419 10.5835 277.393 10.6717C277.465 10.9308 277.527 11.1951 277.574 11.4595C277.73 12.5635 275.884 12.5635 275.978 11.4595C276.004 11.19 276.055 10.9256 276.133 10.6717C276.107 10.5835 276.107 10.4902 276.133 10.4021C275.776 9.97713 275.413 10.1533 275.299 10.625L275.117 11.5942C275.107 11.7964 275.143 11.9985 275.231 12.1799C275.345 12.4287 275.998 12.9677 276.087 13.3513C276.201 14.2013 275.599 14.9788 274.749 15.0928C274.692 15.098 274.635 15.1031 274.578 15.1083C273.733 15.1187 273.039 14.4449 273.029 13.6001C273.023 13.3409 273.086 13.0869 273.21 12.8589C273.391 12.6723 273.562 12.4753 273.728 12.2732C273.759 12.1333 273.759 11.9881 273.728 11.8482L273.48 10.6561C273.48 10.1844 273.055 10.0497 272.692 10.4332C272.718 10.5213 272.718 10.6146 272.692 10.7028L272.894 11.7601C273.008 12.3924 272.039 12.5479 271.883 11.7601L271.634 10.568C271.634 10.0963 271.163 9.91493 270.8 10.3451C270.8 10.5006 270.8 10.568 270.935 10.6146L271.251 12.1903C271.432 13.0455 270.105 13.315 269.857 12.3043L269.499 10.5473C269.499 10.0963 269.027 9.91493 268.711 10.3244C268.722 10.4073 268.722 10.4902 268.711 10.5732L268.934 11.6772C269.048 12.2836 268.058 12.4183 267.923 11.6772L267.675 10.4851C267.675 10.0134 267.203 9.85273 266.84 10.2622C266.866 10.3451 266.866 10.428 266.84 10.511L267.089 11.589C267.203 12.1747 266.166 12.3302 265.985 11.589C265.933 11.0915 265.819 10.5991 265.648 10.1274C265.446 9.9253 265.062 9.9253 264.974 10.1274C265.047 10.6146 265.047 11.107 264.974 11.589C264.917 11.843 264.917 12.1022 264.974 12.3561C265.259 13.7245 266.503 14.6781 267.897 14.6056C269.157 14.6056 270.463 14.787 271.769 14.8284C272.277 14.8284 272.692 15.2431 272.692 15.751C272.692 16.259 272.277 16.6736 271.769 16.6736H269.675L270.733 18.1352C269.82 19.1874 268.97 20.2914 268.188 21.442C267.726 22.1313 267.379 22.8932 267.151 23.6914H267.69C267.369 24.0802 267.187 24.5622 267.172 25.0649H267.623C267.4 25.547 267.27 26.0653 267.239 26.5939C267.664 26.5058 268.084 26.7753 268.172 27.2003C268.177 27.2211 268.182 27.247 268.182 27.2677V29.1129C268.048 29.5172 267.307 31.2483 266.674 32.8706C266.291 33.7724 265.954 34.6691 265.752 35.12C265.27 36.649 265.042 38.2454 265.078 39.8469C266.203 39.8469 266.203 40.7022 266.203 40.7022" fill="black"/>
<path fill-rule="evenodd" clip-rule="evenodd" d="M273.671 48.7718L277.517 55.9503C277.719 55.971 277.89 56.1006 277.968 56.2872L278.776 57.6814H279.248L278.326 55.9503L275.335 50.2801L276.957 43.397L272.572 36.7834C271.292 37.96 270.681 39.6963 270.929 41.4171L274.215 46.0974V48.1913C274.215 48.6422 273.65 48.7096 273.65 48.7096" fill="black"/>
<path fill-rule="evenodd" clip-rule="evenodd" d="M287.961 73.3655C286.136 73.578 284.825 75.2314 285.037 77.061C285.219 78.5952 286.427 79.8028 287.961 79.9842C289.578 79.9998 290.894 78.6988 290.91 77.0869C290.91 76.9521 290.905 76.8122 290.884 76.6774C291.071 75.05 289.899 73.578 288.272 73.3914C288.168 73.3707 288.064 73.3655 287.961 73.3655ZM287.961 79.1705C286.546 79.1705 285.96 77.9576 285.96 76.6723C285.96 75.3869 286.613 74.1533 287.961 74.174C289.308 74.1948 289.961 75.3661 289.961 76.6723C289.961 77.9784 289.355 79.1705 287.961 79.1705Z" fill="black"/>
<path fill-rule="evenodd" clip-rule="evenodd" d="M294.056 75.0292C293.444 75.0085 292.88 75.3454 292.594 75.8844V75.1433H291.786V79.8235H292.594V77.6881C292.594 76.5168 293.045 75.7548 293.942 75.7548C294.839 75.7548 294.911 76.3198 294.911 77.4186V79.8235H295.72V77.0558C295.72 75.7963 295.201 75.0292 294.056 75.0292Z" fill="black"/>
<path fill-rule="evenodd" clip-rule="evenodd" d="M285.032 64.9484L289.962 69.8567V63.7148H285.032V64.9484Z" fill="black"/>
<path fill-rule="evenodd" clip-rule="evenodd" d="M297.72 78.4711V75.9055H298.913V75.185H297.72V73.8115L296.865 74.1277V75.185L296.145 75.9055H296.865V78.6058C296.782 79.2848 297.264 79.9016 297.943 79.9845C298.057 80.0001 298.171 79.9949 298.28 79.9793C298.524 79.969 298.767 79.9327 299.001 79.8653V79.1449C298.83 79.2433 298.638 79.2952 298.436 79.3004C298.016 79.2796 297.689 78.9168 297.715 78.497C297.72 78.4918 297.72 78.4814 297.72 78.4711Z" fill="black"/>
<path fill-rule="evenodd" clip-rule="evenodd" d="M305.06 48.1244L305.236 48.0104L303.484 47.0412L303.889 46.8183L303.101 45.5795L302.717 45.5588L301.572 45.4914V45.9424L299.747 44.9524V51.1357L299.908 51.0476L305.06 48.1244Z" fill="black"/>
<path fill-rule="evenodd" clip-rule="evenodd" d="M297.275 45.5122L296.036 45.5588L295.834 45.5795L295.025 46.8183L295.404 47.0412L293.626 48.0778L293.74 48.1451L298.918 51.0476L299.073 51.1357V44.9524L297.275 45.9631V45.5122Z" fill="black"/>
<path fill-rule="evenodd" clip-rule="evenodd" d="M306.879 25.2409H313.829L320.179 30.8231V28.6825L314.482 24.5671H306.609L306.879 25.2409Z" fill="black"/>
<path fill-rule="evenodd" clip-rule="evenodd" d="M333.022 15.1184H330.436C329.917 15.1184 329.896 14.6675 329.964 14.5794L333.089 13.6361C333.54 13.4806 333.654 13.0971 333.224 12.7602C333.157 12.8431 333.058 12.8897 332.954 12.8949L330.705 13.5687C330.254 13.6827 330.166 13.2111 330.166 13.1178C330.176 13.0711 330.176 13.0297 330.166 12.983L332.415 11.5214C332.82 11.2519 332.82 10.8217 332.415 10.6662C332.301 10.801 332.213 10.8217 332.213 10.8684L330.752 11.8376C330.596 12.0449 330.296 12.0864 330.088 11.9309C329.881 11.7754 329.839 11.4748 329.995 11.2674C330.036 11.2156 330.083 11.1741 330.14 11.1379L330.679 10.5315C330.995 10.1738 330.881 9.76436 330.363 9.7229C330.363 9.92504 330.228 9.97168 330.182 9.97168L329.71 10.5107C329.529 10.6921 329.326 10.6921 329.218 10.5107L328.476 9.94577C328.476 9.94577 328.476 9.94577 328.295 9.76437C327.756 9.87839 327.73 10.2568 328.114 10.5988L328.564 10.9565C329.824 11.9101 330.068 13.7035 329.114 14.9578C329.052 15.0355 328.989 15.1133 328.922 15.1858C328.419 15.6938 327.725 15.9736 327.01 15.9529C327.155 15.6886 327.248 15.3983 327.279 15.0977L328.425 14.2892C328.829 14.0404 328.829 13.6154 328.31 13.4339C328.31 13.5894 328.108 13.6154 328.108 13.6361L327.476 14.087C327.072 14.3565 326.486 13.7968 326.823 13.4132L327.632 12.444C327.922 12.1071 327.834 11.6769 327.295 11.6562C327.284 11.7443 327.232 11.8272 327.16 11.879L326.237 12.9571C325.812 13.4495 324.978 13.2266 325.247 12.6202L325.88 11.226C326.061 10.8217 325.88 10.4589 325.341 10.5729C325.367 10.661 325.367 10.7543 325.341 10.8424L324.667 12.3248C324.574 12.5166 324.351 12.6098 324.149 12.5269L323.744 12.3714L323.926 10.547C323.926 10.0753 323.677 9.75918 323.226 10.0753C323.252 10.1635 323.252 10.2568 323.226 10.3449L323.091 11.651C323.091 11.8739 322.417 11.8324 322.371 11.7857C322.153 11.7132 321.966 11.5629 321.852 11.3607L321.63 10.3708C321.516 9.91986 321.111 9.76437 320.795 10.1894C320.837 10.2775 320.878 10.3656 320.909 10.4589L321.199 11.6717C321.422 12.3041 322.257 12.5269 323.449 13.0193L325.968 14.1648C326.455 14.3513 326.704 14.8956 326.517 15.3828C326.393 15.7145 326.092 15.9477 325.745 15.9892C324.843 15.9892 324.708 15.02 324.755 14.6157C324.351 14.6157 323.698 14.8852 324.304 15.9892C323.92 15.9892 323.267 15.6523 323.335 14.6157C323.096 14.569 322.853 14.6779 322.728 14.8852C322.594 15.0873 322.324 16.7511 324.978 16.7511L324.257 17.4042L321.267 17.6529V17.9691L321.671 18.871H322.749C322.946 18.871 323.107 19.0316 323.107 19.2286C323.107 19.4255 322.946 19.5862 322.749 19.5862H322.008L322.277 20.2859H324.527C325.113 19.7002 325.988 19.8143 326.103 20.6021C326.082 22.2192 324.755 23.5098 323.138 23.4838C323.096 23.4838 323.06 23.4839 323.019 23.4787C323.153 23.6497 323.314 23.8 323.49 23.9296C323.096 24.1887 322.661 24.3857 322.21 24.5153L322.614 24.9662C322.277 25.2357 321.899 25.4482 321.49 25.5985C321.562 25.7281 321.666 25.8421 321.78 25.9354C320.977 26.744 320.608 27.8894 320.79 29.0193V31.2688L321.08 31.559L317.592 38.3073L315.545 43.0343L314.778 44.7654H315.114L315.902 43.3504C315.964 43.1742 316.12 43.0498 316.307 43.0343L318.307 38.7582L322.402 32.7718L326.543 36.5969C327.486 37.4055 328.502 38.0585 328.502 41.3653V45.3718L332.55 49.8707V57.7696H332.908V56.3961C332.934 56.194 333.11 56.0437 333.312 56.0592V48.2536C333.312 48.2536 332.301 47.6212 332.301 47.0407V41.0543C332.301 41.0543 332.301 40.1991 333.426 40.1991C333.426 37.9497 333.426 36.9805 330.342 32.9118C326.833 28.4129 327.595 28.7965 329.083 22.4265C329.544 21.2085 329.601 19.8765 329.238 18.6222L330.451 17.2279H328.202L327.637 16.5282C328.186 16.4038 328.704 16.1602 329.145 15.8078H333.084C333.556 15.8078 333.784 15.4916 333.468 15.0407C333.379 15.0614 333.286 15.0614 333.198 15.0407" fill="black"/>
<path fill-rule="evenodd" clip-rule="evenodd" d="M319.525 57.6817H320.09L320.899 56.2875C320.899 56.2875 321.013 55.9506 321.303 55.9506L325.175 48.7721C325.175 48.7721 324.589 48.7721 324.589 48.2538V46.1858L327.849 41.5055C328.062 39.7795 327.455 38.0588 326.206 36.8459L321.863 43.5269L323.392 50.4099L320.468 56.0594L319.525 57.6817Z" fill="black"/>
<path fill-rule="evenodd" clip-rule="evenodd" d="M285.032 45.7816V48.3006C285.172 51.2549 286.572 54.0071 288.878 55.8574C291.625 57.884 299.384 62.1807 299.384 62.1807C299.384 62.1807 307.19 57.884 309.911 55.8574C312.228 54.0123 313.632 51.2549 313.757 48.3006V25.5315H285.027V45.7816H285.032ZM300.649 25.915H313.404V29.3099H300.669L300.649 25.915ZM300.649 31.9222H313.404V35.3171H300.669L300.649 31.9222ZM299.389 37.7738L300.265 39.0799L300.649 38.8571V41.4693L302.898 40.1632V40.6141L304.453 40.7281L303.733 42.1017L304.116 42.3245L301.867 43.6047H301.981L302.748 44.0557L302.364 44.2578L303.199 45.4965H303.38H304.66V45.0249L305.562 45.4965V42.9102L305.946 43.1331L306.78 41.827L307.635 43.1331L308.019 42.9102V45.792L310.268 44.4858V44.9368L311.844 45.0715L311.124 46.4191L311.507 46.6679L309.258 47.9066L311.507 49.1661L311.124 49.389L311.797 50.7832H310.222V51.2342L307.972 49.928V51.032L307.589 50.7832L306.734 52.0894L305.858 50.7832L305.5 50.9854V48.9588L299.633 52.2397V57.9566H298.959V52.307L293.221 49.0676V51.0942L292.864 50.8713L292.009 52.1982L291.133 50.918L290.749 51.1201V50.0421L288.5 51.3482V50.9232H286.924L287.624 49.5289L287.24 49.2801L289.49 48.0207L287.24 46.7819L287.624 46.5591L286.903 45.1648H288.479V44.7139L290.728 45.9941V43.3611L291.112 43.584L291.967 42.3038L292.802 43.584L293.185 43.3611V45.792L294.061 45.2996V45.792H295.321H295.523L296.29 44.5791L295.906 44.3563L296.673 43.9313H296.808L294.559 42.6511L294.942 42.4023L294.243 41.0288L295.772 40.9147V40.4638L298.021 41.744V39.1318L298.405 39.3546L299.389 37.7738ZM285.395 25.915H298.176V29.3099H285.395V25.915ZM285.395 31.9222H298.176V35.3171H285.395V31.9222Z" fill="black"/>
<path fill-rule="evenodd" clip-rule="evenodd" d="M291.335 21.0325C290.827 21.0325 290.412 21.4471 290.412 21.955C290.422 22.4578 290.832 22.8673 291.335 22.8776H307.288C307.791 22.8673 308.19 22.4578 308.19 21.955C308.2 21.4575 307.812 21.0428 307.314 21.0325C307.309 21.0325 307.298 21.0325 307.293 21.0325H291.335ZM291.335 22.52C291.019 22.52 290.759 22.2712 290.749 21.955C290.749 21.6337 291.013 21.3694 291.335 21.3694H292.957L293.449 22.5148H291.335V22.52ZM296.507 22.52L295.968 21.3745H298.783L299.301 22.52H296.507ZM302.245 22.52L301.706 21.3745H304.608L305.127 22.52H302.245Z" fill="black"/>
<path fill-rule="evenodd" clip-rule="evenodd" d="M292.771 19.1872L292.885 17.342L295.134 16.7771C295.03 16.5387 294.875 16.3262 294.683 16.1448C294.683 16.1448 294.118 15.5798 293.47 14.9734L291.221 16.4143V17.9225C291.221 18.1247 291.221 19.296 292.75 19.182" fill="black"/>
<path fill-rule="evenodd" clip-rule="evenodd" d="M313.742 63.7148H308.812V69.8567L313.742 64.9484V63.7148Z" fill="black"/>
<path fill-rule="evenodd" clip-rule="evenodd" d="M311.559 75.0291C310.315 75.0239 309.304 76.0242 309.299 77.2681C309.299 77.3459 309.305 77.4236 309.31 77.5066C309.31 78.7505 310.315 79.756 311.559 79.756C312.803 79.756 313.809 78.7505 313.809 77.5066C313.933 76.2678 313.031 75.169 311.798 75.0446C311.715 75.0343 311.637 75.0291 311.559 75.0291ZM311.559 79.2584C310.569 79.2584 310.165 78.3359 310.165 77.5014C310.165 76.6669 310.657 75.7443 311.559 75.7443C312.461 75.7443 312.933 76.5995 312.933 77.5014C312.933 78.4032 312.502 79.2584 311.559 79.2584Z" fill="black"/>
<path fill-rule="evenodd" clip-rule="evenodd" d="M290.299 65.3784H308.522V70.0794H290.299V65.3784ZM294.372 68.7733H294.642V67.7367H295.451V67.5138H294.642V66.8141H295.497V66.5653H294.372V68.7733ZM296.015 66.5239H296.285V68.7733H296.015V66.5239ZM296.959 66.5239H297.544C298.218 66.5239 298.312 67.0163 298.312 67.6279C298.312 68.2395 298.177 68.7318 297.57 68.7318H296.964L296.959 66.5239ZM297.228 68.5038H297.498C297.969 68.5038 298.016 68.0321 298.016 67.6279C298.016 67.2236 298.016 66.7519 297.498 66.7519H297.228V68.5038ZM298.918 68.7318H300.089V68.483H299.187V67.6952H299.996V67.4724H299.187V66.7726H300.043V66.5239H298.918V68.7318ZM300.623 66.4824H300.893V68.4416H301.795V68.6904H300.67L300.623 66.4824ZM302.266 68.7318H302.536V66.4824H302.266V68.7318ZM304.381 67.1095C304.422 66.8141 304.215 66.5446 303.92 66.5031C303.873 66.498 303.821 66.498 303.774 66.5031C303.21 66.5031 303.121 66.8867 303.121 67.0888C303.121 67.8974 304.158 67.5397 304.158 68.1669C304.168 68.3638 304.018 68.5349 303.821 68.5504C303.806 68.5504 303.79 68.5504 303.774 68.5504C303.391 68.5504 303.37 68.2809 303.37 68.0321H303.101C303.101 68.5038 303.256 68.7733 303.774 68.7733C304.122 68.7992 304.422 68.5349 304.448 68.1928C304.448 68.1721 304.448 68.1462 304.448 68.1254C304.448 67.3169 303.412 67.6745 303.412 67.0681C303.396 66.897 303.526 66.7416 303.702 66.726C303.728 66.726 303.749 66.726 303.774 66.726C304.044 66.726 304.111 66.8608 304.111 67.1095H304.381Z" fill="black"/>
<path fill-rule="evenodd" clip-rule="evenodd" d="M313.425 58.7185H333.064V63.4195H309.014L313.425 58.7185ZM314.306 60.4496C314.348 60.1542 314.14 59.8847 313.845 59.8432C313.798 59.838 313.747 59.838 313.7 59.8432C313.394 59.8069 313.109 60.0246 313.073 60.3356C313.068 60.3667 313.068 60.3978 313.068 60.4289C313.068 61.2167 314.078 60.8798 314.078 61.4862C314.089 61.6832 313.938 61.8542 313.741 61.8698C313.731 61.8698 313.726 61.8698 313.721 61.8698C313.316 61.8698 313.316 61.6003 313.316 61.3515H313.047C313.047 61.8231 313.202 62.0719 313.7 62.0719C314.021 62.1082 314.311 61.8802 314.348 61.5588C314.353 61.5173 314.353 61.4811 314.348 61.4396C314.348 60.6518 313.337 61.0146 313.337 60.403C313.321 60.232 313.451 60.0765 313.627 60.0609C313.653 60.0609 313.674 60.0609 313.7 60.0609C313.949 60.0609 314.037 60.2164 314.037 60.4445H314.306V60.4496ZM314.913 62.0253H315.182V59.8899H314.913V62.0253ZM316.846 61.3048C316.846 61.5536 316.846 61.8698 316.462 61.8698C316.079 61.8698 316.058 61.4655 316.058 60.9679C316.058 60.4704 316.058 60.0661 316.462 60.0661C316.867 60.0661 316.82 60.2682 316.82 60.517H317.09C317.09 60.092 316.908 59.8432 316.457 59.8432C316.006 59.8432 315.783 60.4289 315.783 60.9679C315.783 61.507 315.783 62.0719 316.457 62.0719C317.131 62.0719 317.09 61.7143 317.11 61.3048H316.846ZM318.152 59.8899H318.67C318.873 59.8899 319.344 59.8899 319.344 60.4963C319.37 60.8176 319.132 61.1027 318.81 61.1286C318.779 61.1286 318.748 61.1286 318.717 61.1286H318.401V62.0305H318.131L318.152 59.8899ZM318.422 60.1127H318.67C318.857 60.0868 319.028 60.2112 319.054 60.3978C319.059 60.4289 319.059 60.4652 319.054 60.4963C319.08 60.6932 318.94 60.8747 318.743 60.9006C318.727 60.9006 318.712 60.9057 318.696 60.9057H318.38L318.422 60.1127ZM319.883 59.8899H320.92V60.1387H320.085V60.7917H320.92V61.0405H320.132V61.8076H321.008V62.0305H319.862L319.883 59.8899ZM321.573 59.8899H322.247C322.558 59.8899 322.812 60.1387 322.812 60.4496C322.812 60.6777 322.677 60.885 322.47 60.9731C322.646 61.0042 322.775 61.1545 322.786 61.3308V61.6884C322.786 61.9372 322.786 62.0046 322.9 62.0253H322.584C322.558 61.932 322.558 61.8283 322.584 61.735V61.3981C322.584 61.1079 322.402 61.082 322.267 61.082H321.91V62.0253H321.661L321.573 59.8899ZM321.817 60.1127H322.133C322.381 60.1127 322.516 60.1127 322.516 60.4496C322.516 60.7865 322.247 60.8539 322.091 60.8539H321.822L321.817 60.1127ZM323.418 62.0253H323.667V60.1594L324.138 62.0253H324.408L324.88 60.1594V62.0253H325.149V59.8899H324.698L324.273 61.6003L323.822 59.8899H323.397L323.418 62.0253ZM325.667 62.0253H325.958L326.113 61.4396H326.787L326.942 62.0253H327.212L326.647 59.8899H326.289L325.667 62.0253ZM326.16 61.2375H326.746L326.476 60.1801L326.16 61.2375ZM327.668 62.0253H327.917V60.2941L328.591 62.0253H328.948V59.8899H328.7V61.6677L328 59.8899H327.663L327.668 62.0253ZM329.627 62.0253H330.752V61.8024H329.918V61.0353H330.726V60.7865H329.918V60.1335H330.773V59.8847H329.669L329.627 62.0253ZM331.877 62.0253H331.607V60.1335H331.068V59.8847H332.416V60.1335H331.877V62.0253Z" fill="black"/>
<path fill-rule="evenodd" clip-rule="evenodd" d="M289.759 63.4195H265.731V58.7185H285.369L289.759 63.4195ZM267.488 62.0512H267.825L268.39 59.8018H268.1L267.675 61.6469L267.25 59.8018H266.933L267.488 62.0512ZM269.489 60.1127H270.028V59.8899H268.68V60.1127H269.172V62.046H269.442L269.489 60.1127ZM271.536 62.0512H271.805V59.8018H271.536V62.0512ZM272.459 62.0512H272.728V60.2941L273.428 62.0512H273.785V59.8018H273.516V61.6003L272.795 59.8018H272.459V62.0512ZM275.47 61.3048C275.47 61.5744 275.47 61.8698 275.086 61.8698C274.703 61.8698 274.682 61.4655 274.682 60.9679C274.682 60.4704 274.682 60.0661 275.086 60.0661C275.491 60.0661 275.444 60.2682 275.444 60.517H275.734C275.734 60.092 275.532 59.8432 275.081 59.8432C274.63 59.8432 274.381 60.4289 274.381 60.9679C274.381 61.507 274.381 62.0927 275.081 62.0927C275.781 62.0927 275.713 61.7091 275.734 61.3048H275.47ZM276.284 62.0512H277.455V61.8283H276.553V61.0405H277.362V60.8176H276.553V60.1179H277.408V59.8951H276.284V62.0512ZM277.994 62.0512H278.175V61.1286H278.512C278.834 61.1545 279.119 60.9161 279.145 60.5948C279.145 60.5637 279.145 60.5326 279.145 60.5015C279.176 60.1905 278.953 59.9158 278.642 59.8847C278.585 59.8795 278.528 59.8795 278.471 59.8951H277.932L277.994 62.0512ZM278.238 60.092H278.554C278.823 60.092 278.937 60.2475 278.937 60.4963C278.963 60.7036 278.813 60.8954 278.606 60.9213C278.595 60.9213 278.59 60.9213 278.58 60.9213H278.175L278.238 60.092ZM279.725 62.0512H279.995V59.8018H279.725V62.0512ZM281.301 60.1127H281.84V59.8899H280.425V60.1127H280.964V62.046H281.233L281.301 60.1127Z" fill="black"/>
<path d="M0.974609 8.99048V62.7487H18.9409V45.1628H44.0531V31.1838H18.9409V24.3507H45.9712V8.99048H0.974609Z" fill="#097F9E"/>
<path d="M45.7471 54.6853L55.3479 43.2446C61.1855 47.6958 67.8623 49.5409 74.1638 49.5409C77.3901 49.5409 78.7713 48.6965 78.7713 47.2371V47.086C78.7713 45.5536 77.0826 44.704 71.3231 43.5521C59.2674 41.092 48.6711 37.6363 48.6711 26.2738V26.1227C48.6711 15.9068 56.6561 8 71.4795 8C81.8465 8 89.524 10.4549 95.7421 15.37L86.9857 27.5039C81.9142 23.8189 75.8525 22.2031 70.8592 22.2031C68.1698 22.2031 66.9397 23.1257 66.9397 24.4287V24.5799C66.9397 26.0393 68.3991 26.9618 74.0804 28.0355C87.8248 30.5686 97.0399 34.5611 97.0399 45.392V45.5432C97.0399 56.8327 87.7466 63.744 73.309 63.744C62.4103 63.744 52.5802 60.6741 45.7471 54.6853Z" fill="#097F9E"/>
<path d="M125.754 34.5665C130.054 34.5665 132.665 32.6485 132.665 29.3439V29.1928C132.665 25.7371 129.976 24.0484 125.832 24.0484H117.998V34.5665H125.754ZM100.026 8.99048H126.291C135.813 8.99048 141.88 11.3724 145.643 15.1356C148.87 18.3619 150.558 22.3544 150.558 27.8845V28.0357C150.558 35.8696 146.488 41.3215 139.962 44.4696L152.476 62.7487H131.972L121.834 47.3884H121.678H117.993V62.7487H100.021V8.99048H100.026Z" fill="#097F9E"/>
<path d="M183.499 42.7805L178.584 29.7241L173.669 42.7805H183.499ZM169.828 8.60962H187.643L210.295 62.7483H190.791L187.95 55.5294H169.135L166.372 62.7483H147.176L169.828 8.60962Z" fill="#097F9E"/>
<path d="M0.818604 75.0125H7.67259V76.0028H1.89752V79.4115H7.06277V80.3914H1.89752V84.5507H0.818604V75.0125Z" fill="black"/>
<path d="M9.58005 77.5043H10.6277V84.5511H9.58005V77.5043ZM9.50708 74.8096H10.7059V75.9667H9.50708V74.8096Z" fill="black"/>
<path d="M13.0254 77.5042H14.073V78.729C14.5369 77.9628 15.2718 77.353 16.4863 77.353C18.1906 77.353 19.1862 78.4997 19.1862 80.1728V84.5458H18.1333V80.4334C18.1333 79.1252 17.4244 78.3069 16.184 78.3069C14.9695 78.3069 14.073 79.1929 14.073 80.5168V84.551H13.0254V77.5042Z" fill="black"/>
<path d="M25.9304 81.9605V81.309C25.4144 81.1579 24.7316 81.0067 23.8716 81.0067C22.5633 81.0067 21.8128 81.5801 21.8128 82.4244V82.4505C21.8128 83.3366 22.6311 83.8526 23.5849 83.8526C24.8828 83.8526 25.9304 83.0759 25.9304 81.9605ZM20.7495 82.5078V82.4818C20.7495 80.9702 21.9796 80.178 23.7621 80.178C24.6638 80.178 25.2893 80.2979 25.9148 80.4803V80.2614C25.9148 79.0052 25.1538 78.3537 23.8299 78.3537C22.996 78.3537 22.3444 78.557 21.6877 78.8593L21.375 77.9993C22.1516 77.6449 22.9021 77.3999 23.9394 77.3999C24.9349 77.3999 25.7115 77.6709 26.2171 78.1765C26.707 78.6665 26.952 79.3493 26.952 80.2457V84.551H25.9148V83.5033C25.4248 84.1288 24.6221 84.7021 23.3817 84.7021C22.063 84.7021 20.7495 83.9516 20.7495 82.5078Z" fill="black"/>
<path d="M29.1152 77.5042H30.1629V78.729C30.6268 77.9628 31.3617 77.353 32.5761 77.353C34.2805 77.353 35.276 78.4997 35.276 80.1728V84.5458H34.2231V80.4334C34.2231 79.1252 33.5143 78.3069 32.2738 78.3069C31.0594 78.3069 30.1629 79.1929 30.1629 80.5168V84.551H29.1152V77.5042Z" fill="black"/>
<path d="M36.9438 81.0589V81.0328C36.9438 79.0418 38.4971 77.353 40.5559 77.353C41.8902 77.353 42.7241 77.9107 43.3756 78.6092L42.6824 79.3441C42.1247 78.7603 41.4993 78.2808 40.5402 78.2808C39.1121 78.2808 38.0228 79.4952 38.0228 81.0068V81.0328C38.0228 82.56 39.1382 83.7744 40.6132 83.7744C41.5149 83.7744 42.2081 83.3262 42.7658 82.7268L43.433 83.3522C42.7241 84.1445 41.8798 84.7126 40.5559 84.7126C38.4971 84.7126 36.9438 83.0395 36.9438 81.0589Z" fill="black"/>
<path d="M45.1683 77.5043H46.216V84.5511H45.1683V77.5043ZM45.1006 74.8096H46.2994V75.9667H45.1006V74.8096Z" fill="black"/>
<path d="M53.2473 81.9605V81.309C52.7313 81.1579 52.0485 81.0067 51.1885 81.0067C49.8802 81.0067 49.1297 81.5801 49.1297 82.4244V82.4505C49.1297 83.3366 49.948 83.8526 50.9018 83.8526C52.1944 83.8526 53.2473 83.0759 53.2473 81.9605ZM48.0664 82.5078V82.4818C48.0664 80.9702 49.2965 80.178 51.079 80.178C51.9807 80.178 52.6062 80.2979 53.2317 80.4803V80.2614C53.2317 79.0052 52.4707 78.3537 51.1468 78.3537C50.3128 78.3537 49.6613 78.557 49.0046 78.8593L48.6919 77.9993C49.4685 77.6449 50.219 77.3999 51.2563 77.3999C52.2518 77.3999 53.0284 77.6709 53.534 78.1765C54.0239 78.6665 54.2689 79.3493 54.2689 80.2457V84.551H53.2317V83.5033C52.7417 84.1288 51.939 84.7021 50.6985 84.7021C49.3747 84.7021 48.0664 83.9516 48.0664 82.5078Z" fill="black"/>
<path d="M57.5159 74.6011H56.4683V84.5511H57.5159V74.6011Z" fill="black"/>
<path d="M63.4944 83.1596L64.1615 82.3674C65.1571 83.2691 66.1109 83.7173 67.4296 83.7173C68.7118 83.7173 69.5561 83.0346 69.5561 82.0964V82.0703C69.5561 81.1842 69.0766 80.6787 67.0751 80.2565C64.8808 79.7822 63.8749 79.0733 63.8749 77.5045V77.4732C63.8749 75.9721 65.1936 74.8723 67.0074 74.8723C68.399 74.8723 69.3945 75.2684 70.3588 76.045L69.7333 76.8738C68.8473 76.1493 67.9612 75.8366 66.9813 75.8366C65.7408 75.8366 64.9538 76.5194 64.9538 77.3742V77.4002C64.9538 78.3019 65.4437 78.8023 67.5442 79.2557C69.6708 79.7196 70.6507 80.4962 70.6507 81.9556V81.9817C70.6507 83.6183 69.2903 84.6764 67.3931 84.6764C65.8816 84.6868 64.6358 84.1812 63.4944 83.1596Z" fill="black"/>
<path d="M77.6613 80.6106C77.5362 79.3284 76.8013 78.2391 75.4149 78.2391C74.2005 78.2391 73.2727 79.2503 73.1268 80.6106H77.6613ZM75.6077 83.8005C76.5772 83.8005 77.26 83.4043 77.8281 82.8049L78.4796 83.3887C77.7708 84.181 76.916 84.7126 75.5765 84.7126C73.6428 84.7126 72.0635 83.2271 72.0635 81.0328C72.0635 78.9896 73.4968 77.353 75.441 77.353C77.5258 77.353 78.7246 79.0157 78.7246 81.0849C78.7246 81.1788 78.7246 81.2882 78.7142 81.455H73.1268C73.2727 82.9457 74.3673 83.8005 75.6077 83.8005Z" fill="black"/>
<path d="M80.4602 77.5041H81.5078V79.344C82.0238 78.1712 83.0454 77.3269 84.3797 77.379V78.51H84.3016C82.7588 78.51 81.5078 79.615 81.5078 81.7416V84.5457H80.4602V77.5041Z" fill="black"/>
<path d="M85.2239 77.5044H86.381L88.7525 83.3524L91.1345 77.5044H92.2655L89.2007 84.6033H88.273L85.2239 77.5044Z" fill="black"/>
<path d="M93.9127 77.5043H94.9604V84.5511H93.9127V77.5043ZM93.845 74.8096H95.0438V75.9667H93.845V74.8096Z" fill="black"/>
<path d="M96.8472 81.0589V81.0328C96.8472 79.0418 98.4004 77.353 100.459 77.353C101.794 77.353 102.627 77.9107 103.279 78.6092L102.586 79.3441C102.028 78.7603 101.403 78.2808 100.444 78.2808C99.0154 78.2808 97.9261 79.4952 97.9261 81.0068V81.0328C97.9261 82.56 99.0415 83.7744 100.517 83.7744C101.418 83.7744 102.111 83.3262 102.669 82.7268L103.336 83.3522C102.627 84.1445 101.783 84.7126 100.459 84.7126C98.4004 84.7126 96.8472 83.0395 96.8472 81.0589Z" fill="black"/>
<path d="M109.977 80.6106C109.852 79.3284 109.117 78.2391 107.73 78.2391C106.516 78.2391 105.588 79.2503 105.442 80.6106H109.977ZM107.918 83.8005C108.887 83.8005 109.57 83.4043 110.138 82.8049L110.79 83.3887C110.081 84.181 109.226 84.7126 107.887 84.7126C105.953 84.7126 104.374 83.2271 104.374 81.0328C104.374 78.9896 105.807 77.353 107.751 77.353C109.836 77.353 111.035 79.0157 111.035 81.0849C111.035 81.1788 111.035 81.2882 111.024 81.455H105.442C105.588 82.9457 106.677 83.8005 107.918 83.8005Z" fill="black"/>
<path d="M112.202 83.6494L112.734 82.8988C113.495 83.4722 114.344 83.7953 115.173 83.7953C116.017 83.7953 116.632 83.3627 116.632 82.6799V82.6539C116.632 81.945 115.799 81.674 114.871 81.4134C113.766 81.1006 112.541 80.7201 112.541 79.4223V79.3963C112.541 78.1818 113.552 77.3792 114.939 77.3792C115.799 77.3792 116.752 77.6815 117.472 78.1558L116.997 78.948C116.341 78.5258 115.595 78.2652 114.912 78.2652C114.084 78.2652 113.552 78.703 113.552 79.2868V79.3129C113.552 79.98 114.423 80.2406 115.366 80.5273C116.455 80.8557 117.628 81.2778 117.628 82.5444V82.5705C117.628 83.9048 116.523 84.6866 115.121 84.6866C114.11 84.6866 112.994 84.2905 112.202 83.6494Z" fill="black"/>
<path d="M127.708 79.8754C129.142 79.8754 130.158 79.1405 130.158 77.9104V77.8843C130.158 76.7116 129.261 76.0028 127.719 76.0028H124.774V79.8754H127.708ZM123.705 75.0125H127.807C128.98 75.0125 129.918 75.3669 130.523 75.9663C130.987 76.4302 131.258 77.0973 131.258 77.8479V77.8739C131.258 79.4532 130.168 80.381 128.673 80.652L131.602 84.5507H130.278L127.51 80.8448H127.484H124.784V84.5507H123.711V75.0125H123.705Z" fill="black"/>
<path d="M138.31 80.6106C138.185 79.3284 137.45 78.2391 136.063 78.2391C134.849 78.2391 133.921 79.2503 133.775 80.6106H138.31ZM136.251 83.8005C137.221 83.8005 137.903 83.4043 138.471 82.8049L139.123 83.3887C138.414 84.181 137.559 84.7126 136.22 84.7126C134.286 84.7126 132.707 83.2271 132.707 81.0328C132.707 78.9896 134.14 77.353 136.084 77.353C138.169 77.353 139.368 79.0157 139.368 81.0849C139.368 81.1788 139.368 81.2882 139.357 81.455H133.77C133.921 82.9457 135.011 83.8005 136.251 83.8005Z" fill="black"/>
<path d="M146.728 80.694V80.668C146.728 79.2242 145.471 78.2808 144.137 78.2808C142.803 78.2808 141.698 79.2086 141.698 80.6523V80.6784C141.698 82.0961 142.829 83.076 144.137 83.076C145.477 83.076 146.728 82.1117 146.728 80.694ZM140.953 85.7759L141.432 84.9576C142.235 85.5413 143.136 85.8593 144.142 85.8593C145.696 85.8593 146.707 84.9993 146.707 83.3522V82.5183C146.092 83.3366 145.237 84.0037 143.939 84.0037C142.25 84.0037 140.629 82.7372 140.629 80.7044V80.6784C140.629 78.6196 142.266 77.353 143.939 77.353C145.263 77.353 146.123 78.0098 146.691 78.7707V77.5042H147.739V83.3209C147.739 84.4103 147.41 85.2442 146.842 85.8176C146.217 86.443 145.273 86.7558 144.158 86.7558C142.985 86.761 141.891 86.4326 140.953 85.7759Z" fill="black"/>
<path d="M149.969 81.8772V77.5042H151.017V81.6166C151.017 82.9249 151.726 83.7432 152.966 83.7432C154.165 83.7432 155.077 82.8571 155.077 81.5332V77.499H156.115V84.5407H155.077V83.3158C154.603 84.0768 153.879 84.6918 152.664 84.6918C150.965 84.697 149.969 83.5556 149.969 81.8772Z" fill="black"/>
<path d="M159.502 74.6011H158.455V84.5511H159.502V74.6011Z" fill="black"/>
<path d="M166.481 81.9605V81.309C165.965 81.1579 165.283 81.0067 164.423 81.0067C163.114 81.0067 162.364 81.5801 162.364 82.4244V82.4505C162.364 83.3366 163.182 83.8526 164.136 83.8526C165.429 83.8526 166.481 83.0759 166.481 81.9605ZM161.301 82.5078V82.4818C161.301 80.9702 162.531 80.178 164.313 80.178C165.215 80.178 165.84 80.2979 166.466 80.4803V80.2614C166.466 79.0052 165.705 78.3537 164.381 78.3537C163.547 78.3537 162.895 78.557 162.239 78.8593L161.926 77.9993C162.703 77.6449 163.453 77.3999 164.49 77.3999C165.486 77.3999 166.263 77.6709 166.768 78.1765C167.258 78.6665 167.503 79.3493 167.503 80.2457V84.551H166.466V83.5033C165.976 84.1288 165.173 84.7021 163.933 84.7021C162.609 84.7021 161.301 83.9516 161.301 82.5078Z" fill="black"/>
<path d="M169.974 82.6849V78.4318H168.994V77.504H169.974V75.3774H171.021V77.504H173.257V78.4318H171.021V82.5494C171.021 83.4094 171.495 83.7221 172.21 83.7221C172.564 83.7221 172.861 83.6543 173.231 83.4771V84.3788C172.861 84.5717 172.465 84.6759 171.965 84.6759C170.834 84.6707 169.974 84.113 169.974 82.6849Z" fill="black"/>
<path d="M180.622 81.0589V81.0328C180.622 79.5213 179.491 78.2808 178.006 78.2808C176.478 78.2808 175.431 79.5213 175.431 81.0068V81.0328C175.431 82.5443 176.546 83.7744 178.032 83.7744C179.559 83.7744 180.622 82.5443 180.622 81.0589ZM174.352 81.0589V81.0328C174.352 79.0418 175.905 77.353 178.032 77.353C180.143 77.353 181.696 79.0157 181.696 81.0068V81.0328C181.696 83.0239 180.127 84.7126 178.006 84.7126C175.895 84.7126 174.352 83.0499 174.352 81.0589Z" fill="black"/>
<path d="M183.499 77.5041H184.547V79.344C185.063 78.1712 186.085 77.3269 187.419 77.379V78.51H187.341C185.798 78.51 184.547 79.615 184.547 81.7416V84.5457H183.499V77.5041Z" fill="black"/>
<path d="M188.55 86.4171L188.904 85.5884C189.243 85.7656 189.556 85.849 190.009 85.849C190.635 85.849 191.031 85.5206 191.453 84.5251L188.253 77.5095H189.41L191.974 83.3836L194.236 77.5095H195.352L192.396 84.7857C191.797 86.2451 191.114 86.7767 190.051 86.7767C189.462 86.7715 189.024 86.6464 188.55 86.4171Z" fill="black"/>
<path d="M7.00514 96.7316L4.83688 91.8687L2.6582 96.7316H7.00514ZM4.34694 90.6125H5.3581L9.70503 100.219H8.54794L7.43254 97.6959H2.24123L1.11019 100.219H0L4.34694 90.6125Z" fill="black"/>
<path d="M11.0447 97.5447V93.1717H12.0923V97.2841C12.0923 98.5924 12.8012 99.4107 14.0417 99.4107C15.2405 99.4107 16.1526 98.5246 16.1526 97.2007V93.1665H17.1898V100.208H16.1526V98.9833C15.6783 99.7442 14.9538 100.359 13.7394 100.359C12.035 100.37 11.0447 99.223 11.0447 97.5447Z" fill="black"/>
<path d="M19.8319 98.3529V94.0997H18.8521V93.172H19.8319V91.0454H20.8796V93.172H23.1156V94.0997H20.8796V98.2173C20.8796 99.0773 21.3539 99.3901 22.068 99.3901C22.4224 99.3901 22.7195 99.3223 23.0895 99.1451V100.047C22.7195 100.24 22.3233 100.344 21.823 100.344C20.6867 100.339 19.8319 99.781 19.8319 98.3529Z" fill="black"/>
<path d="M24.8933 90.2688H25.941V94.3968C26.4048 93.6359 27.1397 93.0208 28.3542 93.0208C30.0586 93.0208 31.0541 94.1623 31.0541 95.8406V100.214H30.0012V96.1012C30.0012 94.793 29.2924 93.9746 28.0519 93.9746C26.8374 93.9746 25.941 94.8607 25.941 96.1846V100.219H24.8933V90.2688Z" fill="black"/>
<path d="M39.0339 96.7317V96.7057C39.0339 95.1941 37.9029 93.9536 36.4174 93.9536C34.8902 93.9536 33.8426 95.1941 33.8426 96.6796V96.7057C33.8426 98.2172 34.958 99.4473 36.4435 99.4473C37.9706 99.442 39.0339 98.2172 39.0339 96.7317ZM32.7637 96.7317V96.7057C32.7637 94.7146 34.3169 93.0259 36.4435 93.0259C38.5544 93.0259 40.1076 94.6886 40.1076 96.6796V96.7057C40.1076 98.6967 38.5387 100.385 36.4174 100.385C34.3065 100.38 32.7637 98.7176 32.7637 96.7317Z" fill="black"/>
<path d="M41.8745 93.1718H42.9222V95.0117C43.4382 93.839 44.4597 92.9946 45.794 93.0467V94.1778H45.7159C44.1731 94.1778 42.9222 95.2827 42.9222 97.4093V100.213H41.8745V93.1718Z" fill="black"/>
<path d="M47.4308 93.172H48.4784V100.219H47.4308V93.172ZM47.363 90.4773H48.5618V91.6344H47.363V90.4773Z" fill="black"/>
<path d="M51.1833 98.3529V94.0997H50.2034V93.172H51.1833V91.0454H52.2309V93.172H54.4669V94.0997H52.2309V98.2173C52.2309 99.0773 52.7052 99.3901 53.4193 99.3901C53.7737 99.3901 54.0708 99.3223 54.4409 99.1451V100.047C54.0708 100.24 53.6747 100.344 53.1743 100.344C52.0433 100.339 51.1833 99.781 51.1833 98.3529Z" fill="black"/>
<path d="M55.8117 102.085L56.1662 101.256C56.505 101.433 56.8177 101.516 57.2711 101.516C57.8966 101.516 58.2927 101.188 58.7149 100.193L55.5146 93.177H56.6717L59.2361 99.0511L61.4982 93.177H62.6136L59.6583 100.453C59.0589 101.913 58.3761 102.444 57.3128 102.444C56.7291 102.439 56.2913 102.314 55.8117 102.085Z" fill="black"/>
<path d="M74.122 96.7317V96.7057C74.122 95.1941 72.991 93.9536 71.5055 93.9536C69.9784 93.9536 68.9307 95.1941 68.9307 96.6796V96.7057C68.9307 98.2172 70.0461 99.4473 71.5316 99.4473C73.0587 99.442 74.122 98.2172 74.122 96.7317ZM67.8518 96.7317V96.7057C67.8518 94.7146 69.405 93.0259 71.5316 93.0259C73.6425 93.0259 75.1957 94.6886 75.1957 96.6796V96.7057C75.1957 98.6967 73.6269 100.385 71.5055 100.385C69.3946 100.38 67.8518 98.7176 67.8518 96.7317Z" fill="black"/>
<path d="M77.3117 94.0997H76.3423V93.1876H77.3117V92.5725C77.3117 91.7646 77.5307 91.1548 77.9268 90.7587C78.2812 90.4043 78.7972 90.2114 79.4383 90.2114C79.9282 90.2114 80.2566 90.2636 80.5954 90.3886V91.3008C80.2149 91.1913 79.9283 91.1236 79.5738 91.1236C78.7555 91.1236 78.349 91.6135 78.349 92.6247V93.198H80.585V94.0997H78.3646V100.219H77.317V94.0997H77.3117Z" fill="black"/>
<path d="M94.2776 95.4756V95.4496C94.2776 93.2813 92.6983 91.5092 90.5196 91.5092C88.3357 91.5092 86.7877 93.2553 86.7877 95.4183V95.4444C86.7877 97.6126 88.367 99.3796 90.5457 99.3796C92.7243 99.3848 94.2776 97.6439 94.2776 95.4756ZM85.6619 95.4756V95.4496C85.6619 92.8174 87.6373 90.5137 90.5404 90.5137C93.4436 90.5137 95.393 92.7914 95.393 95.4183C95.4086 95.4339 95.4086 95.434 95.393 95.4444C95.393 98.0765 93.4176 100.375 90.5144 100.375C87.6112 100.38 85.6619 98.1078 85.6619 95.4756Z" fill="black"/>
<path d="M97.3477 93.1719H98.3953V94.3968C98.8592 93.6306 99.5941 93.0208 100.809 93.0208C102.513 93.0208 103.508 94.1674 103.508 95.8405V100.214H102.456V96.1011C102.456 94.7929 101.747 93.9746 100.506 93.9746C99.2918 93.9746 98.3953 94.8606 98.3953 96.1845V100.219H97.3477V93.1719Z" fill="black"/>
<path d="M105.979 98.3529V94.0997H104.999V93.172H105.979V91.0454H107.027V93.172H109.263V94.0997H107.027V98.2173C107.027 99.0773 107.501 99.3901 108.215 99.3901C108.569 99.3901 108.866 99.3223 109.237 99.1451V100.047C108.866 100.24 108.476 100.344 107.97 100.344C106.839 100.339 105.979 99.781 105.979 98.3529Z" fill="black"/>
<path d="M115.762 97.6283V96.9715C115.246 96.8204 114.563 96.6692 113.703 96.6692C112.395 96.6692 111.644 97.2426 111.644 98.0869V98.113C111.644 98.9991 112.463 99.5151 113.416 99.5151C114.714 99.5203 115.762 98.7437 115.762 97.6283ZM110.581 98.1755V98.1495C110.581 96.638 111.811 95.8457 113.594 95.8457C114.495 95.8457 115.121 95.9656 115.746 96.148V95.9291C115.746 94.673 114.985 94.0214 113.661 94.0214C112.827 94.0214 112.176 94.2247 111.519 94.527L111.207 93.667C111.983 93.3126 112.734 93.0676 113.771 93.0676C114.766 93.0676 115.543 93.3387 116.049 93.8442C116.539 94.3342 116.784 95.017 116.784 95.9135V100.219H115.746V99.1711C115.256 99.7965 114.454 100.37 113.213 100.37C111.889 100.37 110.581 99.6193 110.581 98.1755Z" fill="black"/>
<path d="M118.842 93.1718H119.89V95.0117C120.406 93.839 121.428 92.9946 122.762 93.0467V94.1778H122.684C121.141 94.1778 119.89 95.2827 119.89 97.4093V100.213H118.842V93.1718Z" fill="black"/>
<path d="M124.346 93.172H125.394V100.219H124.346V93.172ZM124.273 90.4773H125.472V91.6344H124.273V90.4773Z" fill="black"/>
<path d="M133.666 96.7317V96.7057C133.666 95.1941 132.535 93.9536 131.049 93.9536C129.522 93.9536 128.474 95.1941 128.474 96.6796V96.7057C128.474 98.2172 129.59 99.4473 131.075 99.4473C132.602 99.442 133.666 98.2172 133.666 96.7317ZM127.396 96.7317V96.7057C127.396 94.7146 128.949 93.0259 131.075 93.0259C133.186 93.0259 134.739 94.6886 134.739 96.6796V96.7057C134.739 98.6967 133.171 100.385 131.049 100.385C128.938 100.38 127.396 98.7176 127.396 96.7317Z" fill="black"/>
</svg>
