<?xml version="1.0" encoding="UTF-8"?>
<svg width="167px" height="54px" viewBox="0 0 167 54" version="1.1" xmlns="http://www.w3.org/2000/svg" xmlns:xlink="http://www.w3.org/1999/xlink">
    <!-- Generator: Sketch 58 (84663) - https://sketch.com -->
    <title>Logo_EN</title>
    <desc>Created with Sketch.</desc>
    <g id="Modules" stroke="none" stroke-width="1" fill="none" fill-rule="evenodd">
        <g id="header-logo-variations" transform="translate(-188.000000, -827.000000)" fill-rule="nonzero">
            <g id="Logo_EN" transform="translate(188.000000, 827.000000)">
                <g id="Group-10-Copy-5">
                    <path d="M1.58903111,32.959767 C3.34308842,28.8543844 5.89630323,25.1389487 9.10003111,22.029767 C21.0610311,10.069767 32.3780311,11.668767 33.6330311,19.735767 C39.2180311,20.318767 42.3270311,24.927767 39.0550311,32.959767 L33.7470311,32.959767 C35.9850311,28.548767 35.6170311,25.847767 34.7090311,24.940767 C34.3322017,24.6075465 33.863284,24.396272 33.3640311,24.334767 C32.5116875,27.4633611 31.0526987,30.3939104 29.0700311,32.959767 L22.8850311,32.959767 C24.9598526,30.7241559 26.6385455,28.1513323 27.8490311,25.351767 C24.5586642,26.851434 21.5842652,28.9644655 19.0850311,31.577767 C18.6260311,32.032767 18.1850311,32.495767 17.7640311,32.959767 L11.6040311,32.959767 C16.8330311,25.612767 23.2730311,21.451767 28.7370311,20.134767 C28.6718435,19.6363808 28.459453,19.1687735 28.1270311,18.791767 C26.5210311,17.191767 19.8840311,18.046767 12.5020311,25.430767 C10.2534448,27.6383645 8.35642842,30.1774998 6.87703111,32.959767 L1.58903111,32.959767 Z" id="Path_54" fill="#F77E0B"></path>
                    <path d="M29.0690311,32.961767 C23.7290311,40.395767 17.0920311,44.653767 11.5100311,46.003767 C11.4295997,46.6629613 11.6065493,47.3277759 12.0040311,47.859767 C13.6040311,49.459767 20.2460311,48.604767 27.6280311,41.221767 C30.0975642,38.8143427 32.1633378,36.0249744 33.7460311,32.960767 L39.0550311,32.960767 C37.6760311,36.776767 34.7190311,40.930767 31.0290311,44.621767 C18.8190311,56.832767 7.27603111,54.910767 6.42903111,46.401767 C0.911031108,45.767767 -2.02096889,41.138767 1.59103111,32.960767 L6.87803111,32.960767 C4.46703111,37.560767 4.49803111,40.786767 5.42303111,41.710767 C5.7979927,42.0440213 6.26523664,42.2556759 6.76303111,42.317767 C7.7100616,38.8964918 9.35905336,35.7098714 11.6050311,32.960767 L17.7650311,32.960767 C15.6767642,35.4034841 13.9750263,38.151693 12.7190311,41.109767 C15.8319214,39.609012 18.6523696,37.5653808 21.0480311,35.074767 C21.7043492,34.4092728 22.3182242,33.7032165 22.8860311,32.960767 L29.0690311,32.961767 Z" id="Path_55" fill="#939FA5"></path>
                    <path d="M12.4510311,33.750767 L9.46003111,33.750767 L6.03703111,36.564767 L5.87603111,33.751767 L2.85303111,33.751767 L0.746031108,37.320767 L2.67903111,37.320767 L4.43703111,34.335767 L4.51303111,37.319767 L6.53703111,37.319767 L10.1370311,34.335767 L8.40603111,37.319767 L10.3370311,37.319767 L12.4510311,33.750767 Z M23.6510311,35.817767 L28.0080311,35.817767 L28.3820311,35.186767 L24.0220311,35.186767 L24.4980311,34.380767 L29.4770311,34.380767 L29.8490311,33.750767 L22.8000311,33.750767 L20.7000311,37.319767 L22.7680311,37.319767 L23.6510311,35.817767 Z M14.6850311,36.032767 L17.0560311,36.032767 C19.7180311,36.032767 20.6950311,35.217767 20.8860311,34.892767 C21.2990311,34.192767 20.4010311,33.751767 18.4860311,33.751767 L13.9580311,33.751767 L11.8580311,37.320767 L13.9250311,37.320767 L14.6850311,36.032767 Z M15.0470311,35.415767 L15.6670311,34.367767 L17.3080311,34.367767 C18.5900311,34.367767 19.0440311,34.509767 18.8390311,34.858767 C18.7450311,35.018767 18.5110311,35.415767 16.9640311,35.415767 L15.0470311,35.415767 Z M30.2900311,36.583767 L33.9370311,36.583767 L34.1370311,37.320767 L36.3840311,37.320767 L35.0010311,33.751767 L32.6150311,33.751767 L26.9810311,37.320767 L29.1580311,37.320767 L30.2900311,36.583767 Z M33.3070311,34.554767 L33.7290311,35.967767 L31.2040311,35.967767 L33.3070311,34.554767 Z" id="Path_56" fill="#48494B"></path>
                    <path d="M33.9020311,16.709767 C34.1922494,16.1971328 34.5268645,15.7109371 34.9020311,15.256767 C29.7908399,12.206957 28.0575529,5.62935479 31.0020311,0.456766996 C31.1330572,0.239923489 31.3455884,0.0846991612 31.5920178,0.0258643988 C31.8384471,-0.0329703637 32.0981782,0.00950176694 32.3130311,0.143766996 C36.7999394,2.80050538 38.7869905,8.25558249 37.0600311,13.175767 C39.6748171,11.2249638 42.7328979,9.95362689 45.9600311,9.475767 L46.6740311,14.314767 C45.4392319,14.5340597 44.2306872,14.8816085 43.0680311,15.351767 C41.0290311,16.174767 38.0010311,17.696767 37.0680311,19.440767 C36.2814277,19.098904 35.4564744,18.8531304 34.6110311,18.708767 C34.450764,18.0178504 34.2129211,17.3472611 33.9020311,16.709767 L33.9020311,16.709767 Z" id="Path_106" fill="#48494B"></path>
                </g>
                <g id="Group-9-Copy" transform="translate(52.000000, 24.000000)" fill="#48494B">
                    <g id="Group_8" transform="translate(0.000000, 0.982500)">
                        <g id="Group_6" transform="translate(1.195876, 9.201857)">
                            <path d="M3.35204124,1.46564286 C2.97311295,1.30532555 2.56667059,1.22278571 2.15616495,1.22278571 C1.63353198,1.16684968 1.11257681,1.34286522 0.72714686,1.7056092 C0.341716905,2.06835319 0.129383578,2.58246561 0.144701031,3.11585714 C0.144701031,5.41571429 2.90239175,5.11214286 2.90239175,6.80728571 C2.88242185,7.43627592 2.37532038,7.93614995 1.75554639,7.93778571 C1.07110123,7.90347285 0.433097204,7.57602971 1.42108547e-14,7.03678571 L0.229608247,8.39435714 C0.677378267,8.61218475 1.16816629,8.72348141 1.66465979,8.71978571 C2.86930952,8.69915578 3.8312267,7.69421427 3.81723711,6.47092857 C3.81723711,4.46007143 1.05715464,4.48192857 1.05715464,2.99321429 C1.04791621,2.71691806 1.15652006,2.45000727 1.35512547,2.26090483 C1.55373087,2.07180238 1.82302697,1.97889515 2.09397938,2.006 C2.59501184,2.02375678 3.05983303,2.27565697 3.35323711,2.68842857 L3.35204124,1.46564286 Z" id="Path_57"></path>
                            <path d="M8.52898969,1.496 C8.05794757,1.33203708 7.56534481,1.24075929 7.06762887,1.22521429 C5.42210309,1.22521429 4.25134021,2.71271429 4.25134021,4.96157143 C4.25134021,7.28814286 5.42210309,8.72585714 7.31517526,8.72585714 C7.74184976,8.73528242 8.16251299,8.6225009 8.52898969,8.40042857 L8.93558763,7.13878571 L8.9116701,7.13878571 C8.42873164,7.54723043 7.82911372,7.78693792 7.20156701,7.82242857 C5.9662268,7.82242857 5.16857732,6.39928571 5.16857732,4.8025 C5.16857732,3.22392857 5.93991753,2.13107143 7.04849485,2.13107143 C7.59942373,2.15430599 8.12476089,2.37352143 8.53257732,2.75035714 L8.52898969,1.496 Z" id="Path_58"></path>
                            <path d="M13.2395464,5.05992857 L13.2395464,7.02707143 C13.2395464,7.51278571 13.2933608,8.30814286 12.8807835,8.51457143 L12.8807835,8.54857143 L14.4138969,8.54857143 L14.4138969,8.51457143 C14.0061031,8.30814286 14.055134,7.51642857 14.055134,7.02707143 L14.055134,2.92035714 C14.055134,2.43464286 14.0096907,1.63807143 14.4138969,1.43407143 L14.4138969,1.40007143 L12.8867629,1.40007143 L12.8867629,1.43407143 C13.2933608,1.63807143 13.2455258,2.431 13.2455258,2.9325 L13.2455258,4.27914286 L10.3491134,4.27914286 L10.3491134,2.9325 C10.3491134,2.42978571 10.3012784,1.63685714 10.700701,1.43407143 L10.700701,1.40007143 L9.17476289,1.40007143 L9.17476289,1.43407143 C9.5825567,1.63807143 9.53352577,2.431 9.53352577,2.92035714 L9.53352577,7.02707143 C9.53352577,7.51278571 9.58136082,8.30814286 9.17476289,8.51457143 L9.17476289,8.54857143 L10.700701,8.54857143 L10.700701,8.51457143 C10.3012784,8.30814286 10.3491134,7.51642857 10.3491134,7.02707143 L10.3491134,5.05992857 L13.2395464,5.05992857 Z" id="Path_59"></path>
                            <path d="M16.201732,5.05992857 L16.7996701,5.05992857 C17.0472165,5.05992857 17.3856495,5.05021429 17.5171959,5.3635 L17.5411134,5.3635 L17.5411134,4.21357143 L17.5171959,4.21357143 C17.4087334,4.26955989 17.2865857,4.29234056 17.1656082,4.27914286 L16.2089072,4.27914286 L16.2089072,2.25735714 C16.4777055,2.19979017 16.7522979,2.17492468 17.0268866,2.18328571 C17.3985659,2.13020294 17.7672875,2.29828065 17.9752165,2.61557143 L17.999134,2.61557143 L17.999134,1.34542857 L17.9752165,1.34542857 C17.8575146,1.40320035 17.7250099,1.42229972 17.5961237,1.40007143 L15.0225979,1.40007143 L15.0225979,1.43407143 C15.4303918,1.63807143 15.3813608,2.431 15.3813608,2.9325 L15.3813608,7.02585714 C15.3813608,7.51157143 15.4268041,8.31785714 15.0225979,8.51335714 L15.0225979,8.54735714 L18.3710515,8.54735714 L18.7298144,7.12542857 L18.7058969,7.12542857 C18.3486853,7.57871974 17.7911696,7.81957375 17.2218144,7.76657143 L16.201732,7.63542857 L16.201732,5.05992857 Z" id="Path_60"></path>
                            <path d="M22.5590103,6.6895 L21.0474227,1.90035714 C20.9876793,1.74474743 20.9506153,1.58111925 20.9374021,1.41464286 L20.9374021,1.40492857 L19.5322474,1.40492857 L19.5322474,1.43892857 C19.9005773,1.70971429 19.8108866,2.14564286 19.7797938,2.44678571 L19.3229691,6.99914286 C19.3264445,7.54001985 19.1702441,8.06954897 18.8745155,8.51942857 L18.8745155,8.55342857 L20.1875876,8.55342857 L20.1875876,8.51942857 C19.8096907,8.29235714 19.8658969,7.81514286 19.9304742,7.15214286 L20.3896907,2.48078571 L21.9108454,7.38164286 C22.0220508,7.87796089 22.2667159,8.33320841 22.6176082,8.69671429 L24.4114227,2.47228571 L24.8682474,7.70585714 C24.8682474,8.07014286 24.8204124,8.40407143 24.5405773,8.52064286 L24.5405773,8.55464286 L26.0952165,8.55464286 L26.0952165,8.52064286 C25.8102852,8.22750939 25.6608333,7.82562968 25.6838351,7.41442857 L25.1540619,2.08007143 C25.1540619,1.82992857 25.210268,1.51664286 25.4016082,1.44135714 L25.4016082,1.40735714 L24.0131959,1.40735714 L24.0131959,1.41707143 C24.0047055,1.64630266 23.9644472,1.8731757 23.8936082,2.091 L22.5590103,6.6895 Z" id="Path_61"></path>
                            <path d="M27.5972371,5.05992857 L28.1951753,5.05992857 C28.4427216,5.05992857 28.777567,5.05021429 28.912701,5.3635 L28.9366186,5.3635 L28.9366186,4.21357143 L28.912701,4.21357143 C28.8042386,4.26955989 28.6820909,4.29234056 28.5611134,4.27914286 L27.6044124,4.27914286 L27.6044124,2.25735714 C27.8732089,2.19977875 28.1478028,2.17491314 28.4223918,2.18328571 C28.794071,2.13020294 29.1627927,2.29828065 29.3707216,2.61557143 L29.3946392,2.61557143 L29.3946392,1.34542857 L29.3707216,1.34542857 C29.2538388,1.40308483 29.1221271,1.42219045 28.9940206,1.40007143 L26.4252784,1.40007143 L26.4252784,1.43407143 C26.8330722,1.63807143 26.7840412,2.431 26.7840412,2.9325 L26.7840412,7.02585714 C26.7840412,7.51157143 26.8318763,8.31785714 26.4252784,8.51335714 L26.4252784,8.54735714 L29.773732,8.54735714 L30.1324948,7.12542857 L30.1085773,7.12542857 C29.7515006,7.57890024 29.1938845,7.81979762 28.6244948,7.76657143 L27.6044124,7.63542857 L27.5972371,5.05992857 Z" id="Path_62"></path>
                            <path d="M33.6890309,1.46564286 C33.3101026,1.30532555 32.9036603,1.22278571 32.4931546,1.22278571 C31.9703123,1.16692209 31.4491618,1.34288146 31.063373,1.70553197 C30.6775842,2.06818249 30.4646912,2.5822412 30.479299,3.11585714 C30.479299,5.41571429 33.2393814,5.11214286 33.2393814,6.80728571 C33.2194115,7.43627592 32.7123101,7.93614995 32.0925361,7.93778571 C31.4074791,7.90324255 30.7688227,7.57591054 30.3345979,7.03678571 L30.5737732,8.39435714 C31.0215432,8.61218475 31.5123312,8.72348141 32.0088247,8.71978571 C33.212913,8.69783868 34.1740791,7.69368186 34.1614021,6.47092857 C34.1614021,4.46007143 31.4013196,4.48192857 31.4013196,2.99321429 C31.3918086,2.7174971 31.499814,2.45099908 31.6976888,2.26193814 C31.8955635,2.07287719 32.1640993,1.97960599 32.4345567,2.006 C32.9364883,2.02283256 33.4024157,2.27485353 33.6962062,2.68842857 L33.6890309,1.46564286 Z" id="Path_63"></path>
                            <path d="M40.4708454,5.86378571 L40.9049485,7.395 C41.1190103,8.15757143 41.1835876,8.27657143 40.7925361,8.51457143 L40.7925361,8.54857143 L42.4392577,8.54857143 L42.4392577,8.51457143 C42.0128085,8.10596977 41.735055,7.56288166 41.6511753,6.97364286 L39.9769485,1.40007143 L38.7069278,1.40007143 L38.7069278,1.43407143 C39.0943918,1.59557143 38.9461031,2.05214286 38.8265155,2.44192857 L37.496701,6.97607143 C37.419736,7.56569511 37.144253,8.11012687 36.7169897,8.517 L36.7169897,8.551 L38.1950928,8.551 L38.1950928,8.517 C37.8076289,8.3215 37.8638351,8.00821429 38.0324536,7.39742857 L38.4486186,5.86621429 L40.4708454,5.86378571 Z M40.2400412,5.05992857 L38.6590928,5.05992857 L39.4531546,2.32414286 L40.2400412,5.05992857 Z" id="Path_64"></path>
                            <path d="M46.4358763,8.54735714 L47.6138144,8.54735714 L47.6138144,8.51335714 C47.2060206,8.30692857 47.2550515,7.51521429 47.2550515,7.02585714 L47.2550515,2.9325 C47.2550515,2.42978571 47.2072165,1.63685714 47.6138144,1.43407143 L47.6054433,1.40007143 L46.080701,1.40007143 L46.080701,1.43407143 C46.4837113,1.63807143 46.4394639,2.431 46.4394639,2.92035714 L46.4394639,6.19042857 C46.475094,6.52942306 46.4166902,6.87178142 46.2708454,7.17885714 C46.0522605,7.63750246 45.5982167,7.9323385 45.0964948,7.94142857 C44.273732,7.94142857 43.8204948,7.26628571 43.8204948,5.8225 L43.8204948,2.92035714 C43.8204948,2.43464286 43.7726598,1.63807143 44.1792577,1.43407143 L44.1792577,1.40007143 L42.649732,1.40007143 L42.649732,1.43407143 C43.0611134,1.63807143 43.0084948,2.431 43.0084948,2.92035714 L43.0084948,5.8225 C42.9211602,6.56142766 43.0637554,7.30958191 43.4162887,7.96207143 C43.7451662,8.44535077 44.2896139,8.73041743 44.8680825,8.72221429 C45.5113692,8.73137002 46.1108706,8.39231288 46.4418557,7.83214286 L46.4358763,8.54735714 Z" id="Path_65"></path>
                            <path d="M50.1203711,2.18328571 L50.8378969,2.18328571 C51.1416228,2.13385043 51.4351873,2.3177634 51.5279175,2.61557143 L51.5542268,2.61557143 L51.8101443,1.32357143 L51.7862268,1.32357143 C51.6732492,1.3832794 51.5460983,1.40977395 51.4190928,1.40007143 L48.2237113,1.40007143 C48.1193208,1.39215004 48.0170136,1.36628216 47.9211546,1.32357143 L47.8960412,1.32357143 L47.6138144,2.61557143 L47.6389278,2.61557143 C47.8754453,2.32983039 48.228245,2.17041771 48.5956289,2.18328571 L49.3047835,2.18328571 L49.3047835,7.02585714 C49.3047835,7.51157143 49.3502268,8.30692857 48.9460206,8.51335714 L48.9460206,8.54735714 L50.5353402,8.54735714 L50.5353402,8.51335714 C50.1096082,8.17821429 50.1191753,7.75564286 50.1191753,7.13392857 L50.1203711,2.18328571 Z" id="Path_66"></path>
                            <path d="M55.9371134,5.05992857 L55.9371134,7.02707143 C55.9371134,7.51278571 55.9933196,8.30814286 55.5855258,8.51457143 L55.5855258,8.54857143 L57.1234227,8.54857143 L57.1234227,8.51457143 C56.7120412,8.30814286 56.7646598,7.51642857 56.7646598,7.02707143 L56.7646598,2.92035714 C56.7646598,2.43464286 56.7168247,1.63807143 57.1234227,1.43407143 L57.1234227,1.40007143 L55.5903093,1.40007143 L55.5903093,1.43407143 C55.9981031,1.63807143 55.9418969,2.431 55.9418969,2.9325 L55.9418969,4.27914286 L53.0466804,4.27914286 L53.0466804,2.9325 C53.0466804,2.42978571 52.9988454,1.63685714 53.398268,1.43407143 L53.398268,1.40007143 L51.8735258,1.40007143 L51.8735258,1.43407143 C52.2849072,1.63807143 52.2251134,2.431 52.2251134,2.92035714 L52.2251134,7.02707143 C52.2251134,7.51278571 52.2765361,8.30814286 51.8735258,8.51457143 L51.8735258,8.54857143 L53.398268,8.54857143 L53.398268,8.51457143 C52.9988454,8.30814286 53.0466804,7.51642857 53.0466804,7.02707143 L53.0466804,5.05992857 L55.9371134,5.05992857 Z" id="Path_67"></path>
                            <path d="M60.5783093,1.2155 C58.8921237,1.15964286 57.5682887,2.88757143 57.5682887,4.95185714 C57.5682887,7.17764286 58.908866,8.71614286 60.4969897,8.71614286 C62.0851134,8.71614286 63.4508041,7.10842857 63.4508041,4.89235714 C63.4508041,2.94464286 62.2609072,1.20578571 60.5783093,1.2155 Z M60.5221031,1.9975 C61.789732,1.9975 62.5359588,3.5275 62.5359588,5.11457143 C62.5359588,6.732 61.7562474,7.94142857 60.5376495,7.94142857 C59.2783918,7.94142857 58.4843286,6.375 58.4843286,4.85592857 C58.483134,3.213 59.2783918,1.9975 60.5221031,1.9975 Z" id="Path_68"></path>
                            <path d="M63.9566598,1.40007143 L63.9566598,1.43407143 C64.3644536,1.63807143 64.3082474,2.431 64.3082474,2.9325 L64.3082474,7.02585714 C64.3082474,7.51157143 64.3644536,8.31785714 63.9566598,8.51335714 L63.9566598,8.54735714 L65.4861856,8.54735714 L65.4861856,8.51335714 C65.0783918,8.31785714 65.1274227,7.52614286 65.1274227,7.02585714 L65.1274227,2.159 C65.3065967,2.11531473 65.4889697,2.0864818 65.6727423,2.07278571 C65.9741851,2.07551194 66.2600737,2.20907411 66.4582269,2.43975036 C66.65638,2.6704266 66.7478589,2.97616979 66.709567,3.27978571 C66.7128937,4.08430297 66.1101551,4.75799631 65.3211546,4.83164286 L66.0590103,6.36285714 L67.0360412,8.00457143 C67.2078178,8.36212332 67.5769367,8.57718891 67.9676289,8.54735714 L68.7054845,8.54735714 C68.1977395,8.11104496 67.7592828,7.59784944 67.405567,7.02585714 L66.2527423,5.05871429 C67.0336118,4.76019806 67.5434219,3.99320687 67.5239588,3.14621429 C67.5639758,2.68265342 67.4043735,2.22420416 67.0863348,1.88916243 C66.7682961,1.5541207 66.3229744,1.3753054 65.8652784,1.39885714 L63.9566598,1.40007143 Z" id="Path_69"></path>
                            <path d="M68.6265567,7.02585714 C68.6265567,7.51157143 68.6743918,8.31785714 68.2749691,8.51335714 L68.2749691,8.54735714 L69.7985155,8.54735714 L69.7985155,8.51335714 C69.3990928,8.30692857 69.4469278,7.51521429 69.4469278,7.02585714 L69.4469278,2.9325 C69.4469278,2.44678571 69.3990928,1.63685714 69.7985155,1.43407143 L69.7985155,1.40007143 L68.2749691,1.40007143 L68.2749691,1.43407143 C68.6827629,1.63807143 68.6265567,2.431 68.6265567,2.9325 L68.6265567,7.02585714 Z" id="Path_70"></path>
                            <path d="M72.2703918,2.18328571 L72.9879175,2.18328571 C73.2915368,2.13439181 73.5847792,2.318103 73.6779381,2.61557143 L73.7030515,2.61557143 L73.9577732,1.32357143 L73.9326598,1.32357143 C73.8197469,1.38346425 73.6925435,1.40996974 73.5655258,1.40007143 L70.373732,1.40007143 C70.2680928,1.39275296 70.1645068,1.36686867 70.0675876,1.32357143 L70.0424742,1.32357143 L69.7602474,2.61557143 L69.7853608,2.61557143 C70.0218783,2.32983039 70.374678,2.17041771 70.7420619,2.18328571 L71.4488247,2.18328571 L71.4488247,7.02585714 C71.4488247,7.51157143 71.4966598,8.30692857 71.0972371,8.51335714 L71.0972371,8.54735714 L72.6829691,8.54735714 L72.6829691,8.51335714 C72.2596289,8.17821429 72.268,7.75564286 72.268,7.13392857 L72.2703918,2.18328571 Z" id="Path_71"></path>
                            <path d="M76.4093196,5.41814286 L78.3837113,1.40007143 L76.9785567,1.40007143 L76.9785567,1.43407143 C77.4305979,1.7255 77.2452371,2.24642857 77.1101031,2.51964286 L76.115134,4.539 L74.8283711,1.70485714 C74.7075258,1.490444 74.4719649,1.37037208 74.230433,1.40007143 L73.5009485,1.40007143 C73.853263,1.69357793 74.1175699,2.08141861 74.2639175,2.51964286 L75.5961237,5.41814286 L75.5961237,7.02585714 C75.5961237,7.53707143 75.6523299,8.24014286 75.2612784,8.51335714 L75.2612784,8.54735714 L76.8230928,8.54735714 L76.8230928,8.51335714 C76.415299,8.11142857 76.415299,7.78478571 76.415299,7.13392857 L76.4093196,5.41814286 Z" id="Path_72"></path>
                        </g>
                        <g id="Group_7">
                            <path d="M4.87797938,5.474 L3.36997938,0.683642857 C3.30699331,0.528941245 3.26903353,0.364923656 3.25756701,0.197928571 L3.25756701,0.187 L1.85241237,0.187 L1.85241237,0.218571429 C2.22074227,0.489357143 2.13105155,0.925285714 2.09995876,1.22885714 L1.64313402,5.78 C1.64670205,6.32126876 1.49050395,6.85121301 1.19468041,7.3015 L1.19468041,7.33307143 L2.5017732,7.33307143 L2.5017732,7.29542857 C2.12268041,7.06835714 2.1788866,6.5875 2.24346392,5.92814286 L2.70268041,1.25678571 L4.2262268,6.154 C4.33583904,6.65066557 4.58025992,7.10622953 4.93179381,7.46907143 L6.72560825,1.24585714 L7.18243299,6.48064286 C7.18243299,6.84492857 7.13459794,7.17521429 6.85476289,7.29542857 L6.85476289,7.327 L8.40940206,7.327 L8.40940206,7.29542857 C8.12383423,7.00171604 7.97433041,6.5988142 7.99802062,6.18678571 L7.46824742,0.853642857 C7.46824742,0.602285714 7.52445361,0.289 7.71579381,0.211285714 L7.71579381,0.179714286 L6.32738144,0.179714286 L6.32738144,0.190642857 C6.32007962,0.419606906 6.27978947,0.646250447 6.20779381,0.863357143 L4.87797938,5.474 Z" id="Path_73"></path>
                            <path d="M12.1967423,4.65071429 L12.6296495,6.18192857 C12.847299,6.94207143 12.9118763,7.06107143 12.5196289,7.3015 L12.5196289,7.33307143 L14.1627629,7.33307143 L14.1627629,7.29542857 C13.7399438,6.88420051 13.464297,6.34151286 13.3794639,5.75328571 L11.7052371,0.180928571 L10.4352165,0.180928571 L10.4352165,0.2125 C10.8214845,0.377642857 10.6743918,0.830571429 10.5548041,1.22278571 L9.2142268,5.75328571 C9.13730105,6.34222257 8.86377418,6.88655391 8.43929897,7.29542857 L8.43929897,7.327 L9.91261856,7.327 L9.91261856,7.29542857 C9.52874227,7.09871429 9.58494845,6.78421429 9.75237113,6.17585714 L10.1721237,4.64464286 L12.1967423,4.65071429 Z M11.957567,3.84685714 L10.3766186,3.84685714 L11.174268,1.10985714 L11.957567,3.84685714 Z" id="Path_74"></path>
                            <path d="M15.4483299,1.71821429 L18.1988454,6.44421429 C18.4322578,6.98469054 18.8477821,7.42297175 19.3708041,7.68035714 L19.3708041,1.58828571 C19.3708041,0.981142857 19.3708041,0.547642857 19.7869691,0.218571429 L19.7869691,0.187 L18.3794227,0.187 L18.3794227,0.218571429 C18.8027629,0.546428571 18.7943918,0.981142857 18.7943918,1.58828571 L18.7943918,5.70592857 L15.8597113,0.686071429 L15.747299,0.469928571 C15.6889795,0.38929693 15.6482152,0.29699321 15.6277113,0.199142857 L15.6277113,0.188214286 L14.4569485,0.188214286 L14.4569485,0.219785714 C14.8731134,0.547642857 14.8731134,0.982357143 14.8731134,1.5895 L14.8731134,5.9245 C14.8731134,6.53164286 14.8731134,6.96757143 14.4485773,7.30392857 L14.4485773,7.3355 L15.8680825,7.3355 L15.8680825,7.29542857 C15.4447423,6.95907143 15.4531134,6.52192857 15.4531134,5.916 L15.4483299,1.71821429 Z" id="Path_75"></path>
                            <path d="M20.6037526,5.76907143 C20.6037526,6.41021429 20.6491959,6.93114286 20.2449897,7.3015 L20.2449897,7.33307143 L22.1691546,7.33307143 C23.9629691,7.33307143 25.1791753,5.83464286 25.1791753,3.69021429 C25.1791753,1.52878571 24.040701,0.180928571 22.2110103,0.180928571 L20.2437938,0.180928571 L20.2437938,0.2125 C20.6551753,0.377642857 20.6025567,1.16814286 20.6025567,1.66964286 L20.6037526,5.76907143 Z M21.421732,1.088 C21.6535739,1.01128733 21.8954452,0.970354878 22.1392577,0.966571429 C23.4786392,0.966571429 24.2655258,1.91978571 24.2655258,3.82257143 C24.2655258,5.70228571 23.1964124,6.54990966 22.001732,6.54990966 C21.8039059,6.55123484 21.6068014,6.52550271 21.4157526,6.47335714 L21.421732,1.088 Z" id="Path_76"></path>
                            <path d="M29.2140619,4.65071429 L29.6469691,6.18192857 C29.8646186,6.94207143 29.9291959,7.06107143 29.5345567,7.3015 L29.5345567,7.33307143 L31.1800825,7.33307143 L31.1800825,7.29542857 C30.7563834,6.88455048 30.4798752,6.34182391 30.3943918,5.75328571 L28.7201649,0.180928571 L27.4525361,0.180928571 L27.4525361,0.2125 C27.8364124,0.377642857 27.6917113,0.830571429 27.5721237,1.22278571 L26.2315464,5.75328571 C26.1546912,6.34303045 25.8796983,6.88775741 25.4530309,7.29542857 L25.4530309,7.327 L26.9287423,7.327 L26.9287423,7.29542857 C26.5424742,7.09871429 26.5986804,6.78421429 26.7684948,6.17585714 L27.1846598,4.64464286 L29.2140619,4.65071429 Z M28.9748866,3.84685714 L27.3939381,3.84685714 L28.188,1.10985714 L28.9748866,3.84685714 Z" id="Path_77"></path>
                            <path d="M32.9463918,0.971428571 L33.6639175,0.971428571 C33.9674445,0.921558653 34.2609388,1.10574683 34.3527423,1.40371429 L34.3778557,1.40371429 L34.6361649,0.114142857 L34.6110515,0.114142857 C34.495921,0.171138852 34.3681442,0.196669072 34.2403299,0.188214286 L31.0485361,0.188214286 C30.9437133,0.179765251 30.8408285,0.154774715 30.7435876,0.114142857 L30.7184742,0.114142857 L30.4398351,1.40371429 L30.4637526,1.40371429 C30.70027,1.11797325 31.0530697,0.958560568 31.4204536,0.971428571 L32.1260206,0.971428571 L32.1260206,5.81642857 C32.1260206,6.30214286 32.1738557,7.0975 31.7756289,7.30392857 L31.7756289,7.3355 L33.3613608,7.3355 L33.3613608,7.30392857 C32.9368247,6.96757143 32.9451959,6.54378571 32.9451959,5.9245 L32.9463918,0.971428571 Z" id="Path_78"></path>
                            <path d="M37.6234639,0.00121428571 C35.9384742,-0.0546428571 34.6146392,1.67328571 34.6146392,3.73878571 C34.6146392,5.96457143 35.9540206,7.50307143 37.5433402,7.50307143 C39.1326598,7.50307143 40.4959588,5.89535714 40.4959588,3.67928571 C40.493567,1.72792857 39.3108454,-0.0145714286 37.6234639,0.00121428571 Z M37.5672577,0.783214286 C38.8348866,0.783214286 39.5811134,2.31564286 39.5811134,3.90271429 C39.5811134,5.52014286 38.8025979,6.72471429 37.584,6.72471429 C36.3223505,6.72471429 35.5306804,5.16192857 35.5306804,3.63921429 C35.5306804,1.99992857 36.3235464,0.783214286 37.5684536,0.783214286 L37.5672577,0.783214286 Z" id="Path_79"></path>
                            <path d="M41.0054021,0.185785714 L41.0054021,0.217357143 C41.4131959,0.422571429 41.3569897,1.21671429 41.3569897,1.71821429 L41.3569897,5.81278571 C41.3569897,6.2985 41.4131959,7.10357143 41.0054021,7.30028571 L41.0054021,7.33185714 L42.5361237,7.33185714 L42.5361237,7.29542857 C42.1283299,7.09871429 42.1773608,6.30578571 42.1773608,5.80792857 L42.1773608,0.941071429 C42.3558807,0.89611684 42.5379632,0.867266564 42.7214845,0.854857143 C43.0229527,0.856844225 43.3091053,0.990017097 43.5073846,1.22060808 C43.705664,1.45119905 43.7970277,1.75706251 43.7583093,2.06064286 C43.7610704,2.86427009 43.1591609,3.53708983 42.3710928,3.61128571 L43.1089485,5.14614286 L44.0859794,6.78421429 C44.2593396,7.13966719 44.6266349,7.35394535 45.0163711,7.327 L45.7542268,7.327 C45.2471352,6.89082663 44.8091099,6.37807348 44.4555052,5.80671429 L43.2978969,3.83957143 C44.0799612,3.5413712 44.5921232,2.77516641 44.5762887,1.92707143 C44.6151572,1.4630452 44.4547111,1.00459138 44.1361823,0.66952488 C43.8176535,0.334458382 43.3720997,0.155449316 42.9140206,0.1785 L41.0054021,0.185785714 Z" id="Path_80"></path>
                            <path d="M47.8733196,4.20507143 L49.8465155,0.185785714 L48.4425567,0.185785714 L48.4425567,0.217357143 C48.8934021,0.511214286 48.7080412,1.03214286 48.5705155,1.30292857 L47.5755464,3.32228571 L46.2911753,0.488142857 C46.1696649,0.274664568 45.9342429,0.15561962 45.6932371,0.185785714 L44.9625567,0.185785714 C45.314736,0.478917407 45.5790379,0.866330028 45.7255258,1.30414286 L47.057732,4.20628571 L47.057732,5.814 C47.057732,6.32278571 47.1139381,7.02828571 46.719299,7.3015 L46.719299,7.33307143 L48.2835052,7.33307143 L48.2835052,7.29542857 C47.8757113,6.8935 47.8757113,6.56685714 47.8757113,5.916 L47.8733196,4.20507143 Z" id="Path_81"></path>
                            <path d="M52.1605361,0.185785714 L52.1605361,0.217357143 C52.5599588,0.434714286 52.5109278,1.22764286 52.5109278,1.71821429 L52.5109278,5.81278571 C52.5109278,6.2985 52.5599588,7.10357143 52.1521649,7.30028571 L52.1521649,7.33185714 L53.7498557,7.33185714 L53.7498557,7.29542857 C53.3229278,6.96878571 53.3301031,6.53528571 53.3301031,5.92814286 L53.3301031,1.02728571 C53.5147273,0.983519389 53.7037745,0.961919087 53.8933608,0.962928571 C54.5355464,0.962928571 55.0318351,1.343 55.0318351,2.29864286 C55.0717664,3.15632206 54.4389871,3.89361423 53.5967835,3.97071429 C53.7726295,4.07894056 53.976143,4.13176427 54.181567,4.1225 C54.6844396,4.09585376 55.1554519,3.86431039 55.4879379,3.48030542 C55.820424,3.09630045 55.9862548,2.59232146 55.9478763,2.0825 C55.985893,1.57342582 55.8057791,1.07244495 55.4537016,0.707969687 C55.101624,0.343494423 54.6118118,0.150958946 54.1098144,0.179714286 L52.1605361,0.185785714 Z" id="Path_82"></path>
                            <path d="M56.2851134,0.185785714 L56.2851134,0.217357143 C56.695299,0.422571429 56.6438763,1.21671429 56.6438763,1.71821429 L56.6438763,5.81278571 C56.6438763,6.2985 56.7000825,7.10357143 56.2851134,7.30028571 L56.2851134,7.33185714 L57.8182268,7.33185714 L57.8182268,7.29542857 C57.410433,7.09871429 57.4594639,6.30578571 57.4594639,5.80792857 L57.4594639,0.941071429 C57.6383294,0.895818374 57.8208354,0.866964429 58.0047835,0.854857143 C58.5405361,0.820857143 59.0380206,1.27621429 59.0380206,2.06064286 C59.0418651,2.86513941 58.4386939,3.53878876 57.6496082,3.61128571 L58.3874639,5.14614286 L59.3680825,6.78421429 C59.5418588,7.13986116 59.9095886,7.35411747 60.2996701,7.327 L61.0375258,7.327 C60.528908,6.89101485 60.0892778,6.37827155 59.7340206,5.80671429 L58.5811959,3.83957143 C59.3620784,3.54046248 59.8727447,2.77434529 59.856,1.92707143 C59.895571,1.46350937 59.7358621,1.00520795 59.417964,0.670081612 C59.1000659,0.334955273 58.6550161,0.155723469 58.1973196,0.1785 L56.2851134,0.185785714 Z" id="Path_83"></path>
                            <path d="M63.4974433,0.00121428571 C61.8136495,-0.0546428571 60.4874227,1.67328571 60.4874227,3.73878571 C60.4874227,5.96457143 61.8303918,7.50307143 63.4161237,7.50307143 C65.0018557,7.50307143 66.3687423,5.89535714 66.3687423,3.67928571 C66.3687423,1.72792857 65.182433,-0.0145714286 63.4974433,0.00121428571 Z M63.4412371,0.783214286 C64.7100619,0.783214286 65.4550928,2.31564286 65.4550928,3.90271429 C65.4550928,5.52014286 64.6789691,6.72471429 63.4567835,6.72471429 C62.1975258,6.72471429 61.4034639,5.16192857 61.4034639,3.63921429 C61.4034639,1.99992857 62.1975258,0.783214286 63.4412371,0.783214286 Z" id="Path_84"></path>
                            <path d="M69.0929485,6.052 L67.8169485,1.326 C67.7137862,0.996796933 67.6409241,0.658585821 67.599299,0.315714286 L67.6076701,0.185785714 L66.4369072,0.185785714 L66.4369072,0.217357143 C66.7601835,0.679351127 66.9742075,1.21080537 67.0623505,1.77042857 L68.2737732,6.21471429 C68.3931405,6.81028397 68.7458114,7.3309972 69.2508041,7.65728571 L71.3722887,0.184571429 L70.1764124,0.184571429 L70.1764124,0.216142857 C70.6750928,0.486928571 70.402433,1.37821429 70.1847835,2.14928571 L69.0929485,6.052 Z" id="Path_85"></path>
                            <path d="M72.0300206,5.81278571 C72.0300206,6.2985 72.0778557,7.10357143 71.678433,7.30028571 L71.678433,7.33185714 L73.2031753,7.33185714 L73.2031753,7.29542857 C72.8001649,7.089 72.8444124,6.29728571 72.8444124,5.80792857 L72.8444124,1.71335714 C72.8444124,1.22764286 72.7965773,0.417714286 73.2031753,0.2125 L73.2031753,0.180928571 L71.678433,0.180928571 L71.678433,0.2125 C72.0862268,0.417714286 72.0300206,1.21185714 72.0300206,1.71335714 L72.0300206,5.81278571 Z" id="Path_86"></path>
                            <path d="M74.1060619,5.76907143 C74.1060619,6.41021429 74.1550928,6.93114286 73.7544742,7.3015 L73.7544742,7.33307143 L75.6798351,7.33307143 C77.4736495,7.33307143 78.6886598,5.83464286 78.6886598,3.69021429 C78.6886598,1.52878571 77.5501856,0.180928571 75.719299,0.180928571 L73.7532784,0.180928571 L73.7532784,0.2125 C74.1610722,0.377642857 74.104866,1.16814286 74.104866,1.66964286 L74.1060619,5.76907143 Z M74.9252371,1.088 C75.1571262,1.01148291 75.3989683,0.970555407 75.6427629,0.966571429 C76.9833402,0.966571429 77.7690309,1.91978571 77.7690309,3.82257143 C77.7690309,5.70228571 76.7035052,6.54990328 75.506433,6.54990328 C75.3086123,6.55114626 75.1115193,6.52541565 74.9204536,6.47335714 L74.9252371,1.088 Z" id="Path_87"></path>
                            <path d="M80.4406186,3.84685714 L81.0385567,3.84685714 C81.2861031,3.84685714 81.6209485,3.83592857 81.7560825,4.15164286 L81.7811959,4.15164286 L81.7811959,3.0005 L81.7560825,3.0005 C81.6477557,3.05689475 81.5254877,3.07969785 81.4044948,3.06607143 L80.4477938,3.06607143 L80.4477938,1.0455 C80.716934,0.987429233 80.9919341,0.962155547 81.2669691,0.970214286 C81.638204,0.917925495 82.0061792,1.08587469 82.2141031,1.4025 L82.2392165,1.4025 L82.2392165,0.133571429 L82.2141031,0.133571429 C82.096291,0.189548729 81.9645972,0.208168111 81.8362062,0.187 L79.2686598,0.187 L79.2686598,0.218571429 C79.6764536,0.423785714 79.6274227,1.21792857 79.6274227,1.71942857 L79.6274227,5.814 C79.6274227,6.29971429 79.6752577,7.10478571 79.2686598,7.3015 L79.2686598,7.33307143 L82.6171134,7.33307143 L82.9758763,5.91114286 L82.9543505,5.91114286 C82.5976802,6.3651578 82.0397614,6.60618594 81.470268,6.55228571 L80.4501856,6.42235714 L80.4406186,3.84685714 Z" id="Path_88"></path>
                            <path d="M84.3654845,1.71821429 L87.116,6.44421429 C87.34938,6.98430599 87.7643769,7.42247795 88.2867629,7.68035714 L88.2867629,1.58828571 C88.2867629,0.981142857 88.2867629,0.547642857 88.7041237,0.218571429 L88.7041237,0.187 L87.2929897,0.187 L87.2929897,0.218571429 C87.7175258,0.546428571 87.7091546,0.981142857 87.7091546,1.58828571 L87.7091546,5.70592857 L84.7720825,0.686071429 L84.6620619,0.469928571 C84.6032207,0.389606621 84.5624033,0.297182778 84.5424742,0.199142857 L84.5424742,0.188214286 L83.3705155,0.188214286 L83.3705155,0.219785714 C83.7854845,0.547642857 83.7854845,0.982357143 83.7854845,1.5895 L83.7854845,5.9245 C83.7854845,6.53164286 83.7854845,6.96757143 83.3621443,7.30392857 L83.3621443,7.3355 L84.7816495,7.3355 L84.7816495,7.29542857 C84.3571134,6.95907143 84.3654845,6.52192857 84.3654845,5.916 L84.3654845,1.71821429 Z" id="Path_89"></path>
                            <path d="M91.0827216,0.971428571 L91.8002474,0.971428571 C92.1040801,0.921448436 92.3979695,1.10556491 92.490268,1.40371429 L92.5153814,1.40371429 L92.7724948,0.114142857 L92.7485773,0.114142857 C92.6334467,0.171138852 92.50567,0.196669072 92.3778557,0.188214286 L89.1860619,0.188214286 C89.0808786,0.179598983 88.9776246,0.154616755 88.8799175,0.114142857 L88.856,0.114142857 L88.5773608,1.40371429 L88.6012784,1.40371429 C88.8377958,1.11797325 89.1905955,0.958560568 89.5579794,0.971428571 L90.2659381,0.971428571 L90.2659381,5.81642857 C90.2659381,6.30214286 90.3113814,7.0975 89.9071753,7.30392857 L89.9071753,7.3355 L91.495299,7.3355 L91.495299,7.30392857 C91.0707629,6.96757143 91.079134,6.54378571 91.079134,5.9245 L91.0827216,0.971428571 Z" id="Path_90"></path>
                            <path d="M96.2764124,3.84685714 L96.8743505,3.84685714 C97.1218969,3.84685714 97.4567423,3.825 97.5918763,4.15164286 L97.6157938,4.15164286 L97.6157938,3.0005 L97.5918763,3.0005 C97.4860984,3.05552598 97.3668998,3.07829886 97.2486598,3.06607143 L96.2835876,3.06607143 L96.2835876,1.0455 C96.5527465,0.987554644 96.8277318,0.962282317 97.1027629,0.970214286 C97.4720033,0.918196552 97.838544,1.08220155 98.0498969,1.394 L98.0750103,1.394 L98.0750103,0.133571429 L98.0498969,0.133571429 C97.9321061,0.189621922 97.8003902,0.208244447 97.672,0.187 L95.1056495,0.187 L95.1056495,0.218571429 C95.5134433,0.423785714 95.4644124,1.21792857 95.4644124,1.71942857 L95.4644124,5.814 C95.4644124,6.29971429 95.5122474,7.10478571 95.1056495,7.3015 L95.1056495,7.33307143 L96.618433,7.33307143 L96.618433,7.3015 C96.2190103,7.09507143 96.2835876,6.30335714 96.2835876,5.814 L96.2764124,3.84685714 Z" id="Path_91"></path>
                            <path d="M102.167299,7.33307143 L103.348825,7.33307143 L103.348825,7.29542857 C102.937443,7.089 102.990062,6.29728571 102.990062,5.80792857 L102.990062,1.71335714 C102.990062,1.21185714 102.942227,0.417714286 103.348825,0.2125 L103.340454,0.180928571 L101.815711,0.180928571 L101.815711,0.2125 C102.215134,0.417714286 102.166103,1.21185714 102.166103,1.69878571 L102.166103,4.97007143 C102.202348,5.30947913 102.14392,5.65239791 101.997485,5.95971429 C101.779958,6.41656783 101.327599,6.71010182 100.827918,6.71864286 C100.002763,6.71864286 99.5519175,6.04592857 99.5519175,4.59971429 L99.5519175,1.70971429 C99.5519175,1.224 99.5040825,0.428642857 99.9106804,0.223428571 L99.9106804,0.191857143 L98.3835464,0.191857143 L98.3835464,0.223428571 C98.7961237,0.428642857 98.7423093,1.22278571 98.7423093,1.70971429 L98.7423093,4.61185714 C98.6563892,5.35115556 98.8002242,6.09923333 99.1536907,6.75142857 C99.4816807,7.23666255 100.02714,7.52293562 100.60668,7.514 C101.249318,7.5243608 101.848304,7.18482115 102.176866,6.62392857 L102.167299,7.33307143 Z" id="Path_92"></path>
                            <path d="M104.914227,1.71821429 L107.664742,6.44421429 C107.900241,6.98408256 108.316229,7.42195865 108.839093,7.68035714 L108.839093,1.58828571 C108.839093,0.981142857 108.839093,0.547642857 109.255258,0.218571429 L109.255258,0.187 L107.841732,0.187 L107.841732,0.218571429 C108.26866,0.546428571 108.257897,0.981142857 108.257897,1.58828571 L108.257897,5.70592857 L105.323216,0.686071429 L105.210804,0.469928571 C105.153068,0.388953368 105.112361,0.296779641 105.091216,0.199142857 L105.091216,0.188214286 L103.921649,0.188214286 L103.921649,0.219785714 C104.337814,0.547642857 104.337814,0.982357143 104.337814,1.5895 L104.337814,5.9245 C104.337814,6.53164286 104.337814,6.96757143 103.913278,7.30392857 L103.913278,7.3355 L105.332784,7.3355 L105.332784,7.29542857 C104.907052,6.95907143 104.915423,6.52192857 104.915423,5.916 L104.914227,1.71821429 Z" id="Path_93"></path>
                            <path d="M110.069649,5.76907143 C110.069649,6.41021429 110.115093,6.93114286 109.710887,7.3015 L109.710887,7.33307143 L111.637443,7.33307143 C113.431258,7.33307143 114.643876,5.83464286 114.643876,3.69021429 C114.643876,1.52878571 113.505402,0.180928571 111.678103,0.180928571 L109.714474,0.180928571 L109.714474,0.2125 C110.125856,0.377642857 110.073237,1.16814286 110.073237,1.66964286 L110.069649,5.76907143 Z M110.887629,1.088 C111.119526,1.01151825 111.361363,0.97059163 111.605155,0.966571429 C112.944536,0.966571429 113.731423,1.91978571 113.731423,3.82257143 C113.731423,5.70228571 112.662309,6.54989093 111.467629,6.54989093 C111.26982,6.55095633 111.072751,6.52522896 110.881649,6.47335714 L110.887629,1.088 Z" id="Path_94"></path>
                        </g>
                    </g>
                </g>
            </g>
        </g>
    </g>
</svg>