<?xml version="1.0" encoding="utf-8"?>
<!-- Generator: Adobe Illustrator 24.2.1, SVG Export Plug-In . SVG Version: 6.00 Build 0)  -->
<svg version="1.1" id="Layer_1" xmlns="http://www.w3.org/2000/svg" xmlns:xlink="http://www.w3.org/1999/xlink" x="0px" y="0px"
	 viewBox="0 0 152.9 64.3" style="enable-background:new 0 0 152.9 64.3;" xml:space="preserve">
<style type="text/css">
	.st0{fill:none;}
	.st1{fill:#6C6F70;}
	.st2{fill:#2E3A8F;}
</style>
<rect x="0.3" y="2.4" class="st0" width="147.4" height="56.7"/>
<path class="st1" d="M54.8,15.2h4.5c1.8,0,4.5,0.6,4.6,3.7c0,1.9-1.4,3.7-4.4,4v4.3c2.9,0.1,5.3,2,5.3,4.6c0,2.7-1.9,4.8-5.5,4.8
	h-4.5L54.8,15.2L54.8,15.2z M50.1,40.8l8.9,0.1c3,0,5-0.6,6.6-1.7c2.4-1.6,3.5-4.1,3.7-6.7c0.3-3-2.1-6.9-5.7-7.6
	c3.4-1,4.7-3.7,4.7-6.2c0.1-4.8-4.2-7.8-8.7-7.8h-9.6V40.8L50.1,40.8z M13.2,6.8l5.9,4.2h-0.4c-3.9,0.3-7.1,1.4-10.1,4.7
	c-2.2,2.4-3.9,6.3-3.8,10.7c0.1,4,2.6,10.9,9.5,13.4c2.2,0.8,4.9,1,8.1,1h8.1v-0.4c-0.5-0.1-0.7-0.1-0.7-1l-0.1-22.5
	c0-0.1,0.1-0.2,0.2,0c0.2,0.6,0.8,1.4,0.9,1.7l13.6,22.2h4.8V11h-5.5v0.4c0.4,0.1,0.8,0.6,0.8,1.1v19.3c0,0.2-0.1,0.3-0.2,0.1
	c-0.3-0.9-0.7-1.5-0.9-1.9L31.6,11h-7.4v0.4c0.5,0.1,0.8,0.5,0.8,1.1L25,36.6c-2.8-0.1-6.2,0.2-8.8-0.7c-4-1.5-6.8-5.9-6.8-10.2
	c0.1-4,2.2-7.4,5.7-9.3c1.9-1.1,5.3-1.5,6.8-1.2c0.6,0.1,0.8,0.2,1,0.6h0.4V11h-3l6-4l-1.7-2.5l-4.9,3.3l-4.7-3.4L13.2,6.8z"/>
<g>
	<path class="st2" d="M77.7,56l0.1-10.2c0-0.4-0.2-0.4-0.4-0.5v-0.1h2.4c0,0.1,0,0.3,0,0.4c0.1,0.1,0.1,0.1,0.1,0.3l4.4,7.3
		c0.2,0.4,0.4,0.7,0.6,1.2c0.1,0.2,0.1,0.1,0.1,0.1c-0.1-0.1-0.1-0.4-0.1-0.4v-7.8c0-0.4-0.1-0.6-0.3-0.7v-0.1h1.8v0.1
		c-0.1,0.1-0.3,0.4-0.3,0.7v10.7H85c0-0.1,0-0.1,0-0.2c0-0.1-0.1-0.1-0.1-0.1l-5.7-9.6c-0.1-0.2-0.2-0.5-0.3-0.6l0,0
		c0,0.1,0,0.4,0,0.5V56c0,0.3,0.1,0.5,0.3,0.6v0.1h-1.8v-0.1C77.7,56.5,77.7,56.3,77.7,56z"/>
	<path class="st2" d="M84.2,40.4v-10c0-0.3-0.1-0.5-0.4-0.5v-0.1H89v1.5h-0.1C88.8,31,88.5,31,88.2,31h-2.7v3.5h2.8
		c0.5,0,0.5-0.2,0.6-0.3H89V36h-0.1c-0.1-0.1-0.4-0.3-0.7-0.3h-2.7l-0.1,4.5h3c0.3,0,0.4-0.2,0.5-0.4H89v1.4c0,0,0,0-0.1,0h-0.1h-5
		v-0.1C84,41.1,84.2,41,84.2,40.4z"/>
	<path class="st2" d="M95.5,31.2v-1.4c-1-0.3-2.5-0.4-3.5,0.2c-1.1,0.8-1.4,2.3-0.6,3.6c0.5,0.9,1.4,1.7,2.2,2.5
		c0.8,0.9,1.8,1.9,0.9,3.3c-0.4,0.7-1.6,0.9-2.3,0.8c-0.3,0-0.6-0.1-0.9-0.2c-0.2-0.1-0.2-0.2-0.3-0.4H91v1.5c0.9,0.2,1.4,0.3,2,0.3
		c2,0,3-1.3,3.2-2.7c0.2-1.2-0.4-2.2-1.2-3c-0.2-0.1-0.4-0.4-0.6-0.5c-0.3-0.4-0.7-0.8-1.2-1.2c-0.6-0.6-1.2-1.4-1-2.1
		c0.1-0.9,1-1.2,1.7-1.2C94.6,30.7,95.3,30.8,95.5,31.2L95.5,31.2z"/>
	<path class="st2" d="M98,40.7V30.4c0-0.2-0.1-0.5-0.4-0.5v-0.1h1.9v0.1c-0.1,0-0.4,0.2-0.4,0.4v10.3c0,0.3,0.1,0.6,0.4,0.6v0.1
		h-1.9v-0.1C97.8,41.1,98,41,98,40.7L98,40.7z M99.4,35.2l0.2,0.1l3.5,5.6c0.1,0.1,0.2,0.2-0.1,0.3v0.1h2v-0.1
		c-0.1-0.1-0.3-0.1-0.4-0.3L101,35l3.2-4.8c0-0.1,0.1-0.2,0.2-0.2v-0.1h-1.9v0.1c0.3,0,0.2,0.2,0.1,0.4L99.4,35.2z"/>
	<path class="st2" d="M105.1,40.7l3.2-10.1c0.1-0.2,0.1-0.8-0.1-0.8v-0.1h2.8v0.1c-0.1,0.1-0.2,0.5-0.1,0.9l3.2,10.2
		c0,0.1,0.2,0.4,0.4,0.4v0.1h-1.8v-0.1c0.1,0,0.2-0.2,0.1-0.4l-0.9-3h-4.8l-0.9,2.9c-0.1,0.3-0.1,0.5,0.1,0.5v0.1h-1.7v-0.1
		C104.9,41.2,105,40.9,105.1,40.7L105.1,40.7z M109.6,30.4c0,0.1-0.1,0.4-0.1,0.4l-1.9,5.8h4l-1.9-5.8
		C109.7,30.8,109.6,30.6,109.6,30.4C109.6,30.4,109.6,30.4,109.6,30.4L109.6,30.4z M108.6,28.5l3-1.3l0.4,1l-3,1.1L108.6,28.5z"/>
	<path class="st2" d="M24.6,56V45.8c0-0.4-0.1-0.4-0.3-0.5v-0.1h2.4c-0.1,0.1-0.1,0.3,0,0.4c0,0.1,0.1,0.1,0.1,0.3l4.4,7.3
		c0.2,0.4,0.4,0.7,0.6,1.2c0.1,0.2,0.1,0.1,0.1,0.1c0-0.1,0-0.4,0-0.4v-7.8c0-0.4-0.2-0.6-0.3-0.7v-0.1h1.7v0.1
		c-0.1,0.1-0.3,0.4-0.3,0.7v10.7h-1.4c0.1-0.1,0.1-0.1,0.1-0.2c0-0.1-0.1-0.1-0.1-0.1L26,46.8c-0.1-0.2-0.2-0.5-0.2-0.6h-0.1
		c0,0.1,0.1,0.4,0.1,0.5V56c0,0.3,0,0.5,0.3,0.6v0.1h-1.8v-0.1C24.5,56.5,24.6,56.3,24.6,56z"/>
	<g>
		<polygon class="st2" points="38.1,43.9 41.2,42.6 41.6,43.5 38.5,44.7 		"/>
		<path class="st2" d="M34.7,56.1L37.9,46c0.1-0.2,0.1-0.8-0.1-0.8v-0.1h2.8v0.1c-0.2,0.1-0.2,0.5-0.1,0.9l3.2,10.2
			c0.1,0.1,0.3,0.4,0.4,0.4v0.1h-1.7v-0.1c0.1,0,0.1-0.2,0.1-0.4l-0.9-3h-4.8l-0.9,2.9c-0.1,0.3,0,0.4,0.1,0.5v0.1h-1.7v-0.1
			C34.5,56.6,34.6,56.3,34.7,56.1L34.7,56.1z M39.2,45.8c0,0.1-0.1,0.4-0.1,0.4l-1.8,5.8h4l-1.9-5.8C39.3,46.1,39.2,46,39.2,45.8
			C39.2,45.8,39.2,45.8,39.2,45.8z"/>
	</g>
	<path class="st2" d="M45.4,55.8v-10c0-0.3-0.1-0.4-0.4-0.4v-0.1H47c0.9,0,1.6,0.1,2.2,0.4c1.2,0.6,1.9,1.7,1.8,3.1
		c0,1.2-0.9,2.4-2.2,2.7c-0.1,0.1-0.1,0.1,0,0.1c0.4,0.3,0.8,0.8,1,1.2l2.2,3.6c0.1,0.1,0.2,0.3,0.3,0.4v0.1h-1.7
		c0-0.1,0.1-0.4,0-0.4l-1-1.7l-1.2-1.9c-0.2-0.4-0.6-1-1.3-1h-0.5v4.2c0,0.3,0,0.6,0.2,0.6v0.1h-1.8l0,0
		C45.3,56.6,45.4,56.3,45.4,55.8L45.4,55.8z M46.6,50.6c1,0.1,2-0.1,2.7-0.7c0.5-0.5,0.6-1.5,0.4-2.2c-0.3-0.8-0.9-1.2-1.9-1.3
		c-0.4-0.1-0.7-0.1-1.2-0.1V50.6z"/>
	<path class="st2" d="M59.4,44.9c3.4,0,6.1,2.7,6.1,6.1s-2.7,6.1-6.1,6.1c-3.4,0-6.1-2.7-6.1-6.1S56,44.9,59.4,44.9L59.4,44.9z
		 M59.5,46.1c-2.7,0-5,2.2-5,5c0,2.7,2.2,4.9,5,4.9c2.7,0,4.9-2.2,4.9-4.9C64.4,48.3,62.1,46.1,59.5,46.1z"/>
	<path class="st2" d="M68.8,55.6v-9.3H70c0.8,0,1.6,0.2,2.3,0.6c1.1,0.6,2.2,2.2,2.2,4c0,2.5-1.8,4.7-4.8,4.7H68.8L68.8,55.6z
		 M67.6,45.9v9.9c0,0.3-0.1,0.8-0.4,0.8v0.1h3c1.6,0,3.2-0.7,4.1-1.8c1-1.2,1.6-2.8,1.5-4.3c-0.1-1.1-0.4-2.2-1-3.1
		c-1.1-1.5-2.5-2.4-4.5-2.4h-3v0.1C67.4,45.3,67.6,45.7,67.6,45.9z"/>
	<path class="st2" d="M88.8,43.9l3-1.3l0.4,0.9l-3,1.2L88.8,43.9L88.8,43.9z M89.4,56.1V45.9c0-0.5-0.1-0.6-0.1-0.6v-0.1h1.6v0.1
		c-0.1,0.1-0.2,0.2-0.2,0.4v10.4c0,0.4,0.1,0.5,0.2,0.6v0.1h-1.7v-0.1C89.3,56.5,89.4,56.4,89.4,56.1z"/>
	<path class="st2" d="M98,55.8v-9.9c0-0.3-0.2-0.4-0.4-0.4v-0.1h2.7c2.2,0,3.4,1.4,3.3,2.8c0,1.1-0.6,2-1.5,2.4
		c-0.1,0.1-0.3,0.1-0.3,0.1c0,0.1,0.1,0,0.4,0.1c0.6,0.4,1.8,0.9,1.9,2.8c0,1.9-1.5,3.2-3.5,3.2h-3v-0.1C97.9,56.5,98,56.1,98,55.8
		L98,55.8z M99.2,50l1.1-0.1c1.3,0,2.2-0.8,2.2-2c-0.1-1-1.2-1.6-1.9-1.6h-1.3V50L99.2,50z M99.2,51.1v4.5h0.9
		c1.9,0,2.7-0.7,2.7-2.3c-0.1-1.3-1.2-2.2-2.5-2.2H99.2z"/>
	<path class="st2" d="M104.8,56l3.2-10.1c0.1-0.3,0.1-0.8-0.1-0.9V45h2.8v0.1c-0.1,0.1-0.2,0.4-0.1,0.8l3.2,10.2
		c0,0.1,0.2,0.4,0.4,0.4v0.1h-1.8v-0.1c0.1-0.1,0.1-0.3,0.1-0.4l-0.9-3H107l-0.9,2.8c-0.1,0.4-0.1,0.5,0.1,0.6v0.1h-1.7v-0.1
		C104.6,56.5,104.7,56.2,104.8,56L104.8,56z M109.3,45.8c0,0.1-0.1,0.3-0.1,0.4l-1.9,5.8h4l-1.9-5.9
		C109.5,46.1,109.4,45.9,109.3,45.8C109.4,45.7,109.4,45.7,109.3,45.8z"/>
	<path class="st2" d="M115.4,56V45.8c0-0.4-0.1-0.4-0.3-0.5v-0.1h2.4c0,0.1-0.1,0.3,0,0.4c0,0.1,0.1,0.1,0.1,0.3l4.4,7.3
		c0.2,0.4,0.4,0.7,0.6,1.2c0.1,0.2,0.1,0.1,0.1,0.1c0-0.1,0-0.4,0-0.4v-7.8c0-0.4-0.2-0.6-0.3-0.7v-0.1h1.7v0.1
		c-0.1,0.1-0.3,0.4-0.3,0.7v10.7h-1.4c0.1-0.1,0.1-0.1,0.1-0.2c0-0.1-0.1-0.1-0.1-0.1l-5.8-9.6c-0.1-0.2-0.2-0.5-0.2-0.6h-0.1
		c0,0.1,0.1,0.4,0.1,0.5V56c0,0.3,0,0.5,0.3,0.6v0.1h-1.8v-0.1C115.3,56.5,115.4,56.3,115.4,56z"/>
	<path class="st2" d="M127,56.1V45.8c0-0.2-0.1-0.5-0.4-0.5v-0.1h1.9v0.1c-0.1,0.1-0.4,0.3-0.4,0.5l0.1,10.3c0,0.3,0.1,0.6,0.3,0.6
		v0.1h-1.9v-0.1C126.8,56.5,127,56.3,127,56.1L127,56.1z M128.4,50.6h0.2l3.5,5.6c0,0.1,0.1,0.3-0.1,0.4v0.1h2v-0.1
		c-0.1-0.1-0.3-0.2-0.4-0.4l-3.7-5.8l3.2-4.9c0-0.1,0.1-0.1,0.2-0.2v-0.1h-1.9v0.1c0.3,0,0.2,0.3,0.1,0.4L128.4,50.6z"/>
	<path class="st2" d="M133.8,56.1l3.2-10.1c0.1-0.2,0.1-0.8-0.1-0.8v-0.1h2.8v0.1c-0.2,0.1-0.2,0.5-0.1,0.9l3.2,10.2
		c0.1,0.1,0.3,0.4,0.4,0.4v0.1h-1.7v-0.1c0.1,0,0.1-0.2,0.1-0.4l-0.9-3H136l-0.9,2.9c-0.1,0.3,0,0.4,0.1,0.5v0.1h-1.7v-0.1
		C133.6,56.6,133.8,56.3,133.8,56.1L133.8,56.1z M138.3,45.8c0,0.1-0.1,0.4-0.1,0.4l-1.8,5.8h4l-1.9-5.8
		C138.4,46.1,138.4,46,138.3,45.8C138.4,45.8,138.3,45.8,138.3,45.8z"/>
	<g>
		<path class="st2" d="M82,31.1h-0.1c-0.1-0.4-0.6-0.4-1.1-0.5c-0.4-0.1-1.3,0-1.9,0.2c-0.9,0.3-1.4,0.6-2,1.2
			c-0.7,0.6-1.4,1.6-1.4,3.1c0,0.9,0.1,1.9,0.9,3c1.1,1.5,3,2.3,4.8,2c0.4,0,0.7-0.1,0.8-0.4h0.1L82,41.2c-1.8,0.4-4.2,0.1-5.9-1.5
			c-0.9-0.9-1.6-2.2-1.8-3.6c-0.1-1.2,0-2.2,0.4-3.1c0.7-1.6,2.2-2.8,3.8-3.2c1.1-0.4,2.3-0.3,3.5-0.1V31.1z"/>
		<polygon class="st2" points="78,27.8 78.5,27.1 80,28.1 81.6,27 82.1,27.7 80,29.1 		"/>
	</g>
</g>
</svg>
