<?xml version="1.0" encoding="UTF-8"?><svg id="Layer_2" xmlns="http://www.w3.org/2000/svg" viewBox="0 0 524.55 143.53"><defs><style>.cls-1{fill:#023737;}.cls-2{fill:#aac408;}.cls-3{fill:#231f20;}.cls-4{fill:#7a9f98;}</style></defs><g id="Layer_1-2"><path class="cls-3" d="m138.1,93.83c0-3.25,2.45-5.85,5.9-5.85,2.08,0,3.91,1.08,4.86,2.74l-1.3.76c-.64-1.24-2.01-2.05-3.56-2.05-2.64,0-4.41,1.92-4.41,4.4s1.77,4.38,4.41,4.38c1.55,0,2.91-.8,3.56-2.03l1.3.74c-.93,1.66-2.77,2.75-4.86,2.75-3.45,0-5.9-2.61-5.9-5.85Z"/><path class="cls-3" d="m158.92,91.41v8.05h-1.4v-1.39c-.64.98-1.67,1.59-3.04,1.59-2.24,0-4.08-1.85-4.08-4.24s1.84-4.24,4.08-4.24c1.37,0,2.4.61,3.04,1.59v-1.38h1.4Zm-1.4,4.03c0-1.64-1.24-2.88-2.87-2.88s-2.85,1.24-2.85,2.88,1.24,2.88,2.85,2.88,2.87-1.24,2.87-2.88Z"/><path class="cls-3" d="m168.66,94.52v4.94h-1.4v-4.86c0-1.32-.76-2.06-2-2.06s-2.34.76-2.34,2.66v4.27h-1.4v-8.05h1.4v1.16c.6-.95,1.48-1.37,2.61-1.37,1.88,0,3.12,1.26,3.12,3.32Z"/><path class="cls-3" d="m179.15,91.41v8.05h-1.4v-1.39c-.64.98-1.67,1.59-3.04,1.59-2.24,0-4.08-1.85-4.08-4.24s1.84-4.24,4.08-4.24c1.37,0,2.4.61,3.04,1.59v-1.38h1.4Zm-1.4,4.03c0-1.64-1.24-2.88-2.87-2.88s-2.85,1.24-2.85,2.88,1.24,2.88,2.85,2.88,2.87-1.24,2.87-2.88Z"/><path class="cls-3" d="m189.83,88.19v11.27h-1.4v-1.39c-.64.98-1.67,1.59-3.04,1.59-2.24,0-4.08-1.85-4.08-4.24s1.84-4.24,4.08-4.24c1.37,0,2.4.61,3.04,1.59v-4.61h1.4Zm-1.4,7.25c0-1.64-1.24-2.88-2.87-2.88s-2.85,1.24-2.85,2.88,1.24,2.88,2.85,2.88,2.87-1.24,2.87-2.88Z"/><path class="cls-3" d="m192.19,89.01c0-.52.42-.95.95-.95s.93.43.93.95-.42.93-.93.93-.95-.42-.95-.93Zm.24,2.4h1.4v8.05h-1.4v-8.05Z"/><path class="cls-3" d="m204.52,91.41v8.05h-1.4v-1.39c-.64.98-1.67,1.59-3.04,1.59-2.24,0-4.08-1.85-4.08-4.24s1.84-4.24,4.08-4.24c1.37,0,2.4.61,3.04,1.59v-1.38h1.4Zm-1.4,4.03c0-1.64-1.24-2.88-2.87-2.88s-2.85,1.24-2.85,2.88,1.24,2.88,2.85,2.88,2.87-1.24,2.87-2.88Z"/><path class="cls-3" d="m214.26,94.52v4.94h-1.4v-4.86c0-1.32-.76-2.06-2-2.06s-2.34.76-2.34,2.66v4.27h-1.4v-8.05h1.4v1.16c.6-.95,1.48-1.37,2.61-1.37,1.88,0,3.12,1.26,3.12,3.32Z"/><path class="cls-3" d="m222.84,88.19v11.27h-1.5v-11.27h1.5Z"/><path class="cls-3" d="m232.73,94.52v4.94h-1.4v-4.86c0-1.32-.76-2.06-2-2.06s-2.34.76-2.34,2.66v4.27h-1.4v-8.05h1.4v1.16c.6-.95,1.48-1.37,2.61-1.37,1.88,0,3.12,1.26,3.12,3.32Z"/><path class="cls-3" d="m242.2,91.41l-3.22,8.05h-1.64l-3.22-8.05h1.51l2.53,6.55,2.53-6.55h1.51Z"/><path class="cls-3" d="m247.44,98.35c1.11,0,1.92-.52,2.32-1.18l1.19.68c-.71,1.1-1.93,1.82-3.54,1.82-2.59,0-4.32-1.82-4.32-4.24s1.71-4.24,4.22-4.24,4.01,2,4.01,4.25c0,.21-.02.42-.05.63h-6.75c.27,1.45,1.42,2.27,2.91,2.27Zm-2.91-3.49h5.38c-.24-1.59-1.38-2.33-2.59-2.33-1.52,0-2.56.93-2.79,2.33Z"/><path class="cls-3" d="m258.81,97.26c0,1.5-1.29,2.42-3.01,2.42-1.61,0-2.74-.77-3.2-1.88l1.21-.69c.26.77,1,1.26,2,1.26.85,0,1.59-.31,1.59-1.1,0-1.72-4.51-.74-4.51-3.66,0-1.42,1.22-2.4,2.85-2.4,1.32,0,2.38.63,2.9,1.67l-1.18.66c-.31-.72-1.01-1.03-1.72-1.03s-1.43.35-1.43,1.08c0,1.72,4.51.71,4.51,3.67Z"/><path class="cls-3" d="m262.86,92.77v4.36c0,1.22.71,1.14,2.14,1.08v1.26c-2.42.32-3.54-.32-3.54-2.34v-4.36h-1.59v-1.35h1.59v-1.84l1.4-.42v2.25h2.14v1.35h-2.14Z"/><path class="cls-3" d="m278.92,94.46v5.01h-1.4v-4.96c0-1.27-.71-1.97-1.77-1.97-1.13,0-1.98.71-1.98,2.45v4.48h-1.4v-4.96c0-1.27-.66-1.97-1.71-1.97s-2.06.71-2.06,2.45v4.48h-1.4v-8.05h1.4v1.08c.58-.9,1.42-1.29,2.4-1.29,1.1,0,1.9.5,2.37,1.37.56-.92,1.48-1.37,2.53-1.37,1.79,0,3.03,1.24,3.03,3.25Z"/><path class="cls-3" d="m285.24,98.35c1.11,0,1.92-.52,2.32-1.18l1.19.68c-.71,1.1-1.93,1.82-3.54,1.82-2.59,0-4.32-1.82-4.32-4.24s1.71-4.24,4.22-4.24,4.01,2,4.01,4.25c0,.21-.01.42-.05.63h-6.75c.27,1.45,1.42,2.27,2.92,2.27Zm-2.92-3.49h5.38c-.24-1.59-1.38-2.33-2.59-2.33-1.51,0-2.56.93-2.79,2.33Z"/><path class="cls-3" d="m298.35,94.52v4.94h-1.4v-4.86c0-1.32-.76-2.06-2-2.06s-2.34.76-2.34,2.66v4.27h-1.4v-8.05h1.4v1.16c.6-.95,1.48-1.37,2.61-1.37,1.88,0,3.12,1.26,3.12,3.32Z"/><path class="cls-3" d="m303.01,92.77v4.36c0,1.22.71,1.14,2.14,1.08v1.26c-2.42.32-3.54-.32-3.54-2.34v-4.36h-1.59v-1.35h1.59v-1.84l1.4-.42v2.25h2.14v1.35h-2.14Z"/><path class="cls-3" d="m142.85,115.46h-2.66v4.32h-1.5v-11.27h4.51c1.93,0,3.51,1.56,3.51,3.49,0,1.48-.98,2.79-2.34,3.27l2.66,4.51h-1.66l-2.53-4.32Zm-2.66-1.35h3.01c1.11,0,2.01-.95,2.01-2.11s-.9-2.09-2.01-2.09h-3.01v4.2Z"/><path class="cls-3" d="m152.36,118.67c1.11,0,1.92-.52,2.32-1.18l1.19.68c-.71,1.1-1.93,1.82-3.54,1.82-2.59,0-4.32-1.82-4.32-4.24s1.71-4.24,4.22-4.24,4.01,2,4.01,4.25c0,.21-.02.42-.05.63h-6.75c.27,1.45,1.42,2.27,2.91,2.27Zm-2.91-3.49h5.38c-.24-1.59-1.38-2.33-2.59-2.33-1.52,0-2.56.93-2.79,2.33Z"/><path class="cls-3" d="m166.39,111.73v7.71c0,2.51-2.01,3.77-4.11,3.77-1.8,0-3.16-.69-3.82-1.97l1.22-.69c.37.76,1.05,1.35,2.63,1.35,1.67,0,2.69-.95,2.69-2.46v-1.14c-.64.98-1.67,1.61-3.03,1.61-2.29,0-4.11-1.85-4.11-4.2s1.82-4.19,4.11-4.19c1.35,0,2.38.61,3.03,1.59v-1.38h1.38Zm-1.38,3.98c0-1.61-1.24-2.85-2.87-2.85s-2.87,1.24-2.87,2.85,1.24,2.87,2.87,2.87,2.87-1.24,2.87-2.87Z"/><path class="cls-3" d="m175.95,111.73v8.05h-1.4v-1.16c-.6.95-1.48,1.37-2.61,1.37-1.89,0-3.12-1.26-3.12-3.32v-4.94h1.4v4.86c0,1.32.76,2.06,2,2.06s2.34-.76,2.34-2.66v-4.27h1.4Z"/><path class="cls-3" d="m178.56,108.02h1.4v11.76h-1.4v-11.76Z"/><path class="cls-3" d="m190.65,111.73v8.05h-1.4v-1.39c-.64.98-1.67,1.59-3.04,1.59-2.24,0-4.08-1.85-4.08-4.24s1.84-4.24,4.08-4.24c1.37,0,2.4.61,3.04,1.59v-1.38h1.4Zm-1.4,4.03c0-1.64-1.24-2.88-2.87-2.88s-2.85,1.24-2.85,2.88,1.24,2.88,2.85,2.88,2.87-1.24,2.87-2.88Z"/><path class="cls-3" d="m195.49,113.08v4.36c0,1.22.71,1.14,2.14,1.08v1.26c-2.42.32-3.54-.32-3.54-2.34v-4.36h-1.59v-1.35h1.59v-1.84l1.4-.42v2.25h2.14v1.35h-2.14Z"/><path class="cls-3" d="m198.92,115.75c0-2.38,1.89-4.24,4.24-4.24s4.25,1.85,4.25,4.24-1.9,4.24-4.25,4.24-4.24-1.85-4.24-4.24Zm7.09,0c0-1.63-1.24-2.87-2.85-2.87s-2.83,1.24-2.83,2.87,1.24,2.87,2.83,2.87,2.85-1.24,2.85-2.87Z"/><path class="cls-3" d="m213.46,111.58v1.47c-1.21-.05-2.51.56-2.51,2.46v4.27h-1.4v-8.05h1.4v1.35c.52-1.13,1.5-1.5,2.51-1.5Z"/><path class="cls-3" d="m222.6,111.73l-3.28,8.55c-.68,1.8-1.93,2.83-3.57,2.72v-1.3c1.08.08,1.75-.58,2.17-1.64l.15-.31-3.51-8.02h1.5l2.74,6.31,2.32-6.31h1.5Z"/><path class="cls-3" d="m138.1,134.46c0-3.25,2.56-5.85,5.83-5.85s5.85,2.59,5.85,5.85-2.58,5.85-5.85,5.85-5.83-2.61-5.83-5.85Zm10.18,0c0-2.48-1.88-4.4-4.35-4.4s-4.35,1.92-4.35,4.4,1.88,4.38,4.35,4.38,4.35-1.92,4.35-4.38Z"/><path class="cls-3" d="m155.82,131.9v1.47c-1.21-.05-2.51.56-2.51,2.46v4.27h-1.4v-8.05h1.4v1.35c.52-1.13,1.5-1.5,2.51-1.5Z"/><path class="cls-3" d="m165.31,132.04v7.71c0,2.51-2.01,3.77-4.11,3.77-1.8,0-3.16-.69-3.82-1.97l1.22-.69c.37.76,1.05,1.35,2.63,1.35,1.67,0,2.69-.95,2.69-2.46v-1.14c-.64.98-1.67,1.61-3.03,1.61-2.29,0-4.11-1.85-4.11-4.2s1.82-4.19,4.11-4.19c1.35,0,2.38.61,3.03,1.59v-1.38h1.38Zm-1.38,3.98c0-1.61-1.24-2.85-2.87-2.85s-2.87,1.24-2.87,2.85,1.24,2.87,2.87,2.87,2.87-1.24,2.87-2.87Z"/><path class="cls-3" d="m175.98,132.04v8.05h-1.4v-1.39c-.64.98-1.67,1.59-3.04,1.59-2.24,0-4.08-1.85-4.08-4.24s1.84-4.24,4.08-4.24c1.37,0,2.4.61,3.04,1.59v-1.38h1.4Zm-1.4,4.03c0-1.64-1.24-2.88-2.87-2.88s-2.85,1.24-2.85,2.88,1.24,2.88,2.85,2.88,2.87-1.24,2.87-2.88Z"/><path class="cls-3" d="m185.72,135.15v4.94h-1.4v-4.86c0-1.32-.76-2.06-2-2.06s-2.34.76-2.34,2.66v4.27h-1.4v-8.05h1.4v1.16c.6-.95,1.48-1.37,2.61-1.37,1.88,0,3.12,1.26,3.12,3.32Z"/><path class="cls-3" d="m187.91,129.64c0-.52.42-.95.95-.95s.93.43.93.95-.42.93-.93.93-.95-.42-.95-.93Zm.24,2.4h1.4v8.05h-1.4v-8.05Z"/><path class="cls-3" d="m198.08,138.76v1.34h-6.2v-.93l4.11-5.78h-3.94v-1.34h5.88v.93l-4.12,5.78h4.28Z"/><path class="cls-3" d="m207.81,132.04v8.05h-1.4v-1.39c-.64.98-1.67,1.59-3.04,1.59-2.24,0-4.08-1.85-4.08-4.24s1.84-4.24,4.08-4.24c1.37,0,2.4.61,3.04,1.59v-1.38h1.4Zm-1.4,4.03c0-1.64-1.24-2.88-2.87-2.88s-2.85,1.24-2.85,2.88,1.24,2.88,2.85,2.88,2.87-1.24,2.87-2.88Z"/><path class="cls-3" d="m212.65,133.4v4.36c0,1.22.71,1.14,2.14,1.08v1.26c-2.42.32-3.54-.32-3.54-2.34v-4.36h-1.59v-1.35h1.59v-1.84l1.4-.42v2.25h2.14v1.35h-2.14Z"/><path class="cls-3" d="m216.69,129.64c0-.52.42-.95.95-.95s.93.43.93.95-.42.93-.93.93-.95-.42-.95-.93Zm.24,2.4h1.4v8.05h-1.4v-8.05Z"/><path class="cls-3" d="m220.51,136.07c0-2.38,1.89-4.24,4.24-4.24s4.25,1.85,4.25,4.24-1.9,4.24-4.25,4.24-4.24-1.85-4.24-4.24Zm7.09,0c0-1.63-1.24-2.87-2.85-2.87s-2.83,1.24-2.83,2.87,1.24,2.87,2.83,2.87,2.85-1.24,2.85-2.87Z"/><path class="cls-3" d="m238.27,135.15v4.94h-1.4v-4.86c0-1.32-.76-2.06-2-2.06s-2.34.76-2.34,2.66v4.27h-1.4v-8.05h1.4v1.16c.6-.95,1.48-1.37,2.61-1.37,1.88,0,3.12,1.26,3.12,3.32Z"/><path class="cls-3" d="m355.02,93.83c0-3.25,2.56-5.85,5.83-5.85s5.85,2.59,5.85,5.85-2.58,5.85-5.85,5.85-5.83-2.61-5.83-5.85Zm10.18,0c0-2.48-1.88-4.4-4.35-4.4s-4.35,1.92-4.35,4.4,1.88,4.38,4.35,4.38,4.35-1.92,4.35-4.38Z"/><path class="cls-3" d="m372.74,91.27v1.47c-1.21-.05-2.51.56-2.51,2.46v4.27h-1.4v-8.05h1.4v1.35c.52-1.13,1.5-1.5,2.51-1.5Z"/><path class="cls-3" d="m382.23,91.41v7.71c0,2.51-2.01,3.77-4.11,3.77-1.8,0-3.16-.69-3.82-1.97l1.22-.69c.37.76,1.05,1.35,2.63,1.35,1.67,0,2.69-.95,2.69-2.46v-1.14c-.64.98-1.67,1.61-3.03,1.61-2.29,0-4.11-1.85-4.11-4.2s1.82-4.19,4.11-4.19c1.35,0,2.38.61,3.03,1.59v-1.38h1.38Zm-1.38,3.98c0-1.61-1.24-2.85-2.87-2.85s-2.87,1.24-2.87,2.85,1.24,2.87,2.87,2.87,2.87-1.24,2.87-2.87Z"/><path class="cls-3" d="m392.9,91.41v8.05h-1.4v-1.39c-.64.98-1.67,1.59-3.04,1.59-2.24,0-4.08-1.85-4.08-4.24s1.84-4.24,4.08-4.24c1.37,0,2.4.61,3.04,1.59v-1.38h1.4Zm-1.4,4.03c0-1.64-1.24-2.88-2.87-2.88s-2.85,1.24-2.85,2.88,1.24,2.88,2.85,2.88,2.87-1.24,2.87-2.88Z"/><path class="cls-3" d="m402.64,94.52v4.94h-1.4v-4.86c0-1.32-.76-2.06-2-2.06s-2.34.76-2.34,2.66v4.27h-1.4v-8.05h1.4v1.16c.6-.95,1.48-1.37,2.61-1.37,1.88,0,3.12,1.26,3.12,3.32Z"/><path class="cls-3" d="m404.83,89.01c0-.52.42-.95.95-.95s.93.43.93.95-.42.93-.93.93-.95-.42-.95-.93Zm.24,2.4h1.4v8.05h-1.4v-8.05Z"/><path class="cls-3" d="m414.79,97.26c0,1.5-1.29,2.42-3.01,2.42-1.61,0-2.74-.77-3.2-1.88l1.21-.69c.26.77,1,1.26,2,1.26.85,0,1.59-.31,1.59-1.1,0-1.72-4.51-.74-4.51-3.66,0-1.42,1.22-2.4,2.85-2.4,1.32,0,2.38.63,2.9,1.67l-1.18.66c-.31-.72-1.01-1.03-1.72-1.03s-1.43.35-1.43,1.08c0,1.72,4.51.71,4.51,3.67Z"/><path class="cls-3" d="m428.66,94.46v5.01h-1.4v-4.96c0-1.27-.71-1.97-1.77-1.97-1.13,0-1.98.71-1.98,2.45v4.48h-1.4v-4.96c0-1.27-.66-1.97-1.71-1.97s-2.06.71-2.06,2.45v4.48h-1.4v-8.05h1.4v1.08c.58-.9,1.42-1.29,2.4-1.29,1.1,0,1.9.5,2.37,1.37.56-.92,1.48-1.37,2.53-1.37,1.79,0,3.03,1.24,3.03,3.25Z"/><path class="cls-3" d="m434.98,98.35c1.11,0,1.92-.52,2.32-1.18l1.19.68c-.71,1.1-1.93,1.82-3.54,1.82-2.59,0-4.32-1.82-4.32-4.24s1.71-4.24,4.22-4.24,4.01,2,4.01,4.25c0,.21-.02.42-.05.63h-6.75c.27,1.45,1.42,2.27,2.91,2.27Zm-2.91-3.49h5.38c-.24-1.59-1.38-2.33-2.59-2.33-1.52,0-2.56.93-2.79,2.33Z"/><path class="cls-3" d="m445.01,95.44c0-2.38,1.8-4.24,4.24-4.24,1.59,0,2.95.84,3.56,2.11l-1.18.68c-.4-.85-1.3-1.42-2.38-1.42-1.61,0-2.83,1.24-2.83,2.87s1.22,2.85,2.83,2.85c1.1,0,1.98-.56,2.43-1.4l1.19.69c-.68,1.26-2.05,2.09-3.62,2.09-2.43,0-4.24-1.85-4.24-4.24Z"/><path class="cls-3" d="m462.69,91.41v8.05h-1.4v-1.39c-.64.98-1.67,1.59-3.04,1.59-2.24,0-4.08-1.85-4.08-4.24s1.84-4.24,4.08-4.24c1.37,0,2.4.61,3.04,1.59v-1.38h1.4Zm-1.4,4.03c0-1.64-1.24-2.88-2.87-2.88s-2.85,1.24-2.85,2.88,1.24,2.88,2.85,2.88,2.87-1.24,2.87-2.88Z"/><path class="cls-3" d="m472.43,94.52v4.94h-1.4v-4.86c0-1.32-.76-2.06-2-2.06s-2.34.76-2.34,2.66v4.27h-1.4v-8.05h1.4v1.16c.6-.95,1.48-1.37,2.61-1.37,1.88,0,3.12,1.26,3.12,3.32Z"/><path class="cls-3" d="m482.92,91.41v8.05h-1.4v-1.39c-.64.98-1.67,1.59-3.04,1.59-2.24,0-4.08-1.85-4.08-4.24s1.84-4.24,4.08-4.24c1.37,0,2.4.61,3.04,1.59v-1.38h1.4Zm-1.4,4.03c0-1.64-1.24-2.88-2.87-2.88s-2.85,1.24-2.85,2.88,1.24,2.88,2.85,2.88,2.87-1.24,2.87-2.88Z"/><path class="cls-3" d="m493.6,88.19v11.27h-1.4v-1.39c-.64.98-1.67,1.59-3.04,1.59-2.24,0-4.08-1.85-4.08-4.24s1.84-4.24,4.08-4.24c1.37,0,2.4.61,3.04,1.59v-4.61h1.4Zm-1.4,7.25c0-1.64-1.24-2.88-2.87-2.88s-2.85,1.24-2.85,2.88,1.24,2.88,2.85,2.88,2.87-1.24,2.87-2.88Z"/><path class="cls-3" d="m495.96,89.01c0-.52.42-.95.95-.95s.93.43.93.95-.42.93-.93.93-.95-.42-.95-.93Zm.24,2.4h1.4v8.05h-1.4v-8.05Z"/><path class="cls-3" d="m504.13,98.35c1.11,0,1.92-.52,2.32-1.18l1.19.68c-.71,1.1-1.93,1.82-3.54,1.82-2.59,0-4.32-1.82-4.32-4.24s1.71-4.24,4.22-4.24,4.01,2,4.01,4.25c0,.21-.01.42-.05.63h-6.75c.27,1.45,1.42,2.27,2.92,2.27Zm-2.92-3.49h5.38c-.24-1.59-1.38-2.33-2.59-2.33-1.51,0-2.56.93-2.79,2.33Z"/><path class="cls-3" d="m517.23,94.52v4.94h-1.4v-4.86c0-1.32-.76-2.06-2-2.06s-2.34.76-2.34,2.66v4.27h-1.4v-8.05h1.4v1.16c.6-.95,1.48-1.37,2.61-1.37,1.88,0,3.12,1.26,3.12,3.32Z"/><path class="cls-3" d="m363.54,108.51v11.27h-1.4v-1.39c-.64.98-1.67,1.59-3.04,1.59-2.24,0-4.08-1.85-4.08-4.24s1.84-4.24,4.08-4.24c1.37,0,2.4.61,3.04,1.59v-4.61h1.4Zm-1.4,7.25c0-1.64-1.24-2.88-2.87-2.88s-2.85,1.24-2.85,2.88,1.24,2.88,2.85,2.88,2.87-1.24,2.87-2.88Z"/><path class="cls-3" d="m370.04,118.67c1.11,0,1.92-.52,2.32-1.18l1.19.68c-.71,1.1-1.93,1.82-3.54,1.82-2.59,0-4.32-1.82-4.32-4.24s1.71-4.24,4.22-4.24,4.01,2,4.01,4.25c0,.21-.02.42-.05.63h-6.75c.27,1.45,1.42,2.27,2.91,2.27Zm-2.91-3.49h5.38c-.24-1.59-1.38-2.33-2.59-2.33-1.52,0-2.56.93-2.79,2.33Z"/><path class="cls-3" d="m384.43,111.58v1.47c-1.21-.05-2.51.56-2.51,2.46v4.27h-1.4v-8.05h1.4v1.35c.52-1.13,1.5-1.5,2.51-1.5Z"/><path class="cls-3" d="m389.74,118.67c1.11,0,1.92-.52,2.32-1.18l1.19.68c-.71,1.1-1.93,1.82-3.54,1.82-2.59,0-4.32-1.82-4.32-4.24s1.71-4.24,4.22-4.24,4.01,2,4.01,4.25c0,.21-.01.42-.05.63h-6.75c.27,1.45,1.42,2.27,2.92,2.27Zm-2.92-3.49h5.38c-.24-1.59-1.38-2.33-2.59-2.33-1.51,0-2.56.93-2.79,2.33Zm3.08-4.56h-1.35l1.29-2.13h1.69l-1.63,2.13Z"/><path class="cls-3" d="m403.77,111.73v7.71c0,2.51-2.01,3.77-4.11,3.77-1.8,0-3.16-.69-3.82-1.97l1.22-.69c.37.76,1.05,1.35,2.63,1.35,1.67,0,2.69-.95,2.69-2.46v-1.14c-.64.98-1.67,1.61-3.03,1.61-2.29,0-4.11-1.85-4.11-4.2s1.82-4.19,4.11-4.19c1.35,0,2.38.61,3.03,1.59v-1.38h1.38Zm-1.38,3.98c0-1.61-1.24-2.85-2.87-2.85s-2.87,1.24-2.87,2.85,1.24,2.87,2.87,2.87,2.87-1.24,2.87-2.87Z"/><path class="cls-3" d="m406.37,108.02h1.4v11.76h-1.4v-11.76Z"/><path class="cls-3" d="m414.29,118.67c1.11,0,1.92-.52,2.32-1.18l1.19.68c-.71,1.1-1.93,1.82-3.54,1.82-2.59,0-4.32-1.82-4.32-4.24s1.71-4.24,4.22-4.24,4.01,2,4.01,4.25c0,.21-.01.42-.05.63h-6.75c.27,1.45,1.42,2.27,2.92,2.27Zm-2.92-3.49h5.38c-.24-1.59-1.38-2.33-2.59-2.33-1.51,0-2.56.93-2.79,2.33Z"/><path class="cls-3" d="m431.99,114.77v5.01h-1.4v-4.96c0-1.27-.71-1.97-1.77-1.97-1.13,0-1.98.71-1.98,2.45v4.48h-1.4v-4.96c0-1.27-.66-1.97-1.71-1.97s-2.06.71-2.06,2.45v4.48h-1.4v-8.05h1.4v1.08c.58-.9,1.42-1.29,2.4-1.29,1.1,0,1.9.5,2.37,1.37.56-.92,1.48-1.37,2.53-1.37,1.79,0,3.03,1.24,3.03,3.25Z"/><path class="cls-3" d="m438.31,118.67c1.11,0,1.92-.52,2.32-1.18l1.19.68c-.71,1.1-1.93,1.82-3.54,1.82-2.59,0-4.32-1.82-4.32-4.24s1.71-4.24,4.22-4.24,4.01,2,4.01,4.25c0,.21-.02.42-.05.63h-6.75c.27,1.45,1.42,2.27,2.91,2.27Zm-2.91-3.49h5.38c-.24-1.59-1.38-2.33-2.59-2.33-1.52,0-2.56.93-2.79,2.33Z"/><path class="cls-3" d="m451.42,114.84v4.94h-1.4v-4.86c0-1.32-.76-2.06-2-2.06s-2.34.76-2.34,2.66v4.27h-1.4v-8.05h1.4v1.16c.6-.95,1.48-1.37,2.61-1.37,1.88,0,3.12,1.26,3.12,3.32Z"/><path class="cls-3" d="m456.09,113.08v4.36c0,1.22.71,1.14,2.14,1.08v1.26c-2.42.32-3.54-.32-3.54-2.34v-4.36h-1.59v-1.35h1.59v-1.84l1.4-.42v2.25h2.14v1.35h-2.14Z"/><path class="cls-3" d="m468.03,111.73v8.05h-1.4v-1.39c-.64.98-1.67,1.59-3.04,1.59-2.24,0-4.08-1.85-4.08-4.24s1.84-4.24,4.08-4.24c1.37,0,2.4.61,3.04,1.59v-1.38h1.4Zm-1.4,4.03c0-1.64-1.24-2.88-2.87-2.88s-2.85,1.24-2.85,2.88,1.24,2.88,2.85,2.88,2.87-1.24,2.87-2.88Z"/><path class="cls-3" d="m472.88,113.08v4.36c0,1.22.71,1.14,2.14,1.08v1.26c-2.42.32-3.54-.32-3.54-2.34v-4.36h-1.59v-1.35h1.59v-1.84l1.4-.42v2.25h2.14v1.35h-2.14Z"/><path class="cls-3" d="m476.92,109.33c0-.52.42-.95.95-.95s.93.43.93.95-.42.93-.93.93-.95-.42-.95-.93Zm.24,2.4h1.4v8.05h-1.4v-8.05Z"/><path class="cls-3" d="m480.73,115.75c0-2.38,1.89-4.24,4.24-4.24s4.25,1.85,4.25,4.24-1.9,4.24-4.25,4.24-4.24-1.85-4.24-4.24Zm7.09,0c0-1.63-1.24-2.87-2.85-2.87s-2.83,1.24-2.83,2.87,1.24,2.87,2.83,2.87,2.85-1.24,2.85-2.87Z"/><path class="cls-3" d="m498.49,114.84v4.94h-1.4v-4.86c0-1.32-.76-2.06-2-2.06s-2.34.76-2.34,2.66v4.27h-1.4v-8.05h1.4v1.16c.6-.95,1.48-1.37,2.61-1.37,1.88,0,3.12,1.26,3.12,3.32Z"/><path class="cls-3" d="m363.54,128.82v11.27h-1.4v-1.39c-.64.98-1.67,1.59-3.04,1.59-2.24,0-4.08-1.85-4.08-4.24s1.84-4.24,4.08-4.24c1.37,0,2.4.61,3.04,1.59v-4.61h1.4Zm-1.4,7.25c0-1.64-1.24-2.88-2.87-2.88s-2.85,1.24-2.85,2.88,1.24,2.88,2.85,2.88,2.87-1.24,2.87-2.88Z"/><path class="cls-3" d="m370.04,138.98c1.11,0,1.92-.52,2.32-1.18l1.19.68c-.71,1.1-1.93,1.82-3.54,1.82-2.59,0-4.32-1.82-4.32-4.24s1.71-4.24,4.22-4.24,4.01,2,4.01,4.25c0,.21-.02.42-.05.63h-6.75c.27,1.45,1.42,2.27,2.91,2.27Zm-2.91-3.49h5.38c-.24-1.59-1.38-2.33-2.59-2.33-1.52,0-2.56.93-2.79,2.33Z"/><path class="cls-3" d="m381.41,137.89c0,1.5-1.29,2.42-3.01,2.42-1.61,0-2.74-.77-3.2-1.88l1.21-.69c.26.77,1,1.26,2,1.26.85,0,1.59-.31,1.59-1.1,0-1.72-4.51-.74-4.51-3.66,0-1.42,1.22-2.4,2.85-2.4,1.32,0,2.38.63,2.9,1.67l-1.18.66c-.31-.72-1.01-1.03-1.72-1.03s-1.43.35-1.43,1.08c0,1.72,4.51.71,4.51,3.67Z"/><path class="cls-3" d="m387.81,129.64c0-.52.42-.95.95-.95s.93.43.93.95-.42.93-.93.93-.95-.42-.95-.93Zm.24,2.4h1.4v8.05h-1.4v-8.05Z"/><path class="cls-3" d="m399.21,135.15v4.94h-1.4v-4.86c0-1.32-.76-2.06-2-2.06s-2.34.76-2.34,2.66v4.27h-1.4v-8.05h1.4v1.16c.6-.95,1.48-1.37,2.61-1.37,1.88,0,3.12,1.26,3.12,3.32Z"/><path class="cls-3" d="m408.68,132.04l-3.22,8.05h-1.64l-3.22-8.05h1.51l2.53,6.55,2.53-6.55h1.51Z"/><path class="cls-3" d="m413.92,138.98c1.11,0,1.92-.52,2.32-1.18l1.19.68c-.71,1.1-1.93,1.82-3.54,1.82-2.59,0-4.32-1.82-4.32-4.24s1.71-4.24,4.22-4.24,4.01,2,4.01,4.25c0,.21-.02.42-.05.63h-6.75c.27,1.45,1.42,2.27,2.91,2.27Zm-2.91-3.49h5.38c-.24-1.59-1.38-2.33-2.59-2.33-1.52,0-2.56.93-2.79,2.33Z"/><path class="cls-3" d="m425.29,137.89c0,1.5-1.29,2.42-3.01,2.42-1.61,0-2.74-.77-3.2-1.88l1.21-.69c.26.77,1,1.26,2,1.26.85,0,1.59-.31,1.59-1.1,0-1.72-4.51-.74-4.51-3.66,0-1.42,1.22-2.4,2.85-2.4,1.32,0,2.38.63,2.9,1.67l-1.18.66c-.31-.72-1.01-1.03-1.72-1.03s-1.43.35-1.43,1.08c0,1.72,4.51.71,4.51,3.67Z"/><path class="cls-3" d="m429.35,133.4v4.36c0,1.22.71,1.14,2.14,1.08v1.26c-2.42.32-3.54-.32-3.54-2.34v-4.36h-1.59v-1.35h1.59v-1.84l1.4-.42v2.25h2.14v1.35h-2.14Z"/><path class="cls-3" d="m433.39,129.64c0-.52.42-.95.95-.95s.93.43.93.95-.42.93-.93.93-.95-.42-.95-.93Zm.24,2.4h1.4v8.05h-1.4v-8.05Z"/><path class="cls-3" d="m443.35,137.89c0,1.5-1.29,2.42-3.01,2.42-1.61,0-2.74-.77-3.2-1.88l1.21-.69c.26.77,1,1.26,2,1.26.85,0,1.59-.31,1.59-1.1,0-1.72-4.51-.74-4.51-3.66,0-1.42,1.22-2.4,2.85-2.4,1.32,0,2.38.63,2.9,1.67l-1.18.66c-.31-.72-1.01-1.03-1.72-1.03s-1.43.35-1.43,1.08c0,1.72,4.51.71,4.51,3.67Z"/><path class="cls-3" d="m450.71,137.89c0,1.5-1.29,2.42-3.01,2.42-1.61,0-2.74-.77-3.2-1.88l1.21-.69c.26.77,1,1.26,2,1.26.85,0,1.59-.31,1.59-1.1,0-1.72-4.51-.74-4.51-3.66,0-1.42,1.22-2.4,2.85-2.4,1.32,0,2.38.63,2.9,1.67l-1.18.66c-.31-.72-1.01-1.03-1.72-1.03s-1.43.35-1.43,1.08c0,1.72,4.51.71,4.51,3.67Z"/><path class="cls-3" d="m456.52,138.98c1.11,0,1.92-.52,2.32-1.18l1.19.68c-.71,1.1-1.93,1.82-3.54,1.82-2.59,0-4.32-1.82-4.32-4.24s1.71-4.24,4.22-4.24,4.01,2,4.01,4.25c0,.21-.01.42-.05.63h-6.75c.27,1.45,1.42,2.27,2.92,2.27Zm-2.92-3.49h5.38c-.24-1.59-1.38-2.33-2.59-2.33-1.51,0-2.56.93-2.79,2.33Z"/><path class="cls-3" d="m474.22,135.09v5.01h-1.4v-4.96c0-1.27-.71-1.97-1.77-1.97-1.13,0-1.98.71-1.98,2.45v4.48h-1.4v-4.96c0-1.27-.66-1.97-1.71-1.97s-2.06.71-2.06,2.45v4.48h-1.4v-8.05h1.4v1.08c.58-.9,1.42-1.29,2.4-1.29,1.1,0,1.9.5,2.37,1.37.56-.92,1.48-1.37,2.53-1.37,1.79,0,3.03,1.24,3.03,3.25Z"/><path class="cls-3" d="m480.54,138.98c1.11,0,1.92-.52,2.32-1.18l1.19.68c-.71,1.1-1.93,1.82-3.54,1.82-2.59,0-4.32-1.82-4.32-4.24s1.71-4.24,4.22-4.24,4.01,2,4.01,4.25c0,.21-.02.42-.05.63h-6.75c.27,1.45,1.42,2.27,2.91,2.27Zm-2.91-3.49h5.38c-.24-1.59-1.38-2.33-2.59-2.33-1.52,0-2.56.93-2.79,2.33Z"/><path class="cls-3" d="m493.65,135.15v4.94h-1.4v-4.86c0-1.32-.76-2.06-2-2.06s-2.34.76-2.34,2.66v4.27h-1.4v-8.05h1.4v1.16c.6-.95,1.48-1.37,2.61-1.37,1.88,0,3.12,1.26,3.12,3.32Z"/><path class="cls-3" d="m498.31,133.4v4.36c0,1.22.71,1.14,2.14,1.08v1.26c-2.42.32-3.54-.32-3.54-2.34v-4.36h-1.59v-1.35h1.59v-1.84l1.4-.42v2.25h2.14v1.35h-2.14Z"/><path class="cls-3" d="m507.93,137.89c0,1.5-1.29,2.42-3.01,2.42-1.61,0-2.74-.77-3.2-1.88l1.21-.69c.26.77,1,1.26,2,1.26.85,0,1.59-.31,1.59-1.1,0-1.72-4.51-.74-4.51-3.66,0-1.42,1.22-2.4,2.85-2.4,1.32,0,2.38.63,2.9,1.67l-1.18.66c-.31-.72-1.01-1.03-1.72-1.03s-1.43.35-1.43,1.08c0,1.72,4.51.71,4.51,3.67Z"/><path class="cls-3" d="m134.87,45.91c0-14.64,10.85-25.99,25.99-25.99,9.14,0,17.21,4.64,21.49,11.78l-8.5,4.93c-2.43-4.43-7.28-7.14-12.99-7.14-9.78,0-16.21,6.78-16.21,16.42s6.43,16.35,16.21,16.35c5.71,0,10.64-2.71,12.99-7.07l8.5,4.93c-4.21,7.14-12.28,11.78-21.49,11.78-15.14,0-25.99-11.42-25.99-25.99Z"/><path class="cls-3" d="m201.12,20.92v49.98h-9.85V20.92h9.85Z"/><path class="cls-3" d="m229.18,53.55h-7.5v17.35h-9.85V20.92h19.99c9.21,0,16.64,7.43,16.64,16.56,0,6.28-3.93,11.92-9.64,14.56l11.07,18.85h-10.64l-10.07-17.35Zm-7.5-8.64h10.14c3.71,0,6.78-3.28,6.78-7.43s-3.07-7.35-6.78-7.35h-10.14v14.78Z"/><path class="cls-3" d="m255.66,45.91c0-14.64,11.5-25.99,25.92-25.99s25.99,11.35,25.99,25.99-11.57,25.99-25.99,25.99-25.92-11.42-25.92-25.99Zm42.05,0c0-9.64-7.07-16.42-16.14-16.42s-16.14,6.78-16.14,16.42,7.07,16.35,16.14,16.35,16.14-6.78,16.14-16.35Z"/><rect class="cls-3" x="324.61" y="40.77" width="10.17" height="10.17" rx="5.09" ry="5.09"/><path class="cls-4" d="m84.78,2.55l-34.01,34.01c-.64.64-1,1.51-1,2.42v21.22c0,.68.82,1.02,1.3.54L97.02,14.79c1.62-1.62,2.53-3.82,2.53-6.12h0c0-7.71-9.32-11.57-14.77-6.12Z"/><path class="cls-2" d="m84.78,42.56l-34.01,34.01c-.64.64-1,1.51-1,2.42v21.22c0,.68.82,1.02,1.3.54l45.95-45.95c1.62-1.62,2.53-3.82,2.53-6.12h0c0-7.71-9.32-11.57-14.77-6.12Z"/><path class="cls-1" d="m44.9,137.8L2.02,94.92c-1.29-1.29-2.02-3.05-2.02-4.88V27.13c0-3.81,3.09-6.9,6.9-6.9h34.26c.85,0,1.53.69,1.53,1.53v14.24c0,.85-.69,1.53-1.53,1.53h-22.32c-.85,0-1.53.69-1.53,1.53v46.03c0,.41.16.8.45,1.08l30.94,30.94c.6.6,1.57.6,2.17,0l33.92-33.92c5.45-5.45,14.77-1.59,14.77,6.12h0c0,2.29-.91,4.5-2.53,6.12l-42.36,42.36c-2.69,2.69-7.06,2.69-9.76,0Z"/><path class="cls-3" d="m351.84,45.91c0-14.64,11.5-25.99,25.92-25.99s25.99,11.35,25.99,25.99-11.57,25.99-25.99,25.99-25.92-11.42-25.92-25.99Zm42.05,0c0-9.64-7.07-16.42-16.14-16.42s-16.14,6.78-16.14,16.42,7.07,16.35,16.14,16.35,16.14-6.78,16.14-16.35Z"/><path class="cls-3" d="m411.24,45.91c0-14.64,10.85-25.99,25.99-25.99,9.14,0,17.21,4.64,21.49,11.78l-8.5,4.93c-2.43-4.43-7.28-7.14-12.99-7.14-9.78,0-16.21,6.78-16.21,16.42s6.43,16.35,16.21,16.35c5.71,0,10.64-2.71,12.99-7.07l8.5,4.93c-4.21,7.14-12.28,11.78-21.49,11.78-15.14,0-25.99-11.42-25.99-25.99Z"/><path class="cls-3" d="m484.99,53.55h-7.5v17.35h-9.85V20.92h19.99c9.21,0,16.64,7.43,16.64,16.56,0,6.28-3.93,11.92-9.64,14.56l11.07,18.85h-10.64l-10.07-17.35Zm-7.5-8.64h10.14c3.71,0,6.78-3.28,6.78-7.43s-3.07-7.35-6.78-7.35h-10.14v14.78Z"/><path class="cls-3" d="m524.55,20.92v49.98h-9.85V20.92h9.85Z"/></g></svg>