<?xml version="1.0" encoding="utf-8"?>
<!-- Generator: Adobe Illustrator 21.1.0, SVG Export Plug-In . SVG Version: 6.00 Build 0)  -->
<svg version="1.1" id="Layer_1" xmlns="http://www.w3.org/2000/svg" xmlns:xlink="http://www.w3.org/1999/xlink" x="0px" y="0px"
	 viewBox="0 0 248.6 132.7" style="enable-background:new 0 0 248.6 132.7;" xml:space="preserve">
<style type="text/css">
	.st0{clip-path:url(#SVGID_2_);fill:#3B7438;}
	.st1{clip-path:url(#SVGID_2_);fill:#93A885;}
	.st2{clip-path:url(#SVGID_4_);}
	.st3{clip-path:url(#SVGID_4_);fill:none;stroke:#000000;stroke-width:1.596;stroke-miterlimit:10;}
	.st4{clip-path:url(#SVGID_4_);fill:#D16127;}
	.st5{clip-path:url(#SVGID_4_);fill:#E5A77F;}
	.st6{clip-path:url(#SVGID_4_);fill:#A63034;}
	.st7{clip-path:url(#SVGID_4_);fill:#CB8B7F;}
	.st8{clip-path:url(#SVGID_4_);fill:#5E327C;}
	.st9{clip-path:url(#SVGID_4_);fill:#9D85AE;}
	.st10{clip-path:url(#SVGID_4_);fill:#1B1B1B;}
	.st11{clip-path:url(#SVGID_6_);fill:#FFFFFF;}
	.st12{clip-path:url(#SVGID_6_);fill:none;stroke:#000000;stroke-width:1.596;stroke-miterlimit:10;}
</style>
<g>
	<defs>
		<rect id="SVGID_1_" width="192.2" height="128.6"/>
	</defs>
	<clipPath id="SVGID_2_">
		<use xlink:href="#SVGID_1_"  style="overflow:visible;"/>
	</clipPath>
	<path class="st0" d="M-171.4,6.2h-66.4v85.1C-231.9,70.5-215.4,32.4-171.4,6.2"/>
	<path class="st1" d="M-235,91.6h89.4v-82C-198.1,26.6-224.4,68.9-235,91.6"/>
</g>
<g>
	<defs>
		<rect id="SVGID_3_" width="192.2" height="128.6"/>
	</defs>
	<clipPath id="SVGID_4_">
		<use xlink:href="#SVGID_3_"  style="overflow:visible;"/>
	</clipPath>
	<g class="st2">
		<path d="M-136,59.4h1.4l0.5,2.6l0.7-2.6h1.4l0.7,2.6l0.5-2.6h1.4l-1,4.7h-1.4l-0.8-3l-0.8,3h-1.4L-136,59.4z"/>
		<path d="M-126,63.4h-1.7l-0.2,0.8h-1.5l1.8-4.7h1.6l1.8,4.7h-1.5L-126,63.4z M-126.3,62.4l-0.5-1.7l-0.5,1.7H-126.3z"/>
		<path d="M-124.1,62.6l1.4-0.1c0,0.2,0.1,0.4,0.2,0.5c0.2,0.2,0.4,0.3,0.6,0.3c0.2,0,0.4,0,0.5-0.1s0.2-0.2,0.2-0.3
			c0-0.1-0.1-0.2-0.2-0.3c-0.1-0.1-0.4-0.2-0.7-0.3c-0.6-0.1-1.1-0.3-1.4-0.6c-0.3-0.2-0.4-0.5-0.4-0.9c0-0.2,0.1-0.5,0.2-0.7
			s0.4-0.4,0.6-0.5c0.3-0.1,0.7-0.2,1.2-0.2c0.6,0,1.1,0.1,1.4,0.3c0.3,0.2,0.5,0.6,0.6,1.1l-1.4,0.1c0-0.2-0.1-0.4-0.2-0.5
			c-0.1-0.1-0.3-0.1-0.5-0.1c-0.2,0-0.3,0-0.4,0.1c-0.1,0.1-0.1,0.2-0.1,0.3c0,0.1,0,0.1,0.1,0.2c0.1,0.1,0.2,0.1,0.5,0.2
			c0.6,0.1,1.1,0.3,1.4,0.4c0.3,0.1,0.5,0.3,0.6,0.5c0.1,0.2,0.2,0.4,0.2,0.7c0,0.3-0.1,0.6-0.3,0.8c-0.2,0.3-0.4,0.4-0.7,0.6
			c-0.3,0.1-0.7,0.2-1.1,0.2c-0.8,0-1.4-0.2-1.7-0.5C-123.9,63.5-124,63.1-124.1,62.6z"/>
		<path d="M-119,59.4h1.5v1.7h1.6v-1.7h1.5v4.7h-1.5v-1.9h-1.6v1.9h-1.5V59.4z"/>
		<path d="M-113.5,59.4h1.5v4.7h-1.5V59.4z"/>
		<path d="M-111,59.4h1.4l1.8,2.6v-2.6h1.4v4.7h-1.4l-1.8-2.6v2.6h-1.4V59.4z"/>
		<path d="M-103.1,62.5v-1h2.3v2c-0.4,0.3-0.8,0.5-1.1,0.6c-0.3,0.1-0.7,0.2-1.2,0.2c-0.6,0-1-0.1-1.4-0.3c-0.4-0.2-0.6-0.5-0.8-0.9
			c-0.2-0.4-0.3-0.8-0.3-1.3c0-0.5,0.1-1,0.3-1.3c0.2-0.4,0.5-0.7,0.9-0.9c0.3-0.2,0.8-0.2,1.3-0.2c0.5,0,0.9,0,1.2,0.1
			s0.5,0.2,0.6,0.4c0.2,0.2,0.3,0.5,0.4,0.8l-1.4,0.3c-0.1-0.2-0.2-0.3-0.3-0.4c-0.1-0.1-0.3-0.1-0.5-0.1c-0.3,0-0.6,0.1-0.8,0.3
			c-0.2,0.2-0.3,0.6-0.3,1.1c0,0.5,0.1,0.9,0.3,1.1c0.2,0.2,0.5,0.3,0.8,0.3c0.2,0,0.3,0,0.5-0.1c0.1,0,0.3-0.1,0.5-0.2v-0.4H-103.1
			z"/>
		<path d="M-100.3,59.4h4.4v1.2h-1.5v3.6h-1.5v-3.6h-1.5V59.4z"/>
	</g>
	<g class="st2">
		<path d="M-95.7,61.8c0-0.8,0.2-1.4,0.6-1.8c0.4-0.4,1-0.6,1.8-0.6c0.8,0,1.4,0.2,1.8,0.6s0.6,1,0.6,1.8c0,0.6-0.1,1-0.3,1.4
			c-0.2,0.4-0.5,0.6-0.8,0.8c-0.4,0.2-0.8,0.3-1.3,0.3c-0.5,0-1-0.1-1.3-0.3c-0.3-0.2-0.6-0.4-0.8-0.8
			C-95.5,62.8-95.7,62.4-95.7,61.8z M-94.2,61.8c0,0.5,0.1,0.8,0.3,1c0.2,0.2,0.4,0.3,0.7,0.3c0.3,0,0.6-0.1,0.7-0.3
			s0.3-0.6,0.3-1.1c0-0.4-0.1-0.8-0.3-1s-0.4-0.3-0.7-0.3c-0.3,0-0.5,0.1-0.7,0.3C-94.1,61-94.2,61.3-94.2,61.8z"/>
		<path d="M-90,59.4h1.4l1.8,2.6v-2.6h1.4v4.7h-1.4l-1.8-2.6v2.6H-90V59.4z"/>
		<path d="M-82.5,62.6l1.4-0.1c0,0.2,0.1,0.4,0.2,0.5c0.2,0.2,0.4,0.3,0.6,0.3c0.2,0,0.4,0,0.5-0.1s0.2-0.2,0.2-0.3
			c0-0.1-0.1-0.2-0.2-0.3c-0.1-0.1-0.4-0.2-0.7-0.3c-0.6-0.1-1.1-0.3-1.4-0.6c-0.3-0.2-0.4-0.5-0.4-0.9c0-0.2,0.1-0.5,0.2-0.7
			s0.4-0.4,0.6-0.5c0.3-0.1,0.7-0.2,1.2-0.2c0.6,0,1.1,0.1,1.4,0.3c0.3,0.2,0.5,0.6,0.6,1.1l-1.4,0.1c0-0.2-0.1-0.4-0.2-0.5
			c-0.1-0.1-0.3-0.1-0.5-0.1c-0.2,0-0.3,0-0.4,0.1c-0.1,0.1-0.1,0.2-0.1,0.3c0,0.1,0,0.1,0.1,0.2c0.1,0.1,0.2,0.1,0.5,0.2
			c0.6,0.1,1.1,0.3,1.4,0.4c0.3,0.1,0.5,0.3,0.6,0.5c0.1,0.2,0.2,0.4,0.2,0.7c0,0.3-0.1,0.6-0.3,0.8c-0.2,0.3-0.4,0.4-0.7,0.6
			c-0.3,0.1-0.7,0.2-1.1,0.2c-0.8,0-1.4-0.2-1.7-0.5C-82.3,63.5-82.5,63.1-82.5,62.6z"/>
		<path d="M-77.9,59.4h4.4v1.2h-1.5v3.6h-1.5v-3.6h-1.5V59.4z"/>
	</g>
	<g class="st2">
		<path d="M-70.3,63.4H-72l-0.2,0.8h-1.5l1.8-4.7h1.6l1.8,4.7h-1.5L-70.3,63.4z M-70.6,62.4l-0.5-1.7l-0.5,1.7H-70.6z"/>
		<path d="M-68.9,59.4h4.4v1.2h-1.5v3.6h-1.5v-3.6h-1.5V59.4z"/>
	</g>
	<g class="st2">
		<path d="M-63.8,59.4h3.9v1h-2.4v0.8h2.3v1h-2.3v0.9h2.5v1.1h-4V59.4z"/>
	</g>
	<g class="st2">
		<path d="M-136.1,67h2.7c0.5,0,1,0.1,1.3,0.2s0.6,0.4,0.8,0.6c0.2,0.3,0.4,0.6,0.5,0.9c0.1,0.4,0.1,0.7,0.1,1.1
			c0,0.6-0.1,1.1-0.2,1.5s-0.3,0.6-0.6,0.9c-0.3,0.2-0.5,0.4-0.8,0.5c-0.4,0.1-0.8,0.2-1.1,0.2h-2.7V67z M-134.3,68.4v3.2h0.4
			c0.4,0,0.7,0,0.8-0.1c0.2-0.1,0.3-0.2,0.4-0.4c0.1-0.2,0.1-0.6,0.1-1c0-0.6-0.1-1.1-0.3-1.3c-0.2-0.2-0.5-0.3-1-0.3H-134.3z"/>
		<path d="M-129.7,67h4.9v1.3h-3.1v0.9h2.8v1.2h-2.8v1.2h3.1v1.3h-5V67z"/>
		<path d="M-123.8,67h3c0.7,0,1.2,0.2,1.5,0.5c0.3,0.3,0.5,0.8,0.5,1.3c0,0.6-0.2,1.1-0.5,1.4c-0.4,0.3-0.9,0.5-1.6,0.5h-1v2.2h-1.8
			V67z M-122,69.6h0.4c0.4,0,0.6-0.1,0.7-0.2s0.2-0.3,0.2-0.5c0-0.2-0.1-0.3-0.2-0.5c-0.1-0.1-0.4-0.2-0.7-0.2h-0.5V69.6z"/>
	</g>
	<g class="st2">
		<path d="M-114.9,72h-2.1l-0.3,1h-1.9l2.2-5.9h2l2.2,5.9h-1.9L-114.9,72z M-115.3,70.7l-0.7-2.1l-0.6,2.1H-115.3z"/>
		<path d="M-112.1,72.9V67h3c0.6,0,1,0,1.3,0.1s0.5,0.3,0.7,0.5c0.2,0.3,0.3,0.6,0.3,1c0,0.3-0.1,0.6-0.2,0.8s-0.3,0.4-0.6,0.6
			c-0.2,0.1-0.4,0.2-0.6,0.2c0.2,0.1,0.4,0.1,0.5,0.2c0.1,0,0.2,0.2,0.3,0.3c0.1,0.2,0.2,0.3,0.3,0.4l0.9,1.7h-2.1l-1-1.8
			c-0.1-0.2-0.2-0.4-0.3-0.5c-0.1-0.1-0.3-0.1-0.4-0.1h-0.2v2.4H-112.1z M-110.3,69.4h0.8c0.1,0,0.2,0,0.5-0.1
			c0.1,0,0.2-0.1,0.3-0.2c0.1-0.1,0.1-0.2,0.1-0.3c0-0.2-0.1-0.3-0.2-0.4c-0.1-0.1-0.3-0.2-0.7-0.2h-0.8V69.4z"/>
		<path d="M-106.1,67h5.5v1.5h-1.9v4.4h-1.8v-4.4h-1.9V67z"/>
		<path d="M-99.8,67h2.4l0.9,3.6l0.9-3.6h2.4v5.9h-1.5v-4.5l-1.2,4.5h-1.4l-1.1-4.5v4.5h-1.5V67z"/>
		<path d="M-92,67h4.9v1.3h-3.1v0.9h2.8v1.2h-2.8v1.2h3.1v1.3h-5V67z"/>
		<path d="M-86,67h1.7l2.2,3.3V67h1.7v5.9h-1.7l-2.2-3.2v3.2H-86V67z"/>
		<path d="M-79.6,67h5.5v1.5h-1.9v4.4h-1.8v-4.4h-1.9V67z"/>
		<path d="M-70.7,70c0-1,0.3-1.7,0.8-2.2c0.5-0.5,1.3-0.8,2.2-0.8c1,0,1.7,0.3,2.3,0.8s0.8,1.3,0.8,2.2c0,0.7-0.1,1.3-0.3,1.7
			s-0.6,0.8-1,1c-0.4,0.2-1,0.4-1.6,0.4c-0.7,0-1.2-0.1-1.7-0.3s-0.8-0.5-1.1-1C-70.6,71.3-70.7,70.7-70.7,70z M-68.9,70
			c0,0.6,0.1,1,0.3,1.3c0.2,0.3,0.5,0.4,0.9,0.4c0.4,0,0.7-0.1,0.9-0.4c0.2-0.3,0.3-0.7,0.3-1.4c0-0.6-0.1-1-0.3-1.2
			c-0.2-0.3-0.5-0.4-0.9-0.4c-0.4,0-0.7,0.1-0.9,0.4C-68.8,69-68.9,69.4-68.9,70z"/>
		<path d="M-63.6,67h4.5v1.3h-2.7v1h2.3v1.2h-2.3v2.4h-1.8V67z"/>
	</g>
	<g class="st2">
		<path d="M-137,75.6h7.2v2h-4.3v1.6h3.7v1.9h-3.7V85h-2.9V75.6z"/>
		<path d="M-128.1,75.6h2.9V85h-2.9V75.6z"/>
		<path d="M-123.1,75.6h2.7l3.6,5.2v-5.2h2.8V85h-2.8l-3.5-5.2V85h-2.7V75.6z"/>
		<path d="M-106.4,83.5h-3.3l-0.5,1.6h-3l3.5-9.4h3.2l3.5,9.4h-3.1L-106.4,83.5z M-107,81.4l-1-3.4l-1,3.4H-107z"/>
		<path d="M-102,75.6h2.7l3.6,5.2v-5.2h2.8V85h-2.8l-3.5-5.2V85h-2.7V75.6z"/>
		<path d="M-84.8,81.2l2.6,0.8c-0.2,0.7-0.4,1.3-0.8,1.8c-0.4,0.5-0.8,0.8-1.4,1.1s-1.2,0.4-2.1,0.4c-1,0-1.9-0.1-2.5-0.4
			s-1.2-0.8-1.7-1.6s-0.7-1.7-0.7-2.9c0-1.6,0.4-2.8,1.2-3.6s2-1.3,3.5-1.3c1.2,0,2.1,0.2,2.8,0.7c0.7,0.5,1.2,1.2,1.5,2.2l-2.6,0.6
			c-0.1-0.3-0.2-0.5-0.3-0.6c-0.2-0.2-0.4-0.4-0.6-0.5c-0.2-0.1-0.5-0.2-0.8-0.2c-0.7,0-1.2,0.3-1.5,0.8c-0.3,0.4-0.4,1-0.4,1.9
			c0,1,0.2,1.8,0.5,2.2c0.3,0.4,0.8,0.6,1.3,0.6c0.6,0,1-0.2,1.3-0.5C-85.1,82.2-84.9,81.8-84.8,81.2z"/>
		<path d="M-80.7,75.6h2.9V85h-2.9V75.6z"/>
		<path d="M-69.9,83.5h-3.3l-0.5,1.6h-3l3.5-9.4h3.2l3.5,9.4h-3.1L-69.9,83.5z M-70.5,81.4l-1-3.4l-1,3.4H-70.5z"/>
	</g>
	<g class="st2">
		<path d="M-65.3,75.6h2.9v7.1h4.6V85h-7.5V75.6z"/>
	</g>
	<g class="st2">
	</g>
	<g class="st2">
		<path d="M-137.1,88.4h2.2v7.1h-2.2V88.4z"/>
		<path d="M-133.3,88.4h2l2.7,3.9v-3.9h2.1v7.1h-2.1l-2.7-3.9v3.9h-2.1V88.4z"/>
		<path d="M-125.4,93.1l2.1-0.1c0,0.3,0.1,0.6,0.3,0.8c0.2,0.3,0.5,0.4,1,0.4c0.3,0,0.6-0.1,0.7-0.2s0.3-0.3,0.3-0.5
			c0-0.2-0.1-0.3-0.2-0.5s-0.5-0.3-1.1-0.4c-1-0.2-1.6-0.5-2.1-0.9c-0.4-0.4-0.6-0.8-0.6-1.4c0-0.4,0.1-0.7,0.3-1s0.5-0.6,1-0.8
			c0.4-0.2,1-0.3,1.7-0.3c0.9,0,1.6,0.2,2.1,0.5c0.5,0.3,0.8,0.9,0.8,1.6l-2.1,0.1c-0.1-0.3-0.2-0.6-0.3-0.7
			c-0.2-0.1-0.4-0.2-0.7-0.2c-0.3,0-0.4,0.1-0.6,0.2c-0.1,0.1-0.2,0.2-0.2,0.4c0,0.1,0.1,0.2,0.2,0.3c0.1,0.1,0.3,0.2,0.7,0.3
			c1,0.2,1.6,0.4,2.1,0.6c0.4,0.2,0.7,0.5,0.9,0.8s0.3,0.7,0.3,1c0,0.5-0.1,0.9-0.4,1.3c-0.3,0.4-0.6,0.7-1.1,0.9
			c-0.5,0.2-1,0.3-1.7,0.3c-1.2,0-2-0.2-2.5-0.7C-125.1,94.4-125.4,93.9-125.4,93.1z"/>
		<path d="M-118.4,88.4h6.7v1.7h-2.2v5.3h-2.2v-5.3h-2.2V88.4z"/>
		<path d="M-110.7,88.4h2.2v7.1h-2.2V88.4z"/>
		<path d="M-107.4,88.4h6.7v1.7h-2.2v5.3h-2.2v-5.3h-2.2V88.4z"/>
		<path d="M-95.2,88.4h2.2v4.2c0,0.4-0.1,0.8-0.2,1.2c-0.1,0.4-0.3,0.7-0.6,1c-0.3,0.3-0.6,0.5-0.9,0.6c-0.4,0.2-0.9,0.2-1.5,0.2
			c-0.3,0-0.7,0-1.1-0.1c-0.4,0-0.7-0.1-1-0.3c-0.3-0.1-0.5-0.3-0.8-0.6c-0.2-0.3-0.4-0.5-0.5-0.8c-0.1-0.5-0.2-0.8-0.2-1.2v-4.2
			h2.2v4.3c0,0.4,0.1,0.7,0.3,0.9c0.2,0.2,0.5,0.3,0.9,0.3c0.4,0,0.7-0.1,0.9-0.3s0.3-0.5,0.3-0.9V88.4z"/>
		<path d="M-92,88.4h6.7v1.7h-2.2v5.3h-2.2v-5.3H-92V88.4z"/>
		<path d="M-84.3,88.4h2.2v7.1h-2.2V88.4z"/>
		<path d="M-80.8,91.9c0-1.2,0.3-2.1,1-2.7c0.6-0.6,1.5-1,2.7-1c1.2,0,2.1,0.3,2.7,0.9c0.6,0.6,1,1.5,1,2.7c0,0.8-0.1,1.5-0.4,2
			s-0.7,0.9-1.2,1.2s-1.2,0.4-2,0.4c-0.8,0-1.5-0.1-2-0.4c-0.5-0.3-0.9-0.7-1.3-1.2C-80.7,93.5-80.8,92.8-80.8,91.9z M-78.6,92
			c0,0.7,0.1,1.2,0.4,1.5c0.3,0.3,0.6,0.5,1.1,0.5c0.5,0,0.8-0.2,1.1-0.5c0.3-0.3,0.4-0.9,0.4-1.6c0-0.7-0.1-1.2-0.4-1.5
			c-0.3-0.3-0.6-0.5-1.1-0.5c-0.4,0-0.8,0.2-1.1,0.5C-78.5,90.7-78.6,91.2-78.6,92z"/>
		<path d="M-72.3,88.4h2l2.7,3.9v-3.9h2.1v7.1h-2.1l-2.7-3.9v3.9h-2.1V88.4z"/>
		<path d="M-64.4,93.1l2.1-0.1c0,0.3,0.1,0.6,0.3,0.8c0.2,0.3,0.5,0.4,1,0.4c0.3,0,0.6-0.1,0.7-0.2s0.3-0.3,0.3-0.5
			c0-0.2-0.1-0.3-0.2-0.5s-0.5-0.3-1.1-0.4c-1-0.2-1.6-0.5-2.1-0.9c-0.4-0.4-0.6-0.8-0.6-1.4c0-0.4,0.1-0.7,0.3-1
			c0.2-0.3,0.5-0.6,1-0.8c0.4-0.2,1-0.3,1.7-0.3c0.9,0,1.6,0.2,2.1,0.5c0.5,0.3,0.8,0.9,0.8,1.6l-2.1,0.1c-0.1-0.3-0.2-0.6-0.3-0.7
			c-0.2-0.1-0.4-0.2-0.7-0.2c-0.3,0-0.4,0.1-0.6,0.2c-0.1,0.1-0.2,0.2-0.2,0.4c0,0.1,0.1,0.2,0.2,0.3c0.1,0.1,0.3,0.2,0.7,0.3
			c1,0.2,1.6,0.4,2.1,0.6c0.4,0.2,0.7,0.5,0.9,0.8s0.3,0.7,0.3,1c0,0.5-0.1,0.9-0.4,1.3c-0.3,0.4-0.6,0.7-1.1,0.9
			c-0.5,0.2-1,0.3-1.7,0.3c-1.2,0-2-0.2-2.5-0.7C-64.1,94.4-64.4,93.9-64.4,93.1z"/>
	</g>
	<path class="st2" d="M-200.5,95.4v-3c-3,2-6.3,3-9.9,3c-5,0-9.2-1.8-12.7-5.3c-3.5-3.5-5.2-7.7-5.2-12.5c0-4.9,1.8-9.1,5.4-12.6
		c3.6-3.5,7.8-5.2,12.5-5.2c3.4,0,6.7,1,9.9,3V31.7h8v63.6H-200.5z M-210.4,67.6c-2.6,0-4.9,1-6.9,2.9c-2,1.9-3,4.2-3,7
		c0,2.6,1,5,2.9,6.9c1.9,2,4.3,2.9,7,2.9c2.7,0,5-1,6.9-2.9c2-1.9,3-4.2,3-7c0-2.6-1-5-2.9-6.9C-205.3,68.6-207.6,67.6-210.4,67.6"
		/>
	<path class="st3" d="M-200.5,95.4v-3c-3,2-6.3,3-9.9,3c-5,0-9.2-1.8-12.7-5.3c-3.5-3.5-5.2-7.7-5.2-12.5c0-4.9,1.8-9.1,5.4-12.6
		c3.6-3.5,7.8-5.2,12.5-5.2c3.4,0,6.7,1,9.9,3V31.7h8v63.6H-200.5z M-210.4,67.6c-2.6,0-4.9,1-6.9,2.9c-2,1.9-3,4.2-3,7
		c0,2.6,1,5,2.9,6.9c1.9,2,4.3,2.9,7,2.9c2.7,0,5-1,6.9-2.9c2-1.9,3-4.2,3-7c0-2.6-1-5-2.9-6.9C-205.3,68.6-207.6,67.6-210.4,67.6z"
		/>
	<path class="st2" d="M-158.8,69c-0.1,0.1-1.2,1.2-3.1,3.1c-2.4-3-5.2-4.4-8.3-4.4c-2.3,0-4.5,0.9-6.7,2.8c-2.1,1.9-3.2,3.8-3.2,5.9
		v11h12v8h-12v27.9h-8V76c0-0.9,0.3-2.3,1-4.2c1.3-3.9,3.7-7,7.2-9.2c3.1-2,6.3-3,9.7-3c5,0,9.6,2.1,13.7,6.3
		C-157.5,67.3-158.2,68.3-158.8,69"/>
	<path class="st3" d="M-158.8,69c-0.1,0.1-1.2,1.2-3.1,3.1c-2.4-3-5.2-4.4-8.3-4.4c-2.3,0-4.5,0.9-6.7,2.8c-2.1,1.9-3.2,3.8-3.2,5.9
		v11h12v8h-12v27.9h-8V76c0-0.9,0.3-2.3,1-4.2c1.3-3.9,3.7-7,7.2-9.2c3.1-2,6.3-3,9.7-3c5,0,9.6,2.1,13.7,6.3
		C-157.5,67.3-158.2,68.3-158.8,69z"/>
	<path class="st2" d="M-145.5,42.5c-1.4,0-2.6-0.5-3.7-1.6c-1.1-1-1.6-2.3-1.6-3.7c0-1.2,0.5-2.4,1.6-3.6c1-1.2,2.3-1.8,3.7-1.8
		c1.5,0,2.7,0.6,3.7,1.8c1,1.2,1.6,2.4,1.6,3.6c0,1.8-0.6,3.2-1.9,4.2C-143.1,42.1-144.3,42.5-145.5,42.5 M-149.4,95.4V67.8h-3.6
		v-8.2h11.6v35.7H-149.4"/>
	<path class="st3" d="M-145.5,42.5c-1.4,0-2.6-0.5-3.7-1.6c-1.1-1-1.6-2.3-1.6-3.7c0-1.2,0.5-2.4,1.6-3.6c1-1.2,2.3-1.8,3.7-1.8
		c1.5,0,2.7,0.6,3.7,1.8c1,1.2,1.6,2.4,1.6,3.6c0,1.8-0.6,3.2-1.9,4.2C-143.1,42.1-144.3,42.5-145.5,42.5z M-149.4,95.4V67.8h-3.6
		v-8.2h11.6v35.7H-149.4z"/>
	<path class="st4" d="M-171.4,132h-66.4v85.1C-231.9,196.3-215.4,158.2-171.4,132"/>
	<path class="st5" d="M-235,217.4h89.4v-82C-198.1,152.4-224.4,194.7-235,217.4"/>
	<g class="st2">
		<path d="M-136,185.3h1.4l0.5,2.6l0.7-2.6h1.4l0.7,2.6l0.5-2.6h1.4l-1,4.7h-1.4l-0.8-3l-0.8,3h-1.4L-136,185.3z"/>
		<path d="M-126,189.2h-1.7l-0.2,0.8h-1.5l1.8-4.7h1.6l1.8,4.7h-1.5L-126,189.2z M-126.3,188.2l-0.5-1.7l-0.5,1.7H-126.3z"/>
		<path d="M-124.1,188.4l1.4-0.1c0,0.2,0.1,0.4,0.2,0.5c0.2,0.2,0.4,0.3,0.6,0.3c0.2,0,0.4,0,0.5-0.1s0.2-0.2,0.2-0.3
			c0-0.1-0.1-0.2-0.2-0.3s-0.4-0.2-0.7-0.3c-0.6-0.1-1.1-0.3-1.4-0.6c-0.3-0.2-0.4-0.5-0.4-0.9c0-0.2,0.1-0.5,0.2-0.7
			s0.4-0.4,0.6-0.5c0.3-0.1,0.7-0.2,1.2-0.2c0.6,0,1.1,0.1,1.4,0.3c0.3,0.2,0.5,0.6,0.6,1.1l-1.4,0.1c0-0.2-0.1-0.4-0.2-0.5
			c-0.1-0.1-0.3-0.1-0.5-0.1c-0.2,0-0.3,0-0.4,0.1c-0.1,0.1-0.1,0.2-0.1,0.3c0,0.1,0,0.1,0.1,0.2c0.1,0.1,0.2,0.1,0.5,0.2
			c0.6,0.1,1.1,0.3,1.4,0.4c0.3,0.1,0.5,0.3,0.6,0.5c0.1,0.2,0.2,0.4,0.2,0.7c0,0.3-0.1,0.6-0.3,0.8c-0.2,0.3-0.4,0.4-0.7,0.6
			c-0.3,0.1-0.7,0.2-1.1,0.2c-0.8,0-1.4-0.2-1.7-0.5C-123.9,189.3-124,188.9-124.1,188.4z"/>
		<path d="M-119,185.3h1.5v1.7h1.6v-1.7h1.5v4.7h-1.5v-1.9h-1.6v1.9h-1.5V185.3z"/>
		<path d="M-113.5,185.3h1.5v4.7h-1.5V185.3z"/>
		<path d="M-111,185.3h1.4l1.8,2.6v-2.6h1.4v4.7h-1.4l-1.8-2.6v2.6h-1.4V185.3z"/>
		<path d="M-103.1,188.3v-1h2.3v2c-0.4,0.3-0.8,0.5-1.1,0.6c-0.3,0.1-0.7,0.2-1.2,0.2c-0.6,0-1-0.1-1.4-0.3s-0.6-0.5-0.8-0.9
			c-0.2-0.4-0.3-0.8-0.3-1.3c0-0.5,0.1-1,0.3-1.3c0.2-0.4,0.5-0.7,0.9-0.9c0.3-0.2,0.8-0.2,1.3-0.2c0.5,0,0.9,0,1.2,0.1
			s0.5,0.2,0.6,0.4c0.2,0.2,0.3,0.5,0.4,0.8l-1.4,0.3c-0.1-0.2-0.2-0.3-0.3-0.4s-0.3-0.1-0.5-0.1c-0.3,0-0.6,0.1-0.8,0.3
			c-0.2,0.2-0.3,0.6-0.3,1.1c0,0.5,0.1,0.9,0.3,1.1c0.2,0.2,0.5,0.3,0.8,0.3c0.2,0,0.3,0,0.5-0.1c0.1,0,0.3-0.1,0.5-0.2v-0.4H-103.1
			z"/>
		<path d="M-100.3,185.3h4.4v1.2h-1.5v3.6h-1.5v-3.6h-1.5V185.3z"/>
	</g>
	<g class="st2">
		<path d="M-95.7,187.6c0-0.8,0.2-1.4,0.6-1.8c0.4-0.4,1-0.6,1.8-0.6c0.8,0,1.4,0.2,1.8,0.6s0.6,1,0.6,1.8c0,0.6-0.1,1-0.3,1.4
			c-0.2,0.4-0.5,0.6-0.8,0.8s-0.8,0.3-1.3,0.3c-0.5,0-1-0.1-1.3-0.3c-0.3-0.2-0.6-0.4-0.8-0.8S-95.7,188.2-95.7,187.6z M-94.2,187.6
			c0,0.5,0.1,0.8,0.3,1c0.2,0.2,0.4,0.3,0.7,0.3c0.3,0,0.6-0.1,0.7-0.3c0.2-0.2,0.3-0.6,0.3-1.1c0-0.4-0.1-0.8-0.3-1
			s-0.4-0.3-0.7-0.3c-0.3,0-0.5,0.1-0.7,0.3S-94.2,187.1-94.2,187.6z"/>
		<path d="M-90,185.3h1.4l1.8,2.6v-2.6h1.4v4.7h-1.4l-1.8-2.6v2.6H-90V185.3z"/>
		<path d="M-82.5,188.4l1.4-0.1c0,0.2,0.1,0.4,0.2,0.5c0.2,0.2,0.4,0.3,0.6,0.3c0.2,0,0.4,0,0.5-0.1s0.2-0.2,0.2-0.3
			c0-0.1-0.1-0.2-0.2-0.3s-0.4-0.2-0.7-0.3c-0.6-0.1-1.1-0.3-1.4-0.6c-0.3-0.2-0.4-0.5-0.4-0.9c0-0.2,0.1-0.5,0.2-0.7
			s0.4-0.4,0.6-0.5c0.3-0.1,0.7-0.2,1.2-0.2c0.6,0,1.1,0.1,1.4,0.3c0.3,0.2,0.5,0.6,0.6,1.1l-1.4,0.1c0-0.2-0.1-0.4-0.2-0.5
			c-0.1-0.1-0.3-0.1-0.5-0.1c-0.2,0-0.3,0-0.4,0.1c-0.1,0.1-0.1,0.2-0.1,0.3c0,0.1,0,0.1,0.1,0.2c0.1,0.1,0.2,0.1,0.5,0.2
			c0.6,0.1,1.1,0.3,1.4,0.4c0.3,0.1,0.5,0.3,0.6,0.5c0.1,0.2,0.2,0.4,0.2,0.7c0,0.3-0.1,0.6-0.3,0.8c-0.2,0.3-0.4,0.4-0.7,0.6
			c-0.3,0.1-0.7,0.2-1.1,0.2c-0.8,0-1.4-0.2-1.7-0.5C-82.3,189.3-82.5,188.9-82.5,188.4z"/>
		<path d="M-77.9,185.3h4.4v1.2h-1.5v3.6h-1.5v-3.6h-1.5V185.3z"/>
	</g>
	<g class="st2">
		<path d="M-70.3,189.2H-72l-0.2,0.8h-1.5l1.8-4.7h1.6l1.8,4.7h-1.5L-70.3,189.2z M-70.6,188.2l-0.5-1.7l-0.5,1.7H-70.6z"/>
		<path d="M-68.9,185.3h4.4v1.2h-1.5v3.6h-1.5v-3.6h-1.5V185.3z"/>
	</g>
	<g class="st2">
		<path d="M-63.8,185.3h3.9v1h-2.4v0.8h2.3v1h-2.3v0.9h2.5v1.1h-4V185.3z"/>
	</g>
	<g class="st2">
		<path d="M-136.1,192.9h2.7c0.5,0,1,0.1,1.3,0.2c0.3,0.1,0.6,0.4,0.8,0.6c0.2,0.3,0.4,0.6,0.5,0.9c0.1,0.4,0.1,0.7,0.1,1.1
			c0,0.6-0.1,1.1-0.2,1.5s-0.3,0.6-0.6,0.9s-0.5,0.4-0.8,0.5c-0.4,0.1-0.8,0.2-1.1,0.2h-2.7V192.9z M-134.3,194.2v3.2h0.4
			c0.4,0,0.7,0,0.8-0.1c0.2-0.1,0.3-0.2,0.4-0.4c0.1-0.2,0.1-0.6,0.1-1c0-0.6-0.1-1.1-0.3-1.3c-0.2-0.2-0.5-0.3-1-0.3H-134.3z"/>
		<path d="M-129.7,192.9h4.9v1.3h-3.1v0.9h2.8v1.2h-2.8v1.2h3.1v1.3h-5V192.9z"/>
		<path d="M-123.8,192.9h3c0.7,0,1.2,0.2,1.5,0.5c0.3,0.3,0.5,0.8,0.5,1.3c0,0.6-0.2,1.1-0.5,1.4c-0.4,0.3-0.9,0.5-1.6,0.5h-1v2.2
			h-1.8V192.9z M-122,195.4h0.4c0.4,0,0.6-0.1,0.7-0.2c0.1-0.1,0.2-0.3,0.2-0.5c0-0.2-0.1-0.3-0.2-0.5c-0.1-0.1-0.4-0.2-0.7-0.2
			h-0.5V195.4z"/>
	</g>
	<g class="st2">
		<path d="M-114.9,197.8h-2.1l-0.3,1h-1.9l2.2-5.9h2l2.2,5.9h-1.9L-114.9,197.8z M-115.3,196.5l-0.7-2.1l-0.6,2.1H-115.3z"/>
		<path d="M-112.1,198.8v-5.9h3c0.6,0,1,0,1.3,0.1c0.3,0.1,0.5,0.3,0.7,0.5c0.2,0.3,0.3,0.6,0.3,1c0,0.3-0.1,0.6-0.2,0.8
			s-0.3,0.4-0.6,0.6c-0.2,0.1-0.4,0.2-0.6,0.2c0.2,0.1,0.4,0.1,0.5,0.2c0.1,0,0.2,0.2,0.3,0.3c0.1,0.2,0.2,0.3,0.3,0.4l0.9,1.7h-2.1
			l-1-1.8c-0.1-0.2-0.2-0.4-0.3-0.5c-0.1-0.1-0.3-0.1-0.4-0.1h-0.2v2.4H-112.1z M-110.3,195.3h0.8c0.1,0,0.2,0,0.5-0.1
			c0.1,0,0.2-0.1,0.3-0.2c0.1-0.1,0.1-0.2,0.1-0.3c0-0.2-0.1-0.3-0.2-0.4c-0.1-0.1-0.3-0.2-0.7-0.2h-0.8V195.3z"/>
		<path d="M-106.1,192.9h5.5v1.5h-1.9v4.4h-1.8v-4.4h-1.9V192.9z"/>
		<path d="M-99.8,192.9h2.4l0.9,3.6l0.9-3.6h2.4v5.9h-1.5v-4.5l-1.2,4.5h-1.4l-1.1-4.5v4.5h-1.5V192.9z"/>
		<path d="M-92,192.9h4.9v1.3h-3.1v0.9h2.8v1.2h-2.8v1.2h3.1v1.3h-5V192.9z"/>
		<path d="M-86,192.9h1.7l2.2,3.3v-3.3h1.7v5.9h-1.7l-2.2-3.2v3.2H-86V192.9z"/>
		<path d="M-79.6,192.9h5.5v1.5h-1.9v4.4h-1.8v-4.4h-1.9V192.9z"/>
		<path d="M-70.7,195.8c0-1,0.3-1.7,0.8-2.3c0.5-0.5,1.3-0.8,2.2-0.8c1,0,1.7,0.3,2.3,0.8s0.8,1.3,0.8,2.2c0,0.7-0.1,1.3-0.3,1.7
			s-0.6,0.8-1,1c-0.4,0.2-1,0.4-1.6,0.4c-0.7,0-1.2-0.1-1.7-0.3c-0.4-0.2-0.8-0.5-1.1-1S-70.7,196.5-70.7,195.8z M-68.9,195.8
			c0,0.6,0.1,1,0.3,1.3c0.2,0.3,0.5,0.4,0.9,0.4c0.4,0,0.7-0.1,0.9-0.4c0.2-0.3,0.3-0.7,0.3-1.4c0-0.6-0.1-1-0.3-1.2
			c-0.2-0.3-0.5-0.4-0.9-0.4c-0.4,0-0.7,0.1-0.9,0.4C-68.8,194.8-68.9,195.2-68.9,195.8z"/>
		<path d="M-63.6,192.9h4.5v1.3h-2.7v1h2.3v1.2h-2.3v2.4h-1.8V192.9z"/>
	</g>
	<g class="st2">
		<path d="M-137,201.4h7.2v2h-4.3v1.6h3.7v1.9h-3.7v3.9h-2.9V201.4z"/>
		<path d="M-128.1,201.4h2.9v9.4h-2.9V201.4z"/>
		<path d="M-123.1,201.4h2.7l3.6,5.2v-5.2h2.8v9.4h-2.8l-3.5-5.2v5.2h-2.7V201.4z"/>
		<path d="M-106.4,209.3h-3.3l-0.5,1.6h-3l3.5-9.4h3.2l3.5,9.4h-3.1L-106.4,209.3z M-107,207.3l-1-3.4l-1,3.4H-107z"/>
		<path d="M-102,201.4h2.7l3.6,5.2v-5.2h2.8v9.4h-2.8l-3.5-5.2v5.2h-2.7V201.4z"/>
		<path d="M-84.8,207l2.6,0.8c-0.2,0.7-0.4,1.3-0.8,1.8c-0.4,0.5-0.8,0.8-1.4,1.1s-1.2,0.4-2.1,0.4c-1,0-1.9-0.1-2.5-0.4
			s-1.2-0.8-1.7-1.6s-0.7-1.7-0.7-2.9c0-1.6,0.4-2.8,1.2-3.6c0.8-0.8,2-1.3,3.5-1.3c1.2,0,2.1,0.2,2.8,0.7c0.7,0.5,1.2,1.2,1.5,2.2
			l-2.6,0.6c-0.1-0.3-0.2-0.5-0.3-0.6c-0.2-0.2-0.4-0.4-0.6-0.5c-0.2-0.1-0.5-0.2-0.8-0.2c-0.7,0-1.2,0.3-1.5,0.8
			c-0.3,0.4-0.4,1-0.4,1.9c0,1,0.2,1.8,0.5,2.2c0.3,0.4,0.8,0.6,1.3,0.6c0.6,0,1-0.2,1.3-0.5C-85.1,208-84.9,207.6-84.8,207z"/>
		<path d="M-80.7,201.4h2.9v9.4h-2.9V201.4z"/>
		<path d="M-69.9,209.3h-3.3l-0.5,1.6h-3l3.5-9.4h3.2l3.5,9.4h-3.1L-69.9,209.3z M-70.5,207.3l-1-3.4l-1,3.4H-70.5z"/>
	</g>
	<g class="st2">
		<path d="M-65.3,201.4h2.9v7.1h4.6v2.3h-7.5V201.4z"/>
	</g>
	<g class="st2">
	</g>
	<g class="st2">
		<path d="M-137.1,214.2h2.2v7.1h-2.2V214.2z"/>
		<path d="M-133.3,214.2h2l2.7,3.9v-3.9h2.1v7.1h-2.1l-2.7-3.9v3.9h-2.1V214.2z"/>
		<path d="M-125.4,219l2.1-0.1c0,0.3,0.1,0.6,0.3,0.8c0.2,0.3,0.5,0.4,1,0.4c0.3,0,0.6-0.1,0.7-0.2s0.3-0.3,0.3-0.5
			c0-0.2-0.1-0.3-0.2-0.5s-0.5-0.3-1.1-0.4c-1-0.2-1.6-0.5-2.1-0.9c-0.4-0.4-0.6-0.8-0.6-1.4c0-0.4,0.1-0.7,0.3-1s0.5-0.6,1-0.8
			c0.4-0.2,1-0.3,1.7-0.3c0.9,0,1.6,0.2,2.1,0.5c0.5,0.3,0.8,0.9,0.8,1.6l-2.1,0.1c-0.1-0.3-0.2-0.6-0.3-0.7
			c-0.2-0.1-0.4-0.2-0.7-0.2c-0.3,0-0.4,0.1-0.6,0.2c-0.1,0.1-0.2,0.2-0.2,0.4c0,0.1,0.1,0.2,0.2,0.3c0.1,0.1,0.3,0.2,0.7,0.3
			c1,0.2,1.6,0.4,2.1,0.6c0.4,0.2,0.7,0.5,0.9,0.8s0.3,0.7,0.3,1c0,0.5-0.1,0.9-0.4,1.3c-0.3,0.4-0.6,0.7-1.1,0.9
			c-0.5,0.2-1,0.3-1.7,0.3c-1.2,0-2-0.2-2.5-0.7C-125.1,220.3-125.4,219.7-125.4,219z"/>
		<path d="M-118.4,214.2h6.7v1.7h-2.2v5.3h-2.2V216h-2.2V214.2z"/>
		<path d="M-110.7,214.2h2.2v7.1h-2.2V214.2z"/>
		<path d="M-107.4,214.2h6.7v1.7h-2.2v5.3h-2.2V216h-2.2V214.2z"/>
		<path d="M-95.2,214.2h2.2v4.2c0,0.4-0.1,0.8-0.2,1.2c-0.1,0.4-0.3,0.7-0.6,1c-0.3,0.3-0.6,0.5-0.9,0.6c-0.4,0.2-0.9,0.2-1.5,0.2
			c-0.3,0-0.7,0-1.1-0.1c-0.4,0-0.7-0.1-1-0.3c-0.3-0.1-0.5-0.3-0.8-0.6c-0.2-0.3-0.4-0.5-0.5-0.8c-0.1-0.5-0.2-0.8-0.2-1.2v-4.2
			h2.2v4.3c0,0.4,0.1,0.7,0.3,0.9c0.2,0.2,0.5,0.3,0.9,0.3c0.4,0,0.7-0.1,0.9-0.3s0.3-0.5,0.3-0.9V214.2z"/>
		<path d="M-92,214.2h6.7v1.7h-2.2v5.3h-2.2V216H-92V214.2z"/>
		<path d="M-84.3,214.2h2.2v7.1h-2.2V214.2z"/>
		<path d="M-80.8,217.8c0-1.2,0.3-2.1,1-2.7c0.6-0.6,1.5-1,2.7-1c1.2,0,2.1,0.3,2.7,0.9c0.6,0.6,1,1.5,1,2.7c0,0.8-0.1,1.5-0.4,2
			s-0.7,0.9-1.2,1.2s-1.2,0.4-2,0.4c-0.8,0-1.5-0.1-2-0.4c-0.5-0.3-0.9-0.7-1.3-1.2C-80.7,219.3-80.8,218.6-80.8,217.8z
			 M-78.6,217.8c0,0.7,0.1,1.2,0.4,1.5c0.3,0.3,0.6,0.5,1.1,0.5c0.5,0,0.8-0.2,1.1-0.5c0.3-0.3,0.4-0.9,0.4-1.6
			c0-0.7-0.1-1.2-0.4-1.5c-0.3-0.3-0.6-0.5-1.1-0.5c-0.4,0-0.8,0.2-1.1,0.5C-78.5,216.5-78.6,217.1-78.6,217.8z"/>
		<path d="M-72.3,214.2h2l2.7,3.9v-3.9h2.1v7.1h-2.1l-2.7-3.9v3.9h-2.1V214.2z"/>
		<path d="M-64.4,219l2.1-0.1c0,0.3,0.1,0.6,0.3,0.8c0.2,0.3,0.5,0.4,1,0.4c0.3,0,0.6-0.1,0.7-0.2s0.3-0.3,0.3-0.5
			c0-0.2-0.1-0.3-0.2-0.5s-0.5-0.3-1.1-0.4c-1-0.2-1.6-0.5-2.1-0.9c-0.4-0.4-0.6-0.8-0.6-1.4c0-0.4,0.1-0.7,0.3-1
			c0.2-0.3,0.5-0.6,1-0.8c0.4-0.2,1-0.3,1.7-0.3c0.9,0,1.6,0.2,2.1,0.5c0.5,0.3,0.8,0.9,0.8,1.6l-2.1,0.1c-0.1-0.3-0.2-0.6-0.3-0.7
			c-0.2-0.1-0.4-0.2-0.7-0.2c-0.3,0-0.4,0.1-0.6,0.2c-0.1,0.1-0.2,0.2-0.2,0.4c0,0.1,0.1,0.2,0.2,0.3c0.1,0.1,0.3,0.2,0.7,0.3
			c1,0.2,1.6,0.4,2.1,0.6c0.4,0.2,0.7,0.5,0.9,0.8s0.3,0.7,0.3,1c0,0.5-0.1,0.9-0.4,1.3c-0.3,0.4-0.6,0.7-1.1,0.9
			c-0.5,0.2-1,0.3-1.7,0.3c-1.2,0-2-0.2-2.5-0.7C-64.1,220.3-64.4,219.7-64.4,219z"/>
	</g>
	<path class="st2" d="M-200.5,221.2v-3c-3,2-6.3,3-9.9,3c-5,0-9.2-1.8-12.7-5.3c-3.5-3.5-5.2-7.7-5.2-12.5c0-4.9,1.8-9.1,5.4-12.6
		s7.8-5.2,12.5-5.2c3.4,0,6.7,1,9.9,3v-30.8h8v63.6H-200.5z M-210.4,193.5c-2.6,0-4.9,1-6.9,2.9c-2,1.9-3,4.2-3,7c0,2.6,1,5,2.9,6.9
		c1.9,2,4.3,2.9,7,2.9c2.7,0,5-1,6.9-2.9c2-1.9,3-4.2,3-7c0-2.6-1-5-2.9-6.9C-205.3,194.4-207.6,193.5-210.4,193.5"/>
	<path class="st3" d="M-200.5,221.2v-3c-3,2-6.3,3-9.9,3c-5,0-9.2-1.8-12.7-5.3c-3.5-3.5-5.2-7.7-5.2-12.5c0-4.9,1.8-9.1,5.4-12.6
		s7.8-5.2,12.5-5.2c3.4,0,6.7,1,9.9,3v-30.8h8v63.6H-200.5z M-210.4,193.5c-2.6,0-4.9,1-6.9,2.9c-2,1.9-3,4.2-3,7c0,2.6,1,5,2.9,6.9
		c1.9,2,4.3,2.9,7,2.9c2.7,0,5-1,6.9-2.9c2-1.9,3-4.2,3-7c0-2.6-1-5-2.9-6.9C-205.3,194.4-207.6,193.5-210.4,193.5z"/>
	<path class="st2" d="M-158.8,194.8c-0.1,0.1-1.2,1.2-3.1,3.1c-2.4-3-5.2-4.4-8.3-4.4c-2.3,0-4.5,0.9-6.7,2.8
		c-2.1,1.9-3.2,3.8-3.2,5.9v11h12v8h-12v27.9h-8v-47.2c0-0.9,0.3-2.3,1-4.2c1.3-3.9,3.7-7,7.2-9.2c3.1-2,6.3-3,9.7-3
		c5,0,9.6,2.1,13.7,6.3C-157.5,193.1-158.2,194.1-158.8,194.8"/>
	<path class="st3" d="M-158.8,194.8c-0.1,0.1-1.2,1.2-3.1,3.1c-2.4-3-5.2-4.4-8.3-4.4c-2.3,0-4.5,0.9-6.7,2.8
		c-2.1,1.9-3.2,3.8-3.2,5.9v11h12v8h-12v27.9h-8v-47.2c0-0.9,0.3-2.3,1-4.2c1.3-3.9,3.7-7,7.2-9.2c3.1-2,6.3-3,9.7-3
		c5,0,9.6,2.1,13.7,6.3C-157.5,193.1-158.2,194.1-158.8,194.8z"/>
	<path class="st2" d="M-145.5,168.3c-1.4,0-2.6-0.5-3.7-1.6c-1.1-1-1.6-2.3-1.6-3.7c0-1.2,0.5-2.4,1.6-3.6c1-1.2,2.3-1.8,3.7-1.8
		c1.5,0,2.7,0.6,3.7,1.8c1,1.2,1.6,2.4,1.6,3.6c0,1.8-0.6,3.2-1.9,4.2C-143.1,167.9-144.3,168.3-145.5,168.3 M-149.4,221.2v-27.5
		h-3.6v-8.2h11.6v35.7H-149.4"/>
	<path class="st3" d="M-145.5,168.3c-1.4,0-2.6-0.5-3.7-1.6c-1.1-1-1.6-2.3-1.6-3.7c0-1.2,0.5-2.4,1.6-3.6c1-1.2,2.3-1.8,3.7-1.8
		c1.5,0,2.7,0.6,3.7,1.8c1,1.2,1.6,2.4,1.6,3.6c0,1.8-0.6,3.2-1.9,4.2C-143.1,167.9-144.3,168.3-145.5,168.3z M-149.4,221.2v-27.5
		h-3.6v-8.2h11.6v35.7H-149.4z"/>
	<path class="st6" d="M-171.4,257.8h-66.4V343C-231.9,322.1-215.4,284-171.4,257.8"/>
	<path class="st7" d="M-235,343.2h89.4v-82C-198.1,278.2-224.4,320.5-235,343.2"/>
	<g class="st2">
		<path d="M-136,311.1h1.4l0.5,2.6l0.7-2.6h1.4l0.7,2.6l0.5-2.6h1.4l-1,4.7h-1.4l-0.8-3l-0.8,3h-1.4L-136,311.1z"/>
		<path d="M-126,315h-1.7l-0.2,0.8h-1.5l1.8-4.7h1.6l1.8,4.7h-1.5L-126,315z M-126.3,314l-0.5-1.7l-0.5,1.7H-126.3z"/>
		<path d="M-124.1,314.2l1.4-0.1c0,0.2,0.1,0.4,0.2,0.5c0.2,0.2,0.4,0.3,0.6,0.3c0.2,0,0.4,0,0.5-0.1s0.2-0.2,0.2-0.3
			c0-0.1-0.1-0.2-0.2-0.3s-0.4-0.2-0.7-0.3c-0.6-0.1-1.1-0.3-1.4-0.6c-0.3-0.2-0.4-0.5-0.4-0.9c0-0.2,0.1-0.5,0.2-0.7
			s0.4-0.4,0.6-0.5c0.3-0.1,0.7-0.2,1.2-0.2c0.6,0,1.1,0.1,1.4,0.3c0.3,0.2,0.5,0.6,0.6,1.1l-1.4,0.1c0-0.2-0.1-0.4-0.2-0.5
			c-0.1-0.1-0.3-0.1-0.5-0.1c-0.2,0-0.3,0-0.4,0.1c-0.1,0.1-0.1,0.2-0.1,0.3c0,0.1,0,0.1,0.1,0.2c0.1,0.1,0.2,0.1,0.5,0.2
			c0.6,0.1,1.1,0.3,1.4,0.4c0.3,0.1,0.5,0.3,0.6,0.5c0.1,0.2,0.2,0.4,0.2,0.7c0,0.3-0.1,0.6-0.3,0.8c-0.2,0.3-0.4,0.4-0.7,0.6
			c-0.3,0.1-0.7,0.2-1.1,0.2c-0.8,0-1.4-0.2-1.7-0.5C-123.9,315.1-124,314.7-124.1,314.2z"/>
		<path d="M-119,311.1h1.5v1.7h1.6v-1.7h1.5v4.7h-1.5v-1.9h-1.6v1.9h-1.5V311.1z"/>
		<path d="M-113.5,311.1h1.5v4.7h-1.5V311.1z"/>
		<path d="M-111,311.1h1.4l1.8,2.6v-2.6h1.4v4.7h-1.4l-1.8-2.6v2.6h-1.4V311.1z"/>
		<path d="M-103.1,314.1v-1h2.3v2c-0.4,0.3-0.8,0.5-1.1,0.6c-0.3,0.1-0.7,0.2-1.2,0.2c-0.6,0-1-0.1-1.4-0.3s-0.6-0.5-0.8-0.9
			c-0.2-0.4-0.3-0.8-0.3-1.3c0-0.5,0.1-1,0.3-1.3c0.2-0.4,0.5-0.7,0.9-0.9c0.3-0.2,0.8-0.2,1.3-0.2c0.5,0,0.9,0,1.2,0.1
			s0.5,0.2,0.6,0.4c0.2,0.2,0.3,0.5,0.4,0.8l-1.4,0.3c-0.1-0.2-0.2-0.3-0.3-0.4s-0.3-0.1-0.5-0.1c-0.3,0-0.6,0.1-0.8,0.3
			c-0.2,0.2-0.3,0.6-0.3,1.1c0,0.5,0.1,0.9,0.3,1.1c0.2,0.2,0.5,0.3,0.8,0.3c0.2,0,0.3,0,0.5-0.1c0.1,0,0.3-0.1,0.5-0.2v-0.4H-103.1
			z"/>
		<path d="M-100.3,311.1h4.4v1.2h-1.5v3.6h-1.5v-3.6h-1.5V311.1z"/>
	</g>
	<g class="st2">
		<path d="M-95.7,313.4c0-0.8,0.2-1.4,0.6-1.8c0.4-0.4,1-0.6,1.8-0.6c0.8,0,1.4,0.2,1.8,0.6s0.6,1,0.6,1.8c0,0.6-0.1,1-0.3,1.4
			c-0.2,0.4-0.5,0.6-0.8,0.8s-0.8,0.3-1.3,0.3c-0.5,0-1-0.1-1.3-0.3c-0.3-0.2-0.6-0.4-0.8-0.8S-95.7,314-95.7,313.4z M-94.2,313.4
			c0,0.5,0.1,0.8,0.3,1c0.2,0.2,0.4,0.3,0.7,0.3c0.3,0,0.6-0.1,0.7-0.3c0.2-0.2,0.3-0.6,0.3-1.1c0-0.4-0.1-0.8-0.3-1
			s-0.4-0.3-0.7-0.3c-0.3,0-0.5,0.1-0.7,0.3S-94.2,313-94.2,313.4z"/>
		<path d="M-90,311.1h1.4l1.8,2.6v-2.6h1.4v4.7h-1.4l-1.8-2.6v2.6H-90V311.1z"/>
		<path d="M-82.5,314.2l1.4-0.1c0,0.2,0.1,0.4,0.2,0.5c0.2,0.2,0.4,0.3,0.6,0.3c0.2,0,0.4,0,0.5-0.1s0.2-0.2,0.2-0.3
			c0-0.1-0.1-0.2-0.2-0.3s-0.4-0.2-0.7-0.3c-0.6-0.1-1.1-0.3-1.4-0.6c-0.3-0.2-0.4-0.5-0.4-0.9c0-0.2,0.1-0.5,0.2-0.7
			s0.4-0.4,0.6-0.5c0.3-0.1,0.7-0.2,1.2-0.2c0.6,0,1.1,0.1,1.4,0.3c0.3,0.2,0.5,0.6,0.6,1.1l-1.4,0.1c0-0.2-0.1-0.4-0.2-0.5
			c-0.1-0.1-0.3-0.1-0.5-0.1c-0.2,0-0.3,0-0.4,0.1c-0.1,0.1-0.1,0.2-0.1,0.3c0,0.1,0,0.1,0.1,0.2c0.1,0.1,0.2,0.1,0.5,0.2
			c0.6,0.1,1.1,0.3,1.4,0.4c0.3,0.1,0.5,0.3,0.6,0.5c0.1,0.2,0.2,0.4,0.2,0.7c0,0.3-0.1,0.6-0.3,0.8c-0.2,0.3-0.4,0.4-0.7,0.6
			c-0.3,0.1-0.7,0.2-1.1,0.2c-0.8,0-1.4-0.2-1.7-0.5C-82.3,315.1-82.5,314.7-82.5,314.2z"/>
		<path d="M-77.9,311.1h4.4v1.2h-1.5v3.6h-1.5v-3.6h-1.5V311.1z"/>
	</g>
	<g class="st2">
		<path d="M-70.3,315H-72l-0.2,0.8h-1.5l1.8-4.7h1.6l1.8,4.7h-1.5L-70.3,315z M-70.6,314l-0.5-1.7l-0.5,1.7H-70.6z"/>
		<path d="M-68.9,311.1h4.4v1.2h-1.5v3.6h-1.5v-3.6h-1.5V311.1z"/>
	</g>
	<g class="st2">
		<path d="M-63.8,311.1h3.9v1h-2.4v0.8h2.3v1h-2.3v0.9h2.5v1.1h-4V311.1z"/>
	</g>
	<g class="st2">
		<path d="M-136.1,318.7h2.7c0.5,0,1,0.1,1.3,0.2c0.3,0.1,0.6,0.4,0.8,0.6c0.2,0.3,0.4,0.6,0.5,0.9c0.1,0.4,0.1,0.7,0.1,1.1
			c0,0.6-0.1,1.1-0.2,1.5s-0.3,0.6-0.6,0.9s-0.5,0.4-0.8,0.5c-0.4,0.1-0.8,0.2-1.1,0.2h-2.7V318.7z M-134.3,320v3.2h0.4
			c0.4,0,0.7,0,0.8-0.1c0.2-0.1,0.3-0.2,0.4-0.4c0.1-0.2,0.1-0.6,0.1-1c0-0.6-0.1-1.1-0.3-1.3c-0.2-0.2-0.5-0.3-1-0.3H-134.3z"/>
		<path d="M-129.7,318.7h4.9v1.3h-3.1v0.9h2.8v1.2h-2.8v1.2h3.1v1.3h-5V318.7z"/>
		<path d="M-123.8,318.7h3c0.7,0,1.2,0.2,1.5,0.5c0.3,0.3,0.5,0.8,0.5,1.3c0,0.6-0.2,1.1-0.5,1.4c-0.4,0.3-0.9,0.5-1.6,0.5h-1v2.2
			h-1.8V318.7z M-122,321.2h0.4c0.4,0,0.6-0.1,0.7-0.2c0.1-0.1,0.2-0.3,0.2-0.5c0-0.2-0.1-0.3-0.2-0.5c-0.1-0.1-0.4-0.2-0.7-0.2
			h-0.5V321.2z"/>
	</g>
	<g class="st2">
		<path d="M-114.9,323.6h-2.1l-0.3,1h-1.9l2.2-5.9h2l2.2,5.9h-1.9L-114.9,323.6z M-115.3,322.3l-0.7-2.1l-0.6,2.1H-115.3z"/>
		<path d="M-112.1,324.6v-5.9h3c0.6,0,1,0,1.3,0.1c0.3,0.1,0.5,0.3,0.7,0.5c0.2,0.3,0.3,0.6,0.3,1c0,0.3-0.1,0.6-0.2,0.8
			s-0.3,0.4-0.6,0.6c-0.2,0.1-0.4,0.2-0.6,0.2c0.2,0.1,0.4,0.1,0.5,0.2c0.1,0,0.2,0.2,0.3,0.3c0.1,0.2,0.2,0.3,0.3,0.4l0.9,1.7h-2.1
			l-1-1.8c-0.1-0.2-0.2-0.4-0.3-0.5c-0.1-0.1-0.3-0.1-0.4-0.1h-0.2v2.4H-112.1z M-110.3,321.1h0.8c0.1,0,0.2,0,0.5-0.1
			c0.1,0,0.2-0.1,0.3-0.2c0.1-0.1,0.1-0.2,0.1-0.3c0-0.2-0.1-0.3-0.2-0.4c-0.1-0.1-0.3-0.2-0.7-0.2h-0.8V321.1z"/>
		<path d="M-106.1,318.7h5.5v1.5h-1.9v4.4h-1.8v-4.4h-1.9V318.7z"/>
		<path d="M-99.8,318.7h2.4l0.9,3.6l0.9-3.6h2.4v5.9h-1.5v-4.5l-1.2,4.5h-1.4l-1.1-4.5v4.5h-1.5V318.7z"/>
		<path d="M-92,318.7h4.9v1.3h-3.1v0.9h2.8v1.2h-2.8v1.2h3.1v1.3h-5V318.7z"/>
		<path d="M-86,318.7h1.7l2.2,3.3v-3.3h1.7v5.9h-1.7l-2.2-3.2v3.2H-86V318.7z"/>
		<path d="M-79.6,318.7h5.5v1.5h-1.9v4.4h-1.8v-4.4h-1.9V318.7z"/>
		<path d="M-70.7,321.6c0-1,0.3-1.7,0.8-2.3c0.5-0.5,1.3-0.8,2.2-0.8c1,0,1.7,0.3,2.3,0.8s0.8,1.3,0.8,2.2c0,0.7-0.1,1.3-0.3,1.7
			s-0.6,0.8-1,1c-0.4,0.2-1,0.4-1.6,0.4c-0.7,0-1.2-0.1-1.7-0.3c-0.4-0.2-0.8-0.5-1.1-1S-70.7,322.3-70.7,321.6z M-68.9,321.7
			c0,0.6,0.1,1,0.3,1.3c0.2,0.3,0.5,0.4,0.9,0.4c0.4,0,0.7-0.1,0.9-0.4c0.2-0.3,0.3-0.7,0.3-1.4c0-0.6-0.1-1-0.3-1.2
			c-0.2-0.3-0.5-0.4-0.9-0.4c-0.4,0-0.7,0.1-0.9,0.4C-68.8,320.6-68.9,321.1-68.9,321.7z"/>
		<path d="M-63.6,318.7h4.5v1.3h-2.7v1h2.3v1.2h-2.3v2.4h-1.8V318.7z"/>
	</g>
	<g class="st2">
		<path d="M-137,327.2h7.2v2h-4.3v1.6h3.7v1.9h-3.7v3.9h-2.9V327.2z"/>
		<path d="M-128.1,327.2h2.9v9.4h-2.9V327.2z"/>
		<path d="M-123.1,327.2h2.7l3.6,5.2v-5.2h2.8v9.4h-2.8l-3.5-5.2v5.2h-2.7V327.2z"/>
		<path d="M-106.4,335.1h-3.3l-0.5,1.6h-3l3.5-9.4h3.2l3.5,9.4h-3.1L-106.4,335.1z M-107,333.1l-1-3.4l-1,3.4H-107z"/>
		<path d="M-102,327.2h2.7l3.6,5.2v-5.2h2.8v9.4h-2.8l-3.5-5.2v5.2h-2.7V327.2z"/>
		<path d="M-84.8,332.8l2.6,0.8c-0.2,0.7-0.4,1.3-0.8,1.8c-0.4,0.5-0.8,0.8-1.4,1.1s-1.2,0.4-2.1,0.4c-1,0-1.9-0.1-2.5-0.4
			s-1.2-0.8-1.7-1.6s-0.7-1.7-0.7-2.9c0-1.6,0.4-2.8,1.2-3.6c0.8-0.8,2-1.3,3.5-1.3c1.2,0,2.1,0.2,2.8,0.7c0.7,0.5,1.2,1.2,1.5,2.2
			l-2.6,0.6c-0.1-0.3-0.2-0.5-0.3-0.6c-0.2-0.2-0.4-0.4-0.6-0.5c-0.2-0.1-0.5-0.2-0.8-0.2c-0.7,0-1.2,0.3-1.5,0.8
			c-0.3,0.4-0.4,1-0.4,1.9c0,1,0.2,1.8,0.5,2.2c0.3,0.4,0.8,0.6,1.3,0.6c0.6,0,1-0.2,1.3-0.5C-85.1,333.9-84.9,333.4-84.8,332.8z"/>
		<path d="M-80.7,327.2h2.9v9.4h-2.9V327.2z"/>
		<path d="M-69.9,335.1h-3.3l-0.5,1.6h-3l3.5-9.4h3.2l3.5,9.4h-3.1L-69.9,335.1z M-70.5,333.1l-1-3.4l-1,3.4H-70.5z"/>
	</g>
	<g class="st2">
		<path d="M-65.3,327.2h2.9v7.1h4.6v2.3h-7.5V327.2z"/>
	</g>
	<g class="st2">
	</g>
	<g class="st2">
		<path d="M-137.1,340h2.2v7.1h-2.2V340z"/>
		<path d="M-133.3,340h2l2.7,3.9V340h2.1v7.1h-2.1l-2.7-3.9v3.9h-2.1V340z"/>
		<path d="M-125.4,344.8l2.1-0.1c0,0.3,0.1,0.6,0.3,0.8c0.2,0.3,0.5,0.4,1,0.4c0.3,0,0.6-0.1,0.7-0.2s0.3-0.3,0.3-0.5
			c0-0.2-0.1-0.3-0.2-0.5s-0.5-0.3-1.1-0.4c-1-0.2-1.6-0.5-2.1-0.9c-0.4-0.4-0.6-0.8-0.6-1.4c0-0.4,0.1-0.7,0.3-1s0.5-0.6,1-0.8
			c0.4-0.2,1-0.3,1.7-0.3c0.9,0,1.6,0.2,2.1,0.5c0.5,0.3,0.8,0.9,0.8,1.6l-2.1,0.1c-0.1-0.3-0.2-0.6-0.3-0.7
			c-0.2-0.1-0.4-0.2-0.7-0.2c-0.3,0-0.4,0.1-0.6,0.2c-0.1,0.1-0.2,0.2-0.2,0.4c0,0.1,0.1,0.2,0.2,0.3c0.1,0.1,0.3,0.2,0.7,0.3
			c1,0.2,1.6,0.4,2.1,0.6c0.4,0.2,0.7,0.5,0.9,0.8s0.3,0.7,0.3,1c0,0.5-0.1,0.9-0.4,1.3c-0.3,0.4-0.6,0.7-1.1,0.9
			c-0.5,0.2-1,0.3-1.7,0.3c-1.2,0-2-0.2-2.5-0.7C-125.1,346.1-125.4,345.5-125.4,344.8z"/>
		<path d="M-118.4,340h6.7v1.7h-2.2v5.3h-2.2v-5.3h-2.2V340z"/>
		<path d="M-110.7,340h2.2v7.1h-2.2V340z"/>
		<path d="M-107.4,340h6.7v1.7h-2.2v5.3h-2.2v-5.3h-2.2V340z"/>
		<path d="M-95.2,340h2.2v4.2c0,0.4-0.1,0.8-0.2,1.2c-0.1,0.4-0.3,0.7-0.6,1c-0.3,0.3-0.6,0.5-0.9,0.6c-0.4,0.2-0.9,0.2-1.5,0.2
			c-0.3,0-0.7,0-1.1-0.1c-0.4,0-0.7-0.1-1-0.3c-0.3-0.1-0.5-0.3-0.8-0.6c-0.2-0.3-0.4-0.5-0.5-0.8c-0.1-0.5-0.2-0.8-0.2-1.2V340h2.2
			v4.3c0,0.4,0.1,0.7,0.3,0.9c0.2,0.2,0.5,0.3,0.9,0.3c0.4,0,0.7-0.1,0.9-0.3s0.3-0.5,0.3-0.9V340z"/>
		<path d="M-92,340h6.7v1.7h-2.2v5.3h-2.2v-5.3H-92V340z"/>
		<path d="M-84.3,340h2.2v7.1h-2.2V340z"/>
		<path d="M-80.8,343.6c0-1.2,0.3-2.1,1-2.7c0.6-0.6,1.5-1,2.7-1c1.2,0,2.1,0.3,2.7,0.9c0.6,0.6,1,1.5,1,2.7c0,0.8-0.1,1.5-0.4,2
			s-0.7,0.9-1.2,1.2s-1.2,0.4-2,0.4c-0.8,0-1.5-0.1-2-0.4c-0.5-0.3-0.9-0.7-1.3-1.2C-80.7,345.1-80.8,344.4-80.8,343.6z
			 M-78.6,343.6c0,0.7,0.1,1.2,0.4,1.5c0.3,0.3,0.6,0.5,1.1,0.5c0.5,0,0.8-0.2,1.1-0.5c0.3-0.3,0.4-0.9,0.4-1.6
			c0-0.7-0.1-1.2-0.4-1.5c-0.3-0.3-0.6-0.5-1.1-0.5c-0.4,0-0.8,0.2-1.1,0.5C-78.5,342.4-78.6,342.9-78.6,343.6z"/>
		<path d="M-72.3,340h2l2.7,3.9V340h2.1v7.1h-2.1l-2.7-3.9v3.9h-2.1V340z"/>
		<path d="M-64.4,344.8l2.1-0.1c0,0.3,0.1,0.6,0.3,0.8c0.2,0.3,0.5,0.4,1,0.4c0.3,0,0.6-0.1,0.7-0.2s0.3-0.3,0.3-0.5
			c0-0.2-0.1-0.3-0.2-0.5s-0.5-0.3-1.1-0.4c-1-0.2-1.6-0.5-2.1-0.9c-0.4-0.4-0.6-0.8-0.6-1.4c0-0.4,0.1-0.7,0.3-1
			c0.2-0.3,0.5-0.6,1-0.8c0.4-0.2,1-0.3,1.7-0.3c0.9,0,1.6,0.2,2.1,0.5c0.5,0.3,0.8,0.9,0.8,1.6l-2.1,0.1c-0.1-0.3-0.2-0.6-0.3-0.7
			c-0.2-0.1-0.4-0.2-0.7-0.2c-0.3,0-0.4,0.1-0.6,0.2c-0.1,0.1-0.2,0.2-0.2,0.4c0,0.1,0.1,0.2,0.2,0.3c0.1,0.1,0.3,0.2,0.7,0.3
			c1,0.2,1.6,0.4,2.1,0.6c0.4,0.2,0.7,0.5,0.9,0.8s0.3,0.7,0.3,1c0,0.5-0.1,0.9-0.4,1.3c-0.3,0.4-0.6,0.7-1.1,0.9
			c-0.5,0.2-1,0.3-1.7,0.3c-1.2,0-2-0.2-2.5-0.7C-64.1,346.1-64.4,345.5-64.4,344.8z"/>
	</g>
	<path class="st2" d="M-200.5,347v-3c-3,2-6.3,3-9.9,3c-5,0-9.2-1.8-12.7-5.3c-3.5-3.5-5.2-7.7-5.2-12.5c0-4.9,1.8-9.1,5.4-12.6
		s7.8-5.2,12.5-5.2c3.4,0,6.7,1,9.9,3v-30.8h8V347H-200.5z M-210.4,319.3c-2.6,0-4.9,1-6.9,2.9c-2,1.9-3,4.2-3,7c0,2.6,1,5,2.9,6.9
		c1.9,2,4.3,2.9,7,2.9c2.7,0,5-0.9,6.9-2.8c2-1.9,3-4.2,3-7c0-2.6-1-5-2.9-6.9C-205.3,320.3-207.6,319.3-210.4,319.3"/>
	<path class="st3" d="M-200.5,347v-3c-3,2-6.3,3-9.9,3c-5,0-9.2-1.8-12.7-5.3c-3.5-3.5-5.2-7.7-5.2-12.5c0-4.9,1.8-9.1,5.4-12.6
		s7.8-5.2,12.5-5.2c3.4,0,6.7,1,9.9,3v-30.8h8V347H-200.5z M-210.4,319.3c-2.6,0-4.9,1-6.9,2.9c-2,1.9-3,4.2-3,7c0,2.6,1,5,2.9,6.9
		c1.9,2,4.3,2.9,7,2.9c2.7,0,5-0.9,6.9-2.8c2-1.9,3-4.2,3-7c0-2.6-1-5-2.9-6.9C-205.3,320.3-207.6,319.3-210.4,319.3z"/>
	<path class="st2" d="M-158.8,320.6c-0.1,0.1-1.2,1.2-3.1,3.1c-2.4-3-5.2-4.4-8.3-4.4c-2.3,0-4.5,0.9-6.7,2.8
		c-2.1,1.9-3.2,3.8-3.2,5.9v11h12v8h-12v27.9h-8v-47.2c0-0.9,0.3-2.3,1-4.2c1.3-3.9,3.7-7,7.2-9.2c3.1-2,6.3-3,9.7-3
		c5,0,9.6,2.1,13.7,6.3C-157.5,318.9-158.2,320-158.8,320.6"/>
	<path class="st3" d="M-158.8,320.6c-0.1,0.1-1.2,1.2-3.1,3.1c-2.4-3-5.2-4.4-8.3-4.4c-2.3,0-4.5,0.9-6.7,2.8
		c-2.1,1.9-3.2,3.8-3.2,5.9v11h12v8h-12v27.9h-8v-47.2c0-0.9,0.3-2.3,1-4.2c1.3-3.9,3.7-7,7.2-9.2c3.1-2,6.3-3,9.7-3
		c5,0,9.6,2.1,13.7,6.3C-157.5,318.9-158.2,320-158.8,320.6z"/>
	<path class="st2" d="M-145.5,294.1c-1.4,0-2.6-0.5-3.7-1.6c-1.1-1-1.6-2.3-1.6-3.7c0-1.2,0.5-2.4,1.6-3.6c1-1.2,2.3-1.8,3.7-1.8
		c1.5,0,2.7,0.6,3.7,1.8c1,1.2,1.6,2.4,1.6,3.6c0,1.8-0.6,3.2-1.9,4.2C-143.1,293.7-144.3,294.1-145.5,294.1 M-149.4,347v-27.5h-3.6
		v-8.2h11.6V347H-149.4"/>
	<path class="st3" d="M-145.5,294.1c-1.4,0-2.6-0.5-3.7-1.6c-1.1-1-1.6-2.3-1.6-3.7c0-1.2,0.5-2.4,1.6-3.6c1-1.2,2.3-1.8,3.7-1.8
		c1.5,0,2.7,0.6,3.7,1.8c1,1.2,1.6,2.4,1.6,3.6c0,1.8-0.6,3.2-1.9,4.2C-143.1,293.7-144.3,294.1-145.5,294.1z M-149.4,347v-27.5
		h-3.6v-8.2h11.6V347H-149.4z"/>
	<path class="st8" d="M-171.4,383.7h-66.4v85.1C-231.9,447.9-215.4,409.8-171.4,383.7"/>
	<path class="st9" d="M-235,469h89.4v-82C-198.1,404-224.4,446.4-235,469"/>
	<g class="st2">
		<path d="M-136,436.9h1.4l0.5,2.6l0.7-2.6h1.4l0.7,2.6l0.5-2.6h1.4l-1,4.7h-1.4l-0.8-3l-0.8,3h-1.4L-136,436.9z"/>
		<path d="M-126,440.8h-1.7l-0.2,0.8h-1.5l1.8-4.7h1.6l1.8,4.7h-1.5L-126,440.8z M-126.3,439.8l-0.5-1.7l-0.5,1.7H-126.3z"/>
		<path d="M-124.1,440.1l1.4-0.1c0,0.2,0.1,0.4,0.2,0.5c0.2,0.2,0.4,0.3,0.6,0.3c0.2,0,0.4,0,0.5-0.1s0.2-0.2,0.2-0.3
			c0-0.1-0.1-0.2-0.2-0.3s-0.4-0.2-0.7-0.3c-0.6-0.1-1.1-0.3-1.4-0.6c-0.3-0.2-0.4-0.5-0.4-0.9c0-0.2,0.1-0.5,0.2-0.7
			s0.4-0.4,0.6-0.5c0.3-0.1,0.7-0.2,1.2-0.2c0.6,0,1.1,0.1,1.4,0.3c0.3,0.2,0.5,0.6,0.6,1.1l-1.4,0.1c0-0.2-0.1-0.4-0.2-0.5
			c-0.1-0.1-0.3-0.1-0.5-0.1c-0.2,0-0.3,0-0.4,0.1c-0.1,0.1-0.1,0.2-0.1,0.3c0,0.1,0,0.1,0.1,0.2c0.1,0.1,0.2,0.1,0.5,0.2
			c0.6,0.1,1.1,0.3,1.4,0.4c0.3,0.1,0.5,0.3,0.6,0.5c0.1,0.2,0.2,0.4,0.2,0.7c0,0.3-0.1,0.6-0.3,0.8c-0.2,0.3-0.4,0.4-0.7,0.6
			c-0.3,0.1-0.7,0.2-1.1,0.2c-0.8,0-1.4-0.2-1.7-0.5C-123.9,440.9-124,440.5-124.1,440.1z"/>
		<path d="M-119,436.9h1.5v1.7h1.6v-1.7h1.5v4.7h-1.5v-1.9h-1.6v1.9h-1.5V436.9z"/>
		<path d="M-113.5,436.9h1.5v4.7h-1.5V436.9z"/>
		<path d="M-111,436.9h1.4l1.8,2.6v-2.6h1.4v4.7h-1.4l-1.8-2.6v2.6h-1.4V436.9z"/>
		<path d="M-103.1,439.9v-1h2.3v2c-0.4,0.3-0.8,0.5-1.1,0.6c-0.3,0.1-0.7,0.2-1.2,0.2c-0.6,0-1-0.1-1.4-0.3s-0.6-0.5-0.8-0.9
			c-0.2-0.4-0.3-0.8-0.3-1.3c0-0.5,0.1-1,0.3-1.3c0.2-0.4,0.5-0.7,0.9-0.9c0.3-0.2,0.8-0.2,1.3-0.2c0.5,0,0.9,0,1.2,0.1
			s0.5,0.2,0.6,0.4c0.2,0.2,0.3,0.5,0.4,0.8l-1.4,0.3c-0.1-0.2-0.2-0.3-0.3-0.4s-0.3-0.1-0.5-0.1c-0.3,0-0.6,0.1-0.8,0.3
			c-0.2,0.2-0.3,0.6-0.3,1.1c0,0.5,0.1,0.9,0.3,1.1c0.2,0.2,0.5,0.3,0.8,0.3c0.2,0,0.3,0,0.5-0.1c0.1,0,0.3-0.1,0.5-0.2v-0.4H-103.1
			z"/>
		<path d="M-100.3,436.9h4.4v1.2h-1.5v3.6h-1.5v-3.6h-1.5V436.9z"/>
	</g>
	<g class="st2">
		<path d="M-95.7,439.3c0-0.8,0.2-1.4,0.6-1.8c0.4-0.4,1-0.6,1.8-0.6c0.8,0,1.4,0.2,1.8,0.6s0.6,1,0.6,1.8c0,0.6-0.1,1-0.3,1.4
			c-0.2,0.4-0.5,0.6-0.8,0.8s-0.8,0.3-1.3,0.3c-0.5,0-1-0.1-1.3-0.3c-0.3-0.2-0.6-0.4-0.8-0.8S-95.7,439.8-95.7,439.3z M-94.2,439.3
			c0,0.5,0.1,0.8,0.3,1c0.2,0.2,0.4,0.3,0.7,0.3c0.3,0,0.6-0.1,0.7-0.3c0.2-0.2,0.3-0.6,0.3-1.1c0-0.4-0.1-0.8-0.3-1
			s-0.4-0.3-0.7-0.3c-0.3,0-0.5,0.1-0.7,0.3S-94.2,438.8-94.2,439.3z"/>
		<path d="M-90,436.9h1.4l1.8,2.6v-2.6h1.4v4.7h-1.4l-1.8-2.6v2.6H-90V436.9z"/>
		<path d="M-82.5,440.1l1.4-0.1c0,0.2,0.1,0.4,0.2,0.5c0.2,0.2,0.4,0.3,0.6,0.3c0.2,0,0.4,0,0.5-0.1s0.2-0.2,0.2-0.3
			c0-0.1-0.1-0.2-0.2-0.3s-0.4-0.2-0.7-0.3c-0.6-0.1-1.1-0.3-1.4-0.6c-0.3-0.2-0.4-0.5-0.4-0.9c0-0.2,0.1-0.5,0.2-0.7
			s0.4-0.4,0.6-0.5c0.3-0.1,0.7-0.2,1.2-0.2c0.6,0,1.1,0.1,1.4,0.3c0.3,0.2,0.5,0.6,0.6,1.1l-1.4,0.1c0-0.2-0.1-0.4-0.2-0.5
			c-0.1-0.1-0.3-0.1-0.5-0.1c-0.2,0-0.3,0-0.4,0.1c-0.1,0.1-0.1,0.2-0.1,0.3c0,0.1,0,0.1,0.1,0.2c0.1,0.1,0.2,0.1,0.5,0.2
			c0.6,0.1,1.1,0.3,1.4,0.4c0.3,0.1,0.5,0.3,0.6,0.5c0.1,0.2,0.2,0.4,0.2,0.7c0,0.3-0.1,0.6-0.3,0.8c-0.2,0.3-0.4,0.4-0.7,0.6
			c-0.3,0.1-0.7,0.2-1.1,0.2c-0.8,0-1.4-0.2-1.7-0.5C-82.3,440.9-82.5,440.5-82.5,440.1z"/>
		<path d="M-77.9,436.9h4.4v1.2h-1.5v3.6h-1.5v-3.6h-1.5V436.9z"/>
	</g>
	<g class="st2">
		<path d="M-70.3,440.8H-72l-0.2,0.8h-1.5l1.8-4.7h1.6l1.8,4.7h-1.5L-70.3,440.8z M-70.6,439.8l-0.5-1.7l-0.5,1.7H-70.6z"/>
		<path d="M-68.9,436.9h4.4v1.2h-1.5v3.6h-1.5v-3.6h-1.5V436.9z"/>
	</g>
	<g class="st2">
		<path d="M-63.8,436.9h3.9v1h-2.4v0.8h2.3v1h-2.3v0.9h2.5v1.1h-4V436.9z"/>
	</g>
	<g class="st2">
		<path d="M-136.1,444.5h2.7c0.5,0,1,0.1,1.3,0.2c0.3,0.1,0.6,0.4,0.8,0.6c0.2,0.3,0.4,0.6,0.5,0.9c0.1,0.4,0.1,0.7,0.1,1.1
			c0,0.6-0.1,1.1-0.2,1.5s-0.3,0.6-0.6,0.9s-0.5,0.4-0.8,0.5c-0.4,0.1-0.8,0.2-1.1,0.2h-2.7V444.5z M-134.3,445.9v3.2h0.4
			c0.4,0,0.7,0,0.8-0.1c0.2-0.1,0.3-0.2,0.4-0.4c0.1-0.2,0.1-0.6,0.1-1c0-0.6-0.1-1.1-0.3-1.3c-0.2-0.2-0.5-0.3-1-0.3H-134.3z"/>
		<path d="M-129.7,444.5h4.9v1.3h-3.1v0.9h2.8v1.2h-2.8v1.2h3.1v1.3h-5V444.5z"/>
		<path d="M-123.8,444.5h3c0.7,0,1.2,0.2,1.5,0.5c0.3,0.3,0.5,0.8,0.5,1.3c0,0.6-0.2,1.1-0.5,1.4c-0.4,0.3-0.9,0.5-1.6,0.5h-1v2.2
			h-1.8V444.5z M-122,447h0.4c0.4,0,0.6-0.1,0.7-0.2c0.1-0.1,0.2-0.3,0.2-0.5c0-0.2-0.1-0.3-0.2-0.5c-0.1-0.1-0.4-0.2-0.7-0.2h-0.5
			V447z"/>
	</g>
	<g class="st2">
		<path d="M-114.9,449.4h-2.1l-0.3,1h-1.9l2.2-5.9h2l2.2,5.9h-1.9L-114.9,449.4z M-115.3,448.2l-0.7-2.1l-0.6,2.1H-115.3z"/>
		<path d="M-112.1,450.4v-5.9h3c0.6,0,1,0,1.3,0.1c0.3,0.1,0.5,0.3,0.7,0.5c0.2,0.3,0.3,0.6,0.3,1c0,0.3-0.1,0.6-0.2,0.8
			s-0.3,0.4-0.6,0.6c-0.2,0.1-0.4,0.2-0.6,0.2c0.2,0.1,0.4,0.1,0.5,0.2c0.1,0,0.2,0.2,0.3,0.3c0.1,0.2,0.2,0.3,0.3,0.4l0.9,1.7h-2.1
			l-1-1.8c-0.1-0.2-0.2-0.4-0.3-0.5c-0.1-0.1-0.3-0.1-0.4-0.1h-0.2v2.4H-112.1z M-110.3,446.9h0.8c0.1,0,0.2,0,0.5-0.1
			c0.1,0,0.2-0.1,0.3-0.2c0.1-0.1,0.1-0.2,0.1-0.3c0-0.2-0.1-0.3-0.2-0.4c-0.1-0.1-0.3-0.2-0.7-0.2h-0.8V446.9z"/>
		<path d="M-106.1,444.5h5.5v1.5h-1.9v4.4h-1.8V446h-1.9V444.5z"/>
		<path d="M-99.8,444.5h2.4l0.9,3.6l0.9-3.6h2.4v5.9h-1.5v-4.5l-1.2,4.5h-1.4l-1.1-4.5v4.5h-1.5V444.5z"/>
		<path d="M-92,444.5h4.9v1.3h-3.1v0.9h2.8v1.2h-2.8v1.2h3.1v1.3h-5V444.5z"/>
		<path d="M-86,444.5h1.7l2.2,3.3v-3.3h1.7v5.9h-1.7l-2.2-3.2v3.2H-86V444.5z"/>
		<path d="M-79.6,444.5h5.5v1.5h-1.9v4.4h-1.8V446h-1.9V444.5z"/>
		<path d="M-70.7,447.5c0-1,0.3-1.7,0.8-2.3c0.5-0.5,1.3-0.8,2.2-0.8c1,0,1.7,0.3,2.3,0.8s0.8,1.3,0.8,2.2c0,0.7-0.1,1.3-0.3,1.7
			s-0.6,0.8-1,1c-0.4,0.2-1,0.4-1.6,0.4c-0.7,0-1.2-0.1-1.7-0.3c-0.4-0.2-0.8-0.5-1.1-1S-70.7,448.2-70.7,447.5z M-68.9,447.5
			c0,0.6,0.1,1,0.3,1.3c0.2,0.3,0.5,0.4,0.9,0.4c0.4,0,0.7-0.1,0.9-0.4c0.2-0.3,0.3-0.7,0.3-1.4c0-0.6-0.1-1-0.3-1.2
			c-0.2-0.3-0.5-0.4-0.9-0.4c-0.4,0-0.7,0.1-0.9,0.4C-68.8,446.4-68.9,446.9-68.9,447.5z"/>
		<path d="M-63.6,444.5h4.5v1.3h-2.7v1h2.3v1.2h-2.3v2.4h-1.8V444.5z"/>
	</g>
	<g class="st2">
		<path d="M-137,453.1h7.2v2h-4.3v1.6h3.7v1.9h-3.7v3.9h-2.9V453.1z"/>
		<path d="M-128.1,453.1h2.9v9.4h-2.9V453.1z"/>
		<path d="M-123.1,453.1h2.7l3.6,5.2v-5.2h2.8v9.4h-2.8l-3.5-5.2v5.2h-2.7V453.1z"/>
		<path d="M-106.4,460.9h-3.3l-0.5,1.6h-3l3.5-9.4h3.2l3.5,9.4h-3.1L-106.4,460.9z M-107,458.9l-1-3.4l-1,3.4H-107z"/>
		<path d="M-102,453.1h2.7l3.6,5.2v-5.2h2.8v9.4h-2.8l-3.5-5.2v5.2h-2.7V453.1z"/>
		<path d="M-84.8,458.6l2.6,0.8c-0.2,0.7-0.4,1.3-0.8,1.8c-0.4,0.5-0.8,0.8-1.4,1.1s-1.2,0.4-2.1,0.4c-1,0-1.9-0.1-2.5-0.4
			s-1.2-0.8-1.7-1.6s-0.7-1.7-0.7-2.9c0-1.6,0.4-2.8,1.2-3.6c0.8-0.8,2-1.3,3.5-1.3c1.2,0,2.1,0.2,2.8,0.7c0.7,0.5,1.2,1.2,1.5,2.2
			l-2.6,0.6c-0.1-0.3-0.2-0.5-0.3-0.6c-0.2-0.2-0.4-0.4-0.6-0.5c-0.2-0.1-0.5-0.2-0.8-0.2c-0.7,0-1.2,0.3-1.5,0.8
			c-0.3,0.4-0.4,1-0.4,1.9c0,1,0.2,1.8,0.5,2.2c0.3,0.4,0.8,0.6,1.3,0.6c0.6,0,1-0.2,1.3-0.5C-85.1,459.7-84.9,459.2-84.8,458.6z"/>
		<path d="M-80.7,453.1h2.9v9.4h-2.9V453.1z"/>
		<path d="M-69.9,460.9h-3.3l-0.5,1.6h-3l3.5-9.4h3.2l3.5,9.4h-3.1L-69.9,460.9z M-70.5,458.9l-1-3.4l-1,3.4H-70.5z"/>
	</g>
	<g class="st2">
		<path d="M-65.3,453.1h2.9v7.1h4.6v2.3h-7.5V453.1z"/>
	</g>
	<g class="st2">
	</g>
	<g class="st2">
		<path d="M-137.1,465.9h2.2v7.1h-2.2V465.9z"/>
		<path d="M-133.3,465.9h2l2.7,3.9v-3.9h2.1v7.1h-2.1l-2.7-3.9v3.9h-2.1V465.9z"/>
		<path d="M-125.4,470.6l2.1-0.1c0,0.3,0.1,0.6,0.3,0.8c0.2,0.3,0.5,0.4,1,0.4c0.3,0,0.6-0.1,0.7-0.2s0.3-0.3,0.3-0.5
			c0-0.2-0.1-0.3-0.2-0.5s-0.5-0.3-1.1-0.4c-1-0.2-1.6-0.5-2.1-0.9c-0.4-0.4-0.6-0.8-0.6-1.4c0-0.4,0.1-0.7,0.3-1s0.5-0.6,1-0.8
			c0.4-0.2,1-0.3,1.7-0.3c0.9,0,1.6,0.2,2.1,0.5c0.5,0.3,0.8,0.9,0.8,1.6l-2.1,0.1c-0.1-0.3-0.2-0.6-0.3-0.7
			c-0.2-0.1-0.4-0.2-0.7-0.2c-0.3,0-0.4,0.1-0.6,0.2c-0.1,0.1-0.2,0.2-0.2,0.4c0,0.1,0.1,0.2,0.2,0.3c0.1,0.1,0.3,0.2,0.7,0.3
			c1,0.2,1.6,0.4,2.1,0.6c0.4,0.2,0.7,0.5,0.9,0.8s0.3,0.7,0.3,1c0,0.5-0.1,0.9-0.4,1.3c-0.3,0.4-0.6,0.7-1.1,0.9
			c-0.5,0.2-1,0.3-1.7,0.3c-1.2,0-2-0.2-2.5-0.7C-125.1,471.9-125.4,471.3-125.4,470.6z"/>
		<path d="M-118.4,465.9h6.7v1.7h-2.2v5.3h-2.2v-5.3h-2.2V465.9z"/>
		<path d="M-110.7,465.9h2.2v7.1h-2.2V465.9z"/>
		<path d="M-107.4,465.9h6.7v1.7h-2.2v5.3h-2.2v-5.3h-2.2V465.9z"/>
		<path d="M-95.2,465.9h2.2v4.2c0,0.4-0.1,0.8-0.2,1.2c-0.1,0.4-0.3,0.7-0.6,1c-0.3,0.3-0.6,0.5-0.9,0.6c-0.4,0.2-0.9,0.2-1.5,0.2
			c-0.3,0-0.7,0-1.1-0.1c-0.4,0-0.7-0.1-1-0.3c-0.3-0.1-0.5-0.3-0.8-0.6c-0.2-0.3-0.4-0.5-0.5-0.8c-0.1-0.5-0.2-0.8-0.2-1.2v-4.2
			h2.2v4.3c0,0.4,0.1,0.7,0.3,0.9c0.2,0.2,0.5,0.3,0.9,0.3c0.4,0,0.7-0.1,0.9-0.3s0.3-0.5,0.3-0.9V465.9z"/>
		<path d="M-92,465.9h6.7v1.7h-2.2v5.3h-2.2v-5.3H-92V465.9z"/>
		<path d="M-84.3,465.9h2.2v7.1h-2.2V465.9z"/>
		<path d="M-80.8,469.4c0-1.2,0.3-2.1,1-2.7c0.6-0.6,1.5-1,2.7-1c1.2,0,2.1,0.3,2.7,0.9c0.6,0.6,1,1.5,1,2.7c0,0.8-0.1,1.5-0.4,2
			s-0.7,0.9-1.2,1.2s-1.2,0.4-2,0.4c-0.8,0-1.5-0.1-2-0.4c-0.5-0.3-0.9-0.7-1.3-1.2C-80.7,470.9-80.8,470.2-80.8,469.4z
			 M-78.6,469.4c0,0.7,0.1,1.2,0.4,1.5c0.3,0.3,0.6,0.5,1.1,0.5c0.5,0,0.8-0.2,1.1-0.5c0.3-0.3,0.4-0.9,0.4-1.6
			c0-0.7-0.1-1.2-0.4-1.5c-0.3-0.3-0.6-0.5-1.1-0.5c-0.4,0-0.8,0.2-1.1,0.5C-78.5,468.2-78.6,468.7-78.6,469.4z"/>
		<path d="M-72.3,465.9h2l2.7,3.9v-3.9h2.1v7.1h-2.1l-2.7-3.9v3.9h-2.1V465.9z"/>
		<path d="M-64.4,470.6l2.1-0.1c0,0.3,0.1,0.6,0.3,0.8c0.2,0.3,0.5,0.4,1,0.4c0.3,0,0.6-0.1,0.7-0.2s0.3-0.3,0.3-0.5
			c0-0.2-0.1-0.3-0.2-0.5s-0.5-0.3-1.1-0.4c-1-0.2-1.6-0.5-2.1-0.9c-0.4-0.4-0.6-0.8-0.6-1.4c0-0.4,0.1-0.7,0.3-1
			c0.2-0.3,0.5-0.6,1-0.8c0.4-0.2,1-0.3,1.7-0.3c0.9,0,1.6,0.2,2.1,0.5c0.5,0.3,0.8,0.9,0.8,1.6l-2.1,0.1c-0.1-0.3-0.2-0.6-0.3-0.7
			c-0.2-0.1-0.4-0.2-0.7-0.2c-0.3,0-0.4,0.1-0.6,0.2c-0.1,0.1-0.2,0.2-0.2,0.4c0,0.1,0.1,0.2,0.2,0.3c0.1,0.1,0.3,0.2,0.7,0.3
			c1,0.2,1.6,0.4,2.1,0.6c0.4,0.2,0.7,0.5,0.9,0.8s0.3,0.7,0.3,1c0,0.5-0.1,0.9-0.4,1.3c-0.3,0.4-0.6,0.7-1.1,0.9
			c-0.5,0.2-1,0.3-1.7,0.3c-1.2,0-2-0.2-2.5-0.7C-64.1,471.9-64.4,471.3-64.4,470.6z"/>
	</g>
	<path class="st2" d="M-200.5,472.8v-3c-3,2-6.3,3-9.9,3c-5,0-9.2-1.8-12.7-5.3c-3.5-3.5-5.2-7.7-5.2-12.5c0-4.9,1.8-9.1,5.4-12.6
		c3.6-3.5,7.8-5.2,12.5-5.2c3.4,0,6.7,1,9.9,3v-30.8h8v63.6H-200.5z M-210.4,445.1c-2.6,0-4.9,1-6.9,2.9c-2,1.9-3,4.2-3,7
		c0,2.6,1,5,2.9,6.9c1.9,2,4.3,2.9,7,2.9c2.7,0,5-1,6.9-2.9c2-1.9,3-4.2,3-7c0-2.6-1-5-2.9-6.9
		C-205.3,446.1-207.6,445.1-210.4,445.1"/>
	<path class="st3" d="M-200.5,472.8v-3c-3,2-6.3,3-9.9,3c-5,0-9.2-1.8-12.7-5.3c-3.5-3.5-5.2-7.7-5.2-12.5c0-4.9,1.8-9.1,5.4-12.6
		c3.6-3.5,7.8-5.2,12.5-5.2c3.4,0,6.7,1,9.9,3v-30.8h8v63.6H-200.5z M-210.4,445.1c-2.6,0-4.9,1-6.9,2.9c-2,1.9-3,4.2-3,7
		c0,2.6,1,5,2.9,6.9c1.9,2,4.3,2.9,7,2.9c2.7,0,5-1,6.9-2.9c2-1.9,3-4.2,3-7c0-2.6-1-5-2.9-6.9
		C-205.3,446.1-207.6,445.1-210.4,445.1z"/>
	<path class="st2" d="M-158.8,446.4c-0.1,0.1-1.2,1.2-3.1,3.1c-2.4-3-5.2-4.4-8.3-4.4c-2.3,0-4.5,0.9-6.7,2.8
		c-2.1,1.9-3.2,3.8-3.2,5.9v11h12v8h-12v27.9h-8v-47.2c0-0.9,0.3-2.3,1-4.2c1.3-3.9,3.7-7,7.2-9.2c3.1-2,6.3-3,9.7-3
		c5,0,9.6,2.1,13.7,6.3C-157.5,444.8-158.2,445.8-158.8,446.4"/>
	<path class="st3" d="M-158.8,446.4c-0.1,0.1-1.2,1.2-3.1,3.1c-2.4-3-5.2-4.4-8.3-4.4c-2.3,0-4.5,0.9-6.7,2.8
		c-2.1,1.9-3.2,3.8-3.2,5.9v11h12v8h-12v27.9h-8v-47.2c0-0.9,0.3-2.3,1-4.2c1.3-3.9,3.7-7,7.2-9.2c3.1-2,6.3-3,9.7-3
		c5,0,9.6,2.1,13.7,6.3C-157.5,444.8-158.2,445.8-158.8,446.4z"/>
	<path class="st2" d="M-145.5,419.9c-1.4,0-2.6-0.5-3.7-1.6s-1.6-2.3-1.6-3.7c0-1.2,0.5-2.4,1.6-3.6c1-1.2,2.3-1.8,3.7-1.8
		c1.5,0,2.7,0.6,3.7,1.8c1,1.2,1.6,2.4,1.6,3.6c0,1.8-0.6,3.2-1.9,4.2C-143.1,419.6-144.3,419.9-145.5,419.9 M-149.4,472.8v-27.5
		h-3.6v-8.2h11.6v35.7H-149.4"/>
	<path class="st3" d="M-145.5,419.9c-1.4,0-2.6-0.5-3.7-1.6s-1.6-2.3-1.6-3.7c0-1.2,0.5-2.4,1.6-3.6c1-1.2,2.3-1.8,3.7-1.8
		c1.5,0,2.7,0.6,3.7,1.8c1,1.2,1.6,2.4,1.6,3.6c0,1.8-0.6,3.2-1.9,4.2C-143.1,419.6-144.3,419.9-145.5,419.9z M-149.4,472.8v-27.5
		h-3.6v-8.2h11.6v35.7H-149.4z"/>
	<path class="st2" d="M71.8,6.2H5.4v85.1C11.4,70.5,27.8,32.4,71.8,6.2"/>
	<path class="st10" d="M8.2,91.6h89.4v-82C45.1,26.6,18.9,68.9,8.2,91.6"/>
</g>
<g>
	<path d="M116,41h2.1l0.8,4l1.1-4h2.1l1.1,4l0.8-4h2.1l-1.6,7.2h-2.2l-1.3-4.5l-1.3,4.5h-2.2L116,41z"/>
	<path d="M131.2,47.1h-2.5l-0.4,1.2h-2.3l2.7-7.2h2.4l2.7,7.2h-2.3L131.2,47.1z M130.8,45.5l-0.8-2.6l-0.8,2.6H130.8z"/>
	<path d="M134.2,45.9l2.1-0.1c0,0.3,0.1,0.6,0.3,0.8c0.2,0.3,0.6,0.4,1,0.4c0.3,0,0.6-0.1,0.7-0.2c0.2-0.1,0.3-0.3,0.3-0.5
		c0-0.2-0.1-0.4-0.2-0.5c-0.2-0.1-0.5-0.3-1.1-0.4c-1-0.2-1.7-0.5-2.1-0.9c-0.4-0.4-0.6-0.8-0.6-1.4c0-0.4,0.1-0.7,0.3-1
		c0.2-0.3,0.5-0.6,1-0.8c0.4-0.2,1-0.3,1.8-0.3c0.9,0,1.6,0.2,2.1,0.5c0.5,0.3,0.8,0.9,0.9,1.6l-2.1,0.1c-0.1-0.3-0.2-0.6-0.4-0.7
		c-0.2-0.1-0.4-0.2-0.7-0.2c-0.3,0-0.5,0.1-0.6,0.2c-0.1,0.1-0.2,0.2-0.2,0.4c0,0.1,0.1,0.2,0.2,0.3c0.1,0.1,0.4,0.2,0.7,0.3
		c1,0.2,1.7,0.4,2.1,0.6s0.7,0.5,0.9,0.8c0.2,0.3,0.3,0.7,0.3,1.1c0,0.5-0.1,0.9-0.4,1.3c-0.3,0.4-0.6,0.7-1.1,0.9
		c-0.5,0.2-1,0.3-1.7,0.3c-1.2,0-2.1-0.2-2.5-0.7C134.6,47.2,134.3,46.6,134.2,45.9z"/>
	<path d="M141.9,41h2.2v2.5h2.4V41h2.2v7.2h-2.2v-2.9h-2.4v2.9h-2.2V41z"/>
	<path d="M150.4,41h2.2v7.2h-2.2V41z"/>
	<path d="M154.2,41h2.1l2.7,4v-4h2.1v7.2H159l-2.7-4v4h-2.1V41z"/>
	<path d="M166.2,45.6v-1.5h3.4v3.1c-0.7,0.4-1.2,0.8-1.7,0.9c-0.5,0.2-1.1,0.2-1.8,0.2c-0.9,0-1.6-0.1-2.1-0.4
		c-0.5-0.3-1-0.7-1.3-1.3c-0.3-0.6-0.4-1.2-0.4-2c0-0.8,0.2-1.5,0.5-2.1c0.3-0.6,0.8-1,1.4-1.3c0.5-0.2,1.1-0.3,2-0.3
		c0.8,0,1.4,0.1,1.8,0.2s0.7,0.4,1,0.7c0.3,0.3,0.5,0.7,0.6,1.2l-2.1,0.4c-0.1-0.3-0.2-0.5-0.5-0.6c-0.2-0.1-0.5-0.2-0.8-0.2
		c-0.5,0-0.9,0.2-1.2,0.5c-0.3,0.3-0.4,0.9-0.4,1.6c0,0.8,0.1,1.3,0.4,1.7c0.3,0.3,0.7,0.5,1.2,0.5c0.2,0,0.5,0,0.7-0.1
		c0.2-0.1,0.5-0.2,0.8-0.4v-0.7H166.2z"/>
	<path d="M170.4,41h6.8v1.8h-2.3v5.4h-2.2v-5.4h-2.3V41z"/>
</g>
<g>
	<path d="M177.6,44.6c0-1.2,0.3-2.1,1-2.7c0.7-0.7,1.6-1,2.7-1c1.2,0,2.1,0.3,2.8,1c0.6,0.6,1,1.5,1,2.7c0,0.8-0.1,1.5-0.4,2.1
		c-0.3,0.5-0.7,1-1.2,1.3c-0.5,0.3-1.2,0.4-2,0.4c-0.8,0-1.5-0.1-2-0.4s-1-0.7-1.3-1.2S177.6,45.5,177.6,44.6z M179.8,44.7
		c0,0.7,0.1,1.2,0.4,1.6c0.3,0.3,0.6,0.5,1.1,0.5c0.5,0,0.8-0.2,1.1-0.5c0.3-0.3,0.4-0.9,0.4-1.7c0-0.7-0.1-1.2-0.4-1.5
		c-0.3-0.3-0.6-0.5-1.1-0.5c-0.4,0-0.8,0.2-1.1,0.5C180,43.4,179.8,43.9,179.8,44.7z"/>
	<path d="M186.3,41h2.1l2.7,4v-4h2.1v7.2h-2.1l-2.7-4v4h-2.1V41z"/>
	<path d="M197.6,45.9l2.1-0.1c0,0.3,0.1,0.6,0.3,0.8c0.2,0.3,0.6,0.4,1,0.4c0.3,0,0.6-0.1,0.7-0.2c0.2-0.1,0.3-0.3,0.3-0.5
		c0-0.2-0.1-0.4-0.2-0.5c-0.2-0.1-0.5-0.3-1.1-0.4c-1-0.2-1.7-0.5-2.1-0.9c-0.4-0.4-0.6-0.8-0.6-1.4c0-0.4,0.1-0.7,0.3-1
		c0.2-0.3,0.5-0.6,1-0.8c0.4-0.2,1-0.3,1.8-0.3c0.9,0,1.6,0.2,2.1,0.5c0.5,0.3,0.8,0.9,0.9,1.6l-2.1,0.1c-0.1-0.3-0.2-0.6-0.4-0.7
		c-0.2-0.1-0.4-0.2-0.7-0.2c-0.3,0-0.5,0.1-0.6,0.2c-0.1,0.1-0.2,0.2-0.2,0.4c0,0.1,0.1,0.2,0.2,0.3c0.1,0.1,0.4,0.2,0.7,0.3
		c1,0.2,1.7,0.4,2.1,0.6s0.7,0.5,0.9,0.8c0.2,0.3,0.3,0.7,0.3,1.1c0,0.5-0.1,0.9-0.4,1.3c-0.3,0.4-0.6,0.7-1.1,0.9
		c-0.5,0.2-1,0.3-1.7,0.3c-1.2,0-2.1-0.2-2.5-0.7C197.9,47.2,197.7,46.6,197.6,45.9z"/>
	<path d="M204.8,41h6.8v1.8h-2.3v5.4H207v-5.4h-2.3V41z"/>
</g>
<g>
	<path d="M216.3,47.1h-2.5l-0.4,1.2h-2.3l2.7-7.2h2.4l2.7,7.2h-2.3L216.3,47.1z M215.8,45.5l-0.8-2.6l-0.8,2.6H215.8z"/>
	<path d="M218.5,41h6.8v1.8H223v5.4h-2.2v-5.4h-2.3V41z"/>
</g>
<g>
	<path d="M226.2,41h6v1.5h-3.7v1.1h3.5v1.5h-3.5v1.4h3.8v1.6h-6.1V41z"/>
</g>
<g>
	<path d="M115.8,52.6h4.1c0.8,0,1.5,0.1,2,0.3c0.5,0.2,0.9,0.5,1.2,1c0.3,0.4,0.6,0.9,0.7,1.4s0.2,1.1,0.2,1.7c0,1-0.1,1.7-0.3,2.2
		s-0.5,1-0.9,1.3s-0.8,0.6-1.3,0.7c-0.6,0.2-1.2,0.2-1.7,0.2h-4.1V52.6z M118.6,54.7v4.9h0.7c0.6,0,1-0.1,1.2-0.2
		c0.2-0.1,0.4-0.4,0.6-0.7s0.2-0.8,0.2-1.6c0-1-0.2-1.6-0.5-2c-0.3-0.4-0.8-0.5-1.5-0.5H118.6z"/>
	<path d="M125.6,52.6h7.5v1.9h-4.7V56h4.3v1.8h-4.3v1.8h4.8v2h-7.6V52.6z"/>
	<path d="M134.7,52.6h4.6c1,0,1.8,0.2,2.3,0.7c0.5,0.5,0.8,1.2,0.8,2c0,0.9-0.3,1.6-0.8,2.1c-0.5,0.5-1.4,0.8-2.5,0.8h-1.5v3.3h-2.8
		V52.6z M137.5,56.5h0.7c0.5,0,0.9-0.1,1.1-0.3c0.2-0.2,0.3-0.4,0.3-0.7c0-0.3-0.1-0.5-0.3-0.7s-0.5-0.3-1.1-0.3h-0.8V56.5z"/>
</g>
<g>
	<path d="M148.2,60.2h-3.2l-0.4,1.5h-2.8l3.4-9h3l3.4,9h-2.9L148.2,60.2z M147.6,58.2l-1-3.2l-1,3.2H147.6z"/>
	<path d="M152.5,61.7v-9h4.6c0.9,0,1.5,0.1,2,0.2c0.5,0.1,0.8,0.4,1.1,0.8c0.3,0.4,0.4,0.9,0.4,1.5c0,0.5-0.1,0.9-0.3,1.3
		s-0.5,0.7-0.9,0.9c-0.2,0.1-0.6,0.3-1,0.4c0.3,0.1,0.6,0.2,0.7,0.3c0.1,0.1,0.3,0.2,0.4,0.5c0.2,0.2,0.3,0.4,0.4,0.6l1.3,2.6h-3.1
		l-1.5-2.8c-0.2-0.4-0.4-0.6-0.5-0.7c-0.2-0.1-0.4-0.2-0.7-0.2h-0.2v3.7H152.5z M155.3,56.3h1.2c0.1,0,0.4,0,0.7-0.1
		c0.2,0,0.3-0.1,0.5-0.3c0.1-0.2,0.2-0.3,0.2-0.5c0-0.3-0.1-0.5-0.3-0.7c-0.2-0.2-0.5-0.2-1-0.2h-1.2V56.3z"/>
	<path d="M161.6,52.6h8.5v2.2h-2.8v6.8h-2.8v-6.8h-2.8V52.6z"/>
	<path d="M171.3,52.6h3.7l1.4,5.5l1.4-5.5h3.7v9h-2.3v-6.9l-1.8,6.9h-2.1l-1.8-6.9v6.9h-2.3V52.6z"/>
	<path d="M183.2,52.6h7.5v1.9H186V56h4.3v1.8H186v1.8h4.8v2h-7.6V52.6z"/>
	<path d="M192.3,52.6h2.6l3.4,5v-5h2.6v9h-2.6l-3.4-4.9v4.9h-2.6V52.6z"/>
	<path d="M202.1,52.6h8.5v2.2h-2.8v6.8H205v-6.8h-2.8V52.6z"/>
	<path d="M215.7,57.2c0-1.5,0.4-2.6,1.2-3.4c0.8-0.8,2-1.2,3.4-1.2c1.5,0,2.7,0.4,3.5,1.2s1.2,1.9,1.2,3.4c0,1.1-0.2,1.9-0.5,2.6
		c-0.4,0.7-0.9,1.2-1.5,1.6c-0.7,0.4-1.5,0.6-2.5,0.6c-1,0-1.9-0.2-2.5-0.5c-0.7-0.3-1.2-0.8-1.6-1.5
		C215.9,59.1,215.7,58.2,215.7,57.2z M218.5,57.2c0,0.9,0.2,1.6,0.5,2s0.8,0.6,1.4,0.6c0.6,0,1.1-0.2,1.4-0.6
		c0.3-0.4,0.5-1.1,0.5-2.1c0-0.8-0.2-1.5-0.5-1.9c-0.3-0.4-0.8-0.6-1.4-0.6c-0.6,0-1,0.2-1.4,0.6S218.5,56.3,218.5,57.2z"/>
	<path d="M226.5,52.6h6.9v1.9h-4.1v1.6h3.5V58h-3.5v3.7h-2.8V52.6z"/>
</g>
<g>
	<path d="M114.5,65.7h11v3.1H119v2.5h5.6v2.9H119v5.9h-4.5V65.7z"/>
	<path d="M128,65.7h4.5v14.4H128V65.7z"/>
	<path d="M135.6,65.7h4.2l5.4,8v-8h4.2v14.4h-4.2l-5.4-7.9v7.9h-4.2V65.7z"/>
	<path d="M161.2,77.7h-5.1l-0.7,2.4h-4.5l5.4-14.4h4.9l5.4,14.4h-4.7L161.2,77.7z M160.3,74.6l-1.6-5.2l-1.6,5.2H160.3z"/>
	<path d="M168,65.7h4.2l5.4,8v-8h4.2v14.4h-4.2l-5.4-7.9v7.9H168V65.7z"/>
	<path d="M194.2,74.2l3.9,1.2c-0.3,1.1-0.7,2-1.2,2.7c-0.6,0.7-1.3,1.3-2.1,1.7c-0.8,0.4-1.9,0.6-3.2,0.6c-1.6,0-2.8-0.2-3.8-0.7
		c-1-0.5-1.8-1.3-2.6-2.4s-1.1-2.6-1.1-4.4c0-2.4,0.6-4.2,1.9-5.5s3.1-1.9,5.4-1.9c1.8,0,3.2,0.4,4.3,1.1c1,0.7,1.8,1.9,2.3,3.4
		l-3.9,0.9c-0.1-0.4-0.3-0.8-0.4-1c-0.2-0.3-0.6-0.6-0.9-0.8s-0.8-0.3-1.2-0.3c-1,0-1.8,0.4-2.3,1.2c-0.4,0.6-0.6,1.5-0.6,2.8
		c0,1.6,0.2,2.7,0.7,3.3c0.5,0.6,1.2,0.9,2,0.9c0.9,0,1.5-0.2,1.9-0.7C193.7,75.8,194,75.1,194.2,74.2z"/>
	<path d="M200.4,65.7h4.5v14.4h-4.5V65.7z"/>
	<path d="M216.9,77.7h-5.1l-0.7,2.4h-4.5l5.4-14.4h4.9l5.4,14.4h-4.7L216.9,77.7z M216,74.6l-1.6-5.2l-1.6,5.2H216z"/>
</g>
<g>
	<path d="M223.8,65.7h4.5v10.9h6.9v3.5h-11.4V65.7z"/>
</g>
<g>
</g>
<g>
	<path d="M114.4,85.2h3.3V96h-3.3V85.2z"/>
	<path d="M120.2,85.2h3.1l4.1,6v-6h3.1V96h-3.1l-4-5.9V96h-3.1V85.2z"/>
	<path d="M132.2,92.5l3.2-0.2c0.1,0.5,0.2,0.9,0.4,1.2c0.3,0.4,0.8,0.7,1.5,0.7c0.5,0,0.8-0.1,1.1-0.3s0.4-0.5,0.4-0.8
		c0-0.3-0.1-0.5-0.4-0.8c-0.2-0.2-0.8-0.4-1.7-0.6c-1.5-0.3-2.5-0.8-3.1-1.3c-0.6-0.5-0.9-1.2-0.9-2.1c0-0.6,0.2-1.1,0.5-1.6
		c0.3-0.5,0.8-0.9,1.5-1.2s1.5-0.4,2.7-0.4c1.4,0,2.4,0.3,3.2,0.8c0.7,0.5,1.2,1.3,1.3,2.5l-3.1,0.2c-0.1-0.5-0.3-0.8-0.5-1.1
		s-0.6-0.3-1.1-0.3c-0.4,0-0.7,0.1-0.9,0.2c-0.2,0.2-0.3,0.4-0.3,0.6c0,0.2,0.1,0.3,0.2,0.5c0.2,0.1,0.5,0.3,1.1,0.4
		c1.5,0.3,2.5,0.6,3.1,1c0.6,0.3,1.1,0.7,1.4,1.2c0.3,0.5,0.4,1,0.4,1.6c0,0.7-0.2,1.3-0.6,1.9c-0.4,0.6-0.9,1-1.6,1.3
		c-0.7,0.3-1.6,0.5-2.6,0.5c-1.8,0-3.1-0.4-3.8-1.1C132.6,94.5,132.2,93.6,132.2,92.5z"/>
	<path d="M142.9,85.2H153v2.7h-3.4V96h-3.3v-8.1h-3.4V85.2z"/>
	<path d="M154.7,85.2h3.3V96h-3.3V85.2z"/>
	<path d="M159.7,85.2h10.1v2.7h-3.4V96h-3.3v-8.1h-3.4V85.2z"/>
	<path d="M178.3,85.2h3.3v6.4c0,0.6-0.1,1.2-0.3,1.8c-0.2,0.6-0.5,1.1-0.9,1.5c-0.4,0.4-0.9,0.7-1.3,0.9c-0.6,0.2-1.4,0.4-2.3,0.4
		c-0.5,0-1.1,0-1.7-0.1c-0.6-0.1-1.1-0.2-1.6-0.4c-0.4-0.2-0.8-0.5-1.1-0.9c-0.3-0.4-0.6-0.8-0.7-1.2c-0.2-0.7-0.3-1.3-0.3-1.8v-6.4
		h3.3v6.6c0,0.6,0.2,1,0.5,1.4c0.3,0.3,0.8,0.5,1.4,0.5c0.6,0,1-0.2,1.4-0.5c0.3-0.3,0.5-0.8,0.5-1.4V85.2z"/>
	<path d="M183.1,85.2h10.1v2.7h-3.4V96h-3.3v-8.1h-3.4V85.2z"/>
	<path d="M194.9,85.2h3.3V96h-3.3V85.2z"/>
	<path d="M200.2,90.6c0-1.8,0.5-3.1,1.5-4.1c1-1,2.4-1.5,4.1-1.5c1.8,0,3.2,0.5,4.2,1.4s1.5,2.3,1.5,4.1c0,1.3-0.2,2.3-0.6,3.1
		c-0.4,0.8-1,1.4-1.8,1.9c-0.8,0.4-1.8,0.7-3,0.7c-1.2,0-2.2-0.2-3-0.6c-0.8-0.4-1.4-1-1.9-1.8C200.5,93,200.2,91.9,200.2,90.6z
		 M203.6,90.7c0,1.1,0.2,1.9,0.6,2.4c0.4,0.5,1,0.7,1.7,0.7c0.7,0,1.3-0.2,1.7-0.7c0.4-0.5,0.6-1.3,0.6-2.5c0-1-0.2-1.8-0.6-2.2
		c-0.4-0.5-1-0.7-1.7-0.7c-0.7,0-1.2,0.2-1.6,0.7C203.8,88.8,203.6,89.6,203.6,90.7z"/>
	<path d="M213.3,85.2h3.1l4.1,6v-6h3.1V96h-3.1l-4-5.9V96h-3.1V85.2z"/>
	<path d="M225.2,92.5l3.2-0.2c0.1,0.5,0.2,0.9,0.4,1.2c0.3,0.4,0.8,0.7,1.5,0.7c0.5,0,0.8-0.1,1.1-0.3s0.4-0.5,0.4-0.8
		c0-0.3-0.1-0.5-0.4-0.8c-0.2-0.2-0.8-0.4-1.7-0.6c-1.5-0.3-2.5-0.8-3.1-1.3c-0.6-0.5-0.9-1.2-0.9-2.1c0-0.6,0.2-1.1,0.5-1.6
		c0.3-0.5,0.8-0.9,1.5-1.2s1.5-0.4,2.7-0.4c1.4,0,2.4,0.3,3.2,0.8c0.7,0.5,1.2,1.3,1.3,2.5l-3.1,0.2c-0.1-0.5-0.3-0.8-0.5-1.1
		s-0.6-0.3-1.1-0.3c-0.4,0-0.7,0.1-0.9,0.2c-0.2,0.2-0.3,0.4-0.3,0.6c0,0.2,0.1,0.3,0.2,0.5c0.2,0.1,0.5,0.3,1.1,0.4
		c1.5,0.3,2.5,0.6,3.1,1c0.6,0.3,1.1,0.7,1.4,1.2c0.3,0.5,0.4,1,0.4,1.6c0,0.7-0.2,1.3-0.6,1.9c-0.4,0.6-0.9,1-1.6,1.3
		c-0.7,0.3-1.6,0.5-2.6,0.5c-1.8,0-3.1-0.4-3.8-1.1C225.7,94.5,225.3,93.6,225.2,92.5z"/>
</g>
<g>
	<defs>
		<rect id="SVGID_5_" width="192.2" height="128.6"/>
	</defs>
	<clipPath id="SVGID_6_">
		<use xlink:href="#SVGID_5_"  style="overflow:visible;"/>
	</clipPath>
	<path class="st11" d="M42.7,95.4v-3c-3,2-6.3,3-9.9,3c-5,0-9.2-1.8-12.7-5.3c-3.5-3.5-5.2-7.7-5.2-12.5c0-4.9,1.8-9.1,5.4-12.6
		c3.6-3.5,7.8-5.2,12.5-5.2c3.4,0,6.7,1,9.9,3V31.7h8v63.6H42.7z M32.9,67.6c-2.6,0-4.9,1-6.9,2.9c-2,1.9-3,4.2-3,7
		c0,2.6,1,5,2.9,6.9c1.9,2,4.3,2.9,7,2.9c2.7,0,5-1,6.9-2.9c2-1.9,3-4.2,3-7c0-2.6-1-5-2.9-6.9C38,68.6,35.6,67.6,32.9,67.6"/>
	<path class="st12" d="M42.7,95.4v-3c-3,2-6.3,3-9.9,3c-5,0-9.2-1.8-12.7-5.3c-3.5-3.5-5.2-7.7-5.2-12.5c0-4.9,1.8-9.1,5.4-12.6
		c3.6-3.5,7.8-5.2,12.5-5.2c3.4,0,6.7,1,9.9,3V31.7h8v63.6H42.7z M32.9,67.6c-2.6,0-4.9,1-6.9,2.9c-2,1.9-3,4.2-3,7
		c0,2.6,1,5,2.9,6.9c1.9,2,4.3,2.9,7,2.9c2.7,0,5-1,6.9-2.9c2-1.9,3-4.2,3-7c0-2.6-1-5-2.9-6.9C38,68.6,35.6,67.6,32.9,67.6z"/>
	<path class="st11" d="M84.4,69c-0.1,0.1-1.2,1.2-3.1,3.1c-2.4-3-5.2-4.4-8.3-4.4c-2.3,0-4.5,0.9-6.7,2.8c-2.1,1.9-3.2,3.8-3.2,5.9
		v11h12v8h-12v27.9h-8V76c0-0.9,0.3-2.3,1-4.2c1.3-3.9,3.7-7,7.2-9.2c3.1-2,6.3-3,9.7-3c5,0,9.6,2.1,13.7,6.3
		C85.7,67.3,85,68.3,84.4,69"/>
	<path class="st12" d="M84.4,69c-0.1,0.1-1.2,1.2-3.1,3.1c-2.4-3-5.2-4.4-8.3-4.4c-2.3,0-4.5,0.9-6.7,2.8c-2.1,1.9-3.2,3.8-3.2,5.9
		v11h12v8h-12v27.9h-8V76c0-0.9,0.3-2.3,1-4.2c1.3-3.9,3.7-7,7.2-9.2c3.1-2,6.3-3,9.7-3c5,0,9.6,2.1,13.7,6.3
		C85.7,67.3,85,68.3,84.4,69z"/>
	<path class="st11" d="M97.8,42.5c-1.4,0-2.6-0.5-3.7-1.6c-1.1-1-1.6-2.3-1.6-3.7c0-1.2,0.5-2.4,1.6-3.6c1-1.2,2.3-1.8,3.7-1.8
		c1.5,0,2.7,0.6,3.7,1.8c1,1.2,1.6,2.4,1.6,3.6c0,1.8-0.6,3.2-1.9,4.2C100.1,42.1,99,42.5,97.8,42.5 M93.8,95.4V67.8h-3.6v-8.2h11.6
		v35.7H93.8"/>
	<path class="st12" d="M97.8,42.5c-1.4,0-2.6-0.5-3.7-1.6c-1.1-1-1.6-2.3-1.6-3.7c0-1.2,0.5-2.4,1.6-3.6c1-1.2,2.3-1.8,3.7-1.8
		c1.5,0,2.7,0.6,3.7,1.8c1,1.2,1.6,2.4,1.6,3.6c0,1.8-0.6,3.2-1.9,4.2C100.1,42.1,99,42.5,97.8,42.5z M93.8,95.4V67.8h-3.6v-8.2
		h11.6v35.7H93.8z"/>
</g>
</svg>
