<svg width="236" height="43" viewBox="0 0 236 43" fill="none" xmlns="http://www.w3.org/2000/svg">
<path d="M111.393 25.3844C111.254 25.5351 111.184 25.711 111.184 25.912C111.184 26.1129 111.254 26.2838 111.393 26.4245C111.543 26.5752 111.717 26.6506 111.917 26.6506C112.116 26.6506 112.29 26.5752 112.44 26.4245C112.579 26.2838 112.649 26.1129 112.649 25.912C112.649 25.711 112.579 25.5351 112.44 25.3844C112.29 25.2437 112.116 25.1734 111.917 25.1734C111.717 25.1734 111.543 25.2437 111.393 25.3844ZM110.75 25.912C110.75 25.711 110.68 25.5351 110.541 25.3844C110.391 25.2437 110.217 25.1734 110.017 25.1734C109.818 25.1734 109.644 25.2437 109.494 25.3844C109.355 25.5351 109.285 25.711 109.285 25.912C109.285 26.1129 109.355 26.2838 109.494 26.4245C109.644 26.5752 109.818 26.6506 110.017 26.6506C110.217 26.6506 110.391 26.5752 110.541 26.4245C110.68 26.2838 110.75 26.1129 110.75 25.912ZM99.9987 22.7767L99.9837 22.6712C99.9638 22.5908 99.914 22.5355 99.8342 22.5054C99.7545 22.4652 99.6747 22.4602 99.5949 22.4903L98.7576 22.7767C98.628 22.8269 98.5632 22.9274 98.5632 23.0782L98.5931 31.0219C98.603 31.1023 98.6379 31.1726 98.6977 31.2329C98.7576 31.2932 98.8273 31.3233 98.9071 31.3233L99.7146 31.2781C99.7943 31.2781 99.8641 31.248 99.9239 31.1877C99.9738 31.1274 99.9987 31.057 99.9987 30.9766V22.7767ZM104.769 29.6502C104.473 29.3673 104.328 29.0357 104.335 28.6553C104.342 28.2845 104.367 28.0333 104.41 27.9017C104.452 27.7804 104.517 27.5844 104.604 27.3138C104.703 27.0427 104.728 26.8367 104.679 26.6958C104.619 26.5451 104.515 26.4596 104.365 26.4395C104.255 26.4295 104.161 26.4546 104.081 26.5149C103.642 26.8968 103.363 27.2937 103.244 27.7057C103.154 28.0373 103.134 28.5247 103.184 29.1678C103.244 29.8311 103.523 30.3637 104.021 30.7656C104.49 31.1475 105.053 31.3334 105.711 31.3233C108.791 31.2932 112.101 31.2932 115.64 31.3233C116.737 31.3434 117.529 31.0771 118.018 30.5244C118.496 29.9818 118.695 29.1477 118.616 28.0222C118.556 27.2183 118.556 26.3993 118.616 25.5653C118.646 25.1131 118.446 24.9473 118.018 25.0679L117.898 25.098C117.469 25.1784 117.26 25.4447 117.27 25.8969C117.29 26.8817 117.29 27.8012 117.27 28.6553C117.24 29.5597 116.776 30.017 115.879 30.027C111.833 30.0668 109.046 30.0819 107.52 30.0722C105.993 30.0735 105.075 29.9328 104.769 29.6502ZM101.569 10.6878C101.878 10.8185 102.117 10.934 102.287 11.0345C102.426 11.1149 102.551 11.0998 102.66 10.9893L103.273 10.3863C103.313 10.3261 103.328 10.2607 103.318 10.1904C103.308 10.12 103.273 10.0598 103.214 10.0095C101.748 8.95438 100.313 8.7534 98.9071 9.40658C97.8105 9.90903 97.0927 10.6275 96.7538 11.5621C96.3251 12.8483 96.375 14.0542 96.9033 15.1797C97.4616 16.3554 98.3987 17.0789 99.7146 17.3503C99.9837 17.4005 100.233 17.3955 100.462 17.3352C100.552 17.3151 100.861 17.2699 101.389 17.1995C101.748 17.1493 102.047 17.0438 102.287 16.883C102.626 16.6619 102.915 16.4559 103.154 16.265C103.353 16.1042 103.353 15.9434 103.154 15.7826L102.63 15.3907C102.471 15.2601 102.306 15.2551 102.137 15.3757C101.798 15.5867 101.584 15.7123 101.494 15.7525C101.245 15.8731 101.011 15.9334 100.791 15.9334C98.8473 15.9334 97.97 14.833 98.1594 12.6323C98.2292 11.8083 98.628 11.1953 99.3557 10.7933C100.063 10.3914 100.801 10.3562 101.569 10.6878ZM108.462 13.2352C108.492 13.1046 108.482 12.989 108.432 12.8885C108.313 12.6574 108.118 12.5318 107.849 12.5117L105.831 12.4816C105.701 12.4816 105.636 12.4162 105.636 12.2856V10.6878C105.636 10.5672 105.691 10.5069 105.801 10.5069L108.761 10.5371C108.961 10.5371 109.065 10.4316 109.075 10.2205L109.105 9.46687C109.105 9.38648 109.075 9.31111 109.016 9.24077C108.956 9.18048 108.881 9.15033 108.791 9.15033L104.589 9.12018C104.161 9.11013 103.946 9.32116 103.946 9.75326L103.976 17.0488C103.976 17.1694 104.036 17.2297 104.156 17.2297H108.702C108.911 17.2397 109.031 17.1342 109.06 16.9131L109.12 16.2951C109.14 16.054 109.031 15.9334 108.791 15.9334L105.905 15.9484C105.716 15.9484 105.621 15.8479 105.621 15.647L105.651 14.0643C105.651 13.9939 105.676 13.9286 105.726 13.8683C105.786 13.8181 105.85 13.7929 105.92 13.7929L107.64 13.8231C108.059 13.8432 108.333 13.6472 108.462 13.2352ZM115.221 10.733C116.178 10.3411 117.051 10.4064 117.838 10.929C118.117 11.1199 118.376 11.0898 118.616 10.8386L118.765 10.6878C119.034 10.3663 119.004 10.0899 118.675 9.85878C117.449 8.94433 116.153 8.76344 114.788 9.31614C113.432 9.84873 112.589 10.8536 112.26 12.3308C112.081 13.1548 112.146 13.9839 112.455 14.8179C112.794 15.7123 113.327 16.3604 114.055 16.7624C115.59 17.6065 117.125 17.5111 118.661 16.476C118.98 16.265 119.014 16.0037 118.765 15.6922L118.631 15.5264C118.361 15.2249 118.062 15.1948 117.733 15.4359C117.095 15.9283 116.418 16.0891 115.7 15.9183C114.972 15.7374 114.439 15.2852 114.1 14.5617C113.771 13.8884 113.696 13.1699 113.875 12.4062C114.075 11.5721 114.523 11.0144 115.221 10.733ZM138.608 32.9211C138.608 33.1221 138.678 33.2929 138.818 33.4336C138.967 33.5843 139.142 33.6597 139.341 33.6597C139.54 33.6597 139.715 33.5843 139.864 33.4336C140.004 33.2929 140.074 33.1221 140.074 32.9211C140.074 32.7201 140.004 32.5443 139.864 32.3935C139.715 32.2529 139.54 32.1825 139.341 32.1825C139.142 32.1825 138.967 32.2529 138.818 32.3935C138.678 32.5443 138.608 32.7201 138.608 32.9211ZM136.919 32.3935C136.779 32.5443 136.709 32.7201 136.709 32.9211C136.709 33.1221 136.779 33.2929 136.919 33.4336C137.068 33.5843 137.243 33.6597 137.442 33.6597C137.641 33.6597 137.816 33.5843 137.965 33.4336C138.105 33.2929 138.175 33.1221 138.175 32.9211C138.175 32.7201 138.105 32.5443 137.965 32.3935C137.816 32.2529 137.641 32.1825 137.442 32.1825C137.243 32.1825 137.068 32.2529 136.919 32.3935ZM127.588 13.19C127.588 12.0444 127.189 11.0647 126.391 10.2507C125.584 9.43672 124.612 9.02974 123.476 9.02974C122.329 9.02974 121.357 9.43672 120.56 10.2507C119.752 11.0647 119.348 12.0444 119.348 13.19C119.348 14.3356 119.752 15.3154 120.56 16.1293C121.357 16.9433 122.329 17.3503 123.476 17.3503C124.612 17.3503 125.584 16.9433 126.391 16.1293C127.189 15.3154 127.588 14.3356 127.588 13.19ZM125.255 11.2305C125.743 11.7731 125.993 12.4263 126.003 13.19C126.013 13.9537 125.773 14.6069 125.285 15.1496C124.796 15.6821 124.203 15.9535 123.505 15.9635C122.808 15.9736 122.214 15.7073 121.726 15.1646C121.228 14.632 120.973 13.9839 120.963 13.2202C120.953 12.4564 121.193 11.8032 121.681 11.2606C122.17 10.718 122.763 10.4466 123.461 10.4466C124.158 10.4366 124.757 10.6979 125.255 11.2305ZM131.79 22.2793C131.879 22.2491 131.939 22.2089 131.969 22.1587C132.049 22.0683 132.084 21.9678 132.074 21.8572C132.064 21.7567 132.019 21.6663 131.939 21.5859C131.717 21.4071 131.448 21.2563 131.132 21.1337V21.1488C130.579 20.9753 130.056 21.1461 129.562 21.6613C129.086 22.1382 128.882 22.6859 128.949 23.3043H128.814C128.528 23.4156 128.338 23.5463 128.246 23.6962C128.165 23.8567 128.135 23.9622 128.156 24.0127C128.156 24.0831 128.181 24.1383 128.231 24.1785C128.281 24.2187 128.335 24.2338 128.395 24.2237C129.611 24.1333 130.638 24.1283 131.476 24.2087C131.805 24.2388 132.034 24.1032 132.163 23.8017C132.213 23.7012 132.213 23.5806 132.163 23.4399C132.104 23.3394 132.014 23.2791 131.894 23.259C131.406 23.2189 130.882 23.2189 130.324 23.259C130.155 23.259 130.07 23.1736 130.07 23.0028C130.07 22.5506 130.284 22.2341 130.713 22.0532C130.823 22.0029 130.912 22.023 130.982 22.1135C131.182 22.3245 131.451 22.3798 131.79 22.2793ZM135.334 9.4518C135.334 9.32116 135.264 9.24579 135.124 9.22569L134.257 9.13525C133.978 9.1252 133.838 9.25584 133.838 9.52716L133.868 13.9135C133.868 14.2652 133.754 14.3105 133.524 14.0492C132.348 12.6524 131.226 11.2204 130.16 9.75326C129.901 9.40155 129.567 9.19555 129.158 9.13525C128.679 9.09506 128.435 9.31614 128.425 9.79849L128.44 16.7473C128.44 17.1392 128.639 17.3151 129.038 17.2749L129.487 17.2297C129.766 17.1995 129.906 17.0438 129.906 16.7624L129.92 12.3157C129.92 11.9741 130.02 11.9439 130.22 12.2253C131.097 13.3809 132.318 14.9335 133.883 16.883C134.053 17.094 134.262 17.2247 134.511 17.2749C134.77 17.3251 135.01 17.2749 135.229 17.1242C135.319 17.0639 135.364 16.9835 135.364 16.883L135.334 9.4518ZM142.332 9.79849C142.322 9.36638 142.103 9.15033 141.674 9.15033L136.56 9.13525C136.121 9.13525 135.907 9.35633 135.917 9.79849L135.932 9.97937C135.932 10.3411 136.111 10.522 136.47 10.522L138.04 10.5371C138.21 10.5371 138.294 10.6275 138.294 10.8084V16.8528C138.284 17.094 138.404 17.2247 138.653 17.2448L139.536 17.2749C139.765 17.295 139.879 17.1895 139.879 16.9584V10.8536C139.879 10.7531 139.914 10.6727 139.984 10.6125C140.044 10.5522 140.119 10.522 140.208 10.522L141.719 10.5371C142.147 10.5371 142.352 10.3261 142.332 9.904V9.79849ZM57.5459 27.2987C57.5459 27.0977 57.4762 26.9219 57.3366 26.7712C57.1871 26.6305 57.0126 26.5601 56.8132 26.5601C56.6139 26.5601 56.4394 26.6305 56.2899 26.7712C56.1503 26.9219 56.0805 27.0977 56.0805 27.2987C56.0805 27.4997 56.1503 27.6705 56.2899 27.8112C56.4394 27.962 56.6139 28.0373 56.8132 28.0373C57.0126 28.0373 57.1871 27.962 57.3366 27.8112C57.4762 27.6705 57.5459 27.4997 57.5459 27.2987ZM54.6749 29.002C54.7048 28.7006 54.5702 28.5699 54.2712 28.6101L53.7029 28.6553C53.364 28.6955 53.1945 28.8865 53.1945 29.2281C53.1845 30.0823 53.2792 30.8359 53.4786 31.4891C53.7378 32.3433 54.1565 32.9513 54.7347 33.313C56.0805 34.1571 57.5759 34.2626 59.2207 33.6296C59.769 33.4197 60.1977 33.063 60.5067 32.5593C60.8158 32.0633 60.9553 31.4403 60.9254 30.6902C60.9055 29.9502 60.9055 29.2216 60.9254 28.5046C60.9454 27.8 60.9404 27.202 60.9105 26.7109C60.9005 26.5099 60.7908 26.4194 60.5815 26.4395C60.3024 26.4697 60.0681 26.53 59.8787 26.6204C59.5497 26.7712 59.3952 27.0224 59.4151 27.3741L59.46 30.841C59.4899 31.8057 59.0513 32.3734 58.1441 32.5443C57.4363 32.6749 56.8033 32.6749 56.245 32.5443C55.5372 32.3634 55.0986 31.9815 54.9291 31.3987C54.6898 30.5546 54.6051 29.7557 54.6749 29.002ZM48.9178 9.27092C48.8381 9.35131 48.7982 9.44175 48.7982 9.54224L48.7832 16.8528C48.7832 16.9634 48.8231 17.0538 48.9029 17.1242C48.9826 17.2046 49.0723 17.2448 49.172 17.2448H50.0543C50.1639 17.2448 50.2537 17.2046 50.3235 17.1242C50.4032 17.0538 50.4431 16.9634 50.4431 16.8528L50.458 9.54224C50.458 9.44175 50.4182 9.35131 50.3384 9.27092C50.2686 9.19053 50.1789 9.15033 50.0692 9.15033H49.187C49.0873 9.15033 48.9976 9.19053 48.9178 9.27092ZM58.7273 16.4308C58.6675 13.9286 58.6625 11.7882 58.7123 10.0095C58.7323 9.53721 58.5179 9.23575 58.0693 9.10511L57.9347 9.07496C57.4662 9.06491 57.2319 9.29101 57.2319 9.75326L57.217 14.2301C57.217 14.4411 57.1522 14.4662 57.0226 14.3054L53.4039 9.63268C53.2344 9.4116 53.025 9.26087 52.7758 9.18048C52.5066 9.10008 52.2574 9.12018 52.0281 9.24077C51.9085 9.30106 51.8487 9.40155 51.8487 9.54224L51.8637 16.9433C51.8637 17.0237 51.8936 17.094 51.9534 17.1543C52.0132 17.2146 52.083 17.2448 52.1627 17.2448L53.0151 17.2297C53.1945 17.2297 53.2842 17.1443 53.2842 16.9734L53.2992 12.6624C53.2992 12.1198 53.4637 12.0645 53.7926 12.4966C54.9989 14.0844 56.1702 15.5867 57.3067 17.0036C57.4164 17.1543 57.5759 17.2548 57.7852 17.305C58.0942 17.3553 58.3335 17.3 58.503 17.1392C58.6625 16.9785 58.7372 16.7423 58.7273 16.4308ZM62.4357 10.4316C62.8544 10.4416 63.2532 10.5572 63.632 10.7783C63.961 10.9591 64.2401 10.8938 64.4694 10.5823L64.6189 10.4014C64.8482 10.0899 64.7984 9.8437 64.4694 9.66282C63.6818 9.19052 62.9242 8.9795 62.1965 9.02974C61.3989 9.07999 60.726 9.4518 60.1777 10.1452C59.6095 10.8586 59.5647 11.6525 60.0432 12.5268C60.3422 13.0895 60.8606 13.4613 61.5983 13.6422C62.1267 13.7728 62.5803 13.9437 62.9591 14.1547C63.2781 14.3255 63.4675 14.5969 63.5273 14.9687C63.5373 15.0792 63.5074 15.1797 63.4376 15.2701C63.0588 15.7424 62.6102 15.9786 62.0918 15.9786C61.6232 15.9685 61.1497 15.7776 60.6712 15.4058C60.3323 15.1445 60.0432 15.1948 59.8039 15.5565L59.6394 15.8429C59.44 16.1645 59.4949 16.4207 59.8039 16.6117C60.3024 16.9332 60.8855 17.1593 61.5535 17.29C62.1416 17.4206 62.7198 17.3653 63.2881 17.1242C63.8663 16.8729 64.2949 16.4961 64.5741 15.9937C65.1223 15.0189 65.0575 14.1246 64.3797 13.3106C64.1304 13.0091 63.7068 12.7478 63.1086 12.5268C62.4307 12.3057 61.9472 12.1248 61.6581 11.9841L61.5834 11.9389C61.4139 11.8384 61.3042 11.6877 61.2544 11.4867C61.2145 11.2958 61.2444 11.1149 61.3441 10.9441C61.5634 10.5924 61.9273 10.4215 62.4357 10.4316ZM87.0042 23.5304C87.1437 23.3897 87.2135 23.2189 87.2135 23.0179C87.2135 22.8169 87.1437 22.641 87.0042 22.4903C86.8546 22.3496 86.6802 22.2793 86.4808 22.2793C86.2814 22.2793 86.107 22.3496 85.9574 22.4903C85.8179 22.641 85.7481 22.8169 85.7481 23.0179C85.7481 23.2189 85.8179 23.3897 85.9574 23.5304C86.107 23.6811 86.2814 23.7565 86.4808 23.7565C86.6802 23.7565 86.8546 23.6811 87.0042 23.5304ZM82.0695 26.5149C82.0695 26.4647 82.0546 26.4144 82.0247 26.3642C81.9848 26.2938 81.925 26.2536 81.8453 26.2436C81.7651 26.2232 81.6156 26.2333 81.3966 26.2737C81.1884 26.3248 81.004 26.3901 80.8434 26.4697C80.6923 26.549 80.6175 26.6846 80.6191 26.8767L80.634 29.816C80.634 30.0069 80.5393 30.1024 80.3499 30.1024C79.343 30.0622 78.1767 30.0421 76.8508 30.0421C76.4919 30.0421 76.1779 29.9115 75.9087 29.6502C75.6396 29.3889 75.49 29.0724 75.4601 28.7006C75.3948 27.7704 74.981 27.0569 74.219 26.5601C73.0748 25.9233 72.0431 25.9233 71.1236 26.5601C70.8199 26.788 70.5458 27.0945 70.3012 27.4796C70.2075 27.6314 70.1327 27.7921 70.0769 27.962C69.99 28.1874 69.9052 28.4437 69.8227 28.7307C69.5635 29.6351 69.0501 30.0773 68.2825 30.0572C67.2158 30.0471 66.0844 30.0471 64.8881 30.0572C64.7585 30.0572 64.6488 30.0119 64.5591 29.9215C64.4594 29.821 64.4096 29.7055 64.4096 29.5748V22.7315C64.4096 22.4702 64.285 22.3697 64.0357 22.43L63.4525 22.5958C63.1834 22.6662 63.0488 22.837 63.0488 23.1083L63.0638 29.7557C63.0638 30.1878 63.2183 30.5546 63.5273 30.8561C63.8264 31.1575 64.1903 31.3083 64.6189 31.3083L68.3872 31.3233C68.8457 31.3233 69.2495 31.1977 69.5984 30.9465C69.7081 30.8762 69.8227 30.856 69.9423 30.8862C70.0719 30.9163 70.1716 30.9817 70.2414 31.0822C70.6302 31.675 71.1785 32.0418 71.8863 32.1825C73.4215 32.4538 74.533 31.9916 75.2209 30.7958L75.2657 30.7355C75.3754 30.635 75.4851 30.64 75.5947 30.7505C75.9436 31.1324 76.3175 31.3233 76.7162 31.3233C81.92 31.3133 87.5724 31.3133 93.6734 31.3233C94.5905 31.3334 95.2983 31.1123 95.7968 30.6601C96.3251 30.1777 96.5943 29.4643 96.6043 28.5197C96.6342 26.4998 96.6441 24.5805 96.6342 22.7616C96.6342 22.5305 96.5245 22.4401 96.3052 22.4903L95.4678 22.626C95.2884 22.6561 95.1986 22.7616 95.1986 22.9425L95.1687 28.9568C95.1687 29.2683 95.0591 29.5296 94.8398 29.7406C94.6304 29.9617 94.3712 30.0722 94.0622 30.0722H90.578C90.4684 30.0622 90.3787 30.017 90.3089 29.9366C90.2391 29.8562 90.2092 29.7607 90.2192 29.6502C90.269 28.8061 90.1593 28.0423 89.8902 27.359C89.5811 26.5752 89.1026 25.9873 88.4547 25.5954C87.7967 25.2035 87.1088 25.0226 86.3911 25.0528C85.3942 25.103 84.5468 25.4397 83.849 26.0627C83.2808 26.5551 82.7424 27.3088 82.234 28.3237C82.2241 28.3639 82.1942 28.384 82.1443 28.384C82.0845 28.384 82.0546 28.3539 82.0546 28.2936L82.0695 26.5149ZM71.2134 29.2733C71.2233 28.7809 71.3729 28.3589 71.662 28.0072C71.9511 27.6655 72.295 27.4997 72.6938 27.5098C73.0925 27.5299 73.4265 27.7158 73.6956 28.0675C73.9648 28.4192 74.0944 28.8463 74.0844 29.3487C74.0745 29.8512 73.9249 30.2732 73.6358 30.6149C73.3467 30.9666 73.0028 31.1324 72.604 31.1123C72.2053 31.1022 71.8713 30.9163 71.6022 30.5546C71.333 30.2029 71.2034 29.7758 71.2134 29.2733ZM82.8023 29.7255L82.8322 29.6502C82.8322 29.6401 82.8322 29.6301 82.8322 29.62C83.1412 28.6151 83.7742 27.7509 84.7313 27.0274C85.3593 26.5551 86.0521 26.3642 86.8098 26.4546C87.6272 26.5551 88.1805 26.9721 88.4696 27.7057C88.6889 28.2484 88.7836 28.9317 88.7537 29.7557C88.7438 29.8461 88.7089 29.9215 88.6491 29.9818C88.5793 30.0421 88.5045 30.0722 88.4247 30.0722H83.1611L83.0565 30.0572H83.0415L83.0266 30.0421C82.9668 30.022 82.9219 29.9918 82.892 29.9517C82.882 29.9416 82.877 29.9316 82.877 29.9215C82.8671 29.9115 82.8571 29.9014 82.8471 29.8914C82.8172 29.8411 82.8023 29.7858 82.8023 29.7255ZM72.4395 9.52716L72.4246 9.49702C72.4246 9.39653 72.3847 9.30609 72.305 9.22569C72.2352 9.15535 72.1455 9.1252 72.0358 9.13525L71.1536 9.15033C70.8944 9.16038 70.7648 9.29604 70.7648 9.55731C70.7847 11.0546 70.7847 12.5569 70.7648 14.0643C70.7448 14.828 70.5305 15.3204 70.1218 15.5415C69.6532 15.8128 69.1747 15.9082 68.6862 15.8279C67.789 15.6872 67.3255 15.0792 67.2956 14.004C67.2657 12.2655 67.2607 10.8084 67.2806 9.63268C67.3006 9.29101 67.1361 9.11013 66.7872 9.09003L66.2189 9.05989C65.8501 9.04984 65.6656 9.23072 65.6656 9.60253C65.6557 10.4969 65.6607 11.8836 65.6806 13.7628C65.7005 15.4209 66.3784 16.5212 67.7143 17.0639C68.442 17.3653 69.1797 17.4206 69.9274 17.2297C70.7349 17.0187 71.3579 16.6117 71.7966 16.0087C72.2352 15.4158 72.4445 14.6873 72.4246 13.8231C72.4047 12.2153 72.4096 10.7833 72.4395 9.52716ZM77.9574 13.6422C78.6452 13.3809 79.0689 12.9086 79.2284 12.2253C79.4177 11.4314 79.2881 10.743 78.8396 10.1602C78.4013 9.57761 77.8829 9.24599 77.2845 9.1654C76.6862 9.08466 76.2725 9.04446 76.0433 9.04482C75.8135 9.04529 75.3848 9.03524 74.7573 9.01467C74.5086 9.01259 74.3042 9.03771 74.1442 9.09003H74.1143C74.089 9.10232 74.0641 9.11739 74.0396 9.13525C73.8737 9.21772 73.774 9.34334 73.7405 9.51209C73.7313 9.5533 73.7264 9.58848 73.7255 9.6176C73.7206 9.6251 73.7156 9.63013 73.7106 9.63268H73.7255L73.7106 16.7323C73.7106 17.1242 73.91 17.3201 74.3087 17.3201H74.7125C75.1112 17.3101 75.3256 17.1041 75.3555 16.7021C75.3953 16.0891 75.3904 15.3756 75.3405 14.5617C75.3305 14.4712 75.3555 14.3858 75.4153 14.3054C75.515 14.1447 75.6944 14.0793 75.9536 14.1095C76.0932 14.1296 76.2078 14.1999 76.2975 14.3205C76.9156 15.1345 77.439 15.9183 77.8676 16.672C78.087 17.0337 78.386 17.2196 78.7648 17.2297L79.4527 17.2749C79.9113 17.295 80.0159 17.1091 79.7667 16.7172C79.1985 15.8329 78.5605 14.9234 77.8527 13.9889C77.7331 13.8181 77.768 13.7025 77.9574 13.6422ZM77.3742 10.8386C77.6633 11.0697 77.8078 11.346 77.8078 11.6676V11.7731C77.8078 12.1047 77.6633 12.3861 77.3742 12.6172C77.095 12.8483 76.7511 12.9639 76.3424 12.9639H75.5798C75.51 12.9639 75.4452 12.9388 75.3854 12.8885C75.3355 12.8383 75.3106 12.773 75.3106 12.6926V10.7632C75.3106 10.6928 75.3355 10.6275 75.3854 10.5672C75.4452 10.517 75.51 10.4919 75.5798 10.4919H76.3424C76.7511 10.4919 77.095 10.6074 77.3742 10.8386ZM83.7593 9.09003C83.5499 9.09003 83.4054 9.19052 83.3256 9.3915L80.335 16.9734C80.335 17.0337 80.3599 17.089 80.4097 17.1392C80.4596 17.1794 80.5144 17.1995 80.5742 17.1995H81.6359C81.8253 17.1794 81.9499 17.084 82.0097 16.9131L82.4733 15.4812C82.5032 15.3807 82.573 15.3304 82.6826 15.3304L85.6285 15.3154C85.7281 15.3154 85.8129 15.3656 85.8827 15.4661C86.082 15.8479 86.2067 16.1997 86.2565 16.5212C86.3163 16.883 86.5207 17.1091 86.8696 17.1995C87.0989 17.2598 87.3481 17.2749 87.6173 17.2448C88.0061 17.2046 88.1307 16.9986 87.9911 16.6267L85.12 9.3915C85.0403 9.19052 84.8908 9.09003 84.6714 9.09003H83.7593ZM83.4752 14.0793C83.3855 14.0793 83.3107 14.0492 83.2509 13.9889C83.221 13.9587 83.201 13.9236 83.1911 13.8834C83.1811 13.8834 83.1761 13.8784 83.1761 13.8683C83.1462 13.7879 83.1512 13.7126 83.1911 13.6422C83.4901 12.9689 83.7294 12.3057 83.9088 11.6525C84.1182 10.9692 84.3175 10.9742 84.507 11.6676C84.6764 12.2705 84.9107 12.9237 85.2098 13.6271C85.2496 13.7075 85.2546 13.7929 85.2247 13.8834C85.2148 13.8934 85.2098 13.9035 85.2098 13.9135C85.1898 13.9437 85.1699 13.9738 85.15 14.004C85.0802 14.0643 85.0004 14.0944 84.9107 14.0944L83.4752 14.0793ZM90.1145 12.2404C90.1145 11.949 90.1992 11.9188 90.3687 12.1499L94.1519 16.9584C94.2217 17.0589 94.3214 17.1242 94.451 17.1543L94.9743 17.2448C95.3631 17.3251 95.5575 17.1644 95.5575 16.7624L95.5276 9.69297C95.5276 9.3915 95.3881 9.22067 95.1089 9.18048C94.8697 9.13023 94.6354 9.12018 94.4061 9.15033C94.1669 9.18047 94.0522 9.32116 94.0622 9.57239L94.1369 14.2904C94.1569 14.5516 94.0821 14.5768 93.9127 14.3657C92.5668 12.5871 91.3357 11.0144 90.2192 9.64775C89.7506 9.07496 89.2671 8.9594 88.7687 9.30106C88.6889 9.36136 88.6491 9.43672 88.6491 9.52716L88.664 16.6267C88.664 17.0187 88.8584 17.2196 89.2472 17.2297H89.5014C89.9301 17.2297 90.1444 17.0187 90.1444 16.5966L90.1145 12.2404ZM206.048 23.0932C206.048 22.8822 205.974 22.7064 205.824 22.5657C205.674 22.4149 205.495 22.3396 205.286 22.3396C205.076 22.3396 204.897 22.4149 204.747 22.5657C204.598 22.7064 204.523 22.8822 204.523 23.0932C204.523 23.3043 204.598 23.4851 204.747 23.6359C204.897 23.7866 205.076 23.862 205.286 23.862C205.495 23.862 205.674 23.7866 205.824 23.6359C205.974 23.4851 206.048 23.3043 206.048 23.0932ZM213.032 23.651C213.181 23.7916 213.361 23.862 213.57 23.862C213.769 23.862 213.944 23.7916 214.093 23.651C214.243 23.5002 214.318 23.3193 214.318 23.1083C214.318 22.8973 214.243 22.7164 214.093 22.5657C213.944 22.4149 213.769 22.3396 213.57 22.3396C213.361 22.3396 213.181 22.4149 213.032 22.5657C212.882 22.7164 212.807 22.8973 212.807 23.1083C212.807 23.3193 212.882 23.5002 213.032 23.651ZM202.878 22.5657C202.729 22.7164 202.654 22.8973 202.654 23.1083C202.654 23.3093 202.729 23.4851 202.878 23.6359C203.028 23.7866 203.207 23.862 203.416 23.862C203.616 23.862 203.79 23.7866 203.94 23.6359C204.089 23.4851 204.164 23.3093 204.164 23.1083C204.164 22.8973 204.089 22.7164 203.94 22.5657C203.79 22.4149 203.616 22.3396 203.416 22.3396C203.207 22.3396 203.028 22.4149 202.878 22.5657ZM198.691 14.1547C199.289 12.8785 199.703 12.0294 199.932 11.6073C199.902 11.9289 199.887 12.1248 199.887 12.1952L199.858 16.687C199.858 17.1091 200.067 17.305 200.486 17.2749L200.725 17.2598C201.114 17.2297 201.308 17.0136 201.308 16.6117V9.58746C201.308 9.35633 201.188 9.21565 200.949 9.1654C200.421 9.07496 199.927 9.14028 199.469 9.36135C198.442 11.3912 197.679 12.9036 197.181 13.8985C197.091 14.0592 197.016 14.1748 196.957 14.2451L196.807 13.9587C195.78 12.0494 194.973 10.6125 194.385 9.64775C194.165 9.29604 193.796 9.1252 193.278 9.13525C192.73 9.15535 192.461 9.42165 192.471 9.93415L192.515 16.7473C192.515 17.089 192.68 17.2498 193.009 17.2297H193.532C193.831 17.2297 193.981 17.0739 193.981 16.7624L193.936 12.572C193.926 11.9389 194.071 11.8987 194.37 12.4514L195.94 15.2701C196.179 15.7022 196.329 15.9535 196.388 16.0238C196.588 16.2348 196.807 16.3404 197.046 16.3404C197.286 16.3404 197.47 16.2951 197.6 16.2047C197.719 16.1143 198.083 15.4309 198.691 14.1547ZM204.314 9.57239C204.314 9.4518 204.274 9.35131 204.194 9.27092C204.114 9.19053 204.015 9.15033 203.895 9.15033H203.073C202.953 9.15033 202.853 9.19053 202.774 9.27092C202.694 9.36136 202.654 9.46185 202.654 9.57239L202.684 16.8227C202.684 16.9433 202.724 17.0438 202.803 17.1242C202.883 17.2046 202.978 17.2448 203.088 17.2448H203.925C204.035 17.2448 204.134 17.2046 204.224 17.1242C204.304 17.0337 204.344 16.9332 204.344 16.8227L204.314 9.57239ZM210.041 10.6426L210.25 10.3562C210.44 10.0949 210.4 9.86883 210.131 9.6779C209.622 9.35633 209.114 9.16038 208.605 9.09003C207.2 8.84886 206.168 9.3915 205.51 10.718C205.221 11.3109 205.256 11.8987 205.615 12.4816C205.934 13.0141 206.412 13.391 207.05 13.6121C207.309 13.7025 207.663 13.7929 208.112 13.8834C208.351 13.9638 208.56 14.0844 208.74 14.2451C208.999 14.4662 209.089 14.7426 209.009 15.0742C208.85 15.657 208.476 15.9585 207.888 15.9786C207.339 15.9886 206.786 15.7826 206.228 15.3606L206.198 15.3455C206.068 15.2651 205.929 15.24 205.779 15.2701C205.63 15.3003 205.515 15.3757 205.435 15.4962L205.211 15.858C205.061 16.0992 205.096 16.3002 205.316 16.4609C206.392 17.2749 207.479 17.5261 208.575 17.2146C209.782 16.8629 210.435 16.0288 210.534 14.7124C210.594 13.9889 210.285 13.4061 209.607 12.9639C209.278 12.7428 208.64 12.4715 207.693 12.1499C207.434 12.0695 207.235 11.954 207.095 11.8032C207.015 11.7229 206.96 11.6324 206.931 11.5319C206.861 11.341 206.871 11.1551 206.96 10.9742C207.05 10.7833 207.19 10.6526 207.379 10.5823C208.027 10.3512 208.635 10.4165 209.203 10.7783C209.522 10.9893 209.802 10.9441 210.041 10.6426ZM213.211 10.5823C213.859 10.3512 214.467 10.4165 215.035 10.7783C215.354 10.9893 215.633 10.9441 215.873 10.6426L216.082 10.3562C216.271 10.0949 216.232 9.86883 215.962 9.6779C215.454 9.35633 214.946 9.16038 214.437 9.09003C213.032 8.84886 212 9.3915 211.342 10.718C211.053 11.3109 211.088 11.8987 211.446 12.4816C211.766 13.0141 212.244 13.391 212.882 13.6121C213.141 13.7025 213.495 13.7929 213.944 13.8834C214.18 13.9606 214.384 14.0812 214.557 14.2451C214.83 14.4625 214.924 14.7388 214.841 15.0742C214.684 15.6591 214.31 15.9605 213.719 15.9786C213.171 15.9886 212.618 15.7826 212.06 15.3606L212.03 15.3455C211.9 15.2651 211.76 15.24 211.611 15.2701C211.461 15.3003 211.347 15.3757 211.267 15.4962L211.043 15.858C210.893 16.0992 210.928 16.3002 211.147 16.4609C212.224 17.2749 213.311 17.5261 214.407 17.2146C215.613 16.8629 216.266 16.0288 216.366 14.7124C216.426 13.9889 216.117 13.4061 215.439 12.9639C215.11 12.7428 214.472 12.4715 213.525 12.1499C213.266 12.0695 213.066 11.954 212.927 11.8032C212.847 11.7229 212.792 11.6324 212.762 11.5319C212.693 11.341 212.703 11.1551 212.792 10.9742C212.882 10.7833 213.022 10.6526 213.211 10.5823ZM222.019 32.1825C221.809 32.1825 221.63 32.2579 221.48 32.4086C221.331 32.5593 221.256 32.7402 221.256 32.9513C221.256 33.1623 221.331 33.3432 221.48 33.4939C221.63 33.6346 221.809 33.7049 222.019 33.7049C222.218 33.7049 222.392 33.6346 222.542 33.4939C222.691 33.3432 222.766 33.1623 222.766 32.9513C222.766 32.7402 222.691 32.5593 222.542 32.4086C222.392 32.2579 222.218 32.1825 222.019 32.1825ZM223.484 29.7557C223.494 29.0322 223.409 28.2685 223.23 27.4645C222.901 26.0778 222.048 25.2638 220.673 25.0226C219.437 24.8217 218.245 25.1935 217.099 26.1381L217.069 26.1531C217.019 26.2034 216.989 26.2687 216.979 26.3491C216.979 26.4295 217.009 26.4998 217.069 26.5601L217.547 27.0726C217.697 27.2234 217.852 27.2334 218.011 27.1028C219.237 26.118 220.264 25.9622 221.091 26.6355C221.869 27.2585 222.168 28.2936 221.989 29.7406C221.959 29.9617 221.834 30.0722 221.615 30.0722L215.469 30.0421C215.15 30.0421 214.881 29.9265 214.661 29.6954C214.432 29.4643 214.323 29.1929 214.332 28.8814L214.347 25.5954C214.347 25.1432 214.128 24.9724 213.69 25.0829L213.495 25.1432C213.096 25.294 212.897 25.5854 212.897 26.0175L212.867 28.9417C212.867 29.2532 212.757 29.5145 212.538 29.7255C212.329 29.9466 212.07 30.0521 211.761 30.0421L207.903 30.0572C207.574 30.0572 207.294 29.9416 207.065 29.7105C206.836 29.4693 206.721 29.1829 206.721 28.8513L206.736 25.4296C206.736 25.1382 206.592 24.9925 206.303 24.9925C205.435 24.9824 204.508 24.9824 203.521 24.9925C202.833 25.0025 202.275 25.2889 201.846 25.8517C201.458 26.3441 201.233 26.9721 201.173 27.7359C201.104 28.4895 201.208 29.1729 201.488 29.7858C201.777 30.4591 202.205 30.8962 202.774 31.0972C203.661 31.3987 204.513 31.3635 205.331 30.9917C205.41 30.9415 205.47 30.8912 205.51 30.841C205.57 30.7505 205.65 30.6802 205.749 30.63C205.859 30.5898 205.959 30.6048 206.048 30.6752C206.487 31.047 206.98 31.2379 207.529 31.248C208.934 31.2781 210.395 31.2882 211.91 31.2781C212.179 31.2781 212.458 31.2228 212.747 31.1123C212.927 31.042 213.186 30.9163 213.525 30.7355C213.635 30.6953 213.724 30.7053 213.794 30.7656C214.313 31.1173 214.841 31.2932 215.379 31.2932L227.94 31.2781C228.548 31.2781 229.101 31.0319 229.6 30.5395C230.108 30.0471 230.358 29.4994 230.348 28.8965C230.338 26.6455 230.338 24.6157 230.348 22.8068V22.7315C230.328 22.641 230.278 22.5707 230.198 22.5205C230.118 22.4803 230.034 22.4652 229.944 22.4752L229.346 22.6109C229.047 22.6913 228.897 22.8772 228.897 23.1686L228.912 28.9116C228.912 29.203 228.807 29.4542 228.598 29.6653C228.399 29.8763 228.154 29.9818 227.865 29.9818L223.753 30.027C223.683 30.027 223.619 30.0019 223.559 29.9517C223.509 29.9014 223.484 29.8361 223.484 29.7557ZM203.611 29.8461C203.235 29.7157 202.946 29.4494 202.744 29.0472C202.553 28.6553 202.513 28.0875 202.624 27.3439C202.744 26.6003 203.182 26.1833 203.94 26.0928H204.927C205.206 26.1689 205.326 26.4302 205.286 26.8767V28.4443C205.287 29.1076 205.102 29.5397 204.732 29.7406C204.36 29.9413 203.986 29.9765 203.611 29.8461ZM218.908 9.25584C218.819 9.1654 218.714 9.12018 218.594 9.12018H217.832C217.712 9.12018 217.612 9.1654 217.533 9.25584C217.443 9.33623 217.398 9.44175 217.398 9.57239L217.383 16.8378C217.383 16.9584 217.428 17.0639 217.518 17.1543C217.597 17.2347 217.697 17.2749 217.817 17.2749H218.579C218.699 17.2749 218.804 17.2347 218.893 17.1543C218.983 17.0639 219.028 16.9584 219.028 16.8378L219.043 9.57239C219.043 9.4518 218.998 9.34628 218.908 9.25584ZM228.254 13.2051V13.19C228.254 12.3751 228.05 11.6415 227.641 10.9893C227.475 10.7318 227.276 10.4856 227.043 10.2507C226.245 9.43672 225.273 9.02974 224.127 9.02974C222.991 9.02974 222.019 9.43672 221.211 10.2507C220.404 11.0647 220 12.0494 220 13.2051C220 14.3507 220.404 15.3304 221.211 16.1444C222.019 16.9584 222.991 17.3653 224.127 17.3653C225.273 17.3653 226.245 16.9584 227.043 16.1444C227.276 15.9095 227.475 15.6582 227.641 15.3907C228.05 14.7486 228.254 14.02 228.254 13.2051ZM222.318 11.3058C222.786 10.7431 223.359 10.4517 224.037 10.4316C224.715 10.4115 225.308 10.6627 225.817 11.1852C226.315 11.7078 226.579 12.3509 226.609 13.1146C226.639 13.8784 226.425 14.5366 225.966 15.0893C225.498 15.652 224.92 15.9484 224.232 15.9786C223.554 15.9987 222.961 15.7475 222.452 15.2249C221.954 14.7024 221.69 14.0592 221.66 13.2955C221.63 12.5318 221.849 11.8686 222.318 11.3058ZM234.579 14.215C234.579 14.4059 234.515 14.431 234.385 14.2904C233.169 12.8031 232.017 11.3661 230.931 9.97937C230.821 9.83868 230.726 9.68292 230.647 9.51209C230.607 9.42165 230.537 9.36136 230.437 9.33121C230.039 9.21062 229.655 9.17042 229.286 9.21062C229.136 9.24077 229.062 9.32619 229.062 9.46687V16.7021C229.062 17.094 229.251 17.2799 229.63 17.2598H229.944C230.392 17.2699 230.617 17.0388 230.617 16.5665L230.632 12.3157C230.632 12.0645 230.711 12.0394 230.871 12.2404C232.107 13.7779 233.328 15.3254 234.535 16.883C234.764 17.1744 235.128 17.295 235.626 17.2448C235.816 17.2146 235.91 17.1041 235.91 16.9131L236 9.54224C236 9.47189 235.97 9.40155 235.91 9.33121C235.86 9.27092 235.796 9.23574 235.716 9.22569L234.998 9.1654C234.689 9.13525 234.535 9.27594 234.535 9.58746L234.579 14.215ZM167.454 32.891C167.454 32.69 167.384 32.5141 167.244 32.3634C167.095 32.2227 166.92 32.1524 166.721 32.1524C166.521 32.1524 166.347 32.2227 166.197 32.3634C166.058 32.5141 165.988 32.69 165.988 32.891C165.988 33.0919 166.058 33.2628 166.197 33.4035C166.347 33.5542 166.521 33.6296 166.721 33.6296C166.92 33.6296 167.095 33.5542 167.244 33.4035C167.384 33.2628 167.454 33.0919 167.454 32.891ZM157.629 23.6811C157.769 23.5404 157.839 23.3696 157.839 23.1686C157.839 22.9676 157.769 22.7918 157.629 22.641C157.48 22.5004 157.305 22.43 157.106 22.43C156.906 22.43 156.732 22.5004 156.582 22.641C156.443 22.7918 156.373 22.9676 156.373 23.1686C156.373 23.3696 156.443 23.5404 156.582 23.6811C156.732 23.8318 156.906 23.9072 157.106 23.9072C157.305 23.9072 157.48 23.8318 157.629 23.6811ZM148.941 25.294C148.532 24.892 147.984 24.6609 147.296 24.6006C146.758 24.5503 146.14 24.5152 145.442 24.4951C145.053 24.4951 144.699 24.6106 144.38 24.8418C144.161 25.0025 143.922 25.2035 143.663 25.4447C143.403 25.706 143.453 25.8316 143.812 25.8215C144.201 25.8215 144.809 25.8014 145.637 25.7612C146.374 25.7519 146.887 25.772 147.177 25.8215C147.467 25.8693 147.756 26.0301 148.044 26.3039C148.34 26.588 148.505 27.0201 148.537 27.6002C148.571 28.1815 148.561 28.7392 148.508 29.2733C148.467 29.8163 148.347 30.0775 148.149 30.0572L147.894 30.0421C147.695 30.0126 147.655 29.8015 147.775 29.409C148.022 28.2834 147.898 27.4845 147.401 27.0123C146.914 26.5387 146.346 26.3378 145.696 26.4094C145.057 26.4805 144.594 26.8021 144.306 27.3741C144.066 27.8464 143.967 28.384 144.007 28.9869C144.007 29.0774 144.036 29.2231 144.096 29.4241C144.156 29.605 144.181 29.7507 144.171 29.8612C144.171 29.9114 144.151 29.9567 144.111 29.9969C144.061 30.0371 144.012 30.0572 143.962 30.0572L140.134 30.0421C139.795 30.0421 139.511 29.9215 139.281 29.6803C139.042 29.4492 138.927 29.1628 138.937 28.8211L138.967 25.5804C138.967 25.1081 138.743 24.9523 138.294 25.1131L138.025 25.2186C137.656 25.3693 137.492 25.6457 137.532 26.0476C137.681 27.1631 137.636 28.3036 137.397 29.4693C137.367 29.5899 137.312 29.6753 137.233 29.7255C136.924 29.9165 136.595 30.017 136.246 30.027C135.279 30.0773 134.092 30.0873 132.687 30.0572C132.308 30.0471 132.014 29.8763 131.805 29.5447C131.625 29.2633 131.53 28.9116 131.52 28.4895C131.481 27.4746 131.476 26.4245 131.506 25.3392C131.506 25.0277 131.366 24.9322 131.087 25.0528L130.489 25.309C130.279 25.3995 130.175 25.5552 130.175 25.7763V28.8664C130.185 29.1879 130.075 29.4693 129.846 29.7105C129.606 29.9416 129.327 30.0572 129.008 30.0572H122.444C122.334 30.0572 122.244 30.022 122.175 29.9517C122.105 29.8713 122.07 29.7758 122.07 29.6653V22.8973C122.07 22.5958 121.92 22.4752 121.621 22.5355L121.083 22.626C120.953 22.6461 120.844 22.7064 120.754 22.8068C120.674 22.9073 120.634 23.0229 120.634 23.1535V29.3789C120.624 30.645 121.223 31.2831 122.429 31.2932C124.682 31.3233 126.935 31.3233 129.188 31.2932C129.666 31.2932 130.175 31.1073 130.713 30.7355C130.803 30.6752 130.897 30.6752 130.997 30.7355C131.535 31.1073 132.124 31.2982 132.762 31.3083C134.008 31.3384 135.249 31.3384 136.485 31.3083C137.083 31.2982 137.636 31.1123 138.145 30.7505C138.245 30.6902 138.339 30.6902 138.429 30.7505C138.927 31.1123 139.456 31.2932 140.014 31.2932L149.704 31.3233C149.784 31.3233 149.858 31.2932 149.928 31.2329C149.988 31.1726 150.018 31.0972 150.018 31.0068C150.038 29.7808 150.018 28.6352 149.958 27.57C149.918 26.6757 149.579 25.917 148.941 25.294ZM145.472 27.8112C145.632 27.56 145.816 27.4394 146.025 27.4495C146.225 27.4696 146.394 27.6102 146.534 27.8715C146.673 28.1328 146.733 28.4443 146.713 28.8061C146.693 29.1678 146.603 29.4743 146.444 29.7255C146.284 29.9768 146.1 30.0923 145.891 30.0722C145.681 30.0622 145.507 29.9265 145.367 29.6653C145.238 29.404 145.183 29.0925 145.203 28.7307C145.223 28.3689 145.313 28.0624 145.472 27.8112ZM154.683 23.6811C154.833 23.8318 155.007 23.9072 155.207 23.9072C155.406 23.9072 155.581 23.8318 155.73 23.6811C155.87 23.5404 155.939 23.3696 155.939 23.1686C155.939 22.9676 155.87 22.7918 155.73 22.641C155.581 22.5004 155.406 22.43 155.207 22.43C155.007 22.43 154.833 22.5004 154.683 22.641C154.544 22.7918 154.474 22.9676 154.474 23.1686C154.474 23.3696 154.544 23.5404 154.683 23.6811ZM148.537 11.0345C148.268 9.97937 147.57 9.3915 146.444 9.27092C145.357 9.14028 144.281 9.12018 143.214 9.21062C143.065 9.23072 142.975 9.31111 142.945 9.4518C142.895 9.70302 142.875 10.0095 142.885 10.3713C142.895 10.5622 142.905 10.8235 142.915 11.1551C142.905 12.3811 142.91 14.2301 142.93 16.7021C142.93 17.1041 143.129 17.305 143.528 17.305H143.977C144.365 17.305 144.56 17.1041 144.56 16.7021V14.3054C144.56 14.1949 144.61 14.1346 144.709 14.1246C145.148 14.0341 145.477 14.1698 145.696 14.5315L147.072 16.6569C147.351 17.0488 147.715 17.2649 148.164 17.305C148.303 17.3352 148.463 17.3302 148.642 17.29C149.111 17.2096 149.205 16.9785 148.926 16.5966L147.102 13.9889C147.032 13.9085 147.047 13.8432 147.147 13.7929C147.595 13.5015 147.964 13.1046 148.253 12.6021C148.572 12.0293 148.667 11.5068 148.537 11.0345ZM146.564 10.8084C146.673 10.9089 146.763 11.0194 146.833 11.14C146.913 11.2908 146.957 11.4616 146.967 11.6525V11.7279C146.967 12.0494 146.843 12.3308 146.594 12.572C146.334 12.8031 146.025 12.9187 145.666 12.9187L144.739 12.9338C144.64 12.9237 144.585 12.8684 144.575 12.7679L144.545 10.6727C144.545 10.5522 144.605 10.4919 144.724 10.4919L145.637 10.4768C145.995 10.4667 146.304 10.5773 146.564 10.8084ZM160.052 9.43672C160.052 9.34628 160.022 9.27091 159.962 9.21062C159.892 9.15033 159.817 9.12018 159.738 9.12018H158.706C158.616 9.12018 158.541 9.15033 158.481 9.21062C158.412 9.27091 158.377 9.34628 158.377 9.43672V16.9433C158.377 17.0337 158.412 17.1091 158.481 17.1694C158.541 17.2297 158.616 17.2598 158.706 17.2598L162.908 17.1995C162.997 17.1995 163.072 17.1694 163.132 17.1091C163.192 17.0488 163.222 16.9734 163.222 16.883L163.192 16.1745C163.192 16.0942 163.162 16.0238 163.102 15.9635C163.042 15.9032 162.968 15.8731 162.878 15.8731H160.351C160.261 15.8731 160.186 15.8429 160.126 15.7826C160.067 15.7223 160.037 15.647 160.037 15.5565L160.052 9.43672ZM157.51 13.1749C157.51 12.0193 157.106 11.0395 156.298 10.2356C155.491 9.42165 154.519 9.01467 153.382 9.01467C152.236 9.01467 151.259 9.42165 150.452 10.2356C149.644 11.0395 149.24 12.0193 149.24 13.1749C149.24 14.3306 149.644 15.3154 150.452 16.1293C151.259 16.9433 152.236 17.3503 153.382 17.3503C154.519 17.3402 155.491 16.9332 156.298 16.1293C157.106 15.3154 157.51 14.3306 157.51 13.1749ZM153.397 10.4466C154.085 10.4567 154.673 10.733 155.162 11.2757C155.65 11.8183 155.885 12.4715 155.865 13.2352C155.855 13.9889 155.605 14.632 155.117 15.1646C154.619 15.6972 154.02 15.9585 153.323 15.9484C152.635 15.9384 152.052 15.662 151.573 15.1194C151.085 14.5768 150.845 13.9236 150.855 13.1599C150.865 12.4062 151.119 11.7631 151.618 11.2305C152.106 10.6979 152.699 10.4366 153.397 10.4466ZM182.033 22.8671C182.033 22.7566 181.998 22.6611 181.928 22.5807C181.849 22.5004 181.754 22.4551 181.644 22.4451L180.971 22.4149C180.862 22.4149 180.762 22.4551 180.672 22.5355C180.593 22.6159 180.553 22.7164 180.553 22.837L180.538 30.8561C180.538 30.9666 180.573 31.0621 180.642 31.1424C180.722 31.2228 180.817 31.2681 180.927 31.2781L181.599 31.3083C181.709 31.3083 181.809 31.2681 181.899 31.1877C181.978 31.1073 182.018 31.0068 182.018 30.8862L182.033 22.8671ZM187.386 29.8461C187.307 29.7557 187.267 29.6552 187.267 29.5447V25.5954C187.267 25.1533 187.057 24.9774 186.639 25.0679L186.385 25.1432C186.016 25.2739 185.831 25.5402 185.831 25.9421C185.861 27.7107 185.856 29.3387 185.816 30.8259C185.816 31.1274 185.737 31.464 185.577 31.8358C185.477 32.067 185.303 32.2529 185.054 32.3935C184.326 32.7653 183.603 32.7704 182.885 32.4086C182.208 32.067 182.008 32.2529 182.287 32.9663C182.427 33.3281 182.731 33.6195 183.199 33.8406C183.897 34.1923 184.844 34.0215 186.041 33.3281C186.569 33.0367 186.973 32.4036 187.252 31.4288C187.272 31.3183 187.337 31.263 187.446 31.263L191.813 31.2781C192.072 31.2882 192.351 31.2329 192.65 31.1123C192.81 31.052 193.069 30.9264 193.428 30.7355C193.557 30.6752 193.672 30.6802 193.772 30.7505C194.489 31.2329 195.322 31.3686 196.269 31.1575C196.837 31.0269 197.286 30.7355 197.615 30.2833C197.924 29.8713 198.113 29.3638 198.183 28.7608C198.263 27.9268 198.108 27.158 197.719 26.4546C197.251 25.6105 196.433 25.2186 195.267 25.2789C194.081 25.3392 193.333 25.8416 193.024 26.7862C192.795 27.4897 192.695 28.1529 192.725 28.7759C192.745 29.0975 192.665 29.3688 192.486 29.5899C192.296 29.8311 192.047 29.9567 191.738 29.9667C190.502 29.9868 189.151 29.9868 187.686 29.9667C187.576 29.9667 187.476 29.9265 187.386 29.8461ZM194.534 29.5899C194.265 29.2382 194.125 28.8111 194.115 28.3086C194.106 27.8062 194.23 27.3741 194.489 27.0123C194.739 26.6506 195.048 26.4647 195.416 26.4546C195.785 26.4446 196.104 26.6204 196.373 26.9822C196.643 27.3339 196.782 27.761 196.792 28.2634C196.802 28.7659 196.678 29.193 196.418 29.5447C196.169 29.9064 195.86 30.0923 195.491 30.1024C195.122 30.1124 194.803 29.9416 194.534 29.5899ZM173.869 28.8513C174.217 29.1327 174.611 29.2633 175.05 29.2432C175.817 29.2131 176.446 29.208 176.934 29.2281C177.163 29.2281 177.253 29.3437 177.203 29.5748L177.173 29.6653C177.034 29.8863 176.849 30.0019 176.62 30.0119C173.659 30.0622 170.997 30.0722 168.635 30.0421C168.286 30.032 167.987 29.9014 167.738 29.6502C167.488 29.399 167.364 29.0975 167.364 28.7458C167.354 27.6605 167.354 26.5451 167.364 25.3995C167.364 25.0679 167.199 24.9523 166.87 25.0528L166.497 25.1734C166.187 25.2638 166.033 25.4748 166.033 25.8065L166.048 28.7608C166.048 29.1126 165.923 29.414 165.674 29.6653C165.425 29.9165 165.126 30.0421 164.777 30.0421L159.917 30.0572C159.568 30.0572 159.269 29.9366 159.02 29.6954C158.771 29.4442 158.646 29.1427 158.646 28.791V25.2186C158.646 25.0679 158.566 24.9925 158.407 24.9925C157.519 25.0126 156.682 25.0076 155.895 24.9774C155.087 24.9573 154.449 25.1734 153.981 25.6256C153.502 26.0677 153.248 26.7008 153.218 27.5248C153.178 28.5699 153.198 29.213 153.278 29.4542C153.547 30.2079 153.921 30.7053 154.399 30.9465C155.566 31.5394 156.702 31.4138 157.809 30.5697C157.878 30.5094 157.948 30.5144 158.018 30.5847C158.437 31.0369 158.89 31.263 159.379 31.263C161.442 31.2831 163.306 31.2831 164.971 31.263C165.549 31.253 166.088 31.0822 166.586 30.7505C166.676 30.6902 166.766 30.6852 166.855 30.7355C167.414 31.0671 167.967 31.2379 168.515 31.248C170.639 31.3083 173.315 31.3233 176.545 31.2932C177.472 31.2831 178.1 30.9666 178.429 30.3436C178.629 29.9818 178.723 29.4944 178.713 28.8814C178.713 27.8966 178.713 27.3791 178.713 27.3289C178.813 26.334 178.469 25.6105 177.682 25.1583C177.014 24.7764 176.191 24.6458 175.214 24.7664C174.457 24.8669 173.898 25.2136 173.54 25.8065C173.191 26.3692 173.091 27.0324 173.241 27.7961C173.32 28.2182 173.53 28.5699 173.869 28.8513ZM174.467 27.4495C174.33 27.0555 174.445 26.6737 174.811 26.3039C175.184 25.9361 175.657 25.8105 176.231 25.927C176.817 26.0527 177.151 26.314 177.233 26.7109V27.5098C177.283 27.8916 177.118 28.0675 176.74 28.0373C176.4 28.0174 175.972 28.0124 175.454 28.0222C174.935 28.0329 174.606 27.842 174.467 27.4495ZM154.952 29.5296C154.384 28.7357 154.354 27.8414 154.863 26.8465C155.072 26.4345 155.366 26.2034 155.745 26.1531C155.964 26.123 156.338 26.0928 156.867 26.0627C156.956 26.0426 157.036 26.0577 157.106 26.1079C157.186 26.1582 157.23 26.2285 157.24 26.319C157.24 26.339 157.24 26.3642 157.24 26.3943C157.21 27.0174 157.22 27.6856 157.27 28.3991C157.31 28.8814 157.2 29.2733 156.941 29.5748C156.672 29.8964 156.303 30.0421 155.835 30.0119C155.446 29.9918 155.152 29.8311 154.952 29.5296ZM173.869 23.1686C173.869 23.3696 173.938 23.5404 174.078 23.6811C174.227 23.8318 174.402 23.9072 174.601 23.9072C174.801 23.9072 174.975 23.8318 175.125 23.6811C175.264 23.5404 175.334 23.3696 175.334 23.1686C175.334 22.9676 175.264 22.7918 175.125 22.641C174.975 22.5004 174.801 22.43 174.601 22.43C174.402 22.43 174.227 22.5004 174.078 22.641C173.938 22.7918 173.869 22.9676 173.869 23.1686ZM177.233 23.1686C177.233 22.9676 177.163 22.7918 177.024 22.641C176.874 22.5004 176.7 22.43 176.5 22.43C176.301 22.43 176.127 22.5004 175.977 22.641C175.837 22.7918 175.768 22.9676 175.768 23.1686C175.768 23.3696 175.837 23.5404 175.977 23.6811C176.127 23.8318 176.301 23.9072 176.5 23.9072C176.7 23.9072 176.874 23.8318 177.024 23.6811C177.163 23.5404 177.233 23.3696 177.233 23.1686ZM172.807 9.904C171.92 9.21062 170.968 8.92423 169.951 9.04482C168.126 9.28599 166.94 10.2859 166.392 12.0444C166.063 13.0895 166.168 14.1447 166.706 15.2098C167.264 16.3554 168.146 17.0438 169.353 17.2749C170.519 17.496 171.631 17.2397 172.687 16.5062C173.016 16.2851 173.066 16.0138 172.837 15.6922L172.777 15.6018C172.548 15.2701 172.269 15.2098 171.94 15.4209C170.534 16.3052 169.407 16.2147 168.56 15.1496C167.733 14.1246 167.638 12.9488 168.276 11.6224C168.565 11.0395 169.103 10.6677 169.891 10.5069C170.669 10.3462 171.287 10.4768 171.745 10.8988C171.855 10.9993 171.989 11.0546 172.149 11.0647C172.298 11.0747 172.438 11.0345 172.568 10.9441L172.792 10.7481C173.171 10.4768 173.176 10.1954 172.807 9.904ZM181.465 13.4764C181.545 12.3208 181.211 11.3109 180.463 10.4466C179.715 9.58243 178.778 9.11013 177.652 9.02974C176.525 8.9594 175.533 9.30106 174.676 10.0547C173.829 10.8185 173.365 11.7781 173.285 12.9338C173.216 14.0894 173.55 15.0993 174.287 15.9635C175.035 16.8378 175.972 17.3101 177.098 17.3804C178.235 17.4608 179.227 17.1191 180.074 16.3554C180.932 15.5917 181.395 14.632 181.465 13.4764ZM177.427 10.4316C178.115 10.4517 178.699 10.733 179.177 11.2757C179.656 11.8284 179.885 12.4866 179.865 13.2503C179.845 14.0241 179.586 14.6722 179.087 15.1948C178.589 15.7274 177.991 15.9836 177.293 15.9635C176.605 15.9535 176.022 15.6721 175.543 15.1194C175.075 14.5667 174.846 13.9085 174.855 13.1448C174.875 12.3811 175.135 11.7329 175.633 11.2003C176.141 10.6778 176.74 10.4215 177.427 10.4316ZM190.796 9.1654C190.266 9.07826 189.772 9.14357 189.315 9.36135C188.29 11.3865 187.528 12.8989 187.028 13.8985C186.942 14.06 186.867 14.1756 186.803 14.2451L186.639 13.9437C185.622 12.0454 184.82 10.6134 184.231 9.64775C184.012 9.29604 183.643 9.1252 183.125 9.13525C182.576 9.15535 182.307 9.42165 182.317 9.93415L182.362 16.7473C182.362 17.089 182.527 17.2498 182.856 17.2297H183.379C183.678 17.2297 183.828 17.0739 183.828 16.7624L183.783 12.572C183.773 11.9389 183.917 11.8987 184.216 12.4514L185.786 15.2701C186.026 15.7022 186.175 15.9535 186.235 16.0238C186.434 16.236 186.653 16.3415 186.893 16.3404C187.134 16.338 187.314 16.2928 187.431 16.2047C187.557 16.1144 187.921 15.4311 188.523 14.1547C189.136 12.8812 189.549 12.027 189.764 11.5922C189.714 11.7412 189.654 11.907 189.585 12.0896L189.779 11.6073C189.749 11.9289 189.734 12.1248 189.734 12.1952L189.704 16.687C189.704 17.1091 189.914 17.305 190.332 17.2749L190.572 17.2598C190.96 17.2297 191.155 17.0136 191.155 16.6117V9.58746C191.155 9.35633 191.035 9.21565 190.796 9.1654Z" fill="#8D7F69"/>
<path d="M30.505 28.8455C30.7841 29.3078 31.0084 29.7499 31.1779 30.172C31.3174 30.4835 31.5517 30.6292 31.8807 30.6091L34.5723 30.594L34.6919 30.5639C34.7418 30.5337 34.7767 30.4885 34.7966 30.4282C34.8165 30.3579 34.8066 30.2926 34.7667 30.2323L21.0694 6.26553L21.0095 6.20523C20.9198 6.14494 20.8451 6.16504 20.7852 6.26553L0.0299087 42.5322L0 42.6075C0 42.6578 0.0199415 42.698 0.0598173 42.7281C0.0996931 42.7683 0.139567 42.7884 0.179443 42.7884L3.22994 42.7733C3.3396 42.7733 3.42433 42.7231 3.48415 42.6226L20.7254 12.521L20.8002 12.4456C20.85 12.4155 20.9049 12.4054 20.9647 12.4155C21.0245 12.4356 21.0694 12.4707 21.0993 12.521C21.5379 13.1842 21.9566 13.8776 22.3554 14.6011C25.037 19.3643 27.7535 24.1125 30.505 28.8455Z" fill="#AB9D8D"/>
<path d="M27.6339 30.6694C27.7037 30.6694 27.7585 30.6543 27.7984 30.6242C27.9878 30.5036 28.0277 30.3478 27.918 30.1569C27.1305 28.8807 26.323 27.4939 25.4956 25.9966C25.3161 25.655 25.0569 25.2379 24.718 24.7455C24.6981 24.7053 24.6582 24.6651 24.5984 24.625C24.4887 24.5747 24.384 24.5647 24.2844 24.5948C24.1747 24.6149 24.0949 24.6752 24.0451 24.7757L20.9348 30.3378C20.9148 30.3679 20.9049 30.4081 20.9049 30.4584C20.9049 30.5991 20.9747 30.6694 21.1142 30.6694H27.6339Z" fill="#E51937"/>
<path d="M48.8827 42.4869L47.4023 39.8642C47.3326 39.7536 47.2379 39.6984 47.1182 39.6984H12.6656C12.6157 39.6984 12.5758 39.6883 12.5459 39.6682C12.4861 39.6381 12.4462 39.5929 12.4263 39.5326C12.4064 39.4622 12.4163 39.3969 12.4562 39.3366L22.5498 21.7158C22.6794 21.4746 22.6794 21.2334 22.5498 20.9923L21.1441 18.5504L21.0245 18.4448C20.855 18.3645 20.7254 18.4047 20.6357 18.5654L20.2619 19.2588C14.9385 28.6847 10.5023 36.4676 6.95335 42.6075L6.92344 42.6829C6.92344 42.7733 6.97328 42.8186 7.07297 42.8186L48.7033 42.8035L48.793 42.7733C48.9027 42.7131 48.9326 42.6176 48.8827 42.4869Z" fill="#9B8B79"/>
<path d="M39.9106 33.4278V33.4429C39.9106 33.5333 39.8658 33.5786 39.7761 33.5786C32.9573 33.5987 26.7766 33.5886 21.2338 33.5484C20.7454 33.5384 20.1123 33.5585 19.3347 33.6087C19.1952 33.6087 19.0805 33.679 18.9908 33.8197L17.4805 36.3219L17.4357 36.4576C17.4357 36.6284 17.5204 36.7138 17.6899 36.7138H45.3238L45.3686 36.6988C45.4384 36.6787 45.4534 36.6385 45.4135 36.5782C45.244 36.1461 45.0496 35.7441 44.8303 35.3723L25.7946 2.10525C25.3061 1.26114 24.8974 0.592888 24.5684 0.100489L24.5086 0.0251224C24.389 -0.0251224 24.2943 0 24.2245 0.100489L22.7591 2.61775C22.6395 2.81873 22.6345 3.02473 22.7441 3.23576L39.5966 32.6139C39.7661 32.9153 39.8708 33.1866 39.9106 33.4278Z" fill="#8A7A67"/>
</svg>
