<?xml version="1.0" encoding="utf-8"?>
<!-- Generator: Adobe Illustrator 26.5.2, SVG Export Plug-In . SVG Version: 6.00 Build 0)  -->
<svg version="1.1" id="Layer_1" xmlns="http://www.w3.org/2000/svg" xmlns:xlink="http://www.w3.org/1999/xlink" x="0px" y="0px"
	 viewBox="0 0 501 501" style="enable-background:new 0 0 501 501;" xml:space="preserve">
<style type="text/css">
	.st0{fill:#FFFFFF;}
	.st1{fill:#F6C016;}
	.st2{fill:#003663;}
	.st3{fill-rule:evenodd;clip-rule:evenodd;fill:#003663;}
</style>
<g>
	<g>
		<circle class="st0" cx="250" cy="250" r="158.6"/>
		<path class="st1" d="M250,412c-89.3,0-162-72.7-162-162S160.7,88,250,88s162,72.7,162,162S339.3,412,250,412z M250,94.7
			c-85.6,0-155.3,69.7-155.3,155.3S164.5,405.3,250,405.3S405.3,335.6,405.3,250S335.8,94.7,250,94.7z"/>
	</g>
	<g>
		<g>
			<g>
				<path class="st2" d="M243.2,394.8l-7.3-0.6l-7.1-0.9l-7.1-1.3l-7.1-1.6l-6.8-1.9l-6.7-2.2l-6.5-2.5l-6.4-2.8l-6.4-3.3l-5.9-3.4
					l-5.9-3.7l-5.8-4l-5.4-4.2l-5.4-4.6l-5.1-4.8l-4.8-5.2l-4.6-5.2l-4.3-5.5l-4-5.6l-3.9-5.9l-3.4-6.1L120,313l-2.8-6.5l-2.7-6.7
					l-2.2-6.5l-1.9-7l-1.6-7.1l-1.3-7.1l-0.9-7.1l-0.6-7.3l-0.3-7.4l0.3-7.4l0.6-7.4l0.9-7.3l1.3-7.1l1.6-7l1.9-7l2.2-6.7l2.5-6.5
					l3-6.5l3.3-6.2l3.4-6.1l3.9-5.9l4-5.8l4.2-5.4l4.6-5.4l4.8-5.1l5.1-4.8l5.4-4.6l5.5-4.3l5.8-4l5.8-3.7l6.1-3.4l6.2-3.3l6.5-2.8
					l6.5-2.7l6.7-2.2l7-1.9l7.1-1.5l7.1-1.3l3.7-0.4l3.6-0.3l7.1-0.6l7.3-0.1h0.1l7.4,0.1l7.4,0.6l3.7,0.3l3.6,0.4l7.1,1.3l7,1.5
					l7,2.1l6.7,2.2l6.5,2.7l6.5,2.8l6.4,3.3l5.9,3.4l5.9,3.9l5.6,4l5.5,4.3l5.4,4.6l5.1,4.8l4.8,5.1l4.6,5.2l4.5,5.6l4,5.8l3.7,5.8
					l3.4,6.1l3.3,6.2l2.8,6.5l2.7,6.5l2.2,6.7l1.9,6.8l1.5,7.1l1.3,7.1l0.4,3.7l0.3,3.7l0.6,7.1l0.1,7.6l-0.1,7.4l-0.6,7.1l-0.9,7.3
					l-1.3,7.1l-1.5,7.1l-1.9,7l-2.2,6.5l-2.7,6.7l-2.8,6.5l-3.3,6.2l-3.4,5.9l-3.9,5.9l-4,5.6l-4.5,5.6l-4.6,5.4l-4.8,5.1l-5.1,4.8
					l-5.4,4.6l-5.5,4.3l-5.8,4l-5.8,3.7l-6.1,3.6l-6.2,3.3l-6.5,2.8l-6.5,2.7l-6.5,2.2L287,391l-7.1,1.6l-7.1,1.3l-7.3,0.9l-7.3,0.6
					l-7.4,0.3L243.2,394.8L243.2,394.8z M243.6,111.5l-7,0.6l-3.4,0.3l-3.4,0.4l-6.8,1.3l-6.7,1.5l-6.5,1.9l-6.5,2.2l-6.4,2.5
					l-6.1,2.8l-5.9,3l-5.9,3.1l-5.5,3.6l-5.5,3.9l-5.4,4l-4.9,4.3l-4.8,4.6l-4.6,4.8l-4.5,5.1l-4,5.2l-3.9,5.5l-3.6,5.6l-3.4,5.9
					l-3,5.9l-2.8,6.2l-2.4,6.2l-2.2,6.5l-1.9,6.5l-1.5,6.7l-1.2,6.7l-0.9,7l-0.4,7l-0.3,7.1l0.3,7.1l0.4,7.1l0.9,6.8l1.2,6.8
					l1.5,6.7l1.6,6.5l2.2,6.4l2.5,6.4l2.8,6.1l3.1,5.9l3.4,5.8l3.6,5.6l3.9,5.4l4.2,5.4l4.3,4.9l4.6,4.9l4.8,4.6l5.1,4.5l5.2,4
					l5.5,4l5.6,3.6l5.9,3.4l5.9,3l6.1,2.8l6.2,2.4l6.5,2.2l6.5,1.9l6.7,1.5l6.8,1.2l7,0.9l7,0.4l7.1,0.3l7.1-0.3l7-0.4l7-0.9
					l6.8-1.2l6.7-1.5l6.5-1.9l6.4-2.2l6.4-2.5l6.2-2.8l5.9-3l5.9-3.4l5.5-3.6l5.5-3.9l5.4-4.2l4.9-4.3l4.8-4.6l4.6-4.8l4.3-5.1
					l4.2-5.4l3.9-5.4l3.7-5.6l3.4-5.9l3.1-5.9l2.8-6.1l2.5-6.2l2.2-6.5l1.9-6.5l1.5-6.7l1.2-6.7l0.9-6.8l0.6-7.1l0.1-7.1l-0.1-7.1
					l-0.6-7.1L389,232l-0.4-3.4l-1.2-6.7l-1.5-6.7l-1.9-6.5l-2.2-6.4l-2.5-6.4l-2.8-6.1l-3-5.9l-3.4-5.9l-3.6-5.5l-4-5.5l-4-5.4
					l-4.3-4.9l-4.6-4.8l-4.8-4.6l-5.1-4.5l-5.4-4l-5.4-3.9l-5.6-3.7l-5.8-3.3l-5.9-3.1l-6.1-2.8l-6.4-2.5l-6.4-2.2l-6.5-1.9
					l-6.7-1.5l-6.8-1.2l-3.4-0.4l-3.4-0.3l-7.1-0.6l-7.1-0.1L243.6,111.5L243.6,111.5z"/>
			</g>
			<path class="st2" d="M243.8,385l-6.8-0.4l-6.7-0.9l-6.7-1.2l-6.5-1.5l-6.5-1.8l-6.2-2.2l-6.2-2.4l-5.9-2.8l-5.9-3l-5.6-3.3
				l-5.5-3.4l-5.2-4l-5.2-4l-4.9-4.2l-4.6-4.5l-4.5-4.6l-4.3-4.9l-4-5.2l-3.9-5.4l-3.4-5.5l-3.4-5.6l-3-5.9l-2.8-5.9l-2.4-6.1
				l-2.2-6.2l-1.8-6.4l-1.5-6.5l-1.2-6.7l-0.9-6.7l-0.4-6.8l-0.1-7l0.1-7l0.4-6.8l0.9-6.8l1.2-6.5l1.5-6.5l1.8-6.4l2.2-6.2l2.4-6.1
				l2.8-5.9l3-5.8l3.3-5.6l3.4-5.5l3.9-5.4l4-5.1l4.5-5.4l4.5-4.6l4.6-4.6l4.9-4.2l5.2-4l5.4-3.7l5.5-3.6l5.6-3.3l5.9-3l5.9-2.8
				l6.1-2.4l3.1-1l3.1-0.9l6.5-1.8l6.5-1.5l6.7-1.2l6.7-0.9l6.8-0.4l6.7-0.1v2.1v-2.1l7,0.1l6.8,0.4l6.8,0.9l6.5,1.2l3.4,0.7
				l3.3,0.9l6.4,1.8l3.3,0.9l3.1,1l6.1,2.4l5.9,2.8l5.9,3l5.6,3.3l5.4,3.6l5.4,3.7l5.1,4l4.9,4.3l4.6,4.5l4.6,4.6l4.2,4.9l4,5.2
				l3.7,5.4l3.6,5.5l3.3,5.6l3,5.9l2.7,5.9l2.4,6.1l1,3.1l0.9,3.1l1.8,6.4l0.9,3.4l0.6,3.4l1.2,6.5l0.9,6.8l0.4,6.8l0.1,7l-0.1,7
				l-0.4,6.8l-0.9,6.7l-1.2,6.7l-1.5,6.5l-1.8,6.4l-0.9,3.1l-1,3.1l-2.4,6.1l-2.8,5.9l-3,5.9l-3.3,5.6l-3.6,5.5l-3.7,5.4l-4,5.2
				l-4.2,4.9l-4.6,4.6l-4.6,4.5l-4.9,4.2l-5.1,4l-5.4,3.9l-5.4,3.4l-5.6,3.4l-5.9,3l-5.9,2.8l-6.1,2.4l-6.2,2.2l-6.4,1.8l-6.5,1.5
				l-6.5,1.2l-6.8,0.9l-6.8,0.4l-7,0.1L243.8,385L243.8,385z M244.1,118.9l-6.5,0.4l-6.5,0.9l-6.5,1.2l-6.4,1.5l-6.2,1.8l-3,0.9
				l-3,1l-5.9,2.4l-5.8,2.7l-5.6,2.8l-5.5,3.1l-5.4,3.4l-5.2,3.6l-4.9,4l-4.8,4l-4.6,4.3l-4.3,4.6l-4,4.8l-3.9,4.9l-3.7,5.2
				l-3.4,5.4l-3.3,5.5l-2.8,5.6l-2.7,5.9l-2.4,5.9l-2.1,6.1l-1.9,6.4l-1.5,6.4l-1,6.5l-0.9,6.5l-0.4,6.5l-0.1,6.7l0.1,6.7l0.4,6.5
				l0.9,6.5l1,6.5l1.5,6.2l1.8,6.2l2.1,6.1l2.2,5.9l2.7,5.8l2.8,5.6l3.3,5.5l3.4,5.4l3.7,5.2l3.9,4.9l4,4.8l4.3,4.6l4.6,4.3l4.8,4
				l5.1,3.9l5.2,3.7l5.4,3.4l5.5,3.3l5.6,2.8l5.8,2.7l5.9,2.4l6.1,2.1l6.2,1.8l6.2,1.5l6.5,1.2l6.5,0.9l6.5,0.4l6.7,0.1l6.7-0.1
				l6.5-0.4l6.5-0.9l6.4-1l6.4-1.5l6.2-1.8l6.1-2.1l5.9-2.2l5.9-2.7l5.6-2.8l5.5-3.3l5.4-3.4l5.2-3.7l4.9-3.9l4.8-4l4.6-4.3l4.3-4.6
				l4-4.8l4-4.9l3.6-5.2l3.4-5.4l3.1-5.5l2.8-5.6l2.7-5.8l2.4-5.9l1-3l0.9-3l1.8-6.2l1.5-6.2l1.2-6.5l0.9-6.5l0.4-6.5l0.1-6.7
				l-0.1-6.7l-0.4-6.5l-0.9-6.5l-1.2-6.5l-0.6-3.1l-0.9-3.1l-1.8-6.2l-0.9-3l-1-3l-2.4-5.9l-2.7-5.9l-2.8-5.6l-3.1-5.5l-3.4-5.4
				l-3.6-5.2l-4-4.9l-4-4.8l-4.5-4.6l-4.6-4.3l-4.8-4.2l-4.9-4l-5.2-3.6l-5.4-3.4l-5.5-3.1l-5.6-2.8l-5.9-2.7l-5.9-2.4l-3-1
				l-3.1-0.9l-6.2-1.8l-3.1-0.9l-3.3-0.6l-6.4-1.2l-6.5-0.9l-6.5-0.4l-6.8-0.1L244.1,118.9L244.1,118.9z"/>
			<path class="st2" d="M245.5,348.1l-4.9-0.4l-4.9-0.6l-4.8-0.9l-4.8-1l-4.6-1.3l-4.6-1.5l-4.6-1.8l-4.3-1.9l-4.3-2.2l-4-2.4
				l-4-2.5l-3.9-2.8l-3.7-2.8l-3.6-3.1l-3.4-3.3l-3.3-3.4l-3.1-3.6l-2.8-3.7l-2.8-3.9l-2.5-4l-2.4-4l-2.2-4.3l-1.9-4.3l-1.8-4.6
				l-1.5-4.6l-1.3-4.6l-1-4.8l-0.9-4.8l-0.6-4.9l-0.4-5.1l-0.1-5.1l0.1-5.2l0.4-4.9l0.6-4.9l0.9-4.8l1-4.8l1.3-4.6l1.5-4.6l1.8-4.5
				l1.9-4.5l2.2-4.2l2.4-4l2.5-4l2.8-3.9l2.8-3.7l3.1-3.6l3.3-3.4l3.4-3.4l3.6-3.1l3.7-2.8l3.9-2.8l4-2.7l4-2.4l4.3-2.2l4.3-1.9
				l4.6-1.8l4.6-1.5l4.6-1.3l4.8-1l4.8-0.9l4.9-0.6l4.9-0.3l4.9-0.1v1.6v-1.6l5.1,0.1l4.9,0.3l4.9,0.6l4.8,0.9l4.8,1l4.6,1.3
				l4.6,1.5l4.5,1.8l4.5,1.9l4.2,2.2l4,2.4l4,2.7l3.9,2.8l3.7,2.8l3.6,3.1l3.4,3.3l3.4,3.4l3.1,3.6l2.8,3.7l2.8,3.9l2.7,4l2.4,4
				l2.2,4.3l1.9,4.3l1.8,4.5l1.5,4.6l1.3,4.6l1,4.8l0.9,4.8l0.6,4.9l0.3,4.9l0.1,5.1l-0.1,5.1l-0.3,4.9l-0.6,4.9l-0.9,4.8l-1,4.8
				l-1.3,4.6l-1.5,4.6l-1.8,4.6l-1.9,4.3l-2.2,4.3l-2.4,4l-2.7,4l-2.8,3.9l-2.8,3.7l-3.1,3.6l-3.4,3.4l-3.4,3.3l-3.6,3.1l-3.7,2.8
				l-3.9,2.8l-4,2.5l-4,2.4l-4.3,2.2l-4.3,1.9l-4.5,1.8l-4.6,1.5l-4.6,1.3l-4.8,1l-4.8,0.9l-4.9,0.6l-5.1,0.3l-5.1,0.1L245.5,348.1
				L245.5,348.1z M245.8,154l-4.8,0.3l-4.8,0.6l-4.6,0.9l-4.6,1l-4.6,1.3l-4.5,1.5l-4.3,1.6l-4.2,1.9l-4.2,2.2l-4,2.2l-3.9,2.5
				l-3.7,2.7l-3.6,2.8l-3.4,3l-3.6,3.1l-3.1,3.4l-3,3.4l-2.8,3.6l-2.7,3.7l-2.5,3.9l-2.2,4l-2.2,4l-1.9,4.2l-1.6,4.3l-1.5,4.5
				l-1.3,4.6l-1,4.6l-0.9,4.6l-0.6,4.8l-0.3,4.8l-0.1,4.9l0.1,4.9l0.3,4.8l0.6,4.8l0.9,4.6l1,4.6l1.3,4.5l1.5,4.5l1.6,4.3l1.9,4.2
				l2.2,4.2l2.2,4l2.5,3.9l2.7,3.7l2.8,3.6l3,3.4l3.1,3.4l3.4,3.1l3.4,3l3.6,2.8l3.7,2.7l3.9,2.5l4,2.2l4.2,2.2l4.2,1.9l4.3,1.6
				l4.5,1.5l4.6,1.3l4.6,1l4.6,0.9l4.8,0.6l4.8,0.3l4.8,0.1l4.9-0.1l4.8-0.3l4.8-0.6l4.6-0.9l4.6-1l4.6-1.3l4.5-1.5l4.3-1.8l4.2-1.9
				l4-2.2l4-2.2l3.9-2.5l3.7-2.7l3.6-2.8l3.4-3l3.4-3.1l3.3-3.4l3-3.4l2.8-3.6l2.7-3.7l2.5-3.9l2.2-4l2.2-4.2l1.9-4.2l1.6-4.3
				l1.5-4.5l1.3-4.5l1-4.6l0.9-4.6l0.6-4.8l0.3-4.8l0.1-4.9l-0.1-4.9l-0.3-4.8l-0.6-4.8l-0.9-4.6l-1-4.6l-1.3-4.6l-1.5-4.5l-1.6-4.3
				l-1.9-4.2l-2.2-4l-2.2-4l-2.5-3.9l-2.7-3.7l-2.8-3.6l-3-3.4l-3.3-3.4l-3.3-3.3l-3.4-3l-3.6-2.8l-3.7-2.7l-3.9-2.5l-4-2.2l-4-2.2
				l-4.2-1.9l-4.3-1.6l-4.5-1.5l-4.6-1.3l-4.6-1l-4.6-0.9l-4.8-0.6l-4.8-0.3l-4.9-0.1L245.8,154L245.8,154z"/>
			<polygon class="st3" points="142.2,179.8 155.3,189.5 155.9,189.8 156.7,190.4 157.3,190.8 158.2,191.1 159,191.4 159.8,191.6 
				160.4,191.7 161.3,191.7 162,191.7 162.9,191.6 163.5,191.3 164.2,191 164.8,190.6 165.6,190.1 166.2,189.5 166.8,188.9 
				167.4,188.2 167.8,187.4 168.4,186.7 168.7,185.9 169,185.2 169,184.3 169.1,183.7 169.1,182.8 169,182.1 169,181.3 168.7,180.6 
				168.4,180 168,179.3 167.5,178.7 166.9,177.9 166.3,177.3 165.6,176.7 165.3,176.4 152.1,166.8 149.4,170.2 162.9,180.1 
				163.1,180.3 163.6,180.9 164.1,181.5 164.4,182.1 164.7,182.8 164.7,183.6 164.5,184.3 164.2,184.9 163.9,185.6 163.4,186.2 
				162.8,186.8 162,187 161.3,187.1 160.5,187.1 159.8,187 159,186.7 158.2,186.2 158,186.1 144.8,176.3 			"/>
			<polygon class="st3" points="155.5,189.4 155.5,189.2 142.4,179.6 142.1,180 155.3,189.8 155.3,189.7 			"/>
			<polygon class="st3" points="155.9,189.5 155.9,189.7 155.5,189.4 155.3,189.7 155.6,190 155.6,190 			"/>
			<polygon class="st3" points="167.2,188 164.7,190.4 162,191.4 159,191.1 155.9,189.5 155.6,190 158.9,191.7 162.2,192 165,190.8 
				167.7,188.3 			"/>
			<polygon class="st3" points="165.3,176.9 165.3,177 167.8,179.4 168.9,182.2 168.6,185.1 167.2,188 167.7,188.3 169.1,185.2 
				169.4,182.1 168.3,179.1 165.7,176.4 165.7,176.6 			"/>
			<polygon class="st3" points="165.1,176.7 165,176.7 165.3,176.9 165.7,176.6 165.4,176.3 165.4,176.3 			"/>
			<polygon class="st3" points="152.2,166.9 151.8,166.9 165.1,176.7 165.4,176.3 152.2,166.5 151.8,166.5 152.2,166.5 151.9,166.3 
				151.8,166.5 			"/>
			<polygon class="st3" points="149.5,170 149.7,170.3 152.2,166.9 151.8,166.5 149.1,170 149.2,170.5 149.1,170 149.1,170.2 
				149.2,170.5 			"/>
			<polygon class="st3" points="163.1,180 149.5,170 149.2,170.5 162.9,180.4 			"/>
			<polygon class="st3" points="163.4,180 163.1,180 162.9,180.4 162.9,180.6 			"/>
			<polygon class="st3" points="164.1,185.8 164.8,184.3 164.8,182.8 164.4,181.3 163.4,180 162.9,180.6 163.9,181.6 164.4,182.8 
				164.2,184.2 163.6,185.5 			"/>
			<polygon class="st3" points="158,186.4 159.8,187.3 161.4,187.4 162.9,187 164.1,185.8 163.6,185.5 162.6,186.5 161.3,186.8 
				159.8,186.7 158.4,185.9 			"/>
			<polygon class="st3" points="157.9,186.2 158,186.4 158.4,185.9 158.2,185.8 			"/>
			<polygon class="st3" points="145.1,176.4 144.8,176.6 157.9,186.2 158.2,185.8 145.1,176.1 144.6,176.1 145.1,176.1 144.8,175.8 
				144.6,176.1 			"/>
			<polygon class="st3" points="142.4,179.6 142.5,180 145.1,176.4 144.6,176.1 142.1,179.6 142.1,180 142.1,179.6 141.8,179.8 
				142.1,180 			"/>
			<polygon class="st3" points="156.8,161.3 173.6,179.3 176.6,176.4 164.5,163.6 182.5,170.9 185.6,168.1 169,150.1 166,152.7 
				177.8,165.3 160.2,158.2 			"/>
			<polygon class="st3" points="173.5,179 173.8,179 157.1,161 156.7,161.3 173.5,179.4 173.8,179.4 173.5,179.4 173.6,179.6 
				173.8,179.4 			"/>
			<polygon class="st3" points="176.3,176.7 176.3,176.3 173.5,179 173.8,179.4 176.7,176.7 176.7,176.3 176.7,176.7 176.9,176.4 
				176.7,176.3 			"/>
			<polygon class="st3" points="164.7,163.4 164.4,163.8 176.3,176.7 176.7,176.3 164.7,163.5 164.4,163.8 164.7,163.4 163.5,162.9 
				164.4,163.8 			"/>
			<polygon class="st3" points="182.4,170.6 182.7,170.6 164.7,163.4 164.4,163.8 182.4,171.2 182.8,171.2 182.4,171.2 182.7,171.2 
				182.8,171.2 			"/>
			<polygon class="st3" points="185.3,168.3 185.3,167.8 182.4,170.6 182.8,171.2 185.9,168.3 185.9,167.8 185.9,168.3 185.9,168.1 
				185.9,167.8 			"/>
			<polygon class="st3" points="169,150.1 168.7,150.1 185.3,168.3 185.9,167.8 169,149.8 168.7,149.8 169,149.8 169,149.5 
				168.7,149.8 			"/>
			<polygon class="st3" points="166.2,152.5 166.2,152.9 169,150.1 168.7,149.8 165.9,152.5 165.9,152.9 165.9,152.5 165.6,152.7 
				165.9,152.9 			"/>
			<polygon class="st3" points="177.6,165.6 177.9,165 166.2,152.5 165.9,152.9 177.5,165.6 177.8,165 177.6,165.6 178.8,166 
				177.9,165 			"/>
			<polygon class="st3" points="160.4,158.3 160.1,158.3 177.6,165.6 177.8,165 160.4,157.9 159.9,158 160.4,157.9 160.1,157.9 
				159.9,158 			"/>
			<polygon class="st3" points="157.1,161 157.1,161.3 160.4,158.3 159.9,158 156.7,161 156.7,161.3 156.7,161 156.5,161.3 
				156.7,161.3 			"/>
			<polygon class="st3" points="173.9,146.4 188,166.5 191.4,164.1 177.3,144 			"/>
			<polygon class="st3" points="187.9,166.3 188.3,166.3 174.1,146.3 173.6,146.7 187.9,166.8 188.3,166.8 187.9,166.8 188,166.9 
				188.3,166.8 			"/>
			<polygon class="st3" points="191.3,164.2 191.4,163.8 187.9,166.3 188.3,166.8 191.7,164.4 191.7,163.8 191.7,164.4 192,164.1 
				191.7,163.8 			"/>
			<polygon class="st3" points="177.5,144.3 177,144.2 191.3,164.2 191.7,163.8 177.6,143.9 177.2,143.9 177.6,143.9 177.3,143.7 
				177.2,143.9 			"/>
			<polygon class="st3" points="174.1,146.3 174.1,146.9 177.5,144.3 177.2,143.9 173.6,146.3 173.6,146.7 173.6,146.3 173.5,146.4 
				173.6,146.7 			"/>
			<polygon class="st3" points="180.7,141.4 182.8,145.2 188.2,142.4 198,160.1 201.7,158 191.9,140.2 197.1,137.3 195.2,133.5 			
				"/>
			<polygon class="st3" points="182.8,145.1 183.1,145.1 180.9,141.4 180.4,141.5 182.7,145.4 183,145.5 182.7,145.4 182.8,145.7 
				183,145.5 			"/>
			<polygon class="st3" points="188.3,142.2 188,142.1 182.8,145.1 183,145.5 188.3,142.5 187.9,142.5 188.3,142.2 188.3,142 
				188,142.1 			"/>
			<polygon class="st3" points="197.8,159.8 198.3,159.9 188.3,142.2 187.9,142.5 197.7,160.1 198.1,160.2 197.7,160.1 197.8,160.4 
				198.1,160.2 			"/>
			<polygon class="st3" points="201.4,158.2 201.5,157.7 197.8,159.8 198.1,160.2 201.8,158.2 202,157.9 201.8,158.2 202,158.2 
				202,157.9 			"/>
			<polygon class="st3" points="191.7,140 191.6,140.5 201.4,158.2 202,157.9 192,140.2 192,140.6 191.7,140 191.4,140.2 
				191.6,140.5 			"/>
			<polygon class="st3" points="196.9,137.5 197.1,137 191.7,140 192,140.6 197.2,137.6 197.4,137.2 197.2,137.6 197.5,137.5 
				197.4,137.2 			"/>
			<polygon class="st3" points="195.2,133.8 194.9,133.6 196.9,137.5 197.4,137.2 195.3,133.3 195,133.3 195.3,133.3 195.2,133.2 
				195,133.3 			"/>
			<polygon class="st3" points="180.9,141.4 180.9,141.8 195.2,133.8 195,133.3 180.6,141.2 180.4,141.5 180.6,141.2 180.3,141.4 
				180.4,141.5 			"/>
			<polygon class="st3" points="200.2,131.4 208.4,154.4 222.8,149.4 221.3,145.2 210.8,148.9 208.8,143 218,139.7 216.6,135.7 
				207.3,138.8 205.6,133.9 215.7,130.5 214.2,126.3 			"/>
			<polygon class="st3" points="208.2,154.3 208.7,154.4 200.5,131.2 199.9,131.4 208.1,154.6 208.4,154.7 208.1,154.6 208.2,154.9 
				208.4,154.7 			"/>
			<polygon class="st3" points="222.7,149.4 222.8,149.1 208.2,154.3 208.4,154.7 223,149.5 223.2,149.4 223,149.5 223.2,149.5 
				223.2,149.4 			"/>
			<polygon class="st3" points="221.5,145.5 221.2,145.4 222.7,149.4 223.2,149.4 221.8,145.1 221.3,145.1 221.8,145.1 221.5,144.9 
				221.3,145.1 			"/>
			<polygon class="st3" points="210.6,149.1 210.9,149.4 221.5,145.5 221.3,145.1 210.8,148.8 211.2,148.8 210.6,149.1 210.8,149.4 
				210.9,149.4 			"/>
			<polygon class="st3" points="208.7,142.7 208.4,143.1 210.6,149.1 211.2,148.8 209,142.8 208.8,143.3 208.7,142.7 208.4,142.8 
				208.4,143.1 			"/>
			<polygon class="st3" points="217.7,139.7 217.9,139.4 208.7,142.7 208.8,143.3 218.2,140 218.2,139.6 218.2,140 218.3,139.9 
				218.2,139.6 			"/>
			<polygon class="st3" points="216.7,135.9 216.4,135.7 217.7,139.7 218.2,139.6 217,135.6 216.4,135.3 217,135.6 216.9,135.3 
				216.4,135.3 			"/>
			<polygon class="st3" points="207,138.8 207.3,139.1 216.7,135.9 216.4,135.3 207.2,138.7 207.6,138.8 207,138.8 207,139.3 
				207.3,139.1 			"/>
			<polygon class="st3" points="205.6,133.8 205.3,134.1 207,138.8 207.6,138.8 205.9,133.9 205.7,134.4 205.6,133.8 205.1,133.9 
				205.3,134.1 			"/>
			<polygon class="st3" points="215.4,130.5 215.7,130.2 205.6,133.8 205.7,134.4 215.8,130.8 216,130.4 215.8,130.8 216,130.7 
				216,130.4 			"/>
			<polygon class="st3" points="214.3,126.6 213.9,126.3 215.4,130.5 216,130.4 214.5,126.3 214.2,126 214.5,126.3 214.5,125.9 
				214.2,126 			"/>
			<polygon class="st3" points="200.5,131.2 200.2,131.5 214.3,126.6 214.2,126 200.2,131.1 199.9,131.4 200.2,131.1 199.8,131.2 
				199.9,131.4 			"/>
			<polygon class="st3" points="231.1,143.6 231.1,147.9 234.2,147.3 235,147.2 235.9,146.9 236.6,146.4 237.2,145.8 237.8,145.2 
				238.4,144.5 238.9,143.9 239.3,142.8 239.6,142 240,140.9 240,139.7 240.2,138.7 240.3,137.5 240.3,136.2 240.2,134.8 240,133.3 
				239.7,132 239.4,130.8 239.2,129.8 238.7,128.7 238.3,127.7 237.7,126.8 237.2,126 236.5,125.3 235.9,124.6 235.1,124.1 
				234.4,123.7 233.8,123.2 232.9,123.2 232,123.1 231.3,122.9 231.1,123.1 231.1,127.4 231.3,127.4 231.9,127.5 232.3,127.7 
				232.6,127.8 233.2,128.1 233.5,128.4 233.8,128.9 234.4,129.9 235,131.1 235.4,132.6 235.7,134.4 236,136.2 236,137.8 
				235.9,139.3 235.7,140.5 235.1,141.5 234.8,142 234.5,142.4 234.2,142.5 233.8,143 233.4,143.1 232.9,143.3 			"/>
			<polygon class="st3" points="231.1,127.4 231.1,123.1 230.4,123.1 221.3,124.6 225.2,148.8 231.1,147.9 231.1,143.6 228.6,143.9 
				226.1,128.1 230.4,127.4 230.8,127.4 			"/>
			<polygon class="st3" points="225,148.5 225.5,148.8 221.5,124.6 221,124.6 224.9,148.8 225.2,149.1 224.9,148.8 225,149.1 
				225.2,149.1 			"/>
			<polygon class="st3" points="234.2,147 225,148.5 225.2,149.1 234.2,147.6 			"/>
			<polygon class="st3" points="239.7,133.5 240,136.2 240,138.7 239.6,140.8 239,142.7 238.1,144.5 237.1,145.7 235.7,146.6 
				234.2,147 234.2,147.6 236,147 237.5,146.1 238.7,144.8 239.4,143.1 240.2,140.9 240.6,138.7 240.6,136.2 240.3,133.3 			"/>
			<polygon class="st3" points="230.4,123.2 233.7,123.7 236.3,125.5 238.4,128.9 239.7,133.5 240.3,133.3 238.9,128.6 236.8,125.2 
				233.8,123.1 230.2,122.8 			"/>
			<polygon class="st3" points="221.5,124.6 221.3,124.9 230.4,123.2 230.2,122.8 221.3,124.3 221,124.6 221.3,124.3 220.9,124.3 
				221,124.6 			"/>
			<polygon class="st3" points="225.9,127.7 225.8,128.1 228.3,143.9 228.9,143.9 226.4,128.1 226.1,128.3 225.9,127.7 225.8,127.8 
				225.8,128.1 			"/>
			<polygon class="st3" points="230.4,127.1 225.9,127.7 226.1,128.3 230.4,127.7 			"/>
			<polygon class="st3" points="236,134.4 235.3,131.1 234.1,128.7 232.5,127.4 230.4,127.1 230.4,127.7 232.2,127.8 233.5,129 
				234.7,131.2 235.6,134.4 			"/>
			<polygon class="st3" points="232.9,143.6 234.7,142.5 235.9,140.6 236.3,137.8 236,134.4 235.6,134.4 235.7,137.8 235.3,140.5 
				234.4,142.1 232.9,143 			"/>
			<polygon class="st3" points="228.3,143.9 228.6,144.2 232.9,143.6 232.9,143 228.6,143.7 228.9,143.9 228.3,143.9 228.3,144.3 
				228.6,144.2 			"/>
			<polygon class="st3" points="268,130.2 268,129.2 268,128.3 267.8,127.5 267.5,126.8 267.4,126 266.9,125.3 266.6,124.7 
				266.2,124.1 265.6,123.7 265.2,123.1 264.6,122.6 263.8,122.3 263.1,122 262.5,121.7 261.6,121.6 260.6,121.4 259.8,121.4 
				258.9,121.4 258.2,121.6 257.4,121.7 256.8,122 256.1,122.2 255.5,122.6 254.9,123.1 254.3,123.5 253.9,124 253.6,124.6 
				253.1,125.3 253,126 252.7,126.9 252.5,127.7 252.4,128.6 252.4,129.8 252.5,130.8 252.7,132 253.1,132.7 253.7,133.6 
				254.5,134.4 255.4,135 256.4,135.4 261.9,137.6 262.3,137.8 262.6,138.1 262.9,138.4 263.1,138.8 263.4,139.1 263.5,139.4 
				263.7,139.9 263.7,140.3 263.5,141.1 263.1,141.7 262.8,142.1 262.3,142.5 261.7,142.8 260.8,143.1 260,143.1 259.1,143.1 
				258.2,142.8 257.4,142.5 256.7,142.2 256.1,141.8 255.6,141.2 255.5,140.5 255.4,139.6 255.2,138.7 251.2,138.2 251.2,139.4 
				251.2,140.2 251.3,141.2 251.5,142 251.8,142.7 252.1,143.4 252.5,144 253,144.6 253.4,145.2 254,145.7 254.6,146.1 255.4,146.4 
				256.2,146.9 257,147 257.9,147.2 258.8,147.3 259.8,147.3 260.6,147.3 261.4,147.2 262.3,147 263.1,146.9 263.7,146.4 
				264.3,146.3 265,145.7 265.6,145.2 266.1,144.6 266.5,144 266.8,143.3 267.1,142.5 267.4,141.8 267.5,140.9 267.7,140 
				267.7,138.5 267.4,137.3 267.4,136.9 267.1,136.3 266.8,135.7 266.6,135.3 266.1,134.7 265.3,134.1 264.6,133.6 263.7,133.2 
				257.9,130.8 257.4,130.8 257.1,130.5 256.8,130.2 256.7,129.9 256.5,129.5 256.4,129.2 256.2,128.9 256.2,128.3 256.5,127.7 
				256.7,127.1 257,126.6 257.4,126.3 258,125.9 258.8,125.8 259.4,125.8 260.1,125.8 261,125.8 261.9,126 262.5,126.3 262.9,126.9 
				263.4,127.4 263.7,128.1 263.7,128.9 263.8,129.8 			"/>
			<polygon class="st3" points="260.6,121.7 263.7,122.6 266.1,124.3 267.4,126.9 267.5,130.1 268.1,130.2 268,126.6 266.3,124 
				264,122 260.7,121.1 			"/>
			<polygon class="st3" points="252.7,128.6 253.4,125.5 255.1,123.2 257.4,122 260.6,121.7 260.7,121.1 257.4,121.4 254.8,122.8 
				253,125.2 252.1,128.6 			"/>
			<polygon class="st3" points="256.5,135.1 256.5,135.1 254.6,134.1 253.4,132.6 252.7,130.8 252.7,128.6 252.1,128.6 252.2,131 
				253,133 254.3,134.5 256.2,135.7 256.2,135.7 			"/>
			<polygon class="st3" points="262,137.5 256.5,135.1 256.2,135.7 261.9,137.9 			"/>
			<polygon class="st3" points="263.8,140.3 263.8,140.3 263.7,139.4 263.4,138.5 262.8,137.9 262,137.5 261.9,137.9 262.5,138.2 
				262.9,138.8 263.2,139.6 263.2,140.3 263.2,140.2 			"/>
			<polygon class="st3" points="259.1,143.3 261,143.3 262.5,142.7 263.5,141.8 263.8,140.3 263.2,140.2 262.9,141.5 262.2,142.2 
				260.8,142.7 259.1,142.7 			"/>
			<polygon class="st3" points="255.2,138.8 255.1,138.7 255.2,140.6 255.9,142 257.3,142.8 259.1,143.3 259.1,142.7 257.4,142.4 
				256.2,141.5 255.6,140.5 255.6,138.7 255.4,138.4 255.6,138.7 255.6,138.4 255.4,138.4 			"/>
			<polygon class="st3" points="251.5,138.2 251.2,138.7 255.2,138.8 255.4,138.4 251.2,138.1 250.9,138.2 251.2,138.1 250.9,138.1 
				250.9,138.2 			"/>
			<polygon class="st3" points="258.9,147 255.5,146.3 253.1,144.5 251.8,142 251.5,138.2 250.9,138.2 251.2,142 252.7,144.9 
				255.2,146.7 258.8,147.6 			"/>
			<polygon class="st3" points="267.4,140 266.5,143.3 264.9,145.5 262.2,146.9 258.9,147 258.8,147.6 262.5,147.3 265.2,145.8 
				266.9,143.4 268,140 			"/>
			<polygon class="st3" points="266.3,135.6 266.3,135.6 266.8,136.3 267.2,137.5 267.4,138.5 267.4,140 268,140 268,138.5 
				267.8,137.3 267.4,136.2 266.8,135.1 266.8,135.1 			"/>
			<polygon class="st3" points="263.5,133.5 263.5,133.3 264.3,133.9 265.2,134.4 265.8,134.8 266.3,135.6 266.8,135.1 266.2,134.5 
				265.5,133.9 264.7,133.3 263.7,132.9 263.7,132.9 			"/>
			<polygon class="st3" points="257.7,131.2 257.7,131.2 263.5,133.5 263.7,132.9 258,130.7 258,130.7 			"/>
			<polygon class="st3" points="256.1,128.3 256.1,129.3 256.4,130.2 257,130.8 257.7,131.2 258,130.7 257.4,130.2 256.8,129.8 
				256.7,129.2 256.7,128.4 			"/>
			<polygon class="st3" points="260.3,125.5 258.8,125.5 257.4,126 256.5,127.1 256.1,128.3 256.7,128.4 257,127.2 257.6,126.5 
				258.8,126 260.1,125.9 			"/>
			<polygon class="st3" points="264,129.5 264.1,129.8 264,128 263.1,126.6 261.9,125.8 260.3,125.5 260.1,125.9 261.7,126.3 
				262.8,127.1 263.4,128.1 263.7,129.8 263.8,130.1 263.7,129.8 263.7,130.1 263.8,130.1 			"/>
			<polygon class="st3" points="267.5,130.1 268,129.8 264,129.5 263.8,130.1 267.8,130.4 268.1,130.2 267.8,130.4 268.1,130.4 
				268.1,130.2 			"/>
			<polygon class="st3" points="273.6,123.7 272.4,127.8 278.5,129.5 273.3,148.9 277.3,150.1 282.5,130.5 288.5,132 289.5,127.7 
							"/>
			<polygon class="st3" points="272.6,127.7 272.9,128 273.9,123.8 273.3,123.7 272.3,127.7 272.4,128.1 272.3,127.7 272.1,128.1 
				272.4,128.1 			"/>
			<polygon class="st3" points="278.7,129.5 278.5,129.2 272.6,127.7 272.4,128.1 278.4,129.8 278.1,129.3 278.7,129.5 278.7,129.2 
				278.5,129.2 			"/>
			<polygon class="st3" points="273.5,148.8 273.6,149.1 278.7,129.5 278.1,129.3 273,148.8 273.3,149.4 273,148.8 273,149.2 
				273.3,149.4 			"/>
			<polygon class="st3" points="277.2,150 277.5,149.8 273.5,148.8 273.3,149.4 277.3,150.3 277.8,150.1 277.3,150.3 277.6,150.4 
				277.8,150.1 			"/>
			<polygon class="st3" points="282.7,130.2 282.3,130.4 277.2,150 277.8,150.1 282.8,130.7 282.4,130.8 282.7,130.2 282.4,130.2 
				282.3,130.4 			"/>
			<polygon class="st3" points="288,132 288.6,131.7 282.7,130.2 282.4,130.8 288.3,132.3 288.6,132 288.3,132.3 288.6,132.4 
				288.6,132 			"/>
			<polygon class="st3" points="289.4,128.1 289.2,127.7 288,132 288.6,132 289.8,127.8 289.5,127.5 289.8,127.8 289.8,127.7 
				289.5,127.5 			"/>
			<polygon class="st3" points="273.9,123.8 273.6,124 289.4,128.1 289.5,127.5 273.6,123.4 273.3,123.7 273.6,123.4 273.5,123.2 
				273.3,123.7 			"/>
			<polygon class="st3" points="296.7,156.5 296.7,157.6 300.7,159.3 304.4,134.1 299.9,132 296.7,135.7 296.7,142 299.8,138.1 
				298.2,148 296.7,147.3 296.7,151.9 297.4,152.4 			"/>
			<polygon class="st3" points="296.7,142 296.7,135.7 283.3,151.5 287.3,153.2 290.6,149.4 296.7,151.9 296.7,147.3 293.5,145.8 
							"/>
			<polygon class="st3" points="296.7,157.6 296.7,156.5 296.5,157.6 			"/>
			<polygon class="st3" points="283.4,151.3 283.4,151.6 300.2,132.1 299.8,131.8 283,151.3 283.1,151.8 283,151.3 282.8,151.6 
				283.1,151.8 			"/>
			<polygon class="st3" points="287.2,153.2 287.5,153.1 283.4,151.3 283.1,151.8 287.3,153.5 287.5,153.4 287.3,153.5 287.3,153.7 
				287.5,153.4 			"/>
			<polygon class="st3" points="290.7,148.9 290.4,149.1 287.2,153.2 287.5,153.4 290.9,149.4 290.4,149.5 290.7,148.9 290.6,148.8 
				290.4,149.1 			"/>
			<polygon class="st3" points="297.7,152.5 297.6,152.1 290.7,148.9 290.4,149.5 297.3,152.5 297.1,152.4 297.7,152.5 297.7,152.2 
				297.6,152.1 			"/>
			<polygon class="st3" points="296.7,157.1 296.8,157.6 297.7,152.5 297.1,152.4 296.2,157.4 296.4,157.7 296.2,157.4 296.1,157.6 
				296.4,157.7 			"/>
			<polygon class="st3" points="300.4,159.3 300.8,159.2 296.7,157.1 296.4,157.7 300.5,159.6 301.1,159.3 300.5,159.6 301,159.8 
				301.1,159.3 			"/>
			<polygon class="st3" points="304.2,134.4 304.1,133.9 300.4,159.3 301.1,159.3 304.8,134.1 304.5,133.9 304.8,134.1 304.8,133.9 
				304.5,133.9 			"/>
			<polygon class="st3" points="300.2,132.1 299.8,132.3 304.2,134.4 304.5,133.9 300.1,131.8 299.8,131.8 300.1,131.8 299.8,131.7 
				299.8,131.8 			"/>
			<polygon class="st3" points="298,148.2 298.5,148 300.2,138.1 299.6,138.1 297.9,147.9 298.3,147.6 298,148.2 298.3,148.3 
				298.5,148 			"/>
			<polygon class="st3" points="293.2,145.7 293.4,146.1 298,148.2 298.3,147.6 293.5,145.7 293.7,146 293.2,145.7 293,146 
				293.4,146.1 			"/>
			<polygon class="st3" points="300.2,138.1 299.8,137.9 293.2,145.7 293.7,146 300.1,138.2 299.6,138.1 300.2,138.1 300.4,137 
				299.8,137.9 			"/>
			<polygon class="st3" points="314.4,139.1 312,142.7 317,146.3 305.6,162.9 309.2,165.3 320.4,148.5 325.5,151.9 327.9,148.3 			
				"/>
			<polygon class="st3" points="312.1,142.5 312.3,142.8 314.7,139.3 314.1,138.8 311.7,142.5 311.7,143 311.7,142.5 311.5,142.7 
				311.7,143 			"/>
			<polygon class="st3" points="317.2,146.3 317.2,145.8 312.1,142.5 311.7,143 316.7,146.3 316.7,146 317.2,146.3 317.3,146.1 
				317.2,145.8 			"/>
			<polygon class="st3" points="305.7,162.6 305.9,163.1 317.2,146.3 316.7,146 305.3,162.6 305.4,163.2 305.3,162.6 305.1,162.9 
				305.4,163.2 			"/>
			<polygon class="st3" points="308.9,165 309.2,165 305.7,162.6 305.4,163.2 309,165.6 309.3,165.4 309,165.6 309.2,165.6 
				309.3,165.4 			"/>
			<polygon class="st3" points="320.6,148.2 320.3,148.3 308.9,165 309.3,165.4 320.7,148.8 320.3,148.8 320.6,148.2 320.3,148.2 
				320.3,148.3 			"/>
			<polygon class="st3" points="325.2,151.8 325.6,151.8 320.6,148.2 320.3,148.8 325.4,152.2 325.8,152.1 325.4,152.2 325.5,152.4 
				325.8,152.1 			"/>
			<polygon class="st3" points="327.9,148.6 327.7,148.2 325.2,151.8 325.8,152.1 328.2,148.5 328,148.2 328.2,148.5 328.3,148.2 
				328,148.2 			"/>
			<polygon class="st3" points="314.7,139.3 314.2,139.4 327.9,148.6 328,148.2 314.5,138.8 314.1,138.8 314.5,138.8 314.2,138.8 
				314.1,138.8 			"/>
			<polygon class="st3" points="332.2,151.9 315.2,169.6 326.2,180.3 329.2,177 321.2,169.3 325.6,164.7 332.8,171.5 335.8,168.4 
				328.6,161.6 332.2,157.9 339.9,165.3 342.9,162.2 			"/>
			<polygon class="st3" points="315.4,169.4 315.4,169.9 332.3,152.1 332,151.8 314.9,169.4 314.9,169.9 314.9,169.4 314.8,169.6 
				314.9,169.9 			"/>
			<polygon class="st3" points="326.1,180 326.5,180 315.4,169.4 314.9,169.9 326.1,180.4 326.5,180.4 326.1,180.4 326.2,180.6 
				326.5,180.4 			"/>
			<polygon class="st3" points="329.1,177.3 329.1,176.9 326.1,180 326.5,180.4 329.5,177.3 329.5,176.9 329.5,177.3 329.7,177 
				329.5,176.9 			"/>
			<polygon class="st3" points="321,169.1 321,169.6 329.1,177.3 329.5,176.9 321.5,169.1 321.5,169.6 321,169.1 320.7,169.3 
				321,169.6 			"/>
			<polygon class="st3" points="325.8,164.5 325.4,164.5 321,169.1 321.5,169.6 325.8,165 325.4,165 325.8,164.5 325.6,164.4 
				325.4,164.5 			"/>
			<polygon class="st3" points="332.5,171.4 332.8,171.4 325.8,164.5 325.4,165 332.5,171.8 332.8,171.8 332.5,171.8 332.8,172 
				332.8,171.8 			"/>
			<polygon class="st3" points="335.5,168.7 335.5,168.3 332.5,171.4 332.8,171.8 335.9,168.7 335.9,168.3 335.9,168.7 336.1,168.4 
				335.9,168.3 			"/>
			<polygon class="st3" points="328.5,161.4 328.5,161.9 335.5,168.7 335.9,168.3 328.8,161.4 328.8,161.9 328.5,161.4 328.2,161.6 
				328.5,161.9 			"/>
			<polygon class="st3" points="332.3,157.7 332,157.7 328.5,161.4 328.8,161.9 332.3,158.2 332,158.2 332.3,157.7 332.2,157.6 
				332,157.7 			"/>
			<polygon class="st3" points="339.6,165 340.1,165 332.3,157.7 332,158.2 339.6,165.6 340.1,165.6 339.6,165.6 339.9,165.6 
				340.1,165.6 			"/>
			<polygon class="st3" points="342.7,162.3 342.7,161.9 339.6,165 340.1,165.6 343,162.3 343,161.9 343,162.3 343.3,162.2 
				343,161.9 			"/>
			<polygon class="st3" points="332.3,152.1 332,152.1 342.7,162.3 343,161.9 332.3,151.8 332,151.8 332.3,151.8 332.2,151.5 
				332,151.8 			"/>
			<polygon class="st3" points="350.6,183.7 351.4,183.1 352,182.5 352.4,181.9 352.8,181.3 353.3,180.6 353.4,180 353.7,179.4 
				353.9,178.5 354,177.9 354,177.2 353.9,176.3 353.7,175.5 353.4,174.9 353.1,174.2 352.7,173.3 352.1,172.6 351.7,172 
				351.1,171.4 350.5,170.8 349.9,170.3 349.1,170 348.5,169.7 347.8,169.4 347.2,169.3 346.5,169.3 345.9,169.3 345.1,169.4 
				344.4,169.6 343.6,169.9 342.9,170.2 342.1,170.6 341.4,171.2 340.4,171.8 339.6,172.7 339,173.6 338.7,174.5 338.4,175.5 
				338.4,176.6 338.6,177.6 339,178.7 341,184.3 341,184.8 341.1,185.1 341.1,185.5 341,185.9 341,186.4 340.7,186.8 340.4,187 
				340.1,187.3 339.5,187.7 338.9,188 338.3,188 337.5,187.9 336.9,187.6 336.4,187.1 335.6,186.5 335,185.8 334.6,184.9 
				334.1,184.3 334.1,183.6 334.1,182.7 334.1,182.1 334.6,181.3 335,180.6 335.8,180 333.4,176.7 332.5,177.5 331.9,178.1 
				331.3,178.7 330.9,179.4 330.4,180.1 330.1,180.7 329.8,181.5 329.7,182.2 329.7,183 329.7,183.7 329.7,184.5 330,185.3 
				330.3,186.1 330.7,186.8 331.1,187.6 331.6,188.5 332.2,189.2 332.8,189.8 333.5,190.4 334.1,190.8 334.9,191.1 335.5,191.6 
				336.2,191.7 336.9,192 337.8,192 338.4,192 339.2,191.9 339.9,191.7 340.8,191.4 341.6,191.1 342.1,190.6 343,190.1 344.1,189.2 
				344.5,188.8 344.8,188.3 345.3,187.9 345.4,187.4 345.7,186.8 345.9,186.2 345.9,185.3 345.9,184.5 345.7,183.6 345.4,182.5 
				343.3,176.9 343.2,176.4 343.2,176 343.2,175.5 343.2,175.2 343.3,174.9 343.6,174.5 343.9,174.4 344.2,173.9 344.7,173.6 
				345.3,173.5 345.9,173.3 346.5,173.5 347.2,173.8 347.8,174.1 348.2,174.5 348.7,175.1 349.1,175.8 349.6,176.6 349.6,177.3 
				349.6,177.9 349.6,178.5 349.1,179.3 348.8,179.8 348.2,180.6 			"/>
			<polygon class="st3" points="352,172.9 353.4,175.7 353.6,178.5 352.7,181.2 350.3,183.6 350.8,184 353.1,181.5 354.2,178.7 
				354,175.5 352.4,172.4 			"/>
			<polygon class="st3" points="341.6,171.4 344.5,169.9 347.2,169.6 349.6,170.6 352,172.9 352.4,172.4 350,170 347.2,169 
				344.2,169.3 341.3,170.9 			"/>
			<polygon class="st3" points="339.2,178.7 338.7,176.6 339,174.6 339.9,173 341.6,171.4 341.3,170.9 339.6,172.6 338.4,174.5 
				338.3,176.6 338.6,178.8 			"/>
			<polygon class="st3" points="341.3,184.3 339.2,178.7 338.6,178.8 340.7,184.3 			"/>
			<polygon class="st3" points="340.2,187.6 341,186.8 341.3,186.1 341.4,185.1 341.3,184.3 340.7,184.3 340.8,185.1 340.8,185.9 
				340.4,186.5 339.9,187 			"/>
			<polygon class="st3" points="334.7,185.9 336.1,187.4 337.5,188 338.9,188.2 340.2,187.6 339.9,187 338.7,187.6 337.7,187.6 
				336.5,186.8 335.3,185.5 			"/>
			<polygon class="st3" points="335.5,180.1 335.6,179.8 334.3,181.2 333.7,182.7 333.8,184.3 334.7,185.9 335.3,185.5 334.4,184.2 
				334.3,182.7 334.7,181.5 335.9,180.3 335.9,179.8 335.9,180.3 336.2,180 335.9,179.8 			"/>
			<polygon class="st3" points="333.4,176.9 333.1,176.9 335.5,180.1 335.9,179.8 333.5,176.6 333.2,176.6 333.5,176.6 333.4,176.3 
				333.2,176.6 			"/>
			<polygon class="st3" points="331.9,188.2 330.3,185.2 330,182.4 331,179.6 333.4,176.9 333.2,176.6 330.6,179.3 329.4,182.2 
				329.7,185.3 331.4,188.6 			"/>
			<polygon class="st3" points="342.7,190 339.9,191.4 337.1,191.7 334.3,190.6 331.9,188.2 331.4,188.6 334,191.1 336.9,192.3 
				340.1,192 343.2,190.4 			"/>
			<polygon class="st3" points="345.4,186.2 345.3,187.3 344.7,188.2 343.9,189.1 342.7,190 343.2,190.4 344.4,189.5 345.3,188.5 
				345.7,187.4 346,186.2 			"/>
			<polygon class="st3" points="345.3,182.7 345.4,183.7 345.6,184.5 345.6,185.3 345.4,186.2 346,186.2 346.2,185.3 346.2,184.5 
				346,183.6 345.7,182.5 			"/>
			<polygon class="st3" points="343,176.9 345.3,182.7 345.7,182.5 343.6,176.7 			"/>
			<polygon class="st3" points="344.1,173.8 343.3,174.4 342.9,175.1 342.7,176 343,176.9 343.6,176.7 343.3,176 343.5,175.4 
				343.9,174.8 344.4,174.2 			"/>
			<polygon class="st3" points="349,174.9 347.8,173.8 346.5,173.2 345.3,173.2 344.1,173.8 344.4,174.2 345.3,173.8 346.5,173.8 
				347.5,174.4 348.4,175.2 			"/>
			<polygon class="st3" points="348.4,180.4 348.4,180.7 349.4,179.4 350,177.9 349.7,176.4 349,174.9 348.4,175.2 349.1,176.6 
				349.4,177.9 349,179.1 347.9,180.3 347.8,180.6 347.9,180.3 347.8,180.6 347.8,180.6 			"/>
			<polygon class="st3" points="350.3,183.6 350.9,183.7 348.4,180.4 347.8,180.6 350.3,183.9 350.8,184 350.3,183.9 350.5,184.2 
				350.8,184 			"/>
			<polygon class="st3" points="291,228 299.6,240 296.1,252.1 296.1,299 288.9,302.9 288.9,257.6 288.8,256.8 288.6,256.2 
				288.5,255.5 288,254.6 287.8,254.3 287.3,254 287,253.9 286.6,253.6 286,253.4 285.4,253.4 284.6,253.4 284.2,253.6 283.6,253.9 
				283.1,254 282.8,254.3 282.4,254.6 282.1,255.4 281.8,255.9 281.7,256.7 281.5,257.6 281.5,306 275.4,308.3 275.3,259.1 
				275.3,258.5 275.1,257.7 275,257 274.8,256.5 274.7,256.2 274.2,255.8 273.9,255.5 273.6,255.4 273,255.1 272.4,254.9 
				271.7,254.8 271.1,254.9 270.5,254.9 270.2,255.2 269.8,255.4 269.3,255.6 269.2,255.9 268.6,256.5 268.3,257.1 268,257.9 
				268,258.5 268,258.9 268,310.6 261.9,312.4 261.9,259.4 261.9,258.8 261.7,258 261.4,257.3 261.1,257 261,256.5 260.7,256.2 
				260.4,255.9 260,255.5 259.4,255.4 258.8,255.2 258,255.2 257.4,255.2 256.8,255.4 256.4,255.5 255.9,255.8 255.6,255.9 
				255.4,256.5 254.9,257.1 254.5,257.9 254.3,258.6 254.3,259.4 254.5,313.9 247.5,313.9 247.5,259.4 247.5,258.6 247.3,258 
				247,257.3 246.6,256.5 246.3,256.2 246,255.9 245.5,255.6 244.9,255.4 244.5,255.4 243.8,255.4 243.2,255.4 242.6,255.4 
				242.1,255.6 241.7,255.9 241.2,256.1 241.1,256.5 240.8,256.8 240.6,257.1 240.3,258 240,258.6 240,259.5 240.2,313.2 
				233.2,310.6 233.2,259.1 233.1,258.5 232.9,257.7 232.6,257.1 232.2,256.4 232,255.9 231.6,255.6 231.3,255.4 230.7,255.2 
				230.1,255.1 229.5,255.1 228.9,255.1 228.4,255.2 228,255.4 227.6,255.5 227.1,255.8 227,255.9 226.4,256.7 226.1,257.3 
				225.8,258 225.8,258.6 225.8,259.2 225.8,308.3 219.1,306.3 218.9,258.2 218.9,257.6 218.8,256.8 218.5,256.1 218.2,255.4 
				217.7,255.1 217.6,254.6 217.2,254.5 216.7,254.2 216.1,254 215.7,254 214.6,254 213.9,254.3 213.1,254.8 212.7,255.4 
				212.1,255.9 211.8,256.5 211.7,257.3 211.5,258.2 211.5,302.9 204.7,298.9 204.5,252.1 202,240 211.4,228.4 225.9,230.1 
				278.8,229.2 			"/>
			<polygon class="st3" points="235.6,172.9 235.4,172.6 235.1,171.8 235,170.8 235,170.2 235,169.4 235.1,168.7 235.6,168.1 
				235.9,167.5 236.5,166.9 237.2,166.3 238.1,165.6 239.3,165.3 240.6,165 242.9,165 243,164.4 243.2,163.8 243.5,163.1 
				243.8,162.6 243.9,162.3 244.4,162 244.8,161.9 245.2,161.4 245.8,161.3 246.4,161.3 247.2,161.3 255.6,161.3 256.2,161.3 
				257,161.6 257.7,162 258,162.5 258.5,162.8 258.8,163.2 259.1,163.8 259.4,164.4 259.5,165 259.7,165.7 259.8,166.6 259.8,179.1 
				259.7,179.4 259.4,180.1 258.9,180.9 258.8,181.3 258.3,181.8 258,181.9 257.7,182.2 257.3,182.4 256.8,182.4 256.4,182.4 
				256.1,182.4 255.8,182.1 255.5,181.8 255.1,181.6 254.6,181.2 254,180.6 253.6,180.3 252.8,180 252.1,179.6 251.6,179.6 
				251.2,179.6 250.7,179.7 250.4,179.8 250,180.1 249.9,180.6 249.4,180.7 248.1,181.2 247.5,181.3 246.9,181.5 246.1,181.3 
				245.8,181.2 245.5,181.2 243.2,179.4 243.9,178.5 244.5,177.6 245.1,176.6 245.7,175.5 245.8,174.9 246,174.5 246,174.1 
				245.8,173.8 245.7,173.3 245.2,173.2 244.9,172.9 244.6,172.4 244.2,172 243.8,171.8 243.2,171.4 242.3,171.4 242,171.4 
				241.5,171.4 240.3,171.2 239.4,171.2 238.3,171.2 			"/>
			<polygon class="st3" points="251.2,216.6 239.4,199.8 239.3,199.3 238.7,198.7 238.3,198.1 237.8,197.5 237.5,196.8 237.2,195.9 
				236.9,194.9 236.8,193.8 236.8,192.6 236.9,191.3 237.2,190 237.7,188.5 238.6,186.8 239.4,185.1 239.6,184.9 239.9,184.3 
				240.3,183.7 240.6,183.3 241.1,183.1 241.4,182.8 242,182.5 242.4,182.5 243,182.5 243.6,182.8 244.4,183.1 244.9,183.7 
				245.8,184.6 246.3,184.5 247.5,184.3 248.1,183.9 249,183.7 249.7,183.1 250.3,182.5 250.6,182.4 250.9,182.4 251.2,182.2 
				251.6,182.2 252.1,182.4 252.5,182.5 253.1,183.1 253.6,183.6 254.2,183.7 254.9,184 255.4,184.2 255.8,184.2 256.2,184.2 
				256.8,184.2 257.4,183.9 258,183.7 258.8,183.3 259.4,182.8 259.8,182.5 260.3,182.2 260.8,181.9 261.7,181.6 262.8,181.3 
				264.1,181.3 265.6,181.5 266.6,181.6 267.5,181.6 268,181.5 268.6,181.5 269,181.2 269.3,181 269.6,180.6 269.8,180.3 
				269.9,179.7 269.8,179 269.3,178.1 268.9,177.2 268.6,176.9 267.8,176.3 267.4,175.7 266.9,175.1 266.6,174.5 266.3,173.8 
				266.2,173.2 266.2,172.4 266.3,172 266.6,171.7 266.8,171.4 267.1,170.9 267.5,170.6 268,170.3 268.6,170 269.3,169.7 
				270.8,169.1 272.9,168.6 273,168.4 273.2,168.1 273.6,168 274.1,167.7 274.7,167.5 275.6,167.2 276.5,167.1 277.6,166.9 
				279,166.9 280.6,167.2 282.4,167.5 284.6,168.1 286.9,168.7 289.5,169.7 292.5,170.9 292.8,170.9 293.5,171.2 294.9,171.8 
				295.8,172.4 296.8,173.2 298.2,174.1 299.6,175.2 301.3,176.7 303.2,178.4 305.4,180.6 307.7,183 310.3,185.6 313,188.8 
				333.5,216.7 334.1,217.6 334.6,218.5 334.9,219.2 334.9,219.7 334.9,219.8 334.7,220.1 334.4,220.1 334.1,220.1 333.4,219.8 
				332.6,219.4 331.6,218.8 330,217.3 328.5,216 327.6,215.2 326.8,214.8 326.2,214.3 325.8,214.2 325.5,214.2 325.4,214.2 
				325.4,214.5 325.4,214.8 325.5,215.4 325.9,216.7 326.8,218.3 328.2,220.4 329.1,221.8 330,223.2 331,225 331.6,226.1 332,227 
				332.3,228 332.8,229.2 332.9,230.2 333.2,231.3 333.2,232.3 332.9,233.4 332.8,234.1 332.6,234.8 332.2,235.4 332.2,235.7 
				331.9,235.9 331.6,235.9 331.4,235.7 331,235.4 330.7,235 330.3,234.2 329.8,233.4 329.1,232.2 328,231 327.1,229.8 326.5,229.2 
				326.2,228.9 325.9,228.6 325.6,228.6 325.5,228.6 325.5,228.7 325.5,229.2 325.6,229.9 325.9,231 325.8,231.7 325.5,232.3 
				325.2,232.8 325.1,232.9 324.8,232.9 324.6,232.9 324.2,232.9 323.9,232.6 323.4,232.2 323,231.6 322.5,230.8 286.6,174.4 
				286.6,174.1 286.3,173.6 286,172.9 285.7,172.4 285.4,172.1 284.9,171.8 284.3,171.4 283.6,171.2 283,171.1 282,170.9 
				281.1,170.9 279.9,171.2 278.5,171.4 278.4,171.5 278.1,171.7 277.8,171.8 277.3,172.3 277,172.7 276.8,173.5 276.6,174.4 
				276.5,174.8 276.2,176.1 275.6,178.1 275,179.4 274.2,180.7 273.6,182.2 272.6,183.7 271.4,185.5 270.1,187 268.7,188.6 
				266.9,190.4 265,192 262.9,193.7 262.3,194 261.9,194.3 261.7,194.4 261.4,194.7 261.3,195 261.1,195.5 261.1,195.9 261.1,196.5 
				261.3,197.1 261.6,197.7 262,198.6 262.5,199.3 262.8,199.9 263.1,200.5 263.5,201.1 264.3,201.7 265,202.4 266.2,203.3 
				266.9,203.6 267.7,203.9 267.8,203.8 268,203.6 268.4,203.6 268.7,203.6 268.9,203.6 269.2,203.8 269.5,203.9 269.9,204.2 
				270.2,204.8 270.5,205.4 271.1,206.2 271.6,207 272,208.2 272.4,209.1 273,209.9 273.5,210.2 273.9,210.5 274.4,210.8 275,211.1 
				275.6,211.2 276.2,211.2 276.8,211.1 277.3,210.9 278.1,210.5 278.8,209.9 294.9,198.7 295.3,198.1 295.8,197.7 296.1,197.4 
				296.4,197.4 296.7,197.2 297.3,197.2 297.6,197.4 298,197.4 298.6,198 299,198.6 299.3,199.3 299.9,200.2 309.6,216 309.9,216.3 
				310,216.7 310,217.2 309.9,217.3 309.7,217.6 309.6,217.7 309.2,217.9 308.9,218 308.3,218.3 307.7,218.5 306.8,218.5 
				306.5,218.5 305.3,218 303.4,217.9 300.5,217.7 298.9,217.7 297,217.7 294.9,217.9 292.5,217.9 290,218.3 287.3,218.6 
				284.3,219.2 281.1,219.8 280.8,220.1 280.5,220.1 279.9,220.1 279.3,219.8 278.7,219.4 278.1,219.1 277.8,218.5 277.3,218 
				276.8,217.3 276.5,216.7 275.3,214.8 273.5,212.4 272.3,210.9 271,209.4 269.6,207.9 268,206.6 266.5,205.4 265.6,204.8 
				264.9,204.2 264,203.8 263.1,203.3 262.2,203 261.1,202.7 260.3,202.6 259.4,202.4 258.5,202.4 257.4,202.4 257.1,202.4 
				256.2,202.7 255.8,202.9 255.2,203 254.5,203.5 253.9,203.8 253.3,204.2 252.8,205 252.2,205.9 251.9,206.8 251.6,207.9 
				251.5,209.4 251.5,211.1 251.8,212.8 			"/>
			<polygon class="st3" points="263.7,196 264.3,195.5 265.9,194.3 268,192.2 269.3,191 270.7,189.5 272.1,188 273.5,186.4 
				274.7,184.8 275.9,183 276.9,181.2 277.8,179.3 278.1,178.4 278.4,177.5 278.7,176.3 278.8,175.4 279,175.2 279.3,174.8 
				279.9,174.2 280,173.9 280.5,173.8 280.9,173.5 281.4,173.3 281.8,173.3 282.4,173.5 283,173.8 283.6,174.4 284.3,174.9 
				285.1,175.7 286.7,178.8 287.2,179.1 287.3,179.4 287.6,180 287.8,180.6 287.8,181.2 287.8,181.6 287.6,182.1 287.3,182.5 
				287.2,183.1 278.1,191.7 271.7,197.7 269.3,199.9 268.3,200.8 268.1,200.8 268,200.8 267.5,200.8 267.1,200.5 266.3,199.9 
				265.6,199.2 264.7,197.8 			"/>
			<polygon class="st3" points="272.3,200.5 288.6,185.6 288.6,185.2 288.8,184.8 289.2,184.5 289.2,184.3 289.5,184.3 289.8,184.3 
				290,184.5 290.4,184.9 290.7,185.2 291.2,185.8 291.8,186.5 294.1,191.4 294.4,191.7 294.6,192.2 294.7,192.8 294.9,193.2 
				294.7,194 294.4,194.6 294.1,194.9 294,195.2 279.3,206.8 278.8,207.2 278.1,207.5 277.3,207.8 276.8,207.9 276.2,207.9 
				275.9,207.9 275.6,207.9 275.3,207.8 275,207.3 274.8,207 274.1,206.3 273.3,205.4 272.6,204.5 272.3,204.1 271.8,203.5 
				271.7,203 271.6,202.4 271.6,201.8 271.7,201.4 271.8,201 			"/>
			<polygon class="st3" points="225.6,180.3 225.8,180.9 226.4,181.6 227,182.4 227.9,183.1 228.4,183.4 229,183.7 229.6,183.9 
				230.4,184.2 231.3,184.3 232,184.3 232.6,184.3 233.5,184.3 234.2,184.2 235,184 235.7,183.7 236.6,183.4 236.3,184 235.7,185.6 
				235.6,186.7 235.1,187.6 235,188.6 235,189.4 234.5,189.7 234.2,190 233.7,190.1 233.1,190.3 232.6,190.3 232.3,190.1 232,190 
				231.4,189.8 231.1,189.5 230.7,189.1 225.9,185.6 222.5,183 221.2,181.8 220.4,181.2 219.8,180.9 219.2,180.6 219.1,180.3 
				218.9,180 218.8,179.7 218.6,179.4 218.6,179 218.8,178.7 218.9,178.1 219.4,177.6 220,177.2 220.7,176.6 220.7,176.3 221,175.2 
				221.2,174.1 221.2,173.3 221,172.7 220.7,172.1 220.4,171.5 220.1,171.2 219.7,170.9 219.4,170.8 218.9,170.6 218.5,170.6 
				217.6,170.6 216.3,170.9 214.6,171.4 213.9,172 212,173.6 210.3,174.8 208.7,176.3 206.9,177.9 204.8,179.8 202.7,181.9 
				200.4,184.3 198.1,187 195.9,190 193.5,193.1 192.3,194.9 191.3,196.5 190.3,198.3 189.1,200.1 188,202 187.1,203.9 186.5,204.8 
				185.9,205.4 185.5,205.9 185.2,206.2 184.6,206.5 184.2,206.6 183.6,206.8 183,206.8 182.5,206.6 181.8,206.3 181.2,205.9 
				180.4,205.1 180.3,205.4 179.6,206.6 178.4,207.9 177.6,208.5 176.9,209.4 176,210.2 175.2,210.8 174.2,211.2 173.5,211.7 
				172.4,212 172,212 171.5,212 170.9,212 170.5,211.8 170.2,211.7 169.6,211.4 174.4,205.9 179.6,200.1 185.6,193.2 192.3,186.1 
				195.8,182.5 198.9,179.3 202,176.3 205.1,173.6 206.3,172.4 207.6,171.4 208.8,170.5 209.9,169.7 210.2,169.4 210.8,169 
				212.1,168.4 212.8,168.1 213.9,167.7 214.9,167.5 216.1,167.2 217.3,166.9 218.8,166.9 220.3,166.9 221.9,167.2 223.7,167.5 
				225.6,168.1 225.8,168.1 226.4,168.6 226.8,168.9 227.1,169.3 227.6,169.7 227.7,170.2 228,170.8 228.2,171.4 228.2,172.1 
				228,173 227.6,173.8 227,174.8 226.4,175.7 225.2,176.9 225,177.2 224.6,177.5 224.4,177.9 224.4,178.4 224.4,178.7 224.4,179 
				224.4,179.4 224.7,179.7 225,180 			"/>
			<polygon class="st3" points="236.2,199.8 235.6,199.8 234.1,199.5 233.1,199.3 231.6,199.2 230.1,198.6 228.2,198.1 226.2,197.4 
				223.8,196.5 221.3,195.5 218.8,194.1 215.8,192.3 212.7,190.6 209.4,188.2 205.9,185.6 205.6,185.5 205.1,185.2 205.1,184.9 
				205,184.6 205,184.3 205,184 205.1,183.7 205.3,183.3 205.7,183 206.2,182.4 206.8,181.9 213.3,175.4 214.2,175.1 215.1,174.9 
				215.7,174.8 216,174.8 216.4,174.9 216.9,174.9 217,175.2 217.3,175.7 217.3,176.3 217.2,176.9 217,177.8 216.4,178.8 216,179.3 
				215.8,179.6 215.4,180 215.1,180.6 215.1,180.9 215.1,181.2 215.2,181.6 215.5,181.9 215.8,182.2 216.1,182.5 217.6,183.7 
				219.1,185.1 221,186.7 223.2,188.2 225.8,190 227.1,190.6 228.4,191.3 229.6,192 231,192.5 231.1,192.5 231.6,192.5 232.2,192.6 
				232.6,192.8 233.1,193.1 233.4,193.4 233.8,193.7 234.2,194.3 234.7,195 235,195.9 235.4,196.9 235.7,198.3 			"/>
			<polygon class="st3" points="194,198.7 194.6,197.7 196.5,194.9 197.8,193.1 199.5,191.1 201.1,189.1 203,187.1 203.8,187.9 
				205.9,189.5 207.5,190.7 209.4,192 211.4,193.5 213.7,194.9 216.3,196.3 218.9,197.8 221.8,199.2 223.2,199.8 224.6,200.2 
				226.2,200.8 227.7,201.1 229.3,201.7 230.8,202 232.5,202.3 233.9,202.4 235.7,202.4 237.2,202.4 239.4,206 238.3,205.4 
				236.9,205 235.4,204.8 234.5,204.7 233.7,204.5 232.9,204.5 232,204.7 231.3,204.8 230.7,205.1 230.1,205.6 229.5,206.2 
				229,206.5 228.9,206.8 228.3,207.2 228.2,207.9 228,208.2 227.9,208.7 227.9,209.3 227.9,209.9 228,210.5 228.2,211.4 
				224.1,210.3 220,209 214.8,207.3 209,205.4 203.5,203.3 200.8,202.3 198.3,201.1 195.9,199.9 			"/>
			<polygon class="st3" points="192.8,201.1 193.4,201.4 194.9,202.4 197.5,203.6 199.2,204.5 201.3,205.4 203.5,206.3 206.2,207.3 
				209,208.4 212.1,209.4 215.5,210.5 219.2,211.5 223.2,212.4 227.6,213.4 227.6,213.9 227.7,215.2 228.2,217.5 228.4,218.9 
				228.9,220.4 229,220.9 228.9,221.2 228.9,221.6 228.7,221.8 228.6,221.9 228.3,222.1 228,222.2 227.6,222.4 227.1,222.4 
				226.5,222.4 225.8,222.2 195,219.8 194.1,221 193.2,222.4 192,223.5 191.3,224.1 190.4,224.7 189.7,225.5 188.8,226.1 
				187.9,226.4 187,226.7 185.9,226.7 185.1,226.7 184.6,226.7 184.2,226.5 183.7,226.4 183.4,226.4 183.1,226.5 182.8,226.7 
				182.7,226.8 182.4,227.3 182.1,227.7 182.1,228.2 181.9,228.7 181.5,229.2 181,229.8 180.4,230.2 179.7,231 178.5,231.6 
				177.2,232.3 175.5,233.1 175.2,232.9 174.9,232.9 174.5,232.9 174.2,232.9 174.1,233.1 173.9,233.4 173.6,233.7 173.5,234.1 
				173.5,234.5 173.5,235.1 173.5,235.9 173.5,236 173.3,236.6 173.2,236.9 173,237.2 172.9,237.5 172.3,238 172,238.3 171.4,238.6 
				170.5,238.9 169.6,239.2 168.4,239.3 167.2,239.4 165.7,239.4 163.9,239.3 169,231 169.4,230.4 169.7,229.8 169.7,229.3 
				169.7,229 169.7,228.6 169.6,228.3 169.3,228 169,227.9 168.4,227.7 167.8,227.7 166.9,227.7 165.9,227.9 169.6,220.4 169.6,220 
				169.6,219.4 169.6,218.8 169.7,217.9 170.3,217 170.5,216.6 170.9,216.1 171.4,215.5 172,215.1 172,215.1 172.1,215.1 
				172.7,214.9 173.5,214.6 174.5,213.9 175.8,212.7 177.8,210.9 179.8,208.5 180.6,208.8 181.3,209.1 182.2,209.3 182.8,209.3 
				183.4,209.3 184,209 184.6,208.7 185.2,208.4 185.9,207.9 186.5,207.3 187.1,206.6 187.7,205.6 188.3,204.7 189.2,203.6 
				190.3,202.6 191.1,201.7 191.6,201.4 192,201.1 192.3,201.1 			"/>
			<polygon class="st3" points="226.4,229.8 226.7,229.8 227.6,229.2 228,228.6 228.4,228 229,227.3 229.5,226.7 230.1,225.8 
				230.5,224.7 230.8,223.7 231.1,222.5 231.3,221.3 231.1,220 230.8,218.5 230.4,217.2 230.2,216.7 230.1,215.4 229.9,213.9 
				229.9,213 229.9,212 230.1,211.1 230.2,210.3 230.7,209.4 231.1,208.7 231.3,208.5 231.7,208.2 232,207.9 232.6,207.9 
				233.1,207.8 233.5,207.6 234.1,207.6 234.7,207.6 234.8,207.5 235.3,207.3 236.2,207.2 236.6,207.2 237.2,207.2 237.8,207.3 
				238.4,207.3 239.2,207.8 240,208.1 240.8,208.7 241.7,209.4 242.6,210.3 243.5,211.4 244.4,212.7 245.4,214.2 246.6,216.1 
				247.9,218.5 249.1,221 250.3,223.7 250.9,225 251.5,226.5 251.6,227.3 251.9,227.9 252.2,228.4 252.5,228.7 252.7,228.9 
				253,228.7 253.1,228.6 253.3,228.3 253.6,227.9 253.7,227 254,225.9 253.7,223.5 253.6,221.2 253.4,218.3 253.4,215.4 
				253.6,213.9 253.7,212.5 253.9,211.4 254.2,210.3 254.3,209.4 254.6,209.1 254.9,208.7 254.9,208.5 255.2,207.8 255.4,207.3 
				255.6,206.8 256.1,206.5 256.5,206.2 257,205.7 257.7,205.4 258.6,205.4 259.5,205.6 260.7,206.2 261.9,206.8 263.5,207.6 
				265.2,208.7 265.5,209.1 266.2,209.7 267.5,210.8 269.2,212.4 269.9,213.1 270.8,214.2 271.7,215.4 272.6,216.7 273.5,218 
				274.2,219.7 275,221.3 275.7,223.1 275.9,223.5 276,224.1 276.2,224.7 276.8,225.3 277.2,226.1 277.8,226.7 278.5,227.1 
				278.7,227.3 279.4,227.9 279.9,228.2 280.5,228.4 281.4,228.7 282.3,229.2 279.6,229.9 276.5,231 272.7,232.2 268.6,233.4 
				264.1,234.4 261.9,235 259.8,235.4 257.6,235.7 255.6,235.9 225.8,232.8 			"/>
			<polygon class="st3" points="187.6,235.4 187.3,235.4 186.5,235.7 185.3,236.2 184,236.9 183.1,237.5 182.4,238.1 181.6,238.9 
				180.9,239.7 180.3,240.6 179.7,241.7 179.1,242.9 178.8,244.2 178.2,244.8 177.8,245.7 177.2,246.7 177,247.3 176.7,247.9 
				176.7,248.5 176.7,249.3 176.7,249.9 177,250.6 177.3,251.2 177.9,251.9 178.1,252.2 178.4,252.8 178.5,253.6 178.7,254.6 
				178.7,255.8 178.7,257.1 178.4,258.8 179.7,257.3 180.9,255.8 182.4,253.9 183.9,251.5 184.6,250.3 185.2,249.1 185.9,247.8 
				186.4,246.6 186.7,245.4 187.1,244.2 186.8,243.6 186.8,243.2 186.7,242.3 186.7,240.9 186.8,239.4 187.1,237.5 			"/>
			<polygon class="st3" points="179,244.4 179,244.2 181.2,239.7 184,237.2 186.5,235.9 187.7,235.6 187.6,235 186.4,235.4 
				183.9,236.6 180.7,239.4 178.4,244.1 178.5,244.1 179,244.4 179,244.4 179,244.2 			"/>
			<polygon class="st3" points="178.2,251.6 178.1,251.6 177,249.1 177.5,246.9 178.4,245.1 179,244.4 178.5,244.1 177.9,244.6 
				176.9,246.6 176.4,249.3 177.8,252.1 177.8,252.1 178.2,251.6 178.1,251.6 			"/>
			<polygon class="st3" points="178.4,258.5 178.8,258.8 179,255.8 178.8,253.6 178.4,252.2 178.2,251.6 177.8,252.1 177.8,252.4 
				178.2,253.6 178.4,255.8 178.2,258.6 178.7,258.9 178.2,258.6 178.1,259.7 178.7,258.9 			"/>
			<polygon class="st3" points="186.8,244.4 186.7,244.1 185.9,246.6 184.9,249 183.6,251.3 182.1,253.6 180.6,255.6 179.6,257.1 
				178.5,258.2 178.4,258.5 178.7,258.9 179,258.5 179.8,257.6 181,255.9 182.7,254 184,251.6 185.5,249.1 186.5,246.6 187.3,244.2 
				187.3,244.1 187.3,244.2 187.3,244.1 187.3,244.1 			"/>
			<polygon class="st3" points="187.7,235.6 187.3,235.3 186.5,239.4 186.4,242.3 186.5,243.8 186.8,244.4 187.3,244.1 187.1,243.6 
				187,242.3 187.1,239.4 187.9,235.4 187.6,235 187.9,235.4 188,235 187.6,235 			"/>
			<polygon class="st3" points="194.7,244.5 194.4,245.1 194,246 193.2,246.9 192.2,248.2 190.8,249.6 190.1,250.3 189.1,250.9 
				188.2,251.6 187.1,252.4 186.8,252.5 186.4,252.8 185.8,253.6 185.3,254 185.1,254.6 184.6,255.2 184.3,255.9 184,256.7 
				183.9,257.6 183.6,258.6 183.4,259.8 183.4,261 183.6,262.5 183.4,262.8 183.3,264 183.3,264.9 183.3,265.9 183.4,266.8 
				183.6,267.8 184,267.1 184.8,266.2 185.6,265.2 186.7,264 188,262.8 189.7,261.4 190.4,260.8 191.3,260.3 191.6,260 192.3,259.4 
				192.8,258.9 193.4,258.5 193.8,257.6 194.3,256.8 194.7,255.8 195.2,254.6 195.5,253.4 195.6,251.9 195.8,250.3 195.6,248.5 
				195.2,246.6 			"/>
			<polygon class="st3" points="187.1,252.7 187.1,252.7 191.1,249.7 193.4,247.2 194.6,245.4 195,244.6 194.6,244.4 194.1,244.9 
				193.1,246.9 190.7,249.3 186.8,252.2 187,252.2 			"/>
			<polygon class="st3" points="184,262.5 184,262.3 184,257.7 185.2,254.6 186.5,253.1 187.1,252.7 187,252.2 186.1,252.8 
				184.8,254.5 183.4,257.6 183.4,262.5 183.4,262.3 184,262.5 184,262.5 184,262.3 			"/>
			<polygon class="st3" points="183.4,267.7 184,267.7 183.6,265.8 183.6,264.1 183.9,262.9 184,262.5 183.4,262.3 183.3,262.8 
				183,264 183,265.9 183.4,267.8 183.9,268 183.4,267.8 183.6,268.4 183.9,268 			"/>
			<polygon class="st3" points="191.1,260 191.1,260 187.9,262.5 185.3,265 184,266.9 183.4,267.7 183.9,268 184.5,267.1 
				185.9,265.3 188.3,262.8 191.4,260.4 191.4,260.4 			"/>
			<polygon class="st3" points="195,244.6 194.6,244.6 195.2,248.7 195.3,251.9 194.9,254.6 194,256.7 193.1,258.2 192,259.2 
				191.4,259.7 191.1,260 191.4,260.4 191.7,260.3 192.5,259.7 193.5,258.5 194.6,257 195.5,254.8 195.9,251.9 195.9,248.5 
				195,244.4 194.6,244.4 195,244.4 194.7,243.5 194.6,244.4 			"/>
			<polygon class="st3" points="170.5,245.4 171.2,246.4 172.9,249.1 174.5,252.1 175.1,253.3 175.2,254.2 175.2,255.4 175.2,257 
				175.2,258.8 175.4,261 175.8,263.4 176.1,264.6 176.4,265.9 176.9,267.1 177.3,268.4 176.9,268.1 175.7,267.4 173.9,266.1 
				172.9,265.3 172,264.4 170.9,263.4 169.9,262.2 169,261.1 168.1,259.8 167.5,258.5 166.9,257.1 166.8,256.5 166.6,255.6 
				166.6,254.9 166.6,254.2 166.6,253.9 167.2,252.7 168.6,250 			"/>
			<polygon class="st3" points="175.5,254.2 175.5,254 174.6,251.9 173,249 171.5,246.3 170.8,245.1 170.3,245.4 170.9,246.6 
				172.6,249.3 174.2,252.2 175.1,254.2 175.1,254 175.5,254.2 175.5,254.2 175.5,254 			"/>
			<polygon class="st3" points="177.2,268.7 177.6,268.3 176.7,265.9 176.1,263.4 175.7,260.8 175.5,258.8 175.4,257 175.5,255.5 
				175.5,254.5 175.5,254.2 175.1,254 174.9,254.5 174.9,255.5 174.9,257 174.9,258.8 175.2,261 175.5,263.4 176.1,265.9 
				177.2,268.4 177.5,268.3 177.2,268.7 177.9,269 177.6,268.3 			"/>
			<polygon class="st3" points="166.2,254 166.2,254.2 166.6,257.1 167.8,260.1 169.7,262.5 171.7,264.6 173.8,266.3 175.4,267.7 
				176.7,268.4 177.2,268.7 177.5,268.3 177,267.8 175.8,267.1 174.1,265.9 172.1,264.1 170.2,262.2 168.4,259.7 167.2,257.1 
				166.8,254.2 166.6,254.3 166.2,254 166.2,254 166.2,254.2 			"/>
			<polygon class="st3" points="170.8,245.1 170.3,245.2 168.4,249.7 167.1,252.5 166.5,253.7 166.2,254 166.6,254.3 166.9,254 
				167.5,252.8 168.9,250 170.8,245.4 170.3,245.4 170.8,245.1 170.3,244.6 170.3,245.2 			"/>
			<polygon class="st3" points="197.1,260.3 197.1,260.3 197.1,260.3 196.9,260.7 196.5,261.1 195.9,261.9 194.9,262.9 193.2,264.3 
				191,265.9 190.8,265.9 190.3,266.3 189.2,267.1 188.8,267.7 188.3,268.3 187.7,268.9 187.3,269.6 187,270.5 186.5,271.6 
				186.2,272.6 186.1,273.9 186.1,275.3 186.1,276.6 186.2,277 186.5,277.5 186.5,278.1 186.5,279 186.5,279.9 186.5,281.1 
				186.1,282.4 187.3,280.9 190.1,277.8 193.4,274.4 194.7,272.7 195.9,271.8 196.2,270.8 196.5,269.9 196.6,268.4 196.9,266.6 
				197.1,264.7 197.1,262.6 			"/>
			<polygon class="st3" points="191.1,266.1 191.1,266.1 195,263.1 196.8,261.4 197.2,260.4 197.2,260 196.8,260.3 196.8,260.3 
				196.5,260.8 194.6,262.8 190.8,265.6 190.8,265.6 			"/>
			<polygon class="st3" points="186.5,276.5 186.5,276.6 186.8,271.6 188.5,268.4 190.3,266.5 191.1,266.1 190.8,265.6 190,266.2 
				188,268 186.2,271.6 185.9,276.8 185.9,276.8 185.9,276.8 185.9,276.8 185.9,276.8 			"/>
			<polygon class="st3" points="185.9,282.1 186.5,282.4 186.8,279.9 186.8,278.1 186.5,276.9 186.5,276.5 185.9,276.8 185.9,277 
				186.2,278.2 186.2,279.9 185.9,282.3 186.4,282.5 185.9,282.3 185.6,283.3 186.4,282.5 			"/>
			<polygon class="st3" points="195.6,271.7 195.8,271.6 193.1,274.1 189.8,277.6 187.1,280.8 185.9,282.1 186.4,282.5 187.6,281.2 
				190.3,278.1 193.4,274.5 196,272.1 196.2,272 196,272.1 196,272 196.2,272 			"/>
			<polygon class="st3" points="197.2,260 196.6,260.3 196.8,264.7 196.3,268.4 195.9,270.8 195.6,271.7 196.2,272 196.5,271 
				196.9,268.4 197.4,264.7 197.2,260.1 196.8,260.3 197.2,260 196.6,259.5 196.6,260.3 			"/>
			<polygon class="st3" points="196.5,276.6 196.2,276.8 195.6,277 194.9,277.6 194.4,278.2 194,278.8 193.4,279.6 192.9,280.3 
				192.5,281.4 192,282.5 191.6,283.9 191.3,285.5 190.8,287.2 190.7,289.2 191.3,290.1 191.6,290.9 192.2,292.2 192.8,293.7 
				192.8,294.6 193.1,295.3 193.2,296.2 193.2,297 193.2,298 193.1,298.9 193.4,298.6 194,298.2 194.6,297.4 195.2,296.4 
				195.6,295.8 195.9,294.9 196.2,294 196.5,293 196.8,291.9 197.1,290.7 197.4,290.1 197.7,289.5 198,288.6 198.3,287.3 
				198.6,285.7 198.6,284.6 198.6,283.6 198.6,282.5 198.4,281.2 198.3,281.1 198.1,280.9 197.8,280.5 197.7,280 197.2,279.1 
				196.8,278.1 			"/>
			<polygon class="st3" points="191,288.9 191,289.2 191.4,285.5 192.3,282.7 193.2,280.5 194.1,279 195.2,277.8 195.9,277.2 
				196.3,277 196.5,276.9 196.3,276.5 196,276.5 195.5,276.8 194.6,277.5 193.7,278.5 192.8,280.2 191.7,282.5 190.8,285.4 
				190.4,289.1 190.4,289.4 190.4,289.1 190.4,289.2 190.4,289.4 			"/>
			<polygon class="st3" points="192.9,298.6 193.4,298.9 193.4,295.2 192.5,292.1 191.4,289.8 191,288.9 190.4,289.4 191,290.1 
				191.9,292.4 192.8,295.3 192.8,298.9 193.2,299.2 192.8,298.9 192.8,299.3 193.2,299.2 			"/>
			<polygon class="st3" points="196.8,290.4 196.6,290.6 195.6,294.9 194.4,297.3 193.4,298.3 192.9,298.6 193.2,299.2 193.7,298.9 
				194.9,297.6 196.2,295 197.2,290.7 197.2,290.7 196.8,290.4 196.6,290.6 196.6,290.6 			"/>
			<polygon class="st3" points="198.3,281.5 198.1,281.2 198.3,285.7 197.7,288.5 197.1,290.1 196.8,290.4 197.2,290.7 197.7,290.3 
				198.3,288.6 198.9,285.7 198.7,281.2 198.6,280.9 198.7,281.2 198.7,280.9 198.6,280.9 			"/>
			<polygon class="st3" points="196.5,276.9 196.2,276.8 196.9,279.1 197.7,280.6 198.1,281.2 198.3,281.5 198.6,280.9 198.4,280.9 
				198.1,280.3 197.5,279 196.6,276.6 196.3,276.5 196.6,276.6 196.6,276.3 196.3,276.5 			"/>
			<polygon class="st3" points="165.3,264 165.3,264.4 165.4,265.9 165.6,266.8 165.7,268 166,269.2 166.5,270.5 167.1,272 
				167.7,273.3 168.6,274.7 169.6,276.2 170.2,276.8 170.8,277.3 171.5,278.1 172.1,278.5 173,279.1 174.1,279.7 174.9,280.2 
				175.8,280.6 176.1,280.6 176.6,280.6 177.2,280.6 177.9,280.9 179,281.5 180.4,282.3 182.1,283.4 181,280.8 180.1,278.4 
				179.4,276.2 179.1,275.6 178.8,274.8 178.4,273.9 177.5,272.7 176.3,271.6 175.5,271 174.8,270.4 173.9,269.6 172.9,269 
				171.8,268.7 170.8,268.3 169.6,267.7 168.4,267.1 167.2,266.1 166.6,265.6 166,265 165.7,264.6 			"/>
			<polygon class="st3" points="175.7,280.3 176,280.3 172.4,278.4 169.7,275.9 167.8,273.3 166.6,270.5 166,267.8 165.7,265.9 
				165.6,264.4 165.6,264 165,264 165,264.4 165.1,265.9 165.4,268 166.2,270.7 167.4,273.5 169.3,276.5 172.1,278.8 175.8,280.9 
				176,280.9 175.8,280.9 175.8,280.9 176,280.9 			"/>
			<polygon class="st3" points="181.9,283.6 182.4,283.3 179.1,281.2 177.2,280.3 176.1,280.2 175.7,280.3 176,280.9 176.1,280.8 
				177,280.9 179,281.7 182.1,283.7 182.4,283.3 182.1,283.7 182.8,284.3 182.4,283.3 			"/>
			<polygon class="st3" points="179,276.2 179,276.2 179.8,278.5 180.9,280.9 181.6,282.8 181.9,283.6 182.4,283.3 182.1,282.7 
				181.3,280.8 180.4,278.4 179.7,276 179.7,276 			"/>
			<polygon class="st3" points="172.7,269.3 172.6,269.2 176.1,271.8 178.1,274.1 179,275.7 179,276.2 179.7,276 179.4,275.4 
				178.5,273.8 176.6,271.6 172.9,268.7 172.9,268.7 172.9,268.7 172.9,268.7 172.9,268.7 			"/>
			<polygon class="st3" points="165.6,264 165.1,264 166.9,266.3 169.4,268 171.7,269 172.7,269.3 172.9,268.7 172,268.4 
				169.7,267.5 167.2,265.9 165.6,263.8 165,264 165.6,263.8 165.1,262.8 165,264 			"/>
			<polygon class="st3" points="190.4,300.2 190.4,299.9 190.3,298.7 190.3,297.9 189.8,297 189.4,295.9 188.9,294.7 188,293.5 
				187,292.4 185.8,291.2 185.1,290.6 184.2,290 183.4,289.4 182.4,288.8 181.3,288.3 180.3,287.6 179,287.2 177.8,286.7 
				176.3,286.3 174.6,285.8 174.6,285.8 174.2,286 173.6,285.8 173,285.8 172.1,285.2 170.9,284.6 169.6,283.4 169.7,283.9 
				170,284.9 170.6,286.6 171.5,288.6 172.1,289.7 173,290.9 173.8,292.1 174.8,293.2 175.8,294.6 177.2,295.8 178.5,297 180.3,298 
							"/>
			<polygon class="st3" points="174.9,286 174.6,286.1 180,287.9 184,290.1 186.8,292.7 188.5,295 189.5,297 190.1,298.7 
				190.3,299.9 190.3,300.2 190.7,300.4 190.7,299.8 190.6,298.6 190.1,296.8 188.9,294.6 187.1,292.2 184.3,289.7 180.3,287.5 
				174.8,285.5 174.6,285.7 174.8,285.5 174.6,285.5 174.6,285.7 			"/>
			<polygon class="st3" points="169.9,283.4 169.4,283.7 172,285.5 173.6,286.3 174.6,286.3 174.9,286 174.6,285.7 174.5,285.7 
				173.8,285.7 172.3,285.1 169.7,283.3 169.3,283.4 169.7,283.3 169.1,282.7 169.3,283.4 			"/>
			<polygon class="st3" points="180.3,297.7 180.3,297.7 177.3,295.6 174.9,293.2 173.2,290.7 171.8,288.5 170.9,286.4 170.3,284.9 
				170,283.9 169.9,283.4 169.3,283.4 169.4,283.9 169.7,285.1 170.3,286.7 171.4,288.8 172.7,291 174.6,293.5 177,295.9 180,298.3 
				180.1,298.3 180,298.3 180,298.3 180.1,298.3 			"/>
			<polygon class="st3" points="190.3,300.2 190.6,300.1 185.6,298.9 182.5,298.3 180.7,297.9 180.3,297.7 180.1,298.3 180.7,298.5 
				182.4,298.9 185.5,299.5 190.3,300.7 190.7,300.4 190.3,300.7 190.7,300.7 190.7,300.4 			"/>
			<polygon class="st3" points="181.6,303.8 182.8,304.1 185.3,304.7 187.1,305.1 188.9,305.6 190.6,305.7 192,306 192.3,306.2 
				192.8,306.3 193.2,306.8 193.8,307.4 194.6,308.3 195.6,309.4 196.6,311.2 197.7,312.7 198.9,314.4 199.6,315.1 200.2,315.7 
				198.6,315.5 196.8,315.1 194.6,314.5 192,313.8 190.7,313.2 189.4,312.6 187.9,312 186.5,311.1 185.2,310.2 184,309.2 
				183.7,308.4 183.1,306.9 182.5,305.1 182.1,304.4 			"/>
			<polygon class="st3" points="192.2,305.7 192,305.7 188.9,305.3 185.5,304.5 182.8,303.8 181.6,303.5 181.5,304 182.7,304.4 
				185.2,305.1 188.8,305.7 192,306.3 192,306.3 			"/>
			<polygon class="st3" points="196.9,311.1 194.7,308.1 193.4,306.6 192.6,305.9 192.2,305.7 192,306.3 192.2,306.3 192.9,306.9 
				194.4,308.4 196.5,311.4 			"/>
			<polygon class="st3" points="200.2,316 200.4,315.5 199,314.1 198,312.6 197.2,311.4 196.9,311.1 196.5,311.4 196.8,311.8 
				197.5,313 198.7,314.5 199.9,316 200.2,315.4 200.2,316 200.8,316.1 200.4,315.5 			"/>
			<polygon class="st3" points="183.6,309.3 183.7,309.4 186.5,311.4 189.2,312.9 192,314.1 194.6,314.9 196.6,315.4 198.6,315.7 
				199.6,316 200.2,316 200.2,315.4 199.8,315.4 198.6,315.2 196.9,314.9 194.6,314.4 192,313.5 189.5,312.4 186.7,310.8 184,308.9 
				184.2,309 183.6,309.3 183.7,309.3 183.7,309.4 			"/>
			<polygon class="st3" points="181.6,303.5 181.5,304 182.2,305.1 182.8,306.9 183.4,308.6 183.6,309.3 184.2,309 184,308.4 
				183.4,306.8 182.8,305 181.8,303.5 181.5,304 181.6,303.5 180.7,303.2 181.5,304 			"/>
			<polygon class="st3" points="199.3,294.6 199.2,294.6 199,294.7 198.9,295.2 198.6,295.8 198.3,296.7 198.3,298.3 198.1,300.2 
				198.1,303.2 198.3,304 198.3,305 198.3,306 198.7,307.4 198.9,308.6 199.5,309.9 199.8,310.3 200.2,310.9 200.7,311.1 201,311.2 
				201.5,311.5 202.3,312 202.9,312.6 203.6,313.3 204.1,314.4 204.5,313.3 204.7,312.3 205,310.9 205.1,309.3 205.1,307.7 
				205.1,306.6 205,305.7 204.7,304.7 204.5,303.8 203.8,302.6 202.1,300.1 200.5,297.1 199.8,295.8 			"/>
			<polygon class="st3" points="198.4,303.2 198.4,298.3 198.9,295.8 199.3,294.9 199.3,294.9 199.3,294.3 198.9,294.6 198.3,295.6 
				197.8,298.3 197.8,303.2 			"/>
			<polygon class="st3" points="200.2,310.6 200.4,310.6 199.3,308.6 198.7,306 198.4,304 198.4,303.2 197.8,303.2 197.8,304.1 
				198.1,306 198.7,308.7 199.9,311.1 200.2,311.2 199.9,311.1 200.1,311.1 200.2,311.2 			"/>
			<polygon class="st3" points="203.9,314.2 204.4,314.2 203.2,312.3 201.8,311.2 200.8,310.6 200.2,310.6 200.2,311.2 200.5,311.2 
				201.4,311.8 202.7,312.7 203.9,314.5 204.5,314.5 203.9,314.5 204.2,315.1 204.5,314.5 			"/>
			<polygon class="st3" points="204.2,303.8 204.1,303.8 204.8,307.7 204.5,310.9 204.1,313.2 203.9,314.2 204.5,314.5 204.7,313.5 
				205.1,310.9 205.4,307.7 204.7,303.7 204.7,303.5 204.7,303.7 204.7,303.7 204.7,303.5 			"/>
			<polygon class="st3" points="199.3,294.9 199,294.7 200.2,297.3 202,300.2 203.5,302.8 204.2,303.8 204.7,303.5 203.9,302.6 
				202.4,299.9 200.8,297 199.6,294.6 199.3,294.3 199.6,294.6 199.6,294.3 199.3,294.3 			"/>
			<polygon class="st3" points="198.4,319.7 206.5,319.1 206.5,319.1 206.6,319 206.9,319 207.5,319 208.2,319.3 209.6,319.7 
				211.4,320.6 213.6,321.8 214.5,321.9 216.7,322.8 218,323.3 219.5,323.7 221,324 222.4,324.3 221.8,324.5 220.1,324.8 
				217.5,325.5 214.2,326.5 213.9,326.7 213.3,326.8 212.1,326.8 210.8,327 209.9,326.8 209,326.8 208.1,326.7 207,326.2 
				205.9,325.9 204.8,325.5 203.6,324.8 202.4,324 202,323.4 201.1,322.2 200.5,321.3 199.8,320.7 199,320.2 			"/>
			<polygon class="st3" points="206.2,319.1 206.5,318.8 203.8,319.1 201.1,319.3 199.2,319.4 198.4,319.4 198.4,320 199.2,320 
				201.1,319.9 203.8,319.6 206.5,319.4 206.8,319.3 206.5,319.4 206.6,319.4 206.8,319.3 			"/>
			<polygon class="st3" points="213.7,321.3 209.6,319.4 207.5,318.8 206.5,318.8 206.2,319.1 206.8,319.3 206.6,319.4 207.3,319.4 
				209.4,320 213.4,321.9 			"/>
			<polygon class="st3" points="222.5,324.5 222.5,324 219.5,323.4 216.9,322.5 214.5,321.8 213.7,321.3 213.4,321.9 214.5,322.4 
				216.6,323.1 219.5,324 222.4,324.5 222.4,324 222.5,324.5 224.4,324.2 222.5,324 			"/>
			<polygon class="st3" points="214.2,326.8 217.6,325.8 220.1,325.1 221.9,324.6 222.5,324.5 222.4,324 221.8,324.2 220.1,324.5 
				217.5,325.2 214,326.2 			"/>
			<polygon class="st3" points="202.1,324.2 202.3,324.3 207,326.7 210.8,327.3 213.3,327.1 214.2,326.8 214,326.2 213.3,326.5 
				210.8,326.7 207,326.1 202.6,323.7 202.7,323.7 202.1,324.2 202.1,324.2 202.3,324.3 			"/>
			<polygon class="st3" points="198.4,319.4 198.3,320 199.6,320.9 200.8,322.4 201.8,323.7 202.1,324.2 202.7,323.7 202.3,323.3 
				201.3,321.9 200.1,320.6 198.6,319.4 198.4,320 198.4,319.4 197.4,319.4 198.3,320 			"/>
			<polygon class="st3" points="225.6,321.9 224.4,321.9 221.9,321.5 220.3,321.3 218.6,320.7 216.9,320.2 215.1,319.4 214.5,318.4 
				212.7,315.7 211.5,314.1 210.2,312.1 208.8,310.3 207.2,308.6 208.2,308.6 209.6,308.7 211.1,308.9 212.8,309.3 214.8,309.9 
				215.8,310.3 216.7,310.8 217.6,311.4 218.8,312 219.4,312.6 220.1,313.3 221.2,314.4 222.2,315.7 223.2,317.5 223.8,318.4 
				224.4,319.4 225,320.6 			"/>
			<polygon class="st3" points="214.8,319.6 214.9,319.7 218.5,321 221.9,321.9 224.4,322.2 225.6,322.2 225.6,321.8 224.4,321.6 
				221.9,321.3 218.6,320.6 215.1,319.3 215.2,319.4 214.8,319.6 214.8,319.6 214.9,319.7 			"/>
			<polygon class="st3" points="207.2,308.3 207,308.9 210,312.4 212.5,315.8 214.2,318.5 214.8,319.6 215.2,319.4 214.6,318.2 
				213,315.5 210.6,312 207.5,308.4 207.2,308.9 207.2,308.3 206.6,308.3 207,308.9 			"/>
			<polygon class="st3" points="218.9,311.8 214.9,309.6 211.1,308.7 208.4,308.3 207.2,308.3 207.2,308.9 208.2,308.9 211.1,309.2 
				214.6,310 218.5,312.3 			"/>
			<polygon class="st3" points="225.6,322.2 225.8,321.9 223.7,317.3 221.3,314.2 219.5,312.4 218.9,311.8 218.5,312.3 219.2,312.7 
				220.9,314.5 223.2,317.6 225.2,321.9 225.6,321.8 225.6,322.2 225.9,322.2 225.8,321.9 			"/>
			<polygon class="st3" points="216.4,331.4 216.4,331.3 217,330.7 217.6,329.8 218.2,329.4 218.8,328.8 219.4,328.3 220.1,327.7 
				221.2,327.3 222.2,326.8 223.2,326.4 224.7,325.9 226.2,325.6 227.9,325.5 228.3,325.5 230.1,325.6 233.2,325.9 235.4,325.9 
				238.1,325.9 237.5,326.4 236.3,327.6 235.6,328.2 234.8,328.8 234.2,329.5 233.8,330.3 232,330.4 229.5,330.7 225.6,331.4 
				224.7,331.6 223.7,331.7 222.5,331.9 221,331.9 219.5,331.9 217.9,331.7 			"/>
			<polygon class="st3" points="227.9,325.1 227.7,325.1 222.1,326.5 218.5,328.6 216.7,330.4 216.1,331.3 216.6,331.6 217,330.9 
				218.9,329.1 222.2,327.1 227.9,325.6 227.7,325.6 227.9,325.1 227.9,325.1 227.7,325.1 			"/>
			<polygon class="st3" points="238.3,326.2 238.1,325.6 233.2,325.6 230.1,325.5 228.3,325.2 227.9,325.1 227.7,325.6 228.3,325.8 
				230.1,325.9 233.2,326.2 238.1,326.2 238,325.6 238.3,326.2 238.9,325.6 238.1,325.6 			"/>
			<polygon class="st3" points="233.8,330.6 234.1,330.4 235,329.1 236.5,327.6 237.7,326.7 238.3,326.2 238,325.6 237.4,326.2 
				236,327.3 234.5,328.8 233.5,330.1 233.8,330 233.8,330.6 233.9,330.6 234.1,330.4 			"/>
			<polygon class="st3" points="225.6,331.7 229.6,331.1 232.2,330.7 233.4,330.6 233.8,330.6 233.8,330 233.4,330 232,330.1 
				229.5,330.6 225.5,331.1 			"/>
			<polygon class="st3" points="216.1,331.3 216.4,331.7 219.5,332.2 222.5,332 224.7,331.9 225.6,331.7 225.5,331.1 224.6,331.3 
				222.5,331.6 219.5,331.6 216.4,331.1 216.6,331.6 216.1,331.3 216,331.6 216.4,331.7 			"/>
			<polygon class="st3" points="239.3,336.1 239.7,335 240.3,333.8 241.2,332.5 242.6,331.1 243.2,330.4 244.1,329.5 244.9,328.8 
				245.8,328.2 246.9,327.6 248.1,326.8 248.1,326.8 248.1,326.5 248.1,326.2 247.9,325.9 247.8,325.6 247.5,325.6 247,325.4 
				246.6,325.1 245.8,324.9 245.1,324.8 244.2,324.5 243.2,324.5 241.8,324.3 241.2,324.3 240,324.2 238.1,324 236.9,323.7 
				235.7,323.6 234.4,323.1 233.2,322.7 232,322.1 230.7,321.3 229.5,320.6 228.2,319.6 227.7,319 227.3,318.4 226.8,317.8 
				226.4,317 226.7,316.9 227.6,316.7 228.2,316.4 229,316.3 230.1,316.3 231.1,316.3 232.5,316.3 233.8,316.6 235.4,317 
				237.1,317.6 239,318.4 240.9,319.4 243.2,320.6 245.5,322.2 246.9,323.1 248.1,323.9 249.3,324.5 249.4,324.6 249.6,325.1 
				250,325.4 250.3,325.5 250.7,325.6 251.2,325.6 251.8,325.6 252.5,325.5 253.1,325.4 253.9,325.1 254.9,324.5 255.8,323.9 
				256.8,323.1 263.4,318.1 263.7,317.5 264,317 264.3,316.9 264.4,316.6 264.9,316.4 265.2,316.3 265.6,316.3 266.2,316.3 
				266.8,316.4 267.4,316.6 268.3,316.9 269.2,317.5 269.3,317.6 269.3,317.6 269.8,317.6 270.2,317.6 271,317.3 271.8,316.9 
				273,316.3 273.5,315.5 273.8,314.9 274.2,314.7 274.4,314.4 274.8,314.1 275.3,313.9 275.6,313.9 276.2,314.1 276.8,314.2 
				277.3,314.7 277.9,315.1 278.5,316 278.5,316.3 278.7,316.4 278.7,316.6 279.1,316.9 279.9,316.9 280.6,316.9 282,316.9 
				282.1,316.7 282.4,316.4 283,316.1 283.4,316 283.9,315.8 284.2,315.8 284.8,316 285.2,316.3 285.7,316.4 286.1,316.9 
				286.7,317.6 287.3,318.4 287.8,319.4 287.5,319.6 287.5,319.9 287.8,320 288,320 289.1,320 290.4,319.6 292.4,319.1 291.8,319.6 
				290.6,320.7 289.8,321.5 289.2,322.4 288.6,323.1 288.2,324 287.6,324.5 286.7,325.1 285.7,325.6 285.4,325.6 284.9,325.6 
				284.6,325.6 284.2,325.6 283.9,325.9 283.7,326.1 283.6,326.2 283.6,326.5 283.6,326.8 283.6,327.6 283.6,328.2 283.4,328.5 
				283.3,328.8 283,328.9 282.8,329.1 282.4,329.1 282,328.9 281.5,328.8 280.9,328.5 280.2,327.9 279.3,327.1 279.1,326.8 
				278.8,326.8 278.5,326.7 278.1,326.7 277.6,326.8 277.3,327.3 276.8,328 276.8,328.2 276.2,328.8 275.6,329.2 275.3,329.4 
				274.8,329.8 274.2,330 273.8,330 273.3,330 272.7,329.8 272.3,329.4 271.7,328.9 271.1,328.2 270.5,327.4 270.4,327.1 
				269.9,326.8 269.6,326.5 269.2,326.4 268.7,326.2 268,326.4 267.7,326.7 267.4,326.8 267.2,327.3 267.1,327.6 266.8,328 
				266.6,328.2 266.3,328.2 266.1,328.2 265.6,328.2 265.5,328 265,327.7 264.4,327.4 264,326.8 263.7,326.8 263.4,327 262.9,327 
				262.3,326.8 261.6,326.8 260.7,326.2 259.8,325.6 259.2,325.5 258.6,325.4 257.9,325.4 257.1,325.4 256.8,325.5 256.5,325.6 
				256.2,325.8 255.9,326.1 255.8,326.4 255.6,326.8 256.5,327.6 258.3,329.4 259.4,330.7 260.3,331.9 261.1,333.1 261.4,333.7 
				261.7,334.3 259.8,335 259.4,334.3 258.9,333.1 258.3,331.9 257.4,330.7 257,330 256.5,329.4 255.8,328.9 255.2,328.5 254.5,328 
				253.7,327.6 253.4,327.4 253.1,327.3 252.7,327 252.1,326.8 251.5,327 250.9,327.1 250.6,327.4 250.3,327.6 250,327.7 
				249.3,328.2 248.1,328.6 246.6,329.4 245.8,330 244.9,330.6 244.2,331.3 243.5,332 242.7,333.1 242,334 241.4,335.2 240.9,336.5 
							"/>
			<polygon class="st3" points="247.8,326.7 247.9,326.5 243.8,329.4 241.1,332.5 239.4,334.9 239,335.9 239.4,336.2 240,335.2 
				241.5,332.8 244.2,329.8 248.1,327 248.2,327 248.1,327 248.2,327 248.2,327 			"/>
			<polygon class="st3" points="241.8,324.5 241.8,324.5 245.8,325.2 247.5,325.9 247.9,326.5 247.8,326.7 248.2,327 248.4,326.4 
				247.9,325.5 246,324.6 241.8,324 241.8,324 			"/>
			<polygon class="st3" points="226.2,316.9 226.2,317.3 228.2,319.7 230.4,321.6 233.1,323 235.7,323.7 238,324.3 240,324.5 
				241.2,324.5 241.8,324.5 241.8,324 241.2,324 240,323.9 238.1,323.7 235.7,323.1 233.2,322.5 230.7,321.2 228.4,319.4 
				226.7,316.9 226.5,317.5 226.2,316.9 225.9,317 226.2,317.3 			"/>
			<polygon class="st3" points="245.7,321.9 241.1,319.3 237.2,317.3 233.8,316.3 231.1,316 228.9,316.1 227.6,316.3 226.5,316.7 
				226.2,316.9 226.5,317.5 226.8,317.2 227.6,316.9 229,316.6 231.1,316.6 233.8,316.9 236.9,317.9 240.8,319.7 245.4,322.5 			"/>
			<polygon class="st3" points="249.4,324.5 249.4,324.3 248.2,323.7 247,323 246.1,322.4 245.7,321.9 245.4,322.5 245.7,322.8 
				246.9,323.4 248.1,324.2 249.1,324.8 249,324.6 249.4,324.5 249.4,324.5 249.4,324.3 			"/>
			<polygon class="st3" points="256.8,323 256.8,322.8 253.1,325.1 250.7,325.2 249.7,324.8 249.4,324.5 249,324.6 249.4,325.2 
				250.7,325.8 253.3,325.6 257,323.3 257,323.3 			"/>
			<polygon class="st3" points="263.1,317.9 263.2,317.8 256.8,323 257,323.3 263.7,318.2 263.7,318.1 263.7,318.2 263.7,318.2 
				263.7,318.1 			"/>
			<polygon class="st3" points="269.3,317.3 269.3,317.2 266.2,316 264.3,316.3 263.4,317.3 263.1,317.9 263.7,318.1 263.8,317.6 
				264.6,316.9 266.2,316.6 269,317.6 268.9,317.5 269.3,317.3 269.3,317.2 269.3,317.2 			"/>
			<polygon class="st3" points="272.9,316.3 273,316.1 270.8,316.9 269.8,317.3 269.3,317.3 269.3,317.3 268.9,317.5 269.2,317.8 
				269.8,317.9 271.1,317.6 273.2,316.6 273.5,316.3 273.2,316.6 273.3,316.4 273.5,316.3 			"/>
			<polygon class="st3" points="278.7,316.1 278.7,315.8 276.2,313.8 274.2,314.1 273.2,315.4 272.9,316.3 273.5,316.3 273.6,315.7 
				274.7,314.5 276,314.2 278.2,316.3 278.2,315.8 278.7,316.1 278.8,316 278.7,315.8 			"/>
			<polygon class="st3" points="281.8,316.6 282,316.6 279.9,316.7 278.8,316.3 278.7,316.1 278.2,315.8 278.2,316.3 278.7,316.9 
				279.9,317.3 282,317 282.3,317 282,317 282.1,317 282.3,317 			"/>
			<polygon class="st3" points="287.9,319.6 288,319.4 286,316.3 283.9,315.7 282.4,316.1 281.8,316.6 282.3,317 282.7,316.6 
				283.9,316.3 285.5,316.7 287.5,319.6 287.5,319.3 287.9,319.6 288,319.4 288,319.4 			"/>
			<polygon class="st3" points="292.4,319.4 292.2,318.8 288.9,319.6 287.8,319.6 287.9,319.6 287.9,319.6 287.5,319.3 287.3,319.7 
				287.8,320.2 289.1,320.2 292.4,319.4 292.1,319 292.4,319.4 293.2,318.5 292.2,318.8 			"/>
			<polygon class="st3" points="288.5,324.2 288.5,324.2 289.4,322.5 290.7,321 291.9,319.9 292.4,319.4 292.1,319 291.6,319.4 
				290.4,320.6 288.9,322.2 288,323.9 288,323.7 			"/>
			<polygon class="st3" points="285.5,325.9 285.8,325.9 286.9,325.4 287.8,324.8 288.2,324.5 288.5,324.2 288,323.7 287.9,323.9 
				287.5,324.3 286.7,324.9 285.5,325.5 285.7,325.5 285.5,325.9 285.7,325.9 285.8,325.9 			"/>
			<polygon class="st3" points="283.9,326.8 283.9,326.8 284.2,326.1 284.6,325.9 285.4,325.9 285.5,325.9 285.7,325.5 285.4,325.4 
				284.5,325.4 283.6,325.6 283.4,326.8 283.4,326.8 			"/>
			<polygon class="st3" points="279.3,327.3 281.8,329.2 283.4,328.8 283.9,327.6 283.9,326.8 283.4,326.8 283.3,327.4 283,328.5 
				282.1,328.8 279.6,326.8 			"/>
			<polygon class="st3" points="277,328.2 277,328.2 277.9,327.1 278.5,327 279,327.1 279.3,327.3 279.6,326.8 279.3,326.7 
				278.5,326.4 277.5,326.7 276.6,327.9 276.6,327.7 			"/>
			<polygon class="st3" points="270.4,327.6 270.4,327.6 272.6,330 274.8,330 276.5,328.8 277,328.2 276.6,327.7 276.2,328.5 
				274.7,329.4 272.9,329.5 270.8,327.3 270.8,327.3 			"/>
			<polygon class="st3" points="267.7,326.8 267.5,327 268.7,326.7 269.5,326.8 270.1,327.3 270.4,327.6 270.8,327.3 270.5,326.8 
				269.8,326.2 268.6,326.1 267.2,326.7 267.1,326.8 267.2,326.7 267.1,326.7 267.1,326.8 			"/>
			<polygon class="st3" points="264.1,327 263.7,327 265.6,328.3 266.8,328.2 267.4,327.4 267.7,326.8 267.1,326.8 266.9,327.1 
				266.6,327.7 265.9,327.9 264.3,326.7 263.8,326.5 264.3,326.7 264,326.4 263.8,326.5 			"/>
			<polygon class="st3" points="259.7,325.9 259.5,325.9 261.4,326.8 262.9,327.3 263.7,327.3 264.1,327 263.8,326.5 263.7,326.7 
				262.9,326.7 261.7,326.4 260,325.5 259.8,325.5 260,325.5 259.8,325.5 259.8,325.5 			"/>
			<polygon class="st3" points="255.9,326.7 256.1,326.8 256.7,325.8 257.9,325.6 259.1,325.8 259.7,325.9 259.8,325.5 259.2,325.2 
				257.9,325.1 256.2,325.4 255.5,326.8 255.6,327 255.5,326.8 255.5,326.8 255.6,327 			"/>
			<polygon class="st3" points="261.9,334.4 261.9,334.1 260.6,331.7 258.6,329.4 256.8,327.4 255.9,326.7 255.6,327 256.2,327.7 
				258,329.7 260,332 261.4,334.4 261.6,334 261.9,334.4 262,334.4 261.9,334.1 			"/>
			<polygon class="st3" points="259.4,335.2 259.8,335.3 261.9,334.4 261.6,334 259.7,334.9 260,335 259.4,335.2 259.5,335.5 
				259.8,335.3 			"/>
			<polygon class="st3" points="253.6,327.9 253.7,328 256.2,329.7 258,332 259.2,334.4 259.4,335.2 260,335 259.7,334 258.6,331.9 
				256.7,329.2 253.7,327.4 253.9,327.6 253.6,327.9 253.6,328 253.7,328 			"/>
			<polygon class="st3" points="250.3,328 250.6,327.9 251.6,327.3 252.5,327.4 253.3,327.6 253.6,327.9 253.9,327.6 253.6,327.1 
				252.7,326.8 251.5,326.7 250.1,327.6 250.3,327.4 250.3,328 250.4,328 250.6,327.9 			"/>
			<polygon class="st3" points="240.8,336.8 241.2,336.6 243.8,332.2 246.9,329.5 249.4,328.2 250.3,328 250.3,327.4 249.1,327.7 
				246.4,329.1 243.3,331.9 240.6,336.5 241.1,336.2 240.8,336.8 241.1,336.8 241.2,336.6 			"/>
			<polygon class="st3" points="239,335.9 239.2,336.2 240.8,336.8 241.1,336.2 239.3,335.6 239.4,336.2 239,335.9 238.9,336.2 
				239.2,336.2 			"/>
			<polygon class="st3" points="293,318.8 293.1,319.4 293.4,319.9 293.7,320.3 294,320.6 294.1,320.7 294.7,320.9 295.2,321 
				295.6,321.2 296.4,321.2 297.1,321 298,320.9 298.2,320.6 298.6,319.9 299,318.8 299.2,318.2 299.3,317.5 299.3,316.9 
				299.3,316.3 299.2,315.7 299,315.1 298.9,314.9 298.7,314.7 298.6,314.5 298.3,314.5 298,314.5 297.7,314.5 297.4,314.7 
				297,314.5 296.7,314.5 296.5,314.4 296.1,314.1 295.9,313.8 295.8,313.3 295.5,313 295.3,312.6 294.9,312.3 294.6,312.1 
				294.3,312.1 294.1,312.1 293.7,312.3 293.5,312.6 293,312.9 292.7,313.2 292.4,313.5 291.9,313.8 291.6,314.5 291.3,315.1 
				291.3,315.4 291.3,315.7 291.5,316.1 291.8,316.6 292.1,316.7 292.4,316.9 292.7,317 293,317.5 293.2,317.8 293.2,318.1 
				293.2,318.2 293.1,318.5 			"/>
			<polygon class="st3" points="301.7,315.4 302,315.1 302.5,314.5 303.2,314.1 304.1,313.6 305.1,313.2 305.7,313 306.5,312.9 
				307.2,312.9 308,312.9 308.7,312.7 309.6,312.6 310.3,312.3 310.9,312 311.2,311.8 311.7,311.4 311.8,310.9 312.1,310.5 
				312.3,309.9 312.1,309.2 312,308.3 311.7,307.7 311.7,307.2 311.7,306.6 311.7,306.2 311.7,305.9 311.8,305.6 312.3,305.3 
				312.4,305.1 312.9,304.8 313.5,304.7 314.1,304.5 314.9,304.5 315.5,304.5 316,304.4 316.3,304.2 316.6,304 316.9,303.8 
				317,303.4 317.2,302.9 317,302.3 316.7,301.7 316.4,301 316,300.1 315.7,299.8 315.4,299.5 315.4,299 315.2,298.6 315.4,298 
				315.5,297.3 315.8,297 316.1,296.5 316.6,295.9 316.9,295.2 317,294.4 317,294 317,293.5 316.9,293.1 316.6,292.7 316.3,292.2 
				315.8,291.9 315.2,291.5 314.5,291.2 314.4,291.2 314.1,291.3 313.6,291.2 313,290.7 312.6,290.6 312.1,290.1 311.7,289.5 
				311.1,288.9 310.5,288.2 309.9,287 309.2,286 308.6,284.6 308,284.6 307.7,284.9 307.2,285.2 306.6,285.8 306.3,286 306.2,286.4 
				306,286.9 306,287.5 305.9,287.9 306,288.6 306,288.8 306,288.9 306,288.9 306,289.2 305.7,289.5 305.3,289.7 304.5,290.1 
				304,290.1 303.5,290.4 302.9,290.7 302.6,291 302.5,291.3 302.3,291.6 302.3,292.1 302.3,292.4 302.3,292.8 302.5,293.4 
				302.9,294 302.9,294.4 303.1,294.9 303.1,295.2 303.1,295.8 302.9,296.1 302.9,296.4 302.5,296.5 302.3,296.8 301.9,297 
				301.4,297.1 300.8,297.4 300.4,297.6 299.8,298 299.2,298.5 299.2,298.9 298.9,299.2 298.9,299.6 298.9,300.1 298.9,300.7 
				299,301.3 299.2,301.4 299.2,301.9 299.2,302.3 299,302.8 298.6,303.4 298.3,303.8 297.7,304.4 297.1,304.7 296.7,305.3 
				296.2,305.9 296.2,306.3 296.1,306.8 296.1,307.2 296.2,307.7 296.7,308.3 297,308.7 297.4,309.2 298.2,309.7 298.6,310.3 
				299.6,311.7 300.7,313.6 301.3,314.5 			"/>
			<polygon class="st3" points="321,288 320.3,287.8 319.7,287.6 319.6,287.6 319.1,287.6 319,287.8 318.7,288 318.5,288.3 
				318.5,288.6 318.4,289.1 318.5,289.7 318.7,290.6 319.1,291.5 319.3,291.6 320.2,292.2 321.5,293 323.4,293.8 323.9,293.8 
				324.6,294 325.2,294 325.5,293.8 325.9,293.8 326.1,293.5 326.4,293.2 326.5,292.7 326.5,292.1 326.5,291.5 326.5,290.7 
				327,289.5 327.4,288.6 327.9,287.5 328,286.9 328.2,286.3 328.2,285.7 328.2,285.2 327.9,284.6 327.7,284 327.3,283.7 
				326.7,283.4 326.5,283.3 325.9,283.1 325.4,282.8 324.8,282.7 324.3,282.7 323.9,282.8 323.4,283 323,283.3 322.5,283.7 
				322.2,284.3 321.8,285.2 321.6,286 321.3,287.2 320.9,290.1 320.9,290.4 320.9,290.1 			"/>
			<polygon class="st3" points="327.6,277.5 327.6,277 327.7,276.8 327.9,276.3 328.5,275.7 329.1,275.1 330.3,274.2 331.6,273.5 
				332,273.3 332.5,273.2 332.9,272.7 333.4,272.1 333.5,271.8 333.7,271.6 333.7,271.1 333.7,270.7 333.5,270.2 333.4,269.6 
				332.9,269 332.8,268.4 332.6,267.7 332.6,267.2 332.6,266.9 332.8,266.5 332.9,266.2 333.2,265.9 333.5,265.5 334.1,265.3 
				334.7,265 335.3,265 335.9,264.7 336.2,264.6 336.5,264.6 336.6,264.1 336.9,264 337.1,263.4 337.1,262.9 336.9,262.3 
				336.6,261.6 336.4,260.8 335.9,259.8 335.6,259.7 335.3,259.2 335.3,258.8 335.2,258.3 335.2,258 335.3,257.7 335.3,257.3 
				335.6,257.1 335.9,256.7 336.5,256.5 336.8,255.9 337.1,255.5 337.1,254.9 337.1,254.6 337.1,254 337.1,253.7 336.8,253.3 
				336.5,252.7 335.9,252.2 335.5,251.5 334.7,250.9 334.7,250.6 334.4,249.7 333.8,248.4 333.5,247.8 333.2,247.2 332.8,246.6 
				332.2,246.1 331.7,246 331.4,246 331,246 330.9,246 330.4,246.1 330.1,246.4 329.7,246.6 329.1,247.6 328.2,248.8 328.5,249.1 
				328.6,249.6 328.6,250 328.6,250.1 328.5,250.4 328.3,250.7 327.9,250.9 327.4,251 327,251.3 326.2,251.5 325.4,251.5 
				325.2,251.5 324.8,251.5 324.2,251.6 323.9,251.8 323.4,252.1 323.3,252.2 323,252.7 322.8,253 322.7,253.4 322.7,254 
				322.7,254.9 322.8,255.8 323,256.7 322.2,257.3 321.6,257.9 321.3,258.3 321,258.8 320.7,259.4 320.4,259.8 320.3,260.4 
				320.3,261 320.4,261.7 320.7,262.3 321,263.1 321.6,264 321.9,264.1 322.2,264.6 322.5,265.2 322.8,265.8 323,266.3 323.1,267.1 
				323.1,267.5 323,267.8 322.7,268.3 322.2,268.9 321.9,269.5 321.9,269.8 321.9,270.2 322.1,270.7 322.2,271.1 322.5,271.6 
				322.8,272.1 323.4,272.6 324.2,272.9 324.8,273.5 325.9,275 327.1,276.5 327.4,277 			"/>
			<polygon class="st3" points="316.6,286.6 316.4,286.3 316.6,285.8 316.6,285.2 317,284.3 317.5,283.4 318.5,282.5 319,282.1 
				319.7,281.5 319.9,281.5 320.4,281.1 321.3,280.6 321.8,280.2 322.2,279.9 322.5,279.4 322.8,279 322.8,278.4 322.8,277.8 
				322.5,277.2 322.1,276.6 321.5,276 320.4,275.3 319.7,275.1 319.1,274.8 318.7,274.5 318.5,274.4 318.2,273.9 317.9,273.6 
				317.8,273.2 317.8,272.6 317.8,272 317.9,271.4 318.2,270.5 318.7,269.6 319.3,269 319.7,268.6 320,268 320,267.7 320,267.4 
				319.9,267.1 319.7,266.8 319.4,266.5 318.8,266.2 318.2,266.1 317.3,265.9 316.7,265.9 316.3,265.8 316,265.6 315.8,265.3 
				315.5,265.2 315.4,264.7 315.4,264.4 315.4,264 315.5,263.4 315.8,262.8 316.1,261.9 316.7,260.8 316.9,260.3 316.9,259.4 
				316.9,258.5 316.6,258 316.6,257.7 316.1,257.3 315.8,257.1 315.4,256.8 314.7,256.7 313.9,256.8 313,257 312.7,257.1 
				312.3,257.1 311.8,257.1 311.2,257.1 310.6,256.7 310,256.4 309.3,255.5 308.9,254.8 308.1,254 307.8,253.9 307.4,253.6 
				306.9,253.4 306.6,253.4 306.2,253.4 305.7,253.7 305.3,254 304.8,254.6 304.5,255.5 304.1,256.7 304.2,257.1 304.1,257.6 
				304.1,258 304,258.6 303.5,259.2 303.1,259.8 302.5,260.4 301.9,260.8 301.4,261.6 301.1,262.3 301,262.8 300.8,263.2 
				300.8,263.5 301,264 301.1,264.4 301.6,264.9 302,265.3 302.9,265.6 302.9,265.9 303.2,266.8 303.4,267.4 303.4,268 303.4,268.6 
				303.1,269.3 302.9,269.5 302.8,270.1 302.5,270.8 302.5,271.4 302.5,271.7 302.6,272.1 302.8,272.7 303.1,273.2 303.5,273.6 
				304,273.9 304.7,274.2 305.4,274.5 306.5,274.7 306.8,275 307.1,275.3 307.2,275.4 307.4,275.9 307.2,276.2 307.2,276.5 
				307.1,276.6 306.8,276.9 306.5,277 306,277.5 305.4,278.1 305,278.8 304.8,279.1 304.8,279.6 304.8,279.9 304.8,280.2 
				304.8,280.6 305.1,280.8 305.6,281.1 306.2,281.4 306.9,281.5 308,281.5 308.7,282.1 310.9,283.6 312.3,284.6 313.6,285.4 
				315.1,286.1 			"/>
			<polygon class="st3" points="309.6,236.5 309.7,236.8 309.9,237.2 310,237.8 310,238.4 309.9,239.2 309.4,239.9 309.2,240.3 
				308.7,240.8 308.3,240.9 307.8,241.4 307.2,241.7 307.2,242.1 307.1,242.3 307.2,242.7 307.2,243 307.4,243.5 307.8,243.8 
				308.4,244.2 309.2,244.6 309.7,244.9 310.3,245.2 311.1,245.7 311.2,246 311.7,246.3 311.7,246.6 311.8,247 311.8,247.5 
				311.7,247.9 311.5,248.5 311.1,249.1 310.8,249.6 310.6,250 310.6,250.6 310.8,250.9 310.9,251.3 311.1,251.6 311.7,252.1 
				312,252.4 312.6,252.7 313.3,253 314.1,253.3 314.8,253.3 315.4,253.3 316.3,253.3 317.2,253.4 317.9,253.7 318.4,253.9 
				318.5,254 318.8,254.3 319.1,254.8 319.1,253.9 319.4,252.8 319.7,251.6 320.3,250.4 320.6,249.9 321,249.3 321.5,248.8 
				321.8,248.4 322.4,247.9 323,247.6 324.2,246.7 325.1,246 325.9,244.8 326.2,244.4 326.5,243.8 326.7,243.3 326.7,242.9 
				326.5,242.3 326.5,242.1 326.2,242 325.6,241.5 324.8,241.4 324.2,241.2 323.7,241.1 323.1,240.8 322.8,240.6 322.7,240.3 
				322.4,240 322.2,239.7 322.1,239.2 322.1,238.6 322.1,238 322.2,237.2 322.2,236.6 322.1,236 321.8,235.4 321.6,235.3 321.3,235 
				321,234.7 320.6,234.7 320.2,234.7 319.7,234.7 319,235 318.2,235.4 317.8,235.4 317.2,235.6 316.6,235.7 316,235.7 315.8,235.6 
				315.5,235.4 315.4,235.3 315.2,235 315.1,234.7 315.1,234.1 314.8,233.9 314.1,233.2 313.2,232.5 312.7,232.2 312.1,231.7 
				311.7,231.6 311.1,231.6 310.6,231.7 310.3,231.9 310.3,232.2 309.9,232.8 309.7,233.7 309.6,234.8 			"/>
			<polygon class="st3" points="150,227.1 125.6,223.5 125,227.7 135.3,229.2 134.1,238 138.4,238.6 139.7,229.8 145.1,230.5 
				143.6,240.6 147.9,241.4 			"/>
			<polygon class="st3" points="147.3,242.7 122.9,243.8 123.7,259.2 128,259.1 127.4,247.8 133.8,247.5 134.2,257.3 138.5,257.1 
				138.1,247.2 143.3,247 143.7,257.7 148,257.6 			"/>
			<polygon class="st3" points="138.1,275.4 138.1,279.7 138.2,279.7 139.6,279.6 140.9,279.3 142.1,279 143.4,278.5 144.5,278.1 
				145.5,277.6 146.4,277 147.3,276.6 148,276 148.8,275.3 149.4,274.5 149.8,273.9 150.3,273.2 150.4,272.4 150.7,271.6 
				150.9,270.8 150.7,269.9 150.6,269 148.6,260.1 138.1,262.5 138.1,266.6 145.4,265 146.3,269.3 146.4,269.8 146.4,270.2 
				146.3,270.8 146.1,271.3 146,271.6 145.8,272.1 145.4,272.4 145.1,272.7 144.2,273.5 142.8,274.1 141.4,274.5 139.7,275.1 			"/>
			<polygon class="st3" points="138.1,266.6 138.1,262.5 124.7,265.5 126.6,274.4 126.8,275.3 127.2,276 127.7,276.6 128.3,277.2 
				128.9,277.8 129.6,278.4 130.5,278.8 131.4,279.1 132.3,279.4 133.5,279.6 134.5,279.7 135.7,279.9 136.9,279.7 138.1,279.7 
				138.1,275.4 137.9,275.4 136.3,275.6 134.8,275.6 133.6,275.3 132.4,275 132,274.5 131.7,274.4 131.2,273.9 131.1,273.6 
				130.8,273.3 130.7,272.7 129.8,268.4 			"/>
			<polygon class="st3" points="153.1,278.7 130.1,287.5 135.4,301.7 139.7,300.1 135.6,289.7 141.7,287.5 145.1,296.7 149.1,295.2 
				145.7,285.8 150.4,284 154.1,294 158.3,292.5 			"/>
			<polygon class="st3" points="156.5,310 156.5,313.8 157.3,313.8 158,313.9 158.9,313.8 159.8,313.6 160.7,313.2 161.6,312.9 
				162.2,312.4 162.9,312 163.4,311.5 163.8,311.1 164.1,310.5 164.5,310 164.8,309.4 165,308.9 165.3,308.3 165.3,307.7 
				165.3,306.9 165.3,306.3 165.3,305.7 165.1,305.1 164.8,304.5 164.7,304 159.3,295 156.5,296.7 156.5,301.4 157.9,300.7 
				160.4,305.6 160.8,306 161,306.6 161,307.1 160.7,307.7 160.4,308.1 160.1,308.6 159.6,309 159,309.4 158.3,309.7 157.7,310 
				157.1,310 156.7,310 			"/>
			<polygon class="st3" points="156.5,301.4 156.5,296.7 138.1,307.2 140.2,310.8 148.5,306 150.7,309.9 151,310.6 151.2,311.2 
				151.3,311.8 151.3,312.3 151,312.9 150.7,313.2 150.3,313.8 149.5,314.2 146.3,316.3 145.4,316.9 144.2,317.8 146.6,321.9 
				147.2,321.5 147.2,321 147.3,320.6 147.9,320.2 148.5,319.7 152.1,317.6 152.8,317 153.5,316.7 154,316.3 154.3,315.7 
				154.7,315.1 154.7,314.7 154.9,314.1 155,313.3 155,313 155.8,313.5 156.5,313.8 156.5,313.8 156.5,310 155.9,309.9 155.6,309.6 
				155.2,309.2 154.7,308.7 152.1,304 			"/>
			<polygon class="st3" points="165.4,327.4 165.4,334.9 175.8,319.3 172.6,315.4 165.4,318.7 165.4,323.1 170,320.9 			"/>
			<polygon class="st3" points="165.4,323.1 165.4,318.7 149.2,325.9 152.2,329.4 156.8,327.1 161.6,332.8 158.6,336.9 161.6,340.5 
				165.4,334.9 165.4,327.4 164.1,329.1 161,325.2 			"/>
			<polygon class="st3" points="181.5,325.2 165.9,344.4 177.2,353.3 179.8,349.9 172.1,343.6 184.8,327.9 			"/>
			<polygon class="st3" points="203.9,352.6 203.9,367.7 205.1,368.2 205.3,367.7 205.1,367.1 205.1,366.7 205.1,366.1 205.6,365.3 
				207,361.5 207.5,360.7 207.6,360 207.8,359.2 207.9,358.6 207.8,358 207.6,357.5 207.5,357 207,356.4 206.9,356.1 207.6,356.1 
				208.4,355.8 209.1,355.5 209.9,355.1 210.6,354.5 211.1,353.7 211.7,353 212.1,352.1 212.4,351.5 212.7,350.8 212.7,350 
				212.8,349.4 212.8,348.7 212.8,348.1 212.8,347.5 212.7,346.8 212.5,346.2 212.1,345.7 212,345.1 211.5,344.8 211.1,344.4 
				210.6,343.8 210.2,343.5 209.6,343.2 203.9,340.7 203.9,345.4 207,346.8 207.5,347.1 207.9,347.5 208.2,347.9 208.4,348.4 
				208.5,349 208.4,349.6 208.2,350.2 208.1,350.9 207.6,351.5 207.2,352 206.9,352.4 206.5,352.7 205.9,353 205.3,353 204.8,352.8 
				204.2,352.7 			"/>
			<polygon class="st3" points="203.9,345.4 203.9,340.7 200.1,338.7 189.7,361.2 193.5,363 197.5,354.2 201.5,356.1 202.3,356.4 
				202.7,356.7 203.2,357.2 203.5,357.6 203.5,358.2 203.5,358.8 203.3,359.4 203,360.1 201.5,363.7 201.1,364.9 200.8,366.2 
				203.9,367.7 203.9,352.6 199.3,350.5 202,344.4 			"/>
			<polygon class="st3" points="217.5,346.5 210.8,370.1 225.5,374.2 226.7,370.1 216,367.1 217.6,361 227.1,363.7 228.3,359.4 
				218.9,356.7 220.1,351.8 230.5,354.8 231.7,350.6 			"/>
			<polygon class="st3" points="248.2,360.6 248.2,359.7 248.4,358.8 248.2,358 248.1,357.2 247.9,356.4 247.6,355.8 247.3,355.1 
				246.9,354.5 246.4,353.9 245.8,353.4 245.4,353 244.6,352.6 243.9,352.3 243.2,351.8 242.4,351.7 241.5,351.5 240.6,351.4 
				239.9,351.4 239,351.4 238.3,351.5 237.5,351.8 236.9,352 236.3,352.3 235.7,352.7 235.1,353.1 234.7,353.7 234.2,354.3 
				233.8,354.9 233.5,355.5 233.2,356.3 233.1,357.2 232.8,358 232.6,359.2 232.8,360.4 233.1,361.5 233.4,362.4 233.8,363.3 
				234.5,364 235.4,364.6 236.5,365.2 241.8,367.7 242.1,368 242.6,368.2 242.7,368.6 243,368.9 243.2,369.2 243.2,369.6 
				243.3,370.1 243.3,370.5 243.2,371.1 242.7,371.7 242.4,372.3 242,372.6 241.2,372.9 240.5,372.9 239.6,372.9 238.7,372.9 
				237.7,372.8 236.9,372.3 236.3,372 235.7,371.6 235.4,370.8 235.1,370.1 235,369.2 235,368.3 231.1,367.7 231,368.6 231,369.6 
				231,370.5 231.1,371.4 231.3,372.2 231.6,372.9 232,373.7 232.5,374.2 232.9,374.8 233.4,375.3 233.9,375.7 234.7,376 
				235.4,376.5 236.3,376.8 237.2,376.9 238.1,377.2 239,377.4 240,377.4 240.8,377.4 241.5,377.2 242.4,376.9 243.2,376.8 
				243.8,376.3 244.4,376 244.9,375.4 245.5,374.8 245.8,374.2 246.3,373.7 246.7,372.9 246.9,372.2 247.2,371.3 247.5,370.4 
				247.5,369 247.5,367.7 247.3,367.3 247,366.7 246.9,366.1 246.6,365.6 246,364.9 245.4,364.3 244.6,363.8 243.8,363.4 
				238.1,360.7 237.8,360.6 237.5,360.3 237.2,360 236.9,359.7 236.9,359.2 236.9,358.9 236.8,358.6 236.9,358 236.9,357.5 
				237.2,356.9 237.5,356.4 238.1,356.1 238.7,355.8 239.3,355.7 240,355.5 240.8,355.7 241.7,355.8 242.4,356.1 243,356.6 
				243.5,357 243.8,357.6 244.1,358.2 244.2,359.1 244.2,359.8 			"/>
			<polygon class="st3" points="251,354 254.3,378.4 269.6,376.2 269,371.9 257.9,373.5 257,367.1 266.8,365.8 266.2,361.5 
				256.4,363 255.6,357.8 266.3,356.3 265.8,352 			"/>
			<polygon class="st3" points="278.1,369.3 278.1,374.2 279.3,373.8 			"/>
			<polygon class="st3" points="278.1,359.8 278.1,364.1 280.9,363.3 281.8,363.1 282.4,363 283,363.1 283.4,363.3 283.7,363.7 
				284.2,364.1 284.5,364.6 284.9,365.5 286.1,369 286.4,370.2 287.2,371.4 291.8,370.1 291.5,369.5 291,369.3 290.6,368.9 
				290.3,368.5 290,367.7 288.6,363.7 288.5,363 288,362.2 287.9,361.6 287.3,361.2 287,360.7 286.6,360.4 286,360.1 285.4,359.8 
				284.9,359.8 285.5,359.2 286,358.6 286.3,357.9 286.6,357 286.7,356.1 286.7,355.4 286.6,354.3 286.3,353.4 286.1,352.7 
				285.7,352 285.5,351.4 285.1,350.8 284.6,350.3 284.2,349.9 283.6,349.4 283.1,349.1 282.7,348.7 282.1,348.5 281.5,348.4 
				280.9,348.2 280.3,348.1 279.7,348.1 279.1,348.2 278.4,348.4 278.1,348.5 278.1,353 278.8,352.7 279.6,352.6 280,352.7 
				280.5,352.8 281.1,353 281.5,353.4 281.8,353.9 282.1,354.5 282.4,355.2 282.5,356 282.5,356.6 282.4,357 282.4,357.6 282.1,358 
				281.8,358.5 281.2,358.8 280.6,358.9 			"/>
			<polygon class="st3" points="278.1,353 278.1,348.5 268.4,351.4 275.4,374.8 278.1,374.2 278.1,369.3 276.8,364.6 278.1,364.1 
				278.1,359.8 275.6,360.6 273.6,354.3 			"/>
			<polygon class="st3" points="285.2,346.5 301.7,365.8 305.4,364.1 301.1,338.9 297.3,340.7 301.1,359.5 289.2,344.4 			"/>
			<polygon class="st3" points="302.3,338.1 316.1,358.3 328.9,349.9 326.4,346.2 317.2,352.4 313.6,347.2 321.6,341.7 319.3,338.1 
				311.1,343.6 308.3,339.3 317.2,333.4 314.7,329.8 			"/>
			<polygon class="st3" points="337.2,316.9 336.5,316.4 335.9,316 335.2,315.5 334.6,315.2 333.7,315.1 332.9,314.8 332.2,314.8 
				331.6,314.8 330.9,314.9 330.1,315.1 329.4,315.2 328.6,315.7 327.9,316 327.3,316.4 326.7,317 326.1,317.6 325.5,318.4 
				325.1,319 324.8,319.7 324.3,320.4 324.2,321.2 324,321.9 323.9,322.5 323.9,323.1 324,323.9 324.2,324.6 324.5,325.4 
				324.8,325.9 325.2,326.7 325.6,327.3 326.2,328 326.8,328.6 327.9,329.4 328.8,330 329.7,330.3 330.7,330.4 331.7,330.6 
				332.8,330.3 333.8,330 334.7,329.4 339.8,326.2 340.2,326.1 340.7,325.9 341,325.8 341.6,325.8 341.8,325.9 342.1,326.1 
				342.6,326.2 342.9,326.5 343.3,327 343.8,327.6 344.1,328.2 344.1,328.8 343.9,329.5 343.5,330.3 343,331 342.4,331.7 
				341.8,332.5 341.1,332.9 340.4,333.2 339.6,333.4 339,333.4 338.3,333.1 337.5,332.8 336.6,332.2 334.1,335.3 334.7,335.9 
				335.6,336.4 336.4,336.8 337.1,337.2 337.8,337.5 338.6,337.5 339.5,337.7 340.2,337.7 341,337.5 341.6,337.5 342.3,337.1 
				343,336.8 343.8,336.2 344.4,335.8 345.1,335.2 345.9,334.4 346.3,333.7 346.9,333.1 347.2,332.3 347.6,331.6 347.8,330.7 
				348.1,330 348.2,329.4 348.2,328.6 348.1,327.9 347.8,327.1 347.6,326.4 347.2,325.6 346.9,325.1 346.5,324.3 345.9,323.7 
				345.1,323 344.1,322.1 343.3,321.8 342.9,321.5 342.4,321.3 341.8,321.3 341.3,321.2 340.8,321.2 339.8,321.3 339,321.3 
				338.1,321.8 337.2,322.2 332,325.6 331.6,325.6 331.3,325.8 330.9,325.9 330.4,325.9 330.1,325.8 329.7,325.6 329.4,325.5 
				329.1,325.2 328.6,324.8 328.3,324.3 328,323.7 328,323.1 328.2,322.5 328.3,321.8 328.8,321.2 329.1,320.6 329.7,320 
				330.4,319.4 331,319.3 331.7,319.1 332.3,319.1 333.1,319.3 333.8,319.6 334.7,320 			"/>
			<polygon class="st3" points="332.3,311.5 349,313.6 357,318.4 359.2,314.8 351.4,310 341.7,296.4 339.2,300.4 346.3,309.3 
				335,307.4 			"/>
			<polygon class="st3" points="354.6,284 353.7,283.7 352.8,283.4 352.1,283.3 351.4,283.3 350.5,283.3 349.7,283.4 349,283.6 
				348.4,283.9 347.8,284.2 347.1,284.6 346.5,285.2 345.9,285.7 345.3,286.3 345,287 344.5,287.6 344.1,288.3 343.9,289.2 
				343.6,290.1 343.5,290.7 343.3,291.6 343.3,292.4 343.5,293.1 343.8,293.8 344.1,294.4 344.2,295 344.7,295.6 345.1,296.2 
				345.7,296.7 346.3,297.1 347.1,297.6 347.8,298.2 348.5,298.5 349.6,298.9 350.8,299 351.8,299 352.7,298.9 353.7,298.6 
				354.6,298.2 355.4,297.4 356.3,296.5 360,292.1 360.1,291.8 360.7,291.5 361,291.3 361.5,291 361.8,291 362.2,291 362.7,291 
				363,291.2 363.5,291.5 364.1,292.1 364.6,292.5 364.7,293.1 364.9,293.8 364.7,294.6 364.6,295.3 364.3,296.4 364,297.1 
				363.4,297.9 362.8,298.3 362.2,298.9 361.5,298.9 360.9,299 360,298.9 358.9,298.7 357.5,302.5 358.3,302.8 359.4,303.1 
				360.1,303.2 361,303.2 361.9,303.2 362.7,303.1 363.3,302.9 364,302.6 364.6,302.3 365.3,301.9 365.9,301.4 366.4,300.8 
				367.1,300.2 367.4,299.5 367.9,298.6 368.3,297.7 368.6,297 368.9,296.1 368.9,295.2 369,294.4 369,293.5 368.9,292.8 
				368.9,292.1 368.6,291.5 368.3,290.7 367.9,290.1 367.4,289.5 366.8,288.9 366.2,288.5 365.5,288 364.7,287.6 364,287.2 
				362.7,286.7 362.1,286.6 361.5,286.4 360.9,286.4 360.1,286.6 359.7,286.7 359.1,286.9 358.3,287.3 357.6,287.6 356.9,288.3 
				356.3,288.9 352.4,293.8 352.1,294.1 351.8,294.6 351.5,294.6 351.1,294.7 350.6,294.7 350.2,294.7 349.9,294.7 349.4,294.6 
				349,294.3 348.4,293.8 348.1,293.4 347.8,292.8 347.8,292.2 347.8,291.6 347.8,290.9 348.1,290.1 348.4,289.4 349,288.8 
				349.4,288.3 350,287.8 350.6,287.6 351.4,287.6 352.1,287.6 353,287.8 			"/>
			<polygon class="st3" points="348.1,280.2 352.3,281.4 353.9,275.6 373.4,280.5 374.5,276.5 354.9,271.6 356.4,265.6 352.3,264.4 
							"/>
			<polygon class="st3" points="352.6,262.8 376.8,266.3 379,251 374.5,250.4 373.1,261.6 366.8,260.7 368.3,250.9 364,250.3 
				362.5,260.1 357.3,259.4 358.9,248.8 354.6,248.1 			"/>
			<polygon class="st3" points="354.5,246.6 378.9,243.3 378.3,239.3 357.8,242.1 377.8,235.6 377.2,231.6 356.3,230.5 376.8,227.9 
				376.2,223.8 351.8,227.3 352.7,233.2 372.3,234.1 353.6,240.3 			"/>
			<polygon class="st3" points="357.2,210.5 357.8,210.5 358.2,210.3 359.2,209.9 360.1,209.4 360.9,208.8 361.6,207.9 362.1,207 
				362.4,206.6 362.5,206.2 362.5,205.4 362.7,205 362.5,204.4 362.5,203.8 362.1,202.9 361.6,201.8 360.9,201.1 360.1,200.5 
				359.2,199.9 358.8,199.8 358.2,199.6 357.8,199.5 357.2,199.5 356.6,199.5 356,199.6 355.1,199.9 354,200.5 353.3,201.1 
				352.7,201.8 352.3,202.4 352.1,202.9 352,203.3 351.8,203.8 351.7,204.4 351.7,205 351.7,205.4 351.8,206.2 352.1,207 
				352.7,207.9 353.3,208.8 354,209.4 354.6,209.7 355.1,209.9 355.5,210.2 356,210.3 356.6,210.5 			"/>
			<polygon class="st3" points="362.2,205 361.9,206.9 360.9,208.5 359.1,209.7 357.2,210 357.2,210.6 359.4,210.2 361.2,209 
				362.4,207.2 362.8,205 			"/>
			<polygon class="st3" points="357.2,199.8 359.1,200.2 360.9,201.3 361.9,203 362.2,205 362.8,205 362.4,202.7 361.2,201 
				359.4,199.8 357.2,199.3 			"/>
			<polygon class="st3" points="352,205 352.3,203 353.4,201.3 355.2,200.2 357.2,199.8 357.2,199.3 354.9,199.8 353.1,201 
				351.8,202.7 351.5,205 			"/>
			<polygon class="st3" points="357.2,210 355.2,209.7 353.4,208.5 352.3,206.9 352,205 351.5,205 351.8,207.2 353.1,209 
				354.9,210.2 357.2,210.6 			"/>
			<polygon class="st3" points="143.3,210.5 143.9,210.5 144.3,210.3 145.4,209.9 146.3,209.4 147.2,208.8 147.7,207.9 148.3,207 
				148.5,206.6 148.5,206.2 148.6,205.4 148.6,205 148.6,204.4 148.5,203.8 148.3,202.9 147.7,201.8 147.2,201.1 146.7,200.7 
				146.3,200.5 145.4,199.9 144.8,199.8 144.3,199.6 143.9,199.5 143.3,199.5 142.7,199.5 142.1,199.6 141.1,199.9 140.2,200.5 
				139.4,201.1 138.7,201.8 138.5,202.4 138.2,202.9 137.9,203.3 137.9,203.8 137.9,204.4 137.9,205 137.9,205.4 137.9,206.2 
				138.2,207 138.7,207.9 139.4,208.8 140.2,209.4 140.6,209.7 141.1,209.9 141.7,210.2 142.1,210.3 142.7,210.5 			"/>
			<polygon class="st3" points="148.5,205 147.9,206.9 146.9,208.5 145.4,209.7 143.3,210 143.3,210.6 145.5,210.2 147.3,209 
				148.5,207.2 149.1,205 			"/>
			<polygon class="st3" points="143.3,199.8 145.4,200.2 146.9,201.3 147.9,203 148.5,205 149.1,205 148.5,202.7 147.3,201 
				145.5,199.8 143.3,199.3 			"/>
			<polygon class="st3" points="138.1,205 138.5,203 139.7,201.3 141.2,200.2 143.3,199.8 143.3,199.3 141.1,199.8 139.1,201 
				137.9,202.7 137.5,205 			"/>
			<polygon class="st3" points="143.3,210 141.2,209.7 139.7,208.5 138.5,206.9 138.1,205 137.5,205 137.9,207.2 139.1,209 
				141.1,210.2 143.3,210.6 			"/>
		</g>
	</g>
</g>
</svg>
