<?xml version="1.0" encoding="UTF-8"?> <svg xmlns="http://www.w3.org/2000/svg" width="461.3" height="50" viewBox="0 0 461.3 50"><g id="Logo" transform="translate(-0.005)"><g id="Mark"><path id="Path_561" data-name="Path 561" d="M.015,0H19.3C37.157,0,47.515,10.285,47.515,24.714v.143c0,14.429-10.5,25.142-28.5,25.142h-19Zm19.5,37.714c8.285,0,13.786-4.571,13.786-12.643v-.143c0-8-5.5-12.643-13.786-12.643H13.872V37.714Z" transform="translate(-0.01)" fill="#1e376c"></path><path id="Path_562" data-name="Path 562" d="M90.921,0h40V12.143H104.778v8.5h23.643v11.5H104.778V50H90.921Z" transform="translate(-38.604 0)" fill="#1e376c"></path><path id="Path_563" data-name="Path 563" d="M170.758,0h21.429c12.642,0,20.785,6.5,20.785,17.571v.143c0,11.786-9.072,18-21.5,18h-6.857V50H170.758Zm20.428,24.857c4.929,0,7.929-2.572,7.929-6.5v-.143c0-4.285-3-6.571-8-6.571h-6.5V24.857Z" transform="translate(-72.497)" fill="#1e376c"></path><path id="Path_564" data-name="Path 564" d="M267.618,6.008V0H253.806V50h13.812V43.992h-3.453V40.539h3.453V37.086h-3.453V33.633h3.453V30.18h-3.453V26.727h3.453V23.273h-3.453V19.821h3.453V16.368h-3.453V12.914h3.453V9.461h-3.453V6.008Zm-5.653,34.057h-2.507V37.559h2.507Zm0-13.812h-2.507V23.746h2.507Zm0-13.812h-2.507V9.934h2.507Zm13.8,13.8h-2.486V23.757h2.486Zm-4.7-16.782h-3.453V6.008h3.453Zm-1.726,3.453H272.8v3.453h-3.453Zm1.726,10.359h-3.453V19.82h3.453Zm0,6.907h-3.453V26.727h3.453Zm-1.726,3.453H272.8v3.453h-3.453Zm-1.726,6.906h3.453v3.453h-3.453Zm6.953-31.18h2.507v2.507h-2.507Zm0,28.776h2.507v2.507h-2.507Zm2.416-18.212H274.48V17.416h2.507Zm0,12.086H274.48V29.5h2.507ZM281.916,26h-2.006V24h2.006Zm-.532-9.783h-2.005V14.214h2.005Zm-2.006,17.562h2.005v2.005h-2.005Z" transform="translate(-107.752)" fill="#1e376c"></path></g><g id="Text" transform="translate(195 -28.189)"><path id="Path_565" data-name="Path 565" d="M4.993,103.593c3.542,0,5.729,2.328,5.729,5.487,0,3.137-2.085,5.424-5.729,5.424H.316V103.593Zm-3.321,1.256v8.4H4.993a3.951,3.951,0,0,0,4.332-4.189,4.018,4.018,0,0,0-4.332-4.21Z" transform="translate(-0.016 -64.973)" fill="#a98b30"></path><path id="Path_566" data-name="Path 566" d="M15.018,103.592H23.6v1.256H16.375v3.2h4.372V109.3H16.375v3.948h7.672V114.5H15.018Z" transform="translate(-0.625 -64.973)" fill="#a98b30"></path><path id="Path_567" data-name="Path 567" d="M27.842,103.592H34.1c2.145,0,3.421,1.133,3.421,2.956a3.023,3.023,0,0,1-3.239,3.178H29.2V114.5H27.842Zm6.174,4.859c1.376,0,2.084-.628,2.084-1.782,0-1.132-.708-1.82-2.024-1.82H29.2v3.6Z" transform="translate(-1.154 -64.973)" fill="#a98b30"></path><path id="Path_568" data-name="Path 568" d="M43.812,103.592h1.134l5.4,10.912H48.874L47.4,111.568H41.363L39.926,114.5H38.469Zm2.976,6.7-2.409-4.838-2.389,4.838Z" transform="translate(-1.597 -64.973)" fill="#a98b30"></path><path id="Path_569" data-name="Path 569" d="M53.89,103.592h6.255c2.145,0,3.421,1.133,3.421,3.036a3.034,3.034,0,0,1-2.591,3.077l2.733,4.8h-1.5l-2.733-4.778h-4.23V114.5H53.89Zm6.174,4.859c1.376,0,2.084-.628,2.084-1.782,0-1.132-.708-1.82-2.024-1.82H55.246v3.6Z" transform="translate(-2.233 -64.973)" fill="#a98b30"></path><path id="Path_570" data-name="Path 570" d="M70.631,104.848H66.037v-1.256H76.582v1.256H71.988V114.5H70.631Z" transform="translate(-2.734 -64.973)" fill="#a98b30"></path><path id="Path_571" data-name="Path 571" d="M79.2,103.592h1.255l4.412,6.68,4.433-6.68h1.235V114.5H89.2v-8.522l-4.332,6.457-4.332-6.457V114.5H79.2Z" transform="translate(-3.281 -64.973)" fill="#a98b30"></path><path id="Path_572" data-name="Path 572" d="M95.716,103.592H104.3v1.256H97.073v3.2h4.372V109.3H97.073v3.948h7.672V114.5H95.716Z" transform="translate(-3.964 -64.973)" fill="#a98b30"></path><path id="Path_573" data-name="Path 573" d="M108.6,103.592h.708l7.085,8.158v-8.158h1.357V114.5h-.689l-7.105-8.157V114.5H108.6Z" transform="translate(-4.497 -64.973)" fill="#a98b30"></path><path id="Path_574" data-name="Path 574" d="M125.282,104.848h-4.595v-1.256h10.546v1.256h-4.595V114.5h-1.356Z" transform="translate(-4.998 -64.973)" fill="#a98b30"></path><path id="Path_575" data-name="Path 575" d="M141.386,109.069a5.659,5.659,0,1,1,5.649,5.707,5.509,5.509,0,0,1-5.649-5.707m9.9,0a4.256,4.256,0,1,0-4.251,4.434,4.216,4.216,0,0,0,4.251-4.434" transform="translate(-5.855 -64.962)" fill="#a98b30"></path><path id="Path_576" data-name="Path 576" d="M157.041,103.592h8.583v1.256H158.4v3.2h4.372V109.3H158.4v5.2h-1.356Z" transform="translate(-6.505 -64.973)" fill="#a98b30"></path><path id="Path_577" data-name="Path 577" d="M179.108,107.791h3.927v2.045h-3.927v4.675h-2.126v-10.73h8.624v2.045h-6.5Z" transform="translate(-7.33 -64.981)" fill="#a98b30"></path><rect id="Rectangle_411" data-name="Rectangle 411" width="2.147" height="10.769" transform="translate(180.971 38.801)" fill="#a98b30"></rect><path id="Path_578" data-name="Path 578" d="M197.424,107.852v6.659H195.3v-10.73h1.3l5.891,6.661v-6.661h2.125v10.73h-1.276Z" transform="translate(-8.087 -64.981)" fill="#a98b30"></path><path id="Path_579" data-name="Path 579" d="M215.737,111.86h-4.879l-1.275,2.651h-2.349l5.264-10.73h1.6l5.3,10.73h-2.348Zm-3.867-2.045h2.854l-1.437-2.875Z" transform="translate(-8.583 -64.981)" fill="#a98b30"></path><path id="Path_580" data-name="Path 580" d="M224.316,107.852v6.659H222.19v-10.73h1.3l5.891,6.661v-6.661H231.5v10.73h-1.276Z" transform="translate(-9.204 -64.981)" fill="#a98b30"></path><path id="Path_581" data-name="Path 581" d="M245.731,111.79a5.936,5.936,0,0,1-1.924,2.165,5.045,5.045,0,0,1-2.954.809,5.445,5.445,0,0,1-4.069-1.558,5.711,5.711,0,0,1-1.538-3.99,5.918,5.918,0,0,1,1.558-4.108,5.5,5.5,0,0,1,4.069-1.558,5.654,5.654,0,0,1,2.895.728,5.876,5.876,0,0,1,1.863,1.761l-1.8,1.274a3.684,3.684,0,0,0-1.216-1.274,3.521,3.521,0,0,0-1.76-.426,3.2,3.2,0,0,0-2.43.933,3.66,3.66,0,0,0-1.011,2.651,3.721,3.721,0,0,0,1.032,2.63,3.175,3.175,0,0,0,2.327.87,3.269,3.269,0,0,0,2.025-.647,3.849,3.849,0,0,0,1.235-1.539Z" transform="translate(-9.744 -64.971)" fill="#a98b30"></path><rect id="Rectangle_412" data-name="Rectangle 412" width="2.147" height="10.769" transform="translate(239.109 38.801)" fill="#a98b30"></rect><path id="Path_582" data-name="Path 582" d="M262.422,111.86h-4.878l-1.276,2.651h-2.349l5.264-10.73h1.6l5.3,10.73h-2.349Zm-3.867-2.045h2.854l-1.436-2.875Z" transform="translate(-10.517 -64.981)" fill="#a98b30"></path><path id="Path_583" data-name="Path 583" d="M268.875,103.782h2.145v8.685h6.418v2.045h-8.563Z" transform="translate(-11.133 -64.981)" fill="#a98b30"></path><path id="Path_584" data-name="Path 584" d="M6.094,123.147a3.651,3.651,0,0,1,2.672.933,3.087,3.087,0,0,1,.869,2.327,3.4,3.4,0,0,1-.891,2.429,3.314,3.314,0,0,1-2.469.93H2.146v4.11H0v-10.73ZM5.911,127.7a1.885,1.885,0,0,0,1.133-.3,1.33,1.33,0,0,0,.405-1.011,1.2,1.2,0,0,0-.364-.912,1.57,1.57,0,0,0-1.073-.285H2.146V127.7Z" transform="translate(0 -65.783)" fill="#a98b30"></path><path id="Path_585" data-name="Path 585" d="M18.807,129.686H15.73v4.191H13.6v-10.73h6.153a3.579,3.579,0,0,1,2.591.912,3.346,3.346,0,0,1,.871,2.429,3.073,3.073,0,0,1-.607,1.965,3.429,3.429,0,0,1-1.5,1.052l2.551,4.372H21.278ZM20.69,127.3a1.341,1.341,0,0,0,.344-.951,1.126,1.126,0,0,0-.446-.952,2.073,2.073,0,0,0-1.133-.2H15.73v2.431h3.886a1.413,1.413,0,0,0,1.074-.326" transform="translate(-0.566 -65.783)" fill="#a98b30"></path><path id="Path_586" data-name="Path 586" d="M26.512,128.522a5.557,5.557,0,1,1,5.546,5.608,5.419,5.419,0,0,1-5.546-5.608m2.186,0a3.375,3.375,0,1,0,3.361-3.542,3.336,3.336,0,0,0-3.361,3.542" transform="translate(-1.099 -65.773)" fill="#a98b30"></path><path id="Path_587" data-name="Path 587" d="M45.843,133.877H43.718v-8.685h-4.13v-2.045H49.972v2.045h-4.13Z" transform="translate(-1.642 -65.783)" fill="#a98b30"></path><path id="Path_588" data-name="Path 588" d="M52.6,123.147h8.624v2.045h-6.5v1.965h3.947V129.2H54.726v2.63h6.9v2.045H52.6Z" transform="translate(-2.181 -65.783)" fill="#a98b30"></path><path id="Path_589" data-name="Path 589" d="M74.979,131.155a5.939,5.939,0,0,1-1.925,2.165,5.043,5.043,0,0,1-2.954.809,5.441,5.441,0,0,1-4.068-1.558,5.711,5.711,0,0,1-1.539-3.99,5.922,5.922,0,0,1,1.558-4.108,5.505,5.505,0,0,1,4.07-1.558,5.651,5.651,0,0,1,2.894.728,5.876,5.876,0,0,1,1.863,1.761l-1.8,1.274a3.686,3.686,0,0,0-1.216-1.274,3.521,3.521,0,0,0-1.76-.426,3.2,3.2,0,0,0-2.429.933,3.66,3.66,0,0,0-1.011,2.651,3.721,3.721,0,0,0,1.031,2.63,3.175,3.175,0,0,0,2.327.87,3.265,3.265,0,0,0,2.025-.647,3.859,3.859,0,0,0,1.236-1.54Z" transform="translate(-2.674 -65.773)" fill="#a98b30"></path><path id="Path_590" data-name="Path 590" d="M83.718,133.877H81.593v-8.685h-4.13v-2.045H87.848v2.045h-4.13Z" transform="translate(-3.208 -65.783)" fill="#a98b30"></path><rect id="Rectangle_413" data-name="Rectangle 413" width="2.145" height="10.769" transform="translate(87.15 57.364)" fill="#a98b30"></rect><path id="Path_591" data-name="Path 591" d="M96.939,128.522a5.557,5.557,0,1,1,5.546,5.608,5.42,5.42,0,0,1-5.546-5.608m2.186,0a3.375,3.375,0,1,0,3.361-3.542,3.336,3.336,0,0,0-3.361,3.542" transform="translate(-4.018 -65.773)" fill="#a98b30"></path><path id="Path_592" data-name="Path 592" d="M114.422,127.217v6.659H112.3v-10.73h1.3l5.891,6.661v-6.661h2.125v10.73h-1.276Z" transform="translate(-4.65 -65.783)" fill="#a98b30"></path><path id="Path_593" data-name="Path 593" d="M143.015,132.723a5.353,5.353,0,0,1-3.765,1.437,4.257,4.257,0,0,1-3.037-1.053,3.506,3.506,0,0,1-1.072-2.63,3.568,3.568,0,0,1,.89-2.389,4.7,4.7,0,0,1,1.943-1.337l-3.1-3.6h7.673l1.255,1.984h-4.453l3.886,4.554a8.481,8.481,0,0,0,1.053-1.215l1.336,1.722c-.3.383-.648.77-1.032,1.174l2.125,2.428h-2.752Zm-3.826-4.494a3.281,3.281,0,0,0-1.215.789,2.044,2.044,0,0,0-.627,1.437,1.562,1.562,0,0,0,.486,1.135,2.269,2.269,0,0,0,1.457.505,4.135,4.135,0,0,0,2.409-.931Z" transform="translate(-5.585 -65.783)" fill="#a98b30"></path><rect id="Rectangle_414" data-name="Rectangle 414" width="2.145" height="10.769" transform="translate(151.746 57.364)" fill="#a98b30"></rect><path id="Path_594" data-name="Path 594" d="M167.359,127.217v6.659h-2.126v-10.73h1.3l5.891,6.661v-6.661h2.125v10.73H173.27Z" transform="translate(-6.845 -65.783)" fill="#a98b30"></path><path id="Path_595" data-name="Path 595" d="M181.746,127.217v6.659H179.62v-10.73h1.3l5.891,6.661v-6.661h2.125v10.73h-1.275Z" transform="translate(-7.439 -65.783)" fill="#a98b30"></path><path id="Path_596" data-name="Path 596" d="M193.1,128.522a5.557,5.557,0,1,1,5.546,5.608,5.42,5.42,0,0,1-5.546-5.608m2.186,0a3.375,3.375,0,1,0,3.361-3.542,3.336,3.336,0,0,0-3.361,3.542" transform="translate(-7.998 -65.773)" fill="#a98b30"></path><path id="Path_597" data-name="Path 597" d="M211.36,133.877l-5.081-10.73h2.349l3.4,7.269,3.4-7.269H217.8l-5.1,10.73Z" transform="translate(-8.541 -65.783)" fill="#a98b30"></path><path id="Path_598" data-name="Path 598" d="M227.288,131.225h-4.878l-1.276,2.651h-2.349l5.264-10.73h1.6l5.3,10.73H228.6Zm-3.867-2.045h2.854l-1.436-2.875Z" transform="translate(-9.063 -65.783)" fill="#a98b30"></path><path id="Path_599" data-name="Path 599" d="M237.25,133.877h-2.125v-8.685H231v-2.045H241.38v2.045h-4.13Z" transform="translate(-9.568 -65.783)" fill="#a98b30"></path><rect id="Rectangle_415" data-name="Rectangle 415" width="2.147" height="10.769" transform="translate(234.325 57.364)" fill="#a98b30"></rect><path id="Path_600" data-name="Path 600" d="M250.471,128.522a5.557,5.557,0,1,1,5.546,5.608,5.419,5.419,0,0,1-5.546-5.608m2.186,0a3.375,3.375,0,1,0,3.361-3.542,3.336,3.336,0,0,0-3.361,3.542" transform="translate(-10.373 -65.773)" fill="#a98b30"></path><path id="Path_601" data-name="Path 601" d="M267.954,127.217v6.659h-2.126v-10.73h1.3l5.891,6.661v-6.661h2.126v10.73h-1.276Z" transform="translate(-11.01 -65.783)" fill="#a98b30"></path></g></g></svg> 