<svg width="300" height="103" viewBox="0 0 300 103" fill="none" xmlns="http://www.w3.org/2000/svg">
<g clip-path="url(#clip0_581_1889)">
<path d="M102.298 51.3551C102.298 79.6055 79.3997 102.504 51.1492 102.504C22.8988 102.504 0 79.6055 0 51.3551C0 23.1046 22.8988 0.20583 51.1492 0.20583C79.4511 0.20583 102.298 23.1046 102.298 51.3551ZM51.2007 1.9554C23.9794 1.9554 1.9554 24.0309 1.9554 51.2007C1.9554 78.422 24.0309 100.446 51.2007 100.446C78.422 100.446 100.446 78.3705 100.446 51.2007C100.446 24.0309 78.422 1.9554 51.2007 1.9554Z" fill="#A30046"/>
<path d="M89.7429 38.9022C89.7429 38.9022 87.9418 37.6158 88.8166 39.8285C89.7429 42.0412 98.0276 62.6758 78.6794 79.2453C71.218 85.6261 62.8303 87.0155 56.2437 84.9571C77.8046 67.3071 58.405 44.2024 56.0894 40.9606C53.7737 37.7187 52.6931 34.2196 54.2883 32.2642C55.8321 30.3088 55.9864 25.8834 54.2883 23.825C52.5902 21.7667 51.4581 17.7016 51.4581 17.7016C51.3038 17.4957 51.2008 17.7016 51.2008 17.7016C51.2008 17.7016 50.0173 21.7153 48.3707 23.825C46.6725 25.8834 46.8269 30.3088 48.3707 32.2642C49.9144 34.2196 48.8852 37.7187 46.5696 40.9606C44.254 44.2024 24.8544 67.3071 46.4153 84.9571C39.8286 87.0155 31.3895 85.6776 23.9796 79.2453C4.63138 62.6244 12.9676 41.9897 13.8424 39.8285C14.7686 37.6158 12.9161 38.9022 12.9161 38.9022C-2.41837 69.5712 29.2797 98.3877 51.3552 88.0961C73.3792 98.3877 105.077 69.5712 89.7429 38.9022ZM49.3998 55.163C49.3998 55.163 50.1202 54.1853 51.2008 53.9794H51.4581C52.4873 54.0823 53.2592 55.163 53.2592 55.163C61.2351 67.1527 58.5079 77.4957 51.3552 82.5386C44.1511 77.4957 41.3724 67.1527 49.3998 55.163Z" fill="#A30046"/>
<path d="M55.3176 37.2556C56.604 39.2624 61.544 46.4151 62.3673 47.6501C63.1906 48.9365 66.6898 52.0755 68.3364 48.2161C68.3364 48.2161 72.3502 50.9949 73.8424 46.7753C73.8424 46.7753 78.628 48.4734 78.731 44.0995C78.731 44.0995 83.3107 46.2093 82.8476 41.1664C82.8476 41.1664 86.5526 41.8868 85.6263 38.0789C85.6263 38.0789 89.074 37.7187 86.9642 33.7564C86.9642 33.7564 90.1546 31.9554 86.9128 27.8388C86.9128 27.8388 86.2953 27.3242 86.5526 25.9348C86.8099 24.5455 84.9059 20.5317 79.5028 18.319C74.0997 16.1063 69.9316 18.2676 70.3433 21.5609C70.3433 21.5609 70.8064 23.259 71.9385 24.2882C73.0706 25.3173 74.7172 26.8096 75.7464 27.7359C76.7756 28.6106 77.1872 28.0961 77.3416 27.9417C77.4445 27.7359 77.4445 27.3242 76.7756 26.6038C76.0551 25.8834 73.8424 23.6707 74.8201 21.8182C75.7978 19.9657 78.7824 22.4357 79.1426 22.6415C79.5028 22.8473 81.6641 25.163 80.0174 27.7359C78.3708 30.2573 74.8202 33.1904 66.1238 34.4769C66.1238 34.4769 63.4479 34.94 60.1546 34.7856C56.8613 34.6827 56.604 34.9914 56.604 34.9914C56.604 34.9914 54.0826 35.1973 55.3176 37.2556Z" fill="#A30046"/>
<path d="M15.1804 33.7564C13.0706 37.7187 16.5183 38.0789 16.5183 38.0789C15.6435 41.8868 19.2971 41.1664 19.2971 41.1664C18.8339 46.2093 23.4137 44.0995 23.4137 44.0995C23.5166 48.4734 28.3022 46.7753 28.3022 46.7753C29.8459 51.0463 33.8082 48.2161 33.8082 48.2161C35.4549 52.0755 38.954 48.9365 39.7773 47.6501C40.6007 46.3636 45.5406 39.2624 46.8271 37.2556C48.1135 35.1973 45.5406 34.9914 45.5406 34.9914C45.5406 34.9914 45.2833 34.6827 41.99 34.7856C38.6967 34.8885 36.0209 34.4768 36.0209 34.4768C27.3245 33.1904 23.7739 30.3088 22.1273 27.7359C20.4806 25.2144 22.6418 22.8473 23.002 22.6415C23.3622 22.4357 26.3468 19.9657 27.3245 21.8182C28.3022 23.6707 26.0381 25.8834 25.3691 26.6038C24.7002 27.2727 24.7002 27.6844 24.8545 27.8902C24.9574 28.0961 25.4206 28.6106 26.4497 27.6844C27.4789 26.8096 29.1255 25.2659 30.2576 24.2367C31.3897 23.2076 31.8528 21.5094 31.8528 21.5094C32.3159 18.2161 28.0964 16.0549 22.6933 18.2676C17.2902 20.4803 15.3863 24.494 15.6435 25.8834C15.9008 27.2727 15.2833 27.7873 15.2833 27.7873C11.99 31.9554 15.1804 33.7564 15.1804 33.7564Z" fill="#A30046"/>
<path d="M109.966 80.4803H113.619C114.34 80.4803 114.854 80.5317 115.215 80.5832C115.575 80.6347 115.883 80.789 116.141 80.9434C116.398 81.1492 116.655 81.4065 116.861 81.7153C117.067 82.024 117.118 82.3842 117.118 82.7959C117.118 83.2076 117.016 83.6192 116.758 83.9794C116.552 84.3396 116.192 84.5969 115.832 84.8028C116.398 84.9571 116.81 85.2144 117.118 85.6261C117.427 86.0377 117.582 86.4494 117.582 87.0155C117.582 87.4271 117.479 87.8388 117.273 88.199C117.067 88.5592 116.81 88.9194 116.501 89.1252C116.192 89.3825 115.781 89.4854 115.266 89.5369C114.957 89.5884 114.237 89.5884 113.053 89.5884H109.966V80.4803ZM111.818 82.024V84.1338H113.002C113.722 84.1338 114.185 84.1338 114.34 84.0823C114.648 84.0309 114.906 83.928 115.06 83.7736C115.266 83.6192 115.317 83.3619 115.317 83.0532C115.317 82.7959 115.215 82.5386 115.06 82.3842C114.906 82.2299 114.649 82.1269 114.391 82.0755C114.185 82.0755 113.671 82.024 112.796 82.024H111.818ZM111.818 85.6261V88.0446H113.516C114.185 88.0446 114.597 88.0446 114.751 87.9932C115.009 87.9417 115.266 87.8388 115.42 87.633C115.575 87.4271 115.678 87.1698 115.678 86.8611C115.678 86.6038 115.626 86.3465 115.472 86.1407C115.317 85.9348 115.163 85.8319 114.906 85.729C114.649 85.6261 114.134 85.5746 113.259 85.5746H111.818V85.6261Z" fill="#A30046"/>
<path d="M127.359 89.5884H125.352L124.58 87.53H120.926L120.155 89.5884H118.199L121.75 80.4803H123.705L127.359 89.5884ZM123.963 85.9863L122.728 82.5901L121.493 85.9863H123.963Z" fill="#A30046"/>
<path d="M128.336 89.5884V80.4803H130.137L133.842 86.5523V80.4803H135.541V89.5884H133.688L130.035 83.6707V89.5884H128.336Z" fill="#A30046"/>
<path d="M137.547 89.5884V80.4803H139.4V84.5455L143.105 80.4803H145.575L142.127 84.0309L145.729 89.5884H143.362L140.841 85.3173L139.348 86.8611V89.5884H137.547Z" fill="#A30046"/>
<path d="M149.846 85.1115C149.846 84.1853 150 83.4134 150.257 82.7959C150.463 82.3328 150.772 81.9211 151.081 81.5609C151.441 81.2007 151.853 80.9434 152.264 80.7376C152.83 80.4803 153.499 80.3774 154.22 80.3774C155.558 80.3774 156.638 80.789 157.461 81.6124C158.285 82.4357 158.645 83.6192 158.645 85.0601C158.645 86.5523 158.233 87.6844 157.461 88.5077C156.638 89.3311 155.609 89.7427 154.271 89.7427C152.933 89.7427 151.853 89.3311 151.029 88.5077C150.257 87.6844 149.846 86.5523 149.846 85.1115ZM151.75 85.0601C151.75 86.0892 152.007 86.8611 152.47 87.4271C152.933 87.9417 153.551 88.2504 154.271 88.2504C154.991 88.2504 155.609 87.9932 156.072 87.4786C156.535 86.964 156.793 86.1407 156.793 85.1115C156.793 84.0823 156.587 83.3105 156.124 82.7959C155.66 82.2813 155.043 82.024 154.323 82.024C153.551 82.024 152.933 82.2813 152.47 82.7959C152.007 83.2076 151.75 83.9794 151.75 85.0601Z" fill="#A30046"/>
<path d="M160.137 89.5884V80.4803H166.364V82.024H161.938V84.1853H165.746V85.729H161.938V89.5884H160.137Z" fill="#A30046"/>
<path d="M171.407 89.5884V80.4803H174.34C175.472 80.4803 176.192 80.5317 176.501 80.6347C177.016 80.789 177.479 81.0463 177.788 81.5094C178.148 81.9726 178.302 82.5386 178.302 83.259C178.302 83.8251 178.199 84.2882 177.993 84.6484C177.788 85.0086 177.53 85.3173 177.221 85.5232C176.913 85.729 176.604 85.8834 176.244 85.9348C175.781 86.0378 175.163 86.0892 174.34 86.0892H173.156V89.5369H171.407V89.5884ZM173.259 82.024V84.5969H174.288C175.009 84.5969 175.472 84.5455 175.729 84.4426C175.986 84.3396 176.141 84.1853 176.295 83.9794C176.45 83.7736 176.501 83.5163 176.501 83.259C176.501 82.9503 176.398 82.6415 176.192 82.4357C175.986 82.2299 175.729 82.0755 175.472 82.024C175.266 81.9726 174.803 81.9726 174.134 81.9726H173.259V82.024Z" fill="#A30046"/>
<path d="M187.153 89.5884H185.146L184.374 87.53H180.721L179.949 89.5884H178.045L181.596 80.4803H183.551L187.153 89.5884ZM183.808 85.9863L182.573 82.5901L181.338 85.9863H183.808Z" fill="#A30046"/>
<path d="M188.13 89.5884V80.4803H191.063C192.196 80.4803 192.916 80.5317 193.225 80.6347C193.739 80.789 194.202 81.0463 194.511 81.5094C194.871 81.9726 195.026 82.5386 195.026 83.259C195.026 83.8251 194.923 84.2882 194.717 84.6484C194.511 85.0086 194.254 85.3173 193.945 85.5232C193.636 85.729 193.328 85.8834 192.967 85.9348C192.504 86.0378 191.887 86.0892 191.063 86.0892H189.88V89.5369H188.13V89.5884ZM189.983 82.024V84.5969H191.012C191.732 84.5969 192.196 84.5455 192.453 84.4426C192.71 84.3396 192.865 84.1853 193.019 83.9794C193.173 83.7736 193.225 83.5163 193.225 83.259C193.225 82.9503 193.122 82.6415 192.916 82.4357C192.71 82.2299 192.453 82.0755 192.196 82.024C191.99 81.9726 191.527 81.9726 190.858 81.9726H189.983V82.024Z" fill="#A30046"/>
<path d="M196.621 80.4803H198.474V85.4203C198.474 86.1921 198.474 86.7067 198.525 86.964C198.628 87.3242 198.782 87.6329 199.091 87.8388C199.4 88.0446 199.811 88.199 200.326 88.199C200.841 88.199 201.252 88.0961 201.51 87.8902C201.767 87.6844 201.921 87.4271 201.973 87.1184C202.024 86.8096 202.076 86.295 202.076 85.5746V80.5317H203.928V85.3173C203.928 86.398 203.877 87.1698 203.774 87.6329C203.671 88.0961 203.516 88.4563 203.208 88.765C202.95 89.0738 202.59 89.3311 202.127 89.4854C201.664 89.6913 201.098 89.7427 200.378 89.7427C199.503 89.7427 198.834 89.6398 198.422 89.434C197.959 89.2281 197.599 88.9709 197.342 88.6621C197.084 88.3534 196.93 87.9932 196.827 87.6329C196.724 87.1184 196.673 86.3465 196.673 85.3173V80.4803H196.621Z" fill="#A30046"/>
<path d="M214.014 89.5884H212.007L211.235 87.53H207.582L206.81 89.5884H204.854L208.405 80.4803H210.36L214.014 89.5884ZM210.669 85.9863L209.434 82.5901L208.199 85.9863H210.669Z" fill="#A30046"/>
<path d="M218.079 89.5884V80.4803H219.88L223.585 86.5523V80.4803H225.283V89.5884H223.431L219.777 83.6707V89.5884H218.079Z" fill="#A30046"/>
<path d="M227.239 89.5884V80.4803H233.98V82.024H229.091V84.0309H233.671V85.5746H229.091V88.0446H234.186V89.5884H227.239Z" fill="#A30046"/>
<path d="M237.016 89.5884L234.854 80.4803H236.758L238.148 86.7582L239.794 80.4803H241.956L243.551 86.8611L244.94 80.4803H246.793L244.58 89.5884H242.625L240.824 82.7959L239.023 89.5884H237.016Z" fill="#A30046"/>
<path d="M255.489 86.2436V84.6998H259.451V88.3019C259.091 88.6621 258.525 89.0223 257.753 89.2796C257.032 89.5884 256.261 89.6913 255.54 89.6913C254.562 89.6913 253.739 89.4854 253.07 89.0738C252.401 88.6621 251.835 88.0961 251.475 87.3757C251.115 86.6552 250.96 85.8319 250.96 84.9571C250.96 84.0309 251.166 83.1561 251.578 82.4357C251.99 81.7153 252.556 81.1492 253.328 80.7376C253.894 80.4288 254.614 80.2745 255.489 80.2745C256.621 80.2745 257.496 80.5317 258.113 80.9949C258.731 81.458 259.142 82.1269 259.348 82.9503L257.547 83.3105C257.393 82.8474 257.187 82.4872 256.827 82.2299C256.466 81.9726 256.055 81.8182 255.489 81.8182C254.665 81.8182 254.048 82.0755 253.585 82.5901C253.122 83.1046 252.864 83.8765 252.864 84.8542C252.864 85.9348 253.122 86.7582 253.585 87.2727C254.048 87.8388 254.717 88.0961 255.489 88.0961C255.849 88.0961 256.261 88.0446 256.672 87.8902C257.084 87.7359 257.393 87.53 257.65 87.3242V86.1921H255.489V86.2436Z" fill="#A30046"/>
<path d="M261.149 80.4803H263.002V85.4203C263.002 86.1921 263.002 86.7067 263.053 86.964C263.156 87.3242 263.311 87.6329 263.619 87.8388C263.928 88.0446 264.34 88.199 264.854 88.199C265.369 88.199 265.781 88.0961 266.038 87.8902C266.295 87.6844 266.45 87.4271 266.501 87.1184C266.553 86.8096 266.604 86.295 266.604 85.5746V80.5317H268.456V85.3173C268.456 86.398 268.405 87.1698 268.302 87.6329C268.199 88.0961 268.045 88.4563 267.736 88.765C267.479 89.0738 267.119 89.3311 266.655 89.4854C266.192 89.6913 265.626 89.7427 264.906 89.7427C264.031 89.7427 263.362 89.6398 262.95 89.434C262.487 89.2281 262.127 88.9709 261.87 88.6621C261.613 88.3534 261.458 87.9932 261.355 87.6329C261.252 87.1184 261.201 86.3465 261.201 85.3173V80.4803H261.149Z" fill="#A30046"/>
<path d="M270.309 89.5884V80.4803H272.162V89.5884H270.309Z" fill="#A30046"/>
<path d="M273.911 89.5884V80.4803H275.712L279.417 86.5523V80.4803H281.115V89.5884H279.263L275.609 83.6707V89.5884H273.911Z" fill="#A30046"/>
<path d="M283.07 89.5884V80.4803H289.811V82.024H284.923V84.0309H289.503V85.5746H284.923V88.0446H290.017V89.5884H283.07Z" fill="#A30046"/>
<path d="M299.743 89.5884H297.736L296.964 87.53H293.311L292.539 89.5884H290.583L294.134 80.4803H296.09L299.743 89.5884ZM296.398 85.9863L295.163 82.5901L293.928 85.9863H296.398Z" fill="#A30046"/>
</g>
<defs>
<clipPath id="clip0_581_1889">
<rect width="300" height="102.401" fill="white"/>
</clipPath>
</defs>
</svg>
