<svg xmlns="http://www.w3.org/2000/svg" width="150" height="46" viewBox="0 0 150 46" fill="none">
  <g clip-path="url(#clip0_33604_11679)">
    <path d="M29.3301 18.0101C28.7417 18.7951 28.108 19.6264 27.4291 20.4114C26.6596 19.8111 25.9354 19.1646 25.2112 18.5642C25.8902 17.7792 26.5238 16.9941 27.1575 16.2552C27.8365 16.8094 28.5607 17.4097 29.3301 18.0101ZM26.1165 15.424C25.5281 16.2091 24.8491 16.9479 24.2155 17.733C23.4913 17.0865 22.7671 16.44 22.0881 15.7934C22.7671 15.0546 23.4007 14.3157 24.0344 13.5768C24.7133 14.1771 25.3923 14.7775 26.1165 15.424ZM23.0839 12.6994C22.4502 13.4383 21.8165 14.1771 21.1376 14.916C20.5039 14.3157 19.8703 13.7153 19.2818 13.115C19.9608 12.3761 20.5945 11.6834 21.2281 10.9446C21.8618 11.5449 22.4502 12.0991 23.0839 12.6994ZM20.3681 10.021C19.7345 10.7137 19.1008 11.4525 18.4219 12.1452C17.7429 11.4525 17.1092 10.7137 16.4756 10.021C17.1545 9.32826 17.7882 8.63557 18.4219 7.94287C19.0555 8.68175 19.6892 9.32826 20.3681 10.021ZM17.5166 13.115C16.9282 13.7153 16.2945 14.3157 15.6608 14.916C14.9819 14.1771 14.3482 13.4383 13.7145 12.6994C14.3482 12.0991 14.9366 11.5449 15.525 10.9446C16.204 11.6834 16.8377 12.3761 17.5166 13.115ZM12.8093 13.5768C13.443 14.3157 14.0766 15.0546 14.7556 15.7934C14.0766 16.44 13.3524 17.0865 12.6282 17.733C11.9493 16.9479 11.3156 16.2091 10.7272 15.424C11.4514 14.7775 12.1304 14.1771 12.8093 13.5768ZM9.73144 16.2552C10.3651 17.0403 10.9988 17.8253 11.6777 18.5642C10.9535 19.1646 10.1841 19.8111 9.45987 20.4114C8.78093 19.6264 8.14726 18.7951 7.55884 18.0101C8.28304 17.4097 9.00724 16.8094 9.73144 16.2552ZM10.2293 21.3812C10.9988 20.7347 11.7683 20.1343 12.4925 19.4878C13.0809 20.1805 13.7145 20.827 14.3935 21.5197C13.6693 22.1662 12.8998 22.8128 12.1304 23.4593C11.4967 22.8128 10.863 22.1201 10.2293 21.3812ZM12.9903 24.4291C13.7598 23.7825 14.5293 23.136 15.2987 22.4433C16.0229 23.136 16.7471 23.8749 17.4713 24.5676C16.7471 25.2603 15.9777 25.953 15.1629 26.5995C14.4387 25.9068 13.7145 25.1679 12.9903 24.4291ZM16.1135 27.5693C16.9282 26.8766 17.6976 26.1839 18.4219 25.4912C19.1913 26.1839 19.9608 26.8766 20.7302 27.5693C20.006 28.262 19.1913 29.0009 18.4219 29.6936C17.6071 29.0009 16.8377 28.262 16.1135 27.5693ZM21.6355 26.6457C20.866 25.953 20.0966 25.2603 19.3271 24.6138C20.0966 23.9211 20.8208 23.1822 21.4997 22.4895C22.2239 23.136 22.9934 23.7825 23.8081 24.4752C23.1292 25.1679 22.405 25.9068 21.6355 26.6457ZM21.2281 16.717C21.9071 17.3635 22.6313 18.0101 23.4007 18.6566C22.8123 19.3493 22.1786 19.9958 21.545 20.6885C20.8208 19.9958 20.0966 19.3493 19.3724 18.6566C19.9608 18.0101 20.5945 17.3635 21.2281 16.717ZM16.5661 15.8396C17.1998 15.2393 17.8334 14.5928 18.4219 13.9924C19.0103 14.5928 19.6439 15.2393 20.2776 15.8396C19.6892 16.4861 19.0555 17.1326 18.4219 17.7792C17.7882 17.1326 17.1545 16.4861 16.5661 15.8396ZM18.4219 19.5802C19.1008 20.2729 19.825 20.9194 20.5945 21.6121C19.9155 22.3048 19.1913 23.0437 18.4219 23.7364C17.6524 23.0437 16.9282 22.3048 16.2492 21.6121C16.9734 20.9194 17.6976 20.2729 18.4219 19.5802ZM15.344 20.6885C14.7103 19.9958 14.0766 19.3493 13.4882 18.6566C14.2124 18.0101 14.9366 17.3635 15.6608 16.717C16.2492 17.3635 16.8829 18.0101 17.5166 18.6566C16.7924 19.3493 16.1135 20.042 15.344 20.6885ZM24.7133 23.5055C23.9439 22.8589 23.1744 22.2124 22.4502 21.5659C23.0839 20.8732 23.7176 20.2267 24.3512 19.534C25.0754 20.1805 25.8449 20.7809 26.6144 21.4274C25.9807 22.1201 25.347 22.8128 24.7133 23.5055ZM36.8437 21.9353C29.1943 16.717 22.9934 11.4064 18.4219 6.0495C13.8051 11.4064 7.64937 16.717 0 21.9353V23.5055C2.30839 21.9353 4.48099 20.4114 6.5178 18.8413C7.10622 19.6264 7.78516 20.4576 8.41883 21.2427C5.83887 23.2746 3.03259 25.3065 0 27.3384V28.8623C3.34943 26.6457 6.42728 24.4291 9.23356 22.1662C9.82197 22.8589 10.4556 23.5978 11.1346 24.2905C7.78516 27.0613 4.07363 29.7859 0 32.5105V34.0344C4.43573 31.1251 8.41883 28.1696 12.0398 25.2141C12.764 25.953 13.4882 26.6919 14.2124 27.4307C10.0483 31.0328 5.34098 34.5424 0 38.0521V39.576C5.70308 35.8355 10.7272 32.0949 15.1177 28.3543C15.8871 29.0932 16.6566 29.7859 17.4261 30.5248C12.4925 34.9119 6.65359 39.2989 0 43.686V45.21C7.06096 40.6382 13.2167 36.0202 18.4219 31.4022C23.627 36.0202 29.7827 40.6382 36.8437 45.21V43.686C30.1901 39.2989 24.3512 34.9119 19.3724 30.571C20.1871 29.8321 20.9566 29.1394 21.6808 28.4005C26.0712 32.1411 31.1406 35.8816 36.7984 39.6222V38.0983C31.5027 34.5424 26.7954 31.0328 22.6313 27.4769C23.4007 26.738 24.1249 25.9992 24.8039 25.2603C28.3796 28.2158 32.408 31.1251 36.8437 34.0806V32.5567C32.7701 29.8321 29.0585 27.1075 25.7091 24.3829C26.3428 23.6902 26.9765 22.9513 27.6101 22.2586C30.4617 24.4752 33.5395 26.738 36.8437 28.9547V27.4307C33.8111 25.3988 31.0048 23.3669 28.4249 21.335C29.1038 20.55 29.7375 19.7187 30.3259 18.9337C32.3627 20.5038 34.5353 22.0739 36.8437 23.5978V21.9353Z" fill="black"/>
    <path d="M16.9724 0C16.9724 0 6.69781 7.85056 3.75574 10.1596C-0.272624 13.4383 -0.0010492 18.4719 -0.0010492 18.4719C-0.0010492 18.4719 6.15466 13.8078 9.05146 11.4988C17.8324 4.01764 16.9724 0 16.9724 0Z" fill="black"/>
    <path d="M19.8707 0C19.8707 0 30.1453 7.85056 33.0874 10.1596C37.1158 13.4383 36.8442 18.4719 36.8442 18.4719C36.8442 18.4719 30.6885 13.8078 27.7917 11.4988C19.0107 4.01764 19.8707 0 19.8707 0Z" fill="black"/>
    <path d="M47.6612 45.21H49.4264V36.7591H52.5496V35.1428H44.5381V36.7591H47.6612V45.21Z" fill="#ED1166"/>
    <path d="M57.5282 40.8691H53.6809C53.8167 39.6684 54.5862 38.8833 55.6272 38.8833C56.7588 38.8833 57.3924 39.7607 57.5282 40.8691ZM59.2029 41.5156C59.2029 39.3451 57.9808 37.4056 55.6272 37.4056C53.4999 37.4056 51.9609 39.2066 51.9609 41.377V41.4232C51.9609 43.7784 53.6356 45.3947 55.8082 45.3947C57.1661 45.3947 58.1619 44.8405 58.8408 43.9631L57.8451 43.0395C57.2566 43.6398 56.6682 43.9631 55.8082 43.9631C54.7219 43.9631 53.862 43.2704 53.6809 42.0236H59.1577C59.2029 41.8388 59.2029 41.7003 59.2029 41.5156Z" fill="#ED1166"/>
    <path d="M69.7953 38.5602C69.7953 39.6223 68.9805 40.3612 67.6679 40.3612H65.6311V36.713H67.6679C68.9353 36.7592 69.7953 37.3595 69.7953 38.5602ZM71.5605 38.514C71.5605 36.4359 70.1121 35.0967 67.8037 35.0967H63.9111V45.1639H65.6311V41.9313H67.5774C69.75 41.9775 71.5605 40.7768 71.5605 38.514Z" fill="#ED1166"/>
    <path d="M84.0525 45.3486C84.6861 45.3486 85.184 45.2101 85.5914 44.9792V43.5476C85.2293 43.7323 84.9124 43.8247 84.5503 43.8247C83.9619 43.8247 83.6451 43.5476 83.6451 42.8549V39.1143H85.6366V37.6366H83.6451V35.5585H81.9251V37.6366H80.9746V39.1143H81.9251V43.132C81.8799 44.7944 82.7851 45.3486 84.0525 45.3486Z" fill="#ED1166"/>
    <path d="M92.1542 40.8691H88.3069C88.4427 39.6684 89.2121 38.8833 90.2532 38.8833C91.3847 38.8833 92.0637 39.7607 92.1542 40.8691ZM93.8289 41.5156C93.8289 39.3451 92.6068 37.4056 90.2532 37.4056C88.1258 37.4056 86.5869 39.2066 86.5869 41.377V41.4232C86.5869 43.7784 88.2616 45.3947 90.4342 45.3947C91.7921 45.3947 92.7879 44.8405 93.4668 43.9631L92.4711 43.0395C91.8826 43.6398 91.2942 43.9631 90.4342 43.9631C89.3479 43.9631 88.4879 43.2704 88.3069 42.0236H93.7837C93.8289 41.8388 93.8289 41.7003 93.8289 41.5156Z" fill="#ED1166"/>
    <path d="M107.996 45.21H109.716V38.0059L112.794 42.7163H112.839L115.962 37.9597V45.21H117.728V35.1428H115.872L112.839 39.8993L109.852 35.1428H107.996V45.21Z" fill="#ED1166"/>
    <path d="M131.351 45.3486C131.985 45.3486 132.483 45.2101 132.89 44.9792V43.5476C132.573 43.7323 132.211 43.8247 131.849 43.8247C131.261 43.8247 130.944 43.5476 130.944 42.8549V39.1143H132.936V37.6366H130.944V35.5585H129.224V37.6366H128.273V39.1143H129.224V43.132C129.224 44.7944 130.084 45.3486 131.351 45.3486Z" fill="#ED1166"/>
    <path d="M50.8751 27.0152C50.8751 28.3083 50.0152 29.4166 48.612 29.4166C47.2994 29.4166 46.3489 28.3083 46.3489 26.969V26.9229C46.3489 25.5837 47.2089 24.5215 48.612 24.5215C49.9246 24.5677 50.8751 25.676 50.8751 27.0152ZM52.5951 27.0152C52.5951 24.7986 50.9204 23.0438 48.612 23.0438C46.3036 23.0438 44.6289 24.8448 44.6289 27.0152V27.0614C44.6289 29.2319 46.3036 30.9867 48.5668 30.9867C50.8751 30.9867 52.5951 29.1857 52.5951 27.0152Z" fill="black"/>
    <path d="M54.2698 30.8019H55.9898V24.7062H57.9361V23.2746H55.9446V22.859C55.9446 22.0739 56.2614 21.7045 56.9403 21.7045C57.3024 21.7045 57.6193 21.7969 57.9361 21.8892V20.4115C57.574 20.3191 57.1666 20.2267 56.533 20.2267C55.8088 20.2267 55.2656 20.4115 54.8583 20.8271C54.4509 21.2427 54.2698 21.843 54.2698 22.7205V23.2746H53.3193V24.7524H54.2698V30.8019Z" fill="black"/>
    <path d="M62.8242 30.802H64.5442V23.6441L69.9757 30.802H71.4241V20.6886H69.7041V27.7079L64.4084 20.6886H62.8242V30.802Z" fill="black"/>
    <path d="M78.2587 26.461H74.4114C74.5472 25.2603 75.3166 24.4753 76.3577 24.4753C77.4892 24.4753 78.1229 25.3527 78.2587 26.461ZM79.9334 27.1075C79.9334 24.937 78.7113 22.9975 76.3577 22.9975C74.2303 22.9975 72.6914 24.7985 72.6914 26.969V27.0151C72.6914 29.3703 74.3661 30.9866 76.5387 30.9866C77.8966 30.9866 78.8924 30.4324 79.5713 29.555L78.5755 28.6314C77.9871 29.2318 77.3987 29.555 76.5387 29.555C75.4524 29.555 74.5924 28.8623 74.4114 27.6155H79.8882C79.9334 27.4308 79.9334 27.2922 79.9334 27.1075Z" fill="black"/>
    <path d="M82.6948 30.8481H84.2337L85.9085 25.676L87.5832 30.8481H89.0768L91.521 23.1823H89.801L88.3074 28.4006L86.6327 23.1823H85.1843L83.5095 28.4006L82.0159 23.1823H80.2959L82.6948 30.8481Z" fill="black"/>
    <path d="M123.295 20.2729H121.575V30.8019H123.295V20.2729Z" fill="black"/>
    <path d="M134.248 30.802H135.968V26.5072C135.968 25.3066 136.647 24.6139 137.643 24.6139C138.639 24.6139 139.227 25.3066 139.227 26.4611V30.802H140.947V25.9531C140.947 24.1983 139.951 23.0438 138.277 23.0438C137.1 23.0438 136.421 23.6441 135.923 24.383V23.1823H134.203V30.802H134.248Z" fill="black"/>
    <path d="M148.325 20.2729V23.9673C147.692 23.4131 146.922 23.0437 146.062 23.0437C143.754 23.0437 142.079 24.8447 142.079 27.0151V27.0613C142.079 29.2318 143.754 30.9866 146.017 30.9866C146.877 30.9866 147.646 30.571 148.325 30.0168V30.8019H150.045V27.1075V27.0151V26.969V26.5995V23.1822V20.2729H148.325ZM146.062 29.4627C144.75 29.4627 143.799 28.3543 143.799 27.0151V26.969C143.799 25.6297 144.659 24.5676 146.062 24.5676C147.42 24.5676 148.371 25.6759 148.371 27.0151V27.0613C148.325 28.3543 147.42 29.4627 146.062 29.4627Z" fill="black"/>
    <path d="M51.5542 9.6054C51.5542 10.6214 50.7847 11.3141 49.5174 11.3141H46.9827V7.94293H49.5174C50.7847 7.89675 51.5542 8.49709 51.5542 9.6054ZM53.3194 9.51304C53.3194 8.58945 53.0026 7.85057 52.5047 7.29641C51.871 6.64989 50.8752 6.28046 49.6532 6.28046H45.2627V16.3477H46.9827V12.838H49.1553L51.5994 16.3477H53.6363L50.9658 12.5147C52.3236 12.1453 53.3194 11.1755 53.3194 9.51304Z" fill="black"/>
    <path d="M59.6558 12.053H55.8085C55.9443 10.8523 56.7138 10.0672 57.7548 10.0672C58.9316 10.0672 59.5653 10.9446 59.6558 12.053ZM61.3758 12.6995C61.3758 10.529 60.1537 8.58948 57.8001 8.58948C55.6727 8.58948 54.1338 10.3905 54.1338 12.5609V12.6071C54.1338 14.9623 55.8085 16.5786 57.9811 16.5786C59.339 16.5786 60.3348 16.0244 61.0137 15.147L60.0179 14.2234C59.4295 14.8237 58.8411 15.147 57.9811 15.147C56.8948 15.147 56.0348 14.4543 55.8538 13.2075H61.3305C61.3758 13.0227 61.3758 12.8842 61.3758 12.6995Z" fill="black"/>
    <path d="M65.3136 16.5324C66.8525 16.5324 68.0746 15.7473 68.0746 14.1311V14.0849C68.0746 12.6995 66.8525 12.1915 65.7662 11.8682C64.9062 11.5912 64.0915 11.3603 64.0915 10.8061V10.7599C64.0915 10.2981 64.4536 9.97487 65.1325 9.97487C65.7662 9.97487 66.5357 10.252 67.2146 10.7137L67.8936 9.46689C67.1241 8.91274 66.0831 8.58948 65.1325 8.58948C63.6389 8.58948 62.462 9.46689 62.462 10.8985V10.9446C62.462 12.4224 63.6841 12.8842 64.7704 13.1613C65.6304 13.4384 66.4452 13.6231 66.4452 14.2234V14.3158C66.4452 14.8237 66.0378 15.147 65.2683 15.147C64.4989 15.147 63.6389 14.8237 62.8242 14.2234L62.0547 15.4241C63.0957 16.163 64.2273 16.5324 65.3136 16.5324Z" fill="black"/>
    <path d="M74.5025 12.053H70.6552C70.791 10.8523 71.5604 10.0672 72.6015 10.0672C73.733 10.0672 74.412 10.9446 74.5025 12.053ZM76.2225 12.6995C76.2225 10.529 75.0004 8.58948 72.6467 8.58948C70.5194 8.58948 68.9805 10.3905 68.9805 12.5609V12.6071C68.9805 14.9623 70.6552 16.5786 72.8278 16.5786C74.1857 16.5786 75.1814 16.0244 75.8604 15.147L74.8646 14.2234C74.2762 14.8237 73.6878 15.147 72.8278 15.147C71.7415 15.147 70.8815 14.4543 70.7004 13.2075H76.1772C76.1772 13.0227 76.2225 12.8842 76.2225 12.6995Z" fill="black"/>
    <path d="M77.4443 16.3938H79.1643V13.4845C79.1643 11.4526 80.2053 10.4828 81.699 10.4828H81.7895V8.6356C80.4769 8.58942 79.6169 9.37448 79.1643 10.4828V8.77414H77.4443V16.3938Z" fill="black"/>
    <path d="M85.6371 16.44H87.176L90.2538 8.77411H88.4433L86.4518 14.3619L84.415 8.77411H82.6045L85.6371 16.44Z" fill="black"/>
    <path d="M95.9107 12.053H92.0634C92.1992 10.8523 92.9686 10.0672 94.0097 10.0672C95.1412 10.0672 95.8202 10.9446 95.9107 12.053ZM97.6307 12.6995C97.6307 10.529 96.4086 8.58948 94.0549 8.58948C91.9276 8.58948 90.3887 10.3905 90.3887 12.5609V12.6071C90.3887 14.9623 92.0634 16.5786 94.236 16.5786C95.5939 16.5786 96.5896 16.0244 97.2686 15.147L96.2728 14.2234C95.6844 14.8237 95.096 15.147 94.236 15.147C93.1497 15.147 92.2897 14.4543 92.1086 13.2075H97.5854C97.5854 13.0227 97.6307 12.8842 97.6307 12.6995Z" fill="black"/>
    <path d="M109.309 13.4383C109.309 14.3619 108.585 14.8237 107.408 14.8237H104.511V12.0529H107.272C108.63 12.0529 109.309 12.5609 109.309 13.4383ZM108.766 9.18978C108.766 10.1134 107.996 10.5752 106.91 10.5752H104.556V7.85057H107.046C108.132 7.85057 108.766 8.35855 108.766 9.18978ZM111.029 13.623C111.029 12.2376 110.214 11.545 109.083 11.1293C109.807 10.7599 110.486 10.1134 110.486 8.86653V8.82035C110.486 8.12765 110.259 7.57349 109.807 7.15787C109.264 6.60371 108.358 6.28046 107.227 6.28046H102.791V16.3477H107.363C109.58 16.3938 111.029 15.4241 111.029 13.623Z" fill="black"/>
    <path d="M121.53 16.3938H123.25V12.0991C123.25 10.8984 123.929 10.2057 124.924 10.2057C125.92 10.2057 126.509 10.8984 126.509 12.0529V16.3938H128.229V11.5449C128.229 9.79011 127.233 8.63562 125.558 8.63562C124.381 8.63562 123.702 9.23596 123.204 9.97483V8.77416H121.484V16.3938H121.53Z" fill="black"/>
    <path d="M129.677 16.3939H131.397V14.2234L132.438 13.1151L134.701 16.3939H136.647L133.615 11.8682L136.557 8.7742H134.475L131.397 12.1453V5.86487H129.677V16.3939Z" fill="black"/>
    <path d="M78.2592 35.5123H74.0498V36.6668H78.2592V35.5123Z" fill="#ED1166"/>
    <path d="M118.226 12.5609C118.226 13.9001 117.366 15.0084 115.963 15.0084C114.65 15.0084 113.699 13.9001 113.699 12.5609V12.5147C113.699 11.1755 114.559 10.1134 115.963 10.1134C117.275 10.1134 118.226 11.2217 118.226 12.5609ZM119.946 16.3476V8.77416H118.226V9.55922C117.592 9.00506 116.823 8.63562 115.963 8.63562C113.654 8.63562 111.979 10.4366 111.979 12.6071V12.6533C111.979 14.8237 113.654 16.5785 115.917 16.5785C116.777 16.5785 117.547 16.1629 118.226 15.6088V16.3938H119.946V16.3476Z" fill="black"/>
    <path d="M101.162 41.3771C101.162 42.7163 100.302 43.8246 98.8991 43.8246C97.5865 43.8246 96.636 42.7163 96.636 41.3771V41.3309C96.636 39.9917 97.496 38.9295 98.8991 38.9295C100.257 38.9295 101.162 40.0379 101.162 41.3771ZM102.882 45.21V37.5903H101.162V38.3754C100.529 37.8212 99.7591 37.4518 98.8991 37.4518C96.5907 37.4518 94.916 39.2528 94.916 41.4232V41.4694C94.916 43.6399 96.5907 45.3947 98.8539 45.3947C99.7138 45.3947 100.483 44.9791 101.162 44.4249V45.21H102.882Z" fill="#ED1166"/>
    <path d="M125.241 41.3771C125.241 42.7163 124.381 43.8246 122.978 43.8246C121.666 43.8246 120.715 42.7163 120.715 41.3771V41.3309C120.715 39.9917 121.575 38.9295 122.978 38.9295C124.291 38.9295 125.241 40.0379 125.241 41.3771ZM126.961 45.21V37.5903H125.241V38.3754C124.608 37.8212 123.838 37.4518 122.978 37.4518C120.67 37.4518 118.995 39.2528 118.995 41.4232V41.4694C118.995 43.6399 120.67 45.3947 122.933 45.3947C123.793 45.3947 124.562 44.9791 125.241 44.4249V45.21H126.961Z" fill="#ED1166"/>
    <path d="M95.2773 30.802H103.379V29.2319H97.5405L103.379 22.0278V20.6886H95.4584V22.3049H101.116L95.2773 29.5089V30.802Z" fill="black"/>
    <path d="M109.309 26.461H105.461C105.597 25.2603 106.366 24.4753 107.407 24.4753C108.539 24.4753 109.173 25.3527 109.309 26.461ZM110.983 27.1075C110.983 24.937 109.761 22.9975 107.407 22.9975C105.28 22.9975 103.741 24.7985 103.741 26.969V27.0151C103.741 29.3703 105.416 30.9866 107.589 30.9866C108.946 30.9866 109.942 30.4324 110.621 29.555L109.625 28.6314C109.037 29.2318 108.449 29.555 107.589 29.555C106.502 29.555 105.642 28.8623 105.461 27.6155H110.938C110.983 27.4308 110.983 27.2922 110.983 27.1075Z" fill="black"/>
    <path d="M118.226 27.0152C118.226 28.3544 117.366 29.4628 115.963 29.4628C114.65 29.4628 113.699 28.3544 113.699 27.0152V26.969C113.699 25.6298 114.559 24.5677 115.963 24.5677C117.275 24.5215 118.226 25.676 118.226 27.0152ZM119.946 30.802V23.1823H118.226V23.9674C117.592 23.4132 116.823 23.0438 115.963 23.0438C113.654 23.0438 111.979 24.8448 111.979 27.0152V27.0614C111.979 29.2319 113.654 30.9867 115.917 30.9867C116.777 30.9867 117.547 30.5711 118.226 30.0169V30.802H119.946Z" fill="black"/>
    <path d="M130.944 27.0152C130.944 28.3544 130.084 29.4628 128.681 29.4628C127.369 29.4628 126.418 28.3544 126.418 27.0152V26.969C126.418 25.6298 127.278 24.5677 128.681 24.5677C129.994 24.5215 130.944 25.676 130.944 27.0152ZM132.664 30.802V23.1823H130.944V23.9674C130.311 23.4132 129.541 23.0438 128.681 23.0438C126.373 23.0438 124.698 24.8448 124.698 27.0152V27.0614C124.698 29.2319 126.373 30.9867 128.636 30.9867C129.496 30.9867 130.266 30.5711 130.944 30.0169V30.802H132.664Z" fill="black"/>
    <path d="M148.325 41.4232C148.325 42.7625 147.465 43.8708 146.062 43.8708C144.749 43.8708 143.798 42.7625 143.798 41.4232V41.3771C143.798 40.0379 144.658 38.9757 146.062 38.9757C147.374 38.9757 148.325 40.084 148.325 41.4232ZM149.999 45.21V37.5903H148.279V38.3754C147.646 37.8212 146.876 37.4518 146.016 37.4518C143.708 37.4518 142.033 39.2528 142.033 41.4232V41.4694C142.033 43.6399 143.708 45.3947 145.971 45.3947C146.831 45.3947 147.601 44.9791 148.279 44.4249V45.21H149.999Z" fill="#ED1166"/>
    <path d="M136.92 45.3485C138.368 45.3485 139.228 44.3787 139.228 44.3787V45.1638H140.948V37.5903H139.228V41.885C139.228 43.0857 138.549 43.7784 137.553 43.7784C136.557 43.7784 135.969 43.0857 135.969 41.9312V37.5903H134.249V42.4392C134.249 44.2402 135.2 45.3485 136.92 45.3485Z" fill="#ED1166"/>
    <path d="M75.4527 45.3485C76.9011 45.3485 77.7611 44.3787 77.7611 44.3787V45.1638H79.4811V37.5903H77.7611V41.885C77.7611 43.0857 77.0822 43.7784 76.0864 43.7784C75.0906 43.7784 74.5022 43.0857 74.5022 41.9312V37.5903H72.7822V42.4392C72.7822 44.2402 73.778 45.3485 75.4527 45.3485Z" fill="#ED1166"/>
    <path d="M95.9107 12.053H92.0634C92.1992 10.8523 92.9686 10.0672 94.0097 10.0672C95.1412 10.0672 95.8202 10.9446 95.9107 12.053ZM97.6307 12.6995C97.6307 10.529 96.4086 8.58948 94.0549 8.58948C91.9276 8.58948 90.3887 10.3905 90.3887 12.5609V12.6071C90.3887 14.9623 92.0634 16.5786 94.236 16.5786C95.5939 16.5786 96.5896 16.0244 97.2686 15.147L96.2728 14.2234C95.6844 14.8237 95.096 15.147 94.236 15.147C93.1497 15.147 92.2897 14.4543 92.1086 13.2075H97.5854C97.5854 13.0227 97.6307 12.8842 97.6307 12.6995Z" fill="black"/>
  </g>
  <defs>
    <clipPath id="clip0_33604_11679">
      <rect width="150" height="45.3947" fill="white"/>
    </clipPath>
  </defs>
</svg>