<?xml version="1.0" encoding="utf-8"?>
<!-- Generator: Adobe Illustrator 15.0.0, SVG Export Plug-In . SVG Version: 6.00 Build 0)  -->
<!DOCTYPE svg PUBLIC "-//W3C//DTD SVG 1.1//EN" "http://www.w3.org/Graphics/SVG/1.1/DTD/svg11.dtd">
<svg version="1.1" id="Layer_1" xmlns="http://www.w3.org/2000/svg" xmlns:xlink="http://www.w3.org/1999/xlink" x="0px" y="0px"
	 width="136px" height="76px" viewBox="0 0 136 76" enable-background="new 0 0 136 76" xml:space="preserve">
<g id="Logo_Large">
	<defs>
		<rect id="SVGID_1_" width="136" height="76"/>
	</defs>
	<clipPath id="SVGID_2_">
		<use xlink:href="#SVGID_1_"  overflow="visible"/>
	</clipPath>
	<path clip-path="url(#SVGID_2_)" fill="#86002E" d="M39.3,24.8c0,0,4.9,7.8,12.7,5.2c0,0,0-0.1,0-0.1c-11.4-2.8-9.1-13.8-9.5-13.8
		c-2.1,0-2.4,3.5-2.4,3.5s-1.2-1.9-3.7-2.2c0,0,0,0,0,0c0.2,2.3,2,4.4,2.1,4.4c-0.1,0-3.3,0-3.3,0C35.6,24.2,39.3,24.8,39.3,24.8
		 M54.7,19.5C54.7,19.5,54.7,19.5,54.7,19.5L54.7,19.5L54.7,19.5L54.7,19.5L54.7,19.5c0.1,0,0.9-0.1,0.9-0.2c0-0.7,0.3-2.3,0.3-2.3
		l-1.2-0.8v0l0,0l0,0v0l0,0L53.5,17c0,0,0.3,1.6,0.3,2.3C53.8,19.3,54.5,19.4,54.7,19.5 M55,27.9c0-0.1-0.1-0.1-0.2-0.1
		c-0.1,0-0.2,0-0.2,0.1c-0.1,0.6-0.9,1.1-1.6,1.1c0,0,0,0-0.1,0c0.2,0.6,0.9,1.6,1.8,1.6c0,0,0,0,0,0c0,0,0,0,0,0
		c0.9,0,1.6-1,1.8-1.6c0,0,0,0-0.1,0C55.9,29,55,28.6,55,27.9 M56.9,24c0.7,0,1-0.8,1-0.8c-1.3-0.5-1.7,0.1-1.7,0.1
		S56.4,23.9,56.9,24 M50.6,23.1c0.2-0.1,0.1-0.1,0.3-0.2c1-0.6,2.2-0.4,3.2,0.3c0.1,0.2-0.1,0.3-0.3,0.3c-0.1,0-0.2,0.1-0.2,0.3
		c-0.2,0.3-0.3,0.6-0.8,0.7c-0.9,0.2-1.5-0.4-1.8-1.1c-0.2,0.1-0.1,0.2-0.4,0.1C50.4,23.4,50.5,23.2,50.6,23.1 M55.4,23.2
		c1-0.7,2.2-0.8,3.2-0.3c0.2,0.1,0.1,0.1,0.3,0.2c0.1,0.1,0.2,0.3,0,0.3c-0.2,0-0.2,0-0.4-0.1c-0.4,0.7-1,1.2-1.8,1.1
		c-0.4-0.1-0.6-0.3-0.8-0.7c-0.1-0.1-0.1-0.3-0.2-0.3C55.4,23.5,55.2,23.4,55.4,23.2 M50.6,25.7c0.2,0.7,0.3,2.6,1.8,2.9
		c0.3,0.1,0.6,0.1,1-0.1c0.3-0.2,0.5-0.2,0.7-0.6c-0.4-0.3-0.8-0.8-0.8-1.4c0,0,0.1-0.2,0.2,0c0,0.5,0.7,0.9,1.1,0.9c0,0,0,0,0.1,0
		c0,0,0,0,0.1,0c0.5,0,1.2-0.4,1.1-0.9c0.1-0.2,0.2,0,0.2,0c0,0.6-0.3,1.1-0.8,1.4c0.2,0.4,0.4,0.5,0.7,0.6c0.4,0.2,0.7,0.2,1,0.1
		c1.5-0.2,1.6-2.2,1.8-2.9c0.4-1.3,1.1-2.6,1.4-3.9c0.8-0.9,1.3-2.3,0.4-3.9c-1.8,0.5-2.4,1.7-2.5,2.3c-1.4-0.1-3-0.1-3.4,0.4
		c-0.4-0.5-2-0.5-3.4-0.4c-0.2-0.6-0.7-1.8-2.5-2.3c-0.9,1.5-0.4,3,0.4,3.9C49.5,23.1,50.2,24.4,50.6,25.7 M52.5,24
		c0.5,0,0.7-0.6,0.7-0.6s-0.4-0.6-1.7-0.1C51.5,23.2,51.8,24,52.5,24 M57.5,19.5c0-0.4,0.9-1.4,0.9-1.4L57,17.4l-0.4,2
		C56.6,19.4,57.5,19.5,57.5,19.5 M53,19.4l-0.4-2l-1.4,0.7c0,0,0.9,1,0.9,1.4C52,19.5,53,19.4,53,19.4 M73.8,19c-0.1,0-0.4,0-0.7,0
		C73.4,19,73.7,19,73.8,19 M98.7,33.4c0.1-0.1,3.1-2,3.1-2.1c-1.8-1.9-5.7-0.2-5.7-0.2s-4.4-2-9-1c-0.2,0-0.4,0.1-0.6,0.2
		c0.6-1.9,0.5-3.3,0.2-4.1c1.2-0.1,2.4-0.2,3.6-0.1c0.8,0.1,1.7,0.2,2.5,0.4c0.8,0.2,1.7,0.6,2.6,0.6c1.3,0,2.5-0.9,2.9-2.2
		c0.3-1,0.1-2.1-0.7-2.9c-0.7-0.7-1.8-1-2.8-1.1c-1.4-0.1-2.9,0.1-4.3,0.2c-3.6,0.2-7,0.4-10.6,0.6c-1.7,0.1-2.9,0.2-4.6,0.3
		c-1.4,0.1-2,0.3-3.4,0.2c-0.7-0.1-1.9-0.3-2.1-1.1c-0.2-0.8,0.5-1.7,2.5-1.7c0.2,0,1.1,0,1.3,0c0.2,0.5,0.9,0.8,2.4,0.8
		c1.4,0,3.4-0.8,4.6-1.3c0,0,0,0,0,0c-2.8,0.3-4.4,0.4-5.3,0.3c1,0,2.6,0,5.3-0.3c-0.7-0.2-3-1.3-4.3-1.3c-1.5,0-2.4,0.3-2.6,0.7
		c-0.6,0-2.8,0-3.5,0.3c-1,0.5-1.6,1.2-1.5,2.4c0.2,2.4,2.5,2.8,4.6,2.7c6.7-0.4,11.7-0.6,18.5-0.9c0.7,0,1.3-0.1,2-0.1
		c0.8,0,1.6-0.1,2.4,0.2c0.9,0.4,0.9,1.7,0,2.2c-0.5,0.3-1.1,0-1.6-0.1c-0.6-0.2-1.2-0.3-1.8-0.4c-2.9-0.5-5.9-0.4-8.7,0.3
		c-1.4,0.3-3.7,1.3-6.7,1.6c0,0,0,0,0,0s-6.3,0.2-14.4-2.5c0,0,1.3,2.4,0.9,6.2c-0.1,1-0.4,2.2-0.8,3.4C73.7,32,74.1,31.1,75.6,31
		c2.1-0.1,5.4,3,5.4,3s0.2-0.1,0.6-0.2c0.8-0.3,1.6-0.5,2.4-0.6c10.3-1.8,14.1,8.4,14.4,8.2c2-1.3,0.3-4.8,0.3-4.8s2.3,1,4.8-0.2
		c0,0,0,0,0.1,0C102,34.2,98.9,33.3,98.7,33.4 M85.4,33.8c-6.6,6.1-13.1,0.3-13.3,0.5c-0.9,1.3,1.4,2.9,1.4,2.9s-1.7,0-3,1.4
		c0,0,0,0-0.1,0.1c1.6,0.8,3.9,0.5,3.9,0.4c0-0.1-1.3,2.1-1.3,2.1c1.7,0.6,3.6-1.5,3.6-1.5S84,39.8,85.4,33.8
		C85.4,33.9,85.4,33.9,85.4,33.8C85.4,33.9,85.4,33.8,85.4,33.8 M60.2,24.8c-0.3,0.9-0.6,1.9-0.3,2.6c1.9,5.6-2.6,10.4-2.6,10.5
		c0,0,0,0,0.1,0c8.1-4.2,3.7-15.1,3.7-15.1S60.6,23.8,60.2,24.8 M58.6,28.9c-0.3,0.4-0.5,0.7-0.7,1c-0.5,0.6-0.8,0.7-0.8,0.7
		c0.6,4.2-2.9,7.4-3.1,7.6c0,0,0.1,0,0.2,0C59.8,36.1,59.3,27.8,58.6,28.9 M55.7,31.4c-0.3,0.2-0.5,0.2-0.8,0.2
		c-0.2,2.1-1,3.5-2,4.5c0.9-1,1.8-2.5,2-4.5c-0.5,0-1-0.2-1-0.2c-0.7,4.6-3.9,6.5-4.6,6.8c-0.1,0-0.1,0-0.1,0
		C54.8,38.3,56.1,31.1,55.7,31.4 M52.6,31.1C52.5,31.1,52.5,31.1,52.6,31.1c-9,8.1-17.7,0.3-17.9,0.6c-1.2,1.8,1.8,3.9,1.8,3.9
		s-2.4,0.1-4.1,2c0,0,0,0,0,0c2.2,1.1,5.2,0.7,5.2,0.6c0.1-0.1-1.7,2.8-1.7,2.9c2.3,0.9,4.8-2,4.8-2S50.6,39.1,52.6,31.1 M66.1,15.3
		c1.4,0.9,1.7,1.6,1.7,1.6v0c0,0,0,0,0,0v0l0,0c0,0,0,0,0,0v0l0,0v0c0-0.1,0.3-0.7,1.7-1.6c4.2-2.6,5.2-6.3,5.2-6.4l0,0
		c-4.2,1.6-6.8,6.4-6.9,6.8v0c0,0,0,0,0,0c0,0,0,0,0,0v0c-0.2-0.3-2.7-5.1-6.9-6.8c0,0,0,0,0,0C60.9,9,61.9,12.7,66.1,15.3
		 M67.8,13.8C67.8,13.8,67.8,13.8,67.8,13.8c4.9-5.8,5-9.5,5-9.5c0,0,0,0,0,0c-0.2,0.1-3.3,2-5,8c-1.6-6.1-4.7-7.9-5-8c0,0,0,0,0,0
		C62.9,4.2,63,8,67.8,13.8C67.8,13.8,67.8,13.8,67.8,13.8 M67.8,9.4C67.8,9.4,67.8,9.4,67.8,9.4c0,0,2-5.8,0-9.4c0,0,0,0,0,0
		c0,0,0,0,0,0C65.8,3.6,67.8,9.4,67.8,9.4C67.8,9.4,67.8,9.4,67.8,9.4"/>
	<path clip-path="url(#SVGID_2_)" fill="#58595B" d="M13.3,57.1c0,0.5,0.4,0.8-0.3,1c-1.1,0.4-2.1,0.5-3.7,0.5
		c-3.3,0-5.8-2.5-5.8-5.8c0-3.1,2.3-5.4,6.3-5.4c1.9,0,3.2,0.3,3.2,0.7c0,0.4-0.1,0.6-0.1,1.1c0,0.2-0.2,0.2-0.4,0
		c-0.5-0.9-1.5-1.2-2.9-1.2c-2.3,0-4.7,1.3-4.7,4.7c0,4.1,2.9,5.3,4.4,5.3c1.1,0,1.9-0.1,2.4-0.3c0.2,0,0.4-0.1,0.3-0.5
		c0-1.2,0-2.4,0-2.6c0-0.6-0.4-0.9-0.5-1c-0.2-0.1-0.1-0.3,0.1-0.3c0.2,0,0.6,0.1,1,0.1c0.4,0,0.6,0,0.8,0c0.2,0,0.2,0.2,0.1,0.3
		c-0.1,0.1-0.3,0.4-0.3,1V57.1z"/>
	<path clip-path="url(#SVGID_2_)" fill="#58595B" d="M22.2,58.1c0.1,0.1,0.1,0.2-0.1,0.2c-0.5,0.1-0.8,0.2-1.2,0.3
		c-0.2,0-0.3,0-0.3-0.3c0-0.3,0-0.3,0-0.7c-0.5,0.4-0.7,0.7-1.7,0.9c-0.6,0.1-1.7,0-2.3-0.3c-0.5-0.4-1-0.8-1-1.9c0-0.3,0-2.9,0-4.2
		c0-0.5-0.2-0.7-0.3-0.8c-0.2-0.1-0.1-0.2,0.1-0.3c0.5-0.1,0.9-0.2,1.2-0.3c0.2,0,0.3,0,0.2,0.2c0,0.3-0.1,1.2-0.1,1.4v3.8
		c0,1.5,1.3,1.9,2.4,1.7c0.5-0.1,1.4-0.6,1.4-1.3v-1.6c0-0.9,0-2,0-2.7c0-0.6-0.2-0.7-0.4-0.8c-0.1-0.1-0.1-0.2,0.1-0.3
		c0.5-0.1,0.9-0.2,1.2-0.3c0.2,0,0.3,0,0.2,0.2c0,0.3-0.1,1.1-0.1,1.4c0,1.9,0,4.5,0,4.8C21.9,57.8,22.1,58,22.2,58.1"/>
	<path clip-path="url(#SVGID_2_)" fill="#58595B" d="M25.2,53.7c0,0.2,0.1,0.2,0.2,0.2c0.4,0,1.9-0.1,2.5-0.1c0.3,0,0.4-0.1,0.4-0.4
		c0-1.1-0.3-2.1-1.4-2.1C25.8,51.3,25.2,52.7,25.2,53.7 M25.3,54.4c-0.2,0-0.2,0.1-0.2,0.1c0,2.5,1.6,3.6,3.9,3.7
		c0.3,0,0.2,0.3,0,0.4c-0.2,0-0.5,0.1-0.8,0.1c-2,0-4.4-1.1-4.4-4.3c0-2,1.5-3.5,3.1-3.5c1.9,0,2.5,1.8,2.5,2.8
		c0,0.5-0.1,0.9-0.7,0.9C28.6,54.4,25.5,54.4,25.3,54.4"/>
	<path clip-path="url(#SVGID_2_)" fill="#58595B" d="M33.9,50.9c0.2-0.1,0.5-0.1,0.7-0.1c0.5,0,0.8,0.2,0.9,0.5
		c0,0.2-0.3,0.8-0.3,0.9C35,52.3,35,52.5,34.7,52c-0.4-1-1.8-0.3-1.8,0.7c0,0.5,0,3.2,0,3.2c0,1.8,0.2,2.2,0.7,2.4
		c0.2,0.1,0.1,0.3-0.1,0.3c-0.2,0-0.9,0-1.1,0c-0.2,0-0.6,0-0.9,0c-0.2,0-0.3-0.1-0.1-0.3c0.3-0.2,0.5-0.6,0.4-2.4
		c0-1.8,0-3.3,0-3.7c0-0.6-0.2-0.8-0.4-0.9c-0.1-0.1-0.1-0.2,0.1-0.3c0.5-0.1,0.6-0.2,1-0.3c0.2-0.1,0.3-0.1,0.3,0.2v0.2
		c0,0.2,0.2,0.2,0.3,0.1C33.4,51.2,33.6,51,33.9,50.9"/>
	<path clip-path="url(#SVGID_2_)" fill="#58595B" d="M44.1,58.4c0.2,0.1,0.1,0.3-0.1,0.3c-0.2,0-0.6,0-0.9,0c-0.3,0-0.6,0-0.9,0
		c-0.2,0-0.3-0.1-0.1-0.3c0.3-0.2,0.5-0.7,0.5-2.4c0-0.3,0-2.1,0-2.7c0-0.7-0.3-1.3-0.9-1.5c-0.4-0.2-1.1-0.2-1.8-0.1
		c-0.5,0.1-1.2,0.7-1.2,1.4c0,0.6,0,1,0,1.5v1.5c0,1.8,0.1,2.2,0.4,2.4c0.2,0.1,0.1,0.3-0.1,0.3c-0.2,0-0.6,0-0.9,0
		c-0.3,0-0.6,0-0.9,0c-0.3,0-0.3-0.1-0.1-0.3c0.3-0.2,0.5-0.7,0.4-2.4c0-1.8,0-3.4,0-3.7c0-0.6-0.2-0.8-0.4-0.9
		c-0.1-0.1-0.1-0.2,0.1-0.3c0.5-0.1,0.7-0.2,1-0.3c0.2-0.1,0.2,0,0.2,0.2v0.4c0,0.2,0.2,0.2,0.3,0.1c0.5-0.4,1-0.7,1.6-0.8
		c0.2,0,0.4,0,0.6,0c0.6,0,1.1,0.1,1.6,0.4c0.6,0.4,1,1,1,1.9c0,0.3,0,2.1,0,2.7c0,0.2,0,0.7,0,1.3C43.7,57.9,43.8,58.2,44.1,58.4"
		/>
	<path clip-path="url(#SVGID_2_)" fill="#58595B" d="M47.8,53.4c0.3,0.2,0.5,0.3,0.8,0.5c0.4,0.3,0.9,0.6,1.2,0.8
		c0.6,0.6,0.8,1.3,0.6,2.1c-0.2,1-1,2-2.3,2c-0.7,0-2-0.1-2-0.8c0-0.2,0-0.3,0-0.7c0-0.2,0.2-0.3,0.3-0.1c0.3,0.6,0.8,1,1.7,1
		c0.3,0,0.8-0.2,1.1-0.5c0.8-1,0.1-1.9-0.8-2.5c-0.5-0.3-0.6-0.4-1.3-0.8c-1.5-1.1-0.7-3.7,1.6-3.6c0.7,0,1.5,0.3,1.5,0.6
		c0,0.3,0,0.2,0,0.6c0,0.3-0.2,0.3-0.3,0.1c-0.5-0.5-0.7-0.8-1.5-0.8C47.1,51.2,46.7,52.8,47.8,53.4"/>
	<path clip-path="url(#SVGID_2_)" fill="#58595B" d="M53.8,53.7c0,0.2,0.1,0.2,0.2,0.2c0.4,0,1.9-0.1,2.5-0.1c0.3,0,0.4-0.1,0.4-0.4
		c0-1.1-0.3-2.1-1.4-2.1C54.4,51.3,53.8,52.7,53.8,53.7 M53.9,54.4c-0.2,0-0.2,0.1-0.2,0.1c0,2.5,1.6,3.6,3.9,3.7
		c0.3,0,0.3,0.3,0,0.4c-0.2,0-0.5,0.1-0.8,0.1c-2,0-4.4-1.1-4.4-4.3c0-2,1.5-3.5,3.1-3.5c1.9,0,2.5,1.8,2.5,2.8
		c0,0.5-0.1,0.9-0.7,0.9C57.2,54.4,54.1,54.4,53.9,54.4"/>
	<path clip-path="url(#SVGID_2_)" fill="#58595B" d="M66.1,50.8c0.2,0,0.3,0.1,0.1,0.3c-0.4,0.3-0.6,0.7-0.9,1.4
		c-0.1,0.1-2.6,6.3-2.7,6.3c-0.5,1.1-0.9,2-1.6,2.5c-1.1,0.9-2,0.5-2,0.5c-0.1,0-0.2-0.2,0-0.2c1.4-0.3,2.2-1.5,2.7-2.7
		c0.2-0.4,0.2-0.5,0.3-0.8c0.1-0.2,0-0.4,0-0.5c-0.1-0.3-2-4.8-2.1-5.1c-0.4-0.9-0.7-1.3-0.9-1.4c-0.2-0.1-0.3-0.3,0-0.3
		c0.2,0,0.6,0,1,0c0.3,0,0.8,0,0.9,0c0.2,0,0.2,0.2,0.1,0.3c-0.1,0.1-0.1,0.4-0.1,0.6c0.2,0.7,1.6,4.2,1.7,4.5
		c0.1,0.2,0.2,0.2,0.2,0c0.2-0.3,1.4-3.3,1.6-4.1c0.1-0.5,0.1-0.8-0.1-1c-0.1-0.1-0.1-0.4,0.2-0.3c0.3,0,0.5,0.1,0.8,0.1
		C65.7,50.9,66,50.9,66.1,50.8"/>
	<path clip-path="url(#SVGID_2_)" fill="#58595B" d="M76.3,53c0,0.2-0.1,0.3-0.3,0.1c-0.2-0.2-0.7-0.3-1.1-0.3c-0.5,0-1.6,0-2,0
		c-0.2,0-0.2,0.1-0.2,0.2c0,0,0,3.6,0.1,4.5c0.1,0.5,0.2,0.7,0.4,0.8c0.2,0.1,0.1,0.3-0.1,0.3c-0.2,0-0.6,0-0.9,0
		c-0.1,0-0.7,0-0.9,0c-0.3,0-0.3-0.1-0.1-0.3c0.3-0.2,0.4-0.6,0.4-2.4v-7.3c0-0.6-0.2-0.7-0.4-0.8c-0.1-0.1-0.1-0.3,0.1-0.3
		c0.3,0,0.7,0,1.3,0.1c0.7,0,2,0,2.5,0c0.9,0,1.4,0,1.6-0.1c0.2,0,0.3-0.1,0.3,0.2c0,0.5-0.1,0.8-0.1,1.1c0,0.2-0.2,0.2-0.3,0.1
		c-0.4-0.7-2.1-0.8-2.9-0.8c-0.5,0-1,0-1,0.3V52c0,0.1,0.1,0.2,0.4,0.2c0.3,0,2.4,0,2.7,0c0.2,0,0.2,0,0.4,0c0.2,0,0.3,0,0.3,0.1V53
		z"/>
	<path clip-path="url(#SVGID_2_)" fill="#58595B" d="M80.1,47.4c-0.5,0-0.9,0.4-0.9,0.9c0,0.4,0.3,0.8,0.8,0.8
		c0.5,0,0.8-0.3,0.8-0.8C80.9,47.8,80.6,47.4,80.1,47.4 M81,58.6c-0.2,0-0.6-0.1-0.9-0.1c-0.3,0-0.6,0-0.9,0.1
		c-0.3,0-0.3-0.1-0.1-0.3c0.3-0.2,0.4-0.6,0.4-2.4c0-1.8,0-3.3,0-3.7c0-0.6-0.2-0.8-0.4-0.9c-0.2-0.1-0.1-0.2,0.1-0.3
		c0.5-0.1,0.9-0.2,1.2-0.3c0.2-0.1,0.3,0,0.2,0.3c0,0.3-0.1,1.1-0.1,1.4v2.4c0,0.3,0,0.7,0,1.1c0,1.8,0.2,2.2,0.4,2.4
		C81.3,58.5,81.3,58.7,81,58.6"/>
	<path clip-path="url(#SVGID_2_)" fill="#58595B" d="M90.4,58.4c0.2,0.1,0.1,0.3-0.1,0.3c-0.2,0-0.6,0-0.9,0c-0.3,0-0.6,0-0.9,0
		c-0.3,0-0.3-0.1-0.1-0.3c0.3-0.2,0.5-0.7,0.5-2.4c0-0.3,0-2.1,0-2.7c0-0.7-0.3-1.3-0.9-1.5c-0.4-0.2-1.1-0.2-1.8-0.1
		C85.7,51.7,85,52.3,85,53c0,0.6,0,1,0,1.5v1.5c0,1.8,0.1,2.2,0.4,2.4c0.2,0.1,0.1,0.3-0.1,0.3c-0.2,0-0.6,0-0.9,0
		c-0.3,0-0.6,0-0.9,0c-0.2,0-0.3-0.1-0.1-0.3c0.3-0.2,0.5-0.7,0.4-2.4c0-1.8,0-3.4,0-3.7c0-0.6-0.2-0.8-0.4-0.9
		c-0.1-0.1-0.1-0.2,0.1-0.3c0.5-0.1,0.7-0.2,1-0.3c0.2-0.1,0.3,0,0.3,0.2v0.4c0,0.2,0.2,0.2,0.3,0.1c0.5-0.4,1-0.7,1.6-0.8
		c0.2,0,0.4,0,0.6,0c0.6,0,1.1,0.1,1.6,0.4c0.6,0.4,1,1,1,1.9c0,0.3,0,2.1,0,2.7c0,0.2,0,0.7,0,1.3C90.1,57.9,90.2,58.2,90.4,58.4"
		/>
	<path clip-path="url(#SVGID_2_)" fill="#58595B" d="M98,58.1c0.2,0,0.3,0.2,0.1,0.3c-0.2,0.1-0.6,0.2-0.9,0.2
		c-0.8,0.1-0.9-0.3-0.9-1.4c0-0.6,0-2.1,0-2.7c0-0.2-0.1-0.2-0.3-0.1c-0.2,0.2-2.5,0.9-2.5,2.3c0,0.6,0.3,1,0.7,1.2
		c0.4,0.2,0.8,0.3,1.4,0.2c0.2,0,0.3,0.2,0.1,0.3c-0.5,0.2-1,0.3-1.4,0.3c-1.1,0-1.9-0.6-1.9-1.7c0-1.4,2.2-2.3,3-2.8
		c0.8-0.4,1-0.8,1-1.5c0-1-0.4-1.4-1.2-1.4c-0.9,0-1.3,0.9-2,0.4c-0.2-0.2-0.3-0.4,0.2-0.5c0.5-0.2,1.2-0.3,1.9-0.3
		c0.4,0,0.7,0,1,0.1c0.7,0.2,1.3,0.7,1.3,1.9v4.6C97.4,58.2,97.8,58.1,98,58.1"/>
	<path clip-path="url(#SVGID_2_)" fill="#58595B" d="M107.3,58.4c0.2,0.1,0.1,0.3-0.1,0.3c-0.2,0-0.6,0-0.9,0c-0.3,0-0.6,0-0.9,0
		c-0.3,0-0.3-0.1-0.1-0.3c0.3-0.2,0.5-0.7,0.5-2.4c0-0.3,0-2.1,0-2.7c0-0.7-0.3-1.3-0.9-1.5c-0.4-0.2-1.1-0.2-1.8-0.1
		c-0.5,0.1-1.2,0.7-1.2,1.4c0,0.6,0,1,0,1.5v1.5c0,1.8,0.1,2.2,0.4,2.4c0.2,0.1,0.1,0.3-0.1,0.3c-0.2,0-0.6,0-0.9,0s-0.6,0-0.9,0
		c-0.2,0-0.3-0.1-0.1-0.3c0.3-0.2,0.5-0.7,0.4-2.4c0-1.8,0-3.4,0-3.7c0-0.6-0.2-0.8-0.4-0.9c-0.1-0.1-0.1-0.2,0.1-0.3
		c0.5-0.1,0.7-0.2,1-0.3c0.2-0.1,0.3,0,0.3,0.2v0.4c0,0.2,0.2,0.2,0.3,0.1c0.5-0.4,1-0.7,1.6-0.8c0.2,0,0.4,0,0.6,0
		c0.6,0,1.1,0.1,1.6,0.4c0.6,0.4,1,1,1,1.9c0,0.3,0,2.1,0,2.7c0,0.2,0,0.7,0,1.3C107,57.9,107.1,58.2,107.3,58.4"/>
	<path clip-path="url(#SVGID_2_)" fill="#58595B" d="M114.4,58.2c0.3,0,0.2,0.3,0,0.4c-0.2,0-0.5,0.1-0.8,0.1c-2,0-4.4-1.1-4.4-4.3
		c0-2,1.6-3.3,2.9-3.5c0.2,0,0.5-0.1,0.8-0.1c0.8,0,1.6,0.2,1.6,0.4c-0.1,0.4-0.1,0.7-0.2,1.1c-0.1,0.3-0.3,0.2-0.3,0
		c0-0.7-0.7-1.1-1.5-0.9c-0.9,0.1-2,0.8-2,3C110.5,56.9,112.2,58.2,114.4,58.2"/>
	<path clip-path="url(#SVGID_2_)" fill="#58595B" d="M118.1,47.4c-0.5,0-0.9,0.4-0.9,0.9c0,0.4,0.3,0.8,0.8,0.8
		c0.5,0,0.9-0.3,0.9-0.8C118.9,47.8,118.5,47.4,118.1,47.4 M118.9,58.6c-0.2,0-0.6-0.1-0.9-0.1c-0.3,0-0.6,0-0.9,0.1
		c-0.3,0-0.3-0.1-0.1-0.3c0.3-0.2,0.4-0.6,0.4-2.4c0-1.8,0-3.3,0-3.7c0-0.6-0.2-0.8-0.4-0.9c-0.2-0.1-0.1-0.2,0.1-0.3
		c0.5-0.1,0.9-0.2,1.2-0.3c0.2-0.1,0.3,0,0.2,0.3c0,0.3-0.1,1.1-0.1,1.4v2.4c0,0.3,0,0.7,0,1.1c0,1.8,0.2,2.2,0.4,2.4
		C119.3,58.5,119.2,58.7,118.9,58.6"/>
	<path clip-path="url(#SVGID_2_)" fill="#58595B" d="M126.7,58.1c0.2,0,0.3,0.2,0.1,0.3c-0.2,0.1-0.6,0.2-0.9,0.2
		c-0.8,0.1-0.9-0.3-0.9-1.4c0-0.6,0-2.1,0-2.7c0-0.2-0.1-0.2-0.3-0.1c-0.2,0.2-2.5,0.9-2.5,2.3c0,0.6,0.3,1,0.7,1.2
		c0.4,0.2,0.8,0.3,1.4,0.2c0.2,0,0.3,0.2,0.1,0.3c-0.5,0.2-1,0.3-1.4,0.3c-1.1,0-1.9-0.6-1.9-1.7c0-1.4,2.2-2.3,3-2.8
		c0.8-0.4,1-0.8,1-1.5c0-1-0.4-1.4-1.2-1.4c-0.9,0-1.3,0.9-2,0.4c-0.2-0.2-0.3-0.4,0.2-0.5c0.5-0.2,1.2-0.3,1.9-0.3
		c0.4,0,0.7,0,1,0.1c0.7,0.2,1.3,0.7,1.3,1.9v4.6C126.2,58.2,126.6,58.1,126.7,58.1"/>
	<path clip-path="url(#SVGID_2_)" fill="#58595B" d="M130.8,58.4c0.2,0.1,0.1,0.3-0.1,0.3c-0.2,0-0.6,0-0.9,0s-0.6,0-0.9,0
		c-0.3,0-0.3-0.1-0.1-0.3c0.3-0.2,0.5-0.6,0.4-2.4c0-1.8,0-7.2,0-7.5c0-0.6-0.2-0.8-0.4-0.9c-0.1-0.1-0.1-0.2,0.1-0.3
		c0.5-0.1,0.9-0.2,1.2-0.3c0.2-0.1,0.3,0,0.2,0.2c0,0.3-0.1,1.2-0.1,1.4c0,1.6,0,7.3,0,7.3C130.3,57.7,130.5,58.2,130.8,58.4"/>
	<path clip-path="url(#SVGID_2_)" fill="#58595B" d="M2.6,75.3c1.8,0,2.5-1,2.5-2.1c0-0.4-0.2-1.2-0.8-1.7c-0.6-0.5-2.5-1.6-3-2.1
		c-0.7-0.6-0.9-1.4-0.9-2.2c0.1-0.7,0.4-1.4,0.9-1.8c0.6-0.5,1.3-0.7,2.4-0.7c0.3,0,1.1,0.2,1.6,0.2c0.1,0,0.4,0,0.3,0.2
		c0,0.4-0.1,0.7-0.1,1c0,0.4-0.2,0.3-0.4,0.1c-0.3-0.4-0.8-0.9-1.8-0.9c-1.1,0-1.7,0.7-1.7,1.5c-0.1,0.7,0.2,1.4,0.9,1.9
		c0.5,0.4,2.5,1.7,2.9,2C6,71.3,6.3,72,6.3,72.8c0,1-0.5,1.8-1.4,2.4c-0.7,0.4-1.4,0.6-2.5,0.6c-0.9,0-1.4-0.1-2.1-0.3
		c-0.2-0.1-0.2-0.3-0.2-0.6c0-0.4,0-0.4-0.1-0.7C0,74,0.3,74,0.4,74.2C0.8,74.9,1.6,75.3,2.6,75.3"/>
	<path clip-path="url(#SVGID_2_)" fill="#58595B" d="M9.2,70.9c0,0.2,0.1,0.2,0.2,0.2c0.4,0,1.9-0.1,2.5-0.1c0.3,0,0.4-0.1,0.4-0.4
		c0-1.1-0.3-2.1-1.4-2.1C9.9,68.5,9.2,69.8,9.2,70.9 M9.4,71.6c-0.2,0-0.2,0.1-0.2,0.1c0,2.5,1.6,3.7,3.9,3.7c0.3,0,0.2,0.3,0,0.4
		c-0.3,0-0.5,0.1-0.8,0.1c-2,0-4.4-1.1-4.4-4.4c0-2,1.5-3.5,3.1-3.5c1.9,0,2.6,1.8,2.6,2.8c0,0.5-0.1,0.9-0.7,0.9
		C12.7,71.6,9.5,71.6,9.4,71.6"/>
	<path clip-path="url(#SVGID_2_)" fill="#58595B" d="M17.6,68.1c0.2-0.1,0.5-0.1,0.7-0.1c0.5,0,0.8,0.3,0.9,0.5
		c0,0.2-0.3,0.8-0.3,0.9c-0.2,0.2-0.2,0.3-0.4-0.1c-0.4-1-1.8-0.3-1.8,0.7c0,0.5,0,3.2,0,3.3c0,1.8,0.2,2.2,0.7,2.4
		c0.2,0.1,0.1,0.3-0.1,0.3c-0.2,0-0.9,0-1.1,0c-0.2,0-0.6,0-0.9,0c-0.3,0-0.3-0.1-0.1-0.3c0.3-0.2,0.5-0.6,0.4-2.4
		c0-1.8,0-3.3,0-3.7c0-0.6-0.2-0.8-0.4-0.9c-0.1-0.1-0.1-0.2,0.1-0.3c0.5-0.1,0.7-0.2,1-0.3c0.2-0.1,0.3-0.1,0.3,0.2v0.2
		c0,0.3,0.2,0.2,0.3,0.1C17.1,68.4,17.3,68.2,17.6,68.1"/>
	<path clip-path="url(#SVGID_2_)" fill="#58595B" d="M27.5,68c0.2,0,0.3,0.1,0.1,0.3c-0.4,0.3-0.6,0.7-0.9,1.4
		c-0.4,0.8-2.4,6-2.5,6.2c-0.1,0.2-0.2,0.2-0.3,0c-0.1-0.2-2.3-5.8-2.5-6.2c-0.4-0.9-0.7-1.3-0.9-1.4c-0.2-0.1-0.3-0.3,0-0.3
		c0.2,0,0.6,0.1,1,0.1c0.4,0,0.7-0.1,0.9-0.1c0.3,0,0.2,0.2,0.1,0.3c-0.1,0.1-0.2,0.3-0.1,0.7c0.2,0.6,1.8,4.4,1.9,4.7
		c0.1,0.2,0.1,0.2,0.3,0c0.2-0.3,1.3-3.5,1.6-4.3c0.1-0.5,0-0.9-0.2-1c-0.1-0.1-0.1-0.4,0.2-0.3c0.3,0,0.5,0,0.7,0
		C27.1,68,27.3,68,27.5,68"/>
	<path clip-path="url(#SVGID_2_)" fill="#58595B" d="M29.9,64.5c-0.5,0-0.9,0.4-0.9,0.9c0,0.4,0.3,0.8,0.8,0.8
		c0.5,0,0.9-0.3,0.9-0.9C30.7,64.9,30.3,64.5,29.9,64.5 M30.7,75.8c-0.2,0-0.6-0.1-0.9-0.1c-0.3,0-0.6,0-0.9,0.1
		c-0.3,0-0.3-0.1-0.1-0.3c0.3-0.2,0.4-0.6,0.4-2.5c0-1.8,0-3.4,0-3.7c0-0.6-0.2-0.8-0.4-0.9c-0.2-0.1-0.1-0.2,0.1-0.3
		c0.5-0.1,0.9-0.2,1.2-0.3c0.2-0.1,0.3,0,0.2,0.3c0,0.4-0.1,1.1-0.1,1.4V72c0,0.3,0,0.7,0,1.1c0,1.8,0.2,2.3,0.4,2.5
		C31.1,75.7,31,75.9,30.7,75.8"/>
	<path clip-path="url(#SVGID_2_)" fill="#58595B" d="M37.6,75.4c0.3,0,0.2,0.3,0,0.3c-0.2,0-0.5,0.1-0.8,0.1c-2,0-4.4-1.1-4.4-4.4
		c0-2.1,1.6-3.3,2.9-3.5c0.3,0,0.5-0.1,0.8-0.1c0.8,0,1.7,0.2,1.6,0.4c-0.1,0.4-0.1,0.7-0.2,1.1c-0.1,0.3-0.3,0.2-0.3,0
		c0-0.7-0.7-1.1-1.5-1c-0.9,0.1-2,0.8-2,3C33.7,74.1,35.4,75.4,37.6,75.4"/>
	<path clip-path="url(#SVGID_2_)" fill="#58595B" d="M40.2,70.9c0,0.2,0.1,0.2,0.2,0.2c0.4,0,1.9-0.1,2.5-0.1c0.3,0,0.4-0.1,0.4-0.4
		c0-1.1-0.3-2.1-1.4-2.1C40.8,68.5,40.2,69.8,40.2,70.9 M40.3,71.6c-0.2,0-0.2,0.1-0.2,0.1c0,2.5,1.6,3.7,3.9,3.7
		c0.3,0,0.3,0.3,0,0.4c-0.2,0-0.5,0.1-0.8,0.1c-2,0-4.4-1.1-4.4-4.4c0-2,1.5-3.5,3.1-3.5c1.9,0,2.6,1.8,2.6,2.8
		c0,0.5-0.1,0.9-0.7,0.9C43.6,71.6,40.5,71.6,40.3,71.6"/>
	<path clip-path="url(#SVGID_2_)" fill="#58595B" d="M47.6,70.6c0.3,0.2,0.5,0.3,0.8,0.5c0.4,0.3,0.9,0.6,1.2,0.8
		c0.7,0.6,0.8,1.3,0.7,2.1c-0.2,1-1,2-2.3,2c-0.8,0-2-0.1-2-0.8c0-0.2,0-0.3,0-0.7c0-0.2,0.2-0.3,0.3-0.1c0.3,0.6,0.8,1,1.7,1
		c0.3,0,0.8-0.2,1.1-0.5c0.8-1,0.1-1.9-0.8-2.5c-0.5-0.4-0.6-0.4-1.3-0.8c-1.5-1.1-0.7-3.8,1.6-3.6c0.7,0,1.6,0.3,1.6,0.6
		c0,0.3,0,0.2,0,0.6c0,0.3-0.2,0.3-0.3,0.1c-0.5-0.5-0.7-0.8-1.5-0.8C46.8,68.4,46.5,70,47.6,70.6"/>
	<path clip-path="url(#SVGID_2_)" fill="#58595B" d="M62.7,75.2c-0.1,0.3-0.2,0.3-0.4,0.4c-0.4,0.1-1.7,0.3-2.9,0.3
		c-3.3,0-5.6-2.3-5.6-5.5c0-3,2.4-5.4,6-5.4c0.8,0,2.9,0.2,2.8,0.7c-0.1,0.3-0.1,0.6-0.1,1c0,0.2-0.2,0.2-0.3,0
		c-0.3-0.9-1.4-1.1-2.5-1.1c-2.2,0-4.5,1.4-4.5,4.7c0,4,2.7,5.1,4.3,5.1c1.2,0,2.3-0.2,3.1-0.9c0.2-0.2,0.4-0.2,0.4,0.1
		C62.8,74.8,62.8,74.8,62.7,75.2"/>
	<path clip-path="url(#SVGID_2_)" fill="#58595B" d="M67.3,68.5c-1.4,0-2.3,1.2-2.3,3.3c0,1.7,0.8,3.6,2.5,3.6
		c1.7,0,2.3-1.8,2.3-3.2C69.9,70.5,69.1,68.5,67.3,68.5 M71.2,71.8c0,2.3-1.6,4.1-3.8,4.1c-2.1,0-3.7-1.6-3.7-3.9c0-2.3,1.7-4,3.8-4
		C69.5,67.9,71.2,69.5,71.2,71.8"/>
	<path clip-path="url(#SVGID_2_)" fill="#58595B" d="M83.9,75.6c0.2,0.1,0.1,0.3-0.1,0.3c-0.2,0-0.6,0-0.9,0c-0.3,0-0.6,0-0.9,0
		c-0.3,0-0.3-0.1-0.1-0.3c0.3-0.2,0.4-0.6,0.4-2.4c0-0.3,0-2.1,0-2.8c0-0.6-0.2-1.1-0.6-1.4c-0.5-0.3-1-0.4-1.6-0.3
		c-0.3,0.1-0.7,0.3-1,0.6c-0.1,0.2-0.3,0.3-0.3,0.6v0.4v2.9c0,1.8,0.2,2.2,0.4,2.4c0.2,0.1,0.1,0.3-0.1,0.3c-0.2,0-0.6,0-0.9,0
		c-0.3,0-0.6,0-0.9,0c-0.3,0-0.3-0.1-0.1-0.3c0.3-0.2,0.4-0.6,0.4-2.4c0-0.3,0-2.1,0-2.8c0-0.6-0.2-1.1-0.6-1.4
		c-0.5-0.3-1-0.4-1.6-0.3c-0.5,0.1-1.3,0.7-1.3,1.3v3.1c0,1.8,0.2,2.3,0.5,2.4c0.2,0.1,0.1,0.3-0.1,0.3c-0.2,0-0.6,0-0.9,0
		c-0.3,0-0.6,0-0.9,0c-0.3,0-0.3-0.1-0.1-0.3c0.3-0.2,0.4-0.7,0.4-2.4c0-1.8,0-3.4,0-3.7c0-0.6-0.2-0.7-0.4-0.8
		c-0.1-0.1-0.1-0.2,0.1-0.3c0.5-0.1,0.7-0.2,1-0.3c0.2-0.1,0.3-0.1,0.4,0.2c0,0.2,0,0.3,0,0.4c0,0.2,0.2,0.2,0.3,0.1
		C75,68.3,75.5,68,76,68c0.6-0.1,1.4,0,1.9,0.3c0.3,0.2,0.5,0.3,0.7,0.6c0.1,0.1,0.1,0.1,0.2,0c0.5-0.4,1-0.9,1.7-1
		c0.2,0,0.4,0,0.5,0c0.5,0,1,0.1,1.4,0.4c0.5,0.4,1,0.8,1,1.9v2.9C83.4,74.9,83.6,75.4,83.9,75.6"/>
	<path clip-path="url(#SVGID_2_)" fill="#58595B" d="M96.9,75.6c0.2,0.1,0.1,0.3-0.1,0.3c-0.2,0-0.6,0-0.9,0c-0.3,0-0.6,0-0.9,0
		c-0.3,0-0.3-0.1-0.1-0.3c0.3-0.2,0.4-0.6,0.4-2.4c0-0.3,0-2.1,0-2.8c0-0.6-0.2-1.1-0.6-1.4c-0.5-0.3-1-0.4-1.6-0.3
		c-0.3,0.1-0.7,0.3-1,0.6c-0.1,0.2-0.3,0.3-0.3,0.6v0.4v2.9c0,1.8,0.2,2.2,0.4,2.4c0.2,0.1,0.1,0.3-0.1,0.3c-0.2,0-0.6,0-0.9,0
		c-0.3,0-0.6,0-0.9,0c-0.3,0-0.3-0.1-0.1-0.3c0.3-0.2,0.4-0.6,0.4-2.4c0-0.3,0-2.1,0-2.8c0-0.6-0.2-1.1-0.6-1.4
		c-0.5-0.3-1-0.4-1.6-0.3c-0.5,0.1-1.3,0.7-1.3,1.3v3.1c0,1.8,0.2,2.3,0.5,2.4c0.2,0.1,0.1,0.3-0.1,0.3c-0.2,0-0.6,0-0.9,0
		c-0.3,0-0.6,0-0.9,0c-0.3,0-0.3-0.1-0.1-0.3c0.3-0.2,0.4-0.7,0.4-2.4c0-1.8,0-3.4,0-3.7c0-0.6-0.2-0.7-0.4-0.8
		c-0.1-0.1-0.1-0.2,0.1-0.3c0.5-0.1,0.7-0.2,1-0.3c0.2-0.1,0.3-0.1,0.4,0.2c0,0.2,0,0.3,0,0.4c0,0.2,0.2,0.2,0.3,0.1
		C88,68.3,88.5,68,89,68c0.6-0.1,1.4,0,1.9,0.3c0.3,0.2,0.5,0.3,0.7,0.6c0.1,0.1,0.1,0.1,0.2,0c0.5-0.4,1-0.9,1.7-1
		c0.2,0,0.4,0,0.5,0c0.5,0,1,0.1,1.4,0.4c0.5,0.4,1,0.8,1,1.9v2.9C96.5,74.9,96.6,75.4,96.9,75.6"/>
	<path clip-path="url(#SVGID_2_)" fill="#58595B" d="M100,64.5c-0.5,0-0.9,0.4-0.9,0.9c0,0.4,0.3,0.8,0.8,0.8c0.5,0,0.9-0.3,0.9-0.9
		C100.9,64.9,100.5,64.5,100,64.5 M100.9,75.8c-0.2,0-0.6-0.1-0.9-0.1c-0.3,0-0.6,0-0.9,0.1c-0.3,0-0.3-0.1-0.1-0.3
		c0.3-0.2,0.4-0.6,0.4-2.5c0-1.8,0-3.4,0-3.7c0-0.6-0.2-0.8-0.4-0.9c-0.2-0.1-0.1-0.2,0.1-0.3c0.5-0.1,0.9-0.2,1.2-0.3
		c0.2-0.1,0.3,0,0.2,0.3c0,0.4-0.1,1.1-0.1,1.4V72c0,0.3,0,0.7,0,1.1c0,1.8,0.2,2.3,0.4,2.5C101.3,75.7,101.2,75.9,100.9,75.8"/>
	<path clip-path="url(#SVGID_2_)" fill="#58595B" d="M104.9,70.6c0.3,0.2,0.5,0.3,0.8,0.5c0.4,0.3,0.9,0.6,1.2,0.8
		c0.7,0.6,0.8,1.3,0.7,2.1c-0.2,1-1,2-2.3,2c-0.8,0-2-0.1-2-0.8c0-0.2,0-0.3,0-0.7c0-0.2,0.2-0.3,0.3-0.1c0.3,0.6,0.8,1,1.7,1
		c0.3,0,0.8-0.2,1.1-0.5c0.8-1,0.1-1.9-0.8-2.5c-0.5-0.4-0.7-0.4-1.3-0.8c-1.5-1.1-0.7-3.8,1.6-3.6c0.7,0,1.6,0.3,1.6,0.6
		c0,0.3,0,0.2,0,0.6c0,0.3-0.2,0.3-0.3,0.1c-0.5-0.5-0.7-0.8-1.5-0.8C104.2,68.4,103.8,70,104.9,70.6"/>
	<path clip-path="url(#SVGID_2_)" fill="#58595B" d="M111.1,70.6c0.3,0.2,0.5,0.3,0.8,0.5c0.4,0.3,0.9,0.6,1.2,0.8
		c0.7,0.6,0.8,1.3,0.7,2.1c-0.2,1-1,2-2.4,2c-0.8,0-2-0.1-2-0.8c0-0.2,0-0.3,0-0.7c0-0.2,0.2-0.3,0.3-0.1c0.3,0.6,0.8,1,1.7,1
		c0.3,0,0.8-0.2,1.1-0.5c0.8-1,0.1-1.9-0.8-2.5c-0.5-0.4-0.7-0.4-1.3-0.8c-1.5-1.1-0.7-3.8,1.6-3.6c0.7,0,1.6,0.3,1.6,0.6
		c0,0.3,0,0.2,0,0.6c0,0.3-0.2,0.3-0.3,0.1c-0.5-0.5-0.7-0.8-1.5-0.8C110.3,68.4,110,70,111.1,70.6"/>
	<path clip-path="url(#SVGID_2_)" fill="#58595B" d="M117,64.5c-0.5,0-0.9,0.4-0.9,0.9c0,0.4,0.3,0.8,0.8,0.8c0.5,0,0.9-0.3,0.9-0.9
		C117.8,64.9,117.5,64.5,117,64.5 M117.9,75.8c-0.2,0-0.6-0.1-0.9-0.1c-0.3,0-0.6,0-0.9,0.1c-0.3,0-0.3-0.1-0.1-0.3
		c0.3-0.2,0.4-0.6,0.4-2.5c0-1.8,0-3.4,0-3.7c0-0.6-0.2-0.8-0.4-0.9c-0.2-0.1-0.1-0.2,0.1-0.3c0.5-0.1,0.9-0.2,1.2-0.3
		c0.2-0.1,0.3,0,0.2,0.3c0,0.4-0.1,1.1-0.1,1.4V72c0,0.3,0,0.7,0,1.1c0,1.8,0.2,2.3,0.4,2.5C118.2,75.7,118.1,75.9,117.9,75.8"/>
	<path clip-path="url(#SVGID_2_)" fill="#58595B" d="M123.5,68.5c-1.4,0-2.3,1.2-2.3,3.3c0,1.7,0.8,3.6,2.5,3.6
		c1.7,0,2.3-1.8,2.3-3.2C126,70.5,125.2,68.5,123.5,68.5 M127.3,71.8c0,2.3-1.6,4.1-3.8,4.1c-2.1,0-3.7-1.6-3.7-3.9
		c0-2.3,1.7-4,3.8-4C125.6,67.9,127.3,69.5,127.3,71.8"/>
	<path clip-path="url(#SVGID_2_)" fill="#58595B" d="M135.9,75.6c0.2,0.1,0.1,0.3-0.1,0.3c-0.2,0-0.6,0-0.9,0c-0.3,0-0.6,0-0.9,0
		c-0.3,0-0.3-0.1-0.1-0.3c0.3-0.2,0.5-0.7,0.5-2.4c0-0.3,0-2.1,0-2.7c0-0.7-0.3-1.3-0.9-1.6c-0.4-0.2-1.1-0.2-1.8-0.1
		c-0.5,0.1-1.2,0.7-1.2,1.4c0,0.6,0,1,0,1.5v1.5c0,1.8,0.2,2.2,0.4,2.4c0.2,0.1,0.1,0.3-0.1,0.3c-0.2,0-0.6,0-0.9,0s-0.6,0-0.9,0
		c-0.3,0-0.3-0.1-0.1-0.3c0.3-0.2,0.5-0.7,0.4-2.4c0-1.8,0-3.4,0-3.7c0-0.6-0.2-0.8-0.4-0.9c-0.1-0.1-0.1-0.2,0.1-0.3
		c0.5-0.1,0.7-0.2,1-0.3c0.2-0.1,0.3,0,0.3,0.2v0.4c0,0.2,0.2,0.2,0.3,0.1c0.5-0.4,1-0.7,1.7-0.8c0.2,0,0.4,0,0.6,0
		c0.6,0,1.2,0.1,1.6,0.4c0.6,0.4,1,1,1,1.9c0,0.3,0,2.1,0,2.7c0,0.2,0,0.7,0,1.3C135.5,75.1,135.7,75.4,135.9,75.6"/>
</g>
</svg>
