<?xml version="1.0" encoding="utf-8"?>
<svg width="656px" height="102px" viewBox="0 0 656 102" version="1.1" xmlns:xlink="http://www.w3.org/1999/xlink" xmlns="http://www.w3.org/2000/svg">
  <desc>Created with Lunacy</desc>
  <defs>
    <path d="M0 100.705L655.001 100.705L655.001 0L0 0L0 100.705Z" id="path_1" />
    <clipPath id="mask_1">
      <use xlink:href="#path_1" />
    </clipPath>
  </defs>
  <g id="Logo">
    <path d="M34.6435 0L0 58.5104L13.5049 58.5104L18.3086 49.8508L50.5544 49.8508L55.3613 58.5104L69.8649 58.5104L35.2193 0L34.6435 0ZM34.4336 20.7915L45.7497 41.1902L23.1144 41.1902L34.4336 20.7915Z" transform="translate(34.00031 33.03942)" id="Fill-1" fill="#003869" stroke="none" />
    <path d="M49.7781 0L49.7781 10.2352L12.5705 10.2352L12.5705 23.9718L47.6942 23.9718L47.6942 33.1313L12.5705 33.1313L12.5705 56.0223L0 56.0223L0 0L49.7781 0Z" transform="translate(210.7204 35.52744)" id="Fill-2" fill="#DD083B" stroke="none" />
    <g id="Group-44" transform="translate(0 0.4637429)">
      <path d="M7.08502 1.18066C4.59586 0.643337 2.23869 0.263986 0 0L0 56.0223L11.7037 56.0223L11.7037 14.6918C29.0468 20.8944 44.2603 35.6319 54.4207 56.0223L67.3394 56.0223C54.4654 26.8975 32.3809 6.63188 7.08502 1.18066" transform="translate(110.0882 35.06349)" id="Fill-3" fill="#003869" stroke="none" />
      <path d="M60.2544 1.18066C62.7435 0.643337 65.0986 0.263986 67.3394 0L67.3394 56.0223L55.6346 56.0223L55.6346 14.6918C38.2905 20.8944 23.0759 35.6319 12.9177 56.0223L0 56.0223C12.873 26.8975 34.9553 6.63188 60.2544 1.18066" transform="translate(125.9598 35.06349)" id="Fill-5" fill="#DD083B" stroke="none" />
      <path d="M1.43426 1.27004L6.51859 1.27004C8.58787 1.27004 10.1375 1.56209 10.1375 3.2884C10.1375 5.03445 8.58787 5.3265 6.51859 5.3265L1.43426 5.3265L1.43426 1.27004ZM0 11.8461L1.43426 11.8461L1.43426 6.59758L6.09455 6.59758L9.90884 11.8461L11.684 11.8461L7.77513 6.5664C9.2073 6.503 11.5052 5.78587 11.5052 3.30607C11.5052 0.402215 8.73545 0 6.84598 0L0 0L0 11.8461Z" transform="translate(612.7904 69.46381)" id="Fill-7" fill="#003869" stroke="none" />
      <path d="M1.10375 8.75104C1.79178 9.66564 2.93191 11.1623 6.48428 11.1623C8.31139 11.1623 10.8047 10.6416 10.8047 8.80093C10.8047 5.20074 0.470809 8.3613 0.470809 3.55446C0.470809 1.02373 2.80095 0 6.02906 0C9.15843 0 11.0832 1.28459 11.8949 2.43096L10.8536 3.27488C10.3651 2.71989 9.22495 1.20561 5.99372 1.20561C3.61369 1.20561 1.93832 1.824 1.93832 3.32269C1.93832 6.91041 12.2701 3.48898 12.2701 8.80093C12.2701 10.7891 10.3495 12.4354 6.32007 12.4354C2.44239 12.4354 1.00813 10.8203 0 9.69994L1.10375 8.75104Z" transform="translate(628.731 69.16875)" id="Fill-9" fill="#003869" stroke="none" />
      <path d="M4.679 7.1401L7.15465 1.86038L9.63134 7.1401L4.679 7.1401ZM0 11.8513L2.45798 11.8513L3.71244 9.13039L10.5459 9.13039L11.7838 11.8513L14.2272 11.8513L8.47355 0L5.83264 0L0 11.8513Z" transform="translate(314.2505 45.76304)" id="Fill-11" fill="#003869" stroke="none" />
      <path d="M12.584 6.76491C12.584 10.5792 10.1531 12.1475 6.2889 12.1475C2.42784 12.1475 0 10.5792 0 6.76491L0 0L2.31352 0L2.31352 6.60174C2.31352 8.55981 3.01402 10.1562 6.2889 10.1562C9.56795 10.1562 10.2695 8.55981 10.2695 6.60174L10.2695 0L12.584 0L12.584 6.76491Z" transform="translate(332.1136 45.76325)" id="Fill-13" fill="#003869" stroke="none" />
      <path d="M5.29948 1.99133L0 1.99133L0 0L12.9114 0L12.9114 1.99133L7.613 1.99133L7.613 11.8513L5.29948 11.8513L5.29948 1.99133Z" transform="translate(348.9662 45.76294)" id="Fill-15" fill="#003869" stroke="none" />
      <path d="M7.06111 10.4472C4.83906 10.4472 2.31664 9.53157 2.31664 6.1777C2.31664 3.32477 4.34954 1.98821 7.06111 1.98821C9.76438 1.98821 11.8004 3.32477 11.8004 6.1777C11.8004 9.53157 9.27694 10.4472 7.06111 10.4472M0 6.30761C0 8.76871 1.45192 12.4385 7.06111 12.4385C12.6641 12.4385 14.117 8.76871 14.117 6.30761C14.117 3.06494 12.2733 0 7.06111 0C1.84271 0 0 3.06494 0 6.30761" transform="translate(364.9177 45.47193)" id="Fill-17" fill="#003869" stroke="none" />
      <path d="M2.31456 5.26622L2.31456 1.92689L6.78154 1.92689C8.67205 1.92689 9.63342 2.20023 9.63342 3.58876C9.63342 4.98872 8.67205 5.26622 6.78154 5.26622L2.31456 5.26622ZM0 11.8513L2.31456 11.8513L2.31456 7.18999L5.9823 7.18999L9.42244 11.8513L12.2743 11.8513L8.6388 7.02682C10.3838 6.92808 11.949 5.72351 11.949 3.54095C11.949 0.635022 9.92755 0 7.12451 0L0 0L0 11.8513Z" transform="translate(383.7843 45.76335)" id="Fill-19" fill="#003869" stroke="none" />
      <path d="M0 100.705L655.001 100.705L655.001 0L0 0L0 100.705Z" id="Clip-22" fill="none" stroke="none" />
      <g clip-path="url(#mask_1)">
        <path d="M0 11.8513L2.31665 11.8513L2.31665 0L0 0L0 11.8513Z" transform="translate(401.1499 45.76263)" id="Fill-21" fill="#003869" stroke="none" />
        <path d="M5.29739 1.99133L0 1.99133L0 0L12.9062 0L12.9062 1.99133L7.61091 1.99133L7.61091 11.8513L5.29739 11.8513L5.29739 1.99133Z" transform="translate(407.9597 45.76294)" id="Fill-23" fill="#003869" stroke="none" />
        <path d="M5.27973 0L7.5631 0L4.95754 2.33119L3.51705 2.33119L5.27973 0ZM0 3.19382L10.626 3.19382L10.626 5.18515L2.31248 5.18515L2.31248 7.94038L9.47025 7.94038L9.47025 9.92963L2.31248 9.92963L2.31248 13.0549L10.8224 13.0549L10.8224 15.0462L0 15.0462L0 3.19382Z" transform="translate(425.3615 42.56881)" id="Fill-24" fill="#003869" stroke="none" />
        <path d="M1.43634 1.27004L5.85239 1.27004C8.26256 1.27004 10.7247 2.29377 10.7247 5.77132C10.7247 10.4295 6.79921 10.573 5.62582 10.573L1.43634 10.573L1.43634 1.27004ZM0 11.8461L5.39613 11.8461C8.52343 11.8461 12.1943 10.6395 12.1943 5.81913C12.1943 1.93417 9.53573 0 5.85239 0L0 0L0 11.8461Z" transform="translate(315.4789 69.46381)" id="Fill-25" fill="#003869" stroke="none" />
        <path d="M0 0L10.5636 0L10.5636 1.27004L1.4353 1.27004L1.4353 5.05212L9.06388 5.05212L9.06388 6.3232L1.4353 6.3232L1.4353 10.573L10.7549 10.573L10.7549 11.8451L0 11.8451L0 0Z" transform="translate(332.4137 69.46423)" id="Fill-26" fill="#003869" stroke="none" />
        <path d="M1.10791 8.75104C1.79282 9.66564 2.93399 11.1623 6.48637 11.1623C8.31037 11.1623 10.8037 10.6416 10.8037 8.80093C10.8037 5.20074 0.472889 8.3613 0.472889 3.55446C0.472889 1.02373 2.80304 0 6.02907 0C9.16157 0 11.0853 1.28459 11.895 2.43096L10.8557 3.27488C10.3661 2.71989 9.22497 1.20561 5.99582 1.20561C3.61786 1.20561 1.93833 1.824 1.93833 3.32269C1.93833 6.91041 12.2722 3.48898 12.2722 8.80093C12.2722 10.7891 10.3485 12.4354 6.3232 12.4354C2.44447 12.4354 1.01022 10.8203 0 9.69994L1.10791 8.75104Z" transform="translate(346.5443 69.16875)" id="Fill-27" fill="#003869" stroke="none" />
        <path d="M0 0L2.2127 0L6.59862 9.9712L10.9814 0L13.1983 0L13.1983 11.8451L11.8773 11.8451L11.8773 1.27004L11.844 1.27004L7.21701 11.8451L6.0114 11.8451L1.35007 1.27004L1.31889 1.27004L1.31889 11.8451L0 11.8451L0 0Z" transform="translate(371.9788 69.46423)" id="Fill-28" fill="#003869" stroke="none" />
        <path d="M3.79974 7.49659L6.97693 1.12246L10.1562 7.49659L3.79974 7.49659ZM0 11.8461L1.59847 11.8461L3.14497 8.76559L10.7881 8.76559L12.3211 11.8461L13.9362 11.8461L7.85515 0L6.09455 0L0 11.8461Z" transform="translate(389.4464 69.46413)" id="Fill-29" fill="#003869" stroke="none" />
        <path d="M1.43218 1.27004L6.51859 1.27004C8.58787 1.27004 10.1365 1.56209 10.1365 3.2884C10.1365 5.03445 8.58787 5.3265 6.51859 5.3265L1.43218 5.3265L1.43218 1.27004ZM0 11.8461L1.43218 11.8461L1.43218 6.59758L6.09351 6.59758L9.90884 11.8461L11.684 11.8461L7.77305 6.5664C9.20522 6.503 11.5052 5.78587 11.5052 3.30607C11.5052 0.402215 8.73234 0 6.84598 0L0 0L0 11.8461Z" transform="translate(407.6544 69.46381)" id="Fill-30" fill="#003869" stroke="none" />
        <path d="M13.1193 8.99528C11.8482 11.4616 9.6459 12.4354 6.76387 12.4354C2.16698 12.4354 0 9.68123 0 6.24109C0 2.16593 2.75523 0 6.74724 0C9.29045 0 11.8815 0.977996 12.9405 3.38817L11.6996 3.95875C10.8702 2.02043 9.02958 1.20561 6.76387 1.20561C3.37154 1.20561 1.46648 3.04624 1.46648 6.41882C1.46648 9.14286 3.30918 11.1623 6.89587 11.1623C9.24264 11.1623 10.8702 10.1843 11.8482 8.37689L13.1193 8.99528Z" transform="translate(423.7883 69.16917)" id="Fill-31" fill="#003869" stroke="none" />
        <path d="M0 0L1.43322 0L1.43322 5.02094L10.7548 5.02094L10.7548 0L12.187 0L12.187 11.8451L10.7548 11.8451L10.7548 6.28994L1.43322 6.28994L1.43322 11.8451L0 11.8451L0 0Z" transform="translate(441.5713 69.46423)" id="Fill-32" fill="#003869" stroke="none" />
        <path d="M5.36391 0L7.22117 0L4.80476 2.31352L3.6189 2.31352L5.36391 0ZM0 3.09716L10.5605 3.09716L10.5605 4.36721L1.43426 4.36721L1.43426 8.15032L9.06284 8.15032L9.06284 9.42036L1.43426 9.42036L1.43426 13.6701L10.759 13.6701L10.759 14.9433L0 14.9433L0 3.09716Z" transform="translate(459.3505 66.36655)" id="Fill-33" fill="#003869" stroke="none" />
        <path d="M1.10895 8.75104C1.79386 9.66564 2.93503 11.1623 6.48637 11.1623C8.31349 11.1623 10.8079 10.6416 10.8079 8.80093C10.8079 5.20074 0.476007 8.3613 0.476007 3.55446C0.476007 1.02373 2.80304 0 6.03011 0C9.16053 0 11.0843 1.28459 11.9002 2.43096L10.8557 3.27488C10.3661 2.71989 9.22601 1.20561 5.99582 1.20561C3.6189 1.20561 1.94248 1.824 1.94248 3.32269C1.94248 6.91041 12.2722 3.48898 12.2722 8.80093C12.2722 10.7891 10.3516 12.4354 6.32424 12.4354C2.44447 12.4354 1.01229 10.8203 0 9.69994L1.10895 8.75104Z" transform="translate(473.4799 69.16875)" id="Fill-34" fill="#003869" stroke="none" />
        <path d="M0 0L10.8214 0L10.8214 1.27004L1.43633 1.27004L1.43633 5.02094L9.35488 5.02094L9.35488 6.28994L1.43633 6.28994L1.43633 11.8451L0 11.8451L0 0Z" transform="translate(498.9124 69.46423)" id="Fill-35" fill="#003869" stroke="none" />
        <path d="M0 11.8451L1.43738 11.8451L1.43738 0L0 0L0 11.8451Z" transform="translate(514.0352 69.46423)" id="Fill-36" fill="#003869" stroke="none" />
        <path d="M0 0L2.03706 0L10.8546 9.74671L10.8546 0L12.2889 0L12.2889 11.8451L10.8546 11.8451L1.36774 1.27004L1.36774 11.8451L0 11.8451L0 0Z" transform="translate(521.013 69.46423)" id="Fill-37" fill="#003869" stroke="none" />
        <path d="M3.79662 7.49659L6.97693 1.12246L10.1552 7.49659L3.79662 7.49659ZM0 11.8461L1.59847 11.8461L3.14601 8.76559L10.7891 8.76559L12.3201 11.8461L13.9362 11.8461L7.85723 0L6.09559 0L0 11.8461Z" transform="translate(537.5714 69.46413)" id="Fill-38" fill="#003869" stroke="none" />
        <path d="M0 0L2.03498 0L10.8536 9.74671L10.8536 0L12.2889 0L12.2889 11.8451L10.8536 11.8451L1.36566 1.27004L1.36566 11.8451L0 11.8451L0 0Z" transform="translate(555.7783 69.46423)" id="Fill-39" fill="#003869" stroke="none" />
        <path d="M13.1224 8.99528C11.8513 11.4616 9.64799 12.4354 6.76804 12.4354C2.16906 12.4354 0 9.68123 0 6.24109C0 2.16593 2.75627 0 6.7483 0C9.29359 0 11.8856 0.977996 12.9437 3.38817L11.7069 3.95875C10.8754 2.02043 9.03064 1.20561 6.76804 1.20561C3.37571 1.20561 1.46856 3.04624 1.46856 6.41882C1.46856 9.14286 3.31231 11.1623 6.89484 11.1623C9.24474 11.1623 10.8754 10.1843 11.8513 8.37689L13.1224 8.99528Z" transform="translate(572.8052 69.16917)" id="Fill-40" fill="#003869" stroke="none" />
        <path d="M0 11.8451L1.43427 11.8451L1.43427 0L0 0L0 11.8451Z" transform="translate(590.5414 69.46423)" id="Fill-41" fill="#003869" stroke="none" />
        <path d="M0 0L10.5625 0L10.5625 1.27004L1.43529 1.27004L1.43529 5.05212L9.06385 5.05212L9.06385 6.3232L1.43529 6.3232L1.43529 10.573L10.759 10.573L10.759 11.8451L0 11.8451L0 0Z" transform="translate(597.5154 69.46423)" id="Fill-42" fill="#003869" stroke="none" />
        <path d="M0.00623584 57.4867L1.03307 57.4867L1.03307 0L0.00623584 0L0.00623584 57.4867Z" transform="translate(297.9894 34.79368)" id="Fill-43" fill="#003869" stroke="none" />
      </g>
    </g>
  </g>
</svg>