<svg id="APRA-logo" xmlns="http://www.w3.org/2000/svg" version="1.1" viewBox="0 0 659.1 168.2">
  <defs>
    <style>
      .st0{fill:#012169}
    </style>
  </defs>
  <path class="st0" d="M94.3 45.3V78c0 3.2 1.3 5.9 3.2 6.8l15.6 9.3c.3.4.8.6 1.4.6s.9-.2 1.3-.5l15.8-9.4c1.8-.9 3.2-3.6 3.2-6.8V45.3H94.3Zm6.5 4.3.5-.5-.3-.6h.6l.4-.6.4.7h.7l-.3.5.5.5h-.6v.8l-.6-.5-.6.5v-.7h-.6v-.1Zm0 6.2c1.2 0 .8 1.1 1 1.1s0-1.1.8-1.1c1.2 0 2.6 3 1.3 3s-.1-.4-.1-.5c0-.2-.3-.3-.4-.3-.4 0-.5.6-.9.6-.2 0-.4 0-.4-.2s.5-.4.7-.6c-2.6 0-2.7 1.2-3.1 1.2-.7 0 .6-1.3.9-1.6-.5 0-.8-.7-1.4-1.1.3-.4.4-.2.8 0 0-.3.2-.6.8-.6Zm4.6.8h.7l.4-.6.4.7h.7l-.3.5.5.5h-.6v.8l-.6-.4-.6.4v-.7h-.6c0-.1.5-.6.5-.6l-.3-.6Zm2.4 3.6v7.9h-3.5v-7.9h3.5Zm-7.1 5.6.5-.5-.3-.6h.7l.4-.6.4.7h.7l-.3.5.5.5h-.6v.8l-.6-.5-.6.5v-.7h-.6Zm-5.3-19.4h4.2v8.4h-4.2v-8.4Zm.6 11.3.5-.5-.3-.6h.6l.4-.6.4.7h.7l-.3.5.5.5h-.6v.8l-.6-.4-.6.4v-.7h-.6Zm-.6 2.5h4.2v7.9h-4.2v-7.9Zm0 18.2v-9.2h12.3v20.4L98 83.8c-1.6-1.1-2.4-3-2.6-5.4Zm12.4-23.6h-3.5v-8.4h3.5v8.4Zm12.4 35.5-4.5 2.7c-.3.2-.7.4-1.2.4s-.9-.2-1.2-.4l-4.5-2.7v-21h11.4v21Zm0-22.2h-11.4V46.4h11.4v21.7Zm13.4 10.3c-.2 2.3-1 4.3-2.6 5.4l-9.7 5.8V69.2h12.3v9.2Zm0-10.3h-12.3V46.4h12.3v21.7ZM83.9 91.7c0-.6-.5-1.1-1.1-1.1s-1.1.5-1.1 1.1.5 1.1 1.1 1.1 1.1-.5 1.1-1.1ZM77.3 134.8l-.6.6c.2-.1.4-.3.6-.6ZM33.7 51.1c.4-.3 1.1-.8.9-1.5-.3-.8-1.3-1.3-2-.6-.1.4-.8.8-.3 1.3.3.5.9.9 1.4.8ZM26 48.5c.6-.3.8-.9.9-1.6-.2-.6-.7-.7-1.2-.9-.5 0-1.1.2-1.3.6-.2.5-.1 1.1.3 1.5.3.4.9.4 1.3.4ZM31.2 54.2c.4.5.8 1.1 1.6.9.3-.4 1.1-.7.8-1.4-.3-.6-.8-1.2-1.6-1-.5.4-.9.9-.8 1.6ZM29.4 55.3c.6-.1 1.1-.8 1.1-1.3-.1-.7-.8-1-1.4-1.4-.4.1-.9.1-1.1.6-.3.6-.2 1.1 0 1.6.5.2.9.9 1.5.5ZM25.3 50.1c-.6.3-1 1-.9 1.7.4.6.9 1.2 1.8 1 .5-.5 1.1-.9.9-1.8-.4-.6-1.1-1-1.8-.9ZM29 63.4c-1.3-1.1-2.5-2.4-3.8-3.3-1.5-.4-2.8-1.1-4.3-.9-.5.2-1.4 0-1.5.7 2.5.7 4.1 2.8 6.5 3.6 1.1 0 2.2.6 3.1 0ZM183.5 59.3c1-.9.5-2.7.8-4-.1-1.8-.7-3.6-1.4-5.1-.2-.4-.2-1.1-.8-.9-.4 2.4-1.6 5.3-.3 7.8.6.6.7 1.8 1.7 2.2ZM29.6 51.2c.5-.2.8-.8.8-1.3-.3-.5-.8-1.2-1.5-.9-.6.3-1 .9-.6 1.6.3.4.8.9 1.4.6ZM30.6 48.9c.4 0 .3.6.6.3-.4-1.6-.4-3.9 0-5.6-.3-1.4-.8-2.6-2.1-3.5-.2-.1-.6 0-.7.1.7 2.8-.6 6.7 2.2 8.7ZM143.6 87.3c0 .7.6 1.2 1.3 1.2s1.3-.5 1.3-1.2-.6-1.2-1.3-1.2-1.3.5-1.3 1.2ZM191.1 61.5c.8-.3 1.4-1 1.2-2.1-.4-.4-.6-.7-1-.9-.3 0-.6 0-.9.2-.6.2-1.1.9-1 1.6.3.6.8 1.2 1.6 1.1ZM31.4 60.4c.3 0 .6-.4.5-.7-1.3-1.1-1.8-2.1-2.9-3.3-.9-1.2-2.3-1.5-3.5-2.4-.5 0-1.4-.6-1.6.2 1.7 2.5 4 6 7.5 6.2ZM194.3 59.9c.6-2.3.6-4.8-.3-6.8-.7-.4-1.1-1.4-1.1-2.1-.2-.4-.5-.9-1-.5-.6 1.2-.9 2.6-.9 4 .5 2.1 1.9 3.8 2.9 5.8l.4-.4ZM205.4 45.7c.6-.4 1.3-1.1.9-1.9-.4-.6-1.1-.8-1.8-.7-.6.4-1 1.1-.8 1.8.4.6 1.1.9 1.8.8ZM203.7 50.4c.6.2 1.1-.4 1.5-.7 0-.4.5-1.1 0-1.4-.4-.2-.8-.5-1.3-.4-.7.2-1 .9-1 1.6.1.5.6.5.9.9ZM207.2 49.9c.7.3 1.4 0 1.9-.6.1-.4.1-.7 0-1.1-.4-.4-.8-.7-1.5-.7-.5.2-1.1.7-1.2 1.3.1.4.3.9.8 1.2ZM199 65.6c.8.5 1.6-.3 2.4-.6 2.8-1.5 4.2-4.6 4.4-7.7h-.6c-2.5 2.7-4.7 5.2-6.2 8.2ZM80.9 93.5c-.7 0-1.3.5-1.3 1.2s.6 1.2 1.3 1.2 1.3-.5 1.3-1.2-.6-1.2-1.3-1.2ZM201 50.9c-.6.4-1 1-.8 1.7.2.8.9 1 1.6.9.7-.2 1-1 1.1-1.7-.3-.6-1.1-1.3-1.9-.8Z"/>
  <path class="st0" d="M107.1 76.7s-.8.2-1.1.4c.1-.5.9-1.3 1.2-1.6 0-.5-.7 0-1.4.3 2.3-3.3.8-2-.5-1.7 2.1-2.2 1.5-2.2 0-1.5 1.2-1 1.4-2.1 1.3-2.4-1.1 1.5-2.1 1.3-2.1 2.6s-.3 2.4-.8 2.9c-.6.6-.1-2.4-1.7-2.4s-1.7 0-2.1.6c.3 0 .8.8.8 1.2s.3 1.2-.2 1.2-1.2-1.1-1.2-1.7v-1.2c0-1.3-2.1-3.2-3-3.2 0 .9 1.2 1.1 1.2 2.3-.5 0-1.2-.9-1.2-.4s.8.7.8 1.2-.9-.2-.9.4.5.4.6.9c-.3 0-.7 0-.7.1 0 .2 0 .4.4.5-.1.1-.2.4-.2 1.2 0 2.6 1.6 3.8 2.8 3.8s.7-.6.8-.9c0 .4.4-.2.4.5s-.8.5-.8 1.1 1.3 0 1.3 1-.2 1.2-.2 1.7 1.4-.5 1.3-.6c.3.1.3 1.1.9 1.1.4 0 .5-1 .8-1.1-.2 0 1.2.9 1.2.5 0-1.2-.5-.7-.5-1.5s1.7-.6 1.4-1c-.2-.3-.4-.1-.5-.7 0 0-1.3-1.9.3-.9 1.7 1.1 1.9-2.5 1.8-2.7ZM150.3 85.3c.7 0 1.3-.5 1.3-1.2s-.6-1.2-1.3-1.2-1.3.5-1.3 1.2.6 1.2 1.3 1.2ZM85.1 96.2c.7 0 1.3-.5 1.3-1.2s-.6-1.2-1.3-1.2-1.3.5-1.3 1.2.6 1.2 1.3 1.2ZM203.2 56.2c.1-.9 1.5-1.8 1.6-2.8-2.2.6-4.2 1.8-5.7 3.7-.8 1.3-2 2.6-1.9 4 .6 0 1.2-.6 1.6-.9 1.9-.6 3.6-2.1 4.4-4ZM201.2 49.2c1.4-2.7 1-6.5-1-8.8-.5-.5-.1-1.6-1.1-1.8-1.3 3-.1 6.3 1.3 9 .1.6 0 1.6.8 1.6ZM199 51.2c.9-.1.9-1.1.9-1.9-.4-.4-.9-.8-1.4-.8-.7.3-1.1 1-1.1 1.7.2.6.8 1.3 1.6 1ZM204.9 53.4ZM20.7 64.1c.1.4.4.7.6.9.9.3 1.6 0 1.9-.9-.2-.8-.8-1.1-1.7-1.2-.6.2-.7.7-.8 1.2ZM29.8 70.5c-.4.6-.1 1.3.5 1.8.3.1.9.3 1.2-.1.1-.4.6-.6.4-1.2-.4-.8-1.3-1.2-2.1-.4ZM20.8 79.3c-.3 0-.7 0-.7.3 0 3.1 1.6 6.1 4.3 7.3.8-.2 1.3.7 1.9.3.3-.6-.4-.6-.6-.9-1.6-2.6-2.3-5.1-4.9-7ZM29.9 66.4c-.4.3-1.1.1-1.2.8-.3.5 0 1.1.3 1.4.4.3.9.6 1.3.4.7-.3 1-.9.8-1.7-.3-.5-.7-.8-1.3-.8ZM26.4 69.7c0 .4-.3 1.1.2 1.4.4.2.9.4 1.4.1.2-.3.9-.4.6-1-.3-.9-1.6-1.7-2.2-.5ZM32.3 67.6c-.5.6 0 1.3.6 1.7.4.3.9 0 1.3-.1.1-.4.8-.6.6-1.2-.4-.9-1.8-1.4-2.4-.4ZM35.8 71.1c-.6.6 0 1.1.3 1.6.4 0 .8.5 1.3.2.6-.3 1-.9.7-1.6-.5-.8-1.8-1.3-2.4-.3ZM87.9 74.6c-.2-.7-1.1-.4-1.2.3-.8 2.8-2.2 6.5-.3 9.1.8 0 .6-.9.6-1.4 1.4-2.3 1.7-5.2.8-8ZM206.4 68.7c-.2.5-.1 1.1.3 1.5.4.4 1.1.4 1.7.3.7-.4.6-1.1.8-1.8-.4-.2-.6-.6-1.1-.8-.7-.2-1.3.3-1.7.8ZM43.6 75.4c.4-.3 1-.8.8-1.5-.3-.5-.8-.7-1.3-.7-.4.3-.9.7-.7 1.4.3.3.6 1.1 1.3.8ZM210.7 67.6c.6 0 1.1-.6 1.3-1.3-.2-.7-1.1-1.1-1.8-.7-.4.1-.6.6-.6 1.1-.1.6.6.8 1.1.8ZM41.2 79.6c2.1.4 4.6 0 6.3-1.2.8-.6 2-.8 2.4-1.6-.1-.4-.5-.2-.6-.5-3.4-.7-6.2.8-8 3.3ZM201.7 67c-.5.4-.8.8-.8 1.4.1.6.8 1 1.4.8.4-.4 1-.9 1-1.6-.4-.6-1-.6-1.6-.6ZM196.2 70.3c.9.6 2 .9 2.8 1.6 1.5 1.4 4 1.1 5.7.3 0-.1.2-.6 0-.6-2.3 0-3.9-2-5.9-2.3-.9.2-2.2.1-2.5 1.1ZM194.5 64.2c.2.7.9 1 1.7.8.2-.3.4-.4.7-.6.6-.4 0-.9-.1-1.3-.4-.3-.7-.6-1.2-.5-.6.3-1.2.7-1.1 1.5ZM148.5 82.6c.9-2 .9-4.6-.1-6.6-.3-.6-.2-1.8-1.2-1.6 0 1.4-.5 2.5-.9 3.8.2 1.8.8 3.4 1.6 5l.6-.6ZM203.4 67.6zM44.4 63c.6-.3 1.1-.8 1.1-1.6-.1-.7-.8-.7-1.4-.9-.6.3-1.3.9-1 1.6.3.6.8.6 1.3.8ZM40.5 65.1c-.1.7.4 1 .8 1.3.7.4 1.3-.2 1.8-.6.2-.4 0-.9-.2-1.1-.4-.3-.7-.6-1.3-.5-.4.1-.8.6-1.1.8ZM45.1 64.2c-.6.1-.9.8-.9 1.4.4.5.9 1.1 1.6 1 .5-.3 1.1-.8 1.2-1.3-.3-.8-1.1-1.4-1.9-1.1ZM145 83.1c.6-.2.7-.9.6-1.6-.4-.6-1.3-.9-1.9-.4-.2.4-.6.6-.4 1.1.2.6.8 1.1 1.6.8ZM39.5 63.2c.4.6 1.2.2 1.7-.2.2-.5.1-1.2-.3-1.6-.6-.6-1.4-.2-1.9.3-.4.6 0 1.1.5 1.5ZM191.5 62.6c-.5.2-1 .5-1.1 1.1 0 .9.9 1.1 1.6 1.3.6-.3 1.2-.8.9-1.6-.3-.4-.8-.9-1.5-.7ZM110.7 84.4c.9 2.5 3.9 1.3 5.9 1.5 1.1-.5 2.1-1.3 2.7-2.3 0-1.1.4-2.6-.3-3.6-.8-1-1.1-2.6-1.4-4-.3-1.9 2-.3 2.2-1.7-.7-.8-1.7-2.1-2.9-1.2-.7.5-1 1.4-.8 2.4.3 1.8 1.1 3.5 1.3 5.2-.4-.2-.7-.6-1-.9-1.4-1.8-4-1.3-5.6-3-2 .1 1.3 2.2-1 2.6 0 .5.5.8.5 1.2-.2.2-.5.2-.7.3 0 1.2.7 2.3 1.1 3.4ZM206.1 64.6c-.5.2-1 .4-1.3.9 0 .4-.1.9.3 1.1.4.4 1 .6 1.6.4.4-.2.9-.8.9-1.4-.4-.4-.8-.9-1.4-1ZM215.9 88.5c.4.2 1 0 1.3-.4.3-.5.7-1 .3-1.6-.6 0-.8-.7-1.5-.4-.4.2-1.1.6-1.1 1.2s.6.8 1.1 1.3ZM12.8 90c.4.1.8-.1 1.1-.3.1-.4.6-.7.5-1.2-.2-.6-.8-.9-1.4-1.1-.7.2-1.1.8-1.3 1.4.2.5.6.9 1.1 1.1ZM14.4 88.5zM201.5 90.4c3.9-1.1 6.3-4.8 8.6-8-.6-.3-1.3 0-1.9.3-3.8.9-5 4.9-7.4 7.5.1.3.4.2.7.2ZM87.4 86.4c-.2-.6-1.2-.7-1.8-.6-.5.1-.7.9-.5 1.4.3.4.8.7 1.5.6.4-.3 1-.7.8-1.3ZM210.2 86.8c-.1.5.3.8.3 1.1.4.2.9.4 1.3.2.5-.4 1.1-.8.9-1.5-.3-.3-.6-.4-1-.7-.7 0-1.3.2-1.6.8ZM28.8 85.7c2.1 2.1 5.1 3.1 8.1 2.1.3-.1 1.1-.1.8-.8-2.4-1.8-5.8-1.2-8.7-1.9-.3 0-.3.4-.3.6ZM18.7 86.8c.3.4.5.7.9.9.7.2 1.3 0 1.8-.6 0-.3 0-.8-.1-1.1-.4-.4-.8-.5-1.3-.6-.6.2-1.1.6-1.2 1.3ZM16.7 87c.6 0 .4-.7.7-1-.1-.7-.7-.9-1.3-1.2-.6.2-1.2.9-.9 1.6.3.6.9.9 1.5.6ZM31.9 95.8c-.7.2-1 1-.7 1.6.4.5.9.7 1.6.7.4-.4 1-.6 1.1-1.3-.1 0-.3-.2-.2-.4-.2-.6-1-.7-1.7-.6ZM27.4 98.4c.4.4.9.7 1.6.6.4-.3.9-.8.6-1.4-.3-.3-.7-.9-1.3-.8-.6.3-1.5.9-1 1.7ZM44.4 114.8c-.6.4-.8 1-.6 1.6.3.5.8.8 1.5.6.6-.2.9-.7.9-1.3-.3-.6-1.1-1.4-1.8-.9ZM64.6 114.2c.6-.2 1-.6 1.1-1.2-.1-.5-.7-1-1.3-1.1-.5.4-1.2.7-.9 1.6.2.4.7.7 1.2.7ZM34.9 95.1c.7-.3.6-.8.8-1.4-.4-.7-1.1-1.3-1.9-.9-.4.4-.9.6-.7 1.3.2.6 1.1 1.2 1.8.9ZM163.1 88.5c-.6-.9-1.8-.6-2.3.1-.2.6.3 1.1.7 1.5.7.4 1.3-.1 1.7-.7v-.9ZM164.8 114.9c.5.3.9.6 1.5.5.7-.3.9-1 1.1-1.6-.5-1.3-2.3-1.3-2.8 0 0 .4-.1.9.2 1.1ZM48.6 115.6c-.2.3-.6.2-.8.6-.2.4 0 .9.4 1.2.4.4.9.2 1.3 0 .1-.3.5-.6.3-.9-.2-.5-.7-.7-1.2-.9ZM65.6 113zM168.6 109.9c-3.4-1-7.1-.2-9.6 1.9v.4c2.6 0 5.2 0 7.4-1.1.6-.6 2.2-.4 2.2-1.3ZM183 92c-.5.1-.7.6-1.1.9 0 .4 0 .9.3 1.1.4.4 1 .5 1.5.3.3-.4 1.1-.7.8-1.4-.3-.5-.9-.9-1.6-.9ZM187.3 94c.5-.1 1.2-.4 1.1-1.1-.5-.6-1.1-1.3-2.1-.9-.1.4-.6.6-.6 1.1.3.6.8 1.2 1.6.9ZM179.4 90.4c-.8.4-1.1 1.1-1 1.9.4.3.9.5 1.3.6.6-.4 1.4-.7 1.1-1.6-.4-.5-.8-.8-1.4-.8ZM167 91.2c.7-.3.9-1 .8-1.7-.4-.5-.8-.8-1.4-.8-.8.1-.9.9-1.3 1.5.4.6 1.1 1.3 1.9 1ZM184.9 96.4c0 .5.5.9.7 1.1.9 2.9 4 4.3 6.4 5.7.1 0 .5 0 .6-.1-.3-.9-.9-2.1-1.5-2.8-.3-.8-.8-1.2-1.3-1.9-1.3-1-3-2.3-4.9-2ZM163.1 92.4c-.2.4 0 .8 0 1.1.5.1 1 .7 1.5.2.5-.3.6-.6.6-1.1-.2-.6-.8-.6-1.3-.7-.4 0-.7.3-.9.6ZM195.5 93.4c-.3-.7-1.1-.8-1.6-.8-.6.2-1.1.8-.9 1.3.2.8 1.1 1 1.8.8.4-.3.7-.8.7-1.3ZM212.3 99.9c.6-.3 1.2-.8.9-1.6-.3-.5-1-.9-1.7-.8-.8.1-.9 1-1.6 1.1-1.1-1.3-2.8-2.9-4.9-2.8-.8.6.6 1.1.9 1.7.8 2.1 3 3.6 5.1 4.4.2.2.7.2.9 0 0-.6-.5-1.1-1-1.4 0-.9 1-.1 1.5-.5ZM200.5 95.6c-.1-.6-.6-1.1-1.3-1.1-.3.2-.8.2-.9.4-.4.3-.5.9-.3 1.3.3.3.8.8 1.3.7.6-.1 1.1-.6 1.1-1.3ZM159.2 92.1c-.1.6.2 1.1.7 1.3.6.4 1.2-.3 1.6-.6 0-.2.2-.7-.1-.9-.3-.8-1.8-.7-2.2 0ZM44.1 91.9c-.6 0-.6.5-1 .6-.1.6-.2 1.5.5 1.8.6.4 1.4 0 1.8-.4 0-.4.6-.9.1-1.3-.4-.4-.8-.7-1.4-.7ZM197.5 98.6c-.4.4 0 .9 0 1.3.5.5 1.1.3 1.6.2.2-.3.8-.6.7-1-.5-.7-1.6-1.5-2.4-.5ZM195.9 97.8c.5-.3 1.2-.5 1.1-1.3-.2-.6-.8-1.1-1.5-.9-.4.4-1.1.6-.9 1.4.3.5.8.8 1.4.8ZM29 95.4c.4.1 1.1.2 1.4-.2.2-.3.6-.6.4-1.1-.1-.7-.8-1-1.4-1.1-.5.2-.7.4-1.1.8-.2.8.3 1.3.8 1.7ZM22 90.9c.2-.3.6-.6.4-1.1-.2-.6-.6-1.1-1.3-1-.5.3-1 .6-.9 1.4 0 .5.6.6.9 1 .4.1.6-.3 1-.3ZM206.3 89.7c-.1.4-.3 1 0 1.3.4.2.8.7 1.3.6.6-.3 1-.6 1.2-1.1 0-1.3-1.9-1.9-2.6-.7ZM25.5 94.9zM216.4 93.7l-.2-.2c-3-.1-6.1-2.5-9.2-.6-.6.4-1.6 0-1.8.9 2.8 1.1 6.6 2.4 9.6.6.5-.3 1.8.2 1.6-.8ZM25.8 89.5c0-.9-.8-1.6-1.6-1.3-.6.4-.6 1-.6 1.6.4.3.6.9 1.2.8s.9-.6 1-1.1ZM13.7 95c3.1 1 6.5 0 9.1-1.6l.3-.5-.2-.2c-3.4-.5-6.9 0-9.5 1.9l.3.4ZM23.6 99.1c.6-1.1 1.3-1.8 1.5-3.1 0-.4.6-.6.4-1.2h-.2c-2.9 1.1-5.1 3.2-7.1 5.8l.3.6c1.9-.5 3.8-.5 5.1-2.1ZM20.2 123c.8.4 1.9 1.5 2.6.6-1.6-2.1-2.2-4.4-4.6-5.8-.5-.2-1.1-.5-1.5-.8-.5.1-1.1-.8-1.4 0 2.5 1.6 2.4 4.4 4.9 5.8ZM181.5 114.1v-.4c-3.7-.3-7.9-.3-10.2 2.6l.4.3h3.8c2.3 0 4.3-1.3 6.1-2.4ZM211.8 90.2c-.5.8.2 1.3.8 1.6.7 0 1.5-.4 1.7-1.2-.2-.7-.8-1.4-1.7-1.1-.4 0-.6.3-.8.6ZM216.5 101.9c.6-.4 1.2-.9 1-1.8-.3-.3-.6-.5-.8-.7-.7-.3-1.3 0-1.8.5 0 .5-.3.9 0 1.3.4.3 1 .8 1.7.6ZM216.6 97.7c.3-.3.4-1 0-1.3-.5-.4-1-.6-1.6-.5-.5.2-.8.5-1.1.9-.1.6.2.9.6 1.3.6 0 1.7.4 2-.4ZM16.4 90.2c.3.6 1.1 1.3 1.9 1 .4-.4.9-.9.7-1.6-.4-.4-.7-1.1-1.3-1.1-.7.2-1.2 1-1.3 1.6Z"/>
  <path class="st0" d="M228.6 96.1c-1.1-2.1-3-2.9-5.3-2.9-1.8.1-3.2 1.3-4 2.9-.4 1.6.1 3 1.3 3.9.5.2 1.1.1 1.4-.4.4-.9-.6-.9-.8-1.6-.3-1 0-1.9.8-2.5.7-.7 1.9-.4 2.8-.4.9.6 1.7 1.1 2.1 2.1.4 1.2.4 2.6 0 3.8-.8 1.8-2.5 3.2-4.4 3.6-5.9.8-70.2.6-70.2.6-7.5.7-16.2-1.4-22.7 2.6-3 1.4-4.5 4.7-5.2 7.6-1.9 1.7-4 3.7-5.5 5.6l-.2-.2c.3-1.7 1.1-3.2 1.5-4.9 1.1-1.4 1.1-3.3 1.8-4.9 2.7-4.3 5.2-8.8 9.4-11.8 1.8-2.3 4.9-1.9 7.6-1.9 2.9 1.4 6.3 1.8 9.8 1.4.1-.1.2-.3.2-.5-1-.9-2.6-1.3-3.7-2.2-2.8-1.4-5.5.4-8.5.2-.1-.1-.3-.2-.2-.4 2.7-2 5.7-3.4 8.8-4.7 2.5-1.3 5.1-2.1 7.7-3.1 1.1 0 2-.9 3-.3-2.1 4.1-4 8.5-7.3 12-1.1 0-1.7 1.1-2.8 1.2-.6.8-1.7.2-2.4.5-2.2.9-5.3.4-6.8 2.4.1.2.3.3.6.4 4.3 0 9.1.3 13.7.1.6-.2 1.1-.7 1.1-1.3-.6-1.2.2-2.3.8-3.2.4-1.7 1.5-2.8 2-4.4 1.5-2.9 3.2-5.8 4.8-8.7.1 0 .3.3.6.2 3.2-1.1 7.2 0 10.8-.1l.5.4c.3 3.4-.3 6.9-.6 10.3-1.2 4.1-5.9 3.7-9.3 4.6-.8.6-2.5.3-2.5 1.7 4.1.9 8.9.4 13.3.3.7-.3.9-.9 1.2-1.6.1-.9 1.1-1.7.8-2.7-.8-1 0-2.6-.3-3.9.1-.4.1-.8 0-1.3.6-2.1.4-4.5.9-6.5 1.3.1 1.8 1.6 3.2 1.7.7-1-.8-1.4-1.1-2.1 1.6-.4 3.3 0 4.7.7l-.7.8c-.4.8.2 1.3.8 1.6.5.1.9-.2 1.2-.4.9-.6 0-1.3.2-1.8 5.2.9 10.2 2.2 15 4.3 1.3.4 2.6 1.4 4.1 1.3-1.5-1.3-3.5-2.1-5.4-2.8-1.2-.7-2.9-.8-3.8-1.8.2-.4.7-.2.9-.5 2.4-.3 4.4-2.1 6.1-4 .1-.4.9-.3.9-.9-.6-.7-1.7.2-2.5.2-3 .6-4.2 4-7.2 4.7-3.6-.8-7.3-1.7-10.9-2.6-1.8-.3-3.7-.4-5.3-1.1 0-1.3.3-2.6.5-3.9.2-.4.3-.9.3-1.5.2-.3.5-.5.7-.7l1.5-.7c1.7-.4 3.8 0 5.6 0 1.1.6 2.4.5 3.5.8.5-.4 1.2-.4 1.8-.4 2.3-1.2.8-3.8.9-5.9 2-1.8 3.7-3.8 5.4-5.9 0-.6-.3-1.1-.8-1.3-.5-.2-1.1-.1-1.4.3-.8.6 0 1.4 0 2.2-.8 1.1-2.2 2.1-3.2 2.8 0 0-.2 0-.6.2l-.2-.4c-.2-.4-.4-.9-.6-1.4-.4-.5-.7-1.4-1.1-1.9-1.2-3.1-3.5-4.9-5.5-7.4-3.6-4.7-9.2-7.3-14.9-9.2-5.6-1.9-11.2.6-16.2 2.3-1.5-.4-2.3-1.6-2.8-3-.3-2.7.3-5.3 1.3-7.5.2-1.8 1.4-3.1 1.9-4.8 1.3-4 2.6-7.9 2.9-12.2.1-2.6-1.8-4.5-3.8-5.6-1.3-.4-2.9-.3-3.9.8-.9 1.9-2.9 3.2-4.6 4.1-.1 1.2 1.3.4 1.8.8 1.5.3 3.3-.2 4.6.8.1 2.8-1.5 5.2-3 7.3-2.4 3.6-4.9 7.2-6.4 11.1s0-3.8 0-3.8h-33.5c-1.7-.6-3-2.4-4.9-2.4-4-1.5-6.6 2.6-10.6 2.1-.5.3-.3.8-.6 1.1-.2.2-.6 0-.8 0-.2-1.7-.8-3.3-1-4.9-.4-.7-.2-1.7-.6-2.4-2.3-6.2 5.5-1.5 7.1-5.1 1.3-3.1-2.6-3.5-3.8-5.7v-.9c-1.1-1.1-2.3-1.5-3-3 .5-1.8.7-3.7.2-5.5 0-.4-.3-1-1-.8-1.3 1.8-2.3 3.3-3.6 5.1-1.3-1-2.6-2.3-4.2-3.1-1.1-.1-2-1.2-3.2-.8-.2.4 0 .8.2 1.1 0 2.8 1.5 5 3.5 7l.2 1.1c-1.3 2.9-.9 6.3-1.3 9.4-3.2 8.1-8.3 15.9-15.3 21.5-4 4.5-8.8 9-9.5 15.2-.2 1 .1 2.2-.6 2.9-2.3-.9-4.7-2-6.6-3.5-3.2-2.3-7.9-2-10-6.1-.8-1.6.2-3.3 1-4.5 2.4-2.3 2-6.3.8-9.1-.3 0-.4.3-.6.3-.2 4.2-3.5 7.1-2.3 11.7.3 1.4 1 2.2 1.3 3.5-.5-.1-1.2-.1-1.6-.4-1.5-.2-3.1-.8-4.7-.6-3.2 1.5-7.7-.3-10.3 2.6-.4 0-1 .1-.9.8 1.5 0 3 .4 4.6.3 2.5.4 4.1-1.6 5.8-2.6h.4c.7-.7 1.9-.3 2.8-.4 4.5.5 7.9 2.6 11.6 4.8v.3c-1.4.6-3 1.1-4.5 1.9-1.6 1.2-3.5 2.8-4 4.8-1.1 1.8.4 3.3 1.1 4.8 0 .7.1 1.6.8 1.8 2.3-2.4.1-5.4.5-8.2.6-2.1 2.5-3.1 4.6-3.7 4-1.7 6.9 1.6 10.2 3.4 0 3.3.4 6.4-.4 9.6-1 .3-2.3.6-3.3.5-5.6.4-10 3.5-15 5.2-2.3.8-4.9.7-7.2 1.6 1.8.5 3.6-.1 5.4-.2 6.9-1 12.2-6.3 19.7-5.4v.2c-.7 1.8-1.8 3.3-3.2 4.6-.2-.8-.3-1.4-1-1.9-.6-.3-1.2 0-1.6.6-.2.4-.2.8 0 1.1.3.6.9.8 1.5 1-.1.6-.9.9-1.3 1.5-2 3.3-6 2-8.3 4.3-.4.5-1.6.8-1.1 1.6 2.7.3 5.3-.4 7.3-1.9 2.6-2.9 5.4-5.7 8-8.5.4 2.3-.2 4.6-1.5 6.5-.6-.3-1.1-.9-1.9-1.1-.7.2-1.2.9-1.3 1.4.3.5.6 1.1 1.1 1.4-2.4 1.7-5.4 1.8-8.2 2.6-5.1.6-10.2 1.1-15.4 1.1-2.5-.1-5.3.7-7.6 0-2.7.5-5.6-.4-7.8 1.1-.3.3 0 .7 0 1.1 3.2 2.1 7.7.4 11.4 1.1h27.8c2 0 4.1-.1 5.7-1.1 3.6-2.1 5.6-5.8 7.4-9.4.7-1.3 1.2-2.8 1.5-4.3.7-2.4 2.9-4.1 5.3-4.3.4 3.7-.3 7.4-1.2 10.8-.4 2.3-1.9 4.5-1 6.9.2 1.1 1.4 1.1 2.3 1.3 8.5-.1 17.1-.5 26.1.1 1.6.3 3 .8 4.8.7.1-.2.6-.3.4-.7-.2-.8-.8-1.8-1.7-2-.1-.4-.8-.3-1-.6-4.5-2.6-10-1.2-15.2-1.1-2.8.3-5.5.8-7.8-.8-1.1-1.3-.3-5.3-.3-5.3 0-.9 1.1-4.5 2.2-7.8 2.1.6 7.5 3.8 7.5 3.8 2.5.9 4.7 2.4 7.1 3.8 9.6 5.3 16 14.2 20.3 24 0 .8.8 1.6.3 2.4-1.5-2.3-3.6-3.5-5.4-5.4-.5-3.3-2.5-6.5-5.4-7.9-1.1-1.6-3.3-1.7-5.1-2.2H70c-20.9-.4-40 .5-60.7.2-2.9-.3-6.4-1.3-7.3-4.3-.6-1.1-.6-2.9 0-3.9.8-1.3 2.2-1.8 3.6-1.9 1.1.1 1.9 1.2 2.4 2 0 .9-.8 1.8-1.1 2.6 0 .3.4.8.9.6.9-.4 1.6-1.3 1.8-2.3 0-.5.3-1.2-.2-1.6-.4-1.5-2-2.6-3.3-2.9-1.8-.1-3.6.4-4.8 1.6-1.7 1.4-1.6 4-1.1 6 1.1 3.1 4.5 5.3 7.6 5.7l68.7.3c6.7.4 14.3-.8 21 .6 2.5.8 5.1 2.6 5.7 5.4 0 .1-.3 0-.5 0-5.6-3.6-12.9-5-20-4.1-2.8-.1-5.4.9-7.9 1.6-1.3.3-2.6-.4-3.5-1.1-2.5-2.3-7-2.1-10.2-1.3v.5c3.5-.3 5.5 2.7 8.6 3 .7.2 1.3-.6 1.9 0-3.2 1.6-6.4 3.4-9.8 4.4-1.1-.2-1.6-1.2-2.5-1.8-1.3-1.5-3.8-.8-5.7-1-.6.1-1.2-.3-1.6 0 .6 1.1 1.8 1.8 3 2.4 1.8.8 3.8 0 5.4 1-.4.5-1 .6-1.5 1-3.3 1.3-6.1 4.3-9.7 4-3.9.4-7.8-.7-10.5-3.4-1.1-2.8-4-4.3-7.1-4.1-.2.1-.5.1-.4.5 1.5.9 2.8 2.8 4.3 3.8 1 1.2 2.9 0 3.8 1.3 1.4.9 3 1.7 4.6 2 1.1.5 2.4.7 3.7 1l-.5.3c-6.4 2.1-13.8 2.3-21 2.1-2.1 0-4.2-.7-6.3-.6.4.4 1.1.8 1.7 1-.6.4-1.2.5-1.9.6-.9.2-1.8.3-2.7.7-1.1 0-2.1.4-3 .7-1.2 1.3-2.6 2.6-4 3.3 0 .3 0 .7.3.7 1.3-.6 3-.1 4.4-.7 2.3-.2 3.7-2.8 5.5-3.8 2-1.6 4.8-1.2 7.2-.8 1.4.4-.1.9.3 1.8.6.5 1.1 1.1 1.8.8.1-.1.3-.3.5-.3.4-.6.3-1.2 0-1.8 1-.6 2.3 0 3.4-.4 2.7 0 5.4-.6 8-.7.4 0 .9-.5 1.3 0-.2.6-.9.6-.6 1.4.1.6.9.9 1.4 1.1.7-.3 1.3-.8 1.1-1.7-.1-.5-.7-.6-1.1-.8 1.5-.7 3.2-.9 4.7-1.6 1.1-.2 2.1-.6 3-1 .9 0 1.7-.9 2.5-.6-.3 1.2-.8 2.4-1.5 3.4-1.1 3.8-2 8.8 0 12.4.2 0 .3 0 .4-.1-1.5-3.8-.6-8.1.6-11.7 1-6 7.2-7.8 11.7-10.1l.2.3c-1.2 3.1-3 6.1-2.7 9.9.1.6-.3 1.3 0 1.7 1.2-.6 2-2.1 2.6-3.3.5-3.2-1.3-7.2 1.9-9.5 5.8-2.3 11.2-5.3 17.9-5.3.2.2.7-.1.8.3-1.4 1.6-3.5 3.1-4.1 5-2.3 3.1-2.2 8.5-1.2 12.3.6 2.2-1.3 3.4-2.2 5.1-.4.6-.6 1.6-1 2.3l1.4.2c1.2-1.3 2.3-2.8 2.4-4.7.1.7.8 1.3 1.3 1.4.5-.8-.4-1.4-.5-2.1 1.1-.6 1.6.8 2.5 1.1 1.5.4 2.8 1 4.3 1l.5-.5c-1.6-2.4-4.7-2.8-7.3-3-1.4-2.3-1.4-5.3-1.3-8.1.3-1.5.6-3.1 1.4-4.4.3-1 1.3-1.9 2-2.7 1.3-1.2 2.9-2.1 4.5-2.4h.2v.2c-1.9 1.5-2.1 3.5-3.2 5.4-1.2 1.8-1.8 4.2-.6 6.2.4.9.2 2.4 1.2 3 .9-1.3 1-2.9 1.5-4.3-.2-2.3-1.6-4.5-.3-6.8.7-1.8 2.2-2.5 3.8-3.1 3.9-.3 7.3 1.6 10.7 3.1.7.5 1.9.9 2 1.9 0 1.9-1.1 3.8-2.6 4.8-1.9 1.1-4.7 1.3-6.4 0-1.1-1.1-1.5-2.9-1.1-4.3.8-.9 1.8-1.6 3.1-1.1.7.3 1.3 1.1 2.3.6.3-.2.5-.8.3-1.1-.8-.4-1.1-1.5-2.1-1.6-1.3-.2-3-.1-3.9.8-1.4 1.2-2.1 3.1-1.6 5 .5 2.3 2.2 3.9 4.4 4.5 3.2.8 6.6-.2 8.7-3 .8-.9 1.1-1.9 1.5-3.1 3.4 2.1 5.9 5.7 7.3 9.4 0 1.2.3 2.5 0 3.6l2.5.2c-.2-.6 0-1.2.2-1.7.9-4.7 3.8-8.6 7.3-11.7 1.2-.7.9.9 1.2 1.4 1.1 2.7 3.5 4.6 6.1 5.4 3 .5 5.8-.2 7.6-2.5.9-1.7 2-4.2.5-6-1-1.2-2.3-1.8-3.9-1.8s-3 1.3-3.9 2.6c0 .6 0 1.2.4 1.5.3 0 .8 0 1.1-.4.1-1.1 1.1-1.6 1.9-2.1.8-.4 1.6 0 2.3.4.8.6.9 1.7 1 2.8-.1 1.3-1.1 2.8-2.3 3.3-2 1.1-5 .6-6.8-.6-.9-.9-1.3-2-2-3.1-.1-1.1-.6-2.1 0-3.3 3.1-1.8 6.4-3.2 10.1-3.6 1.5.3 2.8 1.3 3.7 2.3 3.2 3.3-.7 8.1 1.5 11.8.9-.1.9-1.3 1.2-2 1.1-2.6-.3-5.3-.9-7.8-.9-1.6-1.3-2.9-2.7-4.2.3-.1.5-.1.8-.1 1.5 1 3.1 2.1 4.3 3.7 2.1 3.3 3.1 7.3 2.8 11.7-.6 2.1-2.8 3.1-4.6 3.9-.7.6-1.5 1.4-1.9 2.3.9.5 2 0 2.9-.4 1.3-.5 2.1-2.2 3-3 .1 0 0 .3.1.4 0 .8-.3 1.9.4 2.1.3-1 .4-2.4.6-3.6.9 1 1.1 2.3 1.3 3.5.6 1.3 1.7 3 3.4 3.2.4-.6 0-1.3-.2-1.8-.2-1.8-1.7-2.7-2.7-4-2.5-3.4-1.3-8.8-3.2-12.6-.7-2.1-2.2-3.6-3.8-5.3l.3-.3c3.5 0 6.4 1.1 9.5 1.7 3.9 1.9 9.5 1.5 11.4 6.6.8 2.8 2 5.5 4 7.7h.2c.4-.9.4-2.1 0-2.8-.4-3.5-3.5-4.4-5.2-7.4l.2-.3c1.7.5 3.5.9 5.1 1.6 5.7 1.6 9.6 7.1 10.3 12.9 0 4.5-.8 8.3-2.6 12.2-.2.6-1.2 1.2-.6 1.7.8-.6.9-1.5 1.3-2.1 2.3-3.9 3.5-9.3 2.3-14.3 0-.9-1.1-1.6-.6-2.6.4.4.8.5 1.2.6.4-.3 1.1-.3 1.3-.8 0-.4.3-.9 0-1.3-.4-.6-1.3-.6-2.1-.5-.3.4-.8 1-.8 1.6-.7-1.2-1.4-2.8-2.5-3.8v-.2c3.3 1.1 6.2 2.6 9.5 3.5.7.4 1.5.8 2.5.8 2.8 1.1 5.8 1.5 8.7 2.2 2.1-.2 3.9.8 6 .3 0-.1 0 0 0 0-.8-1-2.5 0-3.4-.8-4.9-.5-9.5-1.8-13.9-3.5 0-.2.4-.1.6-.1.7-.4 1.2-1 1.1-1.8-.3-.5-.9-.8-1.6-.8-.4.2-1 .7-1.1 1.2 0 .6.6 1.2 1.1 1.4-.1.1-.4 0-.6 0-2.2-1-4.3-1.9-6.4-2.9-.8-.1-1.4-.8-2.2-.9-1.6-.8-3.2-1.6-4.9-2.2-4.5-2.4-9.5-3.6-14.3-5.3-1.1-.3-2.1-.6-3-.9-1.8-.5-3.5-.9-5.3-1.4-6-1.5-14-1.6-19.3 1.6-.9-.3-1.3 1.1-1.8.2 1.5-3.9 5.8-5.2 9.7-5.3 28.3-.3 54.9-.5 82.8-.9 3.2 0 6.4-1.1 8.1-4.1 1.2-1.7 1.4-4.6.5-6.5Zm-64.4-11.2c0-.1-.3-.2-.2-.4 2.5-.6 4.7-2.1 7.2-2.8s.3.9.3.9v2.3h-7.3Zm0-5.8c.6-.6.8-1.2 1.3-1.9 0-.7-.3-1-.7-1.5.5-.5 1.3-.4 1.9-.5 1.8 1.1 3.6 2.7 3.9 4.7-2.8 1.2-5.6 2.5-8.6 3.2.5-1.2 1.3-2.7 2.2-3.9Zm-15.7-7.4c2.3 1.8 5.1 4 8.1 2.4 1.6-.5 1.8 1.8 2.5 2.7.8 2.6-1 4.5-1.2 6.9-.3.9-1 1.4-1.8 1.6-1.1.2-2 .9-3.2.9-9.2 3.6-18.7 7.3-26 14.6.4-.9.6-1.9.7-3-.1-1.1 0-2.3-.8-3.1-.1-.4-.6-1.4-.5-1.9l8.9-5.6c2.2-1 3.9-4.4 3.9-8.2V62.7c2.3 3.6 5.3 7.6 9.4 9Zm-10.8 7.8c-.3 2.9-1.2 5.2-3.2 6.5L116 97.8c-.4.3-.9.5-1.4.5s-1.1-.2-1.5-.5L94.6 86c-2-1.3-2.9-3.7-3.2-6.5V70c.1.1.3.2.5 0 1.8-1.2 1.3-3.9 1.3-5.8.4-2.2-1.1-3.3-1.8-5.2V42.7h7.7c.5.2 1 .6 1.6.7l.5-.7h36.6v36.8Zm-50.6-27c.4-1.6.9-3.1 2.4-4.1.2.2.3.3.3.5v7.8c-.6-1.4-3.6-2.5-2.8-4.2Zm13.6 46.9c-7.3-5.5-15.3-10.3-23.4-14.2.7-2.1 1.4-3.8 1.5-4.2.1-1.1.6-2.1.4-3.3.6-1.4.4-3.3.4-4.8.3-2.3 1.4-4.4 2.2-6.6L83 63c.4-1.3.6-2.6 1.4-3.7 2.2 1.4 4.4 1.4 5.5 3.7v15.9c0 3.8 1.6 7.2 3.9 8.2l7.6 4.8c0 2.4-1.5 4.6-.8 7.2Zm10.9 14.9c-2.3-5-5.4-9-9-13-.1-.6-.8-1.2-.4-1.9 1.3-1.3 1.6-3.8.9-5.4-.1-.3-.6-.8-.5-1.1l-.5-.4 10.7 6.8c.4.5 1 .8 1.7.8s1.1-.2 1.5-.6l3.6-2.3c-2.6 4 1.7 9.8-1.7 13.5v.3c-1 1.3-1.5 2.6-2.8 3.4-1.7-.7-2.3-2.6-3.3-4.1-1.5-1.5-1.5-4.5-.6-6.6.6-2.1-.4-3.8-.6-5.7l-.7-.4c-1.7 2.2-2.3 5.7-1 8.3.7 1.3.8 3.1 1.8 4.1.6 2.1 1.9 3.4 3 5.3.3.7-.4.8-.8 1.2-.8-.5-.6-1.6-1.3-2.1Zm4.7 8c-.3.9-.8 1.6-.8 2.5h-.3c.2-.9-.8-1.6-.6-2.7-.6-.9-.6-1.9-1.1-2.9-.6-1.1.6-1.6 1.1-2.4 1 .4 1.3 1.4 2 2.2.4 1.2-.5 2.1-.4 3.3Zm-.4-6.8c2.4-3.1 4.3-6.5 5-10.4.5-.3.1-1.3.6-1.7-.1-1.1.6-2.3 0-3.2.5-1.6-2.1-3-.5-4h-.1l4.3-2.7c-.6 1.6-1.2 4.3-.5 5.9.2 1.3 1.3 2.8.3 3.9-3.4 4.1-5.3 9.1-7.6 13.8-.9-.1-1.3-.9-1.6-1.7Z"/>
  <path class="st0" d="M9 122.8c0-.4-.1-.6-.2-1-.4-.5-1.1-.8-1.7-.6-.6.3-.8.9-.7 1.5.3.6.8 1.1 1.6.9.4 0 .8-.5 1-.9ZM104.5 28h20.9c1 0 1.8-.8 1.8-1.8s-.8-1.8-1.8-1.8h-20.9c-1 0-1.8.8-1.8 1.8s.8 1.8 1.8 1.8Zm20.2-2.9h.8c1.5 0 1.4 2.5 0 2.5s-2.8-2.5-.8-2.5Zm-8.6 0h2c1.1 0 3 2.5 1 2.5h-2c-1.1 0-3-2.5-1-2.5Zm-8.5 0h2c1.1 0 3 2.5 1 2.5h-2c-1.1 0-3-2.5-1-2.5ZM55 132.6c-.4-.4-.8-.6-1.3-.5-.4.4-1.2.6-.8 1.4.2.8 1 1 1.7.9.7-.4.6-1.2.5-1.8ZM47.8 149.5v.3c1.1.7 2.3-.3 3.4-.6 2-1.1 2.4-3.6 2.5-5.5-1.8 2-4.4 3.6-5.9 5.8ZM11 125.1c-.4-.5-1-.9-1.7-.7-.6.2-.8.9-.7 1.5.2.6.9 1 1.5 1 .7-.3 1-1 .8-1.8ZM110.1 14.9l-.4 6.6 4.9-4.4 4.9 4.4-.4-6.6 6.4-1.1-5.3-3.8 3.2-5.7-6.3 1.8-2.5-6.1-2.5 6.1-6.3-1.8L109 10l-5.4 3.8 6.5 1.1zM47.5 125.7c-.4.1-.6.4-.9.7-.2.6.2 1.1.6 1.5.2.3.8.2 1.1 0 .2-.4 1-.6.8-1.3-.4-.4-.7-1.1-1.5-.9ZM10.6 121.1c-.3.6 0 1.4.6 1.7.6.2 1.2 0 1.6-.3.4-.6.2-1.1 0-1.6-.5-.8-1.8-.5-2.2.1ZM48 140.7c-.1-.7-.7-1.1-1.4-1.2-.4.1-1 .3-1.1.8-.4.5.1.9.3 1.3.4.3.9.5 1.4.3.6-.2.6-.9.8-1.1ZM45.8 131.1c.2.6.8.7 1.3.9.7-.1 1.1-.6 1.3-1.2-.2-.8-.9-1.1-1.6-1.1-.5.3-1.1.7-1 1.4ZM51.2 142.7c.6-.3.8-.9 1-1.4-.3-.6-.9-1.3-1.6-1.2-.4.2-.8.3-1 .6-.2.5 0 1 .2 1.4.4.4.9.6 1.4.5ZM53.7 143.7zM49 145.9c.6-.4.8-1.1.7-1.9-.4-.8-1.2-1-1.9-.9-.8.4-.9 1.3-.8 2.1.3.9 1.3.9 2 .8ZM48 140.7zM14.4 123.1c.6.6 1.1 1.3 2.1.8.9-.1.7-1.1.6-1.7-.5-.6-1.1-.6-1.8-.6-.5.3-.9.8-.9 1.4ZM26.9 129.9c0-1.1-1.3-1.5-2.1-.9 0 .4-.4.6-.3 1.1.2.6.7.8 1.3.9.7 0 1-.5 1.2-1.1ZM26.8 134.2c-.3.6-1.5 1.4-1.2 2.1 2.7-.2 4.6-2.3 5.6-4.7.4-1 1.4-1.6 1.4-2.6h-.4c-2.1 1.5-4.3 2.8-5.4 5.2ZM42.5 131.9c.6-.3 1.1-.7 1.1-1.5-.5-.4-.7-1.1-1.6-.8-.4.3-1 .8-.8 1.4.3.5.7.9 1.3.9ZM48 134.5c-3.7.4-7.9 2.4-9.2 6.3.7.4 1.1-.4 1.6-.6 3-.7 5.2-3.6 7.6-5.1v-.6ZM201.9 127.7c.8-.4 1.2-1.1 1-1.8-.4-.8-1.8-1.2-2.4-.1-.6.3-.2 1.1 0 1.5.4.4.8.6 1.3.5ZM180.5 129.4c-.3.6-.6 1.1 0 1.7.3.3.8.8 1.5.6.6-.3 1.3-.9 1.2-1.6-.6-.8-1.8-1.5-2.6-.6ZM203.7 119c-.3-.2-.7 0-1 0-2.8 1.1-5.2 4-6.3 6.8.4.5.8-.2 1.3-.2 2.9-1.1 4.3-4 5.9-6.5ZM211.5 123.6c.6-1 .4-2.4 1-3.3l-.3-.4c-2.3.9-3.7 3.3-4.7 5.5-.4.6-1.2 1.4-.9 2.1 2.2-.4 3.5-2.2 4.9-3.8ZM204.6 122.9c-.6.2-1.1.6-1.2 1.3.4.8 1.2 1.5 2.2 1.1.3-.2.9-.6.9-1.2-.4-.7-.9-1.2-1.8-1.1ZM214.5 125.1c.3-.2.6-.7.6-1.2-.2-.8-1.4-.9-2.1-.6-.4.4-.9.9-.3 1.5.4.4 1.1.5 1.7.3ZM211.8 129.1c0-.4.5-.2.8-.3.6-.2 1.3-.6 1.1-1.5-.3-.4-.6-.8-1.1-1-.6-.1-.9.3-1.3.4-1.2.8.8 1.6-.1 2.6-1.3 0-3-.3-3.9.6.6.5 1.4.5 1.9.8 1.8 2 4.5 2.6 7 2.7v-.6c-1.4-1.4-2.5-2.9-4.4-3.8ZM184.9 141.9c-.4-.2-.8-.8-1.4-.6-.9.1-1.1 1.2-.8 1.9.2.1.4.7.8.6.8.4 1.1-.6 1.6-.9.1-.3 0-.6-.1-1ZM205.3 130.7c-.5-.2-.8-.6-1.3-.6-.5.2-1.1.4-1.3.9-.4.6.2 1.2.6 1.6.6.1 1.6.3 2-.4.3-.5.4-1.1.1-1.6ZM178.9 142.7c.2.3.4.9.8 1 .5.3 1.2.2 1.6-.3.3-.4.6-.8.5-1.4-.3-1.1-1.6-1.4-2.4-.8-.2.5-.9.9-.5 1.4ZM183.1 138.3c-.4-.6-.9-.6-1.5-.7-.3.2-.8.3-1.1.8 0 .5 0 1.1.6 1.4.3.3 1 .3 1.3 0 .6-.1.8-.9.6-1.5ZM218 127.1c-.2-.7-1-1-1.6-1-.5.2-.6.5-1 .8 0 .6 0 1.2.6 1.6.5.1 1.2 0 1.6-.3 0-.3.5-.6.3-1.1ZM189.1 142.2c-.1-1.9-.8-3.6-1.8-5.1s-2-2.1-2-2.1c-.7-.2-1.2-1.5-1.9-.9 0 .3 0 .6.3.7 1.2 3.2 1.9 6.4 5.1 8.7h.3c.4-.3-.1-.8 0-1.3ZM202.7 135.7c-.9-2.1-2.4-3.8-4-5.2-.6-.2-1.3-1-1.9-.4.7 2.1 2 4 3.7 5.7 1.1.2 2 1.5 3.1 1 .2-.5-.5-.9-.8-1.1ZM212.5 120.3zM123.6 48.5zM26.4 123.4c-.4.5.4.9.5 1.3.4 0 1 .2 1.3-.1.6-.1.4-.9.5-1.3-.3-.6-.9-.4-1.3-.6-.4.2-.7.4-1 .8ZM127.7 57.3c.9 0 2.2.6 2.2-.3s-1.2-.9-2.2-.9-2.2-.5-2.2.9 1.2.3 2.2.3Z"/>
  <path class="st0" d="m125.2 60-1.6 6.4 4-1.5 3.9 1.5-1.2-6.4 2.8.8-1.1-3.4 1.1-3.6-3.1.7 1.6-5.9-3.9 1.5-4-1.5 1.5 5.9-3-.5.8 3.4-.8 3.6 3.2-.9Zm2.4-5.4c1 2.3 2.9-.1 2.9 2.3s0 2.3-1 2.3h-3.2c-1.4 0-1.4-1-1.4-2.4 0-2.1 2-.3 2.7-2.2ZM180.4 120.9c.8-.4 1.4-.9 1.1-1.9-.3-1-1.6-1-2.2-.4-.2.3-.7.6-.5 1.2.4.6.8 1.1 1.5 1.1ZM192.9 117.8c-3.8-.9-7.7.6-10.2 3.3-.1.1 0 .4.1.5.3 0 .6-.1.9-.2 3.5-.1 7-.8 9.5-3 .1-.4-.3-.4-.3-.6ZM111.1 60.4v.8l.6-.5.7.5v-.8l.6-.1-.5-.5.3-.6h-.7l-.4-.7-.4.7h-.7l.4.6-.6.5.7.1zM217.6 122.6c-.6.2-1.2.6-.9 1.4.3.7 1 .7 1.6.8.6 0 .8-.6 1.1-1.1-.1-.8-1.1-1.1-1.8-1.1ZM115.1 63.6l-1.2.1-.7-1.2-.7 1.2-1.2-.1.5 1-.8 1 1.1.2v1.3l1.1-.8 1.1.8v-1.3l1.1-.2-.9-1 .6-1zM115.6 55.8l.4-.6h-.8l-.4-.7-.4.7h-.7l.4.6-.6.5.7.1v.8l.6-.5.7.5v-.8l.6-.1-.5-.5zM118 62.5l-.4.1-.2-.5-.3.5-.4-.1.2.4-.3.3h.4v.5l.4-.3.3.3v-.5h.4l-.3-.3.2-.4zM116.2 59.3l-.5.5.7.1v.8l.6-.5.6.5v-.8l.7-.1-.5-.5.3-.7-.7.1-.4-.7-.4.7-.7-.1.3.7zM34.7 124.2v-.5c-2.7-1.9-4.8-4.8-8.3-4.8-.4.1 0 .4 0 .6 1.6.7 2.8 2.1 3.7 3.6 1.3 1 2.9 1.4 4.6 1.1ZM100.5 135.1l.2 2.4h.4c.1-2 1.6-2.2 2.6-2.3l.6 6.3c0 1-.2 1.1-1.3 1.2v.3l5.2-.5v-.3c-1.1 0-1.4 0-1.5-1l-.6-6.3c1 0 2.5-.1 3 1.8h.4l-.3-2.5-8.6.8ZM91 138.4c-.2-.8.1-1 .8-1.3v-.3l-3.1.7v.3c1.3-.2 1.5.1 1.7.8l.9 3.6c.2.8.6 2.6-1.9 3.1-2 .5-2.4-1.1-2.6-1.8l-.9-3.9c-.2-1 .2-1.2 1.1-1.4v-.3l-4.8 1.1v.3c.9-.1 1.2-.2 1.5.8l.9 3.9c.3 1.3.8 1.6 1.5 1.9 1.1.5 2.4.2 3 0 .8-.2 2-.7 2.6-1.5.5-.7.4-1.8.2-2.5l-.9-3.8ZM98.4 139.3l-2.3-.4c-1.3-.2-1.6-.4-1.8-1.1-.2-.8.5-1.3 1.3-1.5 1.7-.4 2.8.8 3.2 1.6s.4 0 .4 0l-.6-2.6h-.4c0 .3 0 .5-.4.6-.4.1-1.1-.1-2.3.1-2.7.6-2.8 2.3-2.6 3 .1.5.3 1.6 3 2l1 .2c1 .2 1.7.3 1.9 1.1 0 .1.2 1.3-1.5 1.7-1.8.4-2.9-.8-3.4-1.9h-.4l.6 3h.4c0-.3 0-.5.3-.6.4-.1 1.2.2 2.5-.1 2.6-.6 3.2-2.2 3-3.2-.3-1.3-1.5-1.7-2-1.8ZM45.7 118.5c-.6.3-.9.7-.9 1.3.2.4.4 1 .9 1.1.3 0 1 0 1.3-.3.4-.4.5-1 .4-1.5-.4-.7-1.1-.6-1.6-.6ZM172.4 150c-2.6 1.1-4.7 3.7-5.4 6.4 0 .3-.2.9.1 1.1 1.8-2 4.5-3.3 5.5-6-.2-.6.9-1.4-.2-1.5ZM49.2 120.5c.4.4.6.8 1.2.8.5-.4 1.1-.6 1-1.3-.3-.5-.9-.9-1.5-.8-.3.4-1 .6-.7 1.3ZM60.4 147.7c-.9-.9-1.6-2.3-2.7-3-.2 0-.4 0-.5.1.7 2.5.5 5.3 2 7.5.8.7 1.3 2.1 2.5 1.9-.6-1.8 0-4-1-5.6 0-.4-.5-.4-.4-.9ZM91.8 137.1ZM185.5 131.9c.2 0 .6 0 .7.1.7-.2 1.2-.8 1.3-1.6-.2-.9-1.3-.9-1.9-.9-.5 0-.6.6-1 1 0 .6.4 1 .9 1.3ZM64.2 134.9s-.1 0 0-.1l-3.4-.6c-2.2-.3-4.2.7-6.2 1.4-.3 0-.4.4-.4.6 3.2 1.9 7.2.7 10-1.3ZM172.6 145.1c-.3.4-.9.6-.7 1.3.4.3.8.6 1.3.6.3-.4 1-.5 1-1.1-.2-.8-.9-1.1-1.6-.9ZM177.3 150zM176.7 151.3c.3-.4.7-.8.6-1.3-.3-.6-.8-1.2-1.7-1-.3.3-1.1.7-1.1 1.4.1 1.1 1.3 1.1 2.1.9ZM174.7 140.5c.9-.3 2.1-.8 2.5-1.8-.2-.3-.7-.2-.9 0-2.5-.6-4.9-.1-7.2.4-.3.4-1.1.1-1.1.7 2.1.6 4.3 1.7 6.7.8ZM177.2 138.7zM176.3 152.8c-.4.4-1 .6-.9 1.3.4.6 1 .7 1.6.8.3-.4 1-.6 1-1.3-.3-.6-.9-.9-1.6-.8ZM169.1 144.4c-.4.2-.8.4-.9.8-.2.5-.1 1.2.3 1.4.5.2 1.3.4 1.7 0 .2-.4.7-.7.4-1.1-.3-.5-.9-1.1-1.5-1ZM182.2 127.2c-.2.7.3 1.1.7 1.6.5.2 1.1.1 1.5-.3 0-.4.5-.8.3-1.1-.2-1.1-2-1.3-2.6-.2ZM178.5 145.9h-.4c-.3 2.9 1.8 5 3.8 6.8h.3c.4.1.4-.3.4-.5 0-2.9-2.2-4.7-4.1-6.3ZM112.1 52v.8c0 .2.2.4.4.4h3.1c.2 0 .4-.2.4-.4v-.9c.4-.3.6-.8.6-1.5 0-2.9-1.6-.2-2.5-2.7-.7 2.1-2.6.3-2.6 2.6s.2 1.3.6 1.6Zm1.8-2.5c.8 0 2.2-.3 2.2 1.1s-1.1.4-2 .4c-.8 0-2 .6-2-.4 0-1.4 1-1.1 1.8-1.1ZM128.2 141.6l-2.4-6.7h-.4l-4 6.1c-.5.8-.8 1.2-1.5 1.2-.1 0-.3 0-.4-.2l-2.8-3.5c.8-.2 2.3-.5 2.3-2 0-2-3-2.2-4-2.2h-4.6v.2c.8 0 1.3 0 1.2 1.1v5.3c-.1 1-.4 1-1.4 1.1v.3h4.9v-.2c-1-.1-1.3-.2-1.2-1.1v-2.4h.4l2.9 3.8h2.7l2.9.4v-.3c-.5 0-1.1-.2-1.1-.7 0-.2.3-.7.8-1.5l3.2.4c.1.4.5 1.3.5 1.7 0 .4-.3.4-1.2.3v.3l4.6.6v-.3c-.7 0-.8-.5-1.3-1.9Zm-14.3-3.3v-3.1c0-.4.1-.5.9-.5 1.2 0 1.7.6 1.7 1.8 0 1.6-.8 1.8-2.7 1.8Zm10.6-1 1.1 3.1-2.8-.3 1.7-2.7ZM129.6 143.8zM114 51h.1-.1zM114.2 43.1h.1-.1zM103.6 45c.4 0 .6-.3.6-.7s-.6-1.2-.6-1.2-.6 1-.6 1.2c0 .4.3.7.6.7ZM114.3 45c.3 0 .6-.3.6-.7s-.6-1.2-.6-1.2-.6 1-.6 1.2c0 .4.3.7.6.7ZM83 84.3c-.7 0-1.3.5-1.3 1.2s.6 1.2 1.3 1.2 1.3-.5 1.3-1.2-.6-1.2-1.3-1.2ZM124.5 78.7c-.6 1.2-.6 2.9-2 3.6-.4.3-.4.7-.4 1.1l.3.3c.9-.5 2.5-.6 2.4-2.1.3-.6.7-1.3 1.3-1.8.7-.1 1.3.2 1.5.7-.2 1-.9 1.7-1.8 2-.1.1 0 .3 0 .5.3.5 1 .3 1.4.2 1.1-.7 1.6-2.1 2.6-2.5.1.7-1.3.9-.4 1.5.6-.1 1.4 0 1.8-.8-.5-1.2 1.6-1.7.3-2.7 0-1 1.1-1.4 1-2.5-.4-1.1-1.7-1.1-2-2.1.4-.3 1-.2 1.4 0 .1.2.5.3.9.1l.4-1.1s-.5-.5-.8-.5c-1.1.3-2.4.4-3 1.5 0 .7.5 1.4 1.1 1.8.4-.1.5.3.7.5 0 .3-.1.6-.5.6-.8-.8-2.2.3-2.8-.8.3-1 .8-2.2 0-3.1 0-.2.4-.4.2-.6-.3-1-1.3-.2-1.9-.2-1-.1-1.8.4-2.4 1.2 0 .3.2.7.5 1 .3 0 .4 0 .5.3l-.7.4c.2.2.2.5.3.7-.5.2-.9-.5-1.1-.8 0-.5 0-1.5-.7-1.6-.1 0-.6.2-.6.2-.2.2-.3.6-.3 1.1s.3 1.2.3 1.2 2.1 1.5 2.5 2.5ZM139 142.9h-.4c-.9 1.2-1.9 2-4 1.6-1-.2-1.2-.3-1.1-.9l1-5.6c.2-1 .6-1 1.6-.8v-.3l-4.9-.9v.3c.6.2 1.2.3 1 1.1l-1 5.8c-.1.7-.6.7-1.4.6v.3l8.1 1.5 1.1-2.6ZM124.9 45c.3 0 .6-.3.6-.7s-.6-1.2-.6-1.2-.6 1-.6 1.2c0 .4.3.7.6.7ZM134.4 83.2s-.6 1-.6 1.2c0 .4.3.7.6.7s.6-.3.6-.7-.6-1.2-.6-1.2ZM92.3 59c0 .4.3.7.6.7s.6-.3.6-.7-.6-1.2-.6-1.2l-.6 1.2ZM141.8 86.1c.7 0 1.3-.5 1.3-1.2s-.6-1.2-1.3-1.2-1.3.5-1.3 1.2.6 1.2 1.3 1.2ZM92.3 73.2c0 .4.3.7.6.7s.6-.3.6-.7-.6-1.2-.6-1.2l-.6 1.2ZM92.3 44.4c0 .4.3.7.6.7s.6-.3.6-.7-.6-1.2-.6-1.2-.6 1-.6 1.2ZM152 145.9l-2.5-6.7h-.4l-3.9 6.2c-.5.8-.8 1.2-1.5 1.3v.3l2.9.3v-.3c-.5 0-1.1-.2-1.1-.6 0-.2.3-.7.8-1.5l3.2.3c.2.4.5 1.3.5 1.7 0 .4-.3.4-1.2.4v.3l4.6.5v-.3c-.7 0-.9-.5-1.4-1.8Zm-3.8-4.3 1.1 3.1-2.8-.3 1.6-2.8ZM94 84.5c0 .4.3.7.6.7s.6-.3.6-.7-.6-1.2-.6-1.2l-.6 1.2Z"/>
  <path class="st0" d="M143.5 139.6c.2-.8.8-.7 1.5-.6v-.3l-4.9-1v.3c.6.2 1.2.3 1.1 1.1l-1.2 5.7c-.1.7-.7.7-1.5.6v.3l4.9 1v-.3c-.7-.2-1.3-.4-1.1-1.1l1.2-5.7Z"/>
  <circle class="st0" cx="13.8" cy="125.8" r="1.3"/>
  <path class="st0" d="M103.6 89.2zM135.5 73.2c0 .4.3.7.6.7s.6-.3.6-.7-.6-1.2-.6-1.2-.6 1-.6 1.2ZM125.5 89.2zM135.5 59c0 .4.3.7.6.7s.6-.3.6-.7-.6-1.2-.6-1.2-.6 1-.6 1.2ZM103 90.4c0 .4.3.7.6.7s.6-.3.6-.7-.6-1.2-.6-1.2l-.6 1.2ZM135.6 45c.3 0 .6-.3.6-.7s-.6-1.2-.6-1.2-.6 1-.6 1.2c0 .4.3.7.6.7ZM143.4 146.7zM114 96.8c0 .4.3.7.6.7s.6-.3.6-.7-.6-1.2-.6-1.2-.6 1-.6 1.2ZM124.9 90.4c0 .4.3.7.6.7s.6-.3.6-.7-.6-1.2-.6-1.2-.6 1.1-.6 1.2ZM82.2 145.8l-3.9-6h-.4l-2.4 7c-.3.9-.5 1.4-1.2 1.6v.3l3-.3v-.3c-.5 0-1.2 0-1.3-.4 0-.2.2-.7.5-1.6l3.2-.4c.2.4.8 1.2.8 1.5 0 .4-.2.4-1.1.6v.3l4.6-.5v-.3c-.7 0-1-.3-1.8-1.5Zm-5.7-.2 1-3.1 1.8 2.8-2.8.3ZM84 147.6zM121.8 95.9c-.2 0-.4.2-.6.3l.6-.3Z"/>
  <path class="st0" d="M165.5 130c-.9-2.2-2.6-3.7-4.8-4.4-2.3-.5-4.7-.1-6.1 1.6-2.5 2.1-.8 5.5-.7 8.2 0 .6 0 1-.5 1.3-10.2-.9-19.8-3.5-29.9-4.6-2.3-.4-4.7-.3-6.9-.8l-2.8-.3c-8.8.3-17.7.8-25.9 2.9-1.8.6-3.7.7-5.5 1.3-1.3-.2-2.3.7-3.5.4l-2.3.5h-.8c-1.1-2.9 2.3-4.7 1.2-7.5-.9-1.6-2.8-3.2-4.9-2.9-2.4-.3-4.5 1.1-5.6 2.9-1.6 3.6.4 7.2 1.1 10.7-.1 1.1 1.1 2.4 0 3.3-2.3-1.6-5.2-2.4-8-1.6-.8.4-2.4-.1-2.8.9 3 1.6 6.9 1.4 10.3 1.3.4-.1.7-.2 1.1 0 .3 1.9-.3 4.3.8 6 1.3 1.7 3.4 2.1 5.4 2.3 6.5-.2 12.3-2.1 18.2-3.6.9 0 1.6-.6 2.6-.6 3.2-.7 6.6-1.3 10-1.3-1.5 1.9-2.3 4-3 6.4-.9 1.9 1.5 2.2 2.2 3.3-2.2.6-3.7 2.1-5.8 3-4.5-.1-8.3 1.6-12.6 2.1 0 .9 1.5.6 1.6 1.6-.2.6-.9.7-1.3 1.1 0 .4 0 .5.4.6.4-.5 1.3-.1 1.8-.6 1.4 0 2.6-.4 4-.5 1.2-.5 2.5-.6 3.6-1.4 1.5-.4 2.4-1.4 3.9-1.8 2.1 0 4-.7 6-.9v.4c-1.6 2.6-3.3 5.3-5 7.8-.3.5 0 1 .5 1.1 1 .3 2 0 2.8-.4 1.5-2.6 2.8-5 4-7.6.5-2.4 2.3-3.7 4-5.3.3-.1.7-.6 1-.1-1.4 1.6-2.3 3.2-3.4 5-.6 2-.7 4.5 1.1 6.2.8.7 2.1.5 3.2.6 2.8-1.4 6.3.8 8.4-1.9 1.3-.2 1.5 1.3 2.2 2 1.2.4 2.5 1.6 3.7.7 0-.8-.9-1.5-1.3-2.2-.8-1.5-1.9-2.7-2.7-4-.4-1-1-1.6-1.1-2.6 1.3.4 2.4 1.3 3.8 1.5 1.2.5 2.7.4 3.8 1.1.9 1.2 2.3 1.9 3.5 2.7 1.8.9 3.7 1 5.6 1.7.7 0 1.8.6 2.3 0-.3-.4-.6-.6-1.1-.8-.2-.9 1.3-.4 1.8-1.1-.2-.3-.5-.5-.8-.5-1-.5-3.5-.7-4.2-1.1-.8-.1-1.6-.5-2.5-.8-4.2 0-6.6-3.8-10-5.3.8-.7 2-1.3 2.5-2.4.6-1 .9-2.6.2-3.8-.6-2.2-3.5-1.9-5.1-3.1l.2-.2c2.8-.1 5.2.5 7.6 1 6.8.9 13.1 3.5 20.1 3.6 3.9 0 8.8.2 10.7-3.6.4-2.2.8-4.4 1.1-6.6.9-3.6 3.2-6.8 2.8-10.7Zm-76.2 32.4-1-.9c.5-.6 1.5-.3 2.3-.7 1.8-.6 4-1.3 6-.9-2.1 1.7-4.9 1.9-7.3 2.5Zm44-1.1c1.7.8 5.1 1.5 7.5 1.8-.2 1-1.9 0-1.7 1.4-2.2-.9-4.7-1.3-6.4-3 .1 0 .3-.3.6-.2Zm-66.2-30.2c.2-1.3.5-2.6 1.7-3.6 1.7-.9 4-.7 5.6.2.5.3.9.7 1.1 1.3.3 1.2-.2 2.5-1.1 3.2h-.7c0-1.1 0-2.3.4-3.2 0-.9-.8-.9-1.3-1.3-1.2-.3-2.3.2-3.2.7-.7.8-1.3 1.9-.9 3.1.5.8 0 1.8.3 2.7l-.2.3c-.8-.9-2-1.9-1.8-3.6Zm3.3 2c1.1.8 2.5.4 3.8.6.2.8.2 1.8-.3 2.4-1.2-.3-2.8-.1-3.4-1.3.1-.5-.2-1.2 0-1.8Zm-.2-2.4c.2-.6 0-1.4.8-1.6.5-.1 1.3-.1 1.3.4 0 .8-.1 1.7-.4 2.5-1 0-1.5-.5-1.8-1.3Zm33.1 22.8c-.3-2.5.6-4.6 2.3-6.4 1-.2 2.1-.4 3 .1-1.8.5-4.2.9-4.6 3.3 0 .9-.2 1.4.2 2.2.8 1.3 2.5.8 3.5 1.8 0 .4-.3.8-.6.9-1.2-.7-2.7-1-3.8-1.9Zm-2.5 4.9c1.7-.7 3.5-2.2 5.4-1.6-1.3 1.1-3.5 1.5-5.4 1.6Zm6.7.7c-1 2.3-2.1 4.5-3.5 6.7-.1.4-.7.4-1.1.5 0-1 1-1.8 1.4-2.6 1.5-1.9 1.9-4 3.6-5.8.4.4-.4.7-.4 1.3Zm1.7-4.1v.3h-.1v-.3h.3-.3.1Zm-.6-1.9c-1.2-.1-2.3-.5-3.4-.8-.7-.7 0-1.5 0-2.3 1-1.6 3.8-2.3 5.2-.9-.2 1.6-.8 2.9-1.8 4Zm1.6 0c.2-.9.6-2.1 1.1-3 0 .9-.5 2.2-1.1 3Zm.7-5.8c-.9-.2-1.4-1.3-2.4-1.3.9-.3 1.7-.2 2.7 0 .4.5-.2.9-.3 1.3Zm.9 2.2v-.8.8Zm.1 3.3c0-.3.1-.6.2-1 .3-.4.7.3.8.5-.2.3-.6.6-1.1.5Zm1-4.5c.4-1 .4-1.8 1.1-2.6.7 0 1.3 0 1.9.3.1 1.4 1.9 3.3 0 4.6-.6.3-1.5.9-2.3.3-.9-.8-1.1-1.5-.7-2.5Zm5.2-1.9c-.1-.6.6-.1.9-.4h2.2c-1.1 0-2.5 2.6-3.1.4Zm3.5.9c-.8.3-1.5 1.3-2.3 1.5.4-.8 1.5-1.6 2.3-1.5Zm-3 4.4v.2-.2Zm.2 4.3c0 .1 0 .4-.1.5l-1.6-1.3c.8-.1 1.3.2 1.8.8Zm-1.9-2.2c.1-.1.5-.1.6 0h-.6Zm-1-1c.3-.4.6-1.1 1.1-1.1 0 0 0 .1.1.2-.4.4-.8.7-1.3.9Zm-1.6-.2h-.3l.4-.4c.2.1 0 .3-.1.4Zm.2 2.7c.9-1 1.8.6 2.1 1.4 1.1 1.6 3.8 3 2.8 5.1-1.3 1.2-3.5 0-4.9 1-.8 0-2.1.1-2.5-.6.8-2.3 1.5-4.8 2.6-6.8Zm-2 1.4.3-.6c-.6 1.7-1.4 3.5-2.3 5.1-.4-1.7 1.3-3.1 2-4.5Zm3.1 8.4c-1.3 0-3.4.9-4.7-.3 0-.6-.6-.9-.5-1.4 1.1-.4 2.1.9 3.2 0 1.6 0 3.3-.2 4.9.1.8.2 2-1.3 2.1.2-.6 2.3-3.4.7-5.1 1.4Zm4.1-10.2v-.2h.1v.2h-.1Zm.4 4.5c0 .7.8 1 .3 1.6-.1-.3-.6-.9-.3-1.6Zm2 4.2h-.3c-.4-.1-.2-.9-.1-1.4.4.4.8.9.5 1.4Zm3.5 1.7c0 .2-.4.2-.6 0-2.1-2.7-3.1-5.5-4.5-8.5h.3c1.7 2.7 3 5.8 4.7 8.5Zm2.6-6.5c-.1 0-.1.2-.1.3-2 0-3.4-1.1-4.9-2.2v-.4c1.8.1 3.4 1.4 5.1 2.3Zm-1.8-9.5c.8.2.9 1.1 1 1.8 0 1.6-.9 2.9-2.4 3.5-.8.4-2 .6-2.8.3 1.7 0 3.5-.7 4.2-2.4v-3.2Zm-1.6-.3c.3 1 1 1.9.6 3.1-.7 1.4-2.1 1.4-3.4 1.6-.6 0-1.1-.1-1.6-.5 0-.3 0-.5-.3-.7.2-.9-1.6-1.8-.4-2.6 1.1-1.1 3.8-3.5 5-.9Zm35.9-5.1c-.6.7 0 1.8-.8 2.5 0 1.3-1.1 1.9-2 2.4-8.4 1.8-16.7-1-24.8-2.4-11.4-2.5-24.6-3.2-36.2-.6-5.4 1-10.7 2.3-15.9 3.8-3.2.4-6.8.9-9.9 0-2.5-1.2-1.5-4.5-2.3-6.8.1-1.8-.5-3.2-.6-4.9-.2-.6-.4-1.3-.3-1.9 1.1.1 2.1.9 3.2 1.2 5.9 1.1 11.2-.8 16.7-1.8 5.3-1.1 10.7-2.1 16.3-2.5 6.3 0 12.8-.4 18.9.6 2 0 3.7.6 5.6.7 4 .5 7.6 1.6 11.6 1.8.6.2 1.4.2 2.1.4 6.4 1 13.5 2.8 19.6 0 0 2.6-1.1 4.9-1.4 7.4Zm-2-8.7c0 1.1-1 .8-1.5 1.3h-1.7c-.4-.6-.2-1.4-.2-2 1.1.2 2.4.2 3.5.7Zm-.7-1.8c.8-.8-.2-5.3 2-2.3 0 .6 0 1.4-.5 1.8-.4.3-.9.9-1.5.5Zm5.7-.7c-.6 1.3-1.6 2.2-3 2.4 0-1.7 1.6-2.9 1.1-4.8-.9-1.3-2.8-1.8-4.5-1.4-.6.4-.4 1.1-.6 1.8l-.3 2.3c-1.4 0-1.5-1.3-1.9-2.3 0-1.5.7-3 2.2-3.7 1.1-.6 3-.5 4.1.1.9.2 2 .6 2.3 1.5 1.1 1 .8 2.8.6 4ZM275.4 52.6h.3v80.7h-.3zM657.5 114.3h-1.2c-1.5 0-3-.6-3.9-1.4-.8-.7-1.5-1.6-2-2.6-2-3.8-6.8-13.9-12.5-26.5-4.6-10.1-7.3-16.5-8.6-19-1.2-2.6-2-4.5-2.6-5.7-.3-.9-.7-1.2-1.7-1.2h-4.1c-.4 0-.8 0-1.1.3-.4.3-1.1 1.5-3.2 5.5-1.3 2.6-5.1 9.1-11.3 19.6l-13.6 23.2c-1 1.8-1.9 3.2-2.6 4.2-1-.9-2.2-2.1-3.4-3.6-5.6-6.3-8.9-10.3-16.6-19.7 2.2-.5 4-1.1 5.4-1.6 6.6-2.4 11-8.2 11-14.2 0-8.8-7.2-14-19.3-14H527.5v.3h-.1l-.3.7-.5 1.5-.1.2c0 .5.6.8 1.6.8h1.3c2.3.3 3.8.7 4.7 1.6 1.5 1.5 1.7 4.7 1.7 22.2v2.6c-.1 7.6-.2 16.3-.3 18.8-.2 6.3-1 7.5-5.2 7.8h-1.2c-1.1 0-1.5.4-1.5.9l.8 2.2v.4h29.3v-.3c.1 0 .2 0 .2-.1l.8-2.1c0-.6-.4-.9-1.5-1H556c-4.7-.4-5.7-1.6-5.7-7.8V79.2l.3-10.7c.2-3.5.5-4.6 1-5 .5-.4 2.7-.5 5.9-.5 9.5 0 13.6 3.1 13.6 10.2s-5.3 11.7-12.8 11.7l-3.8-.2V89c.3.3.5.5.7.6.7.7 1.7 1.9 3 3.6 2 2.5 4.8 5.8 8.2 9.8 3.8 4.4 6.5 7.7 7.8 10 1.9 3.3 2.8 4.2 4.3 4.3H602.4l.4-1.1.5-1.5c0-.6-.5-.9-1.6-1h-1.2c-2.3-.2-3.4-.8-3.4-2s.9-3.1 2.4-5.8l18.6-33.2 7.7 17.6c.1.4.1.3.1.7s-.3.3-1.1.3h-14.5l-2.7 5.1H627c1.3 0 1.5 0 1.8.8l3.8 8.6c1.3 2.8 1.9 4.7 1.9 5.7s-.9 2-2.8 2h-1.3c-1 .2-1.6.4-1.5 1l.2.6.8 2.1h28.6l.6-1.6.4-1c0-.5-.5-.8-1.6-.9ZM387 84.7h-3.7c-1.4 12.3-13 21.7-25.4 22-12.2.3-22-9.6-22-21.7h-14.2c0 .8-.2 1.6-.2 2.5 0 18.1 14.6 32.7 32.7 32.7s32.7-14.7 32.7-32.7v-2.8Z"/>
  <path class="st0" d="M509.9 57.8h-38.7v.3c-.1 0-.2 0-.2.1l-.8 2.2h-.1c0 .6.6.9 1.6.9h1.3c2.3.3 3.9.7 4.7 1.6.5.6 1 1.5 1.1 2.5.5 2.8.6 8.8.6 20.8s0 10.6-.1 16.2c-.1 4.4-.1 6-.5 7.8-.3 2.7-1.6 3.7-4.7 4.1h-.7c-1.6-.1-3-.7-3.9-1.5-.8-.7-1.5-1.6-2-2.6-2-3.8-6.8-13.9-12.5-26.5-4.6-10.1-7.3-16.5-8.6-19-1.2-2.6-2-4.5-2.6-5.7-.3-.9-.7-1.2-1.7-1.2H438c-.5 0-.8 0-1.1.3-.4.3-1.1 1.5-3.2 5.5-1.3 2.6-5.1 9.1-11.3 19.6l-13.6 23.2c-3.7 6.3-4.9 7.5-7.6 7.7l-1.3.2c-1 0-1.4.3-1.4.8l.6 1.8.3.8h19.9l.4-1.2.5-1.4c0-.6-.5-.9-1.6-1h-1.2c-2.3-.2-3.4-.8-3.4-2s.9-3.1 2.5-5.8L435 73.1l7.7 17.6c.1.4.1.3.1.7s-.3.3-1.1.3h-14.5l-2.7 5.1h19.3c1.3 0 1.6 0 1.8.8l3.8 8.6c1.3 2.8 1.9 4.7 1.9 5.7s-.9 2-2.8 2h-1.3c-1 .2-1.5.4-1.4 1l.8 2.2v.5h54.5v-.3h.1l.2-.4.7-1.8c0-.6-.5-.9-1.6-1h-1.2c-4.8-.3-5.7-1.6-5.8-7.8V81l.2-10.8c.1-4 .3-6.1 1-6.5.5-.4 3.3-.7 6.4-.7 9.2 0 13.6 3.5 13.6 10.8s-5 12.1-12.3 12.1-2.7-.2-3.8-.5c-.3 0-.7-.2-1-.3v4.6c1.2.7 3.4.9 7.2.9 14 0 24.8-8 24.8-18.6s-7.5-14.4-19.8-14.4ZM335.8 81.4c.9-9.2 8.9-15.7 18.3-15.7s18.3 8.2 18.3 18.3-6.6 18.2-18 18c-5.3-.1-9.7-3.6-10.2-4l.3.2c.1.1.3.2.4.3.1.1.3.2.5.3l.2.2c3.1 2.2 6 3.9 9.9 4.2h2.1c11.5-.4 20.7-8.5 22.2-19.5.1-1.1.2-2.2.2-3.4-.1-13.8-9.2-24.9-26-24.9s-24.9 11.2-24.9 24.9v1h6.5Z"/>
</svg>
