<?xml version="1.0" encoding="utf-8"?>
<!-- Generator: Adobe Illustrator 26.0.1, SVG Export Plug-In . SVG Version: 6.00 Build 0)  -->
<svg version="1.1" id="Layer_1" xmlns="http://www.w3.org/2000/svg" xmlns:xlink="http://www.w3.org/1999/xlink" x="0px" y="0px"
	 viewBox="0 0 260.89 75.82" style="enable-background:new 0 0 260.89 75.82;" xml:space="preserve">
<style type="text/css">
	.st0{fill:#5B5A5B;}
	.st1{fill:#009E45;}
</style>
<path class="st0" d="M19.48,53.96c0.23,0,0.44,0,0.69,0c0.62,0,1.25,0,1.39,0.78c0.03,0.12,0.14,0.2,0.27,0.2
	c0.12,0.01,0.21-0.08,0.22-0.2c0-0.01,0-0.02,0-0.03c0-0.31-0.06-0.48-0.06-1s0.06-1,0.06-1.21c0.01-0.1-0.06-0.2-0.17-0.21
	c-0.01,0-0.02,0-0.03,0c-0.14-0.01-0.26,0.08-0.29,0.22c-0.1,0.84-0.78,0.84-1.42,0.84c-0.22,0-0.47,0-0.66,0V50.6
	c0.17-0.06,0.36-0.09,0.54-0.09h0.82c0.8-0.11,1.55,0.43,1.7,1.22c0.03,0.11,0.12,0.18,0.23,0.19c0.09,0,0.17-0.08,0.17-0.17v-1.67
	c0-0.18-0.14-0.23-0.34-0.23h-5.55c-0.1,0-0.14,0.09-0.14,0.18c-0.01,0.11,0.06,0.22,0.17,0.24c0.58,0.09,0.73,0.21,0.77,0.75
	c0,0.24,0,0.83,0,2.07v1.5c0,1.24,0,1.73,0,2c0,0.52-0.23,0.63-0.83,0.71c-0.1,0.02-0.18,0.11-0.17,0.22c0,0.11,0.06,0.21,0.16,0.21
	h3.81c0.11,0,0.16-0.1,0.16-0.21c0.01-0.1-0.06-0.2-0.16-0.22c-0.83-0.14-1.22-0.24-1.28-0.69c-0.06-0.66-0.08-1.33-0.06-2V53.96z
	 M27.12,53.03c0-1.18,0-1.78,0.05-2c0.08-0.51,0.24-0.66,0.72-0.75c0.1-0.02,0.17-0.11,0.16-0.21c0.01-0.09-0.06-0.18-0.15-0.19
	c0,0-0.01,0-0.01,0h-3.2c-0.1,0.01-0.17,0.09-0.16,0.19c-0.01,0.1,0.07,0.19,0.17,0.21c0.59,0.09,0.73,0.2,0.78,0.75
	c0,0.24,0.05,0.81,0.05,2v1.54c0,1.24,0,1.73-0.05,2c0,0.52-0.24,0.63-0.83,0.71c-0.1,0.02-0.18,0.11-0.17,0.22
	c0,0.11,0.05,0.21,0.16,0.21h3.38c0.11,0,0.16-0.1,0.16-0.21c0.01-0.1-0.06-0.2-0.16-0.22c-0.53-0.09-0.77-0.21-0.85-0.71
	c0-0.26-0.05-0.79-0.05-2V53.03z M36.79,57.76c0.08,0.11,0.2,0.19,0.34,0.2c0.12,0,0.2-0.08,0.2-0.3v-4.63
	c-0.04-0.73,0.01-1.46,0.15-2.17c0.08-0.33,0.18-0.49,0.68-0.57c0.1-0.04,0.17-0.13,0.16-0.24c0.01-0.1-0.06-0.19-0.16-0.2
	c0,0,0,0,0,0h-2.52c-0.1,0-0.15,0.1-0.15,0.2c-0.01,0.11,0.06,0.22,0.17,0.24c0.59,0.08,0.74,0.2,0.78,0.74
	c0.07,0.68,0.11,1.37,0.1,2.05v1.84l-4.36-5.07h-2c-0.16,0-0.23,0.07-0.23,0.17c0.01,0.09,0.05,0.18,0.12,0.25l0.66,0.76
	c0,0.24,0,0.78,0,2v1.54c0,1.24,0,1.7,0,2c0,0.52-0.13,0.66-0.73,0.74c-0.1,0.02-0.18,0.11-0.17,0.22c0,0.11,0,0.21,0.16,0.21h2.69
	c0.1,0,0.16-0.11,0.16-0.22c0.01-0.1-0.06-0.19-0.16-0.21c-0.7-0.06-1-0.3-1-0.79l-0.11-4.63L36.79,57.76z M44.05,49.85h-1.54
	c-0.09-0.01-0.17,0.05-0.18,0.14c0,0.01,0,0.01,0,0.02c-0.01,0.06-0.01,0.13,0,0.19l0.33,0.72l-1.89,5
	c-0.45,1.2-0.86,1.28-1.32,1.36c-0.1,0.02-0.17,0.1-0.16,0.2c-0.01,0.12,0.09,0.22,0.21,0.23c0.01,0,0.01,0,0.02,0h2.34
	c0.1,0.01,0.2-0.06,0.21-0.17c0-0.01,0-0.03,0-0.04c0-0.1-0.06-0.21-0.15-0.22c-0.43,0-0.64,0-0.64-0.25c-0.01-0.07-0.01-0.13,0-0.2
	l0.51-1.48h2.62l0.35,0.88c0.1,0.2,0.17,0.42,0.2,0.64c0,0.26-0.16,0.38-0.59,0.41c-0.1,0.02-0.17,0.12-0.16,0.22
	c0,0.11,0,0.21,0.14,0.21h3.25c0.11,0,0.16-0.1,0.16-0.21c0.01-0.11-0.07-0.2-0.17-0.22c-0.47-0.06-0.73-0.1-1.39-1.78L44.05,49.85z
	 M43.12,51.79l1.12,2.9h-2.13L43.12,51.79z M56.37,57.79c0.08,0.11,0.2,0.19,0.34,0.2c0.12,0,0.2-0.08,0.2-0.3v-4.66
	c-0.04-0.73,0.01-1.46,0.15-2.17c0.08-0.33,0.18-0.49,0.68-0.57c0.1-0.04,0.17-0.13,0.16-0.24c0.01-0.1-0.06-0.19-0.16-0.2
	c0,0,0,0,0,0h-2.51c-0.11,0-0.16,0.1-0.16,0.2c-0.01,0.11,0.06,0.22,0.17,0.24c0.59,0.08,0.74,0.2,0.78,0.74
	c0.07,0.68,0.11,1.37,0.1,2.05v1.84l-4.37-5.07h-2c-0.16,0-0.23,0.07-0.23,0.17c0.01,0.09,0.05,0.18,0.12,0.25l0.66,0.76
	c0,0.24,0,0.78,0,2v1.54c0,1.24,0,1.7,0,2c0,0.52-0.13,0.66-0.73,0.74c-0.1,0.02-0.18,0.11-0.17,0.22c0,0.11,0,0.21,0.16,0.21h2.72
	c0.1,0,0.16-0.11,0.16-0.22c0.01-0.1-0.06-0.19-0.16-0.21c-0.7-0.06-1-0.3-1-0.79l-0.1-4.66L56.37,57.79z M66.04,57.45
	c0.1,0,0.14-0.07,0.15-0.21l0.12-1.67c0.01-0.12-0.07-0.22-0.19-0.23c-0.01,0-0.01,0-0.02,0c-0.13,0-0.25,0.09-0.3,0.21
	c-0.26,0.9-1.07,1.52-2,1.56c-1.75,0-2.57-1.24-2.57-3.38c0-2.54,1.31-3.31,2.42-3.31s1.48,0.74,1.89,1.72
	c0.05,0.11,0.16,0.19,0.28,0.19c0.09,0.01,0.18-0.06,0.19-0.15c0-0.01,0-0.01,0-0.02v-2c0-0.14-0.06-0.19-0.15-0.21
	c-0.66-0.15-1.33-0.23-2-0.23c-2.83,0-4.54,1.68-4.54,4.07s1.39,4,4.09,4c0.89,0.01,1.79-0.13,2.64-0.39 M70.56,53.01
	c0-1.18,0-1.78,0.06-2c0.07-0.51,0.23-0.66,0.72-0.75c0.1-0.02,0.16-0.11,0.16-0.21c0.01-0.1-0.06-0.18-0.16-0.19h-3.16
	c-0.09,0-0.17,0.08-0.16,0.18c0,0,0,0.01,0,0.01c0.01,0.08,0.08,0.15,0.16,0.16c0.58,0.09,0.73,0.2,0.77,0.75c0,0.24,0,0.81,0,2
	v1.54c0,1.24,0,1.73,0,2c0,0.52-0.23,0.63-0.83,0.71c-0.1,0.02-0.17,0.12-0.16,0.22c0,0.11,0.05,0.21,0.15,0.21h3.39
	c0.1,0,0.15-0.1,0.15-0.21c0.01-0.1-0.06-0.19-0.15-0.22c-0.53-0.09-0.78-0.21-0.85-0.71c-0.05-0.67-0.07-1.33-0.06-2L70.56,53.01z
	 M77.9,49.83h-1.55c-0.09-0.01-0.17,0.05-0.18,0.14c0,0.01,0,0.01,0,0.02c-0.01,0.06-0.01,0.13,0,0.19l0.33,0.72l-1.89,5
	c-0.45,1.2-0.85,1.28-1.32,1.36c-0.1,0.02-0.17,0.1-0.16,0.2c0,0.13,0.1,0.23,0.23,0.23h0h2.35c0.1,0.01,0.2-0.06,0.21-0.17
	c0-0.01,0-0.03,0-0.04c0.01-0.1-0.06-0.2-0.16-0.22c-0.42,0-0.64,0-0.64-0.25c-0.02-0.07-0.02-0.13,0-0.2l0.5-1.48h2.62l0.35,0.88
	c0.1,0.2,0.17,0.42,0.2,0.64c0,0.26-0.15,0.38-0.59,0.41c-0.1,0.02-0.17,0.12-0.16,0.22c0,0.11,0,0.21,0.14,0.21h3.25
	c0.11,0,0.16-0.1,0.16-0.21c0.01-0.11-0.07-0.2-0.17-0.22c-0.46-0.06-0.73-0.1-1.39-1.78L77.9,49.83z M76.97,51.77l1.12,2.9h-2.13
	L76.97,51.77z M89.05,57.69c0.15,0,0.3,0,0.32-0.23l0.27-2c0.03-0.1-0.03-0.2-0.12-0.22c-0.02-0.01-0.05-0.01-0.07-0.01
	c-0.11-0.01-0.21,0.05-0.24,0.15c-0.31,0.97-1.17,1.66-2.19,1.73c-0.64,0-1-0.07-1.07-0.55c0-0.26,0-0.81,0-2v-1.52
	c0-1.18,0-1.79,0-2c0.08-0.51,0.24-0.66,0.72-0.75c0.1-0.02,0.17-0.11,0.16-0.21c0.01-0.09-0.06-0.18-0.15-0.19c0,0-0.01,0-0.01,0
	h-3.2c-0.1,0.01-0.17,0.09-0.16,0.19c-0.01,0.1,0.07,0.19,0.17,0.21c0.59,0.09,0.74,0.2,0.78,0.75c0,0.24,0,0.82,0,2.06v1.53
	c0,1.24,0,1.73,0,2c0,0.52-0.24,0.63-0.83,0.71c-0.1,0.02-0.18,0.11-0.17,0.22c0,0.11,0,0.21,0.16,0.21L89.05,57.69z M104.29,52.51
	l0.31,3.73c0,0.25,0,0.32,0,0.39c0,0.44-0.17,0.55-0.71,0.63c-0.1,0.02-0.18,0.11-0.17,0.22c0,0.11,0,0.21,0.16,0.21h3.16
	c0.1,0,0.16-0.1,0.16-0.21c0-0.1-0.06-0.19-0.16-0.22c-0.54-0.09-0.71-0.24-0.78-0.88l-0.53-5c0-0.13,0-0.3,0-0.43
	c-0.01-0.34,0.26-0.63,0.6-0.64c0.02,0,0.04,0,0.06,0c0.12,0.01,0.23-0.08,0.24-0.2c0-0.01,0-0.03,0-0.04c0-0.1-0.07-0.21-0.17-0.21
	h-1.74c-0.12-0.01-0.23,0.05-0.28,0.16l-2.38,5.63L99.18,50c-0.03-0.1-0.13-0.16-0.23-0.15H97.2c-0.11,0-0.2,0.1-0.19,0.21
	c0,0.01,0,0.02,0,0.02c-0.01,0.12,0.09,0.22,0.21,0.23c0.01,0,0.01,0,0.02,0c0.36-0.02,0.68,0.25,0.7,0.62c0,0.03,0,0.07,0,0.1
	c0,0,0,0.06,0,0.19l-0.5,5.27c-0.05,0.53-0.24,0.71-0.83,0.79c-0.1,0.02-0.18,0.11-0.17,0.22c0,0.11,0.05,0.21,0.16,0.21h2.58
	c0.11,0,0.16-0.1,0.16-0.21s0-0.21-0.16-0.22c-0.66,0-0.88-0.19-0.88-0.55c0,0,0-0.2,0-0.24l0.25-4l2.63,5.22
	c0.07,0.15,0.21,0.25,0.38,0.26c0.14,0,0.28-0.08,0.39-0.32L104.29,52.51z M113.46,49.83h-1.54c-0.09-0.01-0.17,0.05-0.18,0.14
	c0,0.01,0,0.01,0,0.02c-0.01,0.06-0.01,0.13,0,0.19l0.33,0.72l-1.89,5c-0.46,1.2-0.86,1.28-1.32,1.36c-0.1,0.02-0.17,0.1-0.16,0.2
	c-0.01,0.12,0.09,0.22,0.21,0.23c0.01,0,0.01,0,0.02,0h2.34c0.1,0.01,0.2-0.06,0.21-0.17c0-0.01,0-0.03,0-0.04
	c0-0.1-0.06-0.21-0.15-0.22c-0.43,0-0.64,0-0.64-0.25c-0.01-0.07-0.01-0.13,0-0.2l0.51-1.48h2.62l0.35,0.88
	c0.1,0.2,0.16,0.42,0.2,0.64c0,0.26-0.16,0.38-0.59,0.41c-0.1,0.02-0.17,0.12-0.16,0.22c0,0.11,0,0.21,0.14,0.21h3.25
	c0.11,0,0.16-0.1,0.16-0.21c0.01-0.11-0.07-0.2-0.17-0.22c-0.47-0.06-0.73-0.1-1.39-1.78L113.46,49.83z M112.53,51.77l1.12,2.9
	h-2.13L112.53,51.77z M123.68,57.21c0.41,0.53,1.06,0.81,1.73,0.74c0.32,0,0.63-0.03,0.94-0.1c0.1,0,0.14-0.07,0.14-0.12
	c0-0.05-0.03-0.1-0.08-0.12c-0.58-0.24-0.69-0.33-1.34-1.26l-1.6-2.29c1.03-0.16,1.79-1.03,1.82-2.07c0-1.51-1.45-2.13-2.76-2.13
	h-3.49c-0.11,0-0.16,0.1-0.16,0.2c-0.02,0.1,0.05,0.2,0.16,0.22c0,0,0.01,0,0.01,0c0.58,0.09,0.73,0.21,0.77,0.75
	c0,0.24,0.06,0.79,0.06,2v1.54c0,1.24,0,1.73-0.06,2c0,0.52-0.23,0.63-0.82,0.71c-0.1,0.02-0.18,0.11-0.17,0.22
	c0,0.11,0,0.21,0.16,0.21h3.4c0.1,0,0.16-0.1,0.16-0.21c0-0.1-0.06-0.19-0.16-0.22c-0.51-0.08-0.8-0.2-0.85-0.55
	c-0.07-0.82-0.09-1.65-0.07-2.48v-3.78c0.18-0.05,0.36-0.08,0.54-0.07c0.82-0.02,1.49,0.63,1.51,1.45c0,0.07,0,0.15-0.01,0.22
	c0,1.25-0.71,1.72-1.41,1.72c-0.17,0-0.35,0-0.35,0.14s0.07,0.23,0.29,0.58L123.68,57.21z M133.12,57.21
	c0.41,0.53,1.06,0.81,1.73,0.74c0.32,0,0.63-0.03,0.94-0.1c0.1,0,0.14-0.07,0.14-0.12c0-0.06-0.04-0.1-0.09-0.12
	c-0.57-0.24-0.65-0.34-1.31-1.26l-2.23-3.14l1.75-2.09c0.36-0.44,0.84-0.75,1.39-0.9c0.09-0.02,0.16-0.1,0.16-0.2
	c0-0.1-0.08-0.18-0.18-0.18c-0.01,0-0.01,0-0.02,0h-2.65c-0.09-0.01-0.17,0.05-0.18,0.14c0,0.01,0,0.02,0,0.03
	c0,0.1,0.06,0.18,0.15,0.21c0.44,0.09,0.68,0.15,0.68,0.31c-0.01,0.09-0.05,0.18-0.12,0.24l-2.45,3L133.12,57.21z M130.65,53.04
	c0-1.18,0-1.78,0.05-2c0.08-0.51,0.24-0.66,0.72-0.75c0.1-0.02,0.17-0.11,0.16-0.21c0.01-0.09-0.06-0.18-0.15-0.19
	c0,0-0.01,0-0.01,0h-3.24c-0.1,0.01-0.17,0.09-0.16,0.19c-0.01,0.1,0.07,0.19,0.17,0.21c0.59,0.09,0.74,0.2,0.78,0.75
	c0,0.24,0,0.81,0,2v1.54c0,1.24,0,1.73,0,2c0,0.52-0.24,0.63-0.83,0.71c-0.1,0.02-0.18,0.11-0.17,0.22c0,0.11,0,0.21,0.16,0.21h3.38
	c0.11,0,0.16-0.1,0.16-0.21c0.01-0.1-0.06-0.2-0.16-0.22c-0.53-0.09-0.77-0.21-0.85-0.71c0-0.26-0.05-0.79-0.05-2L130.65,53.04z
	 M140.05,50.61c0.17-0.06,0.36-0.1,0.54-0.09h0.82c0.8-0.11,1.55,0.43,1.7,1.22c0,0.12,0.09,0.19,0.23,0.19
	c0.09,0,0.17-0.08,0.17-0.17v-1.68c0-0.18-0.14-0.23-0.34-0.23h-5.56c-0.09,0-0.13,0.09-0.13,0.18c-0.01,0.11,0.06,0.22,0.17,0.24
	c0.58,0.09,0.73,0.21,0.77,0.75c0,0.24,0,0.83,0,2.07v1.5c0,1.24,0,1.7,0,2c0,0.52-0.23,0.66-0.83,0.74
	c-0.1,0.02-0.18,0.11-0.17,0.22c0,0.11,0.06,0.21,0.16,0.21h5.83c0.15,0,0.3,0,0.32-0.23l0.26-1.75c0.01-0.1-0.06-0.19-0.16-0.2
	c0,0-0.01,0-0.01,0c-0.12,0-0.22,0.06-0.27,0.17c-0.34,0.83-1.11,1.39-2,1.46c-0.79,0-1.38-0.09-1.44-0.57
	c-0.06-0.66-0.08-1.33-0.06-2v-0.63c0.23,0,0.44,0,0.69,0c0.62,0,1.25,0,1.39,0.78c0.03,0.12,0.14,0.2,0.27,0.2
	c0.12,0.01,0.21-0.08,0.22-0.2c0-0.01,0-0.02,0-0.03c0-0.31-0.07-0.48-0.07-1s0.07-1,0.07-1.21c0.01-0.1-0.06-0.2-0.17-0.21
	c-0.01,0-0.02,0-0.03,0c-0.14-0.01-0.26,0.08-0.29,0.22c-0.11,0.84-0.78,0.84-1.42,0.84c-0.22,0-0.47,0-0.66,0L140.05,50.61z
	 M145.56,49.86c-0.16,0-0.25,0.06-0.25,0.22v1.91c0,0.17,0.12,0.22,0.25,0.22c0.13,0,0.25-0.11,0.26-0.24
	c0.09-0.84,0.49-1.49,1.39-1.53h0.83v4.17c0,1.24,0,1.65-0.06,1.91c0,0.52-0.35,0.63-1.25,0.74c-0.1,0.03-0.17,0.12-0.17,0.23
	c0,0.11,0.06,0.22,0.16,0.22h4.23c0.11,0,0.16-0.12,0.16-0.23c0.01-0.1-0.06-0.2-0.16-0.22c-0.87-0.08-1.2-0.24-1.27-0.74
	c0-0.27-0.05-0.72-0.05-1.9V50.4h0.82c0.79,0.06,1.4,0.73,1.39,1.52c0,0.13,0.11,0.24,0.24,0.24c0.01,0,0.02,0,0.03,0
	c0.12,0.01,0.23-0.08,0.24-0.2c0-0.01,0-0.03,0-0.04v-1.85c0-0.12-0.1-0.22-0.22-0.22c-0.01,0-0.01,0-0.02,0L145.56,49.86z
	 M154.56,55.39c-0.02-0.14-0.14-0.24-0.28-0.25c-0.14,0.01-0.25,0.12-0.24,0.26c0,0,0,0,0,0v2c0.69,0.3,1.44,0.44,2.19,0.41
	c1.46,0,2.87-0.63,2.87-2.07s-0.93-1.89-2-2.74s-1.4-1.12-1.4-1.76s0.4-0.89,1-0.89s1.24,0.43,1.66,1.47
	c0.08,0.18,0.18,0.26,0.27,0.26c0.12-0.02,0.21-0.13,0.2-0.25v-1.71c-0.63-0.27-1.31-0.4-2-0.39c-1.33,0-2.63,0.51-2.63,2
	c0.12,1.1,0.78,2.08,1.76,2.59c1.12,0.8,1.65,1.18,1.65,1.87c0.01,0.55-0.43,1.01-0.99,1.01c-0.06,0-0.12,0-0.17-0.01
	c-0.85,0-1.59-0.86-1.89-1.83 M170.88,49.83h-1.6c-0.09-0.01-0.17,0.07-0.18,0.16c0,0,0,0,0,0c0.01,0.08,0.04,0.15,0.08,0.22
	l0.33,0.72l-1.88,5c-0.46,1.2-0.86,1.28-1.33,1.36c-0.1,0.02-0.17,0.1-0.16,0.2c0,0.13,0.1,0.23,0.23,0.23h2.35
	c0.1,0.01,0.2-0.06,0.21-0.17c0-0.01,0-0.03,0-0.04c0.01-0.1-0.06-0.2-0.16-0.22c-0.42,0-0.64,0-0.64-0.25
	c0-0.07,0.02-0.14,0.05-0.2l0.51-1.48h2.61l0.35,0.88c0.1,0.2,0.17,0.42,0.21,0.64c0,0.26-0.16,0.38-0.6,0.41
	c-0.1,0.02-0.17,0.12-0.16,0.22c0,0.11,0.06,0.21,0.14,0.21h3.25c0.11,0,0.16-0.1,0.16-0.21c0.01-0.11-0.07-0.2-0.17-0.22
	c-0.46-0.06-0.73-0.1-1.38-1.78L170.88,49.83z M169.95,51.77l1.12,2.9h-2.13L169.95,51.77z M177.8,53.01c0-1.18,0-1.76,0-2
	c0.08-0.51,0.13-0.66,0.63-0.75c0.1-0.03,0.16-0.12,0.16-0.22c0.01-0.1-0.06-0.19-0.16-0.2c0,0,0,0,0,0h-3
	c-0.11,0-0.16,0.1-0.16,0.2c-0.02,0.1,0.05,0.2,0.16,0.22c0,0,0.01,0,0.01,0c0.59,0.09,0.63,0.21,0.68,0.75c0,0.24,0,0.79,0,2v2.2
	c0,1.91,1.41,2.64,3.07,2.64c2,0,3.28-0.73,3.28-2.77c0-0.78,0-3,0.08-4c0-0.51,0.13-0.66,0.63-0.75c0.1-0.03,0.16-0.12,0.16-0.22
	c0.01-0.1-0.06-0.19-0.16-0.2c0,0,0,0,0,0h-2.56c-0.1,0.01-0.17,0.1-0.16,0.2c0,0,0,0,0,0c-0.01,0.11,0.06,0.2,0.17,0.22
	c0.6,0.09,0.64,0.21,0.68,0.75c0,0.24,0.06,0.79,0.06,2v2.43c0,1.09-0.75,1.63-1.88,1.63s-1.78-0.65-1.78-2L177.8,53.01z
	 M185.18,49.85c-0.15,0-0.24,0.06-0.24,0.22v1.91c0,0.17,0.12,0.22,0.24,0.22c0.14,0,0.25-0.1,0.27-0.24
	c0.08-0.84,0.49-1.49,1.39-1.53h0.82v4.18c0,1.24,0,1.65-0.05,1.91c0,0.52-0.35,0.63-1.25,0.74c-0.11,0.02-0.18,0.12-0.17,0.23
	c0,0.11,0,0.22,0.16,0.22h4.23c0.11,0,0.16-0.12,0.16-0.23c0.01-0.1-0.06-0.2-0.16-0.22c-0.87-0.08-1.2-0.24-1.27-0.74
	c-0.05-0.63-0.07-1.27-0.06-1.9V50.4h0.83c0.79,0.06,1.4,0.73,1.39,1.52c0,0.13,0.11,0.24,0.24,0.24c0.01,0,0.02,0,0.03,0
	c0.12,0.01,0.23-0.08,0.24-0.2c0-0.01,0-0.03,0-0.04v-1.85c0-0.12-0.1-0.22-0.22-0.22c-0.01,0-0.01,0-0.02,0H185.18z M201.43,53.03
	c0-1.18,0-1.8,0.05-2.06c0.07-0.5,0.23-0.61,0.72-0.7c0.1-0.02,0.17-0.12,0.16-0.22c0-0.1-0.05-0.2-0.16-0.2H199
	c-0.11,0-0.16,0.1-0.16,0.2c-0.02,0.1,0.05,0.2,0.16,0.22c0,0,0.01,0,0.01,0c0.58,0.09,0.73,0.16,0.77,0.7
	c0,0.25,0.06,0.84,0.06,2.08v0.26h-3.66v-0.28c0-1.18,0-1.8,0.05-2.06c0.08-0.5,0.24-0.61,0.73-0.7c0.1-0.03,0.16-0.12,0.15-0.22
	c0-0.1-0.05-0.2-0.15-0.2h-3.21c-0.1,0-0.15,0.1-0.15,0.2s0,0.21,0.16,0.22c0.59,0.09,0.74,0.16,0.78,0.7c0,0.25,0,0.84,0,2.08v1.54
	c0,1.24,0,1.73,0,2c0,0.52-0.23,0.63-0.83,0.71c-0.1,0.02-0.18,0.11-0.17,0.22c0,0.11,0.06,0.21,0.16,0.21h3.38
	c0.11,0,0.16-0.1,0.16-0.21c0.01-0.1-0.06-0.2-0.16-0.22c-0.53-0.09-0.77-0.21-0.85-0.71c0-0.26-0.05-0.79-0.05-2v-0.56h3.63v0.55
	c0.02,0.67,0,1.33-0.06,2c0,0.52-0.23,0.63-0.82,0.71c-0.1,0.02-0.18,0.11-0.17,0.22c0,0.11,0,0.21,0.16,0.21h3.38
	c0.1,0,0.16-0.1,0.16-0.21c0-0.1-0.06-0.19-0.16-0.22c-0.53-0.09-0.78-0.21-0.85-0.71c0-0.26-0.05-0.79-0.05-2L201.43,53.03z
	 M203.96,53.76c0,2.21,1.79,4,4,4s4-1.79,4-4s-1.79-4-4-4c-2.15-0.06-3.94,1.63-4,3.78C203.96,53.62,203.96,53.69,203.96,53.76
	 M207.96,50.37c1.47,0,2.18,1.52,2.18,3.47s-0.71,3.28-2.16,3.28s-2.15-1.57-2.15-3.45S206.5,50.37,207.96,50.37 M218.35,57.21
	c0.41,0.53,1.06,0.82,1.73,0.74c0.32,0,0.63-0.03,0.94-0.1c0.09,0,0.14-0.07,0.14-0.12c0-0.06-0.04-0.1-0.09-0.12
	c-0.57-0.24-0.69-0.33-1.33-1.26l-1.56-2.3c1.03-0.16,1.79-1.03,1.82-2.07c0-1.51-1.45-2.13-2.77-2.13h-3.49
	c-0.1,0-0.15,0.1-0.15,0.2c-0.02,0.1,0.05,0.2,0.16,0.22c0,0,0.01,0,0.01,0c0.58,0.09,0.73,0.21,0.77,0.75c0,0.24,0.05,0.79,0.05,2
	v1.54c0,1.24,0,1.73-0.05,2c0,0.52-0.23,0.63-0.83,0.71c-0.1,0.02-0.18,0.11-0.17,0.22c0,0.11,0.06,0.21,0.16,0.21h3.4
	c0.11,0,0.16-0.1,0.16-0.21c0.01-0.1-0.06-0.2-0.16-0.22c-0.5-0.08-0.79-0.2-0.84-0.55c-0.08-0.83-0.1-1.67-0.07-2.51v-3.74
	c0.18-0.05,0.36-0.08,0.54-0.07c0.82,0.01,1.48,0.69,1.47,1.51c0,0.05,0,0.11-0.01,0.16c0,1.25-0.71,1.72-1.41,1.72
	c-0.17,0-0.35,0-0.35,0.14s0.06,0.23,0.28,0.58L218.35,57.21z M225.35,53.04c0-1.18,0-1.78,0.05-2c0.07-0.51,0.23-0.66,0.72-0.75
	c0.1-0.02,0.17-0.11,0.16-0.21c0.01-0.09-0.06-0.18-0.15-0.19c0,0-0.01,0-0.01,0h-3.2c-0.09,0-0.17,0.08-0.16,0.18
	c0,0,0,0.01,0,0.01c-0.01,0.1,0.06,0.2,0.17,0.21c0,0,0,0,0,0c0.58,0.09,0.73,0.2,0.77,0.75c0,0.24,0.06,0.81,0.06,2v1.54
	c0,1.24,0,1.73-0.06,2c0,0.52-0.23,0.63-0.82,0.71c-0.1,0.02-0.18,0.11-0.17,0.22c0,0.11,0.05,0.21,0.16,0.21h3.31
	c0.1,0,0.16-0.1,0.16-0.21c0-0.1-0.06-0.19-0.16-0.22c-0.53-0.09-0.78-0.21-0.85-0.71c0-0.26-0.05-0.79-0.05-2L225.35,53.04z
	 M228.18,49.85c-0.15,0-0.24,0.06-0.24,0.22v1.91c0,0.17,0.12,0.22,0.24,0.22c0.14,0,0.25-0.1,0.27-0.24
	c0.08-0.84,0.49-1.49,1.39-1.53h0.83v4.18c0,1.24,0,1.65-0.06,1.91c0,0.52-0.35,0.63-1.25,0.74c-0.11,0.02-0.18,0.12-0.17,0.23
	c0,0.11,0.05,0.22,0.16,0.22h4.23c0.11,0,0.16-0.12,0.16-0.23c0.01-0.1-0.06-0.2-0.16-0.22c-0.87-0.08-1.2-0.24-1.27-0.74
	c0-0.27-0.05-0.72-0.05-1.9V50.4h0.82c0.79,0.06,1.4,0.73,1.39,1.52c0,0.13,0.11,0.24,0.24,0.24c0.01,0,0.02,0,0.03,0
	c0.12,0.01,0.23-0.08,0.24-0.2c0-0.01,0-0.03,0-0.04v-1.85c0-0.12-0.1-0.22-0.22-0.22c-0.01,0-0.01,0-0.02,0H228.18z M241.11,55
	c-0.01-0.35,0.07-0.69,0.22-1l1.15-2.38c0.54-1.13,0.86-1.26,1.41-1.37c0.09-0.02,0.16-0.1,0.16-0.2c0-0.1-0.08-0.18-0.18-0.18
	c-0.01,0-0.01,0-0.02,0h-2.56c-0.09-0.01-0.17,0.05-0.18,0.14c0,0.01,0,0.02,0,0.03c0,0.12,0.09,0.21,0.21,0.22
	c0.43,0,0.71,0.09,0.71,0.29c0,0.07-0.02,0.14-0.05,0.21l-1.29,3l-1.18-2.37c-0.13-0.22-0.22-0.46-0.25-0.72
	c0-0.25,0.21-0.35,0.76-0.38c0.1-0.01,0.18-0.1,0.17-0.21c0,0,0,0,0,0c0-0.08,0-0.17-0.14-0.17h-3.42c-0.1,0-0.14,0.09-0.14,0.17
	c-0.01,0.1,0.06,0.2,0.17,0.21c0,0,0,0,0,0c0.36,0,0.45,0.15,1.07,1.24l1.79,3.18v0.5c0.01,0.49-0.01,0.98-0.06,1.46
	c-0.07,0.45-0.46,0.52-1.2,0.62c-0.11,0.02-0.18,0.13-0.17,0.24c0,0.09,0,0.17,0.14,0.17h4.21c0.09,0,0.13-0.08,0.13-0.17
	c0.01-0.11-0.06-0.22-0.17-0.24c-0.7-0.1-1.18-0.2-1.24-0.59s0-0.94,0-1.71"/>
<path class="st0" d="M40.44,68.6c0.08,0.89,0.11,1.79,0.08,2.69v1.56c0,1.25,0,1.76-0.06,2.07s-0.45,0.52-1.2,0.62
	c-0.1,0.03-0.17,0.13-0.16,0.24c0,0.09,0,0.17,0.13,0.17h3.69c0.1,0,0.14-0.08,0.14-0.17c0.01-0.11-0.06-0.21-0.17-0.24
	c-0.7-0.1-1.19-0.18-1.24-0.59c-0.06-0.7-0.08-1.39-0.06-2.09v-1.58c0-1.22,0-2.41,0.06-2.67h1.28c0.68,0,1.07,0.66,1.16,1.5
	c0,0.11,0.09,0.2,0.2,0.2c0,0,0.01,0,0.01,0c0.1,0.01,0.18-0.07,0.19-0.17c0,0,0-0.01,0-0.01v-1.74c0-0.3-0.12-0.33-0.21-0.33h-6.46
	c-0.09,0-0.21,0-0.21,0.33v1.82c0,0.1,0.08,0.18,0.18,0.18c0,0,0.01,0,0.01,0c0.11,0.01,0.2-0.08,0.21-0.19c0,0,0-0.01,0-0.01
	c0.09-0.84,0.48-1.47,1.16-1.5L40.44,68.6z M48.5,68.7c0.18-0.05,0.36-0.08,0.54-0.07h1.36c0.67,0,1.07,0.46,1.15,1.3
	c0.01,0.11,0.1,0.2,0.21,0.2c0.1,0.01,0.18-0.07,0.19-0.17c0,0,0-0.01,0-0.01v-1.5c0-0.25-0.06-0.36-0.31-0.36H46.5
	c-0.09,0-0.13,0.09-0.13,0.17c-0.01,0.1,0.07,0.19,0.17,0.21c0.74,0.11,0.79,0.24,0.83,0.77c0.05,0.67,0.07,1.33,0.06,2v1.55
	c0.02,0.67,0,1.33-0.06,2c0,0.53-0.14,0.67-0.89,0.78c-0.1,0.02-0.18,0.11-0.17,0.21c-0.01,0.08,0.06,0.16,0.14,0.17h5.4
	c0.15,0,0.29,0,0.32-0.22l0.25-1.7c0-0.13,0-0.19-0.15-0.19c-0.1,0-0.18,0.07-0.21,0.16c-0.2,0.84-0.97,1.42-1.83,1.39
	c-1.21,0-1.61-0.07-1.68-0.61c0-0.25-0.05-0.75-0.05-2v-0.57c0.26,0,0.55,0,0.87,0c1,0,1.47,0,1.58,0.8
	c0.02,0.1,0.11,0.18,0.21,0.17c0.08,0.01,0.16-0.06,0.17-0.14c0-0.22-0.07-0.44-0.07-1s0.07-0.89,0.07-1.2
	c-0.01-0.08-0.09-0.15-0.17-0.14c-0.1-0.01-0.19,0.07-0.21,0.17c-0.16,0.87-0.57,0.87-1.61,0.87c-0.28,0.02-0.56,0.02-0.84,0
	L48.5,68.7z M62.91,75.91c0,0.09,0.11,0.16,0.17,0.16s0.14-0.06,0.2-0.22l2.59-6.11l0.43,4.83c0,0.64-0.13,0.89-0.87,1
	c-0.1,0.02-0.18,0.11-0.17,0.21c0,0.08,0,0.17,0.14,0.17h3c0.1,0,0.14-0.09,0.14-0.17c0.01-0.1-0.07-0.19-0.17-0.21
	c-0.7-0.11-0.88-0.36-0.93-1l-0.45-5.22c0-0.54,0.14-0.85,0.83-0.86c0.11,0,0.16-0.09,0.16-0.19s0-0.18-0.14-0.18h-1.81
	c-0.14,0-0.22,0.05-0.24,0.11l-2.47,6l-2.56-6c-0.04-0.08-0.12-0.14-0.21-0.14h-1.82c-0.08,0-0.12,0.09-0.12,0.17
	c-0.01,0.09,0.05,0.18,0.15,0.19c0,0,0,0,0,0c0.67,0,0.89,0.36,0.84,0.89l-0.51,5.37c0,0.53-0.18,0.75-0.92,0.86
	c-0.1,0.02-0.18,0.11-0.17,0.21c0,0.08,0,0.17,0.14,0.17h2.63c0.08-0.01,0.15-0.09,0.14-0.17c0.01-0.1-0.07-0.19-0.17-0.21
	c-0.65-0.1-0.9-0.29-0.9-0.75v-0.11l0.36-4.93L62.91,75.91z M74.7,68.09h-1.1c-0.14,0-0.19,0.11-0.14,0.23l0.34,0.77l-2.27,5.52
	c-0.31,0.79-0.51,0.85-1.07,1c-0.09,0.02-0.15,0.11-0.15,0.2c0,0.1,0.08,0.18,0.18,0.18c0.01,0,0.01,0,0.02,0h2.4
	c0.09,0.01,0.17-0.05,0.18-0.14c0-0.01,0-0.02,0-0.03c0.01-0.1-0.06-0.19-0.15-0.21c-0.56-0.07-0.9-0.16-0.9-0.4
	c-0.01-0.04-0.01-0.08,0-0.12l0.59-1.46h3.05l0.34,0.83c0.09,0.2,0.15,0.42,0.17,0.64c0,0.33-0.25,0.46-0.87,0.51
	c-0.1,0.01-0.18,0.1-0.17,0.21c0,0,0,0,0,0c0,0.08,0,0.17,0.14,0.17h3c0.08-0.01,0.15-0.09,0.14-0.17c0.01-0.1-0.07-0.19-0.17-0.21
	c-0.62-0.09-0.55-0.17-1.86-3.37L74.7,68.09z M74.23,69.68l1.29,3.33h-2.61L74.23,69.68z M87.23,76c0.06,0.07,0.14,0.11,0.23,0.12
	c0.1,0,0.19-0.08,0.19-0.26v-4.6c-0.01-0.67,0.01-1.34,0.07-2c0.08-0.54,0.08-0.66,0.78-0.77c0.1-0.02,0.18-0.11,0.17-0.22
	c0.01-0.08-0.06-0.16-0.14-0.17h-2.55c-0.09,0-0.13,0.09-0.13,0.17c-0.01,0.11,0.07,0.2,0.17,0.22c0.74,0.11,0.79,0.24,0.83,0.77
	c0.06,0.66,0.08,1.33,0.07,2v2.6l-4.83-5.79h-1.46c-0.09,0-0.15,0.05-0.15,0.12c0.01,0.07,0.05,0.14,0.1,0.19l0.71,0.76
	c0,0.26,0,0.88,0,2.12v1.55c0,1.25,0,1.71,0,2c0,0.53-0.15,0.67-0.89,0.78c-0.1,0.02-0.18,0.11-0.17,0.21c0,0.08,0,0.17,0.14,0.17
	h2.7c0.1,0,0.14-0.09,0.14-0.17c0.01-0.1-0.07-0.19-0.17-0.21c-0.7-0.11-0.88-0.31-1-0.85c0-0.26,0-0.72-0.05-2v-3L87.23,76z
	 M94.29,68.09h-1.11c-0.08,0-0.15,0.06-0.15,0.15c0,0.03,0.01,0.06,0.02,0.08l0.33,0.77l-2.2,5.52c-0.32,0.79-0.52,0.85-1.07,1
	c-0.09,0.02-0.16,0.1-0.16,0.2c0,0.1,0.08,0.18,0.18,0.18c0.01,0,0.01,0,0.02,0h2.4c0.09,0.01,0.17-0.05,0.18-0.14
	c0-0.01,0-0.02,0-0.03c0-0.1-0.06-0.2-0.14-0.21c-0.57-0.07-0.9-0.16-0.9-0.4c-0.01-0.04-0.01-0.08,0-0.12l0.59-1.46h3.05l0.34,0.83
	c0.09,0.2,0.15,0.42,0.17,0.64c0,0.33-0.25,0.46-0.87,0.51c-0.1,0.02-0.18,0.11-0.17,0.21c-0.01,0.08,0.06,0.16,0.14,0.17h3
	c0.08-0.01,0.15-0.09,0.14-0.17c0.01-0.1-0.07-0.19-0.17-0.21c-0.62-0.09-0.54-0.17-1.86-3.37L94.29,68.09z M93.81,69.68l1.37,3.33
	h-2.61L93.81,69.68z M106.69,68.6c0.08,0.89,0.11,1.79,0.08,2.69v1.56c0.02,0.69,0,1.38-0.06,2.07c0,0.42-0.45,0.52-1.19,0.62
	c-0.11,0.03-0.18,0.13-0.17,0.24c0,0.09,0,0.17,0.13,0.17h3.7c0.1,0,0.14-0.08,0.14-0.17c0.01-0.11-0.06-0.21-0.17-0.24
	c-0.7-0.1-1.19-0.18-1.24-0.59c-0.06-0.7-0.08-1.39-0.06-2.09v-1.58c0-1.22,0-2.41,0.06-2.67h1.28c0.68,0,1.07,0.66,1.16,1.5
	c0.01,0.11,0.1,0.2,0.21,0.2c0.1,0.01,0.18-0.07,0.19-0.17c0,0,0-0.01,0-0.01v-1.74c0-0.3-0.11-0.33-0.21-0.33h-6.46
	c-0.09,0-0.21,0-0.21,0.33v1.82c0,0.1,0.08,0.18,0.18,0.18c0,0,0.01,0,0.01,0c0.11,0.01,0.2-0.08,0.21-0.19c0,0,0-0.01,0-0.01
	c0.09-0.84,0.48-1.47,1.16-1.5L106.69,68.6z M116.02,68.09h-1.1c-0.14,0-0.19,0.11-0.14,0.23l0.34,0.77l-2.26,5.52
	c-0.32,0.79-0.52,0.85-1.08,1c-0.09,0.02-0.15,0.11-0.15,0.2c0,0.1,0.08,0.18,0.18,0.18c0.01,0,0.01,0,0.02,0h2.4
	c0.09,0.01,0.17-0.05,0.18-0.14c0-0.01,0-0.02,0-0.03c0-0.1-0.06-0.2-0.14-0.21c-0.57-0.07-0.91-0.16-0.91-0.4
	c-0.01-0.04-0.01-0.08,0-0.12l0.59-1.46h3l0.34,0.83c0.09,0.2,0.15,0.42,0.17,0.64c0,0.33-0.25,0.46-0.87,0.51
	c-0.1,0.02-0.18,0.11-0.17,0.21c0,0.08,0,0.17,0.14,0.17h3c0.08-0.01,0.15-0.09,0.14-0.17c0.01-0.1-0.07-0.19-0.17-0.21
	c-0.62-0.09-0.54-0.17-1.86-3.37L116.02,68.09z M115.55,69.68l1.29,3.33h-2.61L115.55,69.68z M116.72,67.26
	c0.15,0,0.28-0.13,0.28-0.28c0,0,0-0.01,0-0.01c0-0.16-0.14-0.29-0.3-0.28c-0.01,0-0.01,0-0.02,0h-2.21
	c-0.16,0.03-0.26,0.18-0.23,0.34c0.02,0.12,0.11,0.21,0.23,0.23H116.72z M123.44,68.6c0.08,0.89,0.11,1.79,0.08,2.69v1.56
	c0,1.25,0,1.76-0.05,2.07s-0.46,0.52-1.2,0.62c-0.11,0.03-0.18,0.13-0.17,0.24c0,0.09,0,0.17,0.14,0.17h3.68
	c0.1,0,0.14-0.08,0.14-0.17c0.01-0.11-0.06-0.21-0.17-0.24c-0.7-0.1-1.18-0.18-1.24-0.59c-0.06-0.7-0.08-1.39-0.06-2.09v-1.58
	c0-1.22,0-2.41,0.06-2.67h1.29c0.67,0,1.07,0.66,1.15,1.5c0.01,0.11,0.1,0.2,0.21,0.2c0.1,0.01,0.18-0.07,0.19-0.17
	c0,0,0-0.01,0-0.01v-1.74c0-0.3-0.11-0.33-0.21-0.33h-6.45c-0.1,0-0.22,0-0.22,0.33v1.82c0,0.1,0.08,0.18,0.18,0.18
	c0,0,0.01,0,0.01,0c0.12,0.01,0.21-0.08,0.22-0.2c0,0,0,0,0,0c0.08-0.84,0.47-1.47,1.15-1.5L123.44,68.6z M132.78,68.09h-1.11
	c-0.08,0-0.15,0.06-0.15,0.15c0,0.03,0.01,0.06,0.02,0.08l0.34,0.77l-2.27,5.52c-0.32,0.79-0.52,0.85-1.07,1
	c-0.09,0.02-0.16,0.1-0.16,0.2c0,0.1,0.08,0.18,0.18,0.18c0.01,0,0.01,0,0.02,0h2.41c0.09,0.01,0.17-0.07,0.18-0.16
	c0,0,0-0.01,0-0.01c0-0.1-0.06-0.18-0.15-0.21c-0.56-0.07-0.9-0.16-0.9-0.4c-0.01-0.04-0.01-0.08,0-0.12l0.59-1.46h3l0.34,0.83
	c0.09,0.2,0.15,0.42,0.17,0.64c0,0.33-0.25,0.46-0.87,0.51c-0.1,0.02-0.18,0.11-0.17,0.21c-0.01,0.08,0.06,0.16,0.14,0.17h3
	c0.08-0.01,0.15-0.09,0.14-0.17c0.01-0.1-0.07-0.19-0.17-0.21c-0.62-0.09-0.54-0.17-1.86-3.37L132.78,68.09z M132.3,69.68l1.29,3.33
	h-2.6L132.3,69.68z M140.54,71.3c0-1.21,0-1.81,0.05-2.06c0.07-0.54,0.07-0.66,0.77-0.77c0.1-0.02,0.18-0.11,0.17-0.21
	c0-0.08,0-0.17-0.14-0.17h-2.85c-0.09,0-0.13,0.09-0.13,0.17c-0.01,0.1,0.06,0.19,0.16,0.21c0.75,0.11,0.8,0.24,0.84,0.77
	c0,0.25,0.06,0.85,0.06,2.09v1.47c0,1.25,0,1.74-0.06,2c0,0.53-0.15,0.67-0.89,0.78c-0.1,0.02-0.18,0.11-0.17,0.21
	c0,0.08,0,0.17,0.14,0.17h3c0.1,0,0.14-0.09,0.14-0.17c0.01-0.1-0.07-0.19-0.17-0.21c-0.7-0.11-0.83-0.24-0.9-0.78
	c0-0.25-0.05-0.75-0.05-2L140.54,71.3z M156.04,71.3c0-1.22,0-1.77,0.05-2c0.08-0.54,0.08-0.66,0.77-0.77
	c0.1-0.02,0.18-0.11,0.17-0.21c0-0.08,0-0.17-0.13-0.17h-2.86c-0.09,0-0.13,0.09-0.13,0.17c-0.01,0.1,0.07,0.19,0.17,0.21
	c0.74,0.11,0.79,0.24,0.83,0.77c0.05,0.67,0.07,1.33,0.06,2v0.27h-4.29v-0.29c-0.02-0.67,0-1.34,0.06-2
	c0.07-0.54,0.07-0.66,0.77-0.77c0.1-0.02,0.18-0.11,0.17-0.21c0-0.08,0-0.17-0.14-0.17h-2.85c-0.1,0-0.14,0.09-0.14,0.17
	c-0.01,0.1,0.07,0.19,0.17,0.21c0.74,0.11,0.8,0.24,0.84,0.77c0,0.25,0.05,0.8,0.05,2v1.55c0,1.25,0,1.71-0.05,2
	c0,0.53-0.15,0.67-0.89,0.78c-0.1,0.02-0.18,0.11-0.17,0.21c0,0.08,0,0.17,0.14,0.17h2.93c0.1,0,0.14-0.09,0.14-0.17
	c0.01-0.1-0.07-0.19-0.17-0.21c-0.7-0.11-0.73-0.24-0.8-0.78c-0.06-0.66-0.08-1.33-0.06-2v-0.62H155v0.67c0.02,0.67,0,1.33-0.06,2
	c0,0.53-0.14,0.67-0.89,0.78c-0.1,0.02-0.18,0.11-0.17,0.21c-0.01,0.08,0.06,0.16,0.14,0.17h2.94c0.08-0.01,0.15-0.09,0.14-0.17
	c0.01-0.1-0.07-0.19-0.17-0.21c-0.7-0.11-0.73-0.24-0.81-0.78c0-0.25-0.05-0.72-0.05-2L156.04,71.3z M162.87,68.59
	c1.81,0,2.81,1.57,2.81,3.56s-1,3.36-2.78,3.36s-2.75-1.6-2.75-3.53S161.08,68.59,162.87,68.59 M158.87,72.07
	c0.06,2.21,1.89,3.95,4.1,3.9c2.21-0.06,3.95-1.89,3.9-4.1c-0.05-2.17-1.83-3.9-4-3.9c-2.18-0.03-3.97,1.7-4,3.88
	C158.87,71.93,158.87,72,158.87,72.07 M170.87,71.3c-0.01-0.67,0.01-1.33,0.06-2c0.07-0.54,0.07-0.66,0.77-0.77
	c0.1-0.02,0.18-0.11,0.17-0.21c0-0.08,0-0.17-0.14-0.17h-2.85c-0.08,0.01-0.15,0.09-0.14,0.17c-0.01,0.1,0.07,0.19,0.17,0.21
	c0.75,0.11,0.8,0.24,0.84,0.77c0,0.25,0.05,0.8,0.05,2v1.55c0,1.25,0,1.71-0.05,2c0,0.53-0.15,0.67-0.89,0.78
	c-0.1,0.02-0.18,0.11-0.17,0.21c0,0.08,0,0.17,0.14,0.17h3c0.1,0,0.14-0.09,0.14-0.17c0.01-0.1-0.07-0.19-0.17-0.21
	c-0.7-0.11-0.84-0.24-0.91-0.78c-0.06-0.67-0.08-1.33-0.06-2L170.87,71.3z M171.09,72.03l2.81,3.67c0.38,0.4,0.94,0.6,1.49,0.52
	c0.35,0,0.65,0,0.65-0.17s0-0.12-0.25-0.19c-0.46-0.17-0.63-0.44-1.14-1.08l-2.46-3.1l2.09-2.28c0.37-0.43,0.85-0.74,1.39-0.89
	c0.09-0.02,0.16-0.1,0.16-0.2c0-0.1-0.09-0.19-0.2-0.18c0,0-0.01,0-0.01,0h-2.43c-0.09-0.01-0.17,0.05-0.18,0.14
	c0,0.01,0,0.02,0,0.03c-0.01,0.09,0.05,0.18,0.14,0.21c0.45,0.09,0.69,0.16,0.69,0.31c-0.01,0.09-0.05,0.17-0.12,0.23L171.09,72.03z
	 M180.87,68.59c1.8,0,2.81,1.57,2.81,3.56s-1,3.36-2.79,3.36s-2.74-1.6-2.74-3.53S179.08,68.59,180.87,68.59 M176.87,72.07
	c0.06,2.21,1.89,3.95,4.1,3.9c2.21-0.06,3.95-1.89,3.9-4.1c-0.05-2.17-1.83-3.9-4-3.9c-2.18-0.03-3.97,1.7-4,3.88
	C176.87,71.93,176.87,72,176.87,72.07 M194.26,71.3c0-1.22,0-1.77,0.05-2c0.08-0.54,0.08-0.66,0.77-0.77
	c0.1-0.02,0.18-0.11,0.17-0.21c0-0.08,0-0.17-0.13-0.17h-2.86c-0.09,0-0.13,0.09-0.13,0.17c-0.01,0.1,0.07,0.19,0.17,0.21
	c0.74,0.11,0.79,0.24,0.83,0.77c0.05,0.67,0.07,1.33,0.06,2v0.27h-4.32v-0.29c-0.02-0.67,0-1.34,0.06-2
	c0.07-0.54,0.07-0.66,0.77-0.77c0.1-0.02,0.18-0.11,0.17-0.21c0-0.08,0-0.17-0.14-0.17h-2.85c-0.1,0-0.14,0.09-0.14,0.17
	c-0.01,0.1,0.07,0.19,0.17,0.21c0.74,0.11,0.8,0.24,0.84,0.77c0,0.25,0.05,0.8,0.05,2v1.55c0,1.25,0,1.71-0.05,2
	c0,0.53-0.15,0.67-0.89,0.78c-0.1,0.02-0.18,0.11-0.17,0.21c0,0.08,0,0.17,0.14,0.17h2.93c0.1,0,0.14-0.09,0.14-0.17
	c0.01-0.1-0.07-0.19-0.17-0.21c-0.7-0.11-0.73-0.24-0.8-0.78c-0.06-0.66-0.08-1.33-0.06-2v-0.62h4.32v0.67c0.02,0.67,0,1.33-0.06,2
	c0,0.53-0.14,0.67-0.89,0.78c-0.1,0.02-0.18,0.11-0.17,0.21c-0.01,0.08,0.06,0.16,0.14,0.17h2.94c0.08-0.01,0.15-0.09,0.14-0.17
	c0.01-0.1-0.07-0.19-0.17-0.21c-0.7-0.11-0.73-0.24-0.81-0.78c0-0.25-0.05-0.72-0.05-2L194.26,71.3z M201.09,68.59
	c1.81,0,2.81,1.57,2.81,3.56s-1,3.36-2.78,3.36s-2.75-1.6-2.75-3.53S199.3,68.59,201.09,68.59 M197.09,72.07
	c0.06,2.21,1.89,3.95,4.1,3.9c2.21-0.06,3.95-1.89,3.9-4.1c-0.05-2.17-1.83-3.9-4-3.9c-2.18-0.03-3.97,1.7-4,3.88
	C197.09,71.93,197.09,72,197.09,72.07 M209.09,71.3c-0.01-0.67,0.01-1.33,0.06-2c0.07-0.54,0.07-0.66,0.77-0.77
	c0.1-0.02,0.18-0.11,0.17-0.21c0-0.08,0-0.17-0.14-0.17h-2.77c-0.08,0.01-0.15,0.09-0.14,0.17c-0.01,0.1,0.07,0.19,0.17,0.21
	c0.75,0.11,0.8,0.24,0.84,0.77c0,0.25,0.05,0.8,0.05,2v1.55c0,1.25,0,1.71-0.05,2c0,0.53-0.15,0.67-0.89,0.78
	c-0.1,0.02-0.18,0.11-0.17,0.21c0,0.08,0,0.17,0.14,0.17h3c0.1,0,0.14-0.09,0.14-0.17c0.01-0.1-0.07-0.19-0.17-0.21
	c-0.7-0.11-0.84-0.24-0.91-0.78c-0.06-0.67-0.08-1.33-0.06-2L209.09,71.3z M209.31,72.03l2.81,3.67c0.38,0.4,0.94,0.6,1.49,0.52
	c0.35,0,0.65,0,0.65-0.17s0-0.12-0.25-0.19c-0.46-0.17-0.63-0.44-1.14-1.08l-2.46-3.1l2.09-2.28c0.37-0.43,0.85-0.74,1.39-0.89
	c0.09-0.02,0.16-0.1,0.16-0.2c0-0.1-0.09-0.19-0.2-0.18c0,0-0.01,0-0.01,0h-2.43c-0.09-0.01-0.17,0.05-0.18,0.14
	c0,0.01,0,0.02,0,0.03c-0.01,0.09,0.05,0.18,0.14,0.21c0.45,0.09,0.69,0.16,0.69,0.31c-0.01,0.09-0.05,0.17-0.12,0.23L209.31,72.03z
	 M219.09,68.59c1.8,0,2.81,1.57,2.81,3.56s-1,3.36-2.79,3.36s-2.74-1.6-2.74-3.53S217.3,68.59,219.09,68.59 M215.09,72.07
	c0.06,2.21,1.89,3.95,4.1,3.9c2.21-0.06,3.95-1.89,3.9-4.1c-0.05-2.17-1.83-3.9-4-3.9c-2.18-0.03-3.97,1.7-4,3.88
	C215.09,71.93,215.09,72,215.09,72.07"/>
<path class="st1" d="M68.34,26.13c-0.06,0.08-5.53,6.08-12.94,6.08h-0.94c-5.55-0.39-10.73-4.11-15.41-11.06
	C30.84,8.92,22.18,1.93,13.33,0.36C8.78-0.55,4.05,0.28,0.08,2.68l0,0c-0.09,0.07-0.11,0.19-0.04,0.28C0.11,3.05,0.23,3.07,0.32,3
	l0,0l0,0c0.1-0.07,5.56-3.5,23.35,18.6c7.67,9.53,15.86,14.42,24.34,14.53h0.29c11.93,0,20.27-9.65,20.35-9.75
	c0.06-0.09,0.04-0.22-0.05-0.28C68.52,26.06,68.42,26.06,68.34,26.13"/>
<path class="st1" d="M113.82,26.13c-0.06,0.08-5.53,6.08-12.94,6.08h-0.94c-5.55-0.39-10.73-4.11-15.41-11.06
	C76.32,8.96,67.67,1.97,58.81,0.4c-4.55-0.92-9.28-0.09-13.25,2.32l0,0C45.47,2.79,45.45,2.92,45.52,3
	c0.07,0.09,0.19,0.11,0.28,0.04c0,0,0,0,0,0l0,0c0.1-0.07,5.56-3.5,23.35,18.6c7.67,9.53,15.86,14.42,24.34,14.53h0.29
	c11.93,0,20.27-9.65,20.35-9.75c0.06-0.09,0.04-0.22-0.05-0.28c-0.08-0.05-0.18-0.04-0.25,0.02"/>
<path class="st1" d="M148.24,33.21c-0.07-0.07-0.19-0.08-0.27,0c0,0,0,0,0,0c-0.08,0-5.63,3.43-23.36-18.6
	c-7.67-9.52-15.86-14.41-24.34-14.52h-0.29c-11.93,0-20.26,9.65-20.35,9.75c-0.06,0.09-0.04,0.22,0.05,0.28
	c0.08,0.05,0.18,0.04,0.25-0.02c0.06-0.07,6-6.59,13.88-6c5.55,0.38,10.73,4.1,15.41,11.05c8.21,12.11,16.86,19.06,25.73,20.66
	c1.19,0.22,2.4,0.33,3.61,0.33c3.39,0.06,6.74-0.86,9.62-2.65l0,0c0.06-0.07,0.06-0.19,0-0.26"/>
<path class="st0" d="M164.18,18.65c0.94-0.08,1.82-0.08,2.89-0.08c2.57,0,5.23,0.13,5.8,3.23c0.12,0.51,0.58,0.87,1.11,0.84
	c0.47,0.05,0.88-0.29,0.93-0.76c0.01-0.06,0.01-0.11,0-0.17c0-1.33-0.26-2-0.26-4.25c0-2.75,0.26-4.08,0.26-5.06
	c0.06-0.43-0.24-0.82-0.67-0.88c-0.06-0.01-0.11-0.01-0.17,0c-0.58-0.04-1.09,0.36-1.2,0.93c-0.44,3.5-3.28,3.5-5.94,3.5
	c-0.92,0-1.84-0.04-2.75-0.13V4.6c0.72-0.29,1.49-0.42,2.27-0.4h3.41c4.21,0,6.11,1.69,7.09,5.1c0.12,0.46,0.53,0.78,1,0.8
	c0.37,0.02,0.68-0.27,0.7-0.64c0-0.02,0-0.05,0-0.07v-7c0-0.75-0.57-1-1.41-1h-23.21c-0.4,0-0.58,0.35-0.58,0.75
	c-0.02,0.46,0.27,0.87,0.71,1c2.44,0.35,3.06,0.84,3.24,3.1c0.09,1,0.22,3.5,0.22,8.69v6.25c0,5.19-0.13,7.22-0.22,8.29
	c-0.18,2.17-1,2.61-3.46,3c-0.44,0.08-0.75,0.48-0.71,0.93c0,0.44,0.22,0.84,0.67,0.84h15.91c0.44,0,0.66-0.4,0.66-0.84
	c0.06-0.43-0.23-0.84-0.66-0.93c-3.46-0.58-5.1-1-5.36-2.88c-0.23-2.79-0.31-5.58-0.23-8.38L164.18,18.65z M211.97,12.65l1.28,15.6
	c0.06,0.53,0.09,1.07,0.09,1.6c0,1.86-0.71,2.3-3,2.66c-0.44,0.08-0.75,0.48-0.71,0.93c0,0.44,0.22,0.84,0.67,0.84h13.2
	c0.45,0,0.67-0.4,0.67-0.84c0.03-0.43-0.25-0.82-0.67-0.93c-2.26-0.4-3-1-3.23-3.68l-2.22-21.06c0-0.53-0.13-1.24-0.13-1.77
	c-0.04-1.45,1.1-2.66,2.56-2.7c0.06,0,0.13,0,0.19,0c0.52,0.03,0.97-0.36,1-0.88c0-0.04,0-0.08,0-0.12
	c0.03-0.43-0.28-0.82-0.71-0.88h-7.18c-0.5-0.06-0.99,0.2-1.2,0.66l-9.93,23.54L190.82,2.08c-0.16-0.4-0.57-0.65-1-0.62h-7.31
	c-0.58,0-0.8,0.53-0.8,1c-0.01,0.51,0.4,0.93,0.91,0.93c0.03,0,0.06,0,0.09,0c1.54-0.07,2.85,1.12,2.92,2.67
	c0.01,0.11,0,0.22,0,0.33c0,0.13,0,0.26,0,0.79l-2.08,22c-0.23,2.22-1,3-3.51,3.33c-0.44,0.08-0.74,0.48-0.71,0.93
	c0,0.44,0.23,0.84,0.67,0.84h10.9c0.45,0,0.67-0.4,0.67-0.84s-0.22-0.89-0.67-0.93c-2.79-0.18-3.68-0.8-3.68-2.31
	c0-0.17,0.05-0.84,0.05-1l1-16.57l10.91,21.67c0.27,0.65,0.9,1.08,1.6,1.11c0.57,0,1.19-0.36,1.64-1.33L211.97,12.65z M244.97,1.44
	h-6.47c-0.38-0.03-0.71,0.25-0.75,0.63c0,0.01,0,0.02,0,0.03c0.02,0.28,0.09,0.55,0.22,0.8l1.37,3l-7.89,20.92
	c-1.9,5-3.59,5.32-5.54,5.68c-0.4,0.07-0.68,0.43-0.66,0.84c-0.01,0.51,0.4,0.93,0.91,0.93c0.03,0,0.06,0,0.09,0h9.8
	c0.45,0.04,0.84-0.28,0.89-0.73c0-0.04,0-0.08,0-0.11c0.03-0.43-0.25-0.82-0.67-0.93c-1.77-0.22-2.66-0.22-2.66-1.07
	c0.01-0.29,0.07-0.57,0.18-0.84l2.13-6.16h10.96l1.47,3.68c0.42,0.84,0.7,1.73,0.84,2.66c0,1.11-0.66,1.6-2.48,1.73
	c-0.43,0.09-0.73,0.49-0.67,0.93c0,0.44,0.22,0.84,0.58,0.84h13.61c0.44,0,0.66-0.4,0.66-0.84c0.04-0.45-0.27-0.85-0.71-0.93
	c-1.95-0.27-3.06-0.45-5.8-7.45L244.97,1.44z M241.07,9.55l4.7,12.14h-8.91L241.07,9.55z"/>
</svg>
