<svg xmlns="http://www.w3.org/2000/svg" width="98" height="58" fill="none"><path fill="#2F586B" d="M.547 55.868v-6.3h4.171v1.099H1.88v1.5h2.562v1.099H1.88v2.602H.547Zm5.086 0v-4.725h1.31v4.725h-1.31Zm.658-5.334a.712.712 0 0 1-.501-.193.628.628 0 0 1-.207-.471c0-.18.07-.335.207-.464a.706.706 0 0 1 .5-.197c.196 0 .362.065.5.197.139.129.208.284.208.464 0 .183-.07.34-.209.47a.701.701 0 0 1-.498.194Zm3.055 2.602v2.732h-1.31v-4.725h1.249v.834h.055c.105-.275.28-.492.526-.652.246-.162.544-.243.895-.243.328 0 .614.072.858.215.244.144.434.349.57.615.134.265.202.58.202.948v3.008h-1.31v-2.775c.002-.289-.072-.514-.222-.676-.15-.164-.355-.246-.618-.246a.94.94 0 0 0-.467.113.793.793 0 0 0-.314.333 1.151 1.151 0 0 0-.114.52Zm5.468 2.82c-.301 0-.57-.051-.806-.156a1.297 1.297 0 0 1-.56-.47c-.135-.21-.202-.47-.202-.782 0-.262.048-.483.144-.661a1.17 1.17 0 0 1 .394-.43 1.91 1.91 0 0 1 .566-.247c.213-.055.437-.094.67-.117.275-.028.497-.055.665-.08a.941.941 0 0 0 .366-.116.257.257 0 0 0 .114-.228v-.018c0-.195-.062-.346-.185-.453-.121-.106-.293-.16-.517-.16-.236 0-.423.053-.563.157a.722.722 0 0 0-.276.388l-1.212-.099c.061-.287.182-.535.363-.744a1.74 1.74 0 0 1 .698-.486c.287-.115.62-.172.996-.172.263 0 .514.03.754.092.242.062.456.157.643.286.188.13.337.295.446.498a1.5 1.5 0 0 1 .163.723v3.187h-1.243v-.656h-.037a1.334 1.334 0 0 1-.304.391 1.41 1.41 0 0 1-.459.262 1.895 1.895 0 0 1-.618.092Zm.376-.903c.192 0 .363-.038.51-.114a.904.904 0 0 0 .348-.314.809.809 0 0 0 .126-.446v-.501a.703.703 0 0 1-.17.074c-.07.02-.148.04-.236.058a11.623 11.623 0 0 1-.505.08 1.618 1.618 0 0 0-.403.108.645.645 0 0 0-.267.2.488.488 0 0 0-.095.307c0 .178.064.315.193.41a.846.846 0 0 0 .498.138Zm4.655-1.917v2.732h-1.31v-4.725h1.248v.834h.056c.104-.275.28-.492.526-.652.246-.162.544-.243.895-.243.328 0 .614.072.858.215.244.144.434.349.569.615.135.265.203.58.203.948v3.008h-1.31v-2.775c.002-.289-.072-.514-.222-.676-.15-.164-.356-.246-.618-.246a.94.94 0 0 0-.468.113.793.793 0 0 0-.313.333 1.15 1.15 0 0 0-.114.52ZM26.1 55.96c-.484 0-.9-.103-1.248-.308a2.079 2.079 0 0 1-.8-.86 2.784 2.784 0 0 1-.277-1.268c0-.484.094-.908.28-1.273.189-.367.456-.654.803-.858.346-.208.758-.311 1.236-.311.412 0 .773.075 1.083.224.31.15.555.36.735.63.18.272.28.59.298.954h-1.236a.955.955 0 0 0-.277-.569.792.792 0 0 0-.581-.218.878.878 0 0 0-.532.166c-.15.109-.267.268-.35.477-.085.209-.127.462-.127.76 0 .3.041.557.123.768.084.212.202.373.354.483.151.111.329.166.532.166.15 0 .284-.03.403-.092a.78.78 0 0 0 .298-.267c.08-.12.132-.262.157-.428h1.236c-.02.36-.119.679-.295.953a1.784 1.784 0 0 1-.723.64c-.307.154-.671.23-1.092.23Zm2.993-.092v-4.725h1.31v4.725h-1.31Zm.658-5.334a.712.712 0 0 1-.502-.193.628.628 0 0 1-.206-.471c0-.18.07-.335.207-.464a.706.706 0 0 1 .5-.197c.196 0 .362.065.5.197.139.129.208.284.208.464 0 .183-.07.34-.209.47a.701.701 0 0 1-.498.194Zm3.092 5.423c-.302 0-.57-.052-.806-.157a1.297 1.297 0 0 1-.56-.47c-.135-.21-.203-.47-.203-.782 0-.262.049-.483.145-.661a1.17 1.17 0 0 1 .394-.43 1.91 1.91 0 0 1 .566-.247c.213-.055.436-.094.67-.117.275-.028.496-.055.664-.08a.942.942 0 0 0 .366-.116.257.257 0 0 0 .114-.228v-.018c0-.195-.061-.346-.184-.453-.121-.106-.294-.16-.517-.16-.236 0-.423.053-.563.157a.722.722 0 0 0-.277.388l-1.212-.099c.062-.287.183-.535.363-.744.18-.211.414-.373.698-.486.288-.115.62-.172.997-.172.263 0 .514.03.754.092.242.062.456.157.642.286.19.13.338.295.446.498a1.5 1.5 0 0 1 .163.723v3.187h-1.242v-.656h-.037a1.334 1.334 0 0 1-.304.391c-.128.11-.28.198-.459.262a1.895 1.895 0 0 1-.618.092Zm.375-.904c.193 0 .363-.038.51-.114a.905.905 0 0 0 .348-.314.809.809 0 0 0 .126-.446v-.501a.702.702 0 0 1-.169.074c-.07.02-.148.04-.237.058a11.52 11.52 0 0 1-.504.08 1.618 1.618 0 0 0-.403.108.645.645 0 0 0-.268.2.487.487 0 0 0-.095.307c0 .178.065.315.194.41a.846.846 0 0 0 .498.138Zm4.656-5.484v6.299h-1.31v-6.3h1.31Zm6.582 1.811a.779.779 0 0 0-.317-.578c-.186-.138-.44-.206-.76-.206-.217 0-.4.03-.55.092a.775.775 0 0 0-.344.25.6.6 0 0 0-.117.362.518.518 0 0 0 .07.296.74.74 0 0 0 .219.218c.092.06.199.112.32.157.12.043.25.08.387.11l.566.136c.275.061.527.143.757.246.23.102.428.228.596.378.169.15.299.326.391.53.095.202.143.435.145.697-.002.386-.1.72-.296 1.003-.192.281-.471.5-.836.655-.363.154-.8.23-1.313.23-.509 0-.952-.077-1.33-.233a1.946 1.946 0 0 1-.879-.692c-.21-.307-.319-.688-.329-1.141h1.289a.968.968 0 0 0 .181.529c.109.14.253.245.434.317.182.07.388.104.618.104.226 0 .422-.032.588-.098a.902.902 0 0 0 .39-.274.632.632 0 0 0 .139-.403.523.523 0 0 0-.127-.356.956.956 0 0 0-.362-.247 3.702 3.702 0 0 0-.582-.184l-.686-.172c-.53-.13-.95-.331-1.258-.606-.307-.275-.46-.645-.458-1.11a1.65 1.65 0 0 1 .305-1c.207-.285.49-.508.852-.668.36-.16.77-.24 1.23-.24.467 0 .875.08 1.224.24.35.16.623.383.818.668.195.285.295.615.302.99h-1.277Zm4.43 4.58c-.486 0-.904-.099-1.255-.295a2.022 2.022 0 0 1-.806-.843c-.188-.365-.283-.797-.283-1.295 0-.486.095-.912.283-1.28.19-.367.455-.653.797-.858.345-.205.748-.307 1.212-.307.312 0 .602.05.87.15.271.099.507.248.708.447.203.198.36.449.474.75.112.3.169.65.169 1.052v.36h-3.99v-.812h2.756c0-.189-.04-.356-.123-.502a.88.88 0 0 0-.341-.341.973.973 0 0 0-.502-.126c-.198 0-.375.046-.529.138a.97.97 0 0 0-.356.366c-.087.152-.13.321-.133.508v.772c0 .234.043.436.13.606.088.17.212.301.372.393.16.093.35.139.569.139.145 0 .279-.02.4-.062a.802.802 0 0 0 .508-.486l1.21.08a1.654 1.654 0 0 1-.377.763 1.9 1.9 0 0 1-.732.505 2.76 2.76 0 0 1-1.03.178Zm3.067-.092v-4.725h1.27v.825h.05c.086-.294.23-.515.433-.665a1.14 1.14 0 0 1 .701-.227 1.984 1.984 0 0 1 .413.046v1.162a2.303 2.303 0 0 0-.554-.07c-.193 0-.365.042-.517.126a.928.928 0 0 0-.486.855v2.673h-1.31Zm8.136-4.725-1.652 4.725H56.96l-1.652-4.725h1.384l.981 3.38h.05l.977-3.38h1.388Zm.713 4.725v-4.725h1.31v4.725h-1.31Zm.659-5.334a.712.712 0 0 1-.502-.193.629.629 0 0 1-.206-.471c0-.18.069-.335.206-.464a.706.706 0 0 1 .502-.197c.194 0 .36.065.498.197a.624.624 0 0 1 0 .935.701.701 0 0 1-.498.193Zm3.88 5.426c-.485 0-.901-.103-1.25-.308a2.079 2.079 0 0 1-.8-.86 2.784 2.784 0 0 1-.276-1.268c0-.484.093-.908.28-1.273a2.08 2.08 0 0 1 .802-.858c.347-.208.76-.311 1.237-.311.412 0 .773.075 1.083.224.31.15.554.36.735.63.18.272.28.59.298.954h-1.236a.955.955 0 0 0-.277-.569.792.792 0 0 0-.581-.218.878.878 0 0 0-.533.166c-.15.109-.266.268-.35.477-.084.209-.126.462-.126.76 0 .3.04.557.123.768.084.212.202.373.353.483.152.111.33.166.533.166.15 0 .284-.03.402-.092a.78.78 0 0 0 .299-.267c.08-.12.132-.262.157-.428h1.236c-.02.36-.119.679-.295.953a1.784 1.784 0 0 1-.723.64c-.308.154-.672.23-1.092.23Zm5.144 0c-.486 0-.904-.099-1.255-.295a2.022 2.022 0 0 1-.805-.843c-.19-.365-.283-.797-.283-1.295 0-.486.094-.912.283-1.28a2.09 2.09 0 0 1 .796-.858c.345-.205.749-.307 1.212-.307.312 0 .602.05.87.15.271.099.507.248.708.447.203.198.36.449.474.75.112.3.169.65.169 1.052v.36h-3.99v-.812h2.756c0-.189-.04-.356-.123-.502a.88.88 0 0 0-.341-.341.974.974 0 0 0-.502-.126c-.198 0-.375.046-.528.138a.971.971 0 0 0-.357.366c-.086.152-.13.321-.133.508v.772c0 .234.043.436.13.606.088.17.212.301.372.393.16.093.35.139.569.139.145 0 .279-.02.4-.062a.801.801 0 0 0 .507-.486l1.212.08a1.654 1.654 0 0 1-.378.763 1.9 1.9 0 0 1-.732.505 2.76 2.76 0 0 1-1.03.178Zm6.998-3.47-1.2.074a.62.62 0 0 0-.132-.276.702.702 0 0 0-.267-.2.909.909 0 0 0-.391-.077.96.96 0 0 0-.514.129c-.14.084-.209.197-.209.338 0 .113.045.208.135.286.09.078.245.14.465.188l.855.172c.46.094.802.246 1.027.455.226.21.339.484.339.825 0 .31-.092.58-.274.815-.18.233-.429.416-.745.547-.313.13-.675.194-1.085.194-.626 0-1.124-.13-1.495-.39a1.522 1.522 0 0 1-.65-1.071l1.29-.068c.039.191.133.337.283.437.15.099.341.148.575.148.23 0 .414-.044.553-.133.142-.09.214-.206.216-.347a.362.362 0 0 0-.151-.292c-.098-.078-.25-.138-.455-.179l-.818-.163c-.462-.092-.805-.252-1.03-.48-.224-.227-.336-.517-.336-.87 0-.303.082-.565.246-.784.166-.22.399-.389.698-.508a2.874 2.874 0 0 1 1.058-.178c.597 0 1.067.126 1.409.378.345.252.545.596.603 1.03Zm6.94-2.921h1.331v4.09c0 .46-.11.861-.33 1.206a2.2 2.2 0 0 1-.913.806c-.391.19-.847.286-1.368.286-.523 0-.98-.096-1.372-.286a2.201 2.201 0 0 1-.914-.806c-.217-.345-.326-.746-.326-1.206v-4.09h1.332v3.976c0 .24.052.454.157.64.107.187.256.334.45.44.192.107.416.16.673.16.258 0 .483-.053.673-.16.193-.106.342-.253.446-.44.107-.186.16-.4.16-.64V49.57Zm3.756 3.567v2.732h-1.31v-4.725h1.248v.834h.056c.104-.275.28-.492.525-.652.247-.162.545-.243.896-.243.328 0 .614.072.858.215.244.144.433.349.569.615.135.265.203.58.203.948v3.008h-1.31v-2.775c.001-.289-.072-.514-.222-.676-.15-.164-.356-.246-.618-.246a.94.94 0 0 0-.468.113.794.794 0 0 0-.313.333 1.152 1.152 0 0 0-.114.52Zm4.12 2.732v-4.725h1.311v4.725H92.3Zm.659-5.334a.712.712 0 0 1-.501-.193.628.628 0 0 1-.206-.471c0-.18.068-.335.206-.464a.706.706 0 0 1 .5-.197c.196 0 .362.065.5.197.139.129.208.284.208.464 0 .183-.07.34-.209.47a.701.701 0 0 1-.498.194Zm4.258.61v.984H94.37v-.985h2.845Zm-2.2-1.133h1.31v4.405c0 .12.02.215.056.283a.306.306 0 0 0 .154.138c.068.027.146.04.234.04.061 0 .123-.005.184-.015l.142-.028.206.975c-.066.02-.158.044-.277.071a2.222 2.222 0 0 1-.434.052 1.992 1.992 0 0 1-.83-.126 1.159 1.159 0 0 1-.55-.449c-.132-.203-.197-.46-.194-.769v-4.577Z"/><g fill="#6EB7D9" clip-path="url(#a)"><path d="M66.034.524h10.968V2.24c0 8.99 0 17.976.006 26.964 0 .906.124 1.782.51 2.625.656 1.439 1.769 2.254 3.325 2.394.882.08 1.791.06 2.67-.052 1.78-.233 3.124-1.623 3.378-3.47.135-.989.201-1.996.204-2.996.016-8.1.008-16.198.008-24.298 0-.876.011-1.754.02-2.63 0-.077.013-.154.021-.25h10.85V2.38c0 8.43-.005 16.86.003 25.29 0 2.026-.223 4.025-.71 5.985-.472 1.892-1.268 3.652-2.533 5.173-1.212 1.457-2.711 2.531-4.441 3.305-1.827.819-3.753 1.211-5.728 1.436a23.17 23.17 0 0 1-7.552-.368c-2.706-.579-5.174-1.677-7.125-3.72-1.356-1.42-2.29-3.083-2.87-4.953-.602-1.938-.94-3.926-.951-5.947-.045-8.676-.042-17.352-.053-26.03V.519v.005ZM60.45 10.342l-8.823 3.188c-.044-.11-.085-.222-.132-.33-.9-2.092-2.303-3.632-4.64-4.107-1.468-.3-2.937-.316-4.375.165-1.124.373-1.846 1.153-2.039 2.317-.212 1.282.105 2.424 1.27 3.158.634.398 1.31.765 2.014 1.01 1.626.568 3.282 1.06 4.927 1.576 2.182.684 4.356 1.392 6.361 2.515 2.11 1.18 3.82 2.748 4.77 5.013.526 1.258.843 2.564.87 3.94.033 1.628.133 3.259-.215 4.868-.542 2.526-1.678 4.73-3.645 6.466-1.347 1.189-2.898 2.015-4.6 2.58-2.307.764-4.685 1.06-7.104.994-2.03-.054-4.03-.334-5.984-.93-3.13-.953-5.802-2.556-7.756-5.228-.92-1.26-1.54-2.652-1.934-4.154-.052-.2-.014-.28.188-.346 1.104-.365 2.21-.738 3.308-1.12a627.922 627.922 0 0 0 4.979-1.749c.248-.088.364-.063.49.203.538 1.131 1.23 2.164 2.232 2.949a6.722 6.722 0 0 0 3.642 1.441c1.345.116 2.673.13 3.943-.447 1.35-.61 2.105-1.593 2.113-3.1.009-1.334-.407-2.446-1.647-3.113-.623-.335-1.243-.7-1.907-.926-1.598-.546-3.218-1.03-4.838-1.518-2.794-.843-5.508-1.845-7.816-3.698-1.84-1.477-3.094-3.341-3.67-5.626-.634-2.512-.628-5.038.066-7.53.826-2.972 2.62-5.234 5.34-6.73C38.148.799 40.64.132 43.281.052c1.72-.052 3.45-.132 5.144.192 5.26 1.01 9.345 3.594 11.492 8.693.19.45.344.911.531 1.408v-.003ZM11.157 28.12v.563l.002 14.082c0 .467 0 .472-.457.472-3.414.006-6.83.008-10.244.011-.044 0-.088-.014-.157-.027V.527h24.852c.011.06.036.124.036.187.008 2.767.019 5.535.022 8.305 0 .445-.014.44-.463.44-4.411 0-8.822.002-13.233-.003-.29 0-.367.09-.367.37.009 2.974.009 5.947.006 8.92 0 .259.063.347.35.347 4.204-.009 8.411-.003 12.616 0 .044 0 .088.01.165.019.008.126.02.247.02.368.008 2.778.01 5.56.03 8.338 0 .319-.163.31-.386.31h-12.79l-.002-.008Z"/></g><defs><clipPath id="a"><path fill="#fff" d="M.302 0H98v43.723H.302z"/></clipPath></defs></svg>