<?xml version="1.0" encoding="utf-8"?>
<!-- Generator: Adobe Illustrator 24.0.1, SVG Export Plug-In . SVG Version: 6.00 Build 0)  -->
<svg version="1.1" id="Layer_1" xmlns="http://www.w3.org/2000/svg" xmlns:xlink="http://www.w3.org/1999/xlink" x="0px" y="0px"
	 viewBox="0 0 557.5 139.1" style="enable-background:new 0 0 557.5 139.1;" xml:space="preserve">
<style type="text/css">
	.st0{fill:#C32032;}
	.st1{fill:#232C67;}
	.st2{fill:#FFFFFF;}
	.st3{fill:#235E39;}
	.st4{fill:#FFD200;}
	.st5{fill:#7B863A;}
	.st6{fill:#6D3B5D;}
	.st7{fill:#37657F;}
</style>
<g>
	<g>
		<g>
			<path class="st0" d="M236.4,51.1c0-0.5,0-1,0-1.5c0-27.3-22.2-49.5-49.5-49.5s-49.5,22.2-49.5,49.5c0,0.5,0,1,0,1.5l49.5,20.1
				L236.4,51.1z"/>
			<path class="st1" d="M186.9,74.2l-0.5-0.2l-48.8-19.8c2.3,25.2,23.5,45,49.3,45s47-19.7,49.3-45L186.9,74.2z"/>
		</g>
		<g>
			<path class="st2" d="M163,77.8c0-0.2,0.1-0.3,0.3-0.3h4.1c3.2,0,5.8,2.6,5.8,5.8c0,3.2-2.6,5.8-5.8,5.8h-4.1
				c-0.2,0-0.3-0.1-0.3-0.3V77.8z M167.2,86.7c1.9,0,3.2-1.5,3.2-3.4c0-1.9-1.4-3.4-3.2-3.4h-1.6v6.7H167.2z"/>
			<path class="st2" d="M181.4,77.4c3.3,0,6,2.7,6,6s-2.7,6-6,6c-3.3,0-6-2.6-6-6S178.1,77.4,181.4,77.4z M181.4,86.7
				c1.8,0,3.3-1.5,3.3-3.3c0-1.8-1.5-3.3-3.3-3.3c-1.8,0-3.3,1.5-3.3,3.3C178.1,85.2,179.6,86.7,181.4,86.7z"/>
			<path class="st2" d="M190.4,77.8c0-0.2,0.1-0.3,0.3-0.3h5c2,0,3.6,1.6,3.6,3.6c0,1.5-1,2.8-2.5,3.3l2.3,4.2
				c0.1,0.2,0,0.5-0.3,0.5h-2.2c-0.1,0-0.2-0.1-0.3-0.1l-2.2-4.4H193v4.2c0,0.2-0.1,0.3-0.3,0.3h-2c-0.2,0-0.3-0.1-0.3-0.3V77.8z
				 M195.5,82.5c0.7,0,1.3-0.6,1.3-1.3s-0.6-1.3-1.3-1.3H193v2.6H195.5z"/>
			<path class="st2" d="M201.1,88.8l5.2-11.2c0-0.1,0.2-0.2,0.3-0.2h0.2c0.1,0,0.2,0.1,0.3,0.2l5.2,11.2c0.1,0.2,0,0.4-0.3,0.4h-1.8
				c-0.3,0-0.4-0.1-0.6-0.4l-0.6-1.3h-4.5l-0.6,1.3c-0.1,0.2-0.3,0.4-0.6,0.4h-1.8C201.1,89.2,201,89,201.1,88.8z M207.9,85.2
				l-1.3-2.7h0l-1.2,2.7H207.9z"/>
		</g>
	</g>
	<g>
		<path class="st2" d="M193.7,55.9c-0.1-0.8-0.5-1.7-0.8-2.6c-0.3-0.6-0.6-1.6-0.6-1.8c0.1-0.7,0-1.9-0.3-3c0.9,0,1.8-0.1,2.4-0.3
			c0.8-0.3,1.4-0.9,1.8-1.8c0.4-1,0.3-2-0.2-2.8c-0.7-1.1-2.2-3.7-2.5-4.8c-0.3-1-1.3-1.5-2.1-1.8c0.3-0.6,0.4-1.5,0-2.5
			c-0.1-0.2,0-0.3,0.1-0.6c0.1-0.2,0.1-0.4,0.1-0.7c0-0.4-0.2-1.6-0.6-2.7c0-0.4-0.1-1.5-0.7-2.3c-0.7-1-2-2.2-3.3-2.4
			c-1-0.1-1.4,0-1.7,0.2c-0.2,0-0.6,0.1-0.9,0.2c-1.4,0.6-2.3,1.7-2.6,3.2c-0.1,0.8-0.4,1.4-0.6,1.8c-0.2,0.5-0.4,1.1-0.4,1.7
			c0,0.5,0.1,1,0.1,1.3c0,0.2,0.1,0.5,0,0.6c-0.1,0.1-0.2,0.3,0,0.3c-0.1,0-0.1,0-0.2,0c-0.8-0.1-1.7,0.1-2.2,0.7
			c-0.6,0.2-1.4,0.8-1.5,1.9c-0.1,0.8,0.2,2.4,0.4,4c0.1,0.4,0.1,0.7,0.1,0.8c0,0,0.3,3.9,1.4,4.7c0.3,0.2,0.7,0.5,0.9,0.7
			c0,0.6,0,1.5,0.1,2.1c0,0.2,0.1,1,0,1.2c-0.2,0.5-1.2,4.2-1.2,5.4c0,0.1,0,0.3,0.1,0.4c0.1,0.1,0.2,0.2,0.3,0.3c0,1,0,2.9,0.5,4.8
			l2.1,0.7c-1-2.9-0.7-6.2-0.7-6.2c0-0.3-0.1-0.6-0.3-0.8c0,0,0,0,0,0c0.2-1.3,0.8-3.6,0.9-4c0.3-0.6,0.2-1.2,0.1-2.1
			c-0.1-0.6-0.1-1.9-0.1-2.3c0-0.3-0.1-0.5-0.3-0.7c0,0-0.7-0.6-1.2-0.9c-0.3-0.4-0.7-2.9-0.8-3.5c0-0.1-0.1-0.5-0.1-1
			c-0.2-1-0.5-2.9-0.4-3.6c0-0.2,0.1-0.4,0.4-0.4c0.3,0,0.5-0.2,0.7-0.4c0.1-0.1,0.4-0.1,0.7-0.1c0.2,0,0.3,0,0.5,0
			c1-0.1,1.4-1,1.6-1.6c0.2-0.4,0.1-0.9,0.1-1.4c0-0.3-0.1-0.7-0.1-1.1c0-0.3,0.1-0.6,0.3-1.1c0.2-0.5,0.5-1.2,0.6-2.2
			c0.2-1.1,0.9-1.7,1.5-1.9c0.1-0.1,0.3-0.1,0.4-0.1c0.1,0,0.2,0,0.3,0c0.1,0,0.5-0.1,0.6-0.2c0.1,0,0.2,0,0.4,0
			c0.6,0.1,1.5,0.8,2.1,1.6c0.4,0.5,0.4,1.3,0.4,1.5c0,0.1,0,0.2,0.1,0.3c0.4,0.9,0.5,2,0.5,2.4c-0.1,0.4-0.3,0.9-0.1,1.7
			c0.4,1.1-0.3,1.8-0.4,1.8c-0.3,0.2-0.4,0.6-0.3,1c0.1,0.3,0.4,0.6,0.8,0.6c0.7,0.1,1.8,0.4,1.9,0.8c0.4,1.4,2.1,4.2,2.7,5.2
			c0.2,0.3,0.2,0.8,0,1.2c-0.1,0.4-0.4,0.7-0.7,0.8c-0.8,0.3-2.9,0.1-2.9,0.1c-0.3-0.1-0.7,0.1-0.9,0.4c-0.2,0.3-0.2,0.6-0.1,0.9
			c0.3,0.7,0.6,2.6,0.5,3.3c-0.1,0.6,0.2,1.5,0.7,2.7c0.3,0.8,0.7,1.6,0.7,2.2c0.2,1.2-0.7,5.3-1.1,6.7c-0.1,0.4-0.2,1-0.2,1.6
			l1.9-0.7c0-0.2,0.1-0.3,0.1-0.5C192.7,62.7,193.9,57.7,193.7,55.9z"/>
		<path class="st2" d="M213.8,44.6c0-1.2-0.1-3.4-0.8-4.2c-0.7-0.8-4.3-2.4-4.8-2.6c-0.9-0.4-0.9-1.2-0.5-2c0.4-0.8,1.6-3.8,0.2-5.9
			c-1.4-2.1-3.7-1.5-4.9-0.5c-1.1,1-0.8,4.3-0.4,5.6c0.3,1.3,1.2,2.6,1.3,3.5c0.1,1.2-2.2,2.5-3.5,3.5c-1.3,1-1.4,1.7-1.1,6.9
			s-0.6,6.6-0.6,6.6c-1.1,2.4-1.6,6.1-1.4,6.7l15.5-5.6c0.1-0.3,0.3-0.7,0.4-1C214.1,53.3,213.8,45.8,213.8,44.6z"/>
		<path class="st2" d="M172.4,52.5c0.5-0.1,2.9,0.4,3.2-1c0.3-1.4,0.1-3.1-0.4-4.5c-0.5-1.4-0.5-2.5-0.5-3.4c0-0.9-0.3-1.9-1.1-2.4
			c-0.8-0.4-1.9-0.5-3.7-1.3c-1.7-0.9-1.7-1.8-1.5-2.8c0.2-0.9,1.2-2.9,1.2-4.1c0-1.2-0.3-3.7-2.6-4.3c-2.3-0.6-4,1.4-4.1,3
			c-0.1,1.6,0.4,3.5,0.8,4.4c0.3,0.9,0,2-0.1,2.5c-0.1,0.4-1,1.3-2,1.4c-0.6,0.1-3.4,0.6-3.5,3.2c0,0,0.2,4.3,0.5,6
			c0.3,1.6,1.2,3.2,1.1,4.1c0,0.2-0.1,1-0.2,2l13.4,4.8C172.7,57.9,172,52.6,172.4,52.5z"/>
		<path class="st2" d="M216.3,29.7c-0.4,0-0.9-0.2-1.1-0.6C208.4,19.6,197.5,14,186,14c-11.5,0-22.4,5.6-29.1,15.1
			c-0.4,0.6-1.3,0.8-1.9,0.3c-0.6-0.4-0.8-1.3-0.3-1.9c7.2-10.2,19-16.3,31.4-16.3c12.4,0,24.2,6.1,31.4,16.3
			c0.4,0.6,0.3,1.5-0.3,1.9C216.8,29.6,216.6,29.7,216.3,29.7z"/>
	</g>
</g>
<g>
	<g>
		<path class="st3" d="M43.5,80.6c-1.5-1.9-2.9-3.9-4.1-6c-0.1-0.1-0.2-0.2-0.2-0.3c-0.9-1.7-1.8-3.3-2.5-5.1
			c-0.2-0.5-0.4-1-0.6-1.6c-2.6-6.6-3.7-13.5-3.4-20.6c0.4-7.8,2.6-15,6.4-21.8c0-0.1,0.1-0.2,0.1-0.3c1.1-1.7,2.1-3.4,3.3-5
			c-0.6-1-1.1-2-1.8-3.2c-3.9-7-5.9-10.3-9.8-16.8c-3.9,6.6-5.9,10-9.8,17.1c-3.9,6.9-5.9,10.4-9.7,17.8c3.2-0.8,4.8-1.2,8-1.6
			c-0.8,2-1.2,3-2,5.1c-4.7,9.2-9.1,18.7-13.3,28.1c3.3-1.2,4.9-1.7,8.3-2.5C8,74.1,4,84.3,0,94.6c21.7-7.5,39.4-7.6,61.1-0.2
			c-4.5-2.1-8.6-4.9-12.5-8.4C46.7,84.4,45,82.6,43.5,80.6z"/>
		<path class="st4" d="M82.2,25.7c-7.2,0-13.9,3.2-18.5,8.7l-0.1,0.1c-3.5,4.3-5.5,9.7-5.5,15.3c0,0.2,0,0.5,0,0.7l14.6-12.7l10,8.7
			l10-8.7l13.7,11.9c0-3.2-0.6-6.2-1.9-9.1C100.7,31.5,92,25.7,82.2,25.7z"/>
		<path class="st0" d="M39,25.3c-3.8,6.7-6,14-6.4,21.8c-0.3,7.1,0.8,14,3.4,20.6c0.2,0.5,0.4,1.1,0.6,1.6l18.9-16.5
			c0-0.3-0.1-0.7-0.1-1c0-0.6-0.1-1.2-0.1-1.9c0-6.2,2.2-12.3,6.1-17.1l0.1-0.1c5.1-6.1,12.6-9.6,20.6-9.6
			c10.9,0,20.6,6.5,24.8,16.5c0,0,0,0,0,0c6.7-2.7,13.3-5.4,20-8.1c0.4-0.2,0.6-0.3,0.3-0.8c-0.8-1.9-1.8-3.8-2.7-5.6
			c-0.1-0.2-0.2-0.3-0.3-0.4c-9-14.5-22-22.5-39-24.1c-4.9-0.4-9.7,0-14.5,1.1c-11.3,2.7-20.6,8.5-27.8,17.6
			c-0.2,0.3-0.4,0.5-0.6,0.8c-1.2,1.6-2.3,3.3-3.3,5C39.1,25.1,39,25.2,39,25.3z"/>
		<path class="st5" d="M72.7,37.7L58.1,50.5c0,0.4,0,0.7,0.1,1c0.3,3.8,1.4,7.5,3.4,10.7c0.4,0.7,0.8,1.2,1.1,1.6l20-17.5L72.7,37.7
			z"/>
		<path class="st6" d="M59.2,63.8c-2-3.4-3.3-7.2-3.7-11L36.6,69.3c0.8,1.7,1.6,3.4,2.5,5.1c0.1,0.1,0.2,0.2,0.2,0.3
			c1.2,2.1,2.6,4.1,4.1,6l0.7-0.6l16.4-14.3c0,0-0.1-0.1-0.1-0.1C60.1,65.1,59.7,64.5,59.2,63.8z"/>
		<path class="st1" d="M126.8,67.8c-6.5-2.7-13.1-5.3-19.6-7.9c0,0,0,0,0,0c-0.7,1.8-1.7,3.6-2.8,5.2c-5,7.3-13.3,11.6-22.1,11.6
			c-8.5,0-16.6-4.1-21.7-11L44.2,80l-0.7,0.6c1.5,1.9,3.2,3.7,5.1,5.4c3.9,3.5,8.1,6.3,12.5,8.4c6,2.8,12.5,4.3,19.5,4.6
			c5.1,0.2,10.1-0.5,15-1.9c9.6-2.8,17.6-8.1,24.1-15.7c0.4-0.5,0.8-1,1.3-1.5c1.3-1.7,2.5-3.6,3.7-5.5c1-1.7,1.9-3.5,2.6-5.3
			c0.1-0.2,0.1-0.3,0.2-0.4l0.1-0.2l-0.1-0.2C127.3,68,127.1,68,126.8,67.8z"/>
		<path class="st7" d="M82.7,46.4l19.2,16.7l0.3,0.2c1-1.4,1.8-3,2.4-4.5c1.2-2.9,1.8-5.9,1.8-9c0-0.1,0-0.1,0-0.2L92.7,37.7
			L82.7,46.4z"/>
		<path class="st1" d="M82.7,46.4l-20,17.5c0,0,0,0.1,0.1,0.1c4.5,6.2,11.8,9.9,19.5,9.9c7.9,0,15.3-3.9,19.8-10.4
			c0,0,0.1-0.1,0.1-0.1l-0.3-0.2L82.7,46.4z"/>
	</g>
	<g>
		<path d="M111.4,93.9h-1.1c-0.1,0-0.1-0.1-0.1-0.1v-0.6c0-0.1,0.1-0.1,0.1-0.1h3c0.1,0,0.1,0.1,0.1,0.1v0.6c0,0.1-0.1,0.1-0.1,0.1
			h-1.1v3.9c0,0.1-0.1,0.1-0.1,0.1h-0.6c-0.1,0-0.1-0.1-0.1-0.1V93.9z"/>
		<path d="M115.3,93.1c0-0.1,0-0.1,0.1-0.1h0.1c0.1,0,0.1,0,0.1,0.1l1.5,3.3h0l1.5-3.3c0,0,0.1-0.1,0.1-0.1h0.1c0.1,0,0.1,0,0.1,0.1
			l0.8,4.7c0,0.1,0,0.2-0.1,0.2h-0.6c-0.1,0-0.1-0.1-0.1-0.1l-0.4-2.6h0l-1.2,2.7c0,0-0.1,0.1-0.1,0.1h-0.1c-0.1,0-0.1,0-0.1-0.1
			l-1.2-2.7h0l-0.4,2.6c0,0-0.1,0.1-0.1,0.1h-0.6c-0.1,0-0.1-0.1-0.1-0.2L115.3,93.1z"/>
	</g>
</g>
<rect x="252.2" y="0.2" width="1.3" height="138.6"/>
<g>
	<path d="M284.1,6c1.9,0,3.9,0.7,5.4,2c0.3,0.3,0.7,0.3,1,0l3.1-3.2c0.3-0.3,0.3-0.8,0-1.1c-2.7-2.5-5.6-3.7-9.6-3.7
		c-8,0-14.4,6.4-14.4,14.4c0,8,6.4,14.3,14.4,14.3c3.5,0,7-1.2,9.7-3.9c0.3-0.3,0.3-0.8,0-1.1l-3.1-3.3c-0.2-0.3-0.8-0.3-1,0
		c-1.4,1.2-3.5,1.9-5.3,1.9c-4.5,0-7.8-3.7-7.8-8.1C276.3,9.7,279.6,6,284.1,6"/>
	<path d="M319.2,0c-8,0-14.3,6.4-14.3,14.4c0,8,6.3,14.3,14.3,14.3c8,0,14.3-6.3,14.3-14.3C333.6,6.4,327.2,0,319.2,0 M319.2,22.3
		c-4.3,0-7.9-3.6-7.9-7.9c0-4.4,3.6-8,7.9-8c4.4,0,8,3.6,8,8C327.2,18.7,323.6,22.3,319.2,22.3"/>
	<path d="M362.7,22.4h-9.6V1.2c0-0.4-0.4-0.8-0.8-0.8h-4.7c-0.4,0-0.8,0.4-0.8,0.8v26.3c0,0.4,0.3,0.8,0.8,0.8h15.1
		c0.4,0,0.8-0.4,0.8-0.8v-4.3C363.4,22.7,363.1,22.4,362.7,22.4"/>
	<path d="M388.6,0c-8,0-14.3,6.4-14.3,14.4c0,8,6.3,14.3,14.3,14.3c8,0,14.3-6.3,14.3-14.3C403,6.4,396.6,0,388.6,0 M388.6,22.3
		c-4.3,0-7.9-3.6-7.9-7.9c0-4.4,3.6-8,7.9-8c4.4,0,8,3.6,8,8C396.6,18.7,393,22.3,388.6,22.3"/>
	<path d="M432.5,17c3.5-1.4,5.9-4.3,5.9-8c0-4.7-3.9-8.6-8.7-8.6h-11.9c-0.4,0-0.8,0.4-0.8,0.8v26.3c0,0.4,0.3,0.8,0.8,0.8h4.7
		c0.4,0,0.8-0.4,0.8-0.8V17.3h2.7l5.7,10.5c0.1,0.2,0.3,0.4,0.6,0.4h5.3c0.7,0,1-0.6,0.7-1.1L432.5,17z M429.2,12.3h-5.9V6.1h5.9
		c1.6,0,3,1.4,3,3C432.2,10.8,430.8,12.3,429.2,12.3"/>
	<path d="M502.5,0.4h-9.7c-0.4,0-0.7,0.4-0.7,0.8v26.3c0,0.4,0.3,0.8,0.7,0.8h9.7c7.7,0,14-6.2,14-14C516.5,6.6,510.2,0.4,502.5,0.4
		 M502.1,22.3h-3.8V6.2h3.8c4.5,0,7.8,3.5,7.8,8C509.9,18.8,506.6,22.3,502.1,22.3"/>
	<path d="M543.2,0c-8,0-14.3,6.4-14.3,14.4c0,8,6.3,14.3,14.3,14.3c7.9,0,14.3-6.3,14.3-14.3C557.5,6.4,551.1,0,543.2,0 M543.2,22.3
		c-4.3,0-7.9-3.6-7.9-7.9c0-4.4,3.6-8,7.9-8c4.4,0,7.9,3.6,7.9,8C551.1,18.7,547.6,22.3,543.2,22.3"/>
	<path d="M465.8,0.4c-0.1-0.2-0.4-0.4-0.7-0.4h-0.4c-0.3,0-0.6,0.2-0.7,0.4l-12.4,26.8c-0.2,0.5,0.1,1,0.7,1h4.4
		c0.8,0,1.2-0.2,1.4-1l1.4-3.2h10.8l1.4,3.1c0.4,0.9,0.6,1,1.4,1h4.4c0.6,0,0.9-0.5,0.7-1L465.8,0.4z M461.3,19.4l3.6-8.3l3.7,8.3
		H461.3z"/>
</g>
<g>
	<path d="M269.5,70.1v-2.6h2.3V53.6h-2.3v-2.7h8.3c1.6,0,3,0.2,4,0.5c3.8,1.1,6.2,4.5,6.2,9.1c0,4.5-2.2,7.8-5.9,9
		c-1.1,0.4-2.5,0.6-4.2,0.6H269.5z M275.3,67.3h2.3c1.3,0,2.3-0.2,3.1-0.5c2.2-0.9,3.6-3.2,3.6-6.3c0-3.2-1.4-5.4-3.7-6.3
		c-0.7-0.3-1.7-0.4-3-0.4h-2.3V67.3z"/>
	<path d="M291.9,58c1.3-1.3,3-2,5-2c1.9,0,3.4,0.6,4.5,1.9c1.1,1.2,1.6,2.8,1.6,4.7l-0.1,1.2h-9.5c0.2,2.5,1.9,3.8,4.1,3.8
		c1.3,0,2.8-0.6,3.5-1.1l0.5-0.4l1.3,2.4l-0.7,0.5c-0.3,0.2-0.9,0.5-1.9,0.9c-0.9,0.4-1.9,0.5-3,0.5c-2.2,0-4-0.7-5.4-2.1
		c-1.3-1.4-2-3.1-2-5.1C289.9,61.1,290.6,59.4,291.9,58z M299.5,61.7c0-1.8-1.2-3-2.7-3c-1.7,0-3,1.2-3.3,3H299.5z"/>
	<path d="M304.7,72.9h2V59.5c0-0.4-0.2-0.6-0.6-0.6h-1.5v-2.6h3.5c1.1,0,1.7,0.4,1.7,1.3v0.1l0,0.6h0.1c0.1-0.1,0.1-0.3,0.6-0.8
		c0.6-0.7,1.8-1.5,3.8-1.5c1.9,0,3.3,0.7,4.4,2c1.1,1.3,1.7,3.1,1.7,5.2c0,2.2-0.6,3.9-1.8,5.2c-1.2,1.3-2.7,2-4.5,2
		c-1.6,0-3-0.8-3.6-1.5l-0.4-0.5H310c0.1,0.3,0.1,0.7,0.1,1.2v3.3h2v2.6h-7.4V72.9z M310.9,66.3c0.6,0.8,1.5,1.2,2.5,1.2
		c2,0,3.5-1.6,3.5-4.3c0-2.6-1.4-4.3-3.4-4.3c-1.9,0-3.5,1.5-3.5,4.3C310,64.5,310.3,65.5,310.9,66.3z"/>
	<path d="M323.9,62.8c0.6-0.3,1.2-0.6,2-0.8c1.5-0.4,2.6-0.4,3.7-0.4h0.9v-0.5c0-1.6-0.8-2.4-2.5-2.4c-1.2,0-2.7,0.5-3.4,1l-0.5,0.4
		l-1.3-2.4c0.2-0.1,0.4-0.3,0.7-0.5c0.3-0.2,0.9-0.5,1.9-0.8c0.9-0.3,1.9-0.5,2.9-0.5c3.7,0,5.7,1.9,5.7,5.4v5.5
		c0,0.4,0.2,0.6,0.6,0.6h1.2v2.6h-3.2c-1.2,0-1.8-0.6-1.8-1.5v-0.2l0.1-0.7h-0.1c-0.1,0.1-0.1,0.3-0.6,0.9c-0.6,0.8-1.8,1.7-3.7,1.7
		c-1.3,0-2.3-0.4-3.2-1.1c-0.9-0.7-1.3-1.8-1.3-3.1C321.8,64.6,322.8,63.4,323.9,62.8z M327.3,67.9c0.9,0,1.6-0.4,2.2-1.2
		c0.6-0.8,0.9-1.6,0.9-2.6v-0.5h-0.6c-0.9,0-1.7,0.1-2.8,0.4c-1.1,0.2-1.8,0.9-1.8,1.9C325.3,67,326,67.9,327.3,67.9z"/>
	<path d="M337.3,70.1v-2.6h2v-8c0-0.4-0.2-0.6-0.6-0.6h-1.5v-2.6h3.6c1.2,0,1.8,0.6,1.8,1.7v0.8l-0.1,0.9h0.1
		c0.6-2.1,2.3-3.5,4.4-3.5l0.6,0.1v3.4c-0.2,0-0.5-0.1-0.8-0.1c-1.3,0-2.3,0.5-3,1.5c-0.7,1-1,2.2-1,3.6v3h2v2.6H337.3z"/>
	<path d="M350.4,58.9h-2.1v-2.6h2.2v-3.8h3.3v3.8h3.1v2.6h-3.1v5.8c0,2.3,1.8,2.7,2.8,2.7l0.6,0v2.8c-0.3,0.1-0.6,0.1-1.1,0.1
		c-0.9,0-1.8-0.1-2.9-0.5c-1.5-0.6-2.9-1.9-2.9-4.7V58.9z"/>
	<path d="M359,70.1v-2.6h2v-8.1c0-0.4-0.2-0.6-0.6-0.6h-1.5v-2.6h3.6c1.2,0,1.8,0.5,1.8,1.5v0.6l-0.1,0.6h0.1
		c0.8-1.6,2.6-3.1,4.7-3.1c2.1,0,3.3,1,3.8,3h0.1c0.8-1.7,2.7-3,4.8-3c2.9,0,4.4,1.8,4.4,5.2v6.3h2v2.6h-5.4v-8.2
		c0-1.8-0.4-2.8-1.9-2.8c-1.1,0-2,0.5-2.6,1.4c-0.6,0.9-0.9,2.1-0.9,3.5v3.5h2v2.6h-5.4v-8.2c0-1.8-0.4-2.8-1.9-2.8
		c-1.1,0-2,0.5-2.6,1.5c-0.6,1-0.9,2.2-0.9,3.5v3.3h2v2.6H359z"/>
	<path d="M387.3,58c1.3-1.3,3-2,5-2c1.9,0,3.4,0.6,4.5,1.9c1.1,1.2,1.6,2.8,1.6,4.7l-0.1,1.2h-9.5c0.2,2.5,1.9,3.8,4.1,3.8
		c1.3,0,2.8-0.6,3.5-1.1l0.5-0.4l1.3,2.4l-0.7,0.5c-0.3,0.2-0.9,0.5-1.9,0.9c-0.9,0.4-1.9,0.5-3,0.5c-2.2,0-4-0.7-5.4-2.1
		c-1.3-1.4-2-3.1-2-5.1C385.4,61.1,386,59.4,387.3,58z M395,61.7c0-1.8-1.2-3-2.7-3c-1.7,0-3,1.2-3.3,3H395z"/>
	<path d="M400.5,70.1v-2.6h2v-8c0-0.4-0.2-0.6-0.6-0.6h-1.5v-2.6h3.6c1.2,0,1.8,0.5,1.8,1.5v0.6l-0.1,0.6h0.1
		c0.1-0.4,0.5-0.9,1.3-1.7c0.8-0.8,2.2-1.4,3.8-1.4c3.1,0,4.6,1.8,4.6,5.2v6.3h2v2.6H412v-8.2c0-1.8-0.6-2.8-2.2-2.8
		c-1.2,0-2.1,0.5-2.9,1.4c-0.7,0.9-1.1,2.1-1.1,3.3v3.6h2v2.6H400.5z"/>
	<path d="M420.4,58.9h-2.1v-2.6h2.2v-3.8h3.3v3.8h3.1v2.6h-3.1v5.8c0,2.3,1.8,2.7,2.8,2.7l0.6,0v2.8c-0.3,0.1-0.6,0.1-1.1,0.1
		c-0.9,0-1.8-0.1-2.9-0.5c-1.5-0.6-2.9-1.9-2.9-4.7V58.9z"/>
	<path d="M437.4,68.4c-1.5-1.4-2.2-3.1-2.2-5.2c0-2.1,0.7-3.8,2.2-5.2c1.5-1.4,3.2-2.1,5.4-2.1c2.1,0,3.9,0.7,5.4,2.1
		c1.5,1.3,2.2,3.1,2.2,5.2c0,2.1-0.7,3.8-2.2,5.2c-1.5,1.3-3.2,2-5.4,2C440.7,70.4,438.9,69.7,437.4,68.4z M439.9,66.3
		c0.8,0.8,1.8,1.2,2.9,1.2c1.1,0,2.1-0.4,2.9-1.2c0.8-0.8,1.2-1.8,1.2-3.1c0-1.2-0.4-2.3-1.2-3.1c-0.8-0.8-1.8-1.2-2.9-1.2
		c-1.1,0-2.1,0.4-2.9,1.2c-0.8,0.8-1.2,1.8-1.2,3.1C438.7,64.5,439.1,65.5,439.9,66.3z"/>
	<path d="M452.2,70.1v-2.6h2v-8.6h-2.1v-2.6h2.1v-0.6c0-1.7,0.6-3,1.3-3.7c0.4-0.4,0.9-0.6,1.4-0.8c1.1-0.4,1.8-0.5,2.7-0.5l1.4,0.1
		v2.8c-0.2-0.1-0.6-0.1-1.1-0.1c-1.5,0-2.3,0.7-2.3,2.2v0.7h3.1v2.6h-3.1v8.6h2.3v2.6H452.2z"/>
	<path d="M269.5,99.1v-2.6h2.3V82.6h-2.3v-2.7h8.4c1.5,0,2.8,0.1,3.6,0.4c2.2,0.7,3.5,2.5,3.5,5.1c0,2.6-1.3,4.6-3.6,5.3v0.1
		c0.4,0.2,0.7,0.5,0.9,1l2.2,4c0.2,0.4,0.7,0.6,1.3,0.6h0.6v2.6h-2.2c-1.5,0-2.1-0.3-2.7-1.4l-2.7-4.9c-0.4-0.8-0.8-1-1.9-1h-1.8
		v4.7h2.2v2.6H269.5z M275.3,88.9h3.2c1.9,0,3.1-1.1,3.1-3.2c0-1.3-0.5-2.2-1.5-2.6c-0.5-0.2-1.2-0.4-2.2-0.4h-2.6V88.9z"/>
	<path d="M290.1,87c1.3-1.3,3-2,5-2c1.9,0,3.4,0.6,4.5,1.9c1.1,1.2,1.6,2.8,1.6,4.7l-0.1,1.2h-9.5c0.2,2.5,1.9,3.8,4.1,3.8
		c1.3,0,2.8-0.6,3.5-1.1l0.5-0.4l1.3,2.4l-0.7,0.5c-0.3,0.2-0.9,0.5-1.9,0.9c-0.9,0.4-1.9,0.5-3,0.5c-2.2,0-4-0.7-5.4-2.1
		c-1.3-1.4-2-3.1-2-5.1C288.2,90.1,288.8,88.4,290.1,87z M297.8,90.7c0-1.8-1.2-3-2.7-3c-1.7,0-3,1.2-3.3,3H297.8z"/>
	<path d="M305.4,101c1.1,0.6,2.4,0.9,3.8,0.9c2.3,0,3.9-1.1,3.9-3.5v-0.9l0.1-0.7h-0.1c-0.8,1.3-2.1,1.9-3.8,1.9
		c-1.9,0-3.4-0.7-4.5-2c-1.1-1.3-1.6-3-1.6-5c0-2,0.5-3.6,1.6-4.9c1.1-1.3,2.6-1.9,4.5-1.9c1.8,0,3.5,0.7,4.3,2.1h0.1
		c0-0.1-0.1-0.3-0.1-0.5c0-0.8,0.5-1.3,1.6-1.3h3.4v2.6h-1.3c-0.4,0-0.6,0.2-0.6,0.5v9.8c0,4.7-3.7,6.5-7.3,6.5
		c-1.8,0-3.4-0.4-4.9-1.2L305.4,101z M313.1,91.9c0-2.6-1.1-4-3.4-4c-2.1,0-3.2,1.5-3.2,3.8c0,2.5,1.3,4.2,3.5,4.2
		C311.8,95.9,313.1,94.8,313.1,91.9z"/>
	<path d="M321.7,87.9h-2.1v-2.6h5.6v8.3c0,1.8,0.5,2.8,2.2,2.8c1.1,0,2.1-0.5,2.8-1.5c0.7-1,1.1-2.1,1.1-3.5v-3.6H329v-2.6h5.5V96
		c0,0.4,0.2,0.6,0.6,0.6h1.3v2.5H333c-1.2,0-1.8-0.5-1.8-1.5V97l0-0.6h-0.1c-0.1,0.4-0.5,0.9-1.3,1.7c-0.8,0.8-2.2,1.3-3.8,1.3
		c-3,0-4.5-1.8-4.5-5.2V87.9z"/>
	<path d="M339,82.5h-2.1v-2.6h5.5v14.6c0,1.3,0.3,1.9,1.4,1.9l0.6,0v2.8c-0.4,0.1-0.8,0.1-1.2,0.1c-1.3,0-2.3-0.3-3.1-0.9
		c-0.8-0.6-1.1-1.8-1.1-3.5V82.5z"/>
	<path d="M347.8,91.8c0.6-0.3,1.2-0.6,2-0.8c1.5-0.4,2.6-0.4,3.7-0.4h0.9v-0.5c0-1.6-0.8-2.4-2.5-2.4c-1.2,0-2.7,0.5-3.4,1l-0.5,0.4
		l-1.3-2.4c0.2-0.1,0.4-0.3,0.7-0.5c0.3-0.2,0.9-0.5,1.9-0.8c0.9-0.3,1.9-0.5,2.9-0.5c3.7,0,5.7,1.9,5.7,5.4v5.5
		c0,0.4,0.2,0.6,0.6,0.6h1.2v2.6h-3.2c-1.2,0-1.8-0.6-1.8-1.5v-0.2l0.1-0.7h-0.1c-0.1,0.1-0.1,0.3-0.6,0.9c-0.6,0.8-1.8,1.7-3.7,1.7
		c-1.3,0-2.3-0.4-3.2-1.1c-0.9-0.7-1.3-1.8-1.3-3.1C345.8,93.6,346.7,92.4,347.8,91.8z M351.2,96.9c0.9,0,1.6-0.4,2.2-1.2
		c0.6-0.8,0.9-1.6,0.9-2.6v-0.5h-0.6c-0.9,0-1.7,0.1-2.8,0.4c-1.1,0.2-1.8,0.9-1.8,1.9C349.2,96,350,96.9,351.2,96.9z"/>
	<path d="M362.6,87.9h-2.1v-2.6h2.2v-3.8h3.3v3.8h3.1v2.6h-3.1v5.8c0,2.3,1.8,2.7,2.8,2.7l0.6,0v2.8c-0.3,0.1-0.6,0.1-1.1,0.1
		c-0.9,0-1.8-0.1-2.9-0.5c-1.5-0.6-2.9-1.9-2.9-4.7V87.9z"/>
	<path d="M373.1,97.4c-1.5-1.4-2.2-3.1-2.2-5.2c0-2.1,0.7-3.8,2.2-5.2c1.5-1.4,3.2-2.1,5.4-2.1c2.1,0,3.9,0.7,5.4,2.1
		c1.5,1.3,2.2,3.1,2.2,5.2c0,2.1-0.7,3.8-2.2,5.2c-1.5,1.3-3.2,2-5.4,2C376.4,99.4,374.6,98.7,373.1,97.4z M375.6,95.3
		c0.8,0.8,1.8,1.2,2.9,1.2c1.1,0,2.1-0.4,2.9-1.2c0.8-0.8,1.2-1.8,1.2-3.1c0-1.2-0.4-2.3-1.2-3.1c-0.8-0.8-1.8-1.2-2.9-1.2
		c-1.1,0-2.1,0.4-2.9,1.2c-0.8,0.8-1.2,1.8-1.2,3.1C374.4,93.5,374.8,94.5,375.6,95.3z"/>
	<path d="M388,99.1v-2.6h2v-8c0-0.4-0.2-0.6-0.6-0.6h-1.5v-2.6h3.6c1.2,0,1.8,0.6,1.8,1.7v0.8l-0.1,0.9h0.1c0.6-2.1,2.3-3.5,4.4-3.5
		l0.6,0.1v3.4c-0.2,0-0.5-0.1-0.8-0.1c-1.3,0-2.3,0.5-3,1.5c-0.7,1-1,2.2-1,3.6v3h2v2.6H388z"/>
	<path d="M400.2,101.3c0.5,0.4,1.2,0.6,2.1,0.6c1.2,0,2-0.5,2.4-1.6l0.4-0.9l-4.7-11.6h-1.6v-2.6h6.8v2.6h-1.6l2.5,7
		c0.1,0.4,0.3,1,0.3,1.2l0,0.2h0.1c0.1-0.5,0.2-1,0.4-1.4l2.5-7H408v-2.6h6.5v2.6H413l-5.1,13c-1,2.6-2.8,3.9-5.5,3.9
		c-1.2,0-2.4-0.4-3-0.7l-0.4-0.2L400.2,101.3z"/>
	<path d="M421.4,99.1v-2.6h1.8l5.8-16.5h4l5.8,16.5h1.8v2.6h-7.2v-2.6h1.9l-1.2-3.6h-6l-1.2,3.6h1.9v2.6H421.4z M428.6,90.1h4.4
		l-1.8-5.4c-0.2-0.6-0.3-1.2-0.3-1.5l0-0.2h-0.1c-0.1,0.5-0.2,1.1-0.4,1.7L428.6,90.1z"/>
	<path d="M443.8,101c1.1,0.6,2.4,0.9,3.8,0.9c2.3,0,3.9-1.1,3.9-3.5v-0.9l0.1-0.7h-0.1c-0.8,1.3-2.1,1.9-3.8,1.9
		c-1.9,0-3.4-0.7-4.5-2c-1.1-1.3-1.6-3-1.6-5c0-2,0.5-3.6,1.6-4.9c1.1-1.3,2.6-1.9,4.5-1.9c1.8,0,3.5,0.7,4.3,2.1h0.1
		c0-0.1-0.1-0.3-0.1-0.5c0-0.8,0.5-1.3,1.6-1.3h3.4v2.6h-1.3c-0.4,0-0.6,0.2-0.6,0.5v9.8c0,4.7-3.7,6.5-7.3,6.5
		c-1.8,0-3.4-0.4-4.9-1.2L443.8,101z M451.5,91.9c0-2.6-1.1-4-3.4-4c-2.1,0-3.2,1.5-3.2,3.8c0,2.5,1.3,4.2,3.5,4.2
		C450.2,95.9,451.5,94.8,451.5,91.9z"/>
	<path d="M460.2,87c1.3-1.3,3-2,5-2c1.9,0,3.4,0.6,4.5,1.9c1.1,1.2,1.6,2.8,1.6,4.7l-0.1,1.2h-9.5c0.2,2.5,1.9,3.8,4.1,3.8
		c1.3,0,2.8-0.6,3.5-1.1l0.5-0.4l1.3,2.4l-0.7,0.5c-0.3,0.2-0.9,0.5-1.9,0.9c-0.9,0.4-1.9,0.5-3,0.5c-2.2,0-4-0.7-5.4-2.1
		c-1.3-1.4-2-3.1-2-5.1C458.3,90.1,458.9,88.4,460.2,87z M467.9,90.7c0-1.8-1.2-3-2.7-3c-1.7,0-3,1.2-3.3,3H467.9z"/>
	<path d="M473.4,99.1v-2.6h2v-8c0-0.4-0.2-0.6-0.6-0.6h-1.5v-2.6h3.6c1.2,0,1.8,0.5,1.8,1.5v0.6l-0.1,0.6h0.1
		c0.1-0.4,0.5-0.9,1.3-1.7c0.8-0.8,2.2-1.4,3.8-1.4c3.1,0,4.6,1.8,4.6,5.2v6.3h2v2.6h-5.4v-8.2c0-1.8-0.6-2.8-2.2-2.8
		c-1.2,0-2.1,0.5-2.9,1.4c-0.7,0.9-1.1,2.1-1.1,3.3v3.6h2v2.6H473.4z"/>
	<path d="M493.7,87.1c1.4-1.4,3.2-2.1,5.3-2.1c0.8,0,1.7,0.1,2.5,0.3c0.8,0.2,1.5,0.6,2.2,1.1c0.6,0.5,1,1.2,1,1.9v1.9h-3v-0.9
		c0-0.9-1.3-1.3-2.6-1.3c-2.5,0-4,1.7-4,4.2c0,1.4,0.4,2.4,1.2,3.2c0.8,0.8,1.9,1.2,3.1,1.2c1.4,0,2.9-0.6,4.3-1.7l1.2,2.4
		c-1.2,1.1-3.3,2.1-5.7,2.1c-2.1,0-3.9-0.6-5.4-2c-1.5-1.3-2.2-3-2.2-5.2C491.6,90.2,492.3,88.5,493.7,87.1z"/>
	<path d="M506.7,99.1v-2.6h2v-8.6h-2.1v-2.6h5.6v11.2h2v2.6H506.7z M508.7,83v-3.1h3.5V83H508.7z"/>
	<path d="M517.6,87c1.3-1.3,3-2,5-2c1.9,0,3.4,0.6,4.5,1.9c1.1,1.2,1.6,2.8,1.6,4.7l-0.1,1.2h-9.5c0.2,2.5,1.9,3.8,4.1,3.8
		c1.3,0,2.8-0.6,3.5-1.1l0.5-0.4l1.3,2.4l-0.7,0.5c-0.3,0.2-0.9,0.5-1.9,0.9c-0.9,0.4-1.9,0.5-3,0.5c-2.2,0-4-0.7-5.4-2.1
		c-1.3-1.4-2-3.1-2-5.1C515.6,90.1,516.3,88.4,517.6,87z M525.2,90.7c0-1.8-1.2-3-2.7-3c-1.7,0-3,1.2-3.3,3H525.2z"/>
	<path d="M530.4,94.5h2.9v0.8c0,0.9,1.2,1.4,2.7,1.4c1.4,0,2.3-0.5,2.3-1.4c0-0.6-0.3-0.9-0.9-1.2c-0.2-0.1-0.7-0.3-1-0.4
		c-0.2-0.1-1-0.4-1.3-0.5c-1.3-0.4-1.9-0.7-2.9-1.4c-0.9-0.7-1.4-1.6-1.4-2.9c0-1.3,0.5-2.3,1.6-3c1.1-0.6,2.3-1,3.8-1
		c1.2,0,2.3,0.2,3.4,0.7c1.1,0.5,1.6,1.2,1.6,2.1v1.8h-2.9v-0.8c0-0.7-0.8-1.1-2-1.1c-1.2,0-2,0.4-2,1.2c0,0.4,0.1,0.7,0.4,0.9
		c0.6,0.5,1.2,0.7,2.5,1.1c1.4,0.4,2,0.7,3.1,1.3c1.1,0.6,1.5,1.6,1.5,2.9c0,1.3-0.5,2.4-1.6,3.1c-1.1,0.7-2.5,1.1-4.2,1.1
		c-2.5,0-5.6-1.1-5.6-3.3V94.5z"/>
</g>
<g>
	<path d="M271.8,125.4h-1.4v-1.3h5.9c4.5,0,7.4,2.7,7.4,7.4c0,4.7-3,7.4-7.4,7.4H273c-0.9,0-1.3-0.4-1.3-1.3V125.4z M273.7,137.5
		h2.5c3.6,0,6-2.1,6-6.1c0-3.9-2.4-6.1-6-6.1h-2.9v11.7C273.2,137.4,273.4,137.5,273.7,137.5z"/>
	<path d="M286.2,130c0-0.3-0.2-0.5-0.5-0.5h-0.9v-1.2h1.5c0.9,0,1.3,0.4,1.3,1.3v7.6c0,0.3,0.2,0.5,0.5,0.5h0.9v1.2h-1.5
		c-0.9,0-1.3-0.4-1.3-1.3V130z M286.2,124.1h1.4v1.8h-1.4V124.1z"/>
	<path d="M290.6,130c-0.1-0.4-0.4-0.5-0.7-0.5h-0.2v-1.2h0.6c1,0,1.3,0.2,1.7,1.2l2.5,6.6c0.2,0.5,0.4,1.2,0.4,1.2h0
		c0,0,0.2-0.7,0.4-1.2l2.5-6.6c0.4-0.9,0.7-1.2,1.7-1.2h0.5v1.2h-0.2c-0.4,0-0.6,0.1-0.7,0.5l-3.4,8.8H294L290.6,130z"/>
	<path d="M302,130c0-0.3-0.2-0.5-0.5-0.5h-0.9v-1.2h1.5c0.9,0,1.3,0.4,1.3,1.3v7.6c0,0.3,0.2,0.5,0.5,0.5h0.9v1.2h-1.5
		c-0.9,0-1.3-0.4-1.3-1.3V130z M301.9,124.1h1.4v1.8h-1.4V124.1z"/>
	<path d="M306.5,136.2c0,0,1.2,1.6,3.3,1.6c1.2,0,2.2-0.6,2.2-1.7c0-2.3-5.9-1.9-5.9-5.3c0-1.9,1.6-2.9,3.8-2.9
		c1.1,0,3.2,0.4,3.2,1.9v0.9h-1.3v-0.5c0-0.8-1.1-1.1-1.8-1.1c-1.5,0-2.4,0.5-2.4,1.5c0,2.4,5.9,1.8,5.9,5.3c0,1.8-1.6,3-3.7,3
		c-2.8,0-4.1-1.8-4.1-1.8L306.5,136.2z"/>
	<path d="M316.1,130c0-0.3-0.2-0.5-0.5-0.5h-0.9v-1.2h1.5c0.9,0,1.3,0.4,1.3,1.3v7.6c0,0.3,0.2,0.5,0.5,0.5h0.9v1.2h-1.5
		c-0.9,0-1.3-0.4-1.3-1.3V130z M316,124.1h1.4v1.8H316V124.1z"/>
	<path d="M325.6,128c3.1,0,5.6,2.4,5.6,5.5c0,3.2-2.5,5.6-5.6,5.6c-3.1,0-5.6-2.4-5.6-5.6C320,130.4,322.5,128,325.6,128z
		 M325.6,137.8c2.2,0,4.1-1.8,4.1-4.3c0-2.4-1.8-4.2-4.1-4.2c-2.3,0-4.1,1.8-4.1,4.2C321.5,135.9,323.4,137.8,325.6,137.8z"/>
	<path d="M333.6,130c0-0.3-0.2-0.5-0.5-0.5h-0.9v-1.2h1.5c0.9,0,1.3,0.4,1.3,1.2v0.5c0,0.4,0,0.8,0,0.8h0c0.4-1,1.7-2.7,4.2-2.7
		c2.6,0,3.5,1.5,3.5,4.1v5c0,0.3,0.2,0.5,0.5,0.5h0.9v1.2h-1.5c-0.9,0-1.3-0.4-1.3-1.3v-5.1c0-1.7-0.3-3.1-2.3-3.1
		c-1.8,0-3.4,1.2-3.8,3c-0.1,0.4-0.2,0.9-0.2,1.4v5.1h-1.4V130z"/>
	<path d="M356.3,128c3.1,0,5.6,2.4,5.6,5.5c0,3.2-2.5,5.6-5.6,5.6c-3.1,0-5.6-2.4-5.6-5.6C350.7,130.4,353.2,128,356.3,128z
		 M356.3,137.8c2.2,0,4.1-1.8,4.1-4.3c0-2.4-1.8-4.2-4.1-4.2c-2.3,0-4.1,1.8-4.1,4.2C352.2,135.9,354,137.8,356.3,137.8z"/>
	<path d="M364.3,129.5H363v-1.2h1.3v-0.4c0-3.5,2.5-3.9,3.6-3.9c0.4,0,0.7,0,0.7,0v1.3c0,0-0.2,0-0.5,0c-0.8,0-2.4,0.3-2.4,2.6v0.4
		h2.7v1.2h-2.7v9.4h-1.4V129.5z"/>
	<path d="M375.2,137.5h1.4v-12.2h-1.4v-1.3h4.2v1.3H378v12.2h1.4v1.3h-4.2V137.5z"/>
	<path d="M382,130c0-0.3-0.2-0.5-0.5-0.5h-0.9v-1.2h1.5c0.9,0,1.3,0.4,1.3,1.2v0.5c0,0.4,0,0.8,0,0.8h0c0.4-1,1.7-2.7,4.2-2.7
		c2.6,0,3.5,1.5,3.5,4.1v5c0,0.3,0.2,0.5,0.5,0.5h0.9v1.2H391c-0.9,0-1.3-0.4-1.3-1.3v-5.1c0-1.7-0.3-3.1-2.3-3.1
		c-1.8,0-3.4,1.2-3.8,3c-0.1,0.4-0.2,0.9-0.2,1.4v5.1H382V130z"/>
	<path d="M394.1,136.2c0,0,1.2,1.6,3.3,1.6c1.2,0,2.2-0.6,2.2-1.7c0-2.3-5.9-1.9-5.9-5.3c0-1.9,1.6-2.9,3.8-2.9
		c1.1,0,3.2,0.4,3.2,1.9v0.9h-1.3v-0.5c0-0.8-1.1-1.1-1.8-1.1c-1.5,0-2.4,0.5-2.4,1.5c0,2.4,5.9,1.8,5.9,5.3c0,1.8-1.6,3-3.7,3
		c-2.8,0-4.1-1.8-4.1-1.8L394.1,136.2z"/>
	<path d="M403.5,130c0-0.3-0.2-0.5-0.5-0.5h-0.9v-1.2h1.5c0.9,0,1.3,0.4,1.3,1.2v5.1c0,1.7,0.3,3.1,2.3,3.1c2.4,0,3.9-2.1,3.9-4.4
		v-5.1h1.4v8.9c0,0.3,0.2,0.5,0.5,0.5h0.9v1.2h-1.4c-0.9,0-1.3-0.4-1.3-1.2v-0.5c0-0.4,0-0.8,0-0.8h0c-0.4,1-1.8,2.7-4.1,2.7
		c-2.5,0-3.5-1.3-3.5-4.1V130z"/>
	<path d="M416,130c0-0.3-0.2-0.5-0.5-0.5h-0.9v-1.2h1.5c0.9,0,1.3,0.4,1.3,1.2v0.7c0,0.4,0,0.8,0,0.8h0c0.5-1.6,1.7-2.8,3.3-2.8
		c0.3,0,0.6,0.1,0.6,0.1v1.4c0,0-0.3,0-0.5,0c-1.5,0-2.6,1.2-3.1,2.7c-0.2,0.7-0.3,1.4-0.3,2.1v4.5H416V130z"/>
	<path d="M428.9,132.3h0.6v-0.1c0-2.2-0.8-3-2.7-3c-0.5,0-2.1,0.1-2.1,0.9v0.7h-1.4v-1c0-1.5,2.5-1.8,3.4-1.8c3.3,0,4.1,1.8,4.1,4.1
		v5.1c0,0.3,0.2,0.5,0.5,0.5h0.9v1.2h-1.4c-0.9,0-1.3-0.4-1.3-1.3c0-0.5,0-0.8,0-0.8h0c0,0-0.9,2.3-3.5,2.3c-1.8,0-3.6-1-3.6-3.1
		C422.4,132.4,427,132.3,428.9,132.3z M426.2,137.9c2,0,3.2-2.1,3.2-3.9v-0.5h-0.6c-1.7,0-5,0-5,2.4
		C423.9,136.8,424.7,137.9,426.2,137.9z"/>
	<path d="M434.3,130c0-0.3-0.2-0.5-0.5-0.5h-0.9v-1.2h1.5c0.9,0,1.3,0.4,1.3,1.2v0.5c0,0.4,0,0.8,0,0.8h0c0.4-1,1.7-2.7,4.2-2.7
		c2.6,0,3.5,1.5,3.5,4.1v5c0,0.3,0.2,0.5,0.5,0.5h0.9v1.2h-1.5c-0.9,0-1.3-0.4-1.3-1.3v-5.1c0-1.7-0.3-3.1-2.3-3.1
		c-1.8,0-3.4,1.2-3.8,3c-0.1,0.4-0.2,0.9-0.2,1.4v5.1h-1.4V130z"/>
	<path d="M451.4,128c1.2,0,3.8,0.5,3.8,2.2v0.9h-1.3v-0.6c0-0.9-1.5-1.3-2.4-1.3c-2.3,0-4.1,1.7-4.1,4.3c0,2.6,1.9,4.2,4.1,4.2
		c2.2,0,3.4-1.5,3.4-1.5l0.7,1.1c0,0-1.4,1.7-4.1,1.7c-3.1,0-5.5-2.2-5.5-5.5C445.9,130.3,448.3,128,451.4,128z"/>
	<path d="M461.9,128c2.9,0,4.4,2.2,4.4,4.9c0,0.3,0,0.7,0,0.7h-8.1c0,2.7,1.9,4.2,4.1,4.2c1.9,0,3.2-1.3,3.2-1.3l0.7,1.1
		c0,0-1.5,1.5-3.9,1.5c-3.1,0-5.5-2.3-5.5-5.5C456.7,130.1,459.1,128,461.9,128z M464.9,132.5c-0.1-2.2-1.4-3.3-3-3.3
		c-1.7,0-3.3,1.1-3.6,3.3H464.9z"/>
</g>
</svg>
