<svg width="197" height="76" viewBox="0 0 197 76" fill="none" xmlns="http://www.w3.org/2000/svg" preserveAspectRatio="xMinYMin meet">
	<g>
		<path d="M1.36769 7.90811V8.21622C1.36769 9.69513 2.31676 10.1676 3.20392 10.1676C4.31804 10.1676 5.16394 9.69513 5.16394 8.40108C5.16394 5.9773 0.232948 6.24432 0.232948 2.95784C0.25358 1.02703 1.63591 0 3.47213 0C5.47341 0 6.60816 0.965405 6.505 3.20432H5.04015C5.06078 2.01297 4.66878 1.23243 3.34834 1.23243C2.50244 1.23243 1.65654 1.66378 1.65654 2.83459C1.65654 5.23784 6.58753 4.88865 6.58753 8.36C6.58753 10.6605 4.99888 11.4 3.18329 11.4C-0.0352645 11.4205 -0.0352644 8.95567 -0.0146327 7.90811H1.36769Z" fill="white"/>
		<path d="M12.7771 3.24541C12.7977 2.62919 12.7358 2.01297 12.4676 1.66378C12.1994 1.31459 11.5185 1.19135 11.2297 1.19135C10.0743 1.19135 9.6204 1.88973 9.57914 2.03351C9.53788 2.15676 9.26966 2.42378 9.26966 4.31351V7.23027C9.26966 9.90054 10.1568 10.2292 11.2297 10.2292C11.6629 10.2292 12.9421 10.0854 12.9627 7.94919H14.407C14.4689 11.4 12.0137 11.4 11.3122 11.4C9.92988 11.3795 7.82544 11.2973 7.82544 7.0454V3.96432C7.82544 0.883243 9.18714 0 11.3535 0C13.5198 0 14.3657 1.12973 14.2213 3.24541H12.7771Z" fill="white"/>
		<path d="M15.6862 11.1535V0.225952H17.0891V4.95028H20.9473V0.225952H22.3502V11.1535H20.9473V6.16217H17.0891V11.1535H15.6862Z" fill="white"/>
		<path d="M22.9486 0.225952H24.4341L26.4973 9.69514H26.5179L28.7255 0.225952H30.5411L32.5217 9.69514H32.5424L34.7706 0.225952H36.2355L33.3264 11.1535H31.6346L29.5714 1.68433H29.5508L27.3225 11.1741H25.6101L22.9486 0.225952Z" fill="white"/>
		<path d="M36.7925 11.1535V0.225952H42.4456V1.43784H38.1954V4.95028H42.1567V6.16217H38.1954V9.94163H42.5487V11.1535H36.7925Z" fill="white"/>
		<path d="M45.1689 11.1535H43.766V0.225952H45.1689V11.1535Z" fill="white"/>
		<path d="M52.8851 1.62271L47.4384 9.94163H53.0089V11.1535H46.1385V9.5719L51.4615 1.45838V1.43784H46.3242V0.225952H52.8851V1.62271Z" fill="white"/>
		<path d="M53.8136 11.1535V0.225952H59.4667V1.43784H55.2166V4.95028H59.1779V6.16217H55.2166V9.94163H59.5699V11.1535H53.8136Z" fill="white"/>
		<path d="M61.9838 6.14163V11.1741H60.5808V0.225952H64.3564C66.2958 0.225952 66.9973 1.58163 66.9973 2.95784C66.9973 4.2519 66.2752 5.2173 64.996 5.46379V5.48433C66.2545 5.68974 66.7084 6.10055 66.791 8.29838C66.8116 8.77082 66.956 10.4757 67.1623 11.1535H65.6975C65.3055 10.3935 65.388 8.97622 65.2642 7.51784C65.1611 6.18271 64.0676 6.12109 63.6137 6.12109L61.9838 6.14163ZM61.9838 4.92974H64.0882C65.0992 4.92974 65.5737 4.06703 65.5737 3.10163C65.5737 2.32109 65.1817 1.43784 64.1088 1.43784H62.0044V4.92974H61.9838Z" fill="white"/>
		<path d="M69.8445 11.1535H68.4415V0.225952H69.8445V11.1535Z" fill="white"/>
		<path d="M72.7536 7.90811V8.21622C72.7536 9.69514 73.7026 10.1676 74.5898 10.1676C75.7039 10.1676 76.5498 9.69514 76.5498 8.40108C76.5498 5.9773 71.6188 6.24432 71.6188 2.95784C71.6394 1.02703 73.0218 0 74.858 0C76.8593 0 77.994 0.965406 77.8909 3.20432H76.426C76.4466 2.01297 76.0546 1.23243 74.7342 1.23243C73.9089 1.23243 73.0424 1.66378 73.0424 2.83459C73.0424 5.23784 77.9734 4.88865 77.9734 8.36C77.9734 10.6605 76.3847 11.4 74.5691 11.4C71.33 11.4411 71.33 8.95568 71.3712 7.90811H72.7536Z" fill="white"/>
		<path d="M84.1629 3.24543C84.1836 2.62922 84.1423 2.013 83.8534 1.66381C83.5646 1.31462 82.9044 1.19138 82.6155 1.19138C81.4602 1.19138 81.0063 1.88976 80.965 2.03354C80.9237 2.15678 80.6555 2.42381 80.6555 4.31354V7.2303C80.6555 9.90057 81.5427 10.2292 82.6155 10.2292C83.0488 10.2292 84.328 10.0854 84.3486 7.94922H85.7928C85.8547 11.4 83.3995 11.4 82.6981 11.4C81.3364 11.4 79.2319 11.3179 79.2319 7.06597V3.98489C79.2319 0.883271 80.5936 0.0205688 82.7393 0.0205688C84.885 0.0205688 85.7516 1.1503 85.6071 3.26597H84.1629V3.24543Z" fill="white"/>
		<path d="M87.072 11.1535V0.225952H88.475V4.95028H92.3125V0.225952H93.7154V11.1535H92.3125V6.16217H88.4543V11.1535H87.072Z" fill="white"/>
		<path d="M95.4691 11.1535V0.225952H101.122V1.43784H96.8721V4.95028H100.833V6.16217H96.8721V9.94163H101.225V11.1535H95.4691Z" fill="white"/>
		<path d="M112.428 0.225952V11.1535H110.51L106.177 1.66379H106.156V11.1535H104.918V0.225952H106.899L111.17 9.5719H111.211V0.225952H112.428Z" fill="white"/>
		<path d="M116.637 0.225952H118.412L121.981 11.1535H120.413L119.65 8.56541H115.399L114.574 11.1741H113.151L116.637 0.225952ZM117.504 1.52001H117.463L115.75 7.35352H119.258L117.504 1.52001Z" fill="white"/>
		<path d="M127.696 0.225952V1.43784H124.808V11.1535H123.405V1.43784H120.516V0.225952H127.696Z" fill="white"/>
		<path d="M129.904 11.1535H128.501V0.225952H129.904V11.1535Z" fill="white"/>
		<path d="M131.698 7.16865V3.57405C131.698 1.39676 132.833 0 135.144 0C137.455 0 138.589 1.39676 138.589 3.57405V7.16865C138.589 10.1881 137.455 11.4 135.144 11.4C132.833 11.4 131.698 10.1881 131.698 7.16865ZM137.187 7.23027V3.53297C137.187 1.25297 135.598 1.17081 135.165 1.17081C134.731 1.17081 133.143 1.25297 133.143 3.53297V7.23027C133.143 9.61297 133.844 10.2292 135.165 10.2292C136.485 10.2292 137.187 9.61297 137.187 7.23027Z" fill="white"/>
		<path d="M147.832 0.225952V11.1535H145.914L141.581 1.66379H141.56V11.1535H140.323V0.225952H142.303L146.574 9.5719H146.615V0.225952H147.832Z" fill="white"/>
		<path d="M152.041 0.225952H153.816L157.406 11.1535H155.838L155.054 8.54487H150.804L149.978 11.1535H148.555L152.041 0.225952ZM152.887 1.52001H152.867L151.154 7.35352H154.662L152.887 1.52001Z" fill="white"/>
		<path d="M158.066 11.1535V0.225952H159.469V9.94163H163.492V11.1535H158.066Z" fill="white"/>
		<path d="M164.132 11.1535V0.225952H167.722C169.248 0.225952 169.764 0.739466 170.177 1.33514C170.445 1.76649 170.61 2.28001 170.631 2.79352C170.631 4.14919 170.156 5.07352 168.753 5.38163V5.46379C170.321 5.64865 171.002 6.59352 171.002 8.07244C171.002 10.866 168.939 11.1535 167.701 11.1535H164.132ZM165.535 4.82703H167.577C168.671 4.80649 169.207 4.14919 169.207 3.08109C169.207 2.1773 168.691 1.43784 167.515 1.43784H165.535V4.82703V4.82703ZM165.535 9.94163H167.515C169.001 9.94163 169.537 8.87352 169.537 8.07244C169.537 6.32649 168.464 6.01838 167.02 6.01838H165.535V9.94163V9.94163Z" fill="white"/>
		<path d="M174.963 0.225952H176.738L180.307 11.1535H178.739L177.955 8.54487H173.705L172.88 11.1535H171.477L174.963 0.225952ZM175.809 1.52001H175.768L174.056 7.35352H177.563L175.809 1.52001Z" fill="white"/>
		<path d="M188.58 0.225952V11.1535H186.662L182.329 1.66379H182.308V11.1535H181.07V0.225952H183.051L187.322 9.59244H187.342V0.225952H188.58Z" fill="white"/>
		<path d="M190.313 11.1535V0.225952H191.716V5.03244H191.757L195.595 0.225952H197.184L193.202 5.15568L197.411 11.1535H195.616L191.778 5.44325H191.737V11.1535H190.313Z" fill="white"/>
		<path d="M0.439209 27.2162V16.2681H4.0085C5.53525 16.2681 6.05105 16.7816 6.46368 17.3773C6.73189 17.8087 6.89695 18.3222 6.89695 18.8357C6.89695 20.1914 6.42242 21.0952 5.01946 21.4238V21.506C6.58747 21.6908 7.26832 22.6357 7.26832 24.1352C7.26832 26.9287 5.20514 27.2162 3.96724 27.2162H0.439209ZM1.84217 20.8897H3.88471C4.9782 20.8692 5.51462 20.2119 5.51462 19.1438C5.51462 18.24 4.99883 17.5006 3.82282 17.5006H1.84217V20.8897ZM1.84217 26.0043H3.82282C5.3083 26.0043 5.84473 24.9362 5.84473 24.1352C5.84473 22.3892 4.77188 22.0811 3.32766 22.0811H1.84217V26.0043Z" fill="white"/>
		<path d="M11.2709 16.2681H13.0453L16.6146 27.1957H15.0466L14.2626 24.587H10.0124L9.18714 27.1957H7.78418L11.2709 16.2681ZM12.1168 17.5622H12.0756L10.3631 23.3957H13.8705L12.1168 17.5622Z" fill="white"/>
		<path d="M24.8673 16.2681V27.1957H22.9485L18.6158 17.706H18.5746V27.1957H17.3367V16.2681H19.3173L23.5881 25.6346H23.6294V16.2681H24.8673Z" fill="white"/>
		<path d="M26.4766 19.6162C26.4766 17.4389 27.5907 16.0422 29.9221 16.0422C32.2535 16.0422 33.3676 17.4389 33.3676 19.6162V23.2108C33.3676 23.9914 33.0375 25.9427 32.4185 26.2097L32.4391 26.2508C32.7486 26.1481 33.0787 26.066 33.3882 26.0043H34.4817V27.2162H29.9221C28.4366 27.2162 26.4559 27.1341 26.4559 23.2108V19.6162H26.4766ZM31.944 23.2724V19.5751C31.944 17.2951 30.3553 17.213 29.9221 17.213C29.4888 17.213 27.9002 17.2951 27.9002 19.5751V23.2724C27.9002 25.08 28.2922 26.0865 29.9427 26.0865C31.5932 26.0865 31.944 25.1006 31.944 23.2724Z" fill="white"/>
		<path d="M35.0387 16.2681H36.4417V23.2725C36.4417 25.6757 37.1638 26.2714 38.5048 26.2714C39.8459 26.2714 40.5474 25.6552 40.5474 23.2725V16.2887H41.9503V23.2108C41.9503 26.2303 40.8156 27.4422 38.5048 27.4422C36.1941 27.4422 35.0593 26.2303 35.0593 23.2108L35.0387 16.2681Z" fill="white"/>
		<path d="M43.5802 27.2162V16.2681H49.2333V17.48H44.9832V20.9925H48.9445V22.2043H44.9832V25.9838H49.3365V27.1957H43.5802V27.2162Z" fill="white"/>
		<path d="M60.5395 16.2681V27.1957H58.6207L54.2881 17.706H54.2674V27.1957H53.0295V16.2681H55.0102L59.281 25.6346H59.3016V16.2681H60.5395Z" fill="white"/>
		<path d="M64.7691 16.2681H66.5435L70.1127 27.1957H68.5447L67.7607 24.587H63.5106L62.6853 27.1957H61.2617L64.7691 16.2681ZM65.615 17.5622H65.5944L63.882 23.3957H67.3894L65.615 17.5622Z" fill="white"/>
		<path d="M75.807 16.2681V17.48H72.9186V27.1957H71.5156V17.48H68.6272V16.2681H75.807V16.2681Z" fill="white"/>
		<path d="M78.0147 27.2162H76.6117V16.2681H78.0147V27.2162Z" fill="white"/>
		<path d="M79.8097 23.2108V19.6162C79.8097 17.4389 80.9444 16.0422 83.2552 16.0422C85.566 16.0422 86.7007 17.4389 86.7007 19.6162V23.2108C86.7007 26.2303 85.566 27.4422 83.2552 27.4422C80.9444 27.4422 79.8097 26.2508 79.8097 23.2108ZM85.2977 23.2724V19.5751C85.2977 17.2951 83.7091 17.213 83.2758 17.213C82.8426 17.213 81.2539 17.2951 81.2539 19.5751V23.2724C81.2539 25.6757 81.9554 26.2714 83.2758 26.2714C84.5963 26.2714 85.2977 25.6757 85.2977 23.2724Z" fill="white"/>
		<path d="M95.9437 16.2681V27.1957H94.0249L89.6922 17.706H89.6716V27.1957H88.4337V16.2681H90.4144L94.6851 25.6346H94.7058V16.2681H95.9437Z" fill="white"/>
		<path d="M100.153 16.2681H101.927L105.496 27.1957H103.928L103.144 24.587H98.894L98.0687 27.1957H96.6451L100.153 16.2681ZM101.019 17.5622H100.998L99.286 23.3957H102.793L101.019 17.5622Z" fill="white"/>
		<path d="M106.177 27.2162V16.2681H107.58V25.9838H111.603V27.1957H106.177V27.2162Z" fill="white"/>
		<path d="M112.119 27.2162V16.2681H117.772V17.48H113.522V20.9925H117.483V22.2043H113.522V25.9838H117.875V27.1957H112.119V27.2162Z" fill="white"/>
		<path d="M122.559 23.9503V24.2789C122.559 25.7578 123.508 26.2303 124.395 26.2303C125.509 26.2303 126.355 25.7578 126.355 24.4638C126.355 22.04 121.424 22.307 121.424 19.0205C121.424 17.0897 122.806 16.0627 124.642 16.0627C126.644 16.0627 127.778 17.0281 127.696 19.267H126.252C126.272 18.0757 125.88 17.2746 124.56 17.2746C123.714 17.2746 122.868 17.7059 122.868 18.8767C122.868 21.28 127.799 20.9308 127.799 24.4021C127.799 26.7027 126.21 27.4421 124.395 27.4421C121.156 27.4627 121.156 24.9978 121.176 23.9708L122.559 23.9503Z" fill="white"/>
		<path d="M129.078 16.2681H130.481V23.2725C130.481 25.6757 131.203 26.2714 132.544 26.2714C133.885 26.2714 134.608 25.6552 134.608 23.2725V16.2887H136.011V23.2108C136.011 26.2303 134.876 27.4422 132.565 27.4422C130.254 27.4422 129.12 26.2508 129.12 23.2108L129.078 16.2681Z" fill="white"/>
		<path d="M139.208 27.2162H137.806V16.2681H139.208V27.2162Z" fill="white"/>
		<path d="M142.117 23.9503V24.2789C142.117 25.7578 143.067 26.2303 143.954 26.2303C145.068 26.2303 145.914 25.7578 145.914 24.4638C145.914 22.04 140.983 22.307 140.983 19.0205C140.983 17.0897 142.365 16.0627 144.201 16.0627C146.203 16.0627 147.337 17.0281 147.234 19.267H145.769C145.79 18.0757 145.419 17.2746 144.077 17.2746C143.252 17.2746 142.386 17.7059 142.386 18.8767C142.386 21.28 147.317 20.9308 147.317 24.4021C147.317 26.7027 145.728 27.4421 143.912 27.4421C140.673 27.4627 140.673 24.9978 140.714 23.9708L142.117 23.9503Z" fill="white"/>
		<path d="M149.772 23.9503V24.2789C149.772 25.7578 150.721 26.2303 151.608 26.2303C152.722 26.2303 153.568 25.7578 153.568 24.4638C153.568 22.04 148.637 22.307 148.637 19.0205C148.637 17.0897 150.02 16.0627 151.856 16.0627C153.857 16.0627 154.992 17.0281 154.889 19.267H153.424C153.444 18.0757 153.052 17.2746 151.732 17.2746C150.907 17.2746 150.04 17.7059 150.04 18.8767C150.04 21.28 154.971 20.9308 154.971 24.4021C154.971 26.7027 153.383 27.4421 151.567 27.4421C148.328 27.4627 148.328 24.9978 148.348 23.9708L149.772 23.9503Z" fill="white"/>
		<path d="M156.333 27.2162V16.2681H161.986V17.48H157.736V20.9925H161.697V22.2043H157.736V25.9838H162.089V27.1957H156.333V27.2162Z" fill="white"/>
		<path d="M0.439209 43.2584V32.3308H4.0085C5.53525 32.3308 6.05105 32.8443 6.46368 33.4605C6.73189 33.8919 6.89695 34.4054 6.89695 34.9189C6.89695 36.2746 6.42242 37.1989 5.01946 37.507V37.5892C6.58747 37.7741 7.26832 38.6984 7.26832 40.2184C7.26832 43.0119 5.20514 43.2995 3.96724 43.2995L0.439209 43.2584ZM1.84217 36.9319H3.88471C4.9782 36.9114 5.51462 36.2541 5.51462 35.1859C5.51462 34.2822 4.99883 33.5427 3.82282 33.5427H1.84217V36.9319ZM1.84217 42.0465H3.82282C5.3083 42.0465 5.84473 40.9784 5.84473 40.1773C5.84473 38.4314 4.77188 38.1438 3.32766 38.1438H1.84217V42.0465Z" fill="white"/>
		<path d="M0.439209 59.3195V48.392H4.0085C5.53525 48.392 6.05105 48.9055 6.46368 49.5217C6.73189 49.953 6.89695 50.4666 6.89695 50.9801C6.89695 52.3358 6.42242 53.2601 5.01946 53.5682V53.6503C6.58747 53.8352 7.26832 54.7595 7.26832 56.2795C7.26832 59.073 5.20514 59.3606 3.96724 59.3606L0.439209 59.3195ZM1.84217 52.993H3.88471C4.9782 52.9725 5.51462 52.3152 5.51462 51.2471C5.51462 50.3433 4.99883 49.6039 3.82282 49.6039H1.84217V52.993ZM1.84217 58.1076H3.82282C5.3083 58.1076 5.84473 57.0395 5.84473 56.2385C5.84473 54.4925 4.77188 54.2049 3.32766 54.2049H1.84217V58.1076Z" fill="white"/>
		<path d="M11.2709 32.3308H13.0453L16.6146 43.2584H15.0466L14.2626 40.6497H10.0124L9.18714 43.2584H7.78418L11.2709 32.3308ZM12.1168 33.6249H12.0756L10.3631 39.4378H13.8705L12.1168 33.6249Z" fill="white"/>
		<path d="M11.2709 48.392H13.0453L16.6146 59.3195H15.0466L14.2626 56.7109H10.0124L9.18714 59.3195H7.78418L11.2709 48.392ZM12.1168 49.686H12.0756L10.3631 55.499H13.8705L12.1168 49.686Z" fill="white"/>
		<path d="M24.8673 32.3308V43.2584H22.9485L18.6158 33.7686H18.5746V43.2378H17.3367V32.3102H19.3173L23.5881 41.6767H23.6294V32.3102H24.8673V32.3308Z" fill="white"/>
		<path d="M24.8673 48.3919V59.3195H22.9485L18.6158 49.8298H18.5746V59.299H17.3367V48.3714H19.3173L23.5881 57.7379H23.6294V48.3714H24.8673V48.3919Z" fill="white"/>
		<path d="M31.4488 35.3503C31.4694 34.7341 31.4282 34.1179 31.1393 33.7687C30.8505 33.4195 30.1903 33.2962 29.9014 33.2962C28.7461 33.2962 28.2922 33.9946 28.2509 34.1384C28.2096 34.2616 27.9208 34.5287 27.9208 36.4184V39.3352C27.9208 42.026 28.8079 42.3341 29.8808 42.3341C30.3141 42.3341 31.5932 42.1903 31.6139 40.0541H33.0581C33.12 43.5049 30.6648 43.5049 29.9633 43.5049C28.6016 43.5049 26.4972 43.4227 26.4972 39.1708V36.0898C26.4972 33.0087 27.8589 32.1254 30.0252 32.1254C32.1916 32.1254 33.0375 33.2346 32.893 35.3708L31.4488 35.3503Z" fill="white"/>
		<path d="M31.4488 51.4115C31.4694 50.7952 31.4282 50.179 31.1393 49.8298C30.8505 49.4806 30.1903 49.3574 29.9014 49.3574C28.7461 49.3574 28.2922 50.0558 28.2509 50.1996C28.2096 50.3228 27.9208 50.5898 27.9208 52.4796V55.3963C27.9208 58.0871 28.8079 58.3952 29.8808 58.3952C30.3141 58.3952 31.5932 58.2514 31.6139 56.1152H33.0581C33.12 59.566 30.6648 59.566 29.9633 59.566C28.6016 59.566 26.4972 59.4839 26.4972 55.232V52.1509C26.4972 49.0698 27.8589 48.1866 30.0252 48.1866C32.1916 48.1866 33.0375 49.2958 32.893 51.432L31.4488 51.4115Z" fill="white"/>
		<path d="M36.7305 32.3308H38.5049L42.0742 43.2584H40.5062L39.7221 40.6497H35.472L34.6467 43.2584H33.2231L36.7305 32.3308ZM37.5764 33.6249H37.5558L35.8434 39.4378H39.3508L37.5764 33.6249Z" fill="white"/>
		<path d="M36.7305 48.392H38.5049L42.0742 59.3195H40.5062L39.7221 56.7109H35.472L34.6467 59.3195H33.2231L36.7305 48.392ZM37.5764 49.686H37.5558L35.8434 55.499H39.3508L37.5764 49.686Z" fill="white"/>
		<path d="M52.9058 32.3308V43.2584H50.9871L46.6544 33.7686H46.6338V43.2378H45.3959V32.3102H47.3765L51.6473 41.6767H51.6679V32.3102H52.9058V32.3308Z" fill="white"/>
		<path d="M57.1353 32.3308H58.9097L62.479 43.2584H60.9109L60.1269 40.6497H55.8768L55.0515 43.2584H53.6279L57.1353 32.3308ZM57.9812 33.6249H57.9606L56.2482 39.4378H59.7556L57.9812 33.6249Z" fill="white"/>
		<path d="M68.9987 33.7276L63.5519 42.0465H69.1225V43.2584H62.2521V41.6768L67.5751 33.5632V33.5427H62.4378V32.3308H68.9987V33.7276Z" fill="white"/>
		<path d="M71.5156 43.2584H70.1127V32.3308H71.5156V43.2584Z" fill="white"/>
		<path d="M73.3105 39.253V35.6584C73.3105 33.4811 74.4453 32.0844 76.7561 32.0844C79.0668 32.0844 80.2016 33.4811 80.2016 35.6584V39.253C80.2016 42.2725 79.0668 43.4843 76.7561 43.4843C74.4453 43.4843 73.3105 42.293 73.3105 39.253ZM78.778 39.3146V35.6173C78.778 33.3373 77.1893 33.2552 76.7561 33.2552C76.3228 33.2552 74.7341 33.3373 74.7341 35.6173V39.3146C74.7341 41.6973 75.4356 42.3135 76.7561 42.3135C78.0765 42.3135 78.778 41.7179 78.778 39.3146Z" fill="white"/>
		<path d="M89.4446 32.3308V43.2584H87.5259L83.1932 33.7686H83.1726V43.2378H81.9347V32.3102H83.9153L88.1861 41.6767H88.2067V32.3102H89.4446V32.3308Z" fill="white"/>
		<path d="M93.6535 32.3308H95.4278L98.9971 43.2584H97.4291L96.6451 40.6497H92.4156L91.5903 43.2584H90.1667L93.6535 32.3308ZM94.4994 33.6249H94.4788L92.7457 39.4378H96.2531L94.4994 33.6249Z" fill="white"/>
		<path d="M99.6575 43.2584V32.3308H101.06V42.0465H105.084V43.2584H99.6575Z" fill="white"/>
		<path d="M105.599 43.2584V32.3308H111.252V33.5427H107.002V37.0551H110.964V38.267H107.002V42.0465H111.356V43.2584H105.599Z" fill="white"/>
		<path d="M116.06 40.013V40.3416C116.06 41.8206 117.009 42.293 117.896 42.293C119.01 42.293 119.856 41.8206 119.856 40.5265C119.856 38.1027 114.925 38.3698 114.925 35.0833C114.925 33.1525 116.307 32.1254 118.143 32.1254C120.145 32.1254 121.279 33.0908 121.176 35.3298H119.711C119.732 34.1384 119.34 33.3579 118.02 33.3579C117.194 33.3579 116.328 33.7892 116.328 34.96C116.328 37.3633 121.259 37.0141 121.259 40.4854C121.259 42.786 119.67 43.5254 117.855 43.5254C114.615 43.546 114.615 41.0811 114.657 40.0335L116.06 40.013Z" fill="white"/>
		<path d="M126.437 43.2584H124.766L121.589 32.3308H123.116L125.633 41.9438H125.653L128.232 32.3308H129.656L126.437 43.2584Z" fill="white"/>
		<path d="M131.864 43.2584H130.461V32.3308H131.864V43.2584Z" fill="white"/>
		<path d="M139.559 33.7276L134.112 42.0465H139.683V43.2584H132.813V41.6768L138.136 33.5632V33.5427H132.998V32.3308H139.559V33.7276Z" fill="white"/>
		<path d="M146.368 33.7276L140.921 42.0465H146.491V43.2584H139.621V41.6768L144.944 33.5632V33.5427H139.807V32.3308H146.368V33.7276Z" fill="white"/>
		<path d="M147.296 43.2584V32.3308H152.949V33.5427H148.678V37.0551H152.64V38.267H148.678V42.0465H153.032V43.2584H147.296Z" fill="white"/>
		<path d="M155.446 38.2259V43.2584H154.043V32.3308H157.818C159.758 32.3308 160.459 33.6865 160.459 35.0627C160.459 36.3568 159.737 37.3427 158.458 37.5686V37.6097C159.716 37.8151 160.17 38.2259 160.253 40.4238C160.274 40.8962 160.418 42.6011 160.624 43.2789H159.159C158.767 42.5189 158.85 41.1016 158.726 39.6432C158.623 38.3081 157.529 38.2465 157.076 38.2465L155.446 38.2259ZM155.446 37.0141H157.55C158.561 37.0141 159.036 36.1514 159.036 35.1859C159.036 34.4054 158.644 33.5222 157.55 33.5222H155.446V37.0141Z" fill="white"/>
		<path d="M164.214 32.3308H165.989L169.558 43.2584H167.99L167.206 40.6497H162.976L162.151 43.2584H160.748L164.214 32.3308ZM165.06 33.6249H165.039L163.306 39.4378H166.814L165.06 33.6249Z" fill="white"/>
		<path d="M52.9265 48.373V59.3006H51.0077L46.675 49.8314H46.6338V59.3006H45.3959V48.373H47.3765L51.6473 57.7395H51.6679V48.373H52.9265V48.373Z" fill="white"/>
		<path d="M57.1354 48.373H58.9098L62.4791 59.3006H60.9111L60.1271 56.6919H55.8769L55.0516 59.3006H53.6487L57.1354 48.373ZM57.9813 49.667H57.9607L56.2483 55.5006H59.7557L57.9813 49.667Z" fill="white"/>
		<path d="M69.0193 49.7697L63.5725 58.0887H69.1431V59.3006H62.2727V57.7189L67.5957 49.6054V49.5849H62.4584V48.373H69.0193V49.7697V49.7697Z" fill="white"/>
		<path d="M71.5158 59.3211H70.1128V48.3935H71.5158V59.3211Z" fill="white"/>
		<path d="M73.3107 48.373H74.7136V55.3773C74.7136 57.76 75.4357 58.3762 76.7768 58.3762C78.1179 58.3762 78.84 57.76 78.84 55.3773V48.373H80.2429V55.3157C80.2429 58.3351 79.1082 59.547 76.7974 59.547C74.4867 59.547 73.3519 58.3557 73.3519 55.3157L73.3107 48.373Z" fill="white"/>
		<path d="M89.4447 48.373V59.3006H87.5259L83.1932 49.8314H83.1726V59.3006H81.9347V48.373H83.9153L88.1861 57.7395H88.2067V48.373H89.4447V48.373Z" fill="white"/>
		<path d="M93.6535 48.373H95.4278L98.9971 59.3006H97.4291L96.6451 56.6919H92.395L91.5697 59.3006H90.1667L93.6535 48.373ZM94.5201 49.667H94.4994L92.787 55.5006H96.2944L94.5201 49.667Z" fill="white"/>
		<path d="M99.6575 59.3211V48.3935H101.06V58.1092H105.084V59.3211H99.6575Z" fill="white"/>
		<path d="M108.096 48.373H109.87L113.44 59.3006H111.872L111.088 56.6919H106.837L106.012 59.3006H104.609L108.096 48.373ZM108.942 49.667H108.901L107.188 55.5006H110.696L108.942 49.667Z" fill="white"/>
		<path d="M117.751 56.0551V56.3632C117.751 57.8422 118.701 58.3146 119.588 58.3146C120.702 58.3146 121.548 57.8422 121.548 56.5481C121.548 54.1243 116.617 54.3914 116.617 51.1049C116.617 49.1741 117.999 48.147 119.835 48.147C121.837 48.147 122.971 49.1124 122.889 51.3514H121.424C121.445 50.16 121.053 49.3795 119.732 49.3795C118.886 49.3795 118.04 49.8108 118.04 50.9816C118.04 53.3849 122.971 53.0357 122.971 56.507C122.971 58.8076 121.383 59.547 119.567 59.547C116.328 59.5676 116.328 57.1027 116.349 56.0551H117.751Z" fill="white"/>
		<path d="M128.129 59.3211H126.458L123.281 48.3935H124.808L127.304 58.0065H127.345L129.924 48.3935H131.348L128.129 59.3211Z" fill="white"/>
		<path d="M133.555 59.3211H132.152V48.3935H133.555V59.3211Z" fill="white"/>
		<path d="M141.272 49.7697L135.825 58.0887H141.396V59.3006H134.525V57.7189L139.848 49.6054V49.5849H134.711V48.373H141.272V49.7697V49.7697Z" fill="white"/>
		<path d="M143.562 54.2886V59.3211H142.159V48.3935H145.955C147.895 48.3935 148.596 49.7492 148.596 51.1254C148.596 52.4194 147.874 53.4054 146.595 53.6313V53.6519C147.853 53.8573 148.307 54.2681 148.39 56.4659C148.41 56.9384 148.555 58.6432 148.761 59.3211H147.296C146.904 58.5611 146.987 57.1438 146.863 55.6854C146.76 54.3502 145.666 54.2886 145.212 54.2886H143.562ZM143.562 53.0767H145.666C146.677 53.0767 147.152 52.214 147.152 51.2486C147.152 50.4681 146.76 49.5848 145.666 49.5848H143.562V53.0767Z" fill="white"/>
		<path d="M152.31 48.373H154.084L157.653 59.3006H156.085L155.301 56.6919H151.051L150.226 59.3006H148.823L152.31 48.373ZM153.176 49.667H153.135L151.422 55.5006H154.93L153.176 49.667Z" fill="white"/>
		<path d="M1.3677 72.0973V72.4054C1.3677 73.8843 2.31676 74.3568 3.20393 74.3568C4.31804 74.3568 5.16395 73.8843 5.16395 72.5903C5.16395 70.1665 0.232957 70.4541 0.232957 67.1676C0.232957 65.2368 1.61528 64.1892 3.45151 64.1892C5.45279 64.1892 6.58754 65.1546 6.48438 67.373H5.01952C5.04016 66.1816 4.64815 65.4011 3.32772 65.4011C2.48182 65.4011 1.63592 65.8325 1.63592 67.0033C1.63592 69.4065 6.56691 69.0573 6.56691 72.5287C6.56691 74.8292 4.97826 75.5687 3.16267 75.5687C-0.035256 75.6097 -0.035256 73.1449 -0.0146242 72.0973H1.3677Z" fill="white"/>
		<path d="M6.81445 64.4357H8.29994L10.3631 73.9048H10.4044L12.612 64.4357H14.4276L16.4289 73.9048H16.4701L18.6983 64.4357H20.1632L17.2541 75.3632H15.5417L13.4579 65.8735H13.396L11.1884 75.3632H9.47595L6.81445 64.4357Z" fill="white"/>
		<path d="M22.247 75.3632H20.844V64.4357H22.247V75.3632Z" fill="white"/>
		<path d="M25.1561 72.0973V72.4054C25.1561 73.8843 26.1052 74.3567 26.9924 74.3567C28.1065 74.3567 28.9524 73.8843 28.9524 72.5903C28.9524 70.1665 24.0214 70.4335 24.0214 67.147C24.0214 65.2162 25.4037 64.1686 27.24 64.1686C29.2412 64.1686 30.376 65.134 30.2934 67.3524H28.8286C28.8492 66.1611 28.4572 65.3805 27.1368 65.3805C26.2909 65.3805 25.445 65.8119 25.445 66.9827C25.445 69.3859 30.376 69.0367 30.376 72.5081C30.376 74.8086 28.7873 75.5481 26.9717 75.5481C23.7326 75.5686 23.7325 73.1038 23.7532 72.0562H25.1561V72.0973Z" fill="white"/>
		<path d="M32.8104 72.0973V72.4054C32.8104 73.8843 33.7595 74.3567 34.6467 74.3567C35.7608 74.3567 36.6067 73.8843 36.6067 72.5903C36.6067 70.1665 31.6757 70.4335 31.6757 67.147C31.6757 65.2162 33.058 64.1686 34.8942 64.1686C36.8955 64.1686 38.0303 65.134 37.9271 67.3524H36.4623C36.4829 66.1611 36.0909 65.3805 34.7705 65.3805C33.9246 65.3805 33.0787 65.8119 33.0787 66.9827C33.0787 69.3859 38.0096 69.0367 38.0096 72.5081C38.0096 74.8086 36.421 75.5481 34.6054 75.5481C31.3662 75.5686 31.3662 73.1038 31.3868 72.0562H32.8104V72.0973Z" fill="white"/>
		<path d="M49.5634 64.4357V75.3632H47.6447L43.312 65.894H43.2914V75.3632H42.0328V64.4357H44.0135L48.2843 73.8021H48.3049V64.4357H49.5634Z" fill="white"/>
		<path d="M53.7723 64.4357H55.5466L59.1159 75.3632H57.5479L56.7639 72.7546H52.5138L51.6885 75.3632H50.2649L53.7723 64.4357ZM54.6182 65.7092H54.5976L52.8851 71.5427H56.3925L54.6182 65.7092Z" fill="white"/>
		<path d="M64.8103 64.4357V65.6476H61.9219V75.3632H60.5189V65.6476H57.6305V64.4357H64.8103Z" fill="white"/>
		<path d="M67.018 75.3632H65.615V64.4357H67.018V75.3632Z" fill="white"/>
		<path d="M68.813 71.3578V67.7838C68.813 65.6065 69.9477 64.2097 72.2585 64.2097C74.5692 64.2097 75.704 65.6065 75.704 67.7838V71.3784C75.704 74.4184 74.5692 75.6097 72.2585 75.6097C69.9477 75.6097 68.813 74.3978 68.813 71.3578ZM74.301 71.4194V67.7221C74.301 65.4421 72.7124 65.36 72.2791 65.36C71.8459 65.36 70.2572 65.4421 70.2572 67.7221V71.4194C70.2572 73.8021 70.9587 74.4184 72.2791 74.4184C73.5996 74.4184 74.301 73.8227 74.301 71.4194Z" fill="white"/>
		<path d="M84.947 64.4357V75.3632H83.0282L78.6955 65.894H78.6749V75.3632H77.437V64.4357H79.4177L83.6884 73.8021H83.7091V64.4357H84.947Z" fill="white"/>
		<path d="M89.1765 64.4357H90.9508L94.5201 75.3632H92.9521L92.1681 72.7546H87.9179L87.0927 75.3632H85.6691L89.1765 64.4357ZM90.0224 65.7092H90.0017L88.2893 71.5427H91.7967L90.0224 65.7092Z" fill="white"/>
		<path d="M95.1803 75.3632V64.4357H96.5833V74.1513H100.606V75.3632H95.1803Z" fill="white"/>
		<path d="M103.825 75.3632V64.4357H107.394C108.921 64.4357 109.437 64.9492 109.849 65.5654C110.118 65.9967 110.283 66.5103 110.283 67.0238C110.283 68.3794 109.808 69.2832 108.405 69.6119V69.694C109.973 69.8789 110.654 70.8238 110.654 72.3232C110.654 75.1167 108.591 75.4043 107.353 75.4043L103.825 75.3632ZM105.228 69.0367H107.27C108.364 69.0162 108.9 68.3589 108.9 67.2908C108.9 66.387 108.385 65.6476 107.209 65.6476H105.228V69.0367ZM105.228 74.1513H107.209C108.694 74.1513 109.23 73.0832 109.23 72.2821C109.23 70.5362 108.158 70.2281 106.713 70.2281H105.228V74.1513Z" fill="white"/>
		<path d="M114.657 64.4357H116.431L120 75.3632H118.432L117.648 72.7546H113.398L112.573 75.3632H111.149L114.657 64.4357ZM115.503 65.7092H115.482L113.77 71.5427H117.277L115.503 65.7092Z" fill="white"/>
		<path d="M128.274 64.4357V75.3632H126.355L122.022 65.894H121.981V75.3632H120.743V64.4357H122.724L126.994 73.8021H127.036V64.4357H128.274Z" fill="white"/>
		<path d="M130.007 75.3633V64.4357H131.41V69.2216H131.451L135.288 64.4152H136.877L132.895 69.3449L137.104 75.3427H135.309L131.472 69.653H131.43V75.3633H130.007V75.3633Z" fill="white"/>
		<path d="M192.541 76H188.663V72.3232H184.97V68.4616H188.663V64.7849H192.541V68.4616H196.235V72.3232H192.541V76ZM189.261 75.3838H191.902V71.707H195.595V69.0778H191.902V65.4011H189.261V69.0778H185.568V71.707H189.261V75.3838Z" fill="white"/>
	</g>
</svg>
