<svg width="176" height="29" viewBox="0 0 176 29" fill="none" xmlns="http://www.w3.org/2000/svg" preserveAspectRatio="xMinYMin meet">
<path d="M176 19.2422H167.554V27.6806H158.363V19.2422H149.917V9.9352H158.363V1.49684H167.554V9.9352H176V19.2422ZM173.888 12.1689H165.442V3.60643H160.474V12.1689H152.028V17.1326H160.474V25.571H165.442V17.1326H173.888V12.1689Z" fill="#fff"/>
<path d="M32.542 1.49637H35.3987V27.6801H30.5547L21.7361 4.10234V27.6801H18.8793V1.49637H23.7234L32.542 25.0741V1.49637ZM8.94284 13.5334L7.70078 12.6648C5.21665 11.1757 3.60198 10.1829 3.60198 7.32877C3.60198 4.97099 4.96824 3.48187 7.45236 3.48187C10.5575 3.48187 11.1785 5.09509 11.1785 7.57695V8.19742H14.2837V7.32877C14.2837 2.8614 11.7996 1 7.45236 1C3.35356 1 0.372618 3.23368 0.372618 7.57695C0.372618 11.7961 2.73253 13.2853 5.83769 15.2707L7.32816 16.1394C9.81228 17.6285 11.3028 18.6213 11.3028 21.4754C11.3028 24.0814 10.1849 25.6946 7.32816 25.6946C3.97459 25.6946 3.22936 23.4609 3.22936 20.6068V20.3586H0V20.6068C0 25.6946 2.1115 28.1765 7.32816 28.1765C11.6754 28.1765 14.5321 25.9428 14.5321 21.2272C14.5321 16.884 12.2964 15.5189 8.94284 13.5334ZM55.1475 20.4827C55.1475 25.9428 52.415 27.6801 47.3225 27.6801H40.8638V1.49637H47.8193C52.415 1.49637 54.6507 3.35778 54.6507 8.07333C54.6507 11.1757 53.7812 13.0371 50.6761 14.0298C54.2781 14.8985 55.1475 17.0081 55.1475 20.4827ZM43.969 12.913H47.1983C50.4277 12.913 51.6697 11.2998 51.6697 8.19742C51.6697 4.8469 50.055 3.97824 47.0741 3.97824H43.969V12.913ZM52.0423 20.3586C52.0423 17.0081 50.8003 15.2707 47.3225 15.2707H43.969V25.1982H46.7015C50.1793 25.1982 52.0423 24.4537 52.0423 20.3586Z" fill="#fff"/>
<path d="M128.677 21.2272C128.677 25.8187 125.821 28.1765 121.474 28.1765C116.257 28.1765 114.145 25.6946 114.145 20.6068V20.3586H117.375V20.6068C117.375 23.4609 118.12 25.6946 121.474 25.6946C124.33 25.6946 125.448 24.0814 125.448 21.4754C125.448 18.6213 123.958 17.6285 121.474 16.1394L119.983 15.2707C116.878 13.4093 114.518 11.7961 114.518 7.57695C114.518 3.23368 117.499 1 121.722 1C126.069 1 128.553 2.8614 128.553 7.32877V8.19742H125.448V7.57695C125.448 5.09508 124.703 3.48187 121.722 3.48187C119.238 3.48187 117.872 4.97099 117.872 7.45286C117.872 10.1829 119.486 11.2998 121.97 12.7889L123.212 13.5334C126.442 15.5189 128.677 16.884 128.677 21.2272ZM106.941 25.0741L98.1228 1.49637H93.2787V27.6801H96.1355V4.10234L104.954 27.6801H109.798V1.49637H106.941V25.0741ZM88.6831 20.4827C88.6831 25.9428 85.9506 27.6801 80.8581 27.6801H74.3994V1.49637H81.355C85.9506 1.49637 88.1863 3.35778 88.1863 8.07333C88.1863 11.1757 87.3168 13.0371 84.2117 14.0298C87.8137 14.8985 88.6831 17.0081 88.6831 20.4827ZM77.3804 12.913H80.6097C83.8391 12.913 85.0811 11.2998 85.0811 8.19742C85.0811 4.8469 83.4665 3.97824 80.4855 3.97824H77.3804V12.913ZM85.4538 20.3586C85.4538 17.0081 84.2117 15.2707 80.7339 15.2707H77.3804V25.1982H80.1129C83.5907 25.1982 85.4538 24.4537 85.4538 20.3586Z" fill="#fff"/>
</svg>
