<?xml version="1.0" encoding="utf-8"?>
<!-- Generator: Adobe Illustrator 22.0.1, SVG Export Plug-In . SVG Version: 6.00 Build 0)  -->
<svg version="1.1" id="Layer_1" xmlns="http://www.w3.org/2000/svg" xmlns:xlink="http://www.w3.org/1999/xlink" x="0px" y="0px"
	 viewBox="0 0 363 68" style="enable-background:new 0 0 363 68;" xml:space="preserve">
<style type="text/css">
	.st0{fill:#FFFFFF;stroke:#000000;}
	.st1{fill:#0972BA;}
</style>
<g>
	<path d="M75,28.1c-2.2,0-3.9-0.8-5.1-2.5c-1.2-1.6-1.8-3.7-1.8-6.1c0-2.4,0.6-4.4,1.9-6c1.3-1.6,3-2.4,5.1-2.4
		c2.1,0,3.8,0.8,5.1,2.4c1.2,1.6,1.9,3.6,1.9,6c0,2.5-0.6,4.6-1.9,6.2C78.9,27.4,77.2,28.1,75,28.1z M75.1,25.7c1.1,0,2-0.4,2.7-1.3
		s1.1-2.5,1.1-4.8c0-1.9-0.3-3.4-0.9-4.4c-0.6-1.1-1.6-1.6-2.8-1.6c-2.5,0-3.8,2-3.8,6.1c0,2,0.3,3.5,1,4.5
		C72.9,25.2,73.9,25.7,75.1,25.7z"/>
	<path d="M88,27.9h-2.7v-10h-1.8v-2.1h1.8v-0.6c0-1.2,0.3-2.1,0.9-2.9c0.6-0.7,1.7-1.1,3.5-1.1c0.3,0,0.6,0,1,0v2.2
		c-0.3,0-0.6,0-0.7,0c-0.7,0-1.1,0.1-1.4,0.3c-0.3,0.2-0.4,0.4-0.5,0.6C88,14.5,88,15,88,15.7h2.7v2.1H88V27.9z"/>
	<path d="M96.2,27.9h-2.8v-10h-1.8v-2.1h1.8c0-1.2,0.2-2.1,0.5-2.7c0.3-0.6,0.8-1,1.3-1.3c0.6-0.3,1.3-0.5,2-0.5c0.4,0,1,0,1.7,0.1
		v2.2c-0.2,0-0.3,0-0.4,0c-0.8,0-1.4,0.1-1.6,0.2c-0.3,0.1-0.5,0.4-0.5,0.6c-0.1,0.3-0.1,0.7-0.1,1.4h2.7v2.1h-2.7V27.9z M103,11.4
		v2.9h-2.8v-2.9H103z M103,15.7v12.2h-2.8V15.7H103z"/>
	<path d="M113.5,23.4l2.4,0.2c-0.3,1.5-0.9,2.7-1.8,3.4c-0.9,0.7-1.9,1.1-3.2,1.1c-1.7,0-3-0.6-3.9-1.8c-0.9-1.2-1.4-2.7-1.4-4.5
		c0-1.8,0.5-3.3,1.5-4.5c1-1.2,2.3-1.8,4-1.8c2.7,0,4.2,1.4,4.7,4.2l-2.4,0.3c-0.2-1.5-1-2.3-2.2-2.3c-0.9,0-1.6,0.4-2,1.2
		c-0.4,0.8-0.6,1.8-0.6,3c0,1.2,0.2,2.2,0.7,2.8c0.4,0.7,1,1,1.8,1C112.3,25.7,113.1,25,113.5,23.4z"/>
	<path d="M125.9,24l2.5,0.3c-0.3,1.1-0.9,2-1.9,2.7c-0.9,0.7-2.1,1.1-3.5,1.1c-1.7,0-3-0.6-4.1-1.7c-1-1.1-1.5-2.7-1.5-4.6
		c0-1.8,0.5-3.4,1.6-4.6c1-1.2,2.4-1.8,4.2-1.8c1.7,0,3.1,0.6,4,1.8c0.9,1.2,1.4,2.7,1.4,4.6l0,0.3h-8.3c0,0.8,0.1,1.5,0.2,2
		c0.2,0.5,0.5,0.9,0.9,1.3c0.5,0.4,1,0.6,1.7,0.6C124.6,26,125.5,25.3,125.9,24z M125.8,20.4c0-0.9-0.3-1.6-0.8-2.1
		c-0.5-0.6-1.2-0.8-1.9-0.8c-0.8,0-1.4,0.3-1.9,0.8c-0.5,0.5-0.8,1.3-0.9,2.2H125.8z"/>
	<path d="M142.5,28.1c-1.8,0-3.2-0.6-4.1-1.9c-0.9-1.3-1.4-2.8-1.4-4.4c0-1.8,0.5-3.3,1.6-4.5c1-1.2,2.4-1.8,4.1-1.8
		c1.6,0,3,0.6,4,1.7c1,1.2,1.6,2.7,1.6,4.5c0,1.9-0.5,3.5-1.6,4.6C145.6,27.5,144.2,28.1,142.5,28.1z M142.6,25.9
		c1.8,0,2.8-1.4,2.8-4.1c0-1.2-0.2-2.2-0.7-2.9c-0.4-0.7-1.1-1.1-2-1.1c-0.9,0-1.7,0.4-2.1,1.1c-0.5,0.7-0.7,1.7-0.7,3
		c0,1.3,0.2,2.3,0.7,3C141.1,25.5,141.8,25.9,142.6,25.9z"/>
	<path d="M154.1,27.9h-2.7v-10h-1.8v-2.1h1.8v-0.6c0-1.2,0.3-2.1,0.9-2.9c0.6-0.7,1.7-1.1,3.5-1.1c0.3,0,0.6,0,1,0v2.2
		c-0.3,0-0.6,0-0.7,0c-0.7,0-1.1,0.1-1.4,0.3c-0.3,0.2-0.4,0.4-0.5,0.6c-0.1,0.2-0.1,0.7-0.1,1.5h2.7v2.1h-2.7V27.9z"/>
	<path d="M171.1,25.7v2.1c-0.8,0.2-1.5,0.3-1.9,0.3c-0.7,0-1.4-0.1-1.9-0.4c-0.5-0.3-0.9-0.7-1.2-1.2c-0.2-0.5-0.4-1.3-0.4-2.4v-6.3
		h-1.5v-2.1h1.7l0.3-3.2l2.3-0.2v3.4h2.4v2.1h-2.4v5.9c0,0.8,0.1,1.3,0.4,1.6c0.3,0.3,0.8,0.4,1.6,0.4
		C170.7,25.8,170.9,25.8,171.1,25.7z"/>
	<path d="M183.7,27.9H181v-8c0-0.9-0.2-1.5-0.5-1.8c-0.4-0.4-0.8-0.5-1.3-0.5c-0.8,0-1.4,0.3-2,0.9c-0.5,0.6-0.8,1.6-0.8,3.1v6.3
		h-2.7V11.4h2.7v6.4c0.7-1.8,1.9-2.6,3.6-2.6c2.5,0,3.7,1.4,3.7,4.3V27.9z"/>
	<path d="M195,24l2.5,0.3c-0.3,1.1-0.9,2-1.9,2.7c-0.9,0.7-2.1,1.1-3.5,1.1c-1.7,0-3-0.6-4.1-1.7s-1.5-2.7-1.5-4.6
		c0-1.8,0.5-3.4,1.6-4.6c1-1.2,2.4-1.8,4.2-1.8c1.7,0,3.1,0.6,4,1.8c0.9,1.2,1.4,2.7,1.4,4.6l0,0.3h-8.3c0,0.8,0.1,1.5,0.2,2
		c0.2,0.5,0.5,0.9,0.9,1.3c0.5,0.4,1,0.6,1.7,0.6C193.6,26,194.5,25.3,195,24z M194.8,20.4c0-0.9-0.3-1.6-0.8-2.1
		c-0.5-0.6-1.2-0.8-1.9-0.8c-0.8,0-1.4,0.3-1.9,0.8c-0.5,0.5-0.8,1.3-0.9,2.2H194.8z"/>
</g>
<g>
	<path d="M78.2,48l2.7,0.3c-0.2,1.6-0.8,3-1.9,4.1c-1.1,1.1-2.5,1.6-4.3,1.6c-1.5,0-2.7-0.4-3.7-1.1c-0.9-0.8-1.7-1.8-2.2-3.1
		c-0.5-1.3-0.8-2.7-0.8-4.3c0-2.5,0.6-4.5,1.8-6.1c1.2-1.6,2.8-2.4,4.9-2.4c1.6,0,3,0.5,4.1,1.5s1.8,2.4,2,4.3l-2.7,0.3
		c-0.5-2.5-1.6-3.7-3.3-3.7c-1.1,0-2,0.5-2.6,1.5c-0.6,1-0.9,2.5-0.9,4.5c0,2,0.3,3.5,1,4.5c0.7,1,1.5,1.5,2.6,1.5
		c0.9,0,1.6-0.3,2.2-1C77.7,49.7,78.1,48.9,78.2,48z"/>
	<path d="M88.1,53.9c-1.8,0-3.2-0.6-4.1-1.9c-0.9-1.3-1.4-2.8-1.4-4.4c0-1.8,0.5-3.3,1.6-4.5c1-1.2,2.4-1.8,4.1-1.8
		c1.6,0,3,0.6,4,1.7c1,1.2,1.6,2.7,1.6,4.5c0,1.9-0.5,3.5-1.6,4.6C91.2,53.3,89.8,53.9,88.1,53.9z M88.2,51.6c1.8,0,2.8-1.4,2.8-4.1
		c0-1.2-0.2-2.2-0.7-2.9c-0.4-0.7-1.1-1.1-2-1.1c-0.9,0-1.7,0.4-2.1,1.1c-0.5,0.7-0.7,1.7-0.7,3c0,1.3,0.2,2.3,0.7,3
		C86.7,51.3,87.4,51.6,88.2,51.6z"/>
	<path d="M114.8,53.7h-2.9v-7.6c0-1.6-0.7-2.4-2.1-2.4c-0.8,0-1.5,0.3-1.9,0.9c-0.5,0.6-0.7,1.5-0.7,2.7v6.4h-2.9v-7.6
		c0-1.6-0.7-2.4-2-2.4c-0.8,0-1.5,0.3-2,1c-0.5,0.6-0.8,1.5-0.8,2.6v6.4h-2.8V41.5h2.7v2.6c0.9-1.9,2.2-2.8,4.1-2.8
		c1.8,0,3,0.9,3.5,2.8c1-1.9,2.3-2.8,4.1-2.8c1.2,0,2.1,0.4,2.8,1.1c0.7,0.7,1.1,1.6,1.1,2.7V53.7z"/>
	<path d="M121.1,57.8h-2.8V41.5h2.6v2.1c0.8-1.6,2.1-2.4,3.7-2.4c1.3,0,2.4,0.6,3.2,1.8c0.8,1.2,1.2,2.7,1.2,4.5
		c0,1.7-0.4,3.2-1.1,4.5c-0.8,1.3-1.9,1.9-3.4,1.9c-1.6,0-2.7-0.7-3.4-2V57.8z M121.1,48.7c0,0.9,0.3,1.6,0.8,2.2
		c0.5,0.6,1.1,0.9,1.8,0.9c0.9,0,1.5-0.4,1.9-1.2c0.4-0.8,0.6-1.7,0.6-2.9c0-1.2-0.2-2.2-0.6-3c-0.4-0.8-1-1.2-1.8-1.2
		c-0.7,0-1.4,0.3-1.9,1c-0.5,0.6-0.8,1.5-0.8,2.5V48.7z"/>
	<path d="M137.5,51.5v2.1c-0.8,0.2-1.5,0.3-1.9,0.3c-0.7,0-1.4-0.1-1.9-0.4c-0.5-0.3-0.9-0.7-1.2-1.2c-0.2-0.5-0.4-1.3-0.4-2.4v-6.3
		h-1.5v-2.1h1.7l0.3-3.2l2.3-0.2v3.4h2.4v2.1h-2.4v5.9c0,0.8,0.1,1.3,0.4,1.6c0.3,0.3,0.8,0.4,1.6,0.4
		C137,51.5,137.3,51.5,137.5,51.5z"/>
	<path d="M142.8,53.7H140V41.5h2.5v2.9c0.4-1.1,0.8-2,1.5-2.5c0.6-0.5,1.3-0.8,1.9-0.8c0.1,0,0.2,0,0.4,0v3c-1.4,0-2.3,0.4-2.8,1.3
		c-0.5,0.9-0.7,1.8-0.7,2.6V53.7z"/>
	<path d="M152.8,53.9c-1.8,0-3.2-0.6-4.1-1.9s-1.4-2.8-1.4-4.4c0-1.8,0.5-3.3,1.6-4.5c1-1.2,2.4-1.8,4.1-1.8c1.6,0,3,0.6,4,1.7
		c1,1.2,1.6,2.7,1.6,4.5c0,1.9-0.5,3.5-1.6,4.6C155.8,53.3,154.5,53.9,152.8,53.9z M152.9,51.6c1.8,0,2.8-1.4,2.8-4.1
		c0-1.2-0.2-2.2-0.7-2.9c-0.4-0.7-1.1-1.1-2-1.1c-0.9,0-1.7,0.4-2.1,1.1c-0.5,0.7-0.7,1.7-0.7,3c0,1.3,0.2,2.3,0.7,3
		C151.4,51.3,152,51.6,152.9,51.6z"/>
	<path d="M164.1,53.7h-2.7V37.2h2.7V53.7z"/>
	<path d="M170.3,53.7h-2.7V37.2h2.7V53.7z"/>
	<path d="M181.6,49.8l2.5,0.3c-0.3,1.1-0.9,2-1.9,2.7c-0.9,0.7-2.1,1.1-3.5,1.1c-1.7,0-3-0.6-4.1-1.7s-1.5-2.7-1.5-4.6
		c0-1.8,0.5-3.4,1.6-4.6c1-1.2,2.4-1.8,4.2-1.8c1.7,0,3.1,0.6,4,1.8c0.9,1.2,1.4,2.7,1.4,4.6l0,0.3h-8.3c0,0.8,0.1,1.5,0.2,2
		c0.2,0.5,0.5,0.9,0.9,1.3c0.5,0.4,1,0.6,1.7,0.6C180.2,51.8,181.1,51.1,181.6,49.8z M181.4,46.1c0-0.9-0.3-1.6-0.8-2.1
		c-0.5-0.6-1.2-0.8-1.9-0.8c-0.8,0-1.4,0.3-1.9,0.8c-0.5,0.5-0.8,1.3-0.9,2.2H181.4z"/>
	<path d="M189.8,53.7H187V41.5h2.5v2.9c0.4-1.1,0.8-2,1.5-2.5c0.6-0.5,1.3-0.8,1.9-0.8c0.1,0,0.2,0,0.4,0v3c-1.4,0-2.3,0.4-2.8,1.3
		c-0.5,0.9-0.7,1.8-0.7,2.6V53.7z"/>
	<path d="M206.6,53.9c-1.8,0-3.2-0.6-4.1-1.9c-0.9-1.3-1.4-2.8-1.4-4.4c0-1.8,0.5-3.3,1.6-4.5c1-1.2,2.4-1.8,4.1-1.8
		c1.6,0,3,0.6,4,1.7c1,1.2,1.6,2.7,1.6,4.5c0,1.9-0.5,3.5-1.6,4.6C209.6,53.3,208.3,53.9,206.6,53.9z M206.7,51.6
		c1.8,0,2.8-1.4,2.8-4.1c0-1.2-0.2-2.2-0.7-2.9c-0.4-0.7-1.1-1.1-2-1.1c-0.9,0-1.7,0.4-2.1,1.1c-0.5,0.7-0.7,1.7-0.7,3
		c0,1.3,0.2,2.3,0.7,3C205.2,51.3,205.8,51.6,206.7,51.6z"/>
	<path d="M218.2,53.7h-2.7v-10h-1.8v-2.1h1.8v-0.6c0-1.2,0.3-2.1,0.9-2.9c0.6-0.7,1.7-1.1,3.5-1.1c0.3,0,0.6,0,1,0v2.2
		c-0.3,0-0.6,0-0.7,0c-0.7,0-1.1,0.1-1.4,0.3c-0.3,0.2-0.4,0.4-0.5,0.6c-0.1,0.2-0.1,0.7-0.1,1.5h2.7v2.1h-2.7V53.7z"/>
	<path d="M235.2,51.5v2.1c-0.8,0.2-1.5,0.3-1.9,0.3c-0.7,0-1.4-0.1-1.9-0.4c-0.5-0.3-0.9-0.7-1.2-1.2c-0.2-0.5-0.4-1.3-0.4-2.4v-6.3
		h-1.5v-2.1h1.7l0.3-3.2l2.3-0.2v3.4h2.4v2.1h-2.4v5.9c0,0.8,0.1,1.3,0.4,1.6c0.3,0.3,0.8,0.4,1.6,0.4
		C234.7,51.5,234.9,51.5,235.2,51.5z"/>
	<path d="M247.8,53.7H245v-8c0-0.9-0.2-1.5-0.5-1.8c-0.4-0.4-0.8-0.5-1.3-0.5c-0.8,0-1.4,0.3-2,0.9s-0.8,1.6-0.8,3.1v6.3h-2.7V37.2
		h2.7v6.4c0.7-1.8,1.9-2.6,3.6-2.6c2.5,0,3.7,1.4,3.7,4.3V53.7z"/>
	<path d="M259.1,49.8l2.5,0.3c-0.3,1.1-0.9,2-1.9,2.7c-0.9,0.7-2.1,1.1-3.5,1.1c-1.7,0-3-0.6-4.1-1.7c-1-1.1-1.5-2.7-1.5-4.6
		c0-1.8,0.5-3.4,1.6-4.6c1-1.2,2.4-1.8,4.2-1.8c1.7,0,3.1,0.6,4,1.8c0.9,1.2,1.4,2.7,1.4,4.6l0,0.3h-8.3c0,0.8,0.1,1.5,0.2,2
		c0.2,0.5,0.5,0.9,0.9,1.3c0.5,0.4,1,0.6,1.7,0.6C257.7,51.8,258.6,51.1,259.1,49.8z M258.9,46.1c0-0.9-0.3-1.6-0.8-2.1
		c-0.5-0.6-1.2-0.8-1.9-0.8c-0.8,0-1.4,0.3-1.9,0.8c-0.5,0.5-0.8,1.3-0.9,2.2H258.9z"/>
	<path d="M280.2,48l2.7,0.3c-0.2,1.6-0.8,3-1.9,4.1c-1.1,1.1-2.5,1.6-4.3,1.6c-1.5,0-2.7-0.4-3.7-1.1s-1.7-1.8-2.2-3.1
		s-0.8-2.7-0.8-4.3c0-2.5,0.6-4.5,1.8-6.1c1.2-1.6,2.8-2.4,4.9-2.4c1.6,0,3,0.5,4.1,1.5c1.1,1,1.8,2.4,2,4.3l-2.7,0.3
		c-0.5-2.5-1.6-3.7-3.3-3.7c-1.1,0-2,0.5-2.6,1.5c-0.6,1-0.9,2.5-0.9,4.5c0,2,0.3,3.5,1,4.5c0.7,1,1.5,1.5,2.6,1.5
		c0.9,0,1.6-0.3,2.2-1C279.8,49.7,280.2,48.9,280.2,48z"/>
	<path d="M295.4,53.7h-2.6V51c-0.7,1.9-2,2.9-3.8,2.9c-1.1,0-2-0.3-2.6-1c-0.7-0.7-1-1.6-1-2.9v-8.5h2.8v7.9c0,0.9,0.2,1.5,0.6,1.7
		c0.4,0.3,0.8,0.4,1.1,0.4c0.6,0,1.2-0.3,1.8-0.8c0.6-0.5,0.9-1.7,0.9-3.4v-5.8h2.7V53.7z"/>
	<path d="M301.7,53.7H299V41.5h2.5v2.9c0.4-1.1,0.8-2,1.5-2.5c0.6-0.5,1.3-0.8,1.9-0.8c0.1,0,0.2,0,0.4,0v3c-1.4,0-2.3,0.4-2.8,1.3
		c-0.5,0.9-0.7,1.8-0.7,2.6V53.7z"/>
	<path d="M310.2,53.7h-2.7V41.5h2.5v2.9c0.4-1.1,0.8-2,1.5-2.5c0.6-0.5,1.3-0.8,1.9-0.8c0.1,0,0.2,0,0.4,0v3c-1.4,0-2.3,0.4-2.8,1.3
		c-0.5,0.9-0.7,1.8-0.7,2.6V53.7z"/>
	<path d="M323.2,49.8l2.5,0.3c-0.3,1.1-0.9,2-1.9,2.7c-0.9,0.7-2.1,1.1-3.5,1.1c-1.7,0-3-0.6-4.1-1.7c-1-1.1-1.5-2.7-1.5-4.6
		c0-1.8,0.5-3.4,1.6-4.6s2.4-1.8,4.2-1.8c1.7,0,3.1,0.6,4,1.8c0.9,1.2,1.4,2.7,1.4,4.6l0,0.3h-8.3c0,0.8,0.1,1.5,0.2,2
		c0.2,0.5,0.5,0.9,0.9,1.3c0.5,0.4,1,0.6,1.7,0.6C321.8,51.8,322.7,51.1,323.2,49.8z M323,46.1c0-0.9-0.3-1.6-0.8-2.1
		c-0.5-0.6-1.2-0.8-1.9-0.8c-0.8,0-1.4,0.3-1.9,0.8c-0.5,0.5-0.8,1.3-0.9,2.2H323z"/>
	<path d="M338.6,53.7h-2.7v-7.6c0-0.8-0.2-1.4-0.6-1.8c-0.4-0.4-0.8-0.6-1.3-0.6c-0.7,0-1.3,0.3-1.9,0.9c-0.5,0.6-0.8,1.6-0.8,2.8
		v6.3h-2.7V41.5h2.5v2.8c0.9-2,2.1-3.1,3.7-3.1c1.1,0,2,0.3,2.7,1c0.8,0.7,1.1,1.9,1.1,3.6V53.7z"/>
	<path d="M349.2,49.2l2.4,0.2c-0.3,1.5-0.9,2.7-1.8,3.4c-0.9,0.7-1.9,1.1-3.2,1.1c-1.7,0-3-0.6-3.9-1.8c-0.9-1.2-1.4-2.7-1.4-4.5
		c0-1.8,0.5-3.3,1.5-4.5c1-1.2,2.3-1.8,4-1.8c2.7,0,4.2,1.4,4.7,4.2l-2.4,0.3c-0.2-1.5-1-2.3-2.2-2.3c-0.9,0-1.6,0.4-2,1.2
		c-0.4,0.8-0.6,1.8-0.6,3c0,1.2,0.2,2.2,0.7,2.8s1,1,1.8,1C348,51.5,348.8,50.7,349.2,49.2z"/>
	<path d="M363,41.5l-4.7,13.9c-0.3,0.9-0.7,1.5-1.2,2c-0.5,0.5-1.2,0.7-2.1,0.7c-0.4,0-0.9,0-1.6-0.1v-2.2l1.3,0
		c0.6,0,1-0.1,1.3-0.3c0.3-0.2,0.5-0.5,0.7-1c0.2-0.5,0.2-0.8,0.2-0.8c0,0-0.1-0.3-0.3-0.7l-4.2-11.4h2.9l3,8l2.5-8H363z"/>
</g>
<line class="st0" x1="67.7" y1="63.9" x2="363" y2="63.9"/>
<path class="st1" d="M30.7,7.2c15.4,0,27.5,12.2,27.5,27.2c0,15-12.4,27.2-27.8,27.2l0-13.7c8.6,0,14.4-7,13.9-14.4
	c-0.5-7.2-5.9-12.2-13.7-12.6V7.2z"/>
<path class="st1" d="M27.8,54.6c-15.4,0-27.5-12.2-27.5-27.2c0-15,12.4-27.1,27.8-27.1L28,14c-8.6,0-14.4,7-13.9,14.4
	C14.7,35.6,20,40.6,27.8,41V54.6z"/>
</svg>
