<?xml version="1.0" encoding="UTF-8"?> <svg xmlns="http://www.w3.org/2000/svg" version="1.2" viewBox="0 0 567 179" width="567" height="179"><title>FIAU Logo_Icon+Wordmark_Black-pdf</title><style> .s0 { fill: #000000 } </style><path id="Path 1" class="s0" d="m322.2 149.3h-24v-119.4h24zm-76.8-50h32.8v-22.1h-32.8zm-5.3-22.1v-24.9-22.4h-24v119.4h24v-43.9-6.1zm5.3-24.9h33.7v-22.4h-33.7zm297.5-22.4v72.6c0 14.7-6.9 25.4-21 26.5v22.4c29.4-1.2 45-21.5 45-48.9v-72.6zm-26.3 99.1c-14.4-1.2-21-11.5-21-26.3v-72.8h-23.9v72.8c0 28.6 14.2 47.7 44.9 48.7zm-117.8-68.7l5 13.6 27.6 75.4h25.2l-45.2-119.4h-23.7zm7.5 35.9h-20.4l10.1-28.1-11.9-32.4-41 113.7h23.6l11.7-32.8h35.4zm-314.1-45.4h-5.5l-3.6-50.9h12.7zm-10 0.6l-5.4 1.4-16.7-48.2 12.4-3.3zm-9.6 3.2l-4.8 2.7-28.6-42.2 11.1-6.4zm-8.4 5.5l-3.9 3.9-38.6-33.4 9-9zm-6.7 7.5l-2.7 4.8-45.9-22.3 6.3-11.1zm-4.5 9.1l-1.4 5.3-50.1-9.7 3.3-12.3zm-2 9.9v5.5l-51 3.6v-12.7zm0.6 10l1.5 5.4-48.3 16.7-3.3-12.4zm3.2 9.6l2.8 4.8-42.3 28.6-6.4-11.1zm5.6 8.4l3.9 3.9-33.4 38.6-9.1-9zm7.6 6.7l4.8 2.7-22.3 45.9-11.1-6.3zm9 4.5l5.3 1.4-9.6 50.1-12.4-3.3zm9.9 2h5.5l3.7 51h-12.8zm10.1-0.6l5.3-1.5 16.7 48.3-12.3 3.3zm9.5-3.2l4.8-2.8 28.6 42.3-11 6.4zm8.4-5.6l3.9-3.9 38.6 33.4-9.1 9.1zm6.7-7.6l2.8-4.8 45.9 22.3-6.4 11.1zm4.5-9l1.5-5.3 50.1 9.6-3.3 12.4zm2-9.9v-5.5l50.9-3.7v12.8zm-0.6-10.1l-1.4-5.3 48.2-16.7 3.3 12.3zm-3.2-9.5l-2.7-4.8 42.2-28.6 6.4 11zm-5.5-8.4l-3.9-3.9 33.4-38.6 9 9.1zm-7.5-6.7l-4.8-2.8 22.3-45.9 11.1 6.4zm-9.1-4.5l-5.3-1.5 9.7-50.1 12.3 3.3z"></path></svg> 