<svg class="style0" version="1.1" viewBox="0 0 567.7 156" x="0px" xml:space="preserve" xmlns="http://www.w3.org/2000/svg" xmlns:xlink="http://www.w3.org/1999/xlink" y="0px">
	<style>.style0{enable-background:new 0 0 567.7 156;}.style1{fill:#FFFFFF;}.style2{fill:#013660;}</style>
	<g>
		<rect class="style1" height="156" width="313.5"/>
		<g>
			<g>
				<path class="style2" d="M26.6 133.4V28.1h70.1v12.4H40.4v31.6h48.8v12.4H40.4v48.8H26.6z"/>
				<path class="style2" d="M106.1 98.2l13-1.1c0.6 5.2 2.1 9.5 4.3 12.8c2.3 3.3 5.8 6 10.5 8.1c4.8 2.1 10.1 3.1 16 3.1 c5.3 0 9.9-0.8 14-2.3c4-1.6 7-3.7 9-6.4c2-2.7 3-5.7 3-8.9c0-3.3-1-6.1-2.9-8.6c-1.9-2.4-5-4.5-9.4-6.1c-2.8-1.1-9-2.8-18.6-5.1 c-9.6-2.3-16.3-4.5-20.2-6.5c-5-2.6-8.7-5.8-11.2-9.7c-2.4-3.9-3.7-8.2-3.7-13c0-5.3 1.5-10.2 4.5-14.7c3-4.6 7.4-8 13.1-10.4 c5.7-2.4 12.1-3.6 19.2-3.6c7.7 0 14.6 1.2 20.5 3.7c5.9 2.5 10.5 6.1 13.6 11c3.2 4.8 4.9 10.3 5.1 16.4l-13.3 1 c-0.7-6.6-3.1-11.6-7.2-14.9c-4.1-3.4-10.2-5-18.2-5c-8.4 0-14.5 1.5-18.3 4.6c-3.8 3.1-5.7 6.7-5.7 11c0 3.7 1.4 6.8 4.1 9.2 c2.7 2.4 9.6 4.9 20.8 7.4c11.2 2.5 18.9 4.7 23.1 6.6c6.1 2.8 10.6 6.3 13.5 10.6c2.9 4.3 4.3 9.2 4.3 14.8 c0 5.5-1.6 10.8-4.8 15.7c-3.2 4.9-7.8 8.7-13.7 11.4c-6 2.7-12.7 4.1-20.1 4.1c-9.5 0-17.4-1.4-23.8-4.1 c-6.4-2.7-11.4-6.9-15-12.4C108.2 111.4 106.3 105.2 106.1 98.2z"/>
				<path class="style2" d="M209 132V28.1h38.7c7.9 0 14.2 1.1 19 3.2c4.8 2.1 8.5 5.3 11.2 9.7c2.7 4.4 4.1 8.9 4.1 13.7 c0 4.4-1.2 8.6-3.6 12.5c-2.4 3.9-6 7.1-10.8 9.5c6.2 1.8 11 5 14.4 9.4c3.4 4.4 5 9.7 5 15.7c0 4.9-1 9.4-3.1 13.6 c-2 4.2-4.6 7.4-7.6 9.7c-3 2.3-6.8 4-11.3 5.1c-4.5 1.2-10.1 1.7-16.7 1.7H209z M222.7 71.7H245c6.1 0 10.4-0.4 13-1.2 c3.5-1 6.1-2.8 7.9-5.2c1.8-2.4 2.6-5.4 2.6-9.1c0-3.4-0.8-6.5-2.5-9.1c-1.6-2.6-4-4.4-7-5.4c-3.1-1-8.3-1.5-15.7-1.5h-20.6V71.7 z M222.7 119.7h25.7c4.4 0 7.5-0.2 9.3-0.5c3.1-0.6 5.8-1.5 7.9-2.8c2.1-1.3 3.9-3.2 5.2-5.8c1.4-2.5 2-5.4 2-8.8 c0-3.9-1-7.2-3-10.1c-2-2.9-4.7-4.9-8.2-6c-3.5-1.2-8.5-1.7-15.1-1.7h-23.9V119.7z"/>
			</g>
			<g>
				<path class="style1" d="M346.1 51.1V26.6h16.5v2.9h-13.3v7.6h11.5V40h-11.5v11.1H346.1z"/>
				<path class="style1" d="M370.6 51.1V26.6h3.2v24.5H370.6z"/>
				<path class="style1" d="M381.7 51.1V26.6h3.3L398 45.8V26.6h3.1v24.5h-3.3l-12.9-19.3v19.3H381.7z"/>
				<path class="style1" d="M406 51.1l9.4-24.5h3.5l10 24.5h-3.7l-2.9-7.4h-10.3l-2.7 7.4H406z M413.1 41h8.3l-2.6-6.8 c-0.8-2.1-1.4-3.8-1.7-5.1c-0.3 1.6-0.8 3.1-1.3 4.7L413.1 41z"/>
				<path class="style1" d="M432.8 51.1V26.6h3.3L449 45.8V26.6h3.1v24.5h-3.3l-12.9-19.3v19.3H432.8z"/>
				<path class="style1" d="M477.3 42.5l3.2 0.8c-0.7 2.7-1.9 4.7-3.7 6.1c-1.8 1.4-3.9 2.1-6.5 2.1c-2.6 0-4.8-0.5-6.4-1.6 c-1.7-1.1-2.9-2.6-3.8-4.7c-0.9-2-1.3-4.2-1.3-6.6c0-2.6 0.5-4.8 1.5-6.7c1-1.9 2.4-3.3 4.2-4.3c1.8-1 3.8-1.5 5.9-1.5 c2.5 0 4.5 0.6 6.2 1.9c1.7 1.2 2.8 3 3.5 5.3l-3.2 0.8c-0.6-1.8-1.4-3.1-2.5-3.9c-1.1-0.8-2.4-1.2-4.1-1.2 c-1.9 0-3.5 0.5-4.7 1.4c-1.3 0.9-2.2 2.1-2.7 3.6c-0.5 1.5-0.8 3.1-0.8 4.7c0 2.1 0.3 3.9 0.9 5.5c0.6 1.6 1.6 2.7 2.8 3.5 c1.3 0.8 2.7 1.2 4.2 1.2c1.8 0 3.4-0.5 4.6-1.6C476 46.1 476.8 44.6 477.3 42.5z"/>
				<path class="style1" d="M486.3 51.1V26.6h3.2v24.5H486.3z"/>
				<path class="style1" d="M495.8 51.1l9.4-24.5h3.5l10 24.5H515l-2.9-7.4h-10.3l-2.7 7.4H495.8z M502.9 41h8.3l-2.6-6.8 c-0.8-2.1-1.4-3.8-1.7-5.1c-0.3 1.6-0.8 3.1-1.3 4.7L502.9 41z"/>
				<path class="style1" d="M523.4 51.1V26.6h3.2v21.6h12.1v2.9H523.4z"/>
				<path class="style1" d="M344.8 84.3l3.1-0.3c0.1 1.2 0.5 2.2 1 3c0.5 0.8 1.4 1.4 2.5 1.9c1.1 0.5 2.4 0.7 3.8 0.7 c1.2 0 2.3-0.2 3.3-0.6c0.9-0.4 1.7-0.9 2.1-1.5c0.5-0.6 0.7-1.3 0.7-2.1c0-0.8-0.2-1.4-0.7-2c-0.4-0.6-1.2-1.1-2.2-1.4 c-0.7-0.3-2.1-0.7-4.4-1.2c-2.3-0.5-3.8-1.1-4.7-1.5c-1.2-0.6-2-1.4-2.6-2.3c-0.6-0.9-0.9-1.9-0.9-3.1c0-1.2 0.4-2.4 1.1-3.5 c0.7-1.1 1.7-1.9 3.1-2.5c1.3-0.6 2.8-0.8 4.5-0.8c1.8 0 3.4 0.3 4.8 0.9c1.4 0.6 2.5 1.4 3.2 2.6c0.7 1.1 1.1 2.4 1.2 3.9 l-3.1 0.2c-0.2-1.5-0.7-2.7-1.7-3.5c-1-0.8-2.4-1.2-4.3-1.2c-2 0-3.4 0.4-4.3 1.1c-0.9 0.7-1.3 1.6-1.3 2.6c0 0.9 0.3 1.6 1 2.2 c0.6 0.6 2.3 1.2 4.9 1.7c2.6 0.6 4.4 1.1 5.4 1.6c1.4 0.7 2.5 1.5 3.2 2.5c0.7 1 1 2.2 1 3.5c0 1.3-0.4 2.5-1.1 3.7 c-0.7 1.2-1.8 2.1-3.2 2.7c-1.4 0.6-3 1-4.7 1c-2.2 0-4.1-0.3-5.6-1c-1.5-0.6-2.7-1.6-3.5-2.9C345.3 87.4 344.8 86 344.8 84.3z"/>
				<path class="style1" d="M378.2 92.2V70.6h-8.1v-2.9h19.4v2.9h-8.1v21.6H378.2z"/>
				<path class="style1" d="M390.9 92.2l9.4-24.5h3.5l10 24.5h-3.7l-2.9-7.4H397l-2.7 7.4H390.9z M398 82.1h8.3l-2.6-6.8 c-0.8-2.1-1.4-3.8-1.7-5.1c-0.3 1.6-0.8 3.1-1.3 4.7L398 82.1z"/>
				<path class="style1" d="M419.5 92.2V67.7h9.2c1.9 0 3.4 0.2 4.5 0.7c1.1 0.5 2 1.3 2.7 2.3c0.6 1 1 2.1 1 3.2c0 1-0.3 2-0.9 3 c-0.6 0.9-1.4 1.7-2.6 2.2c1.5 0.4 2.6 1.2 3.4 2.2c0.8 1 1.2 2.3 1.2 3.7c0 1.1-0.2 2.2-0.7 3.2c-0.5 1-1.1 1.7-1.8 2.3 c-0.7 0.5-1.6 0.9-2.7 1.2c-1.1 0.3-2.4 0.4-4 0.4H419.5z M422.8 78h5.3c1.4 0 2.5-0.1 3.1-0.3c0.8-0.2 1.4-0.7 1.9-1.2 c0.4-0.6 0.6-1.3 0.6-2.1c0-0.8-0.2-1.5-0.6-2.1c-0.4-0.6-0.9-1-1.7-1.3c-0.7-0.2-2-0.3-3.7-0.3h-4.9V78z M422.8 89.3h6.1 c1 0 1.8 0 2.2-0.1c0.7-0.1 1.4-0.4 1.9-0.7c0.5-0.3 0.9-0.8 1.2-1.4c0.3-0.6 0.5-1.3 0.5-2.1c0-0.9-0.2-1.7-0.7-2.4 c-0.5-0.7-1.1-1.1-1.9-1.4c-0.8-0.3-2-0.4-3.6-0.4h-5.7V89.3z"/>
				<path class="style1" d="M444.3 92.2V67.7h3.2v24.5H444.3z"/>
				<path class="style1" d="M456.3 92.2V67.7h3.2v21.6h12.1v2.9H456.3z"/>
				<path class="style1" d="M477.3 92.2V67.7h3.2v24.5H477.3z"/>
				<path class="style1" d="M494.7 92.2V70.6h-8.1v-2.9h19.4v2.9h-8.1v21.6H494.7z"/>
				<path class="style1" d="M518.5 92.2V81.8l-9.5-14.1h3.9l4.8 7.4c0.9 1.4 1.7 2.8 2.5 4.1c0.7-1.3 1.6-2.7 2.7-4.3l4.8-7.2h3.8 l-9.8 14.1v10.4H518.5z"/>
				<path class="style1" d="M345.8 133.3v-24.5h9.2c1.9 0 3.4 0.2 4.5 0.7c1.1 0.5 2 1.3 2.7 2.3c0.6 1 1 2.1 1 3.2c0 1-0.3 2-0.9 3 c-0.6 0.9-1.4 1.7-2.6 2.2c1.5 0.4 2.6 1.2 3.4 2.2c0.8 1 1.2 2.3 1.2 3.7c0 1.1-0.2 2.2-0.7 3.2c-0.5 1-1.1 1.7-1.8 2.3 c-0.7 0.5-1.6 0.9-2.7 1.2c-1.1 0.3-2.4 0.4-4 0.4H345.8z M349 119.1h5.3c1.4 0 2.5-0.1 3.1-0.3c0.8-0.2 1.4-0.7 1.9-1.2 c0.4-0.6 0.6-1.3 0.6-2.1c0-0.8-0.2-1.5-0.6-2.1c-0.4-0.6-0.9-1-1.7-1.3c-0.7-0.2-2-0.3-3.7-0.3H349V119.1z M349 130.4h6.1 c1 0 1.8 0 2.2-0.1c0.7-0.1 1.4-0.4 1.9-0.7c0.5-0.3 0.9-0.8 1.2-1.4c0.3-0.6 0.5-1.3 0.5-2.1c0-0.9-0.2-1.7-0.7-2.4 c-0.5-0.7-1.1-1.1-1.9-1.4c-0.8-0.3-2-0.4-3.6-0.4H349V130.4z"/>
				<path class="style1" d="M370 121.4c0-4.1 1.1-7.3 3.3-9.6c2.2-2.3 5-3.5 8.5-3.5c2.3 0 4.3 0.5 6.1 1.6c1.8 1.1 3.2 2.6 4.2 4.5 c1 1.9 1.4 4.1 1.4 6.6c0 2.5-0.5 4.7-1.5 6.7c-1 2-2.4 3.4-4.3 4.5c-1.8 1-3.8 1.5-6 1.5c-2.3 0-4.4-0.6-6.2-1.7 c-1.8-1.1-3.2-2.6-4.1-4.6C370.4 125.6 370 123.5 370 121.4z M373.3 121.4c0 3 0.8 5.3 2.4 7c1.6 1.7 3.6 2.6 6 2.6 c2.4 0 4.5-0.9 6-2.6c1.6-1.7 2.4-4.2 2.4-7.3c0-2-0.3-3.7-1-5.2c-0.7-1.5-1.7-2.6-3-3.5c-1.3-0.8-2.8-1.2-4.4-1.2 c-2.3 0-4.3 0.8-5.9 2.4C374.2 115.1 373.3 117.7 373.3 121.4z"/>
				<path class="style1" d="M397.1 133.3l9.4-24.5h3.5l10 24.5h-3.7l-2.9-7.4h-10.3l-2.7 7.4H397.1z M404.2 123.3h8.3l-2.6-6.8 c-0.8-2.1-1.4-3.8-1.7-5.1c-0.3 1.6-0.8 3.1-1.3 4.7L404.2 123.3z"/>
				<path class="style1" d="M425 133.3v-24.5h10.9c2.2 0 3.8 0.2 5 0.7c1.1 0.4 2 1.2 2.7 2.3c0.7 1.1 1 2.3 1 3.7 c0 1.7-0.6 3.2-1.7 4.4c-1.1 1.2-2.9 2-5.2 2.3c0.9 0.4 1.5 0.8 2 1.2c0.9 0.9 1.8 2 2.7 3.3l4.3 6.7h-4.1l-3.2-5.1 c-0.9-1.5-1.7-2.6-2.3-3.4c-0.6-0.8-1.2-1.3-1.6-1.6c-0.5-0.3-1-0.5-1.5-0.7c-0.4-0.1-1-0.1-1.8-0.1h-3.8v10.9H425z M428.2 119.6 h7c1.5 0 2.6-0.2 3.5-0.5c0.8-0.3 1.5-0.8 1.9-1.5c0.4-0.7 0.7-1.4 0.7-2.2c0-1.2-0.4-2.1-1.3-2.9c-0.8-0.7-2.2-1.1-4-1.1h-7.8 V119.6z"/>
				<path class="style1" d="M451.9 133.3v-24.5h8.4c1.9 0 3.4 0.1 4.4 0.4c1.4 0.3 2.6 0.9 3.6 1.8c1.3 1.1 2.3 2.5 2.9 4.2 c0.6 1.7 1 3.6 1 5.8c0 1.9-0.2 3.5-0.7 5c-0.4 1.4-1 2.6-1.7 3.6c-0.7 0.9-1.4 1.7-2.2 2.2c-0.8 0.5-1.8 1-2.9 1.2 c-1.1 0.3-2.5 0.4-3.9 0.4H451.9z M455.1 130.4h5.2c1.6 0 2.9-0.2 3.8-0.5c0.9-0.3 1.7-0.7 2.2-1.3c0.8-0.8 1.4-1.8 1.8-3.1 c0.4-1.3 0.6-2.9 0.6-4.7c0-2.6-0.4-4.5-1.3-5.9c-0.8-1.4-1.9-2.3-3.1-2.8c-0.9-0.3-2.3-0.5-4.2-0.5h-5.2V130.4z"/>
			</g>
		</g>
	</g>
</svg>