<?xml version="1.0" encoding="UTF-8"?>
<!DOCTYPE svg PUBLIC "-//W3C//DTD SVG 1.1//EN" "http://www.w3.org/Graphics/SVG/1.1/DTD/svg11.dtd">
<!-- Creator: CorelDRAW -->
<svg xmlns="http://www.w3.org/2000/svg" xml:space="preserve" width="205px" height="100px" style="shape-rendering:geometricPrecision; text-rendering:geometricPrecision; image-rendering:optimizeQuality; fill-rule:evenodd; clip-rule:evenodd"
viewBox="0 0 205 99.9996"
 xmlns:xlink="http://www.w3.org/1999/xlink">
 <defs>
  <style type="text/css">
   <![CDATA[
    .fil0 {fill:#FFAB26}
    .fil1 {fill:white;fill-rule:nonzero}
   ]]>
  </style>
 </defs>
 <g id="Layer_x0020_1">
  <metadata id="CorelCorpID_0Corel-Layer"/>
  <g id="_205785512">
   <path id="_205785536" class="fil0" d="M52.29 2.0445c26.6009,0 48.1738,21.5717 48.1738,48.1726 0,26.6009 -21.5729,48.1726 -48.1738,48.1726 -26.5997,0 -48.1726,-21.5717 -48.1726,-48.1726 0,-26.6009 21.5729,-48.1726 48.1726,-48.1726zm-20.3351 28.0477l0 0c-3.34844,5.20396 -5.75672,10.8827 -6.4453,16.9583l20.53 0.00354332 0 6.42758 -20.602 0.00236221c0.550396,5.8642 2.73899,11.55 6.19136,17.1012l13.6796 0.00236221 0 6.43231 -9.07917 0c2.94332,3.72875 6.23624,7.16223 9.68153,10.4256 -6.85042,-2.63859 -12.3851,-6.22561 -16.6749,-10.4162l-0.01063 -0.00944886 -10.3831 0c0.0212599,0.0271655 0.0425198,0.0531498 0.0625987,0.0791342 7.89452,9.76067 19.9654,16.0028 33.4938,16.0028 23.7745,0 43.0549,-19.2804 43.0549,-43.0549 0,-23.7757 -19.2804,-43.0561 -43.0549,-43.0561 -13.8296,0 -26.1391,6.52443 -34.0171,16.6619 -0.00590553,0.00826775 -0.0118111,0.0165355 -0.0177166,0.0236221l10.5745 -0.0141733c4.91931,-4.97246 11.3611,-8.97877 19.1292,-11.3351 -3.88112,3.33781 -7.84373,7.13152 -11.3445,11.3304l15.0544 0 -0.0177166 6.43231 -19.8048 0.00236221zm-8.1898 0.00354332l0 0 -9.5209 -0.0129922c-0.00708664,0.0141733 -0.0153544,0.0283466 -0.022441,0.0425198 -2.74489,5.24648 -4.33821,11.0457 -4.74923,16.9383l8.5335 0.00118111c0.392127,-5.85593 2.37048,-11.7 5.75908,-16.969zm-5.73782 23.3895l0 0c0.35197,5.93152 2.44253,11.7898 5.91144,17.1036l-9.38389 0c-2.97403,-4.95829 -4.62285,-11.3859 -5.07522,-17.1048l8.54767 0.00118111z"/>
   <path id="_205784864" class="fil0" d="M58.8864 87.4196c-24.8316,-36.2883 22.9536,-37.7387 -6.52443,-75.3298 4.36419,0.00118111 8.55476,0.687404 13.0158,2.24647l-4.06065 1.50001 10.8237 1.6819 -7.02286 2.63033 12.6142 1.49882 -9.61657 3.326 14.4024 2.04686 -12.2103 3.28938 15.4997 1.60867 -13.9642 3.14293 16.1197 1.86379 -15.3142 2.96103 16.8497 2.1567 -16.193 2.88663 16.9595 2.48505 -16.9843 2.3882 16.8083 2.95749 -16.617 2.23702 16.0985 2.76143 -16.8497 2.52166 15.0225 3.50907 -16.1197 2.04686 13.8178 2.77796 -15.6461 2.26536 12.2835 2.96103 -14.2571 1.79056 10.8567 1.75394 -13.0489 2.12009 7.62168 2.22993 -10.3441 1.57205 4.89923 1.38898c-2.11772,0.877562 -3.85986,1.84016 -8.91972,2.72363z"/>
  </g>
  <polygon class="fil1" points="119.417,64.4932 119.417,32.1568 125.613,32.1568 125.613,64.4932 "/>
  <path id="1" class="fil1" d="M159.208 64.4932l-6.74766 0 -2.68111 -7.34885 -12.2729 0 -2.52993 7.34885 -6.5764 0 11.9587 -32.3363 6.55396 0 12.2953 32.3363zm-11.4154 -12.7914l-4.23191 -12.0012 -4.14569 12.0012 8.37759 0z"/>
  <polygon id="12" class="fil1" points="162.304,64.4932 162.304,32.1568 168.5,32.1568 168.5,64.4932 "/>
  <path id="123" class="fil1" d="M174.426 64.4932l0 -32.3363 13.0524 0c3.28111,0 5.66223,0.292915 7.14924,0.872838 1.48701,0.579923 2.67993,1.61103 3.57285,3.0945 0.894098,1.49056 1.33701,3.18426 1.33701,5.09648 0,2.42481 -0.679136,4.43506 -2.02914,6.01656 -1.35119,1.57323 -3.38151,2.57481 -6.07679,2.98111 1.3441,0.827956 2.45198,1.7315 3.32363,2.71773 0.872838,0.986224 2.04568,2.73308 3.52442,5.24766l3.75356 6.30947 -7.41381 0 -4.48112 -7.0394c-1.59449,-2.51458 -2.68111,-4.09608 -3.26694,-4.75041 -0.585829,-0.655514 -1.20827,-1.09961 -1.86497,-1.34882 -0.657877,-0.239765 -1.69489,-0.360238 -3.12403,-0.360238l-1.25197 0 0 13.4989 -6.20435 0zm6.20435 -18.6639l4.58388 0c2.97166,0 4.83191,-0.128741 5.57482,-0.392127 0.73583,-0.263387 1.31575,-0.722837 1.73741,-1.37008 0.413387,-0.647247 0.628349,-1.45276 0.628349,-2.42481 0,-1.09134 -0.278741,-1.96418 -0.829137,-2.63505 -0.551577,-0.669688 -1.32993,-1.09134 -2.33741,-1.27205 -0.500789,-0.0673231 -2.00906,-0.105119 -4.52482,-0.105119l-4.83309 0 0 8.19924z"/>
 </g>
</svg>
