<?xml version="1.0" encoding="utf-8"?>
<!-- Generator: Adobe Illustrator 25.0.0, SVG Export Plug-In . SVG Version: 6.00 Build 0)  -->
<svg version="1.1" id="Layer_1" xmlns="http://www.w3.org/2000/svg" xmlns:xlink="http://www.w3.org/1999/xlink" x="0px" y="0px"
	 viewBox="0 0 227 108" style="enable-background:new 0 0 227 108;" xml:space="preserve">
<style type="text/css">
	.st0{fill-rule:evenodd;clip-rule:evenodd;fill:#2E6378;}
</style>
<g>
	<path id="Fill-1" class="st0" d="M132.1,36.5c2.1,0,2.9-1.7,2.9-3.5s-1-3.5-2.9-3.5c-2,0-2.9,1.7-2.9,3.5
		C129.2,34.8,130,36.5,132.1,36.5z M132.1,28.4c2.7,0,4.3,2,4.3,4.6c0,2.7-1.6,4.6-4.3,4.6s-4.3-1.9-4.3-4.6
		C127.8,30.4,129.4,28.4,132.1,28.4L132.1,28.4z"/>
	<polyline id="Fill-2" class="st0" points="145.5,28.5 147.2,28.5 151.2,35.7 151.2,35.7 151.2,28.5 152.5,28.5 152.5,37.5 
		150.8,37.5 146.8,30.1 146.8,30.1 146.8,37.5 145.5,37.5 145.5,28.5 	"/>
	<polyline id="Fill-3" class="st0" points="163.8,29.7 161,29.7 161,28.5 167.9,28.5 167.9,29.7 165.1,29.7 165.1,37.5 163.8,37.5 
		163.8,29.7 	"/>
	<path id="Fill-4" class="st0" d="M179.2,29.7l-1.8,4.4h3.6L179.2,29.7z M178.6,28.5h1.3l3.8,8.9h-1.4l-0.9-2.2H177l-0.9,2.2h-1.3
		L178.6,28.5L178.6,28.5z"/>
	<path id="Fill-5" class="st0" d="M193.5,32.4h1.1c1.2,0,1.9-0.5,1.9-1.4c0-0.8-0.6-1.3-1.8-1.3h-1.2V32.4z M192.2,28.5h2.2
		c1.8,0,3.5,0.3,3.5,2.4c0,1.1-0.8,1.9-1.8,2l0,0c0.4,0.2,0.6,0.3,0.9,0.9l1.7,3.6h-1.5l-1.4-3.1c-0.4-0.9-0.8-0.9-1.5-0.9h-0.8v4
		h-1.3L192.2,28.5L192.2,28.5z"/>
	<polygon id="Fill-6" class="st0" points="207.4,37.5 208.6,37.5 208.6,28.5 207.4,28.5 	"/>
	<path id="Fill-7" class="st0" d="M222.1,36.5c2.1,0,2.9-1.7,2.9-3.5s-1-3.5-2.9-3.5c-2,0-2.9,1.7-2.9,3.5
		C219.1,34.8,220,36.5,222.1,36.5z M222.1,28.4c2.7,0,4.3,2,4.3,4.6c0,2.7-1.6,4.6-4.3,4.6s-4.3-1.9-4.3-4.6
		C217.8,30.4,219.4,28.4,222.1,28.4L222.1,28.4z"/>
	<path id="Fill-8" class="st0" d="M132.3,50.9c-0.7-0.3-1-0.4-1.7-0.4s-1.6,0.3-1.6,1.2c0,1.7,3.8,1.3,3.8,4.3
		c0,1.9-1.5,2.7-3.3,2.7c-0.6,0-1.2-0.2-1.8-0.4l0.1-1.2c0.4,0.2,1.2,0.4,1.9,0.4s1.8-0.4,1.8-1.5c0-2-3.8-1.4-3.8-4.2
		c0-1.6,1.2-2.4,2.9-2.4c0.6,0,1.3,0.1,1.9,0.3L132.3,50.9"/>
	<polyline id="Fill-9" class="st0" points="138.5,49.5 143.5,49.5 143.5,50.7 139.7,50.7 139.7,53.3 143.1,53.3 143.1,54.4 
		139.7,54.4 139.7,57.3 143.5,57.3 143.5,58.5 138.5,58.5 138.5,49.5 	"/>
	<path id="Fill-10" class="st0" d="M155.4,51c-0.6-0.3-1.2-0.5-1.8-0.5c-2.1,0-3.4,1.5-3.4,3.5c0,2.1,1.5,3.5,3.4,3.5
		c0.6,0,1.5-0.2,1.9-0.4l0.1,1.2c-0.7,0.3-1.5,0.3-2,0.3c-2.8,0-4.7-1.8-4.7-4.6c0-2.7,2-4.6,4.7-4.6c0.7,0,1.4,0.1,2,0.4L155.4,51"
		/>
	<path id="Fill-11" class="st0" d="M167.7,54.8c0,2.5-1.3,3.8-3.5,3.8s-3.5-1.3-3.5-3.8v-5.2h1.3v5.1c0,1.7,0.5,2.9,2.2,2.9
		c1.6,0,2.2-1.2,2.2-2.9v-5.1h1.3V54.8"/>
	<path id="Fill-12" class="st0" d="M174.9,53.4h1.1c1.2,0,1.9-0.5,1.9-1.4c0-0.8-0.6-1.3-1.8-1.3h-1.2V53.4z M173.6,49.5h2.2
		c1.8,0,3.5,0.3,3.5,2.4c0,1.1-0.8,1.9-1.8,2l0,0c0.4,0.2,0.6,0.3,0.9,0.9l1.7,3.6h-1.5l-1.4-3.1c-0.4-0.9-0.8-0.9-1.5-0.9h-0.8v4
		h-1.3L173.6,49.5L173.6,49.5z"/>
	<polygon id="Fill-13" class="st0" points="185.3,58.5 186.5,58.5 186.5,49.5 185.3,49.5 	"/>
	<polyline id="Fill-14" class="st0" points="194.3,50.7 191.6,50.7 191.6,49.5 198.4,49.5 198.4,50.7 195.6,50.7 195.6,58.5 
		194.3,58.5 194.3,50.7 	"/>
	<polygon id="Fill-15" class="st0" points="203.4,58.5 204.7,58.5 204.7,49.5 203.4,49.5 	"/>
	<polyline id="Fill-16" class="st0" points="210.8,49.5 215.7,49.5 215.7,50.7 212,50.7 212,53.3 215.4,53.3 215.4,54.4 212,54.4 
		212,57.3 215.7,57.3 215.7,58.5 210.8,58.5 210.8,49.5 	"/>
	<path id="Fill-17" class="st0" d="M225.6,50.9c-0.7-0.3-1-0.4-1.7-0.4s-1.6,0.3-1.6,1.2c0,1.7,3.8,1.3,3.8,4.3
		c0,1.9-1.5,2.7-3.3,2.7c-0.6,0-1.2-0.2-1.8-0.4l0.1-1.2c0.4,0.2,1.2,0.4,1.9,0.4s1.8-0.4,1.8-1.5c0-2-3.8-1.4-3.8-4.2
		c0-1.6,1.3-2.4,2.9-2.4c0.6,0,1.3,0.1,1.9,0.3L225.6,50.9"/>
	<path id="Fill-18" class="st0" d="M134.4,72c-0.6-0.3-1.2-0.5-1.8-0.5c-2.1,0-3.4,1.5-3.4,3.5c0,2.1,1.5,3.5,3.4,3.5
		c0.6,0,1.5-0.2,1.9-0.4l0.1,1.2c-0.7,0.3-1.5,0.3-2,0.3c-2.8,0-4.7-1.8-4.7-4.6c0-2.7,2-4.6,4.7-4.6c0.7,0,1.4,0.1,2,0.4L134.4,72"
		/>
	<path id="Fill-19" class="st0" d="M142,78.5c2.1,0,2.9-1.7,2.9-3.5s-1-3.5-2.9-3.5c-2,0-2.9,1.7-2.9,3.5
		C139,76.8,139.9,78.5,142,78.5z M142,70.4c2.7,0,4.3,2,4.3,4.6c0,2.7-1.6,4.6-4.3,4.6s-4.3-1.9-4.3-4.6
		C137.7,72.4,139.3,70.4,142,70.4L142,70.4z"/>
	<polyline id="Fill-20" class="st0" points="150.2,70.5 152.3,70.5 155.1,78 157.8,70.5 159.9,70.5 159.9,79.5 158.7,79.5 
		158.7,71.7 158.6,71.7 155.7,79.5 154.4,79.5 151.5,71.7 151.5,71.7 151.5,79.5 150.2,79.5 150.2,70.5 	"/>
	<polyline id="Fill-21" class="st0" points="164.3,70.5 166.4,70.5 169.2,78 172,70.5 174.1,70.5 174.1,79.5 172.8,79.5 172.8,71.7 
		172.8,71.7 169.8,79.5 168.6,79.5 165.6,71.7 165.6,71.7 165.6,79.5 164.3,79.5 164.3,70.5 	"/>
	<polygon id="Fill-22" class="st0" points="178.4,79.5 179.7,79.5 179.7,70.5 178.4,70.5 	"/>
	<path id="Fill-23" class="st0" d="M188.1,71.9c-0.7-0.3-1-0.4-1.7-0.4s-1.6,0.3-1.6,1.2c0,1.7,3.8,1.3,3.8,4.3
		c0,1.9-1.5,2.7-3.3,2.7c-0.6,0-1.2-0.2-1.8-0.4l0.1-1.2c0.4,0.2,1.2,0.4,1.9,0.4s1.8-0.4,1.8-1.5c0-2-3.8-1.4-3.8-4.2
		c0-1.6,1.2-2.4,2.9-2.4c0.6,0,1.3,0.1,1.9,0.3L188.1,71.9"/>
	<path id="Fill-24" class="st0" d="M196.6,71.9c-0.6-0.3-1-0.4-1.7-0.4s-1.6,0.3-1.6,1.2c0,1.7,3.8,1.3,3.8,4.3
		c0,1.9-1.5,2.7-3.3,2.7c-0.6,0-1.2-0.2-1.8-0.4l0.1-1.2c0.4,0.2,1.2,0.4,1.9,0.4s1.7-0.4,1.7-1.5c0-2-3.8-1.4-3.8-4.2
		c0-1.6,1.3-2.4,2.9-2.4c0.6,0,1.3,0.1,1.9,0.3L196.6,71.9"/>
	<polygon id="Fill-25" class="st0" points="201,79.5 202.3,79.5 202.3,70.5 201,70.5 	"/>
	<path id="Fill-26" class="st0" d="M210.5,78.5c2.1,0,2.9-1.7,2.9-3.5s-1-3.5-2.9-3.5c-2,0-2.9,1.7-2.9,3.5
		C207.5,76.8,208.4,78.5,210.5,78.5z M210.5,70.4c2.7,0,4.3,2,4.3,4.6c0,2.7-1.6,4.6-4.3,4.6s-4.3-1.9-4.3-4.6
		C206.2,72.4,207.7,70.4,210.5,70.4L210.5,70.4z"/>
	<polyline id="Fill-27" class="st0" points="218.6,70.5 220.4,70.5 224.3,77.7 224.3,77.7 224.3,70.5 225.6,70.5 225.6,79.5 
		224,79.5 219.9,72.1 219.9,72.1 219.9,79.5 218.6,79.5 218.6,70.5 	"/>
</g>
<g id="Clip-29">
</g>
<path id="Fill-28" class="st0" d="M34.7,40c-5.5,0-8.3,4.7-8.3,9.8c0,5,2.5,9.8,8.3,9.8s8.3-4.8,8.3-9.8C43,44.7,40.2,40,34.7,40"/>
<path id="Fill-30" class="st0" d="M81.3,62.8c-8,0-13.2-5.1-13.2-13.1c0-7.7,5.6-12.9,13.3-12.9c1.9,0,3.9,0.3,5.7,1.1l-0.3,3.5
	c-1.6-0.9-3.3-1.4-5.2-1.4c-5.8,0-9.6,4.2-9.6,9.8c0,5.9,4.2,9.8,9.5,9.8c1.8,0,4.2-0.5,5.5-1.2l0.2,3.5
	C85.1,62.7,82.8,62.8,81.3,62.8z M55.5,62.8c-1.8,0-3.5-0.5-5.1-1l0.4-3.3c1.2,0.5,3.4,1.2,5.2,1.2c2,0,4.9-1.1,4.9-4.1
	c0-5.6-10.8-4.1-10.8-11.9c0-4.5,3.5-6.8,8.1-6.8c1.7,0,3.6,0.3,5.4,0.9L63,41.1c-1.8-0.7-2.8-1-4.7-1c-2,0-4.4,0.7-4.4,3.3
	c0,4.8,10.8,3.7,10.8,12C64.7,60.7,60.6,62.8,55.5,62.8z M34.7,62.8c-7.7,0-12.1-5.4-12.1-13c0-7.4,4.5-13,12.1-13s12.1,5.5,12.1,13
	C46.8,57.5,42.4,62.8,34.7,62.8z M0,108h108V0H0V108z"/>
</svg>
