<?xml version="1.0" encoding="utf-8"?>
<!-- Generator: Adobe Illustrator 21.0.0, SVG Export Plug-In . SVG Version: 6.00 Build 0)  -->
<svg version="1.1" id="Calque_1" xmlns="http://www.w3.org/2000/svg" xmlns:xlink="http://www.w3.org/1999/xlink" x="0px" y="0px"
	 width="250px" height="41.1px" viewBox="0 0 250 41.1" enable-background="new 0 0 250 41.1" xml:space="preserve">
<g>
	<path fill="#696869" d="M98.4,38.2l1.2,2.7h2.1l-5.2-11.8h-2.1l-5.2,11.8h2.1l1.2-2.7H98.4L98.4,38.2z M93.3,36.4l2.2-4.9l2.2,4.9
		H93.3L93.3,36.4z M105,35.7v-6.6h-2v6.6c0,1.7,0.5,3,1.4,3.9c0.9,0.9,2.1,1.4,3.6,1.4c1.5,0,2.7-0.5,3.6-1.4
		c0.9-0.9,1.4-2.2,1.4-3.9v-6.6h-2v6.6c0,1.1-0.3,1.9-0.8,2.6c-0.5,0.6-1.3,0.9-2.2,0.9c-0.9,0-1.7-0.3-2.2-0.9
		C105.2,37.6,105,36.7,105,35.7L105,35.7L105,35.7z M125.6,40.9l-4.1-6.1l3.8-5.8h-2.5l-2.6,4h-0.1l-2.6-4H115l3.8,5.8l-4.1,6.1h2.5
		l2.9-4.5h0.1l2.9,4.5H125.6L125.6,40.9z M139.8,38.2l1.2,2.7h2.1l-5.2-11.8h-2.1l-5.2,11.8h2.1l1.2-2.7H139.8L139.8,38.2z
		 M134.7,36.4l2.2-4.9l2.2,4.9H134.7L134.7,36.4z M150.1,31c0.6,0.2,1.1,0.5,1.4,0.8l1.1-1.5c-0.5-0.5-1.2-0.8-1.9-1.1
		c-0.7-0.2-1.5-0.4-2.3-0.4c-1.2,0-2.2,0.3-3,0.9c-0.8,0.6-1.2,1.4-1.2,2.5c0,1.1,0.4,1.9,1.1,2.4c0.4,0.3,0.8,0.5,1.2,0.7
		c0.5,0.2,1.1,0.4,2,0.6c0.9,0.2,1.5,0.4,1.8,0.7c0.4,0.3,0.5,0.6,0.5,1.1c0,0.5-0.2,0.8-0.6,1.1c-0.4,0.3-0.9,0.4-1.5,0.4
		c-1.3,0-2.5-0.5-3.7-1.6l-1.3,1.5c1.4,1.3,3.1,1.9,4.9,1.9c1.3,0,2.3-0.3,3.1-1c0.8-0.6,1.2-1.5,1.2-2.5c0-1-0.3-1.8-0.9-2.3
		c-0.6-0.5-1.5-0.9-2.7-1.2c-1.2-0.3-2-0.6-2.4-0.8c-0.4-0.3-0.6-0.6-0.6-1.1c0-0.5,0.2-0.8,0.6-1.1c0.4-0.2,0.8-0.4,1.4-0.4
		C148.9,30.6,149.5,30.8,150.1,31L150.1,31z M160.8,31c0.6,0.2,1.1,0.5,1.4,0.8l1.1-1.5c-0.5-0.5-1.2-0.8-1.9-1.1
		c-0.7-0.2-1.5-0.4-2.3-0.4c-1.2,0-2.2,0.3-3,0.9c-0.8,0.6-1.2,1.4-1.2,2.5c0,1.1,0.3,1.9,1.1,2.4c0.3,0.3,0.8,0.5,1.2,0.7
		c0.5,0.2,1.1,0.4,2,0.6c0.9,0.2,1.5,0.4,1.8,0.7c0.4,0.3,0.5,0.6,0.5,1.1c0,0.5-0.2,0.8-0.6,1.1c-0.4,0.3-0.9,0.4-1.5,0.4
		c-1.3,0-2.5-0.5-3.7-1.6l-1.3,1.5c1.4,1.3,3.1,1.9,4.9,1.9c1.3,0,2.3-0.3,3.1-1c0.8-0.6,1.2-1.5,1.2-2.5c0-1-0.3-1.8-0.9-2.3
		c-0.6-0.5-1.5-0.9-2.7-1.2c-1.2-0.3-2-0.6-2.4-0.8c-0.4-0.3-0.6-0.6-0.6-1.1c0-0.5,0.2-0.8,0.6-1.1c0.4-0.2,0.8-0.4,1.4-0.4
		C159.6,30.6,160.2,30.8,160.8,31L160.8,31z M168,35.7v-6.6h-2v6.6c0,1.7,0.5,3,1.4,3.9c0.9,0.9,2.1,1.4,3.6,1.4
		c1.5,0,2.7-0.5,3.6-1.4c0.9-0.9,1.4-2.2,1.4-3.9v-6.6h-2v6.6c0,1.1-0.3,1.9-0.8,2.6c-0.5,0.6-1.3,0.9-2.2,0.9
		c-0.9,0-1.7-0.3-2.2-0.9C168.2,37.6,168,36.7,168,35.7L168,35.7L168,35.7z M187.4,30c-0.8-0.6-2.1-0.9-3.9-0.9h-4.4v11.8h2v-4h2.6
		l2.8,4h2.5l-3.1-4.3c1.7-0.5,2.6-1.7,2.6-3.7C188.6,31.6,188.2,30.6,187.4,30L187.4,30z M183.6,35.1h-2.5v-4.2h2.5
		c1.1,0,1.8,0.1,2.2,0.4c0.4,0.3,0.6,0.8,0.6,1.6c0,0.8-0.2,1.3-0.6,1.7C185.5,35,184.8,35.1,183.6,35.1L183.6,35.1L183.6,35.1z
		 M199.1,38.2l1.2,2.7h2.1l-5.2-11.8h-2.1l-5.2,11.8h2.1l1.2-2.7H199.1L199.1,38.2z M194,36.4l2.2-4.9l2.2,4.9H194L194,36.4z
		 M212.9,37.9l-6.9-8.8h-2v11.8h2v-8.6l6.7,8.6h2.2V29.1h-2V37.9L212.9,37.9z M220.8,37.9c-0.8-0.8-1.2-1.8-1.2-3
		c0-1.2,0.4-2.2,1.2-3c0.8-0.8,1.8-1.2,3-1.2c0.7,0,1.3,0.1,1.8,0.3c0.5,0.2,1,0.6,1.6,1.1l1.3-1.4c-1.2-1.4-2.8-2-4.6-2
		c-1.8,0-3.4,0.6-4.6,1.8c-1.2,1.2-1.8,2.6-1.8,4.4c0,1.8,0.6,3.2,1.8,4.4c1.2,1.2,2.7,1.7,4.5,1.7c1.8,0,3.3-0.7,4.6-2.1l-1.3-1.3
		c-0.5,0.5-1.1,0.9-1.6,1.1c-0.5,0.2-1.1,0.3-1.8,0.3C222.5,39.1,221.6,38.7,220.8,37.9L220.8,37.9z M230.7,29.1v11.8h8.5v-1.9h-6.5
		v-3.2h5.7v-1.8h-5.7V31h6.3v-1.9H230.7L230.7,29.1z M247.2,31c0.6,0.2,1.1,0.5,1.4,0.8l1.1-1.5c-0.5-0.5-1.2-0.8-1.9-1.1
		c-0.7-0.2-1.5-0.4-2.3-0.4c-1.2,0-2.2,0.3-3,0.9c-0.8,0.6-1.2,1.4-1.2,2.5c0,1.1,0.3,1.9,1.1,2.4c0.3,0.3,0.8,0.5,1.2,0.7
		c0.5,0.2,1.1,0.4,2,0.6c0.9,0.2,1.5,0.4,1.8,0.7c0.4,0.3,0.5,0.6,0.5,1.1c0,0.5-0.2,0.8-0.6,1.1c-0.4,0.3-0.9,0.4-1.5,0.4
		c-1.3,0-2.5-0.5-3.7-1.6l-1.3,1.5c1.4,1.3,3.1,1.9,4.9,1.9c1.3,0,2.3-0.3,3.1-1s1.2-1.5,1.2-2.5c0-1-0.3-1.8-0.9-2.3
		c-0.6-0.5-1.5-0.9-2.7-1.2c-1.2-0.3-2-0.6-2.4-0.8c-0.4-0.3-0.6-0.6-0.6-1.1c0-0.5,0.2-0.8,0.6-1.1c0.4-0.2,0.9-0.4,1.4-0.4
		C246,30.6,246.6,30.8,247.2,31L247.2,31z"/>
	<path fill="#696869" d="M93.4,20.5c-0.8-0.8-1.2-1.8-1.2-3c0-1.2,0.4-2.2,1.2-3c0.8-0.8,1.8-1.2,3-1.2c0.7,0,1.3,0.1,1.8,0.3
		c0.5,0.2,1,0.6,1.6,1.1l1.3-1.4c-1.2-1.4-2.8-2-4.6-2c-1.8,0-3.4,0.6-4.6,1.8c-1.2,1.2-1.8,2.6-1.8,4.4c0,1.8,0.6,3.2,1.8,4.4
		c1.2,1.2,2.7,1.7,4.5,1.7c1.8,0,3.3-0.7,4.6-2.1l-1.3-1.3c-0.5,0.5-1.1,0.9-1.6,1.1c-0.5,0.2-1.1,0.3-1.8,0.3
		C95.1,21.7,94.2,21.3,93.4,20.5L93.4,20.5z M112.7,17.5c0,1.2-0.4,2.2-1.2,3c-0.8,0.8-1.8,1.3-3,1.3c-1.2,0-2.2-0.4-3-1.3
		c-0.8-0.8-1.2-1.9-1.2-3c0-1.2,0.4-2.2,1.2-3c0.8-0.8,1.8-1.3,3-1.3c1.2,0,2.2,0.4,3,1.3C112.3,15.3,112.7,16.3,112.7,17.5
		L112.7,17.5z M114.8,17.5c0-1.7-0.6-3.2-1.8-4.4c-1.2-1.2-2.7-1.8-4.4-1.8c-1.8,0-3.2,0.6-4.4,1.8c-1.2,1.2-1.8,2.6-1.8,4.4
		c0,1.7,0.6,3.2,1.8,4.4c1.2,1.2,2.7,1.8,4.4,1.8c1.8,0,3.2-0.6,4.4-1.8C114.2,20.7,114.8,19.3,114.8,17.5L114.8,17.5z M119.3,14.3
		l4.1,8.2h1.1l4.1-8.2v9.3h2V11.7h-3.1l-3.6,7.4l-3.6-7.4h-3.1v11.8h2V14.3L119.3,14.3z M136,14.3l4.1,8.2h1.1l4.1-8.2v9.3h2V11.7
		h-3.1l-3.6,7.4l-3.6-7.4H134v11.8h2V14.3L136,14.3z M150.6,23.5h2V11.7h-2V23.5L150.6,23.5z M161.3,13.6c0.6,0.2,1.1,0.5,1.4,0.8
		l1.1-1.5c-0.5-0.5-1.2-0.8-1.9-1.1c-0.7-0.2-1.5-0.4-2.3-0.4c-1.2,0-2.2,0.3-3,0.9c-0.8,0.6-1.2,1.4-1.2,2.5c0,1.1,0.3,1.9,1.1,2.4
		c0.3,0.3,0.8,0.5,1.2,0.7c0.5,0.2,1.1,0.4,2,0.6c0.9,0.2,1.5,0.4,1.8,0.7c0.4,0.3,0.5,0.6,0.5,1.1c0,0.5-0.2,0.8-0.6,1.1
		c-0.4,0.3-0.9,0.4-1.5,0.4c-1.3,0-2.5-0.5-3.7-1.6l-1.3,1.5c1.4,1.3,3.1,1.9,4.9,1.9c1.3,0,2.3-0.3,3.1-1c0.8-0.6,1.2-1.5,1.2-2.5
		s-0.3-1.8-0.9-2.3c-0.6-0.5-1.5-0.9-2.7-1.2c-1.2-0.3-2-0.6-2.4-0.8c-0.4-0.3-0.6-0.6-0.6-1.1c0-0.5,0.2-0.8,0.6-1.1
		s0.9-0.4,1.4-0.4C160.1,13.2,160.7,13.4,161.3,13.6L161.3,13.6z M171.9,13.6c0.6,0.2,1.1,0.5,1.4,0.8l1.1-1.5
		c-0.5-0.5-1.2-0.8-1.9-1.1c-0.7-0.2-1.5-0.4-2.3-0.4c-1.2,0-2.2,0.3-3,0.9c-0.8,0.6-1.2,1.4-1.2,2.5c0,1.1,0.3,1.9,1.1,2.4
		c0.3,0.3,0.8,0.5,1.2,0.7c0.5,0.2,1.1,0.4,2,0.6c0.9,0.2,1.5,0.4,1.8,0.7c0.4,0.3,0.5,0.6,0.5,1.1c0,0.5-0.2,0.8-0.6,1.1
		c-0.4,0.3-0.9,0.4-1.5,0.4c-1.3,0-2.5-0.5-3.7-1.6l-1.3,1.5c1.4,1.3,3.1,1.9,4.9,1.9c1.3,0,2.3-0.3,3.1-1c0.8-0.6,1.2-1.5,1.2-2.5
		s-0.3-1.8-0.9-2.3c-0.6-0.5-1.5-0.9-2.7-1.2c-1.2-0.3-2-0.6-2.4-0.8c-0.4-0.3-0.6-0.6-0.6-1.1c0-0.5,0.2-0.8,0.6-1.1
		c0.4-0.2,0.8-0.4,1.4-0.4C170.8,13.2,171.3,13.4,171.9,13.6L171.9,13.6z M184.8,20.8l1.2,2.7h2.1l-5.2-11.8h-2.1l-5.2,11.8h2.1
		l1.2-2.7H184.8L184.8,20.8z M179.6,19l2.2-4.9l2.2,4.9H179.6L179.6,19z M198,12.6c-0.8-0.6-2.1-0.9-3.9-0.9h-4.4v11.8h2v-4h2.6
		l2.8,4h2.5l-3.1-4.3c1.7-0.5,2.6-1.7,2.6-3.7C199.2,14.2,198.8,13.2,198,12.6L198,12.6z M194.2,17.7h-2.5v-4.2h2.5
		c1.1,0,1.8,0.1,2.2,0.4c0.4,0.3,0.6,0.8,0.6,1.6c0,0.8-0.2,1.3-0.6,1.7C196.1,17.6,195.3,17.7,194.2,17.7L194.2,17.7L194.2,17.7z
		 M202.1,23.5h2V11.7h-2V23.5L202.1,23.5z M215,20.8l1.2,2.7h2.1l-5.2-11.8h-2.1l-5.2,11.8h2.1l1.2-2.7H215L215,20.8z M209.8,19
		l2.2-4.9l2.2,4.9H209.8L209.8,19z M227.1,13.5v-1.8h-9.2v1.8h3.6v10h2v-10H227.1L227.1,13.5z"/>
	<path fill="#434244" d="M73.1,31.5H57.7c-1.2,0-2.1-1-2.1-2.1c0-1.2,1-2.1,2.1-2.1h15.4c1.2,0,2.1,1,2.1,2.1
		C75.2,30.6,74.3,31.5,73.1,31.5L73.1,31.5z"/>
	<path fill="#019BD7" d="M55,40.9c-0.2,0-0.4,0-0.6-0.1c-1.1-0.3-1.8-1.5-1.5-2.6L63.2,1.6c0.3-1.1,1.5-1.8,2.6-1.5
		c1.1,0.3,1.8,1.5,1.5,2.6L57,39.4C56.8,40.3,55.9,40.9,55,40.9L55,40.9z"/>
	<path fill="#434244" d="M75.9,40.9c-0.9,0-1.8-0.6-2.1-1.6L63.5,2.7c-0.3-1.1,0.3-2.3,1.5-2.6c1.1-0.3,2.3,0.3,2.6,1.5L78,38.2
		c0.3,1.1-0.3,2.3-1.5,2.6C76.3,40.9,76.1,40.9,75.9,40.9L75.9,40.9z"/>
	<path fill="#A6A8AA" d="M45.4,31.5H30c-1.2,0-2.1-1-2.1-2.1c0-1.2,1-2.1,2.1-2.1h15.4c1.2,0,2.1,1,2.1,2.1
		C47.5,30.6,46.6,31.5,45.4,31.5L45.4,31.5z"/>
	<path fill="#434244" d="M27.3,40.9c-0.2,0-0.4,0-0.6-0.1c-1.1-0.3-1.8-1.5-1.5-2.6L35.5,1.6c0.3-1.1,1.5-1.8,2.6-1.5
		c1.1,0.3,1.8,1.5,1.5,2.6L29.3,39.4C29,40.3,28.2,40.9,27.3,40.9L27.3,40.9z"/>
	<path fill="#434244" d="M48.2,40.9c-0.9,0-1.8-0.6-2.1-1.6L35.8,2.7c-0.3-1.1,0.3-2.3,1.5-2.6c1.1-0.3,2.3,0.3,2.6,1.5l10.3,36.7
		c0.3,1.1-0.3,2.3-1.5,2.6C48.6,40.9,48.4,40.9,48.2,40.9L48.2,40.9z"/>
	<path fill="#EB2441" d="M20.1,40.9C9,40.9,0,31.9,0,20.8c0-1.2,1-2.1,2.1-2.1c1.2,0,2.1,1,2.1,2.1c0,8.7,7.1,15.8,15.8,15.8
		c1.2,0,2.1,1,2.1,2.1C22.2,40,21.3,40.9,20.1,40.9L20.1,40.9z"/>
	<path fill="#434244" d="M2.1,23C1,23,0,22,0,20.8C0,9.8,9,0.8,20.1,0.8c1.2,0,2.1,1,2.1,2.1c0,1.2-1,2.1-2.1,2.1
		C11.4,5,4.3,12.1,4.3,20.8C4.3,22,3.3,23,2.1,23L2.1,23z"/>
</g>
</svg>
