<svg xmlns="http://www.w3.org/2000/svg" width="1157.1604" height="54.56476" viewBox="0 0 1157.1604 54.56476">
  <defs>
    <style>
      .cls-1 {
        fill: #003299;
      }
    </style>
  </defs>
  <g id="EN">
    <g>
      <rect class="cls-1" x="175.56453" width="3.49544" height="54.56476"/>
      <path class="cls-1" d="M24.78418,38.99586V45.156H0V11.54127H24.44727v6.15966H8.37354v7.0503H23.70117v6.16015H8.37354v8.08448Z"/>
      <path class="cls-1" d="M60.64844,13.70679v6.56885q-6.68994-3.00732-10.65967-3.00781a7.2896,7.2896,0,0,0-3.59766.75781,2.2664,2.2664,0,0,0-1.33545,2.00928,2.47468,2.47468,0,0,0,.96289,1.82861,17.20152,17.20152,0,0,0,4.6919,2.2378,50.94211,50.94211,0,0,1,5.96728,2.55078A11.61947,11.61947,0,0,1,60.54,29.97291a8.70728,8.70728,0,0,1,1.624,5.41406A8.93975,8.93975,0,0,1,58.61475,42.822a14.781,14.781,0,0,1-9.34815,2.76709,24.74159,24.74159,0,0,1-12.12744-3.24854V35.09791a32.87988,32.87988,0,0,0,5.96777,3.29638A14.75306,14.75306,0,0,0,48.61719,39.429q4.93212,0,4.93261-3.102a2.74766,2.74766,0,0,0-.9873-1.99609,15.69352,15.69352,0,0,0-4.75293-2.28418,48.26686,48.26686,0,0,1-5.96728-2.502,11.24085,11.24085,0,0,1-3.80079-3.29736,8.9245,8.9245,0,0,1-1.60009-5.48779,8.37569,8.37569,0,0,1,3.48925-6.99219q3.48853-2.65943,9.33594-2.65967A28.63415,28.63415,0,0,1,60.64844,13.70679Z"/>
      <path class="cls-1" d="M74.25537,11.54127H89.27a11.23186,11.23186,0,0,1,7.94043,2.82519,8.97907,8.97907,0,0,1,3.05615,6.84131q0,5.5547-5.7749,8.22363,2.53051,1.15137,4.81152,6.20166,2.28077,5.05,4.40381,9.523H94.51855q-.82251-1.6604-2.86718-6.32861-2.04492-4.66773-3.5-5.99121A4.56833,4.56833,0,0,0,85.03516,31.513H82.62891V45.156H74.25537Zm8.37354,6.15966v7.65186h4.42724a5.199,5.199,0,0,0,3.35694-.99853,3.45174,3.45174,0,0,0,1.23925-2.85157q0-3.80127-4.78857-3.80176Z"/>
      <path class="cls-1" d="M114.25781,11.54127H128.791q5.19726,0,8.16894,2.50049a7.51778,7.51778,0,0,1,2.97168,5.91406q0,4.377-4.5957,6.70849a9.68859,9.68859,0,0,1,5.30566,3.22657,8.40192,8.40192,0,0,1,1.84082,5.39306,9.20291,9.20291,0,0,1-3.00781,7.127q-3.00732,2.74584-8.85449,2.74511H114.25781Zm8.373,6.15966v7.19483h4.37988a4.49861,4.49861,0,0,0,3.15235-1.03467A3.37421,3.37421,0,0,0,131.294,21.262a3.27375,3.27375,0,0,0-1.13086-2.55029,4.56745,4.56745,0,0,0-3.15235-1.01075Zm0,13.3545v7.94043h4.7168a9.38981,9.38981,0,0,0,4.8125-.92627,3.49682,3.49682,0,0,0,1.46777-3.21241,3.266,3.266,0,0,0-1.39551-2.7788,6.17526,6.17526,0,0,0-3.72949-1.023Z"/>
      <g>
        <path class="cls-1" d="M210.66968,11.35464H229.7854V15.651H215.497V25.93326h13.80578v4.32031H215.497V40.72818H230.244v4.29639H210.66968Z"/>
        <path class="cls-1" d="M265.66663,11.35464h4.85144V30.49478a22.74463,22.74463,0,0,1-.56726,5.86524,12.71865,12.71865,0,0,1-1.39991,3.29443,10.48721,10.48721,0,0,1-2.03943,2.353q-4.00689,3.45191-10.47509,3.45166-6.58905,0-10.57154-3.42725a10.97716,10.97716,0,0,1-2.03955-2.37744,12.33258,12.33258,0,0,1-1.37573-3.22217,23.84294,23.84294,0,0,1-.54309-5.98584V11.35464h4.85132V30.49478q0,4.75488,1.08618,6.61328a7.73728,7.73728,0,0,0,3.30664,2.981,11.47745,11.47745,0,0,0,5.23755,1.12207,10.59273,10.59273,0,0,0,6.99939-2.24463,6.95284,6.95284,0,0,0,2.05163-2.84814,17.526,17.526,0,0,0,.62745-5.62354Z"/>
        <path class="cls-1" d="M284.16992,45.07291V11.35464h8.44751a12.19362,12.19362,0,0,1,8.12183,2.53467,8.50139,8.50139,0,0,1,3.00488,6.85449,8.43511,8.43511,0,0,1-5.696,8.30274A14.9293,14.9293,0,0,1,301.21,31.943a58.41478,58.41478,0,0,1,4.34448,6.396q1.76148,2.87256,2.824,4.32031l1.78589,2.41358h-5.74439l-1.47021-2.22168q-.07251-.12012-.28931-.41065l-.94019-1.32812-1.49462-2.46289-1.61475-2.63282a26.21549,26.21549,0,0,0-2.73926-3.30517,10.43007,10.43007,0,0,0-2.24707-1.771,7.58693,7.58693,0,0,0-3.37085-.54248h-1.25659V45.07291Zm6.27527-29.61475h-1.44812v10.644h1.83435a13.60106,13.60106,0,0,0,5.03235-.62793,4.71663,4.71663,0,0,0,2.124-1.89453,5.49615,5.49615,0,0,0,.76026-2.88428,5.15624,5.15624,0,0,0-.84473-2.88427,4.52114,4.52114,0,0,0-2.37744-1.82227A17.16377,17.16377,0,0,0,290.44519,15.45816Z"/>
        <path class="cls-1" d="M334.2793,10.87222A18.13093,18.13093,0,0,1,347.292,15.82a16.414,16.414,0,0,1,5.198,12.40576,16.14927,16.14927,0,0,1-5.24634,12.3457,18.64966,18.64966,0,0,1-13.22949,4.8877,17.58442,17.58442,0,0,1-12.69922-4.8877,16.29328,16.29328,0,0,1-5.07739-12.249A16.66047,16.66047,0,0,1,321.35107,15.82,17.837,17.837,0,0,1,334.2793,10.87222Zm.19311,4.58594a13.0851,13.0851,0,0,0-9.51294,3.62012,12.33262,12.33262,0,0,0-3.72583,9.24414,12.10948,12.10948,0,0,0,3.7378,9.07519,13.87518,13.87518,0,0,0,18.77246-.07226,12.34416,12.34416,0,0,0,3.77392-9.1958,12.05787,12.05787,0,0,0-3.77392-9.01514A12.81541,12.81541,0,0,0,334.47241,15.45816Z"/>
        <path class="cls-1" d="M364.9834,45.07291V11.30679h10.69238a11.01958,11.01958,0,0,1,7.69922,2.60645,8.98822,8.98822,0,0,1,2.87231,6.99951,9.36243,9.36243,0,0,1-1.47241,5.21338,8.41835,8.41835,0,0,1-4.03052,3.29443,20.50709,20.50709,0,0,1-7.3374,1.02588h-3.57226V45.07291Zm9.84765-29.47022h-4.99633V26.15005h5.28589a6.6953,6.6953,0,0,0,4.53759-1.38769,4.98171,4.98171,0,0,0,1.593-3.97022Q381.25122,15.60294,374.83105,15.60269Z"/>
        <path class="cls-1" d="M397.26831,11.35464H416.384V15.651H402.09546V25.93326h13.80566v4.32031H402.09546V40.72818h14.74707v4.29639H397.26831Z"/>
        <path class="cls-1" d="M439.5708,11.16177h3.39282L458.082,45.07291h-4.94067l-4.4939-9.99219H434.26221l-4.21338,9.99219h-4.9607Zm7.09229,19.62256-5.44-12.21289-5.04492,12.21289Z"/>
        <path class="cls-1" d="M495.38721,11.35464h4.58569V45.07291h-4.15137l-22.543-25.96827V45.07291H468.741V11.35464h3.90991l22.73633,26.189Z"/>
        <path class="cls-1" d="M542.917,30.94546l-3.6687-2.229a16.66888,16.66888,0,0,1-4.91186-4.147,7.85741,7.85741,0,0,1-1.46021-4.69483,8.29381,8.29381,0,0,1,2.76367-6.46826,10.328,10.328,0,0,1,7.18042-2.48584,13.58966,13.58966,0,0,1,7.74781,2.3711v5.479a11.17149,11.17149,0,0,0-7.84424-3.50586,6.49029,6.49029,0,0,0-3.886,1.09424,3.31883,3.31883,0,0,0-1.52051,2.80029,4.31388,4.31388,0,0,0,1.12012,2.8374,14.09159,14.09159,0,0,0,3.60229,2.77686l3.68677,2.18164q6.16883,3.68481,6.16895,9.38037a8.60019,8.60019,0,0,1-2.71533,6.58936,9.93171,9.93171,0,0,1-7.05982,2.53418,14.82634,14.82634,0,0,1-9.09912-3.07129V36.257q3.91,4.95483,9.05078,4.9541a5.68521,5.68521,0,0,0,3.77735-1.2627,3.95693,3.95693,0,0,0,1.50854-3.16259Q547.35791,33.70743,542.917,30.94546Z"/>
        <path class="cls-1" d="M584.30664,11.35464h5.85962l-12.4541,15.88184V45.07291h-4.948V27.23648l-12.4541-15.88184h5.82739l9.02344,11.62452Z"/>
        <path class="cls-1" d="M608.06616,30.94546l-3.6687-2.229a16.66888,16.66888,0,0,1-4.91186-4.147,7.85741,7.85741,0,0,1-1.46021-4.69483,8.29381,8.29381,0,0,1,2.76367-6.46826,10.328,10.328,0,0,1,7.18042-2.48584,13.58966,13.58966,0,0,1,7.74781,2.3711v5.479a11.17149,11.17149,0,0,0-7.84424-3.50586,6.49029,6.49029,0,0,0-3.886,1.09424,3.31883,3.31883,0,0,0-1.52051,2.80029,4.31388,4.31388,0,0,0,1.12012,2.8374,14.09159,14.09159,0,0,0,3.60229,2.77686l3.68677,2.18164q6.16883,3.68481,6.16895,9.38037a8.60019,8.60019,0,0,1-2.71533,6.58936,9.93171,9.93171,0,0,1-7.05982,2.53418,14.82634,14.82634,0,0,1-9.09912-3.07129V36.257q3.91,4.95483,9.05078,4.9541a5.68521,5.68521,0,0,0,3.77735-1.2627,3.95693,3.95693,0,0,0,1.50854-3.16259Q612.50708,33.70743,608.06616,30.94546Z"/>
        <path class="cls-1" d="M626.304,11.30679H654.4707v4.2959H642.71655V45.07291h-4.85132V15.60269H626.304Z"/>
        <path class="cls-1" d="M665.85376,11.35464h19.11572V15.651H670.68091V25.93326h13.80566v4.32031H670.68091V40.72818H685.428v4.29639H665.85376Z"/>
        <path class="cls-1" d="M724.20557,11.35464H728.719V45.07291h-4.85131V18.83707l-10.36646,13.0332h-.89282l-10.48731-13.0332V45.07291H697.294V11.35464H701.864l11.20411,13.84815Z"/>
        <path class="cls-1" d="M742.85376,11.35464h4.82739V45.07291h-4.82739Z"/>
        <path class="cls-1" d="M791.04419,37.25259v5.31006a25.19484,25.19484,0,0,1-12.261,2.89649,18.89063,18.89063,0,0,1-9.582-2.269,16.704,16.704,0,0,1-6.22705-6.251,16.97461,16.97461,0,0,1-2.293-8.6167,16.45585,16.45585,0,0,1,5.24951-12.38184,18.017,18.017,0,0,1,12.949-5.02A30.38469,30.38469,0,0,1,790.68237,13.696v5.18946a23.23625,23.23625,0,0,0-11.56128-3.37891,13.36556,13.36556,0,0,0-9.61816,3.65625,12.14415,12.14415,0,0,0-3.82568,9.15967,12.02433,12.02433,0,0,0,3.76538,9.12353,13.426,13.426,0,0,0,9.63012,3.57227A21.8425,21.8425,0,0,0,791.04419,37.25259Z"/>
        <path class="cls-1" d="M824.50269,45.07291V11.35464h8.44751a12.19357,12.19357,0,0,1,8.12182,2.53467,8.50136,8.50136,0,0,1,3.00488,6.85449,8.43508,8.43508,0,0,1-5.696,8.30274,14.92906,14.92906,0,0,1,3.16186,2.89648,58.4145,58.4145,0,0,1,4.34449,6.396q1.76146,2.87256,2.824,4.32031l1.78589,2.41358h-5.74438l-1.47022-2.22168q-.07251-.12012-.28931-.41065l-.94018-1.32812-1.49463-2.46289-1.61475-2.63282a26.21552,26.21552,0,0,0-2.73925-3.30517,10.43007,10.43007,0,0,0-2.24707-1.771,7.587,7.587,0,0,0-3.37085-.54248h-1.2566V45.07291Zm6.27539-29.61475h-1.44825v10.644h1.83423a13.60139,13.60139,0,0,0,5.03247-.62793,4.71671,4.71671,0,0,0,2.124-1.89453,5.49624,5.49624,0,0,0,.76025-2.88428,5.15624,5.15624,0,0,0-.84473-2.88427,4.5211,4.5211,0,0,0-2.37744-1.82227A17.16335,17.16335,0,0,0,830.77808,15.45816Z"/>
        <path class="cls-1" d="M861.08374,11.35464h4.82739V45.07291h-4.82739Z"/>
        <path class="cls-1" d="M888.56592,30.94546l-3.6687-2.229a16.66907,16.66907,0,0,1-4.91187-4.147,7.85747,7.85747,0,0,1-1.4602-4.69483,8.29381,8.29381,0,0,1,2.76367-6.46826,10.328,10.328,0,0,1,7.18042-2.48584,13.58965,13.58965,0,0,1,7.7478,2.3711v5.479a11.17146,11.17146,0,0,0-7.84424-3.50586,6.49026,6.49026,0,0,0-3.886,1.09424,3.3188,3.3188,0,0,0-1.52051,2.80029,4.31388,4.31388,0,0,0,1.12012,2.8374,14.09141,14.09141,0,0,0,3.60229,2.77686l3.68677,2.18164q6.16882,3.68481,6.16894,9.38037A8.60019,8.60019,0,0,1,894.8291,42.925a9.93169,9.93169,0,0,1-7.05981,2.53418,14.82632,14.82632,0,0,1-9.09912-3.07129V36.257q3.91,4.95483,9.05078,4.9541a5.68519,5.68519,0,0,0,3.77734-1.2627,3.95694,3.95694,0,0,0,1.50855-3.16259Q893.00684,33.70743,888.56592,30.94546Z"/>
        <path class="cls-1" d="M928.74463,11.35464h6.03247L920.15186,27.35709l18.22168,17.71582h-6.58887L914.55127,28.4191V45.07291h-4.82739V11.35464h4.82739V26.778Z"/>
        <path class="cls-1" d="M980.88306,45.07291H969.4668V11.35464h8.83374a15.37979,15.37979,0,0,1,6.5166,1.12256,8.06706,8.06706,0,0,1,4.80322,7.63916q0,4.97241-5.14111,7.12012a10.43273,10.43273,0,0,1,5.8772,3.041,7.924,7.924,0,0,1,2.18432,5.59961,8.22947,8.22947,0,0,1-1.32739,4.60986,9.65587,9.65587,0,0,1-3.89819,3.30664A14.37669,14.37669,0,0,1,980.88306,45.07291ZM978.44531,15.651H974.294V25.78824h3.21q3.86169,0,5.491-1.47217a4.90261,4.90261,0,0,0,1.62915-3.81348Q984.624,15.651,978.44531,15.651Zm.36206,14.43359H974.294v10.6919h4.75488a15.49791,15.49791,0,0,0,5.37012-.61524,5.10354,5.10354,0,0,0,2.26879-1.91894,5.003,5.003,0,0,0,.85694-2.79981,4.78111,4.78111,0,0,0-.90528-2.82373,5.36347,5.36347,0,0,0-2.57031-1.90673A16.09559,16.09559,0,0,0,978.80737,30.08462Z"/>
        <path class="cls-1" d="M1020.66211,10.87222A18.13091,18.13091,0,0,1,1033.6748,15.82a16.414,16.414,0,0,1,5.198,12.40576,16.14927,16.14927,0,0,1-5.24634,12.3457,18.64966,18.64966,0,0,1-13.22949,4.8877,17.58443,17.58443,0,0,1-12.69922-4.8877,16.29328,16.29328,0,0,1-5.07739-12.249A16.66048,16.66048,0,0,1,1007.73389,15.82,17.837,17.837,0,0,1,1020.66211,10.87222Zm.19311,4.58594a13.08508,13.08508,0,0,0-9.51293,3.62012,12.33259,12.33259,0,0,0-3.72583,9.24414,12.10947,12.10947,0,0,0,3.73779,9.07519,13.87518,13.87518,0,0,0,18.77246-.07226,12.34416,12.34416,0,0,0,3.77392-9.1958,12.05787,12.05787,0,0,0-3.77392-9.01514A12.81539,12.81539,0,0,0,1020.85522,15.45816Z"/>
        <path class="cls-1" d="M1060.41846,11.16177h3.39282l15.11841,33.91114H1073.989l-4.49389-9.99219h-14.38526l-4.21338,9.99219h-4.96069Zm7.09228,19.62256-5.43994-12.21289-5.04492,12.21289Z"/>
        <path class="cls-1" d="M1089.58862,45.07291V11.35464h8.44751a12.19358,12.19358,0,0,1,8.12183,2.53467,8.50139,8.50139,0,0,1,3.00488,6.85449,8.43511,8.43511,0,0,1-5.696,8.30274,14.9293,14.9293,0,0,1,3.16186,2.89648,58.41478,58.41478,0,0,1,4.34448,6.396q1.76148,2.87256,2.824,4.32031l1.78589,2.41358h-5.74439l-1.47021-2.22168q-.07251-.12012-.28931-.41065l-.94018-1.32812-1.49463-2.46289-1.61475-2.63282a26.21549,26.21549,0,0,0-2.73926-3.30517,10.42983,10.42983,0,0,0-2.24707-1.771,7.58693,7.58693,0,0,0-3.37085-.54248h-1.25659V45.07291Zm6.27539-29.61475h-1.44824v10.644H1096.25a13.60139,13.60139,0,0,0,5.03247-.62793,4.71663,4.71663,0,0,0,2.124-1.89453,5.49615,5.49615,0,0,0,.76026-2.88428,5.15624,5.15624,0,0,0-.84473-2.88427,4.52114,4.52114,0,0,0-2.37744-1.82227A17.16338,17.16338,0,0,0,1095.864,15.45816Z"/>
        <path class="cls-1" d="M1126.16968,45.02457V11.35464h11.36816q6.87891,0,10.88526,2.064a15.57157,15.57157,0,0,1,6.37207,6.07031,16.88014,16.88014,0,0,1,2.36523,8.73682,16.62666,16.62666,0,0,1-10.74048,15.54394,16.99056,16.99056,0,0,1-3.49975,1.00147,46.84664,46.84664,0,0,1-6.08228.25342ZM1137.031,15.651h-6.03394V40.72818h6.17871a24.701,24.701,0,0,0,5.62378-.49463,13.21038,13.21038,0,0,0,3.34277-1.25488,11.43246,11.43246,0,0,0,2.44971-1.87061,12.48832,12.48832,0,0,0,3.57227-9.14746,11.57313,11.57313,0,0,0-3.6687-8.85791,11.715,11.715,0,0,0-3.10157-2.1001,12.98543,12.98543,0,0,0-3.3186-1.08593A33.77789,33.77789,0,0,0,1137.031,15.651Z"/>
      </g>
    </g>
  </g>
</svg>
