<svg width="167" height="41" viewBox="0 0 167 41" fill="none" xmlns="http://www.w3.org/2000/svg">
<path d="M60.0621 20.9354C59.2431 20.4654 58.6164 19.8137 58.1819 18.9876C57.7475 18.1615 57.5303 17.2285 57.5303 16.1887C57.5303 15.0955 57.7689 14.1305 58.246 13.3008C58.7232 12.4675 59.382 11.823 60.2223 11.3672C61.0627 10.9078 62.0206 10.6799 63.096 10.6799C64.3851 10.6799 65.4854 11.0075 66.397 11.6663C67.3086 12.3251 67.914 13.2723 68.2131 14.5079H66.4469C66.251 13.5465 65.8664 12.7773 65.2896 12.2076C64.7162 11.6378 63.9863 11.3529 63.1103 11.3529C62.3731 11.3529 61.7251 11.5559 61.1696 11.9619C60.614 12.3678 60.1867 12.9162 59.8947 13.6106C59.5992 14.3014 59.4532 15.0706 59.4532 15.9109C59.4532 16.7976 59.6027 17.5917 59.9019 18.2897C60.201 18.984 60.6497 19.5324 61.2479 19.9312C61.8461 20.3301 62.5654 20.5295 63.4058 20.5295C64.5168 20.5295 65.4284 20.1983 66.1406 19.5395C66.8528 18.8808 67.305 17.9799 67.5009 16.8404H68.2985C68.1597 17.8125 67.8534 18.66 67.3869 19.3864C66.9205 20.1093 66.308 20.6684 65.5495 21.0636C64.791 21.4553 63.9186 21.6512 62.9287 21.6512C61.8354 21.6512 60.8776 21.4162 60.0621 20.9425V20.9354Z" fill="#112E46"/>
<path d="M71.1542 21.2308C70.588 20.9281 70.1536 20.4973 69.8438 19.9418C69.534 19.3863 69.3809 18.7382 69.3809 17.9975C69.3809 17.2568 69.534 16.6123 69.8438 16.0568C70.1536 15.5013 70.588 15.074 71.1542 14.7748C71.7204 14.4757 72.372 14.3262 73.1092 14.3262C73.8463 14.3262 74.5015 14.4757 75.0641 14.7748C75.6303 15.074 76.0683 15.5013 76.3745 16.0568C76.6843 16.6123 76.8375 17.2604 76.8375 17.9975C76.8375 18.7346 76.6843 19.3827 76.3745 19.9418C76.0647 20.4973 75.6303 20.9281 75.0641 21.2308C74.4979 21.5335 73.8463 21.6866 73.1092 21.6866C72.372 21.6866 71.7204 21.5335 71.1542 21.2308ZM71.5886 20.2907C71.9483 20.8284 72.4611 21.0955 73.1234 21.0955C73.7857 21.0955 74.27 20.8249 74.6297 20.2836C74.9893 19.7424 75.1709 18.9803 75.1709 17.9975C75.1709 17.0147 74.9893 16.2562 74.6297 15.7185C74.27 15.1808 73.7679 14.9137 73.1234 14.9137C72.4789 14.9137 71.9483 15.1808 71.5886 15.7114C71.229 16.2455 71.0474 17.0076 71.0474 17.9975C71.0474 18.9874 71.229 19.753 71.5886 20.2907Z" fill="#112E46"/>
<path d="M77.7812 21.3804C78.0697 21.2416 78.262 21.0386 78.3546 20.7751C78.4471 20.5151 78.4934 20.0878 78.4934 19.5003V16.5126C78.4934 15.9037 78.4507 15.4764 78.3617 15.2236C78.2727 14.9707 78.0839 14.7749 77.7955 14.636V14.5648H80.3772C80.2846 14.7037 80.2169 14.8888 80.1813 15.1167C80.1422 15.3446 80.1208 15.6794 80.1101 16.1174C80.3451 15.5832 80.6834 15.1524 81.1321 14.8212C81.5808 14.49 82.1185 14.3227 82.7452 14.3227C83.9773 14.3227 84.6823 14.9529 84.8497 16.2135C85.0634 15.6509 85.4017 15.1986 85.8681 14.8461C86.3311 14.4936 86.883 14.3191 87.5311 14.3191C88.2219 14.3191 88.7525 14.5256 89.1157 14.9351C89.4789 15.3482 89.6605 15.9963 89.6605 16.883V19.4896C89.6605 20.0771 89.7033 20.5044 89.7887 20.7644C89.8742 21.0279 90.0558 21.2273 90.3371 21.3697V21.441H87.4207V21.3697C87.6842 21.2309 87.8516 21.0279 87.9335 20.7644C88.0118 20.5044 88.051 20.0771 88.051 19.4896V16.9649C88.051 16.3559 87.9442 15.9144 87.7269 15.6331C87.5133 15.3518 87.1892 15.2129 86.7584 15.2129C86.2919 15.2129 85.8966 15.3696 85.5726 15.6829C85.2485 15.9963 85.0242 16.4058 84.8924 16.9115V19.4931C84.8924 20.0807 84.9352 20.508 85.0171 20.7679C85.1025 21.0315 85.2841 21.2309 85.5655 21.3733V21.4445H82.6348V21.3733C82.8983 21.2344 83.0692 21.0315 83.1476 20.7679C83.2259 20.508 83.2651 20.0807 83.2651 19.4931V16.9684C83.2651 16.3595 83.1583 15.918 82.941 15.6366C82.7274 15.3553 82.4033 15.2164 81.9725 15.2164C81.506 15.2164 81.1072 15.3803 80.7796 15.7079C80.452 16.0355 80.2276 16.4557 80.1065 16.9684V19.4931C80.1065 20.0807 80.1493 20.508 80.2347 20.7679C80.3166 21.0315 80.4947 21.2309 80.7689 21.3733V21.4445H77.7812V21.3733V21.3804Z" fill="#112E46"/>
<path d="M91.3838 21.3804C91.6722 21.2416 91.8645 21.0386 91.9571 20.7751C92.0497 20.5151 92.096 20.0878 92.096 19.5003V16.5126C92.096 15.9037 92.0532 15.4764 91.9642 15.2236C91.8752 14.9707 91.6865 14.7749 91.3945 14.636V14.5648H93.9762C93.8836 14.7037 93.8159 14.8888 93.7803 15.1167C93.7447 15.3446 93.7198 15.6794 93.7091 16.1174C93.9405 15.5832 94.2824 15.1524 94.7311 14.8212C95.1797 14.49 95.7174 14.3227 96.3442 14.3227C97.5798 14.3227 98.2813 14.9529 98.4487 16.2135C98.6623 15.6509 99.0042 15.1986 99.4671 14.8461C99.93 14.4936 100.486 14.3191 101.13 14.3191C101.821 14.3191 102.351 14.5256 102.715 14.9351C103.078 15.3482 103.263 15.9963 103.263 16.883V19.4896C103.263 20.0771 103.306 20.5044 103.391 20.7644C103.473 21.0279 103.658 21.2273 103.936 21.3697V21.441H101.02V21.3697C101.28 21.2309 101.451 21.0279 101.532 20.7644C101.611 20.5044 101.65 20.0771 101.65 19.4896V16.9649C101.65 16.3559 101.543 15.9144 101.326 15.6331C101.112 15.3518 100.788 15.2129 100.357 15.2129C99.8909 15.2129 99.4956 15.3696 99.1716 15.6829C98.8475 15.9963 98.6232 16.4058 98.4914 16.9115V19.4931C98.4914 20.0807 98.5342 20.508 98.6196 20.7679C98.7015 21.0315 98.8867 21.2309 99.168 21.3733V21.4445H96.2373V21.3733C96.4973 21.2344 96.6682 21.0315 96.7501 20.7679C96.8285 20.508 96.8712 20.0807 96.8712 19.4931V16.9684C96.8712 16.3595 96.7644 15.918 96.5471 15.6366C96.3335 15.3553 96.0094 15.2164 95.5786 15.2164C95.1121 15.2164 94.7133 15.3803 94.3857 15.7079C94.058 16.0355 93.8337 16.4557 93.7126 16.9684V19.4931C93.7126 20.0807 93.7554 20.508 93.8373 20.7679C93.9227 21.0315 94.1008 21.2309 94.3714 21.3733V21.4445H91.3838V21.3733V21.3804Z" fill="#112E46"/>
<path d="M106.582 21.2308C106.016 20.9281 105.581 20.4973 105.272 19.9418C104.962 19.3863 104.809 18.7382 104.809 17.9975C104.809 17.2568 104.962 16.6123 105.272 16.0568C105.581 15.5013 106.016 15.074 106.582 14.7748C107.148 14.4757 107.8 14.3262 108.537 14.3262C109.274 14.3262 109.929 14.4757 110.492 14.7748C111.058 15.074 111.496 15.5013 111.802 16.0568C112.112 16.6123 112.265 17.2604 112.265 17.9975C112.265 18.7346 112.112 19.3827 111.802 19.9418C111.492 20.4973 111.058 20.9281 110.492 21.2308C109.926 21.5335 109.274 21.6866 108.537 21.6866C107.8 21.6866 107.148 21.5335 106.582 21.2308ZM107.016 20.2907C107.376 20.8284 107.889 21.0955 108.551 21.0955C109.213 21.0955 109.698 20.8249 110.057 20.2836C110.417 19.7424 110.599 18.9803 110.599 17.9975C110.599 17.0147 110.417 16.2562 110.057 15.7185C109.698 15.1808 109.196 14.9137 108.551 14.9137C107.907 14.9137 107.376 15.1808 107.016 15.7114C106.657 16.2455 106.475 17.0076 106.475 17.9975C106.475 18.9874 106.657 19.753 107.016 20.2907Z" fill="#112E46"/>
<path d="M113.213 21.3804C113.512 21.2415 113.708 21.0385 113.8 20.775C113.893 20.5151 113.939 20.0878 113.939 19.5002V16.5126C113.939 15.9037 113.893 15.4764 113.8 15.2235C113.708 14.9707 113.515 14.7748 113.227 14.636V14.5648H115.862C115.769 14.7036 115.702 14.8852 115.666 15.1096C115.627 15.3339 115.605 15.6615 115.595 16.0924C115.837 15.5689 116.189 15.1452 116.645 14.8176C117.101 14.49 117.646 14.3262 118.273 14.3262C119.729 14.3262 120.459 15.1808 120.459 16.89V19.4967C120.459 20.0842 120.502 20.5115 120.591 20.7715C120.68 21.035 120.865 21.2344 121.146 21.3768V21.448H118.159V21.3768C118.429 21.2379 118.604 21.035 118.686 20.7715C118.764 20.5115 118.803 20.0842 118.803 19.4967V16.9719C118.803 16.363 118.693 15.9215 118.472 15.6402C118.251 15.3588 117.924 15.22 117.486 15.22C117.019 15.22 116.617 15.3766 116.286 15.69C115.954 16.0034 115.723 16.4129 115.591 16.9185V19.5002C115.591 20.0878 115.634 20.5151 115.716 20.775C115.801 21.0385 115.983 21.2379 116.264 21.3804V21.4516H113.209V21.3804H113.213Z" fill="#112E46"/>
<path d="M121.88 15.0527C121.741 14.839 121.563 14.6966 121.346 14.6325V14.5613H124.362V14.6325C124.027 14.718 123.856 14.9031 123.856 15.1951C123.856 15.3447 123.913 15.5868 124.024 15.9251L125.298 19.6819L126.883 14.8319H127.681L129.308 19.6819L130.558 15.9785C130.679 15.6331 130.739 15.3767 130.739 15.2058C130.739 14.9067 130.572 14.7144 130.234 14.6325V14.5613H132.267V14.6325C132.053 14.7464 131.875 14.896 131.74 15.0883C131.605 15.2806 131.462 15.5761 131.313 15.9785L129.614 20.7181C129.504 21.0173 129.436 21.2594 129.418 21.4481H128.407L126.808 16.68L125.505 20.6754C125.391 20.9567 125.323 21.2131 125.295 21.4481H124.283L122.336 16.064C122.168 15.6082 122.012 15.2699 121.873 15.0527H121.88Z" fill="#112E46"/>
<path d="M134.261 21.2523C133.727 20.9638 133.31 20.5437 133.008 19.9953C132.705 19.4469 132.552 18.8024 132.552 18.0546C132.552 17.3068 132.712 16.6373 133.036 16.0711C133.36 15.5049 133.795 15.0705 134.346 14.7678C134.898 14.4651 135.511 14.312 136.184 14.312C136.857 14.312 137.448 14.4509 137.957 14.7251C138.466 14.9993 138.862 15.3803 139.143 15.8681C139.424 16.3524 139.57 16.9115 139.577 17.5347H134.179V17.702C134.179 18.6065 134.379 19.3401 134.774 19.8956C135.169 20.4511 135.757 20.7288 136.533 20.7288C137.17 20.7288 137.683 20.5472 138.075 20.1876C138.466 19.8279 138.748 19.3365 138.915 18.7098H139.617C139.428 19.6178 139.04 20.3371 138.445 20.8748C137.85 21.4125 137.067 21.6832 136.095 21.6832C135.404 21.6832 134.792 21.5372 134.257 21.2487L134.261 21.2523ZM137.979 16.9756C137.932 16.3489 137.754 15.8503 137.444 15.4764C137.135 15.1025 136.711 14.9138 136.17 14.9138C135.628 14.9138 135.215 15.099 134.881 15.4693C134.542 15.8397 134.329 16.3417 134.236 16.9756H137.979Z" fill="#112E46"/>
<path d="M141.216 21.1741C140.842 20.8607 140.653 20.4156 140.653 19.8352C140.653 19.415 140.76 19.0696 140.97 18.7989C141.18 18.5283 141.479 18.304 141.868 18.1259C142.256 17.9479 142.776 17.7663 143.431 17.5775C143.965 17.428 144.357 17.2998 144.61 17.2001C144.862 17.0968 145.055 16.9579 145.194 16.787C145.329 16.6161 145.396 16.3775 145.396 16.0784C145.414 15.7152 145.315 15.4267 145.094 15.2166C144.873 15.0065 144.553 14.8997 144.132 14.8997C143.645 14.8997 143.239 15.06 142.911 15.3769C142.583 15.6938 142.416 16.1816 142.405 16.8333H140.917C140.956 16.292 141.134 15.8327 141.458 15.4517C141.782 15.0742 142.195 14.7893 142.704 14.597C143.214 14.4047 143.755 14.3086 144.325 14.3086C145.137 14.3086 145.792 14.5009 146.287 14.889C146.782 15.2772 147.031 15.8932 147.031 16.7336V19.7212C147.031 20.0844 147.081 20.3479 147.177 20.5117C147.273 20.6755 147.426 20.7574 147.633 20.7574C147.839 20.7574 148.003 20.6969 148.153 20.5758L148.167 21.0388C147.978 21.2168 147.782 21.3486 147.569 21.4376C147.359 21.5266 147.124 21.5693 146.86 21.5693C146.429 21.5693 146.077 21.4233 145.802 21.1349C145.528 20.8465 145.389 20.4014 145.389 19.8031V19.536C145.194 20.1699 144.866 20.6791 144.407 21.0637C143.947 21.4483 143.377 21.637 142.697 21.637C142.081 21.637 141.583 21.4803 141.209 21.167L141.216 21.1741ZM142.541 20.3764C142.74 20.558 143 20.6506 143.317 20.6506C143.933 20.6506 144.435 20.3942 144.82 19.8779C145.201 19.3651 145.393 18.6957 145.393 17.8731V17.1573C145.318 17.3532 145.165 17.5134 144.937 17.6345C144.709 17.7556 144.35 17.898 143.865 18.0547C143.285 18.2434 142.868 18.4428 142.619 18.6565C142.37 18.8702 142.242 19.1728 142.242 19.5681C142.242 19.9242 142.341 20.1913 142.544 20.3729L142.541 20.3764Z" fill="#112E46"/>
<path d="M148.933 21.3804C149.242 21.2416 149.445 21.0386 149.542 20.7751C149.641 20.5151 149.688 20.0878 149.688 19.5003V12.4603C149.688 11.9938 149.641 11.6448 149.549 11.4169C149.456 11.189 149.278 11.0039 149.015 10.865V10.808L151.372 10.4697L151.457 10.5267C151.411 10.7154 151.379 10.9326 151.365 11.1855C151.35 11.4383 151.343 11.8621 151.343 12.4603V19.5003C151.343 20.0878 151.386 20.5151 151.475 20.7751C151.564 21.0386 151.756 21.238 152.059 21.3804V21.4517H148.933V21.3804Z" fill="#112E46"/>
<path d="M154.541 21.0352C154.167 20.6648 153.978 20.0559 153.978 19.2048V15.2095H152.575V14.5649H153.978V12.7845L155.577 11.6343H155.634V14.5649H157.892V15.2095H155.634V19.1763C155.634 19.7105 155.727 20.0844 155.908 20.298C156.09 20.5117 156.353 20.6221 156.702 20.6221C157.336 20.6221 157.835 20.2624 158.187 19.5431L158.34 19.9918C158.116 20.5046 157.803 20.8998 157.4 21.1776C156.998 21.4553 156.546 21.5907 156.04 21.5907C155.413 21.5907 154.915 21.4055 154.541 21.0352Z" fill="#112E46"/>
<path d="M158.814 21.3804C159.124 21.2416 159.327 21.0386 159.423 20.7751C159.522 20.5151 159.569 20.0878 159.569 19.5003V12.4603C159.569 11.9938 159.522 11.6448 159.43 11.4169C159.337 11.189 159.159 11.0039 158.896 10.865V10.808L161.253 10.4697L161.338 10.5267C161.292 10.7154 161.26 10.9326 161.246 11.1855C161.232 11.4383 161.225 11.8621 161.225 12.4603V16.1067C161.467 15.5725 161.819 15.1417 162.275 14.8176C162.731 14.4936 163.276 14.3262 163.902 14.3262C165.362 14.3262 166.089 15.1808 166.089 16.8901V19.4967C166.089 20.0843 166.131 20.5116 166.221 20.7715C166.31 21.035 166.495 21.2344 166.772 21.3769V21.4481H163.785V21.3769C164.055 21.238 164.23 21.035 164.312 20.7715C164.39 20.5116 164.429 20.0843 164.429 19.4967V16.972C164.429 16.3631 164.319 15.9215 164.102 15.6402C163.881 15.3589 163.553 15.22 163.112 15.22C162.645 15.22 162.247 15.3767 161.912 15.6901C161.581 16.0034 161.349 16.4129 161.217 16.9186V19.5003C161.217 20.0878 161.26 20.5151 161.349 20.7751C161.438 21.0386 161.63 21.238 161.933 21.3804V21.4517H158.807V21.3804H158.814Z" fill="#112E46"/>
<path d="M59.3359 37.0309C58.7697 36.7282 58.3317 36.2973 58.0254 35.7418C57.7192 35.1863 57.5625 34.5382 57.5625 33.7975C57.5625 33.0569 57.7156 32.4123 58.0254 31.8568C58.3352 31.3013 58.7732 30.874 59.3359 30.5749C59.902 30.2758 60.5537 30.1262 61.2908 30.1262C62.0279 30.1262 62.6831 30.2758 63.2458 30.5749C63.8119 30.874 64.2499 31.3013 64.5562 31.8568C64.866 32.4123 65.0191 33.0604 65.0191 33.7975C65.0191 34.5347 64.866 35.1827 64.5562 35.7418C64.2499 36.2973 63.8119 36.7282 63.2458 37.0309C62.6796 37.3336 62.0279 37.4867 61.2908 37.4867C60.5537 37.4867 59.8985 37.3336 59.3359 37.0309ZM59.7703 36.0908C60.1299 36.6285 60.6427 36.8956 61.305 36.8956C61.9674 36.8956 62.4517 36.6249 62.8113 36.0837C63.171 35.5424 63.3526 34.7804 63.3526 33.7975C63.3526 32.8147 63.171 32.0562 62.8113 31.5185C62.4517 30.9808 61.9496 30.7138 61.305 30.7138C60.6605 30.7138 60.1299 30.9808 59.7703 31.5114C59.4106 32.0456 59.229 32.8076 59.229 33.7975C59.229 34.7875 59.4106 35.5531 59.7703 36.0908Z" fill="#112E46"/>
<path d="M66.2581 37.1767C66.5573 37.0378 66.7531 36.8348 66.8457 36.5713C66.9383 36.3114 66.9846 35.8841 66.9846 35.2965V31.0056H65.4961V30.361H66.9846V29.4352C66.9846 28.342 67.2374 27.523 67.743 26.9817C68.2487 26.4405 68.9075 26.1663 69.7194 26.1663C70.2891 26.1663 70.7948 26.298 71.2328 26.558C71.6708 26.8179 72.0055 27.1669 72.2298 27.5942L71.1794 28.4061C70.9087 27.3307 70.4031 26.793 69.666 26.793C68.8612 26.793 68.4588 27.3877 68.4588 28.5735C68.4588 28.9367 68.5051 29.5313 68.5977 30.3539H71.1509V30.9985H68.6404V35.2324C68.6404 35.8413 68.6974 36.2793 68.8149 36.5499C68.9324 36.8206 69.1817 37.0271 69.5662 37.166V37.2372H66.2581V37.166V37.1767Z" fill="#112E46"/>
<path d="M75.862 37.1769C76.1896 37.038 76.4032 36.835 76.5065 36.5715C76.6098 36.3116 76.6596 35.8843 76.6596 35.2967V28.5808C76.6596 28.1606 76.6418 27.8366 76.6026 27.6051C76.567 27.3772 76.4922 27.1956 76.3783 27.0603C76.2679 26.925 76.0934 26.8074 75.8584 26.7006V26.6294H79.8253C81.2176 26.6294 82.2895 26.843 83.0444 27.2739C83.7957 27.7048 84.1732 28.4063 84.1732 29.3784C84.1732 30.3506 83.753 31.0806 82.9126 31.5435C82.0722 32.0064 80.9399 32.2379 79.519 32.2379H78.4686V35.2932C78.4686 35.8807 78.522 36.308 78.6288 36.568C78.7356 36.8315 78.9671 37.0309 79.3232 37.1733V37.2445H75.8584V37.1733L75.862 37.1769ZM79.3837 31.6218C80.2918 31.6218 81.004 31.4438 81.5274 31.0806C82.0509 30.7209 82.3144 30.1547 82.3144 29.3784C82.3144 28.6022 82.0829 28.1001 81.6129 27.7582C81.1464 27.4164 80.4947 27.2454 79.665 27.2454H78.4721V31.6183H79.3837V31.6218Z" fill="#112E46"/>
<path d="M86.1855 37.0521C85.6513 36.7636 85.2347 36.3435 84.9285 35.7951C84.6258 35.2467 84.4727 34.6022 84.4727 33.8544C84.4727 33.1066 84.6329 32.4371 84.9569 31.8709C85.281 31.3047 85.7154 30.8703 86.2674 30.5676C86.8193 30.2649 87.4318 30.1118 88.1048 30.1118C88.7778 30.1118 89.3689 30.2507 89.8782 30.5249C90.3874 30.7991 90.7826 31.1801 91.0639 31.6679C91.3453 32.1522 91.4913 32.7113 91.4984 33.3345H86.1V33.5018C86.1 34.4063 86.2994 35.1399 86.6947 35.6954C87.0935 36.2509 87.6775 36.5286 88.4538 36.5286C89.0912 36.5286 89.604 36.347 89.9957 35.9874C90.3874 35.6277 90.6687 35.1363 90.836 34.5096H91.5376C91.3488 35.4176 90.9607 36.1369 90.366 36.6746C89.7713 37.2123 88.9879 37.483 88.0193 37.483C87.3285 37.483 86.716 37.337 86.1819 37.0485L86.1855 37.0521ZM89.8995 32.7754C89.8532 32.1487 89.6752 31.6501 89.3654 31.2762C89.0591 30.9023 88.6318 30.7136 88.0906 30.7136C87.5493 30.7136 87.1362 30.8988 86.8015 31.2691C86.4668 31.6395 86.2496 32.1415 86.157 32.7754H89.8995Z" fill="#112E46"/>
<path d="M92.4206 37.1768C92.7197 37.0379 92.9155 36.8349 93.0081 36.5714C93.1007 36.3115 93.147 35.8842 93.147 35.2966V32.309C93.147 31.7001 93.1007 31.2727 93.0081 31.0199C92.9155 30.7671 92.7232 30.5712 92.4348 30.4324V30.3611H95.0699C94.9773 30.5 94.9096 30.6816 94.874 30.906C94.8349 31.1303 94.8135 31.4579 94.8028 31.8888C95.045 31.3653 95.3975 30.9416 95.8533 30.614C96.3127 30.2864 96.8539 30.1226 97.4806 30.1226C98.9371 30.1226 99.6671 30.9772 99.6671 32.6864V35.293C99.6671 35.8806 99.7098 36.3079 99.7988 36.5679C99.8878 36.8314 100.073 37.0308 100.354 37.1732V37.2444H97.3667V37.1732C97.6373 37.0343 97.8118 36.8314 97.8937 36.5679C97.9721 36.3079 98.0112 35.8806 98.0112 35.293V32.7683C98.0112 32.1594 97.9008 31.7179 97.6801 31.4365C97.4593 31.1552 97.1317 31.0164 96.6937 31.0164C96.2272 31.0164 95.8248 31.173 95.4936 31.4864C95.1625 31.7998 94.931 32.2093 94.7993 32.7149V35.2966C94.7993 35.8842 94.842 36.3115 94.9239 36.5714C95.0094 36.8349 95.191 37.0343 95.4723 37.1768V37.248H92.417V37.1768H92.4206Z" fill="#112E46"/>
<path d="M101.412 37.1768C101.711 37.0379 101.907 36.8349 101.999 36.5714C102.092 36.3115 102.138 35.8842 102.138 35.2966V32.309C102.138 31.7001 102.092 31.2727 101.999 31.0199C101.907 30.7671 101.714 30.5712 101.426 30.4324V30.3611H104.061C103.969 30.5 103.901 30.6816 103.865 30.906C103.826 31.1303 103.805 31.4579 103.794 31.8888C104.036 31.3653 104.389 30.9416 104.845 30.614C105.304 30.2864 105.845 30.1226 106.472 30.1226C107.932 30.1226 108.658 30.9772 108.658 32.6864V35.293C108.658 35.8806 108.701 36.3079 108.79 36.5679C108.879 36.8314 109.064 37.0308 109.342 37.1732V37.2444H106.354V37.1732C106.625 37.0343 106.799 36.8314 106.881 36.5679C106.96 36.3079 106.999 35.8806 106.999 35.293V32.7683C106.999 32.1594 106.888 31.7179 106.671 31.4365C106.45 31.1552 106.123 31.0164 105.681 31.0164C105.215 31.0164 104.812 31.173 104.481 31.4864C104.15 31.7998 103.919 32.2093 103.787 32.7149V35.2966C103.787 35.8842 103.83 36.3115 103.915 36.5714C104.001 36.8349 104.182 37.0343 104.463 37.1768V37.248H101.408V37.1768H101.412Z" fill="#112E46"/>
<path d="M111.176 36.8064C110.581 36.3542 110.233 35.7381 110.133 34.9619H111.593C111.65 35.5779 111.838 36.0622 112.166 36.4112C112.494 36.7637 112.942 36.9382 113.512 36.9382C113.932 36.9382 114.271 36.8456 114.523 36.6569C114.776 36.4717 114.901 36.2189 114.901 35.8984C114.901 35.6669 114.826 35.4604 114.677 35.2895C114.527 35.1185 114.32 34.9619 114.053 34.8265C113.786 34.6912 113.391 34.5167 112.868 34.2995C112.326 34.0859 111.892 33.8865 111.564 33.712C111.237 33.5339 110.97 33.3096 110.767 33.0389C110.56 32.7683 110.457 32.4372 110.457 32.0419C110.457 31.433 110.71 30.9594 111.215 30.6175C111.721 30.2757 112.38 30.1047 113.192 30.1047C114.004 30.1047 114.712 30.297 115.261 30.678C115.809 31.0626 116.147 31.5932 116.279 32.2769H114.833C114.769 31.7819 114.595 31.3902 114.313 31.0982C114.032 30.8098 113.651 30.6638 113.163 30.6638C112.771 30.6638 112.458 30.7493 112.23 30.9166C112.002 31.084 111.885 31.3155 111.885 31.6039C111.885 31.9315 112.034 32.1986 112.333 32.4087C112.633 32.6188 113.142 32.8645 113.861 33.1458C114.424 33.3701 114.876 33.5766 115.221 33.7689C115.567 33.9612 115.841 34.1927 116.048 34.4633C116.254 34.734 116.357 35.0687 116.357 35.4604C116.357 36.1049 116.09 36.6034 115.553 36.9524C115.015 37.305 114.324 37.4794 113.484 37.4794C112.54 37.4794 111.771 37.2515 111.176 36.7993V36.8064Z" fill="#112E46"/>
<path d="M116.83 40.4706V39.1388C116.962 39.2243 117.126 39.292 117.329 39.3418C117.532 39.3952 117.742 39.4201 117.966 39.4201C118.49 39.4201 118.942 39.2492 119.326 38.9074C119.711 38.5655 120.06 38.0136 120.377 37.2444H119.843L117.838 32.1523C117.631 31.6181 117.453 31.2264 117.304 30.9736C117.154 30.7208 116.966 30.5392 116.741 30.4252V30.354H119.629V30.4252C119.49 30.4822 119.391 30.5499 119.334 30.6353C119.277 30.7208 119.248 30.8276 119.248 30.9594C119.248 31.173 119.348 31.554 119.544 32.0953L120.904 35.9091L122.278 32.0953C122.464 31.5825 122.56 31.2229 122.56 31.0163C122.56 30.735 122.424 30.5392 122.154 30.4288V30.3576H124.144V30.4288C123.949 30.5142 123.763 30.6923 123.589 30.9629C123.414 31.2336 123.233 31.611 123.037 32.0989L121.046 37.2302C120.719 38.0634 120.398 38.7258 120.085 39.2207C119.772 39.7157 119.43 40.0825 119.063 40.3139C118.693 40.549 118.265 40.6665 117.781 40.6665C117.407 40.6665 117.09 40.6024 116.827 40.4706H116.83Z" fill="#112E46"/>
<path d="M124.618 37.1768C124.928 37.0379 125.131 36.835 125.227 36.5715C125.326 36.3115 125.373 35.8842 125.373 35.2966V28.2567C125.373 27.7902 125.326 27.4412 125.234 27.2133C125.141 26.9854 124.963 26.8003 124.7 26.6614V26.6044L127.057 26.2661L127.143 26.3231C127.096 26.5118 127.064 26.729 127.05 26.9819C127.036 27.2347 127.029 27.6584 127.029 28.2567V35.2966C127.029 35.8842 127.071 36.3115 127.16 36.5715C127.249 36.835 127.442 37.0344 127.741 37.1768V37.248H124.614V37.1768H124.618Z" fill="#112E46"/>
<path d="M128.824 30.963C128.685 30.7209 128.5 30.5428 128.275 30.4289V30.3577H131.163V30.4289C130.91 30.5322 130.786 30.7138 130.786 30.9773C130.786 31.0983 130.811 31.2586 130.864 31.4544C130.918 31.6503 130.982 31.8675 131.067 32.099L132.413 35.8558L133.788 32.099C133.973 31.6147 134.069 31.2479 134.069 31.0058C134.069 30.7244 133.941 30.5357 133.692 30.4324V30.3612H135.668V30.4324C135.461 30.5179 135.276 30.6853 135.112 30.9452C134.949 31.2016 134.76 31.5862 134.546 32.1025L133.129 35.7774C132.819 36.5359 132.67 37.0273 132.68 37.2516H131.377L129.372 32.1595C129.148 31.6076 128.966 31.2123 128.824 30.9666V30.963Z" fill="#112E46"/>
<path d="M136.486 36.9739C136.113 36.6605 135.924 36.2154 135.924 35.635C135.924 35.2148 136.031 34.8694 136.241 34.5987C136.451 34.3281 136.75 34.1038 137.138 33.9257C137.526 33.7477 138.046 33.5661 138.701 33.3773C139.236 33.2278 139.627 33.0996 139.88 32.9999C140.133 32.8966 140.325 32.7577 140.46 32.5868C140.596 32.4159 140.663 32.1773 140.663 31.8782C140.681 31.515 140.582 31.2265 140.361 31.0164C140.14 30.8063 139.819 30.6995 139.399 30.6995C138.911 30.6995 138.506 30.8598 138.178 31.1767C137.85 31.4936 137.683 31.9814 137.672 32.6331H136.187C136.223 32.0918 136.405 31.6325 136.729 31.2515C137.053 30.874 137.466 30.5891 137.978 30.3968C138.488 30.2045 139.029 30.1084 139.599 30.1084C140.411 30.1084 141.066 30.3007 141.561 30.6888C142.056 31.077 142.305 31.693 142.305 32.5334V35.521C142.305 35.8842 142.355 36.1477 142.451 36.3115C142.551 36.4754 142.7 36.5573 142.907 36.5573C143.113 36.5573 143.277 36.4967 143.427 36.3756L143.441 36.8386C143.252 37.0166 143.056 37.1484 142.846 37.2374C142.636 37.3264 142.401 37.3691 142.138 37.3691C141.707 37.3691 141.354 37.2231 141.08 36.9347C140.802 36.6463 140.667 36.2012 140.667 35.6029V35.3359C140.471 35.9697 140.144 36.4789 139.684 36.8635C139.225 37.2481 138.655 37.4368 137.971 37.4368C137.355 37.4368 136.86 37.2801 136.486 36.9668V36.9739ZM137.811 36.1762C138.014 36.3578 138.27 36.4504 138.591 36.4504C139.207 36.4504 139.709 36.194 140.09 35.6777C140.475 35.1649 140.663 34.4955 140.663 33.6729V32.9571C140.589 33.153 140.436 33.3132 140.208 33.4343C139.98 33.5554 139.62 33.6978 139.136 33.8545C138.555 34.0432 138.139 34.2426 137.886 34.4563C137.633 34.67 137.508 34.9726 137.508 35.3679C137.508 35.724 137.608 35.9911 137.811 36.1727V36.1762Z" fill="#112E46"/>
<path d="M144.232 37.1768C144.531 37.0379 144.727 36.8349 144.82 36.5714C144.912 36.3115 144.959 35.8842 144.959 35.2966V32.309C144.959 31.7001 144.912 31.2727 144.82 31.0199C144.727 30.7671 144.535 30.5712 144.246 30.4324V30.3611H146.881C146.789 30.5 146.721 30.6816 146.686 30.906C146.646 31.1303 146.625 31.4579 146.614 31.8888C146.856 31.3653 147.209 30.9416 147.665 30.614C148.124 30.2864 148.665 30.1226 149.292 30.1226C150.752 30.1226 151.479 30.9772 151.479 32.6864V35.293C151.479 35.8806 151.521 36.3079 151.61 36.5679C151.699 36.8314 151.885 37.0308 152.162 37.1732V37.2444H149.175V37.1732C149.445 37.0343 149.62 36.8314 149.702 36.5679C149.78 36.3079 149.819 35.8806 149.819 35.293V32.7683C149.819 32.1594 149.709 31.7179 149.492 31.4365C149.271 31.1552 148.943 31.0164 148.502 31.0164C148.035 31.0164 147.633 31.173 147.302 31.4864C146.97 31.7998 146.739 32.2093 146.607 32.7149V35.2966C146.607 35.8842 146.65 36.3115 146.735 36.5714C146.821 36.8349 147.002 37.0343 147.284 37.1768V37.248H144.229V37.1768H144.232Z" fill="#112E46"/>
<path d="M153.163 37.1769C153.462 37.038 153.658 36.835 153.747 36.5715C153.836 36.3116 153.879 35.8843 153.879 35.2967L153.893 32.2806C153.893 31.6717 153.85 31.2444 153.761 30.9915C153.672 30.7387 153.473 30.5429 153.163 30.404V30.3328L154.342 30.3185L155.535 30.2473V35.2967C155.535 35.8843 155.581 36.3116 155.674 36.5715C155.766 36.835 155.962 37.0345 156.261 37.1769V37.2481H153.163V37.1769ZM153.865 27.0247H155.531V28.6947H153.865V27.0247Z" fill="#112E46"/>
<path d="M157.643 36.9739C157.269 36.6605 157.08 36.2154 157.08 35.635C157.08 35.2148 157.187 34.8694 157.397 34.5987C157.607 34.3281 157.906 34.1038 158.294 33.9257C158.683 33.7477 159.202 33.5661 159.858 33.3773C160.392 33.2278 160.783 33.0996 161.036 32.9999C161.289 32.8966 161.481 32.7577 161.617 32.5868C161.752 32.4159 161.82 32.1773 161.82 31.8782C161.837 31.515 161.738 31.2265 161.517 31.0164C161.296 30.8063 160.976 30.6995 160.556 30.6995C160.068 30.6995 159.662 30.8598 159.334 31.1767C159.007 31.4936 158.839 31.9814 158.828 32.6331H157.344C157.379 32.0918 157.561 31.6325 157.885 31.2515C158.209 30.874 158.622 30.5891 159.135 30.3968C159.644 30.2045 160.185 30.1084 160.755 30.1084C161.567 30.1084 162.222 30.3007 162.717 30.6888C163.212 31.077 163.461 31.693 163.461 32.5334V35.521C163.461 35.8842 163.511 36.1477 163.607 36.3115C163.707 36.4754 163.857 36.5573 164.063 36.5573C164.27 36.5573 164.433 36.4967 164.583 36.3756L164.597 36.8386C164.408 37.0166 164.213 37.1484 164.003 37.2374C163.792 37.3264 163.557 37.3691 163.294 37.3691C162.863 37.3691 162.511 37.2231 162.236 36.9347C161.959 36.6463 161.823 36.2012 161.823 35.6029V35.3359C161.627 35.9697 161.3 36.4789 160.84 36.8635C160.381 37.2481 159.811 37.4368 159.128 37.4368C158.512 37.4368 158.017 37.2801 157.643 36.9668V36.9739ZM158.967 36.1762C159.17 36.3578 159.427 36.4504 159.747 36.4504C160.363 36.4504 160.865 36.194 161.246 35.6777C161.631 35.1649 161.82 34.4955 161.82 33.6729V32.9571C161.745 33.153 161.592 33.3132 161.364 33.4343C161.136 33.5554 160.776 33.6978 160.292 33.8545C159.712 34.0432 159.295 34.2426 159.042 34.4563C158.789 34.67 158.665 34.9726 158.665 35.3679C158.665 35.724 158.764 35.9911 158.967 36.1727V36.1762Z" fill="#112E46"/>
<path d="M46.6804 15.1524C46.3314 15.5405 45.9219 15.8753 46.0002 16.4593C46.0429 16.7655 46.2032 17.0504 46.2139 17.3566C46.221 17.6486 46.0928 17.9228 45.9148 18.1507C45.6619 18.4712 45.2489 18.6528 45.1349 19.0659C45.0067 19.543 45.2952 19.835 45.5978 20.1591C45.6975 20.2623 45.7723 20.362 45.84 20.476C46.018 20.7716 46.3065 21.263 46.5094 21.5443L48.5249 24.3503C48.8525 24.8097 49.2051 25.1159 48.6958 25.5717C48.2472 25.9741 47.7522 26.3266 47.2857 26.7041C46.5735 27.2774 45.8613 27.8471 45.1563 28.4276C44.9177 28.6305 44.6257 28.7196 44.3515 28.8406C43.9669 29.0044 43.5823 29.1576 43.1942 29.3214C43.1159 29.3534 43.0411 29.3677 42.9627 29.3677C42.8986 29.3677 42.8345 29.3605 42.774 29.3463C42.5176 29.2858 42.2541 29.2288 42.0013 29.1718C41.9123 29.1504 41.8268 29.1433 41.7378 29.1433C41.4849 29.1433 41.2286 29.2288 41.0256 29.389C40.7834 29.5706 40.5449 29.7522 40.3134 29.9445C40.2137 30.03 40.0997 30.0976 39.9751 30.1475C39.9573 30.1511 39.9431 30.1582 39.9253 30.1617C39.7721 30.2116 39.6155 30.2365 39.4552 30.2365H38.8142L38.5721 30.233C38.3763 30.233 38.216 30.0763 38.216 29.8769V27.9041C38.216 27.7047 38.3763 27.548 38.5721 27.548H39.0279L39.384 27.2525C40.057 26.7397 40.8938 26.4584 41.7378 26.4584C42.0262 26.4584 42.3075 26.4904 42.5853 26.551L42.7669 26.5901C42.9378 26.5225 43.1087 26.4477 43.2797 26.3729C43.358 26.3409 43.4328 26.3088 43.5076 26.2768C43.5289 26.2696 43.5503 26.259 43.5717 26.2518C44.0844 25.8316 44.5972 25.415 45.1135 25.0019L45.4768 24.7135L44.3266 23.1111C44.1414 22.8583 43.9278 22.5128 43.6251 22.0143C43.5966 21.9645 43.5681 21.9182 43.5254 21.879C43.0589 21.3662 42.0511 20.1377 42.5461 18.3501C42.7242 17.7091 43.0518 17.2391 43.3509 16.9008C43.3509 16.8759 43.3402 16.8474 43.3366 16.8189C43.0981 15.0634 44.12 13.9559 44.5616 13.4859C44.5936 13.4467 44.6293 13.4075 44.6649 13.3684C44.9604 13.0443 45.2417 12.6953 45.548 12.3286C45.5943 12.2645 45.6441 12.2039 45.6904 12.1434C45.6192 12.1042 45.5943 12.09 45.5765 12.0793C44.6293 11.5594 44.0488 10.8472 43.8352 9.95699C43.7782 9.72909 43.7355 9.50119 43.6927 9.30534C43.6749 9.19851 43.6536 9.0988 43.6322 8.99909C43.593 8.81393 43.561 8.64656 43.5289 8.48632C43.4826 8.26198 43.3473 8.06613 43.155 7.94506C42.7526 7.69935 42.4428 7.38243 42.2043 7.05126C42.0511 6.83405 41.8054 6.69873 41.5419 6.69873H9.66442L6.98303 6.69517L6.97591 4.50519C5.4091 5.15328 3.90282 5.67674 2.68854 6.03996L2.70991 27.548H6.60913C6.80499 27.548 6.96523 27.7047 6.96523 27.9041V29.8769C6.96523 30.0763 6.80499 30.233 6.60913 30.233H1.12885C0.519933 30.233 0.0285236 29.738 0.0285236 29.1326L3.61302e-05 4.81143C-0.00352481 4.377 0.256424 3.97461 0.651688 3.80369C2.41791 3.40486 5.72958 2.25468 8.65311 0.798259C8.76706 0.709235 8.90238 0.666504 9.03413 0.666504C9.1552 0.666504 9.27628 0.702113 9.3831 0.773332C9.55403 0.890843 9.6573 1.07957 9.6573 1.28967L9.66442 4.0031H43.39C43.5966 4.01022 43.7497 4.11349 43.8423 4.29866C44.0132 4.64051 44.2554 5.5343 44.6115 5.68386C44.6827 5.71591 44.7503 5.72303 44.8215 5.72303C44.9284 5.72303 45.0316 5.70523 45.1313 5.70523C45.1634 5.70523 45.199 5.70523 45.2311 5.71235C45.783 5.79781 45.8542 6.2643 45.9361 6.7201C46.0501 7.35038 46.1284 7.8133 46.2637 8.43291C46.3243 8.73203 46.3777 9.04539 46.4489 9.3267C46.5023 9.54036 46.7872 9.67567 46.9118 9.74689C47.04 9.82167 48.5605 10.598 48.5605 10.598C49.0448 10.89 49.1516 11.4312 49.0697 11.8372C48.9558 12.4354 48.4786 13.0051 48.1012 13.4503C47.6276 14.0165 47.1682 14.6004 46.6804 15.1524Z" fill="#E21E25"/>
<path d="M17.8187 13.8955H9.05876C8.93056 13.8955 8.85935 14.0344 8.93056 14.1412C9.3009 14.7038 9.46114 15.5157 9.46114 16.73V34.6665C9.46114 35.8772 9.3009 36.6926 8.93056 37.2553C8.85935 37.3621 8.93056 37.501 9.05876 37.501H12.8155C12.9437 37.501 13.015 37.3621 12.9437 37.2553C12.5734 36.6926 12.4096 35.8807 12.4096 34.6665V30.461C12.4096 30.4111 12.4345 30.3613 12.4737 30.3328L12.9722 29.9731C13.5313 29.5636 14.1509 29.1007 14.7919 28.5879C15.8708 27.7333 17.0175 26.7505 18.1 25.6929C19.1789 24.6389 20.1867 23.51 20.9701 22.3634C21.9707 20.907 22.6224 19.415 22.6224 18.0048C22.6224 15.4338 20.8277 13.8991 17.8151 13.8991L17.8187 13.8955ZM17.6014 22.3599C16.6044 23.5528 15.3687 24.7208 14.1936 25.6893C14.1153 25.757 14.0298 25.8246 13.9515 25.8887L12.6624 26.9285C12.5592 27.0104 12.406 26.9392 12.406 26.8039V16.6303C12.406 16.5413 12.4773 16.4736 12.5627 16.4736H17.8543C19.0401 16.4736 19.6419 17.1039 19.6419 18.336C19.6419 19.4897 18.7908 20.9355 17.5979 22.3599H17.6014Z" fill="#112E46"/>
<path d="M35.7125 16.7262C35.7125 15.512 35.8763 14.6965 36.2467 14.1303C36.3143 14.0271 36.2431 13.8882 36.1185 13.8882H29.545C27.736 13.8882 26.1692 15.1488 25.7419 16.9506L24.4493 22.3597L23.6552 25.6856L22.9608 28.5806L21.5507 34.4811L21.4937 34.7197C21.3833 35.1933 21.0308 36.5001 20.429 37.2408C20.3471 37.3441 20.4112 37.4936 20.5429 37.4936C21.3762 37.4936 23.4309 37.4936 24.168 37.4936C24.2819 37.4936 24.3531 37.3761 24.3069 37.2729C23.9864 36.5927 24.1751 35.5672 24.3888 34.62L24.4208 34.4775L25.6244 29.1575C25.6422 29.0863 25.7027 29.0364 25.7775 29.0364H32.6074C32.6929 29.0364 32.7641 29.1076 32.7641 29.1931V34.6591C32.7641 35.8734 32.6003 36.6889 32.2335 37.2515C32.1658 37.3548 32.2371 37.4936 32.3617 37.4936H36.122C36.2467 37.4936 36.3179 37.3583 36.2502 37.2515C35.8835 36.6889 35.7197 35.8734 35.7197 34.6591V16.7191L35.7125 16.7262ZM32.757 26.0167C32.757 26.1022 32.6857 26.1734 32.6003 26.1734H26.2903L26.4007 25.6891L27.152 22.3632L28.1206 18.0687C28.3521 17.1785 28.8364 16.769 29.6554 16.769H32.6003C32.6857 16.769 32.757 16.8402 32.757 16.9257V26.0203V26.0167Z" fill="#112E46"/>
</svg>
