<svg width="500px" height="500px" xmlns="http://www.w3.org/2000/svg"><circle cx="250" cy="250" r="248" fill="#fff" stroke-width="4px" stroke="#1b2554" stroke-miterlimit="1" fill-rule="evenodd" paint-order="fill" transform-origin="2px 250px"/><circle cx="250" cy="250" r="186" fill="#85898d"/><path fill="#121E4E" opacity="1.000000" d="M430.861 294.302c-8.216 32.796-23.926 61.222-47.366 85.283-26.078 26.77-57.466 44.168-93.975 52.213-15.821 3.486-31.859 4.796-48.059 3.978-44.328-2.239-83.166-18.057-116.118-47.702-30.345-27.299-49.564-61.16-57.84-101.176-3.248-15.706-4.333-31.58-3.409-47.554 4.01-69.334 45.226-127.306 103.06-156.092 18.433-9.175 37.881-15.068 58.314-17.766 11.575-1.527 23.192-2.036 34.817-1.332 41.815 2.534 78.892 17.188 110.714 44.445 31.597 27.064 51.872 61.106 60.935 101.714 3.937 17.642 5.074 35.534 3.743 53.562-.752 10.197-2.37 20.27-4.816 30.427m-85.772-141.228a1059.37 1059.37 0 0 0-1.89 4.414c-8.283 18.181-16.568 36.361-24.849 54.543-8.791 19.303-17.572 38.61-26.367 57.911-11.239 24.668-22.488 49.332-33.727 74-.721 1.583-1.384 3.192-2.144 4.951H279.5c1.874-5.476 3.718-10.792 5.515-16.123 11.946-35.427 23.885-70.857 35.82-106.287 5.897-17.508 11.791-35.015 17.666-52.53 1.818-5.418 3.567-10.859 5.619-16.552.408-1.523.816-3.046 1.437-4.677l-.015-.524c-.057.219-.113.437-.453.874M185.387 345.645c.95-1.71 1.9-3.421 3.046-5.435.412-.677.836-1.346 1.234-2.031 7.962-13.703 15.915-27.412 23.883-41.113 9.65-16.592 19.32-33.174 28.969-49.767 11.153-19.182 22.29-38.373 33.442-57.555 7.08-12.18 14.178-24.349 21.257-36.528.408-.703.719-1.46 1.18-2.407h-23.232c-.298.573-.596 1.101-.853 1.649-1.718 3.667-3.435 7.335-5.138 11.01-11.027 23.803-22.05 47.609-33.077 71.413-13.543 29.235-27.094 58.467-40.626 87.707-2.662 5.751-5.254 11.533-8.16 17.534-.744 1.896-1.489 3.792-2.548 5.786-.242.458-.483.916-.724 1.375.128.062.255.124.383.186.212-.558.424-1.116.964-1.824m-14.29-.015c.952-1.882 1.903-3.763 3.035-5.968 32.345-62.837 64.69-125.675 97.175-188.786h-23.505c-.366.863-.69 1.586-.982 2.321-7.881 19.877-15.763 39.753-23.636 59.634-12.571 31.743-25.141 63.487-37.702 95.234-4.207 10.635-8.385 21.282-12.846 32.18-.613 1.855-1.227 3.711-2.094 5.665-.015.191-.031.381-.046.572.093-.23.186-.46.601-.852m200.562-187.663c-.377 1.251-.737 2.508-1.135 3.753-3.723 11.648-7.451 23.295-11.181 34.941-10.064 31.417-20.129 62.833-30.195 94.249-5.987 18.685-11.98 37.369-17.957 56.059-.196.614-.247 1.274-.369 1.929h23.253c1.032-5.122 2.035-10.111 3.043-15.098 3.276-16.197 6.556-32.394 9.83-48.592 3.256-16.112 6.504-32.226 9.761-48.338 3.083-15.251 6.188-30.497 9.257-45.75 2.251-11.185 4.462-22.379 6.875-33.855.427-1.314.831-2.63.253-4.082-.409 1.48-.819 2.961-1.435 4.784m-61.533 4.067c-7.915 13.624-15.824 27.253-23.747 40.873-12.26 21.077-24.533 42.147-36.795 63.223-15.095 25.945-30.186 51.894-45.272 77.845-.911 1.568-1.761 3.173-2.761 4.982h23.341c.389-.748.779-1.427 1.106-2.135 4.763-10.306 9.508-20.62 14.276-30.923 8.723-18.849 17.459-37.694 26.191-56.54 12.58-27.151 25.165-54.299 37.737-81.454 2.477-5.348 4.905-10.719 7.632-16.307 1.279-2.744 2.558-5.488 3.838-8.232-.19-.091-.38-.183-.57-.274-1.577 2.893-3.155 5.786-4.976 8.942m47.461-4.732c.341-1.293.683-2.586 1.024-3.879-.191-.046-.381-.092-.572-.139-.493 1.452-.986 2.904-1.695 4.681-2.08 5.506-4.14 11.02-6.243 16.516-7.77 20.304-15.557 40.602-23.333 60.904-8.092 21.123-16.178 42.249-24.268 63.372-6.013 15.699-12.03 31.397-18.039 47.097-.365.954-.675 1.928-1.07 3.066h23.31c.224-.691.438-1.26.593-1.845 4.328-16.324 8.655-32.648 12.973-48.975 6.994-26.446 13.984-52.892 20.969-79.34 5.387-20.4 10.763-40.802 16.351-61.458m-30.87 1.188-97.984 190.43h23.421c.264-.582.538-1.125.762-1.689 7.368-18.563 14.737-37.126 22.093-55.695 15.228-38.445 30.453-76.892 45.668-115.342 2.297-5.806 4.537-11.634 7.066-17.71.866-1.816 1.676-3.652 1.776-5.752-.875 1.812-1.749 3.624-2.802 5.758M142.305 342.905c-.408 1.478-.817 2.955-1.225 4.433l.569.171c.531-1.632 1.061-3.264 1.754-5.242 10.733-28.023 21.462-56.048 32.2-84.07 12.911-33.694 25.83-67.384 38.74-101.077.779-2.034 1.511-4.085 2.295-6.207h-23.38c-.252.764-.477 1.34-.634 1.933-4.077 15.388-8.15 30.776-12.218 46.166-10.696 40.472-21.395 80.944-32.082 121.419-1.953 7.397-3.852 14.808-6.019 22.474m14.753-1.231c.862-1.806 1.755-3.597 2.583-5.418 6.52-14.341 13.019-28.691 19.542-43.031 12.571-27.638 25.147-55.274 37.734-82.905 8.61-18.902 17.244-37.793 25.858-56.692.387-.849.688-1.738 1.093-2.772h-23.34c-.336.896-.666 1.703-.944 2.527-11.683 34.679-23.36 69.359-35.04 104.039-8.087 24.01-16.181 48.017-24.256 72.03-1.343 3.995-2.605 8.018-4.166 12.297-.597 1.705-1.195 3.409-1.792 5.114.18.067.36.135.541.203.694-1.673 1.389-3.346 2.187-5.392m26.015-170.991c1.047-3.268 2.123-6.526 3.133-9.804 1.016-3.298 2.34-6.513 3.115-10.056H165.92c-13.06 64.675-26.114 129.324-39.169 193.972.721-.694 1.035-1.494 1.297-2.311 2.47-7.706 4.927-15.417 7.397-23.123 6.953-21.693 13.913-43.385 20.865-65.079 8.886-27.73 17.767-55.462 26.763-83.599m69.201 215.36c.214 1.921 1.496 3.212 2.857 4.505-3.009 1.791-4.337 4.242-3.652 7.606.767 3.765 3.127 5.704 7.493 6.186 5.331.587 9.493-3.253 9.132-8.396-.177-2.507-1.612-4.168-3.741-5.475.457-.483.837-.842 1.166-1.242 3.069-3.733 1.475-8.795-3.187-9.949-1.089-.27-2.273-.248-3.409-.217-4.147.114-6.428 2.38-6.659 6.982m-3.905 2.095c-.175-.949-.276-1.919-.536-2.844-1.664-5.905-5.579-7.062-10.522-5.967-4.486.995-6.722 5.928-5.239 10.773 1.494 4.877 6.996 6.894 11.245 4.114.572-.374 1.115-.793 1.915-1.367-.082 2.321-.385 4.28-1.31 6.076-1.719 3.336-6.148 3.513-8.208.358-.323-.495-.576-1.036-.904-1.632-.908.108-1.718.204-2.542.301.772 3.873 2.075 5.315 5.26 6.052 4.771 1.103 8.364-.839 9.888-5.497 1.049-3.207 1.247-6.541.953-10.367m25.915 7.427c-2.443 2.102-3.864 4.687-3.927 8.14h16.084v-2.531h-12.623c.867-2.455 2.425-3.675 4.127-4.78 1.917-1.243 3.9-2.4 5.72-3.774 4.095-3.091 4.146-9.636.225-12.317-2.886-1.974-8.036-1.695-10.57.739-1.885 1.81-2.566 4.024-2.268 6.733h2.646c.379-1.262.598-2.398 1.054-3.43.958-2.172 3.13-3.107 5.493-2.497 2.065.533 3.272 2.256 3.264 4.535-.006 1.721-.724 3.12-2.033 4.107-2.241 1.688-4.59 3.234-7.192 5.075m-54.744-9.52c1.347.225.941 1.305.947 2.092.036 4.4.01 8.801.025 13.202.003.765.1 1.531.158 2.373.59.071 1.013.164 1.435.161.419-.005.836-.108 1.209-.161.527-2.941.431-22.587-.096-24.486-1.176-.427-1.955-.157-2.488 1.093-.835 1.957-2.452 2.908-4.557 3.08-.599.049-1.193.164-1.92.267v2.359c1.669 0 3.234 0 5.287.02Z" paint-order="fill"/><path fill="#182352" opacity="1.000000" d="M84.537 107.402c3.543 3.396 7.086 6.793 10.693 10.25-1.225 1.321-2.358 2.543-3.704 3.995-6.414-5.975-12.759-11.886-19.296-17.975 1.883-2.014 3.66-3.915 5.609-6 5.582 2.49 11.15 4.973 17.304 7.718-3.222-5.806-6.14-11.064-9.135-16.46 1.83-1.961 3.618-3.876 5.608-6.008 6.419 5.983 12.758 11.89 19.279 17.968-1.265 1.36-2.445 2.627-3.768 4.049-4.151-3.86-8.189-7.615-12.227-11.369 2.197 5.556 5.111 10.702 7.838 16.052-1.024 1.099-1.97 2.117-3.068 3.297-4.614-2.022-9.183-4.024-14.064-6.167-1.005-.434-1.697-.727-2.39-1.019l-.21.435c.51.411 1.02.823 1.531 1.234Z"/><path fill="#192352" opacity="1.000000" d="M96.744 398.61c-5.179 2.185-10.358 4.37-15.742 6.642-1-1.081-1.991-2.151-3.082-3.33 2.592-4.735 5.119-9.352 7.875-14.224.469-.827.709-1.4.949-1.973-.125-.082-.25-.164-.375-.245-.438.468-.875.935-1.312 1.403-3.731 3.355-7.461 6.71-11.401 10.253-1.2-1.3-2.36-2.559-3.747-4.063l19.597-17.679c1.886 2.084 3.683 4.07 5.519 6.098-2.986 5.375-5.908 10.636-8.829 15.896.103.121.207.241.311.362 5.418-2.417 10.836-4.835 16.53-7.376 1.781 1.974 3.575 3.962 5.505 6.1-6.543 5.903-12.938 11.673-19.566 17.653-1.203-1.314-2.358-2.575-3.742-4.086 3.984-3.594 7.874-7.105 12.053-10.762.622-.507.956-.866 1.289-1.226-.065-.103-.13-.207-.195-.31-.546.289-1.091.578-1.637.867ZM265.24 453.161c5.268 2.381 5.902 6.987 1.655 11.379 3.002 1.384 4.57 3.637 4.486 7.019-.07 2.843-1.321 4.896-3.771 6.179-1.073.562-2.289 1.073-3.474 1.161-4.721.352-9.455.529-14.458.784-.4-8.887-.788-17.522-1.186-26.381 3.165-.117 6.045-.279 8.927-.314 2.536-.031 5.075.081 7.821.173m-7.781 14.408c-.772.086-1.543.172-2.494.279.158 2.364.308 4.587.472 7.033 2.508-.176 4.784-.215 7.022-.527 2.256-.314 3.154-1.51 3.034-3.536-.118-1.99-1.254-3.212-3.347-3.353-1.394-.093-2.804.052-4.687.104m3.257-10.181c-1.989.091-3.977.183-6.119.282.117 2.162.218 4.032.331 6.116 2.496-.205 4.676-.324 6.839-.585 1.141-.138 1.896-.918 2.109-2.068.218-1.178.083-2.327-1-3.061-.49-.333-1.13-.444-2.16-.684Z"/><path fill="#182352" opacity="1.000000" d="M355.505 423.581c6.254-3.675 12.433-1.927 16.219 3.855 1.232 1.881 2.227 4.018 2.844 6.177 1.322 4.618-.033 8.641-3.924 11.432-3.487 2.501-7.269 4.592-11.165 7.015-4.613-7.584-9.114-14.986-13.711-22.545 3.273-1.999 6.418-3.919 9.737-5.934m7.539 20.458c1.118-.691 2.263-1.343 3.349-2.082 2.684-1.825 3.551-4.269 2.544-7.318-.756-2.288-2.055-4.265-3.863-5.866-1.877-1.663-4.053-2.119-6.347-1.058-1.79.829-3.47 1.896-5.287 2.906.586 1.033.998 1.799 1.448 2.542 2.179 3.6 4.368 7.192 6.552 10.788.333.548.744.685 1.604.088Z"/><path fill="#192453" opacity="1.000000" d="M459.922 318.71c-.947.887-1.902 1.606-2.357 2.562-.787 1.652-1.263 3.451-1.989 5.533 3.158 1.142 6.246 2.258 9.593 3.469-.621 1.821-1.205 3.532-1.886 5.529-8.3-2.895-16.462-5.741-24.9-8.685.377-1.077.713-2.037 1.049-2.998 1.274-3.648 2.42-7.347 3.854-10.932 1.966-4.914 7.374-6.412 11.508-3.162 1.236.972 1.989 2.56 3.103 4.051 2.29-1.816 5.061-1.211 7.868-.413 1.509.43 3.057.721 4.812 1.126-.539 1.591-1.087 3.207-1.651 4.872-1.475.598-2.775-.249-4.129-.403-1.555-.178-3.105-.405-4.875-.549m-14.594 2.476c-.172.562-.345 1.125-.578 1.887 2.295.8 4.466 1.557 6.763 2.358.681-1.931 1.259-3.568 1.834-5.206.145-.412.322-.817.417-1.241.498-2.239-.239-3.595-2.316-4.311-2.08-.717-3.578-.116-4.48 1.937-.595 1.356-1.027 2.783-1.64 4.576Z"/><path fill="#192352" opacity="1.000000" d="M421.942 108.305c-2.134 1.85-4.342 2.681-6.871 1.779-.439 1.595-.618 3.266-1.355 4.637-.728 1.355-2.036 2.393-3.059 3.596-.842.99-1.64 2.018-2.559 3.155-1.217-1.332-2.385-2.611-3.663-4.01.384-.621.689-1.235 1.106-1.76.6-.756 1.283-1.447 1.93-2.166 3.139-3.486 3.134-4.493-.039-7.988-.881-.971-1.765-1.939-2.844-3.124-2.533 2.291-4.981 4.507-7.603 6.879-1.334-1.462-2.559-2.804-3.971-4.351 6.486-5.916 12.889-11.758 19.48-17.771 1.915 2.084 3.748 4.072 5.574 6.066 1.307 1.427 2.571 2.896 3.917 4.286 3.134 3.234 2.982 8.082-.043 10.772m-12.832-7.235c1.138 1.221 2.201 2.525 3.432 3.643 1.612 1.464 3.028 1.367 4.677-.096 1.608-1.428 1.911-2.968.607-4.63-1.443-1.84-3.101-3.512-4.745-5.346-1.895 1.732-3.565 3.258-5.322 4.865.444.525.771.912 1.351 1.564ZM127.973 416.702c.642-.946 1.19-1.732 1.805-2.614 4.154 2.725 8.246 5.304 12.22 8.054 2.832 1.959 3.86 4.887 3.069 7.812-.899 3.32-3.159 5.217-6.766 5.69-.246.032-.483.127-.805.215 1.116 2.531.487 4.803-.778 7.032-.949 1.672-1.792 3.406-2.827 5.392-1.373-.892-2.859-1.857-4.479-2.909.235-.728.382-1.402.666-2.014.479-1.035 1.055-2.026 1.572-3.045 1.81-3.569 1.498-4.724-1.89-6.961-1.237-.817-2.488-1.612-3.929-2.543-1.883 2.838-3.71 5.592-5.628 8.484-1.685-1.081-3.221-2.065-4.946-3.172 4.274-6.523 8.447-12.892 12.716-19.421m5.063 13.71c.535.297 1.041.678 1.611.875 1.737.601 3.1-.021 4.151-1.808.986-1.678.929-3.031-.57-4.202-1.899-1.483-3.981-2.731-6.089-4.152-1.417 2.164-2.645 4.039-3.978 6.073 1.642 1.089 3.088 2.048 4.875 3.214Z"/><path fill="#182352" opacity="1.000000" d="M79.11 139.379c-.814 1.145-1.516 2.134-2.343 3.299-7.207-5.016-14.264-9.929-21.453-14.933.317-.593.544-1.137.872-1.611 2.402-3.472 4.745-6.988 7.259-10.378 3.205-4.323 8.986-4.428 12.118-.168.933 1.27 1.246 2.995 1.933 4.742 2.66-1.166 5.171.15 7.667 1.731 1.311.831 2.751 1.46 4.393 2.316-.99 1.425-1.971 2.839-3.107 4.475-.898-.364-1.785-.661-2.615-1.075-1.021-.509-1.974-1.154-2.993-1.67-2.759-1.397-4.093-1.101-5.889 1.33-1.042 1.411-2.011 2.877-3.168 4.541 2.756 1.942 5.452 3.841 8.227 5.796-.3.55-.544.999-.901 1.605m-13.6-18.564c-1.033 1.494-2.067 2.987-3.181 4.598 2.033 1.42 3.876 2.708 6.105 4.265.193-.418.3-.769.497-1.06 1.035-1.521 2.164-2.983 3.123-4.55 1.384-2.261.861-3.949-1.47-5.208-1.845-.996-2.943-.626-5.074 1.955ZM348.16 456.314c-1.025-1.67-1.869-3.215-2.831-4.683-1.537-2.341-2.783-2.721-5.358-1.663-1.699.699-3.355 1.5-5.202 2.332 1.345 3.063 2.642 6.016 4.072 9.273-1.709.797-3.4 1.587-5.319 2.482-3.595-8.049-7.095-15.883-10.661-23.867.563-.34 1.036-.698 1.563-.934 3.928-1.761 7.822-3.608 11.814-5.211 4.369-1.754 8.537.236 9.925 4.583.703 2.2.517 4.339-1.114 6.542 3.653.388 5.023 3.051 6.403 5.759.668 1.312 1.536 2.522 2.458 4.012-1.412.633-2.796 1.32-4.237 1.856-.371.138-.919-.202-1.513-.481m-8.483-16.956c-1.096-.883-2.321-.767-3.488-.29-2.017.824-3.99 1.76-6.132 2.717 1.002 2.261 1.942 4.383 2.932 6.62 2.241-1.001 4.273-1.806 6.209-2.8 2.038-1.047 2.477-2.484 1.598-4.609-.199-.48-.529-.905-1.119-1.638Z"/><path fill="#192352" opacity="1.000000" d="M402.41 422.399c-8.125 7.11-18.696 2.212-22.084-7.077-1.814-4.976-.352-9.935 3.785-13.591 4.054-3.583 9.318-4.45 13.957-1.927 5.367 2.918 8.754 7.271 8.71 13.704-.025 3.581-1.711 6.377-4.368 8.891m-8.934-2.047c.35.029.701.089 1.05.082 5.016-.103 8.145-4.74 6.267-9.382-1.086-2.684-2.964-4.758-5.466-6.22-2.85-1.665-5.676-1.38-8.011.732-2.361 2.136-2.963 4.872-1.548 7.889 1.508 3.214 3.818 5.654 7.708 6.899Z"/><path fill="#182352" opacity="1.000000" d="M299.33 459.083c.806 3.072.931 5.941.107 8.804-1.542 5.36-5.362 8.13-10.662 8.888-5.149.736-9.401-1.034-12.269-5.468-2.677-4.14-3.318-8.714-1.865-13.403 1.527-4.929 5.151-7.664 10.176-8.425 5.234-.792 9.584.818 12.557 5.356.808 1.232 1.282 2.682 1.956 4.248m-12.365 12.88c3.394-.191 6.027-1.552 6.851-5.064.84-3.579.236-7.018-1.961-10.031-1.524-2.089-3.664-2.975-6.249-2.51-2.623.471-4.506 1.862-5.339 4.499-.862 2.728-.517 5.388.448 7.999 1.014 2.744 2.785 4.657 6.25 5.107Z"/><path fill="#192352" opacity="1.000000" d="M382.904 64.608c-3.97.881-7.734 1.729-11.66 2.614l.725 19.057c-2.422-.8-4.008-2.482-6.229-3.559V68.771c-2.741.081-4.867.407-6.121 2.953-.805 1.636-1.966 3.097-3.117 4.867-1.713-1.113-3.29-2.137-4.947-3.213 4.814-7.412 9.506-14.635 14.344-22.082l4.935 3.196c-1.864 2.897-3.678 5.717-5.796 9.008 4.404-1.06 8.242-1.919 12.039-2.93 1.559-.415 2.869-.398 4.187.646 1.161.92 2.466 1.657 4.053 2.703-.967.287-1.586.471-2.413.689Z"/><path fill="#192453" opacity="1.000000" d="M144.63 440.71c2.144-4.353 4.188-8.533 6.366-12.988 1.705.832 3.321 1.62 5.262 2.567-1.449 3.038-2.856 5.989-4.465 9.362 1.087-.307 1.737-.445 2.353-.672 3.216-1.184 6.437-2.358 9.628-3.608 1.149-.45 2.14-.484 3.246.153 1.437.826 2.965 1.492 4.97 2.482-4.845 1.718-9.216 3.267-13.757 4.876 1.011 6.31 2.006 12.524 3.074 19.195-2.203-1.066-4.13-1.852-5.878-2.929-.578-.356-.868-1.437-.99-2.231-.598-3.9-1.095-7.816-1.638-11.801-2.795.284-4.791 1.253-5.746 3.96-.575 1.631-1.513 3.134-2.388 4.895-1.798-.89-3.424-1.694-5.23-2.587 1.742-3.591 3.418-7.046 5.193-10.674Z"/><path fill="#192352" opacity="1.000000" d="M457.249 298.239c-2.177-3.139-4.159-6.157-6.299-9.059-.878-1.191-1.069-2.33-.724-3.689.383-1.51.71-3.034 1.195-5.126 2.802 4.246 5.342 8.096 8.013 12.144l17.88-7.62c-.511 2.464-.839 4.603-1.455 6.656-.168.56-1.151.979-1.842 1.262-3.656 1.498-7.338 2.932-11.277 4.493.671 1.063 1.167 2.068 1.875 2.892.468.545 1.191 1.013 1.885 1.197 2.205.585 4.449 1.02 6.958 1.574-.383 1.865-.747 3.635-1.178 5.73-8.596-1.832-17.057-3.635-25.7-5.476.18-1.086.306-2.017.496-2.934.174-.845.417-1.677.693-2.76 3.305.647 6.516 1.276 9.901 1.939-.155-.563-.222-.81-.421-1.223Z"/><path fill="#1A2453" opacity="1.000000" d="M144.416 51.816c-.793-1.679-1.504-3.179-2.332-4.929 5.923-2.847 11.74-5.644 17.758-8.537.741 1.493 1.392 2.804 2.196 4.424-4.131 2.015-8.196 3.998-12.475 6.085.805 1.64 1.558 3.175 2.387 4.863 3.8-1.805 7.44-3.534 11.377-5.403.664 1.299 1.314 2.57 2.079 4.064-3.851 1.877-7.538 3.674-11.421 5.567.901 1.907 1.75 3.705 2.665 5.641 4.276-2.039 8.378-3.996 12.755-6.083.717 1.477 1.383 2.848 2.168 4.465-6.072 2.917-11.97 5.749-18.072 8.681-3.061-6.344-6.032-12.501-9.085-18.838ZM465.855 225.225c1.326-.111 1.263.693 1.32 1.379.267 3.242.521 6.485.788 9.728.034.427.11.851.188 1.439 2.086-.161 4.057-.313 6.139-.473-.321-4.707-.63-9.238-.959-14.054 1.625-.1 3.077-.188 4.925-.302.483 6.639.958 13.159 1.45 19.928-8.762.624-17.345 1.234-26.302 1.871-.466-6.518-.925-12.95-1.403-19.634 1.694-.151 3.144-.28 4.888-.435.359 4.594.706 9.026 1.081 13.823 1.754-.122 3.453-.239 5.389-.373-.257-4.264-.504-8.356-.767-12.714 1.14-.064 2.081-.117 3.263-.183Z"/><path fill="#192352" opacity="1.000000" d="M58.746 142.377c.641-1.155 1.192-2.141 1.799-3.228 1.35.702 2.581 1.342 4.015 2.088-1.985 3.775-3.89 7.395-5.918 11.25 1.853.983 3.601 1.911 5.51 2.925 2.245-4.183 4.395-8.188 6.672-12.432 1.484.783 2.838 1.497 4.386 2.314-3.17 5.959-6.252 11.752-9.412 17.694-7.825-4.16-15.485-8.233-23.285-12.381 3.12-5.867 6.125-11.516 9.271-17.43 1.461.782 2.809 1.502 4.365 2.334-2.138 4.069-4.207 8.004-6.424 12.222 1.593.853 3.089 1.654 4.797 2.569 1.426-2.676 2.78-5.215 4.224-7.925ZM181.604 452.387c2.164.77 4.14 1.456 6.364 2.228-.523 1.486-.978 2.778-1.517 4.311-3.977-1.37-7.839-2.701-11.943-4.114-.695 1.898-1.375 3.755-2.143 5.851 4.481 1.597 8.825 3.145 13.352 4.758-.581 1.623-1.098 3.066-1.666 4.654-6.342-2.22-12.452-4.359-18.889-6.612l8.696-24.876c6.277 2.192 12.367 4.319 18.634 6.507-.548 1.592-1.023 2.975-1.608 4.674-4.388-1.511-8.654-2.98-13.054-4.496-.617 1.697-1.182 3.253-1.839 5.061 1.852.672 3.638 1.321 5.613 2.054ZM331.063 59.343c-4.692 3.59-14.658.369-17.485-4.938-1.229-2.306-1.429-4.661-.265-7.272 1.671.6 3.288 1.18 4.973 1.784 0 .755-.132 1.477.032 2.123.232.905.49 1.926 1.081 2.594 1.6 1.808 3.745 2.553 6.155 2.48 1.151-.035 1.982-.589 2.512-1.634.577-1.137.169-2.109-.592-2.887-.855-.873-1.851-1.615-2.825-2.363-1.674-1.287-3.455-2.444-5.049-3.819-2.195-1.894-2.96-4.386-2.123-7.165.823-2.731 2.716-4.424 5.575-5.045 4.25-.924 10.205 1.278 12.695 4.807 1.585 2.247 1.873 4.658.78 7.425-1.7-.617-3.325-1.207-4.902-1.779-.236-3.66-1.381-5.135-4.571-5.862-.664-.152-1.426-.199-2.076-.033-1.982.507-2.594 2.645-1.128 4.085.997.978 2.192 1.761 3.329 2.591 1.137.83 2.359 1.548 3.462 2.42 4.621 3.651 4.82 8.183.422 12.488ZM284.028 23.768c2.577 2.628 2.936 3.628 2.569 7.176-1.701-.177-3.406-.354-5.024-.522-1.278-3.681-3.176-4.973-6.456-4.587-1.344.158-2.362.712-2.729 2.092-.333 1.253.086 2.038 1.746 2.831 1.662.795 3.413 1.4 5.106 2.133 1.288.558 2.635 1.047 3.799 1.807 4.848 3.163 4.537 10.015-.528 12.855-4.386 2.459-12.324 1.312-15.806-2.284-1.868-1.93-2.484-4.031-2.024-7.081.308-.018.647-.084.974-.046 1.394.162 2.784.356 4.334.559.149 1.797.498 3.524 2.248 4.463 1.758.943 3.61 1.31 5.604.938 1.425-.265 2.51-.925 2.809-2.4.293-1.446-.654-2.339-1.757-2.957-1.144-.641-2.392-1.098-3.598-1.628-1.688-.742-3.452-1.348-5.054-2.243-2.582-1.442-4.038-3.64-3.682-6.734.356-3.104 2.083-5.246 4.98-6.236 4.358-1.49 8.498-.786 12.489 1.864Z"/><path fill="#1A2453" opacity="1.000000" d="M50.186 178.015c.268-.249.433-.353.597-.352 4.213.023 6.918-2.677 6.818-6.792-.03-1.235-.429-2.204-1.598-2.799-1.247-.634-2.263-.149-3.105.682-.871.859-1.609 1.857-2.374 2.818-1.259 1.582-2.379 3.291-3.766 4.75-1.857 1.955-4.12 2.957-6.917 2.086-2.871-.895-4.588-2.78-5.229-5.713-.953-4.361 1.648-10.61 5.459-12.895 2.168-1.299 4.441-1.552 7.036-.336-.629 1.619-1.25 3.219-1.771 4.558-1.518.465-3.046.567-4.05 1.344-.953.739-1.407 2.16-1.977 3.331-.217.445-.203 1.032-.191 1.551.027 1.175.659 1.953 1.718 2.432 1.089.492 1.924.01 2.565-.765 1.231-1.489 2.368-3.057 3.556-4.584.808-1.039 1.547-2.152 2.472-3.078 2.154-2.155 4.685-3.048 7.694-1.916 2.995 1.126 4.877 3.276 5.131 6.432.414 5.128-1.31 9.569-5.308 12.882-2.475 2.051-5.361 2.46-8.582.991.587-1.515 1.153-2.975 1.822-4.627Z"/><path fill="#192352" opacity="1.000000" d="M232.762 465.77c3.381 5.052 1.434 10.669-4.175 12.242-4.166 1.168-8.233.654-11.957-1.571-3.142-1.878-4.608-4.67-3.97-8.673 1.807.207 3.516.404 5.163.593 1.19 4.489 3.884 6.234 8.132 5.427 1.303-.248 2.323-.799 2.647-2.207.331-1.443-.414-2.41-1.539-3.049-1.139-.648-2.39-1.097-3.588-1.641-1.917-.869-3.927-1.582-5.728-2.647-4.832-2.853-3.723-9.503.216-11.899 4.156-2.529 11.685-1.618 14.976 1.924 1.523 1.64 1.986 3.23 1.738 6.344-1.709-.171-3.418-.341-4.774-.477-.904-1.421-1.416-2.813-2.407-3.609-.875-.702-2.268-.841-3.463-1.031-.653-.105-1.403.11-2.053.339-.996.351-1.522 1.139-1.614 2.204-.086 1.002.358 1.734 1.234 2.127 1.921.862 3.911 1.577 5.798 2.505 1.794.884 3.493 1.961 5.364 3.099Z"/><path fill="#1A2453" opacity="1.000000" d="M428.701 351.419c-.607-.352-1.054-.609-1.688-.974.843-1.699 1.645-3.316 2.528-5.098.888.397 1.672.717 2.43 1.092 4.174 2.067 8.315 4.203 12.519 6.207 4.137 1.974 8.458-1.032 8.115-5.599-.115-1.526-1.057-2.609-2.331-3.327-1.682-.949-3.426-1.789-5.151-2.662-3.371-1.706-6.748-3.4-10.117-5.109-.144-.073-.234-.252-.481-.53.763-1.562 1.558-3.188 2.443-4.997 3.83 1.881 7.516 3.677 11.189 5.502 1.651.821 3.332 1.608 4.899 2.573 4.166 2.566 5.662 6.45 4.22 11.105-.488 1.577-1.205 3.129-2.067 4.539-3.114 5.095-7.407 6.412-12.874 4.02-1.769-.774-3.481-1.679-5.214-2.537-2.756-1.365-5.506-2.74-8.42-4.205Z"/><path fill="#192352" opacity="1.000000" d="M460.866 172.09c1.648-.651 3.114-1.209 4.78-1.843.718 1.804 1.386 3.482 2.106 5.293-.689.348-1.198.655-1.742.872-4.332 1.724-8.658 3.463-13.014 5.121-1.305.496-2.68.892-4.058 1.089-2.888.412-5.413-.466-7.405-2.627-2.542-2.757-3.859-6.074-4.131-9.779-.247-3.361 1.166-5.973 3.935-7.864.363-.248.727-.516 1.129-.681 5.595-2.297 11.196-4.579 16.978-6.938.772 1.901 1.453 3.576 2.187 5.383-.816.387-1.501.758-2.219 1.045-4.083 1.634-8.178 3.237-12.259 4.878-.893.359-1.788.755-2.602 1.262-1.593.991-2.246 2.506-1.819 4.311.279 1.179.728 2.368 1.35 3.403 1.054 1.757 2.501 2.279 4.521 1.754 1.272-.33 2.511-.804 3.738-1.28 2.79-1.08 5.563-2.202 8.525-3.399ZM394.349 96.653c-3.843 2.771-7.59 2.518-11.211.097-1.588-1.063-3.077-2.378-4.327-3.823-2.99-3.459-3.183-7.351-.7-11.185.761-1.175 1.69-2.248 2.597-3.322 2.955-3.495 5.934-6.969 8.911-10.445.107-.125.297-.179.572-.337 1.356 1.151 2.746 2.331 4.289 3.64-1.284 1.522-2.466 2.927-3.651 4.33-2.443 2.891-4.91 5.761-7.319 8.679-1.241 1.502-1.991 3.235-.916 5.099 1.13 1.961 2.754 3.514 5.128 3.718.865.075 1.919-.341 2.651-.864.985-.702 1.787-1.685 2.587-2.616 3.207-3.735 6.382-7.496 9.713-11.416 1.484 1.258 2.865 2.429 4.472 3.792-4.251 4.925-8.093 10.029-12.796 14.653Z"/><path fill="#182352" opacity="1.000000" d="M414.529 122.199c.976-1.155 1.818-2.168 2.741-3.1.489-.494 1.11-.861 1.686-1.266 4.168-2.93 8.34-5.854 12.744-8.944 1.113 1.572 2.158 3.046 3.311 4.675-.582.483-1.076.951-1.626 1.34-3.736 2.642-7.496 5.251-11.221 7.909-.852.608-1.676 1.296-2.372 2.073-1.023 1.142-1.248 2.553-.615 3.943.467 1.026 1.073 2.032 1.804 2.887 1.581 1.853 3.251 2.135 5.415 1.027.779-.398 1.502-.912 2.222-1.415 3.464-2.416 6.916-4.851 10.378-7.27.708-.494 1.445-.947 2.313-1.513 1.122 1.597 2.167 3.085 3.333 4.746-1.195.845-2.261 1.603-3.331 2.354-3.457 2.426-6.873 4.916-10.386 7.259-5.171 3.449-9.778 2.795-13.767-1.969-1.116-1.333-2.077-2.858-2.811-4.434-1.242-2.667-1.37-5.432.182-8.302Z"/><path fill="#1A2453" opacity="1.000000" d="M21.064 231.715c3.987-9.855 17.728-9.769 23.495-3.55 4.078 4.398 4.291 12.195.408 16.755-1.771 2.08-3.845 3.073-7.443 3.452.089-1.835.176-3.625.23-4.744 1.706-1.462 3.223-2.323 4.114-3.615 2.028-2.944.835-7.058-2.426-8.828-3.082-1.674-6.385-1.926-9.716-.862-2.952.942-4.471 3.092-4.539 6.095-.068 3.032 1.055 4.532 4.338 5.806.316.122.623.268 1.092.472-.116 1.761-.228 3.477-.341 5.183-5.68-.138-10.033-4.661-10.12-10.54-.027-1.805.55-3.618.908-5.624Z"/><path fill="#192352" opacity="1.000000" d="M110.986 71.439c7.04 4.133 13.905 8.18 21 12.362-1.744 1.398-3.237 2.595-4.75 3.808-1.77-1.077-3.412-2.076-5.247-3.193-2.451 1.976-4.891 3.944-7.469 6.022.642 1.939 1.269 3.831 1.972 5.951-1.492 1.176-2.968 2.341-4.621 3.644-2.986-9.037-5.871-17.769-8.827-26.715 1.469-1.199 2.948-2.405 4.647-3.79 1.042.608 2.081 1.216 3.295 1.911m1.072 12.386c.248.632.496 1.263.861 2.191 1.751-1.429 3.335-2.723 5.075-4.144-2.788-1.733-5.282-3.283-7.775-4.833-.137.103-.274.205-.411.308.711 2.028 1.422 4.057 2.25 6.478Z"/><path fill="#192453" opacity="1.000000" d="M317.833 463.148c-2.379.724-4.551 1.404-6.814 2.112-.119 2.092-.232 4.086-.35 6.165-1.881.568-3.614 1.09-5.686 1.716.623-9.512 1.225-18.699 1.84-28.088 1.942-.584 3.838-1.154 5.775-1.737 5.742 7.478 11.35 14.781 17.094 22.263-2.026.637-3.769 1.185-5.791 1.821-1.147-1.55-2.329-3.147-3.618-4.887-.76.2-1.502.395-2.45.635m-.705-4.855c-1.695-2.393-3.389-4.786-5.084-7.179-.158.063-.316.126-.475.189-.148 3.002-.296 6.005-.458 9.272 2.158-.687 4.066-1.295 6.017-2.282Z"/><path fill="#192352" opacity="1.000000" d="M308.518 39.461c.661 5.275 1.276 10.317 1.944 15.798l-5.865-1.341c-.231-2.015-.449-3.92-.703-6.14-2.998-.743-6.107-1.513-9.316-2.308-1.135 1.681-2.209 3.273-3.444 5.102-1.764-.389-3.604-.796-5.839-1.289 5.431-7.945 10.656-15.589 15.929-23.302 1.981.485 3.834.938 5.853 1.432.472 4 .934 7.907 1.441 12.048m-9.322-1.235c-.598 1.106-1.633 1.994-1.841 3.42 2.06.458 3.977.883 6.172 1.371-.346-3.323-.652-6.271-1.021-9.816-1.29 1.946-2.202 3.321-3.31 5.025ZM21.181 270.551c1.798-1.113 3.572-2.01 5.642-3.056-.169-2.942-.349-6.069-.54-9.4-1.885-.602-3.781-1.207-5.912-1.887-.117-1.772-.237-3.582-.386-5.816 9.179 2.671 17.936 5.636 26.911 8.397.091 1.986.179 3.897.277 6.031-8.442 3.718-16.858 7.425-25.603 11.277-.147-1.902-.28-3.615-.389-5.546m9.833-7.905c.061.991.121 1.982.198 3.252 3.147-1.293 5.928-2.437 9.261-3.806-3.541-1.015-6.434-1.844-9.48-2.717 0 1.132 0 1.982.021 3.271ZM108.151 427.414c.451-1.172.814-2.153 1.264-3.368l-7.349-6.223c-1.746 1-3.473 1.989-5.379 3.081a7807.371 7807.371 0 0 1-4.569-3.829c8.368-4.656 16.403-9.127 24.635-13.709 1.44 1.205 2.905 2.433 4.603 3.854-3.108 8.725-6.219 17.459-9.434 26.481-1.64-1.355-3.099-2.56-4.641-3.834.278-.806.529-1.534.87-2.453m-1.42-11.454 4.417 3.682c1.206-3.119 2.283-5.907 3.36-8.694-2.926 1.237-5.476 2.751-8.016 4.284-.061.037.006.286.239.728ZM44.814 342.265c-1.779.192-3.345.353-4.983.521-.859-1.786-1.643-3.419-2.559-5.323 9.527-.815 18.707-1.6 28.057-2.399.88 1.783 1.722 3.49 2.659 5.39-6.425 6.692-12.813 13.348-19.5 20.313-.928-1.898-1.748-3.572-2.724-5.567 1.543-1.22 3.119-2.466 4.689-3.708-1.568-3.287-2.815-5.976-4.156-8.617-.173-.341-.835-.433-1.483-.61m6.161-.535 2.628 6.293c1.378-1.545 2.398-2.733 3.467-3.874 1.026-1.096 2.104-2.144 3.541-3.6-3.526.398-6.388.72-9.636 1.181ZM179.703 43.507c-1.124-3.892-2.2-7.576-3.346-11.5 4.651-1.265 9.001-2.623 13.435-3.603 4.006-.886 7.493 1.331 8.923 5.226 1.564 4.257.305 8.196-3.419 10.237-1.293.709-2.756 1.122-4.165 1.598-1.403.473-2.836.856-4.335 1.302.466 1.58.898 3.005 1.305 4.439.403 1.423.78 2.854 1.242 4.551l-5.597 1.624c-1.36-4.651-2.678-9.158-4.043-13.874m8.528-2.028c1.237-.444 2.544-.758 3.697-1.365 1.601-.843 2.036-2.221 1.563-4.062-.462-1.795-1.586-2.802-3.34-2.801-2.398.001-4.546.928-6.836 1.724.797 2.613 1.501 4.924 2.21 7.247.98-.246 1.655-.416 2.706-.743ZM243.726 46.215c-1.616.213-3.107.253-4.599.266-.329.002-.659-.093-1.318-.193 3.489-8.772 6.916-17.388 10.33-25.972h6.045c3.112 8.739 6.199 17.408 9.363 26.294h-6.05c-.624-1.861-1.235-3.679-1.905-5.678h-9.695c-.627 1.564-1.337 3.332-2.171 5.283m6.986-18.505c-1.033 2.762-2.066 5.523-3.199 8.55h6.713c-1.167-3.132-2.223-5.969-3.514-8.55Z"/><path fill="#182352" opacity="1.000000" d="M43.099 297.775c-5.581.705-8.718-2.597-9.566-7.149-.367-1.975-.722-3.952-1.137-6.228-3.009.482-5.916.948-9.137 1.464-.369-1.76-.738-3.514-1.18-5.62 8.585-1.75 17.137-3.012 25.941-4.653.373 1.939.762 3.796 1.082 5.664.416 2.422.937 4.84 1.13 7.282.414 5.244-1.747 8.022-7.133 9.24m-2.426-5.61c3.928.018 5.142-1.221 4.746-5.002-.169-1.607-.539-3.192-.853-4.992-2.72.511-5.143.965-7.636 1.434.394 2.038.683 3.757 1.068 5.454.3 1.317.899 2.468 2.675 3.106Z"/><path fill="#192453" opacity="1.000000" d="M401.398 396.586c-1.899-1.706-3.655-3.289-5.541-4.988 4.154-4.636 8.184-9.135 12.392-13.831 1.267 1.14 2.407 2.166 3.682 3.314l-8.376 9.458c1.44 1.298 2.803 2.526 4.363 3.932 2.467-2.736 4.844-5.373 7.35-8.153 1.17 1.045 2.197 1.961 3.422 3.055-2.408 2.71-4.724 5.316-7.254 8.163 2.634 2.403 5.255 4.796 7.978 7.281-1.279 1.452-2.492 2.827-3.873 4.394-4.743-4.235-9.372-8.368-14.143-12.625Z"/><path fill="#1A2453" opacity="1.000000" d="M118 63.052c-.375-.22-.583-.369-1.144-.769 1.878-1.187 3.596-2.273 5.409-3.418 3.455 1.734 6.874 3.451 10.501 5.272V52.243c1.52-.96 3.207-2.025 5.239-3.309.115 2.047.255 3.755.299 5.466.092 3.608.189 7.217.172 10.824-.008 1.733.359 3.234 1.376 4.677 1.413 2.004 2.643 4.138 4.1 6.453-1.615 1.027-3.141 1.998-4.929 3.135-1.394-2.165-2.824-4.239-4.094-6.406-.924-1.577-2.11-2.661-3.794-3.457-4.372-2.063-8.652-4.322-13.135-6.574ZM457.125 254.702c-1.331-.874-2.506-1.636-3.588-2.337v-6.521c.869.47 1.461.737 1.997 1.088 4.117 2.694 8.198 5.445 12.354 8.078.914.579 2.059.974 3.134 1.079 2.706.266 5.432.318 8.511.473-.098 1.832-.195 3.625-.301 5.599-2.211 0-4.39.18-6.526-.046-2.578-.273-4.765.338-6.982 1.648-4.14 2.447-8.422 4.653-12.948 7.126 0-2.088-.121-3.888.067-5.654.063-.588.824-1.26 1.43-1.605 2.82-1.608 5.698-3.115 8.942-4.866-2.004-1.558-4.014-2.694-6.09-4.062Z"/><path fill="#192352" opacity="1.000000" d="M219.149 33.663c-2.631-3.419-5.143-6.691-7.86-10.231 2.183-.836 4.279-.568 6.428-.959 2.342 3.069 4.671 6.122 7.215 9.456 1.456-3.256 2.846-6.148 4.033-9.122.537-1.347 1.335-1.941 2.712-2.014 1.389-.073 2.774-.228 4.488-.375-.42 1.039-.707 1.829-1.054 2.593-1.889 4.159-3.751 8.331-5.712 12.456-.706 1.485-.991 2.895-.697 4.555.427 2.404.572 4.857.863 7.526-1.933.247-3.722.474-5.774.735-.299-2.507-.674-4.822-.822-7.151-.14-2.207-.881-4.068-2.402-5.657-.484-.506-.868-1.107-1.418-1.812ZM426.548 360.393c-.539 1.466.701 1.56 1.322 1.974 4.534 3.024 9.112 5.982 13.672 8.967.727.476 1.432.986 2.342 1.615-1.047 1.598-2.036 3.109-3.185 4.863-5.97-3.881-11.834-7.694-17.903-11.64-1.449 2.179-2.837 4.267-4.333 6.515-1.462-.966-2.749-1.817-4.139-2.736 3.967-6.065 7.808-11.938 11.817-18.068l4.134 2.719c-1.261 1.963-2.439 3.798-3.727 5.791Z"/><path fill="#1A2453" opacity="1.000000" d="M203.189 463.894c-.794 3.46-1.536 6.706-2.343 10.233l-5.749-1.297c1.614-6.99 3.17-13.726 4.791-20.744-2.486-.625-4.912-1.235-7.554-1.899.327-1.544.629-2.968.997-4.705 7.068 1.365 13.895 3.167 21.057 4.766-.351 1.64-.67 3.132-1.028 4.809-2.608-.562-4.988-1.075-7.646-1.648-.841 3.493-1.657 6.882-2.525 10.485Z"/><path fill="#192352" opacity="1.000000" d="M57.728 316.017c1.305 3.737 2.535 7.279 3.815 10.964-1.646.575-3.026 1.057-4.63 1.616-.918-2.52-1.773-4.869-2.678-7.353-6.812 2.353-13.419 4.634-20.155 6.961-.667-1.874-1.251-3.512-1.959-5.499 6.707-2.361 13.36-4.702 20.154-7.093-.824-2.451-1.596-4.748-2.464-7.331 1.482-.559 2.905-1.096 4.605-1.737 1.116 3.198 2.176 6.237 3.312 9.472ZM437.815 159.072c-.033.594-.005 1.24-.28 1.419-1.092.709-2.278 1.271-3.568 1.962-2.966-5.481-5.851-10.81-8.886-16.418 7.69-4.155 15.321-8.278 23.184-12.527.946 1.716 1.817 3.299 2.838 5.152-6.286 3.412-12.437 6.75-18.813 10.21 1.858 3.426 3.652 6.733 5.525 10.202ZM74.17 352.08c.65 1.059 1.19 1.964 1.847 3.064-6.003 3.75-11.952 7.465-18.087 11.298 2.255 3.636 4.419 7.124 6.729 10.849-1.406.873-2.718 1.688-4.224 2.623-3.321-5.326-6.563-10.524-9.883-15.849 7.493-4.67 14.802-9.224 22.255-13.869.457.631.855 1.18 1.363 1.884Z"/><path fill="#152150" opacity="1.000000" d="M468.633 204.542c-1.939 3.809-6.321 5.296-9.996 3.784-3.748-1.541-5.678-5.67-4.45-9.532 1.27-3.998 5.171-6.18 9.366-5.241 3.833.859 6.401 4.782 5.725 8.796-.115.683-.377 1.34-.645 2.193ZM43.478 206.982c-3.671 3.199-9.765 2.437-12.201-2.493-1.638-3.313-.577-7.446 2.401-9.657 2.925-2.172 7.264-1.938 9.948.536 2.707 2.495 3.289 6.718 1.321 9.854-.368.587-.877 1.087-1.469 1.76Z"/><path fill="#192453" opacity="1.000000" d="M346.687 41.534c1.113.543 2.057.99 3.27 1.564-3.702 7.918-7.357 15.737-11.147 23.843-1.768-.826-3.395-1.586-5.337-2.493 3.703-7.924 7.353-15.737 11.084-23.722.718.261 1.341.486 2.13.808Z"/><path fill="#1A2453" opacity="1.000000" d="M204.52 39.368c-.947-4.681-1.852-9.141-2.832-13.975 1.956-.411 3.771-.791 5.771-1.211 1.746 8.684 3.435 17.083 5.191 25.819-1.884.381-3.643.738-5.75 1.164-.792-3.923-1.564-7.75-2.38-11.797Z"/><path fill="#192352" opacity="1.000000" d="M452.824 278.201c-.827-.09-1.513-.054-1.386-1.01.207-1.559.395-3.119.629-4.98 8.744 1.08 17.33 2.14 26.142 3.228-.257 2.013-.486 3.803-.747 5.85-8.252-1.036-16.336-2.051-24.638-3.088ZM43.13 301.293c3.247-.854 6.284-1.656 9.477-2.5.505 1.94.962 3.693 1.484 5.694-8.55 2.239-16.914 4.429-25.476 6.671-.509-2.016-.949-3.762-1.439-5.705 5.408-1.412 10.575-2.761 15.954-4.16Z"/><path fill="#232B59" opacity="1.000000" d="M205.691 21.865c-1.393.291-2.59.53-4.079.828-.281-1.403-.548-2.729-.867-4.318 1.694-.343 3.192-.647 4.9-.993.127 1.607 1.504 2.891.046 4.483ZM426.352 339.02c.936.48 1.701.882 2.749 1.432-.759 1.503-1.478 2.926-2.283 4.521l-3.914-1.95c.665-1.387 1.237-2.715 1.956-3.958.128-.222.866-.091 1.492-.045ZM444.828 276.68c-.093-1.651-.003-3.178.102-4.959 1.614.201 2.953.367 4.437.552-.174 1.645-.327 3.091-.517 4.882-1.329-.122-2.584-.236-4.022-.475Z"/><path fill="#1B2554" opacity="1.000000" d="M426.623 335.448a1933.08 1933.08 0 0 0 1.851-3.717c1.318.624 2.532 1.199 3.991 1.89-.786 1.589-1.468 2.969-2.227 4.504-1.361-.864-3.169-.673-3.615-2.677Z"/><path fill="#EDECF1" opacity="1.000000" d="M84.619 107.277c-.593-.286-1.103-.698-1.613-1.109l.21-.435c.693.292 1.385.585 2.195 1.001-.157.221-.434.319-.792.543Z"/><path fill="#656A7C" opacity="1.000000" d="M345.366 152.849c.063-.212.119-.43.176-.649.005.175.01.349-.091.578-.106.054-.091.064-.085.071ZM170.779 345.797c-.097.225-.19.455-.283.685.015-.191.031-.381.173-.621.127-.05.115-.058.11-.064Z"/><path fill="#FAFBFC" opacity="1.000000" d="M362.877 444.122c-.693.514-1.104.377-1.437-.171-2.184-3.596-4.373-7.188-6.552-10.788-.45-.743-.862-1.509-1.448-2.542 1.817-1.01 3.497-2.077 5.287-2.906 2.294-1.061 4.47-.605 6.347 1.058 1.808 1.601 3.107 3.578 3.863 5.866 1.007 3.049.14 5.493-2.544 7.318-1.086.739-2.231 1.391-3.516 2.165Z"/><path fill="#F6F8F9" opacity="1.000000" d="M445.382 320.987c.559-1.594.991-3.021 1.586-4.377.902-2.053 2.4-2.654 4.48-1.937 2.077.716 2.814 2.072 2.316 4.311-.095.424-.272.829-.417 1.241-.575 1.638-1.153 3.275-1.834 5.206-2.297-.801-4.468-1.558-6.763-2.358.233-.762.406-1.325.632-2.086ZM408.984 100.937c-.454-.519-.781-.906-1.225-1.431 1.757-1.607 3.427-3.133 5.322-4.865 1.644 1.834 3.302 3.506 4.745 5.346 1.304 1.662 1.001 3.202-.607 4.63-1.649 1.463-3.065 1.56-4.677.096-1.231-1.118-2.294-2.422-3.558-3.776ZM65.621 120.656c2.02-2.422 3.118-2.792 4.963-1.796 2.331 1.259 2.854 2.947 1.47 5.208-.959 1.567-2.088 3.029-3.123 4.55-.197.291-.304.642-.497 1.06-2.229-1.557-4.072-2.845-6.105-4.265 1.114-1.611 2.148-3.104 3.292-4.757Z"/><path fill="#F6F7F9" opacity="1.000000" d="M339.838 439.499c.429.592.759 1.017.958 1.497.879 2.125.44 3.562-1.598 4.609-1.936.994-3.968 1.799-6.209 2.8-.99-2.237-1.93-4.359-2.932-6.62 2.142-.957 4.115-1.893 6.132-2.717 1.167-.477 2.392-.593 3.649.431Z"/><path fill="#FBFCFD" opacity="1.000000" d="M393.262 420.315c-3.676-1.208-5.986-3.648-7.494-6.862-1.415-3.017-.813-5.753 1.548-7.889 2.335-2.112 5.161-2.397 8.011-.732 2.502 1.462 4.38 3.536 5.466 6.22 1.878 4.642-1.251 9.279-6.267 9.382-.349.007-.7-.053-1.264-.119Z"/><path fill="#F0F3F6" opacity="1.000000" d="M111.999 83.629c-.769-2.225-1.48-4.254-2.191-6.282.137-.103.274-.205.411-.308 2.493 1.55 4.987 3.1 7.775 4.833-1.74 1.421-3.324 2.715-5.075 4.144-.365-.928-.613-1.559-.92-2.387ZM317.107 458.483c-1.93.797-3.838 1.405-5.996 2.092.162-3.267.31-6.27.458-9.272.159-.063.317-.126.475-.189 1.695 2.393 3.389 4.786 5.063 7.369ZM299.295 38.062c1.009-1.54 1.921-2.915 3.211-4.861.369 3.545.675 6.493 1.021 9.816-2.195-.488-4.112-.913-6.172-1.371.208-1.426 1.243-2.314 1.94-3.584ZM31.004 262.426c-.011-1.069-.011-1.919-.011-3.051 3.046.873 5.939 1.702 9.48 2.717-3.333 1.369-6.114 2.513-9.261 3.806-.077-1.27-.137-2.261-.208-3.472ZM51.169 341.661c3.054-.392 5.916-.714 9.442-1.112-1.437 1.456-2.515 2.504-3.541 3.6-1.069 1.141-2.089 2.329-3.467 3.874-1.042-2.495-1.835-4.394-2.434-6.362Z"/><path fill="#F6F8F9" opacity="1.000000" d="M188.043 41.558c-.863.248-1.538.418-2.518.664-.709-2.323-1.413-4.634-2.21-7.247 2.29-.796 4.438-1.723 6.836-1.724 1.754-.001 2.878 1.006 3.34 2.801.473 1.841.038 3.219-1.563 4.062-1.153.607-2.46.921-3.885 1.444Z"/><path fill="#EDECF1" opacity="1.000000" d="M250.83 27.582c1.173 2.709 2.229 5.546 3.396 8.678h-6.713c1.133-3.027 2.166-5.788 3.317-8.678Z"/><path fill="#F6F8F9" opacity="1.000000" d="M40.484 292.095c-1.587-.568-2.186-1.719-2.486-3.036-.385-1.697-.674-3.416-1.068-5.454 2.493-.469 4.916-.923 7.636-1.434.314 1.8.684 3.385.853 4.992.396 3.781-.818 5.02-4.935 4.932Z"/><path fill="#152150" opacity="1.000000" d="M255.269 399.291c-1.11-3.221-.519-5.245 1.729-6.477 2.28-1.251 5.35-.681 6.889 1.278 2.131 2.714.576 6.734-2.849 7.256-2.176.332-4.205.041-5.769-2.057ZM256.88 382.582c1.249-.375 2.338-.824 3.422-.81 2.263.028 3.581 1.5 3.579 3.675-.003 2.194-1.304 3.627-3.522 3.794-1.727.13-3.408-.059-4.363-1.757-.969-1.725-.774-3.366.884-4.902ZM240.026 381.724c4.119.91 5.956 4.815 4.112 8.289-1.702 3.206-5.877 3.602-8.095.733-1.498-1.936-1.45-4.075-.564-6.234.785-1.909 2.24-2.863 4.547-2.788Z"/></svg>