<svg xmlns="http://www.w3.org/2000/svg" xmlns:xlink="http://www.w3.org/1999/xlink" width="249.091" height="95.332" viewBox="0 0 249.091 95.332">
  <defs>
    <clipPath id="clip-path">
      <rect id="Rectangle_5188" data-name="Rectangle 5188" width="249.091" height="95.332" fill="none"/>
    </clipPath>
  </defs>
  <g id="logo-color-stacked" transform="translate(0)">
    <path id="Path_33665" data-name="Path 33665" d="M272.842,29.17h-4.371l4.42-25.915h5.827l4.225,25.915h-4.419l-.826-5.829h-4.08Zm2.817-21.214L274.1,19.962h3.108Z" transform="translate(-151.582 -1.838)" fill="#1a1818"/>
    <g id="Group_6809" data-name="Group 6809" transform="translate(0)">
      <g id="Group_6808" data-name="Group 6808" clip-path="url(#clip-path)">
        <path id="Path_33666" data-name="Path 33666" d="M312.89,3.254c3.642,0,5.293.467,6.6,1.826,1.166,1.2,1.7,2.953,1.7,5.4,0,3.225-.437,4.39-2.282,6.294l3.157,12.394h-4.856L314.59,18.018a12.575,12.575,0,0,1-1.6.156v11h-4.516V3.254Zm.728,11.267c1.457,0,2.282-.272,2.719-.932.34-.505.437-1.127.437-3.5,0-2.8-.631-3.459-3.157-3.459h-.631v7.887Z" transform="translate(-174.167 -1.837)" fill="#1a1818"/>
        <path id="Path_33667" data-name="Path 33667" d="M361.039,29.169h-4.71L352.978,16.93l-1.943,4.236v8h-4.516V3.254h4.516v9.753l4.419-9.753h4.614L355.988,12Z" transform="translate(-195.649 -1.837)" fill="#1a1818"/>
        <path id="Path_33668" data-name="Path 33668" d="M389.963,29.17h-4.371l4.42-25.915h5.827l4.225,25.915h-4.419l-.825-5.829h-4.08Zm2.817-21.214-1.554,12.006h3.108Z" transform="translate(-217.71 -1.838)" fill="#1a1818"/>
        <path id="Path_33669" data-name="Path 33669" d="M439.966,29.169H435.45l-5.342-13.6v13.6h-4.516V3.254h3.885l5.974,15.269V3.254h4.516Z" transform="translate(-240.295 -1.837)" fill="#1a1818"/>
        <path id="Path_33670" data-name="Path 33670" d="M469.784,21.012v1.126c0,2.682.583,3.536,2.331,3.536,1.36,0,2.04-.893,2.04-2.564,0-1.71-.535-2.72-2.768-5.09l-2.234-2.642c-2.769-3.341-3.691-5.128-3.691-7.421,0-3.419,2.574-5.595,6.653-5.595,3.06,0,5.294,1.4,5.925,3.768a9.919,9.919,0,0,1,.243,3.225l-4.419.35a11.783,11.783,0,0,0-.145-2.331,1.782,1.782,0,0,0-1.894-1.631c-1.214,0-1.894.854-1.894,2.409,0,1.593.194,1.942,3.205,5.556l2.282,2.642c2.089,2.448,3.254,5.089,3.254,7.3,0,3.458-2.38,5.4-6.6,5.4a6.824,6.824,0,0,1-5.391-1.982c-1.068-1.165-1.409-2.253-1.409-4.507,0-.543,0-.777.049-1.4Z" transform="translate(-262.696 -1.334)" fill="#1a1818"/>
        <path id="Path_33671" data-name="Path 33671" d="M505.534,29.17h-4.371l4.42-25.915h5.827l4.225,25.915h-4.419l-.826-5.829h-4.08ZM508.35,7.956,506.8,19.962H509.9Z" transform="translate(-282.963 -1.838)" fill="#1a1818"/>
        <path id="Path_33672" data-name="Path 33672" d="M544.06,21.012v1.126c0,2.682.583,3.536,2.331,3.536,1.36,0,2.04-.893,2.04-2.564,0-1.71-.535-2.72-2.768-5.09l-2.234-2.642c-2.769-3.341-3.691-5.128-3.691-7.421,0-3.419,2.573-5.595,6.653-5.595,3.06,0,5.294,1.4,5.926,3.768a9.92,9.92,0,0,1,.242,3.225l-4.42.35a11.77,11.77,0,0,0-.146-2.331A1.782,1.782,0,0,0,546.1,5.743c-1.215,0-1.894.854-1.894,2.409,0,1.593.194,1.942,3.2,5.556l2.283,2.642c2.088,2.448,3.253,5.089,3.253,7.3,0,3.458-2.379,5.4-6.6,5.4a6.824,6.824,0,0,1-5.391-1.982c-1.068-1.165-1.409-2.253-1.409-4.507,0-.543,0-.777.049-1.4Z" transform="translate(-304.633 -1.334)" fill="#1a1818"/>
        <path id="Path_33673" data-name="Path 33673" d="M242.557,98.108v1.2c0,2.85.62,3.759,2.479,3.759,1.446,0,2.169-.95,2.169-2.727,0-1.818-.568-2.892-2.944-5.412l-2.376-2.809c-2.944-3.554-3.925-5.455-3.925-7.892,0-3.635,2.738-5.95,7.076-5.95,3.254,0,5.63,1.487,6.3,4.008a10.533,10.533,0,0,1,.258,3.429l-4.7.372a12.5,12.5,0,0,0-.155-2.48,1.9,1.9,0,0,0-2.014-1.735c-1.291,0-2.014.909-2.014,2.562,0,1.694.206,2.066,3.409,5.908l2.427,2.81c2.221,2.6,3.46,5.412,3.46,7.767,0,3.678-2.53,5.743-7.024,5.743-2.582,0-4.39-.661-5.733-2.107-1.136-1.24-1.5-2.4-1.5-4.793,0-.578,0-.826.052-1.487Z" transform="translate(-134.238 -44.196)" fill="#1a1818"/>
        <path id="Path_33674" data-name="Path 33674" d="M289,79.226v3.595h-6.818v7.726h4.752v3.595h-4.752v9.048h7.231v3.595H277.374V79.226Z" transform="translate(-156.609 -44.732)" fill="#1a1818"/>
        <path id="Path_33675" data-name="Path 33675" d="M325.055,96.455c.052,1.487.1,2.148.1,2.891,0,4.917-2.273,7.313-6.973,7.313-4.493,0-6.766-2.231-6.766-6.61V84.886c0-4.38,2.273-6.611,6.766-6.611q6.972,0,6.973,7.189a18.721,18.721,0,0,1-.1,2.19h-4.8a13.085,13.085,0,0,0,.1-1.9c0-3.058-.465-3.885-2.17-3.885-1.55,0-1.963.62-1.963,3.016V100.05c0,2.4.413,3.015,1.963,3.015,1.7,0,2.17-.826,2.17-3.759,0-.827-.052-1.571-.1-2.851Z" transform="translate(-175.832 -44.195)" fill="#1a1818"/>
        <path id="Path_33676" data-name="Path 33676" d="M355.323,101.371c0,1.57.62,2.231,2.014,2.231,1.446,0,2.015-.661,2.015-2.231V79.226h4.8V99.8c0,3.264-.155,3.967-1.085,5.165a8.481,8.481,0,0,1-11.466,0c-.93-1.2-1.085-1.9-1.085-5.165V79.226h4.8Z" transform="translate(-197.908 -44.732)" fill="#1a1818"/>
        <path id="Path_33677" data-name="Path 33677" d="M394.557,79.227c3.874,0,5.63.5,7.024,1.941,1.24,1.281,1.808,3.141,1.808,5.744,0,3.429-.465,4.669-2.427,6.693l3.357,13.18h-5.165l-2.789-11.858a13.57,13.57,0,0,1-1.7.166v11.692h-4.8V79.227Zm.775,11.981c1.549,0,2.427-.289,2.892-.991.362-.537.465-1.2.465-3.719,0-2.975-.672-3.677-3.357-3.677h-.672v8.386Z" transform="translate(-220.118 -44.733)" fill="#1a1818"/>
        <rect id="Rectangle_5186" data-name="Rectangle 5186" width="4.804" height="27.558" transform="translate(187.314 34.494)" fill="#1a1818"/>
        <path id="Path_33678" data-name="Path 33678" d="M451.623,82.821h-4.494V79.226h14v3.595h-4.7v23.963h-4.8Z" transform="translate(-252.455 -44.732)" fill="#1a1818"/>
        <rect id="Rectangle_5187" data-name="Rectangle 5187" width="4.804" height="27.558" transform="translate(211.253 34.494)" fill="#1a1818"/>
        <path id="Path_33679" data-name="Path 33679" d="M515.773,79.226v3.595h-6.818v7.726h4.752v3.595h-4.752v9.048h7.231v3.595H504.152V79.226Z" transform="translate(-284.651 -44.732)" fill="#1a1818"/>
        <path id="Path_33680" data-name="Path 33680" d="M542.23,98.108v1.2c0,2.85.62,3.759,2.479,3.759,1.446,0,2.169-.95,2.169-2.727,0-1.818-.568-2.892-2.944-5.412l-2.376-2.809c-2.944-3.554-3.925-5.455-3.925-7.892,0-3.635,2.738-5.95,7.076-5.95,3.254,0,5.63,1.487,6.3,4.008a10.552,10.552,0,0,1,.258,3.429l-4.7.372a12.5,12.5,0,0,0-.155-2.48,1.9,1.9,0,0,0-2.014-1.735c-1.291,0-2.014.909-2.014,2.562,0,1.694.206,2.066,3.409,5.908l2.427,2.81c2.221,2.6,3.46,5.412,3.46,7.767,0,3.678-2.53,5.743-7.024,5.743-2.582,0-4.39-.661-5.733-2.107-1.136-1.24-1.5-2.4-1.5-4.793,0-.578,0-.826.052-1.487Z" transform="translate(-303.438 -44.196)" fill="#1a1818"/>
        <path id="Path_33681" data-name="Path 33681" d="M196.469,159.436c3.157,0,4.614.35,5.974,1.438a5.446,5.446,0,0,1,2.039,4.546v13.949a5.446,5.446,0,0,1-2.039,4.546c-1.36,1.088-2.817,1.438-5.974,1.438h-4.808V159.436Zm.292,22.536c2.476,0,3.2-.583,3.2-2.6V165.42c0-1.981-.777-2.6-3.2-2.6h-.583v19.156Z" transform="translate(-108.214 -90.02)" fill="#1a1818"/>
        <path id="Path_33682" data-name="Path 33682" d="M241.717,159.436v3.38h-6.411v7.266h4.468v3.379h-4.468v8.51h6.8v3.38H230.79V159.436Z" transform="translate(-130.307 -90.02)" fill="#1a1818"/>
        <path id="Path_33683" data-name="Path 33683" d="M269.676,159.436c3.934,0,5.391.389,6.7,1.709,1.36,1.36,1.748,2.719,1.748,6.022,0,3.458-.388,4.78-1.7,5.984-1.166,1.088-3.157,1.671-5.876,1.671h-.631v10.529H265.4V159.436Zm.874,12.045c2.671,0,3.2-.7,3.2-4.352,0-3.614-.534-4.313-3.2-4.313h-.631v8.665Z" transform="translate(-149.85 -90.02)" fill="#1a1818"/>
        <path id="Path_33684" data-name="Path 33684" d="M304.051,185.352H299.68l4.42-25.915h5.827l4.225,25.915h-4.419l-.826-5.829h-4.08Zm2.817-21.214-1.554,12.006h3.108Z" transform="translate(-169.203 -90.02)" fill="#1a1818"/>
        <path id="Path_33685" data-name="Path 33685" d="M346.33,159.436c3.642,0,5.293.467,6.6,1.826,1.166,1.2,1.7,2.953,1.7,5.4,0,3.225-.437,4.39-2.282,6.294l3.157,12.394h-4.856L348.029,174.2a12.568,12.568,0,0,1-1.6.156v11h-4.516V159.436Zm.728,11.267c1.457,0,2.282-.272,2.719-.932.34-.505.437-1.127.437-3.5,0-2.8-.631-3.459-3.157-3.459h-.631V170.7Z" transform="translate(-193.047 -90.02)" fill="#1a1818"/>
        <path id="Path_33686" data-name="Path 33686" d="M383.035,162.816H378.81v-3.38h13.16v3.38h-4.419v22.536h-4.516Z" transform="translate(-213.881 -90.02)" fill="#1a1818"/>
        <path id="Path_33687" data-name="Path 33687" d="M428.688,159.436h5.439v25.916h-3.885v-18.3l-3.788,18.3h-1.943l-3.788-18.3v18.3h-3.788V159.436h5.342l3.205,12.9Z" transform="translate(-235.407 -90.02)" fill="#1a1818"/>
        <path id="Path_33688" data-name="Path 33688" d="M477.231,159.436v3.38H470.82v7.266h4.468v3.379H470.82v8.51h6.8v3.38H466.3V159.436Z" transform="translate(-263.281 -90.02)" fill="#1a1818"/>
        <path id="Path_33689" data-name="Path 33689" d="M515.291,185.352h-4.516l-5.342-13.6v13.6h-4.516V159.436H504.8l5.974,15.269V159.436h4.516Z" transform="translate(-282.824 -90.02)" fill="#1a1818"/>
        <path id="Path_33690" data-name="Path 33690" d="M546.112,162.816h-4.225v-3.38h13.16v3.38h-4.419v22.536h-4.516Z" transform="translate(-305.956 -90.02)" fill="#1a1818"/>
        <path id="Path_33691" data-name="Path 33691" d="M99.315,46.749a.531.531,0,0,0-.531.532v.144a.31.31,0,0,1,.309.31V52.86c.246-.014.5-.019.754-.016V47.281a.532.532,0,0,0-.532-.532" transform="translate(-55.775 -26.395)" fill="#004d99"/>
        <path id="Path_33692" data-name="Path 33692" d="M148.3,129.648l-.061-5.042a.306.306,0,0,0-.27-.307c-.147,0-.265.067-.263.214l.06,4.936c.178.064.355.132.534.2" transform="translate(-83.394 -70.181)" fill="#004d99"/>
        <path id="Path_33693" data-name="Path 33693" d="M152.137,131.53l-.056-4.768c0-.091-.078-.22-.17-.219s-.165.032-.164.124l.057,4.727c.111.046.223.09.334.137" transform="translate(-85.678 -71.448)" fill="#004d99"/>
        <path id="Path_33694" data-name="Path 33694" d="M92.479,48.428a.183.183,0,0,0-.183.183v5.866q.179-.067.365-.128V48.611a.183.183,0,0,0-.182-.183" transform="translate(-52.112 -27.343)" fill="#004d99"/>
        <path id="Path_33695" data-name="Path 33695" d="M75.95,86.407l-.282.1a10.043,10.043,0,0,0-.466,1.927l.266-.066Z" transform="translate(-42.46 -48.787)" fill="#004d99"/>
        <path id="Path_33696" data-name="Path 33696" d="M83.036,85.194l.532-.149.066-.316-.8.233a17.547,17.547,0,0,0-.233,1.927l.266-.05Z" transform="translate(-46.639 -47.839)" fill="#004d99"/>
        <path id="Path_33697" data-name="Path 33697" d="M106.972,121.474q.832.018,1.676.057c0-.027.008-.053.007-.08l-.06-4.962a.843.843,0,1,0-1.683.02l.059,4.961Z" transform="translate(-60.364 -65.277)" fill="#004d99"/>
        <path id="Path_33698" data-name="Path 33698" d="M97.433,116.995l.053,4.4c.382-.012.764-.025,1.152-.031l-.061-5.126a.82.82,0,1,0-1.639.02v.007a.8.8,0,0,1,.5.729" transform="translate(-54.732 -65.173)" fill="#004d99"/>
        <path id="Path_33699" data-name="Path 33699" d="M118.793,122.322a.729.729,0,0,0,.013-.142l-.059-4.939a.835.835,0,0,0-.786-.832.7.7,0,0,0-.767.685l.061,5.074q.767.068,1.538.155" transform="translate(-66.169 -65.725)" fill="#004d99"/>
        <path id="Path_33700" data-name="Path 33700" d="M135.927,125.433l-.063-5.243a.526.526,0,0,0-.471-.526.421.421,0,0,0-.461.415l.062,5.131q.467.106.933.222" transform="translate(-76.184 -67.564)" fill="#004d99"/>
        <path id="Path_33701" data-name="Path 33701" d="M127.714,123.615l-.062-5.165a.724.724,0,0,0-.651-.723c-.354,0-.64.2-.636.55l.061,5.122c.429.067.858.138,1.287.216" transform="translate(-71.347 -66.47)" fill="#004d99"/>
        <path id="Path_33702" data-name="Path 33702" d="M95.153,47.359a.416.416,0,0,0-.415.415v.28a.32.32,0,0,1,.432.312v5.067q.2-.043.4-.08V47.774a.416.416,0,0,0-.416-.415" transform="translate(-53.49 -26.74)" fill="#004d99"/>
        <path id="Path_33703" data-name="Path 33703" d="M99.173,62.1V61.47c-.246-.093-.49-.177-.731-.251v.228c-.122-.049-.244-.1-.365-.138v-.193c-.292-.078-.581-.147-.864-.2v.134c-.281-.069-.559-.123-.831-.162V60.8q-.475-.048-.93-.054V60.8c-.259-.011-.509-.007-.754,0v-.041a10.533,10.533,0,0,0-1.24.15v.022c-.137.024-.27.051-.4.079v-.022a10.98,10.98,0,0,0-1.13.311v.029c-.131.045-.252.091-.365.137v-.037c-.2.073-.384.149-.565.228v.365a10.99,10.99,0,0,1,8.174.073" transform="translate(-51.379 -34.299)" fill="#004d99"/>
        <path id="Path_33704" data-name="Path 33704" d="M87.019,117.565l.053,4.4c.317-.028.63-.057.953-.081l-.061-5.086a.8.8,0,1,0-1.592-.064.878.878,0,0,1,.647.834" transform="translate(-48.767 -65.474)" fill="#004d99"/>
        <path id="Path_33705" data-name="Path 33705" d="M139.454,95a14.709,14.709,0,0,0-.687-2.06l-.376-.2a16.116,16.116,0,0,1,.7,1.994Z" transform="translate(-78.137 -52.363)" fill="#004d99"/>
        <path id="Path_33706" data-name="Path 33706" d="M103.776,47.359a.416.416,0,0,0-.415.415v5.468c.273.028.549.064.831.115V47.774a.415.415,0,0,0-.415-.415" transform="translate(-58.359 -26.74)" fill="#004d99"/>
        <path id="Path_33707" data-name="Path 33707" d="M134.712,92.114a9.788,9.788,0,0,0-.568-1.918l-.556-.252a10.858,10.858,0,0,1,.61,2.015Z" transform="translate(-75.426 -50.784)" fill="#004d99"/>
        <path id="Path_33708" data-name="Path 33708" d="M107.437,48.428a.183.183,0,0,0-.183.183v5.549c.121.033.243.067.365.1V48.611a.183.183,0,0,0-.182-.183" transform="translate(-60.557 -27.343)" fill="#004d99"/>
        <path id="Path_33709" data-name="Path 33709" d="M123.06,87.731s-.266-1.562-.465-2.16l-.764-.232a7.851,7.851,0,0,1,.465,2.193Z" transform="translate(-68.787 -48.183)" fill="#004d99"/>
        <path id="Path_33710" data-name="Path 33710" d="M107.006,85.3l1.2.034s-.083-1.562-.149-2.127l-1.179-.116a19.968,19.968,0,0,1,.133,2.21" transform="translate(-60.342 -46.912)" fill="#004d99"/>
        <path id="Path_33711" data-name="Path 33711" d="M100.454,83.049H99.241v2.16l1.279-.034Z" transform="translate(-56.033 -46.891)" fill="#004d99"/>
        <path id="Path_33712" data-name="Path 33712" d="M91.11,85.5s.05-1.263.116-1.695l.681-.116.05-.3-1.114.149a16.051,16.051,0,0,0-.166,2.027Z" transform="translate(-51.191 -47.085)" fill="#004d99"/>
        <path id="Path_33713" data-name="Path 33713" d="M129.494,89.834a16.218,16.218,0,0,0-.677-2.127l-.644-.232a12.12,12.12,0,0,1,.509,2.1Z" transform="translate(-72.368 -49.39)" fill="#004d99"/>
        <path id="Path_33714" data-name="Path 33714" d="M114.813,86.082l1.129.166a16.419,16.419,0,0,0-.332-2.16l-1.03-.2a17.653,17.653,0,0,1,.232,2.193" transform="translate(-64.693 -47.365)" fill="#004d99"/>
        <path id="Path_33715" data-name="Path 33715" d="M142.635,127.479l-.062-5.147a.461.461,0,0,0-.4-.461c-.219,0-.4.106-.395.327l.061,5.038q.4.118.8.243" transform="translate(-80.047 -68.81)" fill="#004d99"/>
        <path id="Path_33716" data-name="Path 33716" d="M133.676,159.184q1.627.2,3.03.415V147.712q-1.447-.351-3.03-.64Z" transform="translate(-75.475 -83.039)" fill="#004d99"/>
        <path id="Path_33717" data-name="Path 33717" d="M83.317,157.043q1.648-.1,3.367-.154V144.6q-1.656.072-3.367.2Z" transform="translate(-47.042 -81.641)" fill="#004d99"/>
        <path id="Path_33718" data-name="Path 33718" d="M109.479,156.885q1.668.065,3.367.181V144.721q-1.638-.127-3.367-.194Z" transform="translate(-61.813 -81.602)" fill="#004d99"/>
        <path id="Path_33719" data-name="Path 33719" d="M96.341,156.719q1.659-.018,3.367.014V144.386q-1.649-.022-3.367.015Z" transform="translate(-54.395 -81.518)" fill="#004d99"/>
        <path id="Path_33720" data-name="Path 33720" d="M144.343,161.242c.879.153,1.685.308,2.424.466V150.281q-1.149-.406-2.424-.766Z" transform="translate(-81.498 -84.418)" fill="#004d99"/>
        <path id="Path_33721" data-name="Path 33721" d="M121.882,157.716q1.691.144,3.2.305V145.806q-1.545-.232-3.2-.4Z" transform="translate(-68.816 -82.096)" fill="#004d99"/>
        <path id="Path_33722" data-name="Path 33722" d="M108.474,15.893a2.257,2.257,0,0,0-.613-1.281,3.107,3.107,0,0,1-.422-.474,2.984,2.984,0,0,1-.219-.514,2.444,2.444,0,0,0-.293-.029c-.548,0-1.1-.013-1.644.009s-1.091.1-1.637.119c-2.88.081-5.76.149-8.639.223-.578.015-1.155.047-1.733.056-.433.007-.513-.128-.345-.534a1.994,1.994,0,0,1,.115-.233q.6-1.04,1.2-2.077a1.894,1.894,0,0,1,1.217-.992.7.7,0,0,0,.551-.638,1.3,1.3,0,0,1,1.022-1.111,4.144,4.144,0,0,0,1.054-.582.845.845,0,0,0,.275-.511,1,1,0,0,1,.792-.892.881.881,0,0,0,.64-1.117,6.489,6.489,0,0,1-.085-.888,3.3,3.3,0,0,1,.105-.563.829.829,0,0,0-.382-.872c-.11-.078-.217-.162-.333-.229a1.029,1.029,0,0,1-.59-.98,1.282,1.282,0,0,0-.206-.522c-.127-.255-.293-.493-.4-.757C97.76.126,97.622,0,97.2,0c-.385,0-.77.041-1.155.041q-47.143,0-94.285,0C1.369.041.974,0,.58,0A3.4,3.4,0,0,0,0,.11V.283a2.283,2.283,0,0,1,.067.26C.118.922.171,1.3.215,1.68c.068.592.119,1.186.2,1.777Q1.047,8.3,1.693,13.132c.184,1.383.378,2.765.554,4.15.081.633.115,1.273.2,1.907.057.427.179.844.243,1.27.1.674.183,1.35.264,2.026.146,1.213.271,2.429.431,3.641a36.969,36.969,0,0,1,.494,6.386c-.084,2.011-.086,4.026-.125,6.04q-.057,2.977-.117,5.954c-.03,1.455-.068,2.909-.1,4.363-.038,1.734-.084,3.467-.108,5.2-.021,1.512,0,3.024-.03,4.535a2.443,2.443,0,0,1-.165,1.241c-.044.078,0,.206,0,.31,0,1.408.027,2.817-.006,4.224-.047,2.05-.15,4.1-.2,6.148-.029,1.166.01,2.333-.012,3.5-.01.516-.1,1.031-.145,1.547-.023.247-.1.482.263.623.175.069.306.368.365.589a1.248,1.248,0,0,0,1.21.975,2,2,0,0,0,.248-.019,1.456,1.456,0,0,1,.173.015c-.006.06.008.135-.022.178-.09.128-.282.235-.107.411a.407.407,0,0,0,.576.032.453.453,0,0,1,.627-.012c.138.112.25.073.33-.073.065-.118.12-.241.181-.361a.553.553,0,0,1,.813-.3.6.6,0,0,1,.128.065.98.98,0,0,0,1.34.016.458.458,0,0,1,.605.04,1.5,1.5,0,0,0,1.5.252.821.821,0,0,1,.56.085,3.674,3.674,0,0,1,.673.441.448.448,0,0,1,.175.288c.043,1.685.089,3.37.1,5.056.016,2.5,0,4.995,0,7.492,0,.308-.036.616-.034.923a.822.822,0,0,0,.052.334L43.668,80.913l31.983,11.6a.21.21,0,0,0,.007-.024c.035-.71.093-1.42.091-2.131,0-.51.106-.72.6-.871.129-.039.259-.076.388-.113a.728.728,0,0,0,.516-1A4.728,4.728,0,0,1,77,86.327a.65.65,0,0,0-.435-.737c-.2-.088-.406-.176-.615-.246-.566-.19-.7-.511-.427-1.041a1.657,1.657,0,0,1,.289-.43,3.235,3.235,0,0,0,.762-2.659A1.961,1.961,0,0,0,75.234,79.5a2.328,2.328,0,0,1-1.033-.964c-.111-.186-.057-.346.172-.387.341-.061.686-.1,1.027-.156a.534.534,0,0,0,.255-.1,1.047,1.047,0,0,0-.2-1.791c-.162-.085-.334-.151-.494-.238a1.651,1.651,0,0,1-.336-.222c-.391-.353-.374-.56.1-.787a2.132,2.132,0,0,0,.727-.678c.405-.511.84-1,1.274-1.486a.746.746,0,0,1,.763-.239.66.66,0,0,0,.775-.865c-.093-.323-.219-.637-.339-.95a1.031,1.031,0,0,1,.163-1.109,2.67,2.67,0,0,0,.212-.31.9.9,0,0,0-.447-1.351c-.115-.047-.262-.075-.332-.162-.1-.121-.219-.316-.182-.431a.579.579,0,0,1,.38-.328,3.919,3.919,0,0,0,1.674-.6,1.7,1.7,0,0,1,1.168-.334,2.67,2.67,0,0,0,.289,0c.826-.027,1.168-.49,1.074-1.311a.826.826,0,0,0-.664-.752c-.182-.061-.369-.112-.546-.186a.683.683,0,0,1-.294-1.076,2.689,2.689,0,0,1,1.255-.846,1.46,1.46,0,0,0,.891-.913c.162-.422.338-.839.508-1.258.15-.369.29-.427.663-.277.071.029.149.042.22.071.251.106.4.024.469-.236a.779.779,0,0,1,.132-.286.9.9,0,0,0,.057-1.123,1.093,1.093,0,0,1-.067-.95,1.525,1.525,0,0,0,1.36.244,3.241,3.241,0,0,0,2.193-1.268,2.684,2.684,0,0,0,.3-.977,1.382,1.382,0,0,0,.014-.518,5.5,5.5,0,0,1,.132-1.776,5.4,5.4,0,0,0-.1-1.588,2.741,2.741,0,0,0-.157-.67c-.152-.385.055-.734.071-1.1,0-.053.063-.1.06-.156a3.007,3.007,0,0,1,.651-1.6.418.418,0,0,1,.328-.125,1.252,1.252,0,0,1,.41.13.937.937,0,0,0,1.112-.2A.844.844,0,0,0,91.08,46.2a2.341,2.341,0,0,1-.1-.241c-.226-.7-.154-.869.579-1.179.4-.167.818-.276,1.223-.427a6.33,6.33,0,0,0,1.909-1.177,1.6,1.6,0,0,0,.106-2.441,2.843,2.843,0,0,1-.258-.311c-.228-.325-.149-.5.233-.592a5.4,5.4,0,0,0,.876-.266,2.383,2.383,0,0,0,1.487-2.011.6.6,0,0,1,.772-.6,3.924,3.924,0,0,1,.613.152.421.421,0,0,0,.514-.183,2.591,2.591,0,0,0,.215-2.249c-.108-.6-.371-1.18-.482-1.785a11.593,11.593,0,0,1-.15-1.8A1.491,1.491,0,0,1,99.151,30a8.051,8.051,0,0,1,.758-.669,2.545,2.545,0,0,0,1.016-2.133c.006-.484.133-.689.6-.826a5.574,5.574,0,0,1,.934-.163c.448-.051.644-.33.464-.741a8.376,8.376,0,0,0-.434-.748c-.2-.355-.182-.466.108-.76.1-.1.191-.191.289-.284.422-.4.438-.636.084-1.091-.18-.231-.356-.466-.519-.709a.9.9,0,0,1,.184-1.152,1.415,1.415,0,0,1,.343-.211c.8-.347,1.605-.7,2.418-1.023a3.231,3.231,0,0,0,1.147-.754,4.959,4.959,0,0,1,.638-.537c.17-.125.173-.269.05-.389a4.335,4.335,0,0,0-.685-.565c-.612-.389-.64-.558-.106-1.057a1.949,1.949,0,0,1,.4-.285.574.574,0,0,1,.809.1c.086.076.16.188.261.222a.7.7,0,0,0,.449.038c.081-.035.141-.253.118-.373m-65.938-.451a1.708,1.708,0,0,1,.735-2.879,1.206,1.206,0,0,1,1.064.052,1.709,1.709,0,0,1,.584,2.82,3.615,3.615,0,0,1,2.368,2.742,8.184,8.184,0,0,0-7.071-.114,3.62,3.62,0,0,1,2.32-2.621M22.009,48.629a17.934,17.934,0,0,1,2.39-1.7,19.621,19.621,0,0,1,12.7-16.762V28.849a11.746,11.746,0,0,1,2.524-1.487v-5.8a1.25,1.25,0,0,1-.365-2.008c1-1.429,3.023-1.595,4.286-1.628a7.3,7.3,0,0,1,4.219,1.129,1.373,1.373,0,0,1,.034,2.4v5.71a13.736,13.736,0,0,1,2.7,1.389l-.044,1.478A19.624,19.624,0,0,1,63.481,47a12.784,12.784,0,0,1,2.386,1.985C67,50.18,66,50.645,66,50.645c-4.386-2.857-13.756-5.782-26.448-4.784s-17.875,4.519-17.875,4.519c-1-.332.332-1.75.332-1.75m-2.658,3.877s6.18-5.317,22.527-6.114,25.185,5.383,26.115,6.247c0,0,1.334.871-.443,3.262v5.488c-7.886-3.721-16.923-4.43-29.327-3.81s-18.429,3.81-18.429,3.81V55.607a2.3,2.3,0,0,1-.443-3.1M74.728,84.425V89.45L43.633,78.17l-.229.087L12.883,89.778V84.425s.354-1.24,3.9-3.1,13.645-3.19,21.442-3.634,24.012.267,30.213,2.571,6.291,4.164,6.291,4.164m-1.949-13.98V81.427c-5.017-3.889-24.65-5.472-40.735-4.068-11.7,1.021-15.851,3.086-17.344,4.4V70.5c-.654-.357-1.806-1.2-1.019-2.377,1.063-1.595,1.418-2.3,1.24-3.012,0,0,5.316-5.227,20.821-6.556s29.683.266,36.681,7.044a4.327,4.327,0,0,0,1.418,2.614c1,1.06-.241,1.856-1.063,2.234" transform="translate(0.001 0)" fill="#004d99"/>
        <path id="Path_33723" data-name="Path 33723" d="M152.911,163.629q.93.224,1.7.445V153.146q-.8-.389-1.7-.75Z" transform="translate(-86.336 -86.045)" fill="#004d99"/>
        <path id="Path_33724" data-name="Path 33724" d="M159.388,166.157q.56.185,1.018.363V156.082q-.483-.313-1.018-.613Z" transform="translate(-89.993 -87.78)" fill="#004d99"/>
        <path id="Path_33725" data-name="Path 33725" d="M164.128,168.724c.232.109.435.213.612.31V159.1q-.29-.26-.612-.512Z" transform="translate(-92.669 -89.54)" fill="#004d99"/>
        <path id="Path_33726" data-name="Path 33726" d="M61.221,122.589l.051,4.2.241-.045-.09-4.926a.411.411,0,0,0-.437-.426.491.491,0,0,0-.435.377.851.851,0,0,1,.67.82" transform="translate(-34.188 -68.539)" fill="#004d99"/>
        <path id="Path_33727" data-name="Path 33727" d="M49.634,127.032l.045,3.79.218-.04-.082-4.445a.37.37,0,0,0-.394-.384.44.44,0,0,0-.392.339.769.769,0,0,1,.6.741" transform="translate(-27.683 -71.115)" fill="#004d99"/>
        <path id="Path_33728" data-name="Path 33728" d="M55.008,124.745l.048,3.99.229-.043-.086-4.679a.39.39,0,0,0-.414-.4.463.463,0,0,0-.413.357.809.809,0,0,1,.636.779" transform="translate(-30.699 -69.791)" fill="#004d99"/>
        <path id="Path_33729" data-name="Path 33729" d="M71.3,157.979q1.553-.174,3.2-.308V145.456q-1.691.167-3.2.386Z" transform="translate(-40.256 -82.126)" fill="#004d99"/>
        <path id="Path_33730" data-name="Path 33730" d="M35,169.566q.283-.172.611-.344v-10.3c-.235.2-.438.392-.611.568Z" transform="translate(-19.759 -89.732)" fill="#004d99"/>
        <path id="Path_33731" data-name="Path 33731" d="M76.329,118.079a.532.532,0,0,1,.538.526l.054,4.565.809-.11-.061-5.085a.7.7,0,1,0-1.4.017v.094a.5.5,0,0,1,.057-.007" transform="translate(-43.064 -66.177)" fill="#004d99"/>
        <path id="Path_33732" data-name="Path 33732" d="M68.541,120.256l.054,4.585c0,.005,0,.01,0,.015.141-.026.277-.053.422-.078l-.1-5.185a.432.432,0,0,0-.459-.448.529.529,0,0,0-.475.481.647.647,0,0,1,.556.631" transform="translate(-38.385 -67.27)" fill="#004d99"/>
        <path id="Path_33733" data-name="Path 33733" d="M43.721,164.253q.8-.257,1.7-.5V152.388c-.621.257-1.186.518-1.7.777Z" transform="translate(-24.685 -86.04)" fill="#004d99"/>
        <path id="Path_33734" data-name="Path 33734" d="M50.618,161.765q1.148-.276,2.424-.527V149.459q-1.319.371-2.424.771Z" transform="translate(-28.58 -84.386)" fill="#004d99"/>
        <path id="Path_33735" data-name="Path 33735" d="M59.894,159.582q1.451-.25,3.031-.463V147.053c-1.086.192-2.094.4-3.031.628Z" transform="translate(-33.817 -83.028)" fill="#004d99"/>
        <path id="Path_33736" data-name="Path 33736" d="M38.8,166.844q.479-.2,1.018-.4V155.583c-.374.221-.713.439-1.018.651Z" transform="translate(-21.908 -87.844)" fill="#004d99"/>
        <path id="Path_33737" data-name="Path 33737" d="M28.553,212.83h.224a.274.274,0,0,1-.034-.072Z" transform="translate(-16.121 -120.126)" fill="#004d99"/>
        <path id="Path_33738" data-name="Path 33738" d="M91.541,214.067H26.193l2.056-3.466H89.485Z" transform="translate(-14.789 -118.908)" fill="#004d99"/>
      </g>
    </g>
  </g>
</svg>
