<svg width="202" height="48" aria-label="Iowa" role="img" fill="none" xmlns="http://www.w3.org/2000/svg"><g clip-path="url(#a)"><path d="M38.46 32.078c7.48-.095 14.961-.56 22.4-1.426 3.687-8.263-.021-17.952-8.284-21.64-8.263-3.687-17.951.022-21.639 8.285a16.381 16.381 0 0 0 .433 14.253c2.04.264 3.984.433 5.759.497.317 0 .613 0 .919.02h.423l-.011.011Z" fill="url(#b)"/><path d="M45.888 0C32.702-.053 21.956 10.598 21.903 23.794c0 2.124.265 4.227.814 6.277 2.79.56 5.547 1.046 8.157 1.394l.475.064c-4.184-8.03-1.078-17.93 6.953-22.115 8.03-4.184 17.93-1.077 22.114 6.953a16.39 16.39 0 0 1 .433 14.274l.476-.042c2.6-.275 5.209-.581 7.85-.898C72.377 16.895 64.6 3.92 51.805.718A24.145 24.145 0 0 0 45.909 0H45.888Z" fill="#03617A"/><path d="M46.11 34.477a78.138 78.138 0 0 1-8.178-2.135 10.54 10.54 0 0 1-.824-.295 63.405 63.405 0 0 1-5.759-.497l-.475-.064c-2.61-.348-5.368-.834-8.157-1.394a23.96 23.96 0 0 0 14.708 16.314 48.114 48.114 0 0 1 7.195-4.385c4.385-2.06 8.442-3.53 8.442-4.829 0-1.3-3.698-2.007-6.952-2.715Z" fill="#C6D667"/><path d="m61.315 30.599-.476.042a220.341 220.341 0 0 1-22.4 1.427h-.422c.348.095.718.18 1.109.274 1.057.243 2.261.476 3.603.74 5.156 1.014 7.776 1.32 12.014 1.955 4.564.686 5.853 2.937-1.839 7.47a20.976 20.976 0 0 0-5.822 5.43c10.566-.56 19.526-7.956 22.062-18.226-2.61.307-5.22.603-7.83.888Z" fill="#C6D667"/><path d="M54.752 35.037c-4.226-.634-6.857-.951-12.013-1.955a158.496 158.496 0 0 1-3.603-.74c-.39-.095-.76-.18-1.11-.274-.306 0-.602 0-.919-.021.254.095.529.2.825.295a78.154 78.154 0 0 0 8.178 2.135c3.254.697 6.952 1.426 6.952 2.715 0 1.29-4.057 2.768-8.442 4.829a50.517 50.517 0 0 0-7.196 4.385l.222.095c2.642.972 5.42 1.479 8.231 1.479.402 0 .803 0 1.205-.032a20.82 20.82 0 0 1 5.822-5.43c7.691-4.523 6.402-6.784 1.838-7.47l.01-.011Z" fill="#fff"/><path d="M188.359 34.55 172.648 1.49h-6.636l-13.757 28.93-7.639 16.07h8.633l5.156-10.957h21.628l5.104 10.957h8.896l-5.674-11.94Zm-19.103-22.167 7.343 15.701h-14.707l7.364-15.7ZM0 1.49v45h8.22v-45H0ZM146.592 1.49h-8.421l-10.862 27.027-2.472 6.15-1.86-6.36-7.66-26.173h-7.925l-7.523 25.654-2.018 6.879-2.736-6.826L84.528 1.49h-8.422l10.535 26.594 7.29 18.406h7.682l5.917-18.67 3.824-12.066L115.211 28l5.822 18.49h7.745l6.92-17.476L146.602 1.48l-.01.01ZM195.047 43.722h-1.025v-.687h2.79v.687h-1.025v2.684h-.74v-2.684ZM197.382 43.035h.803l.887 1.427.888-1.427h.803v3.37h-.74v-2.197l-.951 1.437h-.021l-.94-1.427v2.188h-.729v-3.37Z" fill="#03617A"/></g><defs><radialGradient id="b" cx="0" cy="0" r="1" gradientUnits="userSpaceOnUse" gradientTransform="translate(43.755 31.222) scale(24.987)"><stop stop-color="#FFEA00"/><stop offset="1" stop-color="#E1A626"/></radialGradient><clipPath id="a"><path fill="#fff" d="M0 0h200.753v47.969H0z"/></clipPath></defs></svg>