<?xml version="1.0" encoding="UTF-8" standalone="no"?>
<svg
   xmlns:dc="http://purl.org/dc/elements/1.1/"
   xmlns:cc="http://creativecommons.org/ns#"
   xmlns:rdf="http://www.w3.org/1999/02/22-rdf-syntax-ns#"
   xmlns:svg="http://www.w3.org/2000/svg"
   xmlns="http://www.w3.org/2000/svg"
   viewBox="0 0 580.89331 232.52"
   height="232.52"
   width="580.89331"
   xml:space="preserve"
   id="svg2"
   version="1.1"><metadata
     id="metadata8"><rdf:RDF><cc:Work
         rdf:about=""><dc:format>image/svg+xml</dc:format><dc:type
           rdf:resource="http://purl.org/dc/dcmitype/StillImage" /><dc:title></dc:title></cc:Work></rdf:RDF></metadata><defs
     id="defs6" /><g
     transform="matrix(1.3333333,0,0,-1.3333333,0,232.52)"
     id="g10"><g
       transform="scale(0.1)"
       id="g12"><path
         id="path14"
         style="fill:#ed2023;fill-opacity:1;fill-rule:nonzero;stroke:none"
         d="m 827.523,1676.24 c 0,0 -154.492,67.66 -413.085,67.66 v 0 C 156,1743.9 1.41016,1676.24 1.41016,1676.24 c 0,0 -13.69146,-299.49 44.80464,-468.75 C 149.809,909.797 414.438,826.008 414.438,826.008 c 0,0 264.785,83.789 368.144,381.482 58.789,169.26 44.941,468.75 44.941,468.75" /><path
         id="path16"
         style="fill:#ffffff;fill-opacity:1;fill-rule:nonzero;stroke:none"
         d="m 692.895,1406.95 v -165 H 500.414 v -192.43 h -165 v 192.43 H 143.109 v 165 h 192.305 v 192.5 h 165 v -192.5 h 192.481" /><path
         id="path18"
         style="fill:#050301;fill-opacity:1;fill-rule:nonzero;stroke:none"
         d="m 1214.25,1462.1 c -32.1,0 -53.11,8.1 -73.21,28.2 l 15.61,15.6 c 17.7,-17.7 34.2,-23.4 58.19,-23.4 31.2,0 50.4,14.7 50.4,39.6 0,11.1 -3.3,20.7 -10.19,26.7 -6.91,6 -12.31,7.8 -27.9,10.2 l -24.9,3.9 c -16.8,2.7 -30,8.1 -39.3,16.2 -10.8,9.6 -16.2,22.8 -16.2,39.9 0,36.3 26.1,60.3 68.4,60.3 27.3,0 45.3,-6.9 63.6,-23.4 l -14.7,-14.7 c -13.2,12 -27.3,18.3 -49.8,18.3 -28.5,0 -45,-15.9 -45,-39.6 0,-10.5 3,-18.9 9.6,-24.6 6.6,-5.7 17.69,-9.9 28.8,-11.7 l 23.39,-3.6 c 20.11,-3 30,-7.2 39.01,-15 11.7,-9.9 18,-24.6 18,-42.3 0,-37.5 -29.4,-60.6 -73.8,-60.6" /><path
         id="path20"
         style="fill:#050301;fill-opacity:1;fill-rule:nonzero;stroke:none"
         d="m 1469.25,1463.9 h -20.1 l -38.7,114.6 -38.4,-114.6 h -20.11 l -46.79,147.6 h 23.39 l 33.9,-118.5 38.7,118.5 h 18.61 l 39,-118.5 33.59,118.5 h 23.41 l -46.5,-147.6" /><path
         id="path22"
         style="fill:#050301;fill-opacity:1;fill-rule:nonzero;stroke:none"
         d="m 1549.05,1463.9 v 147.6 h 21.6 v -147.6 z m -1.2,189.6 v 24.3 h 24.3 v -24.3 h -24.3" /><path
         id="path24"
         style="fill:#050301;fill-opacity:1;fill-rule:nonzero;stroke:none"
         d="m 1674.44,1462.1 c -24.89,0 -44.39,5.7 -60.59,21.3 l 14.4,14.4 c 11.7,-12.3 27.6,-17.1 45.9,-17.1 24.3,0 39.3,8.7 39.3,26.1 0,12.9 -7.5,20.1 -24.6,21.6 l -24.3,2.1 c -28.8,2.4 -44.1,15.3 -44.1,39.6 0,27 22.8,43.2 54.3,43.2 21,0 39.9,-5.1 53.1,-15.9 l -14.1,-14.1 c -10.5,8.1 -24,11.7 -39.31,11.7 -21.59,0 -32.99,-9.3 -32.99,-24.3 0,-12.6 7.19,-20.1 25.8,-21.6 l 23.7,-2.1 c 25.8,-2.4 43.49,-12.3 43.49,-39.9 0,-28.5 -24.29,-45 -60,-45" /><path
         id="path26"
         style="fill:#050301;fill-opacity:1;fill-rule:nonzero;stroke:none"
         d="m 1826.24,1462.1 c -24.89,0 -44.39,5.7 -60.6,21.3 l 14.41,14.4 c 11.7,-12.3 27.6,-17.1 45.9,-17.1 24.29,0 39.29,8.7 39.29,26.1 0,12.9 -7.5,20.1 -24.6,21.6 l -24.29,2.1 c -28.8,2.4 -44.1,15.3 -44.1,39.6 0,27 22.8,43.2 54.29,43.2 21.01,0 39.91,-5.1 53.11,-15.9 l -14.1,-14.1 c -10.5,8.1 -24.01,11.7 -39.31,11.7 -21.59,0 -33,-9.3 -33,-24.3 0,-12.6 7.2,-20.1 25.8,-21.6 l 23.7,-2.1 c 25.8,-2.4 43.5,-12.3 43.5,-39.9 0,-28.5 -24.3,-45 -60,-45" /><path
         id="path28"
         style="fill:#050301;fill-opacity:1;fill-rule:nonzero;stroke:none"
         d="m 2075.84,1657.1 v -193.2 h -22.8 v 193.2 h -61.8 v 20.4 h 146.41 v -20.4 h -61.81" /><path
         id="path30"
         style="fill:#050301;fill-opacity:1;fill-rule:nonzero;stroke:none"
         d="m 2236.35,1532 h -41.41 c -22.2,0 -33,-9 -33,-26.1 0,-17.1 10.5,-25.2 33.91,-25.2 12.6,0 23.69,0.9 33,9.9 5.1,4.8 7.5,13.2 7.5,25.5 z m 0,-68.1 v 14.1 c -12,-12 -22.81,-15.9 -42.61,-15.9 -20.4,0 -32.39,3.9 -41.7,13.5 -7.2,7.2 -11.09,18.3 -11.09,30 0,25.8 18,42.6 50.99,42.6 h 44.41 v 14.1 c 0,21.6 -10.8,32.4 -37.81,32.4 -18.89,0 -28.49,-4.5 -37.19,-16.8 l -14.71,13.5 c 13.2,17.1 28.2,21.9 52.21,21.9 39.6,0 59.1,-17.1 59.1,-49.2 v -100.2 h -21.6" /><path
         id="path32"
         style="fill:#050301;fill-opacity:1;fill-rule:nonzero;stroke:none"
         d="m 2404.64,1463.9 -46.8,75.6 -28.8,-33 v -42.6 h -21.6 v 213.6 h 21.6 v -142.8 l 66.6,76.8 h 27 l -50.1,-56.4 58.8,-91.2 h -26.7" /><path
         id="path34"
         style="fill:#050301;fill-opacity:1;fill-rule:nonzero;stroke:none"
         d="m 2546.24,1572.8 c -5.7,13.5 -18.91,22.2 -34.5,22.2 -15.61,0 -28.8,-8.7 -34.5,-22.2 -3.3,-8.1 -3.9,-12.6 -4.51,-24.6 h 78 c -0.59,12 -1.19,16.5 -4.49,24.6 z m -73.51,-40.8 c 0,-32.4 15.31,-51 43.51,-51 17.1,0 26.99,5.1 38.7,16.8 l 14.7,-12.9 c -15,-15 -28.8,-22.8 -54.01,-22.8 -38.99,0 -64.5,23.4 -64.5,75.6 0,47.7 23.11,75.6 60.61,75.6 38.09,0 60.59,-27.6 60.59,-71.4 v -9.9 h -99.6" /><path
         id="path36"
         style="fill:#050301;fill-opacity:1;fill-rule:nonzero;stroke:none"
         d="m 2700.74,1583.3 c -6.9,6.9 -16.5,10.8 -27,10.8 -10.5,0 -19.8,-3.9 -26.7,-10.8 -10.8,-10.8 -12,-29.1 -12,-45.6 0,-16.5 1.2,-34.8 12,-45.6 6.9,-6.9 16.2,-10.8 26.7,-10.8 10.5,0 20.1,3.9 27,10.8 10.8,10.8 11.7,29.1 11.7,45.6 0,16.5 -0.9,34.8 -11.7,45.6 z m 15.3,-104.4 c -10.2,-10.2 -24.3,-16.8 -42.3,-16.8 -18,0 -32.1,6.6 -42.3,16.8 -15,15.3 -18,36 -18,58.8 0,22.8 3,43.5 18,58.8 10.2,10.2 24.3,16.8 42.3,16.8 18,0 32.1,-6.6 42.3,-16.8 15,-15.3 18,-36 18,-58.8 0,-22.8 -3,-43.5 -18,-58.8" /><path
         id="path38"
         style="fill:#050301;fill-opacity:1;fill-rule:nonzero;stroke:none"
         d="m 2832.73,1463.9 h -19.19 l -54.01,147.6 h 23.4 l 40.2,-118.5 40.5,118.5 h 23.4 l -54.3,-147.6" /><path
         id="path40"
         style="fill:#050301;fill-opacity:1;fill-rule:nonzero;stroke:none"
         d="m 3001.34,1572.8 c -5.71,13.5 -18.91,22.2 -34.5,22.2 -15.61,0 -28.8,-8.7 -34.51,-22.2 -3.3,-8.1 -3.89,-12.6 -4.5,-24.6 h 78 c -0.6,12 -1.19,16.5 -4.49,24.6 z m -73.51,-40.8 c 0,-32.4 15.3,-51 43.51,-51 17.1,0 26.99,5.1 38.7,16.8 l 14.7,-12.9 c -15,-15 -28.8,-22.8 -54.01,-22.8 -38.99,0 -64.5,23.4 -64.5,75.6 0,47.7 23.11,75.6 60.61,75.6 38.09,0 60.59,-27.6 60.59,-71.4 v -9.9 h -99.6" /><path
         id="path42"
         style="fill:#050301;fill-opacity:1;fill-rule:nonzero;stroke:none"
         d="m 3158.83,1583.3 c -8.11,8.1 -14.1,10.8 -25.5,10.8 -21.6,0 -35.4,-17.1 -35.4,-39.6 v -90.6 h -21.6 v 147.6 h 21.6 v -18 c 8.1,12.3 24.3,19.8 41.4,19.8 14.1,0 24.9,-3.3 35.4,-13.8 l -15.9,-16.2" /><path
         id="path44"
         style="fill:#050301;fill-opacity:1;fill-rule:nonzero;stroke:none"
         d="m 3368.23,1562.6 h -58.2 v -78.3 h 58.2 c 26.4,0 42.9,15.3 42.9,39.3 0,24 -16.5,39 -42.9,39 z m -2.4,94.5 h -55.8 V 1583 h 55.8 c 23.7,0 42,11.7 42,37.2 0,25.5 -18.3,36.9 -42,36.9 z m 4.5,-193.2 h -83.1 v 213.6 h 80.4 c 37.19,0 63,-21.3 63,-57 0,-22.5 -13.5,-40.2 -31.5,-46.8 20.4,-7.5 34.8,-25.2 34.8,-50.7 0,-38.7 -25.8,-59.1 -63.6,-59.1" /><path
         id="path46"
         style="fill:#050301;fill-opacity:1;fill-rule:nonzero;stroke:none"
         d="m 3560.22,1583.3 c -6.9,6.9 -16.5,10.8 -27,10.8 -10.5,0 -19.8,-3.9 -26.7,-10.8 -10.8,-10.8 -12,-29.1 -12,-45.6 0,-16.5 1.2,-34.8 12,-45.6 6.9,-6.9 16.2,-10.8 26.7,-10.8 10.5,0 20.1,3.9 27,10.8 10.81,10.8 11.7,29.1 11.7,45.6 0,16.5 -0.89,34.8 -11.7,45.6 z m 15.3,-104.4 c -10.2,-10.2 -24.3,-16.8 -42.3,-16.8 -18,0 -32.1,6.6 -42.3,16.8 -15,15.3 -18,36 -18,58.8 0,22.8 3,43.5 18,58.8 10.2,10.2 24.3,16.8 42.3,16.8 18,0 32.1,-6.6 42.3,-16.8 15,-15.3 18.01,-36 18.01,-58.8 0,-22.8 -3.01,-43.5 -18.01,-58.8" /><path
         id="path48"
         style="fill:#050301;fill-opacity:1;fill-rule:nonzero;stroke:none"
         d="m 3726.43,1532 h -41.41 c -22.2,0 -33,-9 -33,-26.1 0,-17.1 10.5,-25.2 33.91,-25.2 12.6,0 23.69,0.9 33,9.9 5.09,4.8 7.5,13.2 7.5,25.5 z m 0,-68.1 v 14.1 c -12.01,-12 -22.81,-15.9 -42.61,-15.9 -20.4,0 -32.39,3.9 -41.7,13.5 -7.2,7.2 -11.09,18.3 -11.09,30 0,25.8 17.99,42.6 50.99,42.6 h 44.41 v 14.1 c 0,21.6 -10.8,32.4 -37.81,32.4 -18.89,0 -28.49,-4.5 -37.19,-16.8 l -14.71,13.5 c 13.2,17.1 28.2,21.9 52.21,21.9 39.6,0 59.1,-17.1 59.1,-49.2 v -100.2 h -21.6" /><path
         id="path50"
         style="fill:#050301;fill-opacity:1;fill-rule:nonzero;stroke:none"
         d="m 3886.03,1583.3 c -8.11,8.1 -14.11,10.8 -25.5,10.8 -21.6,0 -35.4,-17.1 -35.4,-39.6 v -90.6 h -21.6 v 147.6 h 21.6 v -18 c 8.09,12.3 24.29,19.8 41.39,19.8 14.11,0 24.91,-3.3 35.4,-13.8 l -15.89,-16.2" /><path
         id="path52"
         style="fill:#050301;fill-opacity:1;fill-rule:nonzero;stroke:none"
         d="m 3977.81,1594.1 c -32.1,0 -37.19,-27.6 -37.19,-56.4 0,-28.8 5.09,-56.4 37.19,-56.4 32.1,0 36.91,27.6 36.91,56.4 0,28.8 -4.81,56.4 -36.91,56.4 z m 37.21,-130.2 v 17.7 c -12,-15.6 -25.8,-19.5 -42,-19.5 -15,0 -28.21,5.1 -36.01,12.9 -15,15 -18,39.6 -18,62.7 0,23.1 3,47.7 18,62.7 7.8,7.8 21.01,12.9 36.01,12.9 16.2,0 29.69,-3.6 41.7,-18.9 v 83.1 h 21.6 v -213.6 h -21.3" /><path
         id="path54"
         style="fill:#050301;fill-opacity:1;fill-rule:nonzero;stroke:none"
         d="m 1250.33,1286.61 v 26.69 h 21.6 v -26.69 z m -63.6,0 v 26.69 h 21.6 v -26.69 z m 42.61,-238.51 c -43.21,0 -74.41,29.7 -74.41,72.3 v 143.1 h 22.8 v -141.3 c 0,-32.4 20.4,-53.7 51.61,-53.7 31.19,0 51.89,21.3 51.89,53.7 v 141.3 h 22.8 v -143.1 c 0,-42.6 -31.5,-72.3 -74.69,-72.3" /><path
         id="path56"
         style="fill:#050301;fill-opacity:1;fill-rule:nonzero;stroke:none"
         d="m 1414.74,1180.1 c -32.1,0 -37.2,-27.6 -37.2,-56.4 0,-28.8 5.1,-56.4 37.2,-56.4 32.1,0 36.9,27.6 36.9,56.4 0,28.8 -4.8,56.4 -36.9,56.4 z m 40.49,-119.1 c -7.8,-7.8 -20.99,-12.9 -35.99,-12.9 -16.2,0 -29.71,3.9 -41.7,19.5 v -17.7 h -21.6 v 213.6 h 21.6 v -83.1 c 11.99,15.3 25.5,18.9 41.7,18.9 15,0 28.19,-5.1 35.99,-12.9 15,-15 18,-39.6 18,-62.7 0,-23.1 -3,-47.7 -18,-62.7" /><path
         id="path58"
         style="fill:#050301;fill-opacity:1;fill-rule:nonzero;stroke:none"
         d="m 1609.43,1158.8 c -5.7,13.5 -18.9,22.2 -34.5,22.2 -15.6,0 -28.8,-8.7 -34.5,-22.2 -3.3,-8.1 -3.9,-12.6 -4.5,-24.6 h 78 c -0.6,12 -1.2,16.5 -4.5,24.6 z m -73.5,-40.8 c 0,-32.4 15.3,-51 43.5,-51 17.1,0 27,5.1 38.7,16.8 l 14.7,-12.9 c -15,-15 -28.8,-22.8 -54,-22.8 -39,0 -64.5,23.4 -64.5,75.6 0,47.7 23.1,75.6 60.6,75.6 38.1,0 60.6,-27.6 60.6,-71.4 v -9.9 h -99.6" /><path
         id="path60"
         style="fill:#050301;fill-opacity:1;fill-rule:nonzero;stroke:none"
         d="m 1766.93,1169.3 c -8.1,8.1 -14.1,10.8 -25.49,10.8 -21.61,0 -35.4,-17.1 -35.4,-39.6 v -90.6 h -21.61 v 147.6 h 21.61 v -18 c 8.09,12.3 24.29,19.8 41.39,19.8 14.1,0 24.9,-3.3 35.4,-13.8 l -15.9,-16.2" /><path
         id="path62"
         style="fill:#050301;fill-opacity:1;fill-rule:nonzero;stroke:none"
         d="m 1902.23,1049.9 v 90.9 c 0,26.1 -14.1,39.3 -36.3,39.3 -22.21,0 -36.6,-13.5 -36.6,-39.3 v -90.9 h -21.61 v 147.6 h 21.61 v -16.2 c 10.49,12 24.89,18 41.39,18 15.9,0 28.8,-4.8 37.81,-13.8 10.49,-10.2 15.3,-24 15.3,-41.1 v -94.5 h -21.6" /><path
         id="path64"
         style="fill:#050301;fill-opacity:1;fill-rule:nonzero;stroke:none"
         d="m 2063.03,1118 h -41.41 c -22.2,0 -33,-9 -33,-26.1 0,-17.1 10.5,-25.2 33.91,-25.2 12.6,0 23.69,0.9 33,9.9 5.1,4.8 7.5,13.2 7.5,25.5 z m 0,-68.1 v 14.1 c -12,-12 -22.81,-15.9 -42.61,-15.9 -20.4,0 -32.39,3.9 -41.7,13.5 -7.2,7.2 -11.09,18.3 -11.09,30 0,25.8 18,42.6 50.99,42.6 h 44.41 v 14.1 c 0,21.6 -10.8,32.4 -37.81,32.4 -18.89,0 -28.49,-4.5 -37.19,-16.8 l -14.71,13.5 c 13.2,17.1 28.2,21.9 52.21,21.9 39.6,0 59.1,-17.1 59.1,-49.2 v -100.2 h -21.6" /><path
         id="path66"
         style="fill:#050301;fill-opacity:1;fill-rule:nonzero;stroke:none"
         d="m 2234.64,1049.9 v 91.2 c 0,25.8 -13.8,39 -36.01,39 -22.19,0 -36.89,-13.5 -36.89,-39 v -91.2 h -21.6 v 213.6 h 21.6 v -82.2 c 10.8,12.3 24.89,18 41.39,18 33.31,0 53.11,-21.3 53.11,-54.6 v -94.8 h -21.6" /><path
         id="path68"
         style="fill:#050301;fill-opacity:1;fill-rule:nonzero;stroke:none"
         d="m 2501.33,1049.9 v 90.9 c 0,26.1 -14.1,39.3 -36.3,39.3 -21.6,0 -36.9,-13.5 -36.9,-36.9 v -93.3 h -21.61 v 90.9 c 0,26.1 -14.09,39.3 -36.3,39.3 -22.19,0 -36.89,-13.5 -36.89,-39.3 v -90.9 h -21.6 v 147.6 h 21.6 v -16.2 c 10.5,12 25.2,18 41.7,18 20.4,0 36.3,-8.4 45.3,-24.6 11.4,16.2 27.9,24.6 48.6,24.6 15.89,0 29.1,-5.1 38.1,-13.8 10.5,-10.2 15.9,-24 15.9,-41.1 v -94.5 h -21.6" /><path
         id="path70"
         style="fill:#050301;fill-opacity:1;fill-rule:nonzero;stroke:none"
         d="m 2665.43,1158.8 c -5.7,13.5 -18.91,22.2 -34.5,22.2 -15.61,0 -28.8,-8.7 -34.5,-22.2 -3.3,-8.1 -3.9,-12.6 -4.51,-24.6 h 78 c -0.59,12 -1.19,16.5 -4.49,24.6 z m -73.51,-40.8 c 0,-32.4 15.31,-51 43.51,-51 17.1,0 26.99,5.1 38.7,16.8 l 14.7,-12.9 c -15,-15 -28.8,-22.8 -54.01,-22.8 -38.99,0 -64.5,23.4 -64.5,75.6 0,47.7 23.11,75.6 60.61,75.6 38.09,0 60.59,-27.6 60.59,-71.4 v -9.9 h -99.6" /><path
         id="path72"
         style="fill:#050301;fill-opacity:1;fill-rule:nonzero;stroke:none"
         d="m 2831.63,1049.9 -46.8,75.6 -28.79,-33 v -42.6 h -21.61 v 213.6 h 21.61 v -142.8 l 66.6,76.8 h 26.99 l -50.1,-56.4 58.8,-91.2 h -26.7" /><path
         id="path74"
         style="fill:#050301;fill-opacity:1;fill-rule:nonzero;stroke:none"
         d="m 2965.73,1169.3 c -6.9,6.9 -16.5,10.8 -27,10.8 -10.5,0 -19.8,-3.9 -26.7,-10.8 -10.8,-10.8 -12,-29.1 -12,-45.6 0,-16.5 1.2,-34.8 12,-45.6 6.9,-6.9 16.2,-10.8 26.7,-10.8 10.5,0 20.1,3.9 27,10.8 10.8,10.8 11.7,29.1 11.7,45.6 0,16.5 -0.9,34.8 -11.7,45.6 z m 15.3,-104.4 c -10.2,-10.2 -24.3,-16.8 -42.3,-16.8 -18,0 -32.1,6.6 -42.3,16.8 -15,15.3 -18,36 -18,58.8 0,22.8 3,43.5 18,58.8 10.2,10.2 24.3,16.8 42.3,16.8 18,0 32.1,-6.6 42.3,-16.8 15,-15.3 18,-36 18,-58.8 0,-22.8 -3,-43.5 -18,-58.8" /><path
         id="path76"
         style="fill:#050301;fill-opacity:1;fill-rule:nonzero;stroke:none"
         d="m 3237.83,1049.9 v 90.9 c 0,26.1 -14.1,39.3 -36.3,39.3 -21.6,0 -36.9,-13.5 -36.9,-36.9 v -93.3 h -21.6 v 90.9 c 0,26.1 -14.09,39.3 -36.3,39.3 -22.2,0 -36.9,-13.5 -36.9,-39.3 v -90.9 h -21.6 v 147.6 h 21.6 v -16.2 c 10.5,12 25.2,18 41.7,18 20.4,0 36.3,-8.4 45.31,-24.6 11.39,16.2 27.9,24.6 48.59,24.6 15.9,0 29.1,-5.1 38.11,-13.8 10.49,-10.2 15.89,-24 15.89,-41.1 v -94.5 h -21.6" /><path
         id="path78"
         style="fill:#050301;fill-opacity:1;fill-rule:nonzero;stroke:none"
         d="m 3504.53,1049.9 v 90.9 c 0,26.1 -14.1,39.3 -36.3,39.3 -21.6,0 -36.9,-13.5 -36.9,-36.9 v -93.3 h -21.6 v 90.9 c 0,26.1 -14.1,39.3 -36.3,39.3 -22.2,0 -36.9,-13.5 -36.9,-39.3 v -90.9 h -21.6 v 147.6 h 21.6 v -16.2 c 10.5,12 25.2,18 41.7,18 20.4,0 36.3,-8.4 45.31,-24.6 11.39,16.2 27.9,24.6 48.59,24.6 15.9,0 29.1,-5.1 38.1,-13.8 10.5,-10.2 15.9,-24 15.9,-41.1 v -94.5 h -21.6" /><path
         id="path80"
         style="fill:#050301;fill-opacity:1;fill-rule:nonzero;stroke:none"
         d="m 3581.63,1049.9 v 147.6 h 21.6 v -147.6 z m -1.2,189.6 v 24.3 h 24.3 v -24.3 h -24.3" /><path
         id="path82"
         style="fill:#050301;fill-opacity:1;fill-rule:nonzero;stroke:none"
         d="m 3707.02,1048.1 c -24.89,0 -44.39,5.7 -60.59,21.3 l 14.4,14.4 c 11.7,-12.3 27.6,-17.1 45.9,-17.1 24.3,0 39.3,8.7 39.3,26.1 0,12.9 -7.5,20.1 -24.6,21.6 l -24.3,2.1 c -28.8,2.4 -44.1,15.3 -44.1,39.6 0,27.01 22.8,43.2 54.29,43.2 21.01,0 39.91,-5.1 53.11,-15.9 l -14.1,-14.1 c -10.5,8.1 -24.01,11.7 -39.31,11.7 -21.59,0 -33,-9.3 -33,-24.3 0,-12.6 7.2,-20.1 25.8,-21.6 l 23.71,-2.1 c 25.8,-2.4 43.49,-12.3 43.49,-39.9 0,-28.5 -24.3,-45 -60,-45" /><path
         id="path84"
         style="fill:#050301;fill-opacity:1;fill-rule:nonzero;stroke:none"
         d="m 3858.82,1048.1 c -24.89,0 -44.4,5.7 -60.6,21.3 l 14.41,14.4 c 11.7,-12.3 27.59,-17.1 45.9,-17.1 24.29,0 39.29,8.7 39.29,26.1 0,12.9 -7.5,20.1 -24.6,21.6 l -24.29,2.1 c -28.8,2.4 -44.11,15.3 -44.11,39.6 0,27.01 22.81,43.2 54.3,43.2 21.01,0 39.9,-5.1 53.11,-15.9 l -14.1,-14.1 c -10.5,8.1 -24.01,11.7 -39.31,11.7 -21.59,0 -33,-9.3 -33,-24.3 0,-12.6 7.2,-20.1 25.8,-21.6 l 23.7,-2.1 c 25.8,-2.4 43.5,-12.3 43.5,-39.9 0,-28.5 -24.3,-45 -60,-45" /><path
         id="path86"
         style="fill:#050301;fill-opacity:1;fill-rule:nonzero;stroke:none"
         d="m 3964.12,1049.9 v 147.6 h 21.6 v -147.6 z m -1.2,189.6 v 24.3 h 24.3 v -24.3 h -24.3" /><path
         id="path88"
         style="fill:#050301;fill-opacity:1;fill-rule:nonzero;stroke:none"
         d="m 4122.52,1169.3 c -6.9,6.9 -16.5,10.8 -27,10.8 -10.5,0 -19.81,-3.9 -26.7,-10.8 -10.8,-10.8 -12,-29.1 -12,-45.6 0,-16.5 1.2,-34.8 12,-45.6 6.89,-6.9 16.2,-10.8 26.7,-10.8 10.5,0 20.1,3.9 27,10.8 10.8,10.8 11.7,29.1 11.7,45.6 0,16.5 -0.9,34.8 -11.7,45.6 z m 15.29,-104.4 c -10.19,-10.2 -24.29,-16.8 -42.29,-16.8 -18,0 -32.1,6.6 -42.31,16.8 -15,15.3 -18,36 -18,58.8 0,22.8 3,43.5 18,58.8 10.21,10.2 24.31,16.8 42.31,16.8 18,0 32.1,-6.6 42.29,-16.8 15,-15.3 18.01,-36 18.01,-58.8 0,-22.8 -3.01,-43.5 -18.01,-58.8" /><path
         id="path90"
         style="fill:#050301;fill-opacity:1;fill-rule:nonzero;stroke:none"
         d="m 4299.51,1049.9 v 90.9 c 0,26.1 -14.1,39.3 -36.3,39.3 -22.2,0 -36.6,-13.5 -36.6,-39.3 v -90.9 h -21.6 v 147.6 h 21.6 v -16.2 c 10.5,12 24.89,18 41.4,18 15.9,0 28.8,-4.8 37.8,-13.8 10.5,-10.2 15.3,-24 15.3,-41.1 v -94.5 h -21.6" /><path
         id="path92"
         style="fill:#050301;fill-opacity:1;fill-rule:nonzero;stroke:none"
         d="m 1225.95,634.109 c -21,0 -40.2,7.789 -54.6,22.192 -20.1,20.097 -20.1,41.109 -20.1,86.398 0,45.305 0,66.309 20.1,86.406 14.4,14.395 33.6,22.196 54.6,22.196 38.4,0 66.9,-23.399 74.1,-63.602 h -23.4 c -5.7,26.102 -24,43.203 -50.7,43.203 -14.1,0 -27.6,-5.398 -36.91,-15 -13.49,-13.8 -15,-28.496 -15,-73.203 0,-44.699 1.51,-59.398 15,-73.187 9.31,-9.602 22.81,-15 36.91,-15 26.7,0 45.6,17.097 51.3,43.187 h 22.8 c -6.91,-40.199 -36,-63.59 -74.1,-63.59" /><path
         id="path94"
         style="fill:#050301;fill-opacity:1;fill-rule:nonzero;stroke:none"
         d="m 1429.05,755.305 c -6.9,6.894 -16.5,10.8 -27,10.8 -10.5,0 -19.8,-3.906 -26.7,-10.8 -10.8,-10.801 -12,-29.106 -12,-45.606 0,-16.488 1.2,-34.789 12,-45.59 6.9,-6.91 16.2,-10.808 26.7,-10.808 10.5,0 20.1,3.898 27,10.808 10.8,10.801 11.7,29.102 11.7,45.59 0,16.5 -0.9,34.805 -11.7,45.606 z m 15.3,-104.407 c -10.2,-10.187 -24.3,-16.789 -42.3,-16.789 -18,0 -32.1,6.602 -42.3,16.789 -15,15.301 -18,36 -18,58.801 0,22.801 3,43.508 18,58.801 10.2,10.203 24.3,16.805 42.3,16.805 18,0 32.1,-6.602 42.3,-16.805 15,-15.293 18,-36 18,-58.801 0,-22.801 -3,-43.5 -18,-58.801" /><path
         id="path96"
         style="fill:#050301;fill-opacity:1;fill-rule:nonzero;stroke:none"
         d="m 1701.14,635.898 v 90.903 c 0,26.101 -14.1,39.304 -36.3,39.304 -21.6,0 -36.9,-13.503 -36.9,-36.906 v -93.301 h -21.6 v 90.903 c 0,26.101 -14.09,39.304 -36.3,39.304 -22.2,0 -36.9,-13.503 -36.9,-39.304 v -90.903 h -21.6 V 783.5 h 21.6 v -16.203 c 10.5,12.004 25.2,18.008 41.7,18.008 20.4,0 36.3,-8.399 45.31,-24.598 11.39,16.199 27.9,24.598 48.59,24.598 15.9,0 29.1,-5.106 38.11,-13.797 10.49,-10.207 15.89,-24.004 15.89,-41.11 v -94.5 h -21.6" /><path
         id="path98"
         style="fill:#050301;fill-opacity:1;fill-rule:nonzero;stroke:none"
         d="m 1967.84,635.898 v 90.903 c 0,26.101 -14.1,39.304 -36.3,39.304 -21.6,0 -36.9,-13.503 -36.9,-36.906 v -93.301 h -21.6 v 90.903 c 0,26.101 -14.09,39.304 -36.3,39.304 -22.2,0 -36.9,-13.503 -36.9,-39.304 v -90.903 h -21.6 V 783.5 h 21.6 v -16.203 c 10.5,12.004 25.2,18.008 41.7,18.008 20.4,0 36.3,-8.399 45.31,-24.598 11.39,16.199 27.9,24.598 48.59,24.598 15.9,0 29.1,-5.106 38.1,-13.797 10.5,-10.207 15.9,-24.004 15.9,-41.11 v -94.5 h -21.6" /><path
         id="path100"
         style="fill:#050301;fill-opacity:1;fill-rule:nonzero;stroke:none"
         d="M 2044.94,635.898 V 783.5 h 21.6 V 635.898 Z m -1.2,189.606 v 24.305 h 24.3 v -24.305 h -24.3" /><path
         id="path102"
         style="fill:#050301;fill-opacity:1;fill-rule:nonzero;stroke:none"
         d="m 2170.35,634.109 c -24.89,0 -44.39,5.692 -60.6,21.289 l 14.41,14.403 c 11.7,-12.301 27.6,-17.102 45.9,-17.102 24.3,0 39.3,8.699 39.3,26.102 0,12.898 -7.5,20.097 -24.6,21.597 l -24.3,2.102 c -28.8,2.41 -44.11,15.309 -44.11,39.602 0,27.003 22.81,43.203 54.3,43.203 21.01,0 39.91,-5.106 53.11,-15.899 l -14.1,-14.101 c -10.5,8.097 -24.01,11.699 -39.31,11.699 -21.59,0 -33,-9.305 -33,-24.305 0,-12.597 7.2,-20.097 25.8,-21.59 L 2186.86,719 c 25.8,-2.391 43.49,-12.301 43.49,-39.891 0,-28.507 -24.3,-45 -60,-45" /><path
         id="path104"
         style="fill:#050301;fill-opacity:1;fill-rule:nonzero;stroke:none"
         d="m 2322.14,634.109 c -24.89,0 -44.4,5.692 -60.6,21.289 l 14.41,14.403 c 11.7,-12.301 27.59,-17.102 45.9,-17.102 24.29,0 39.29,8.699 39.29,26.102 0,12.898 -7.5,20.097 -24.6,21.597 l -24.29,2.102 c -28.8,2.41 -44.11,15.309 -44.11,39.602 0,27.003 22.81,43.203 54.3,43.203 21.01,0 39.9,-5.106 53.11,-15.899 l -14.1,-14.101 c -10.5,8.097 -24.01,11.699 -39.31,11.699 -21.59,0 -33,-9.305 -33,-24.305 0,-12.597 7.21,-20.097 25.8,-21.59 l 23.7,-2.109 c 25.8,-2.391 43.5,-12.301 43.5,-39.891 0,-28.507 -24.3,-45 -60,-45" /><path
         id="path106"
         style="fill:#050301;fill-opacity:1;fill-rule:nonzero;stroke:none"
         d="M 2427.44,635.898 V 783.5 h 21.6 V 635.898 Z m -1.2,189.606 v 24.305 h 24.3 v -24.305 h -24.3" /><path
         id="path108"
         style="fill:#050301;fill-opacity:1;fill-rule:nonzero;stroke:none"
         d="m 2585.84,755.305 c -6.9,6.894 -16.5,10.8 -27,10.8 -10.5,0 -19.81,-3.906 -26.7,-10.8 -10.8,-10.801 -12,-29.106 -12,-45.606 0,-16.488 1.2,-34.789 12,-45.59 6.89,-6.91 16.2,-10.808 26.7,-10.808 10.5,0 20.1,3.898 27,10.808 10.8,10.801 11.7,29.102 11.7,45.59 0,16.5 -0.9,34.805 -11.7,45.606 z m 15.29,-104.407 c -10.19,-10.187 -24.29,-16.789 -42.29,-16.789 -18,0 -32.1,6.602 -42.31,16.789 -15,15.301 -17.99,36 -17.99,58.801 0,22.801 2.99,43.508 17.99,58.801 10.21,10.203 24.31,16.805 42.31,16.805 18,0 32.1,-6.602 42.29,-16.805 15,-15.293 18.01,-36 18.01,-58.801 0,-22.801 -3.01,-43.5 -18.01,-58.801" /><path
         id="path110"
         style="fill:#050301;fill-opacity:1;fill-rule:nonzero;stroke:none"
         d="m 2762.84,635.898 v 90.903 c 0,26.101 -14.1,39.304 -36.3,39.304 -22.2,0 -36.6,-13.503 -36.6,-39.304 v -90.903 h -21.6 V 783.5 h 21.6 v -16.203 c 10.5,12.004 24.89,18.008 41.4,18.008 15.9,0 28.8,-4.801 37.8,-13.797 10.5,-10.207 15.3,-24.004 15.3,-41.11 v -94.5 h -21.6" /><path
         id="path112"
         style="fill:#050301;fill-opacity:1;fill-rule:nonzero;stroke:none"
         d="m 2968.63,766.105 c -32.1,0 -37.19,-27.605 -37.19,-56.406 0,-28.801 5.09,-56.398 37.19,-56.398 32.1,0 36.91,27.597 36.91,56.398 0,28.801 -4.81,56.406 -36.91,56.406 z m 37.21,-130.207 v 17.711 c -12,-15.609 -25.8,-19.5 -42,-19.5 -15,0 -28.21,5.09 -36.01,12.903 -15,15 -18,39.597 -18,62.687 0,23.11 3,47.707 18,62.707 7.8,7.793 21.01,12.899 36.01,12.899 16.2,0 29.7,-3.602 41.7,-18.907 v 83.106 h 21.6 V 635.898 h -21.3" /><path
         id="path114"
         style="fill:#050301;fill-opacity:1;fill-rule:nonzero;stroke:none"
         d="m 3171.14,744.797 c -5.7,13.508 -18.9,22.207 -34.5,22.207 -15.6,0 -28.8,-8.699 -34.5,-22.207 -3.3,-8.098 -3.9,-12.598 -4.5,-24.598 h 77.99 c -0.59,12 -1.19,16.5 -4.49,24.598 z M 3097.64,704 c 0,-32.391 15.3,-51 43.5,-51 17.1,0 26.99,5.102 38.7,16.801 l 14.7,-12.903 c -15,-15 -28.8,-22.789 -54,-22.789 -39,0 -64.5,23.391 -64.5,75.59 0,47.707 23.1,75.606 60.6,75.606 38.1,0 60.6,-27.606 60.6,-71.407 V 704 h -99.6" /><path
         id="path116"
         style="fill:#050301;fill-opacity:1;fill-rule:nonzero;stroke:none"
         d="m 3292.63,634.109 c -24.9,0 -44.4,5.692 -60.6,21.289 l 14.41,14.403 c 11.69,-12.301 27.59,-17.102 45.89,-17.102 24.3,0 39.3,8.699 39.3,26.102 0,12.898 -7.5,20.097 -24.6,21.597 l -24.3,2.102 c -28.79,2.41 -44.1,15.309 -44.1,39.602 0,27.003 22.81,43.203 54.3,43.203 21.01,0 39.9,-5.106 53.11,-15.899 l -14.11,-14.101 c -10.49,8.097 -24,11.699 -39.3,11.699 -21.59,0 -33,-9.305 -33,-24.305 0,-12.597 7.21,-20.097 25.8,-21.59 l 23.7,-2.109 c 25.8,-2.391 43.5,-12.301 43.5,-39.891 0,-28.507 -24.3,-45 -60,-45" /><path
         id="path118"
         style="fill:#050301;fill-opacity:1;fill-rule:nonzero;stroke:none"
         d="m 3583.04,815.598 c -9.31,9.601 -22.81,15.304 -36.91,15.304 -14.1,0 -27.59,-5.703 -36.9,-15.304 -13.5,-13.797 -15,-28.192 -15,-72.899 0,-44.699 1.5,-59.09 15,-72.898 9.31,-9.602 22.8,-15.289 36.9,-15.289 14.1,0 27.6,5.687 36.91,15.289 13.49,13.808 15,28.199 15,72.898 0,44.707 -1.51,59.102 -15,72.899 z m 17.69,-159.297 c -14.39,-14.403 -33.3,-22.192 -54.6,-22.192 -21.3,0 -40.19,7.789 -54.6,22.192 -20.09,20.097 -20.09,41.109 -20.09,86.398 0,45.305 0,66.309 20.09,86.406 14.41,14.395 33.3,22.196 54.6,22.196 21.3,0 40.21,-7.801 54.6,-22.196 20.1,-20.097 20.1,-41.101 20.1,-86.406 0,-45.289 0,-66.301 -20.1,-86.398" /><path
         id="path120"
         style="fill:#050301;fill-opacity:1;fill-rule:nonzero;stroke:none"
         d="m 3754.93,829.105 h -54.6 v -84.902 h 54.6 c 26.7,0 45.3,14.402 45.3,42.598 0,28.203 -18.6,42.304 -45.3,42.304 z m 2.1,-105.304 h -56.7 v -87.903 h -22.8 v 213.606 h 79.5 c 39.01,0 66,-24.305 66,-62.703 0,-38.399 -26.99,-63 -66,-63" /><path
         id="path122"
         style="fill:#050301;fill-opacity:1;fill-rule:nonzero;stroke:none"
         d="M 3912.72,816.801 3872.53,704 h 79.79 z m 63.31,-180.903 -17.1,48.301 h -93.3 l -17.1,-48.301 h -24.3 l 78.59,213.606 h 19.2 l 78.3,-213.606 h -24.29" /><path
         id="path124"
         style="fill:#050301;fill-opacity:1;fill-rule:nonzero;stroke:none"
         d="m 1225.95,220.102 c -21,0 -40.2,7.789 -54.6,22.199 -20.1,20.097 -20.1,41.097 -20.1,86.39 0,45.309 0,66.309 20.1,86.411 14.4,14.398 33.6,22.199 54.6,22.199 38.4,0 66.9,-23.403 74.1,-63.61 h -23.4 c -5.7,26.11 -24,43.207 -50.7,43.207 -14.1,0 -27.6,-5.398 -36.91,-15 -13.49,-13.796 -15,-28.5 -15,-73.207 0,-44.691 1.51,-59.39 15,-73.191 9.31,-9.602 22.81,-15 36.91,-15 26.7,0 45.6,17.102 51.3,43.191 h 22.8 c -6.91,-40.191 -36,-63.589 -74.1,-63.589" /><path
         id="path126"
         style="fill:#050301;fill-opacity:1;fill-rule:nonzero;stroke:none"
         d="m 1429.05,341.301 c -6.9,6.898 -16.5,10.801 -27,10.801 -10.5,0 -19.8,-3.903 -26.7,-10.801 -10.8,-10.801 -12,-29.102 -12,-45.602 0,-16.5 1.2,-34.801 12,-45.597 6.9,-6.903 16.2,-10.801 26.7,-10.801 10.5,0 20.1,3.898 27,10.801 10.8,10.796 11.7,29.097 11.7,45.597 0,16.5 -0.9,34.801 -11.7,45.602 z m 15.3,-104.403 c -10.2,-10.199 -24.3,-16.796 -42.3,-16.796 -18,0 -32.1,6.597 -42.3,16.796 -15,15.301 -18,35.993 -18,58.801 0,22.801 3,43.5 18,58.801 10.2,10.199 24.3,16.801 42.3,16.801 18,0 32.1,-6.602 42.3,-16.801 15,-15.301 18,-36 18,-58.801 0,-22.808 -3,-43.5 -18,-58.801" /><path
         id="path128"
         style="fill:#050301;fill-opacity:1;fill-rule:nonzero;stroke:none"
         d="m 1701.14,221.898 v 90.903 c 0,26.097 -14.1,39.301 -36.3,39.301 -21.6,0 -36.9,-13.5 -36.9,-36.903 v -93.301 h -21.6 v 90.903 c 0,26.097 -14.09,39.301 -36.3,39.301 -22.2,0 -36.9,-13.5 -36.9,-39.301 v -90.903 h -21.6 V 369.5 h 21.6 v -16.211 c 10.5,12.012 25.2,18.012 41.7,18.012 20.4,0 36.3,-8.403 45.31,-24.602 11.39,16.199 27.9,24.602 48.59,24.602 15.9,0 29.1,-5.11 38.11,-13.801 10.49,-10.199 15.89,-24 15.89,-41.102 v -94.5 h -21.6" /><path
         id="path130"
         style="fill:#050301;fill-opacity:1;fill-rule:nonzero;stroke:none"
         d="m 1967.84,221.898 v 90.903 c 0,26.097 -14.1,39.301 -36.3,39.301 -21.6,0 -36.9,-13.5 -36.9,-36.903 v -93.301 h -21.6 v 90.903 c 0,26.097 -14.09,39.301 -36.3,39.301 -22.2,0 -36.9,-13.5 -36.9,-39.301 v -90.903 h -21.6 V 369.5 h 21.6 v -16.211 c 10.5,12.012 25.2,18.012 41.7,18.012 20.4,0 36.3,-8.403 45.31,-24.602 11.39,16.199 27.9,24.602 48.59,24.602 15.9,0 29.1,-5.11 38.1,-13.801 10.5,-10.199 15.9,-24 15.9,-41.102 v -94.5 h -21.6" /><path
         id="path132"
         style="fill:#050301;fill-opacity:1;fill-rule:nonzero;stroke:none"
         d="M 2044.94,221.898 V 369.5 h 21.6 V 221.898 Z m -1.2,189.602 v 24.301 h 24.3 V 411.5 h -24.3" /><path
         id="path134"
         style="fill:#050301;fill-opacity:1;fill-rule:nonzero;stroke:none"
         d="m 2170.35,220.102 c -24.89,0 -44.39,5.687 -60.6,21.296 l 14.41,14.391 c 11.7,-12.289 27.6,-17.098 45.9,-17.098 24.3,0 39.3,8.707 39.3,26.11 0,12.898 -7.5,20.097 -24.6,21.597 l -24.3,2.102 c -28.8,2.398 -44.11,15.301 -44.11,39.602 0,27 22.81,43.199 54.3,43.199 21.01,0 39.91,-5.11 53.11,-15.903 l -14.1,-14.097 c -10.5,8.097 -24.01,11.699 -39.31,11.699 -21.59,0 -33,-9.309 -33,-24.309 0,-12.589 7.2,-20.089 25.8,-21.589 l 23.71,-2.114 c 25.8,-2.386 43.49,-12.289 43.49,-39.886 0,-28.5 -24.3,-45 -60,-45" /><path
         id="path136"
         style="fill:#050301;fill-opacity:1;fill-rule:nonzero;stroke:none"
         d="m 2322.14,220.102 c -24.89,0 -44.4,5.687 -60.6,21.296 l 14.41,14.391 c 11.7,-12.289 27.59,-17.098 45.9,-17.098 24.29,0 39.29,8.707 39.29,26.11 0,12.898 -7.5,20.097 -24.6,21.597 l -24.29,2.102 c -28.8,2.398 -44.11,15.301 -44.11,39.602 0,27 22.81,43.199 54.3,43.199 21.01,0 39.9,-5.11 53.11,-15.903 l -14.1,-14.097 c -10.5,8.097 -24.01,11.699 -39.31,11.699 -21.59,0 -33,-9.309 -33,-24.309 0,-12.589 7.21,-20.089 25.8,-21.589 l 23.7,-2.114 c 25.8,-2.386 43.5,-12.289 43.5,-39.886 0,-28.5 -24.3,-45 -60,-45" /><path
         id="path138"
         style="fill:#050301;fill-opacity:1;fill-rule:nonzero;stroke:none"
         d="M 2427.44,221.898 V 369.5 h 21.6 V 221.898 Z m -1.2,189.602 v 24.301 h 24.3 V 411.5 h -24.3" /><path
         id="path140"
         style="fill:#050301;fill-opacity:1;fill-rule:nonzero;stroke:none"
         d="m 2585.84,341.301 c -6.9,6.898 -16.5,10.801 -27,10.801 -10.5,0 -19.81,-3.903 -26.7,-10.801 -10.8,-10.801 -12,-29.102 -12,-45.602 0,-16.5 1.2,-34.801 12,-45.597 6.89,-6.903 16.2,-10.801 26.7,-10.801 10.5,0 20.1,3.898 27,10.801 10.8,10.796 11.7,29.097 11.7,45.597 0,16.5 -0.9,34.801 -11.7,45.602 z m 15.29,-104.403 c -10.19,-10.199 -24.29,-16.796 -42.29,-16.796 -18,0 -32.1,6.597 -42.31,16.796 -15,15.301 -17.99,35.993 -17.99,58.801 0,22.801 2.99,43.5 17.99,58.801 10.21,10.199 24.31,16.801 42.31,16.801 18,0 32.1,-6.602 42.29,-16.801 15,-15.301 18.01,-36 18.01,-58.801 0,-22.808 -3.01,-43.5 -18.01,-58.801" /><path
         id="path142"
         style="fill:#050301;fill-opacity:1;fill-rule:nonzero;stroke:none"
         d="m 2762.84,221.898 v 90.903 c 0,26.097 -14.1,39.301 -36.3,39.301 -22.2,0 -36.6,-13.5 -36.6,-39.301 v -90.903 h -21.6 V 369.5 h 21.6 v -16.211 c 10.5,12.012 24.89,18.012 41.4,18.012 15.9,0 28.8,-4.801 37.8,-13.801 10.5,-10.199 15.3,-24 15.3,-41.102 v -94.5 h -21.6" /><path
         id="path144"
         style="fill:#050301;fill-opacity:1;fill-rule:nonzero;stroke:none"
         d="m 2926.94,330.789 c -5.7,13.512 -18.9,22.211 -34.5,22.211 -15.6,0 -28.8,-8.699 -34.5,-22.211 -3.3,-8.09 -3.9,-12.59 -4.5,-24.598 h 78 c -0.6,12.008 -1.2,16.508 -4.5,24.598 z m -73.5,-40.801 c 0,-32.386 15.3,-50.988 43.5,-50.988 17.1,0 27,5.102 38.7,16.789 l 14.7,-12.898 c -15,-15 -28.8,-22.789 -54,-22.789 -39,0 -64.5,23.398 -64.5,75.597 0,47.699 23.1,75.602 60.6,75.602 38.1,0 60.6,-27.61 60.6,-71.403 v -9.91 h -99.6" /><path
         id="path146"
         style="fill:#050301;fill-opacity:1;fill-rule:nonzero;stroke:none"
         d="m 3130.63,352.102 c -32.09,0 -37.19,-27.602 -37.19,-56.403 0,-28.801 5.1,-56.398 37.19,-56.398 32.1,0 36.91,27.597 36.91,56.398 0,28.801 -4.81,56.403 -36.91,56.403 z m 37.21,-130.204 v 17.704 c -12,-15.602 -25.8,-19.5 -42,-19.5 -15,0 -28.2,5.097 -36.01,12.898 -15,15 -17.99,39.602 -17.99,62.699 0,23.102 2.99,47.699 17.99,62.699 7.81,7.793 21.01,12.903 36.01,12.903 16.2,0 29.7,-3.602 41.7,-18.903 V 435.5 h 21.6 V 221.898 h -21.3" /><path
         id="path148"
         style="fill:#050301;fill-opacity:1;fill-rule:nonzero;stroke:none"
         d="m 3333.13,330.789 c -5.7,13.512 -18.9,22.211 -34.5,22.211 -15.6,0 -28.8,-8.699 -34.5,-22.211 -3.3,-8.09 -3.9,-12.59 -4.5,-24.598 h 78 c -0.6,12.008 -1.19,16.508 -4.5,24.598 z m -73.5,-40.801 c 0,-32.386 15.3,-50.988 43.5,-50.988 17.1,0 27,5.102 38.71,16.789 l 14.69,-12.898 c -15,-15 -28.8,-22.789 -54,-22.789 -38.99,0 -64.5,23.398 -64.5,75.597 0,47.699 23.1,75.602 60.6,75.602 38.1,0 60.6,-27.61 60.6,-71.403 v -9.91 h -99.6" /><path
         id="path150"
         style="fill:#050301;fill-opacity:1;fill-rule:nonzero;stroke:none"
         d="m 3445.03,221.898 c -25.8,0 -37.5,16.793 -37.5,39.293 V 435.5 h 21.6 V 262.102 c 0,-14.403 4.81,-21.602 19.81,-21.602 h 11.69 v -18.602 h -15.6" /><path
         id="path152"
         style="fill:#050301;fill-opacity:1;fill-rule:nonzero;stroke:none"
         d="m 3537.13,221.898 c -25.8,0 -37.5,16.793 -37.5,39.293 V 435.5 h 21.6 V 262.102 c 0,-14.403 4.81,-21.602 19.81,-21.602 h 11.69 v -18.602 h -15.6" /><path
         id="path154"
         style="fill:#050301;fill-opacity:1;fill-rule:nonzero;stroke:none"
         d="m 3679.34,330.789 c -5.71,13.512 -18.91,22.211 -34.51,22.211 -15.6,0 -28.79,-8.699 -34.5,-22.211 -3.3,-8.09 -3.89,-12.59 -4.5,-24.598 h 78 c -0.6,12.008 -1.19,16.508 -4.49,24.598 z m -73.51,-40.801 c 0,-32.386 15.3,-50.988 43.51,-50.988 17.1,0 26.99,5.102 38.7,16.789 l 14.69,-12.898 c -15,-15 -28.79,-22.789 -54,-22.789 -38.99,0 -64.5,23.398 -64.5,75.597 0,47.699 23.1,75.602 60.6,75.602 38.1,0 60.6,-27.61 60.6,-71.403 v -9.91 h -99.6" /><path
         id="path156"
         style="fill:#050301;fill-opacity:1;fill-rule:nonzero;stroke:none"
         d="m 3939.43,401.602 c -9.3,9.589 -22.8,15.296 -36.9,15.296 -14.1,0 -27.6,-5.707 -36.9,-15.296 -13.5,-13.801 -15,-28.204 -15,-72.911 0,-44.691 1.5,-59.089 15,-72.902 9.3,-9.598 22.8,-15.289 36.9,-15.289 14.1,0 27.6,5.691 36.9,15.289 13.5,13.813 15,28.211 15,72.902 0,44.707 -1.5,59.11 -15,72.911 z m 17.7,-159.301 c -14.4,-14.41 -33.3,-22.199 -54.6,-22.199 -21.3,0 -40.2,7.789 -54.6,22.199 -20.1,20.097 -20.1,41.097 -20.1,86.39 0,45.309 0,66.309 20.1,86.411 14.4,14.398 33.3,22.199 54.6,22.199 21.3,0 40.2,-7.801 54.6,-22.199 20.1,-20.102 20.1,-41.102 20.1,-86.411 0,-45.293 0,-66.293 -20.1,-86.39" /><path
         id="path158"
         style="fill:#050301;fill-opacity:1;fill-rule:nonzero;stroke:none"
         d="m 4111.33,415.102 h -54.6 v -84.903 h 54.6 c 26.7,0 45.3,14.403 45.3,42.602 0,28.199 -18.6,42.301 -45.3,42.301 z m 2.1,-105.301 h -56.7 v -87.903 h -22.8 V 435.5 h 79.5 c 39,0 65.99,-24.309 65.99,-62.699 0,-38.403 -26.99,-63 -65.99,-63" /><path
         id="path160"
         style="fill:#050301;fill-opacity:1;fill-rule:nonzero;stroke:none"
         d="m 4269.12,402.801 -40.19,-112.813 h 79.79 z m 63.3,-180.903 -17.1,48.301 h -93.3 l -17.1,-48.301 h -24.29 l 78.59,213.602 h 19.2 l 78.3,-213.602 h -24.3" /><path
         id="path162"
         style="fill:#050301;fill-opacity:1;fill-rule:nonzero;stroke:none"
         d="M 1154.85,21.2617 V 0 h 214.14 v 21.2617 h -214.14" /></g></g></svg>