<svg version="1.1" id="Layer_2" xmlns="http://www.w3.org/2000/svg" x="0" y="0" width="233" height="44" viewBox="0 0 233 44" xml:space="preserve"><style>.st0{fill:#087dba}</style><g id="Icon"><path class="st0" d="M32.7 25.1s1.1-.6 2 .7c0-.1-.9-1-2-.7M30.9 29.3s.4-.7 1.4-.7c0-.1-1 .1-1.4.7M30.3 27.2s.4-.5 1.4-.6l-.1.1c0-.1-.7 0-1.3.5M17.9 18.2s.5-.8 1.5-.4c0 0-.8-.2-1.5.4M18.5 18.7s.4-.6 1-.3c0 0-.6-.2-1 .3M22.6 18.4s-.5-.5-1.1 0c0 .1.5-.2 1.1 0M23.2 18.2s-.5-.8-1.5-.4c.1 0 .9-.2 1.5.4M9.2 14.2s.6.2.8.9c0 0 .4.8.8 1 0 0-.7-.2-1-1 0 0-.1-.6-.6-.9M8.2 17.3s.9-.2 1.7 1c0-.1-.9-1-1.7-1M12.4 14.5s1 .4.2 1.8c0 0-.2.3-.4 1 0 0-.1-.5.3-1.1.1-.1.5-1.1-.1-1.7M8.8 22.2s.6.4 1-.3c0 0-.4.4-1 .3M12.4 26.4s1.1-.5 1.8.6c0 0-.7-.8-1.8-.6M11.6 31.2s.6-1.2 1.8-.9c-.1-.1-1.2.1-1.8.9M17.4 32.1s-.3 1.3-1.9 1.5c0 0 1.1-.2 1.9-1.5M10.1 28.4s.5-.8 1.5-.3c0 0 .5.5 1.2.5 0 0-.6.2-1.4-.3.1-.1-.6-.5-1.3.1M16.7 14.7s-.6.6-.8-.3c0 0-.1-.6.7-.8 0 0-.6.3-.2.7-.1.1-.4.5.3.4M24.5 14.7s.6.6.8-.3c0 0 .1-.6-.7-.8 0 0 .6.3.2.7.1.1.4.5-.3.4"/><path class="st0" d="M43.5 20.7L23.3.5c-.7-.7-1.9-.7-2.6 0L.5 20.7c-.7.7-.7 1.9 0 2.6l20.2 20.2c.7.7 1.9.7 2.6 0l20.2-20.2c.7-.7.7-1.9 0-2.6zM28.4 10.6c2.3-.8 3.2 2 3.2 2-.8-1.2-3.7-.5-1.6 1.9 1.9 1.8 5.3.3 5.3.3l1.9 1.8c-.7.1-3.5.7-5.5.3-3.6-.8-3.8-3.5-3.8-3.5-.5-4.1-4-3.7-4-3.7 3.5-1.2 4.5.9 4.5.9zm-13 3.2c.4-.9.9-.8 1.1-1.3.2-.5.1-.5.1-.5s.9.2.5 1.1c0 0 1-.7.4-1.7 0 0 .6-.1.8.4 0 0 .6-.6.1-1 0 0 .7-.4 1 .4 0 0 .3-1.2 1-1.2 0 0-.5 1 .3 1.3.8-.4.3-1.3.3-1.3.7 0 1.1 1.2 1.1 1.2.3-.8 1-.4 1-.4-.6.4.1 1 .1 1 .2-.6.8-.4.8-.4-.6 1 .3 1.7.3 1.7-.4-1 .5-1.1.5-1.1s-.1.1.1.5c.1.5.7.4 1.1 1.3.4.9-.1 1.7-.9 1.6-.6 0-.7-.5-.7-.5-.1.1-.2 0-.2.3-.1.3.2.5.2.5.3.1 1.1.3 1 1.1-.5.1-.8 0-.8.4 0 .2-.3.3-.4.3-.7 0-.8-.8-.8-.8.5.5.8-.2.8-.2.2-.6-.6-1-.6-1-.5-.5.4-1 .4-1 .5-.5.1-.8.1-.8-.6.4-.9.4-.9.4-.5-.1-1.2 0-1.6.8-.4.8-.1 1.6-.1 2.2 0 .6-.2.7-.3.9-.1.1-.2.4-.2.4s-.1-.3-.2-.4c-.1-.2-.4-.3-.4-.9 0-.6.3-1.3-.1-2.2-.3-.8-1.1-.9-1.6-.8 0 0-.3.1-.9-.4 0 0-.4.2.1.8 0 0 .9.5.4 1 0 0-.8.4-.6 1 0 0 .3.7.8.2 0 0-.1.8-.8.8-.2 0-.4-.1-.4-.3-.1-.4-.4-.3-.9-.4-.2-.8.7-1.1 1-1.1 0 0 .3-.2.3-.5-.1-.3-.1-.2-.2-.3 0 0-.1.5-.7.5-1.3.1-1.8-.7-1.4-1.6zm9.8 8.6s.1-1-.8-1.5c0 0 1 2.3-.1 3.4 0 0 .4-1.6-.9-2.4 0 0 1.1 2.4-.3 3.7 0 0 .7-1.4-.5-2.5 0 0 .6 2.2-.7 3.5 0 0 .4-1 0-2.7 0 0 .2 2.4-1.2 3.3 0 0 .1-.4.1-1.3s-.3-1.8-.3-1.8-.3.5-.3 1.7c0 1.1.1 1.3.2 1.3-1.3-.9-1.2-3.3-1.2-3.3-.4 1.7 0 2.7 0 2.7-1.3-1.3-.7-3.5-.7-3.5-1.2 1.1-.5 2.5-.5 2.5-1.4-1.3-.3-3.7-.3-3.7-1.2.8-.9 2.4-.9 2.4-1.1-1.1-.1-3.4-.1-3.4-.9.5-.8 1.5-.8 1.5-1.4-1.7.5-3.4.5-3.4-.7-.2-.9.7-.9.7-.6-.7.1-1.7.1-1.7.4-.5.3-.8.3-.8s.5-.1.5.3.7.3.7.3c-.1 2.5 2 1.9 2 1.9 0 2.9 1.2 2.1 1.3 2.1.1 0 1.3.9 1.3-2.1 0 0 2.1.6 2-1.9 0 0 .7.1.7-.3s.5-.3.5-.3-.1.3.3.8c0 0 .8.9.2 1.7 0 0-.2-1-.9-.7.2.1 2.1 1.8.7 3.5zm-5.7-4.7c.6.3.5.9 1.1 1.4.5-.5.5-1.1 1.1-1.4.7-.4 1.4 0 1.6.3.4.5.1.9.1.9 0-.4-.4-.5-.5-.5l.1.1c.4 1.1-.8 1.1-.8 1.1.4-.3.2-.6.2-.6-.5-.3-1.1 0-1.3.6-.3.9-.1 1.6-.1 1.6.1.4.5-.1.5-.1-.4 1.1-.7.3-.7.2-.1.1-.3.9-.7-.2 0 0 .4.5.5.1 0 0 .2-.7-.1-1.6-.2-.6-1-1-1.3-.6 0 0-.2.3.2.6 0 0-1.2 0-.8-1.1l.1-.1c-.2 0-.6.2-.5.5 0 0-.3-.4.1-.9-.2-.3.5-.7 1.2-.3zm-1-2.5s1.1-.2 1.2 1c0 0-.7.3-1-.2 0-.1 0-.7-.2-.8zm4 .7c-.2.5-1 .3-1 .3.2-1.1 1.2-1 1.2-1-.2.1-.2.7-.2.7zM8.1 21.6c1.4 1 1.4-.7 1.4-.7-.2-1 1-.6 1-.6-.1-.6-.7-.8-.7-.8-1.1-.3-1.1-.9-1.1-.9-.1-.9-1.7-1-1.7-1 1.9-1.4 3.1.7 3.1.7.5-.5-.4-1.1-.4-1.1-1-.8-.7-1.9-.7-1.9.2-.9-.9-1.2-.9-1.2 1.7-.8 2.2.8 2.2.8.2.8.9 1.3.9 1.3.1-.4.6-1 .6-1 .6-.8-.7-1.3-.7-1.3 3.6.1 1.7 3 1.7 3-1 1.4.2 2.3.2 2.3.4.4 1.1 1.5 1.1 1.5s-.6 1.2.8 2.8c0 0 0 1.2 1.6 2.2 0 0 .1 1.5 2.4 2 0 0-.6.1-1.1.1-2.1.1-2.2-.2-2.5-1-.4-1.1-1.4-1.4-1.4-1.4-1-.1-1.3-1.9-1.3-1.9-.4.8-.2 1.5-.2 1.5-.6-.2-.6-1.9-.6-1.9-.3.3-.3 1.2-.3 1.2-.6-.6-.4-1.8-.4-1.8.2-.8-.1-1.3-.1-1.3-.2.2-.3.4-.3.4-.2.7-.7.4-.7.4-1 1.4-1.9-.4-1.9-.4zm26.6 8.1c-.9.8-2.4.1-2.4.1-1.2-1.4-2.1.4-2.1.4.5-2.5 2.8-1.9 2.8-1.9-.3-.3-1.4.1-1.5-.9-1.5-.4-2 .9-2 .9.5-2.3 2.5-2.1 2.5-2.1.3-.3.9-.2 1.2.3.4.2.7 0 .7 0-.7-.1-.7-1-.7-1-.5-.7-1.4.1-1.4.1.5-1.3 1.8-1.1 1.8-1.1 1.1.1 1.7 1.3 1.7 1.3.7.7 2.8.3 2.8.3l-3.4 3.6zM42 22c0 .5-.4.9-.4.9l-1 1c-1.1.1-3.7 2.1-4.5.9-1.2-2-3-1.4-3-1.4-1.7.5-2.2 1.7-2.2 1.7-.5.2-.8.3-1.3.7-1.2 1-2.6 3.6 0 6.4 0 0-1.1 0-1.9-1 .3 1.1.9 1.9.9 1.9-3.5.8-5.2-1.1-5.2-1.1 0 .7 1 1.4 1 1.4-1.1-.2-2.7-1.5-2.7-1.5-.2.7.9 1.5.9 1.5-.9 0-2.2-1.5-2.2-1.5-.2.6.6 1.4.6 1.4-.8 0-1.9-1.4-1.9-1.4-.1.7.4 1.1.4 1.1-1.1-.1-1.8-1-1.8-1-.6 2.5-3 1.9-3 1.9 1-.6.8-1.1.8-1.1-.7-.9.1-1.1.1-1.1-.6-.2-.9.2-.9.2-.9.6-1.4-.2-1.4-.2-1.4-.8-2.1.5-2.1.5.4-2.6 2.6-1.9 2.6-1.9-.2-.3-.7-.4-.7-.4-1.2.2-1.7-.5-1.7-.5-.8-1-1.7 0-1.7 0 .2-1.7 1.5-1.7 2.1-1.3 1.3.8 1.6.4 1.6.4-.7-.1-.4-1-.4-1-.3-1-1.2-.3-1.2-.3.3-.7 1.1-1.1 2-.7 1.1.8.9 1.3 1.3 1.9.3.6.7.5 1.2.5h4.4c1.5-.1 2.8-1.8 2.8-1.8 1.1-.4 1.3-1.4 1.3-1.4 1.6-1.3 1.3-2.2 1.3-2.2 1.5-1.2 1-2.7 1-2.7.4-.7.2-1.4.2-1.4s2.1-.8 4.8.4c2.8 1.1 8.3.4 8.3.4l1 1c.2-.1.6.3.6.8z"/></g><g id="Jersey"><path class="st0" d="M58.9 16.9c0 1.3-.4 2.4-2.5 2.4H54.6v-1.8h1.3c.7 0 1-.1 1-1V6.2H59v10.7zM62.5 14.7c.1 1.5.7 3.1 2.7 3.1 1.6 0 2.3-1.1 2.4-1.9h1.9c-.1 1.1-.9 3.5-4.4 3.5-2.8 0-4.7-1.8-4.7-5.2 0-3.2 1.9-5.2 4.7-5.2 2.9 0 4.7 2 4.5 5.6h-7.1zm5-1.6c-.1-1.8-1.2-2.4-2.4-2.4-1.4 0-2.4.9-2.6 2.4h5zM76.2 11.2c-1.9 0-2.9.7-2.9 2.6v5.5h-2V9.2h1.9v1.6c.7-1.3 2-1.6 2.9-1.6h.7v2h-.6zM84 12c-.1-1.1-.9-1.4-2.1-1.4-.8 0-2.1.2-2.1 1.3 0 .6.4.9 1 1.1 1.8.5 5.2.2 5.2 3.2 0 1.4-.8 3.2-4.4 3.2-2.2 0-4-1.1-4.1-3.2h2.1c0 .8.6 1.6 2.1 1.6 1.7 0 2.3-.8 2.3-1.4 0-.7-.4-.9-1.2-1.1-1.9-.5-5.1-.1-5.1-3.2 0-1.7 1.5-3 4.1-3 3.3 0 3.9 2 4 3H84zM89.3 14.7c.1 1.5.7 3.1 2.7 3.1 1.6 0 2.3-1.1 2.4-1.9h1.9c-.1 1.1-.9 3.5-4.4 3.5-2.8 0-4.7-1.8-4.7-5.2 0-3.2 1.9-5.2 4.7-5.2 2.9 0 4.7 2 4.5 5.6h-7.1zm5.1-1.6c-.1-1.8-1.2-2.4-2.4-2.4-1.4 0-2.4.9-2.6 2.4h5zM106 9.2l-4.1 11.7c-.4 1.1-1 2.1-2.6 2.1h-1.9v-1.7h1.5c.9 0 1.1-.4 1.5-1.9L96.8 9.2H99l2.5 7.7 2.5-7.7h2z"/></g><g id="Financial"><polygon class="st0" points="113.5,8 113.5,12.2 119.5,12.2 119.5,14 113.5,14 113.5,19.3 111.4,19.3 111.4,6.2 119.9,6.2 119.9,8"/><path class="st0" d="M121.5 7.5h2V5.4h-2v2.1zm0 11.8h2V9.2h-2v10.1zM132.2 19.3v-6.4c0-1.4-.7-2.2-2.1-2.2-1.4 0-2.6 1-2.6 2.9v5.6h-2v-10h2v1.3c.6-.8 1.6-1.4 3.1-1.4 2.2 0 3.6 1.3 3.6 3.3v7h-2zM142.5 19.3V19v-.8c-.4.5-1.3 1.2-3.3 1.2-1.9 0-3.5-1.1-3.5-3.1 0-2.2 1.8-2.8 2.8-2.9.5-.1 1.5-.2 2.3-.3.5-.1 1-.1 1.6-.2v-.4c0-1-.3-1.8-2.1-1.8-1.9 0-2.1 1-2.2 1.7h-2c0-1.3.7-3.3 4.1-3.3 3.5 0 4.1 1.8 4.1 3.4v5.3c0 .6 0 1.2.1 1.6h-1.9zm-.1-4.9l-1.1.2-1.8.3c-.9.2-1.7.5-1.7 1.5 0 .7.5 1.5 1.8 1.5 1 0 1.7-.3 2.2-.8.4-.4.6-1 .6-1.6v-1.1zM153 19.3v-6.4c0-1.4-.7-2.2-2.1-2.2-1.4 0-2.6 1-2.6 2.9v5.6h-2v-10h2v1.3c.6-.8 1.6-1.4 3.1-1.4 2.2 0 3.6 1.3 3.6 3.3v7h-2zM163.4 12.8c-.2-1.4-.9-2.1-2.3-2.1-1.5 0-2.7 1-2.7 3.5s1.2 3.6 2.7 3.6c1.3 0 2.2-.8 2.3-2.1h2c-.3 2.5-1.9 3.7-4.3 3.7-2.8 0-4.7-1.8-4.7-5.2 0-3.5 2-5.2 4.7-5.2 2.4 0 4.1 1.3 4.3 3.7h-2zM167 7.5h2V5.4h-2v2.1zm0 11.8h2V9.2h-2v10.1zM177.4 19.3V19v-.8c-.4.5-1.3 1.2-3.3 1.2-1.9 0-3.5-1.1-3.5-3.1 0-2.2 1.8-2.8 2.8-2.9.5-.1 1.5-.2 2.3-.3.5-.1 1-.1 1.6-.2v-.4c0-1-.3-1.8-2.1-1.8-1.9 0-2.1 1-2.2 1.7h-2c0-1.3.7-3.3 4.1-3.3 3.5 0 4.1 1.8 4.1 3.4v5.3c0 .6 0 1.2.1 1.6h-1.9zm-.1-4.9l-1.1.2-1.8.3c-.9.2-1.7.5-1.7 1.5 0 .7.5 1.5 1.8 1.5 1 0 1.7-.3 2.2-.8.4-.4.6-1 .6-1.6v-1.1z"/><rect x="181.2" y="5.4" class="st0" width="2" height="13.9"/></g><g id="Services"><path class="st0" d="M62.4 28.7c-.1-1.1-.5-2.3-2.7-2.3-1.9 0-2.7.8-2.7 2 0 .6.2 1 .7 1.3 1.9 1.2 7 .3 7 4.4 0 2.5-1.7 4.1-5.2 4.1-2.6 0-4.8-1.2-4.9-4.1h2.1c.1 1.5 1 2.3 3 2.3 1.3 0 2.9-.5 2.9-2.1 0-.8-.3-1.2-1-1.5-1.3-.5-3.4-.6-4.9-1.3-1.1-.5-1.9-1.4-1.9-3.1 0-2.6 2.5-3.8 4.8-3.8 2.8 0 4.8 1.2 4.9 4h-2.1zM67.9 33.5c.1 1.5.7 3.1 2.7 3.1 1.6 0 2.3-1.1 2.4-1.9h1.9c-.1 1.1-.9 3.5-4.4 3.5-2.8 0-4.7-1.8-4.7-5.2 0-3.2 1.9-5.2 4.7-5.2 2.9 0 4.7 2 4.5 5.6h-7.1zm5-1.6c-.1-1.8-1.2-2.4-2.4-2.4-1.4 0-2.4.9-2.6 2.4h5zM81.4 30c-1.9 0-2.9.7-2.9 2.6v5.5h-2V28h1.9v1.6c.7-1.3 2-1.6 2.9-1.6h.7v2h-.6z"/><polygon class="st0" points="86.3,38.1 82.9,28 85,28 87.7,36.2 90.4,28 92.5,28 89,38.1"/><path class="st0" d="M93.5 26.3h2v-2.1h-2v2.1zm0 11.8h2V28h-2v10.1zM103.9 31.5c-.2-1.4-.9-2.1-2.3-2.1-1.5 0-2.7 1-2.7 3.5s1.2 3.6 2.7 3.6c1.3 0 2.2-.8 2.3-2.1h2c-.3 2.5-1.9 3.7-4.3 3.7-2.8 0-4.7-1.8-4.7-5.2 0-3.5 2-5.2 4.7-5.2 2.4 0 4.1 1.3 4.3 3.7h-2zM109.2 33.5c.1 1.5.7 3.1 2.7 3.1 1.6 0 2.3-1.1 2.4-1.9h1.9c-.1 1.1-.9 3.5-4.4 3.5-2.8 0-4.7-1.8-4.7-5.2 0-3.2 1.9-5.2 4.7-5.2 2.9 0 4.7 2 4.5 5.6h-7.1zm5.1-1.6c-.1-1.8-1.2-2.4-2.4-2.4-1.4 0-2.4.9-2.6 2.4h5zM123.8 30.8c-.1-1.1-.9-1.4-2.1-1.4-.8 0-2.1.2-2.1 1.3 0 .6.4.9 1 1.1 1.8.5 5.2.2 5.2 3.2 0 1.4-.8 3.2-4.4 3.2-2.2 0-4-1.1-4.1-3.2h2.1c0 .8.6 1.6 2.1 1.6 1.7 0 2.3-.8 2.3-1.4 0-.7-.4-.9-1.2-1.1-1.9-.5-5.1-.1-5.1-3.2 0-1.7 1.5-3 4.1-3 3.3 0 3.9 2 4 3h-1.8z"/></g><g id="Commission"><path class="st0" d="M140.2 29.1c-.3-1.7-1.4-2.5-3-2.5-2.7 0-3.6 2.6-3.6 5 0 2.6 1 4.9 3.7 4.9 1.9 0 2.8-1.2 2.9-2.5h2.2c-.1 1.1-.9 4.3-5.1 4.3-4.8 0-5.9-4.1-5.9-6.8 0-3.1 1.3-6.8 5.9-6.8 4.3 0 5 3.4 5.1 4.3h-2.2zM143.6 33c0-3.4 1.9-5.2 4.7-5.2 2.8 0 4.7 1.7 4.7 5.2s-1.9 5.2-4.7 5.2c-2.8 0-4.7-1.7-4.7-5.2m2 0c0 2.6 1.1 3.5 2.7 3.5s2.7-1 2.7-3.5-1.1-3.5-2.7-3.5-2.7 1-2.7 3.5M156.4 29.1c.5-.7 1.4-1.2 2.7-1.2 1.5 0 2.4.6 2.8 1.6.7-1.1 1.9-1.6 3.1-1.6 2.2 0 3.4 1.4 3.4 3.3v6.9h-2v-6.4c0-1.4-.6-2.2-1.9-2.2-1.2 0-2.2.9-2.2 2.7v5.9h-2v-6.4c0-1.3-.5-2.1-1.8-2.1s-2.3.9-2.3 2.7v5.8h-2V28h2v1.1zM172.4 29.1c.5-.7 1.4-1.2 2.7-1.2 1.5 0 2.4.6 2.8 1.6.7-1.1 1.9-1.6 3.1-1.6 2.2 0 3.4 1.4 3.4 3.3v6.9h-2v-6.4c0-1.4-.6-2.2-1.9-2.2-1.2 0-2.2.9-2.2 2.7v5.9h-2v-6.4c0-1.3-.5-2.1-1.8-2.1s-2.3.9-2.3 2.7v5.8h-2V28h2v1.1zM186.3 26.3h2v-2.1h-2v2.1zm0 11.8h2V28h-2v10.1zM196.1 30.8c-.1-1.1-.9-1.4-2.1-1.4-.8 0-2.1.2-2.1 1.3 0 .6.4.9 1 1.1 1.8.5 5.2.2 5.2 3.2 0 1.4-.8 3.2-4.4 3.2-2.2 0-4-1.1-4.1-3.2h2.1c0 .8.6 1.6 2.1 1.6 1.7 0 2.3-.8 2.3-1.4 0-.7-.4-.9-1.2-1.1-1.9-.5-5.1-.1-5.1-3.2 0-1.7 1.5-3 4.1-3 3.3 0 3.9 2 4 3h-1.8zM205.8 30.8c-.1-1.1-.9-1.4-2.1-1.4-.8 0-2.1.2-2.1 1.3 0 .6.4.9 1 1.1 1.8.5 5.2.2 5.2 3.2 0 1.4-.8 3.2-4.4 3.2-2.2 0-4-1.1-4.1-3.2h2.1c0 .8.6 1.6 2.1 1.6 1.7 0 2.3-.8 2.3-1.4 0-.7-.4-.9-1.2-1.1-1.9-.5-5.1-.1-5.1-3.2 0-1.7 1.5-3 4.1-3 3.3 0 3.9 2 4 3h-1.8zM209.5 26.3h2v-2.1h-2v2.1zm0 11.8h2V28h-2v10.1zM213.1 33c0-3.4 1.9-5.2 4.7-5.2 2.8 0 4.7 1.7 4.7 5.2s-1.9 5.2-4.7 5.2c-2.8 0-4.7-1.7-4.7-5.2m2 0c0 2.6 1.1 3.5 2.7 3.5s2.7-1 2.7-3.5-1.1-3.5-2.7-3.5-2.7 1-2.7 3.5M230.7 38.1v-6.4c0-1.4-.7-2.2-2.1-2.2-1.4 0-2.6 1-2.6 2.9V38h-2V28h2v1.3c.6-.8 1.6-1.4 3.1-1.4 2.2 0 3.6 1.3 3.6 3.3v7h-2z"/></g></svg>