<?xml version="1.0" encoding="utf-8"?>
<!-- Generator: Adobe Illustrator 16.0.3, SVG Export Plug-In . SVG Version: 6.00 Build 0)  -->
<!DOCTYPE svg PUBLIC "-//W3C//DTD SVG 1.1//EN" "http://www.w3.org/Graphics/SVG/1.1/DTD/svg11.dtd">
<svg version="1.1" id="Layer_1" xmlns="http://www.w3.org/2000/svg" xmlns:xlink="http://www.w3.org/1999/xlink" viewBox="0 0 308.497 87.582"
	 xml:space="preserve">
<g id="XMLID_550_">
	<polygon id="XMLID_553_" fill="#61C250" points="3.51,18.308 3.51,68.07 31.335,83.33 128.423,83.33 	"/>
	<rect id="XMLID_552_" x="31.335" y="4.532" fill="#0098DB" width="97.088" height="78.798"/>
	<polygon id="XMLID_551_" fill="#005A8B" points="31.335,83.33 128.423,83.33 31.335,32.792 	"/>
</g>
<rect id="XMLID_1015_" x="141.034" y="24.832" fill="#005A8B" width="4.029" height="20.639"/>
<polygon id="XMLID_1014_" fill="#005A8B" points="161.721,37.469 153.547,24.832 149.953,24.832 149.953,45.471 153.982,45.471
	153.982,32.803 162.157,45.471 165.75,45.471 165.75,24.832 161.721,24.832 "/>
<path id="XMLID_1013_" fill="#005A8B" d="M178.438,33.412l-2.436-0.348c-0.84-0.116-1.508-0.435-1.914-0.812
	c-0.435-0.406-0.607-0.957-0.607-1.479c0-1.42,1.043-2.609,3.188-2.609c1.363,0,2.928,0.174,4.231,1.42l2.552-2.522
	c-1.769-1.71-3.826-2.405-6.666-2.405c-4.465,0-7.188,2.58-7.188,6.26c0,1.74,0.493,3.073,1.478,4.059
	c0.928,0.898,2.232,1.449,4,1.709l2.493,0.349c0.956,0.145,1.421,0.348,1.826,0.725c0.435,0.406,0.638,1.014,0.638,1.739
	c0,1.652-1.275,2.551-3.652,2.551c-1.912,0-3.682-0.435-4.984-1.739l-2.607,2.608c2.028,2.059,4.405,2.725,7.535,2.725
	c4.318,0,7.652-2.261,7.652-6.261c0-1.826-0.493-3.333-1.596-4.377C181.51,34.194,180.32,33.672,178.438,33.412z"/>
<path id="XMLID_1012_" fill="#005A8B" d="M198.719,38.252c0,2.377-1.42,3.797-3.596,3.797c-2.174,0-3.564-1.42-3.564-3.797v-13.42
	h-4.029v13.565c0,4.377,3.363,7.248,7.596,7.248c4.231,0,7.595-2.871,7.595-7.248V24.832h-4L198.719,38.252L198.719,38.252z"/>
<path id="XMLID_1009_" fill="#005A8B" d="M211.318,37.238h2.897l4.029,8.233h4.666l-4.606-8.899c2-0.725,3.768-2.522,3.768-5.42
	c0-3.449-2.491-6.319-6.694-6.319h-8.088v20.638h4.028V37.238L211.318,37.238z M211.318,28.426h3.798
	c1.768,0,2.928,1.13,2.928,2.725c0,1.595-1.16,2.725-2.928,2.725h-3.798V28.426z"/>
<path id="XMLID_1006_" fill="#005A8B" d="M231.57,24.832l-7.507,20.639h4.203l1.246-3.653h7.333l1.218,3.653h4.203l-7.536-20.639
	H231.57z M230.643,38.426l2.609-7.508l2.521,7.508H230.643z"/>
<polygon id="XMLID_1005_" fill="#005A8B" points="260.693,24.832 256.665,24.832 256.665,37.469 248.491,24.832 244.895,24.832
	244.895,45.471 248.924,45.471 248.924,32.803 257.099,45.471 260.693,45.471 "/>
<path id="XMLID_1004_" fill="#005A8B" d="M280.075,39.122h-4.087c-0.435,1.769-1.536,2.928-3.479,2.928
	c-1.102,0-1.971-0.348-2.579-1.073c-0.841-0.898-1.015-1.826-1.015-5.826s0.174-4.927,1.015-5.826
	c0.608-0.725,1.479-1.072,2.579-1.072c1.941,0,3.045,1.16,3.479,2.928h4.087c-0.695-4.203-3.623-6.521-7.595-6.521
	c-2.203,0-4.058,0.753-5.563,2.261c-0.898,0.898-1.449,1.913-1.683,3.102c-0.231,1.159-0.348,2.869-0.348,5.13
	c0,2.261,0.116,3.971,0.348,5.131c0.231,1.159,0.783,2.203,1.683,3.102c1.506,1.506,3.36,2.26,5.563,2.26
	C276.422,45.645,279.379,43.325,280.075,39.122z"/>
<polygon id="XMLID_1003_" fill="#005A8B" points="297.227,41.875 287.661,41.875 287.661,36.861 295.807,36.861 295.807,33.267
	287.661,33.267 287.661,28.426 297.227,28.426 297.227,24.832 283.631,24.832 283.631,45.471 297.227,45.471 "/>
<path id="XMLID_1002_" fill="#005A8B" d="M146.156,55.246c1.447,0,2.267,0.863,2.591,2.181h3.044
	c-0.518-3.131-2.699-4.856-5.657-4.856c-1.641,0-3.022,0.561-4.146,1.684c-0.669,0.67-1.079,1.426-1.252,2.311
	c-0.173,0.863-0.259,2.138-0.259,3.821c0,1.685,0.086,2.958,0.259,3.821c0.173,0.863,0.583,1.641,1.252,2.311
	c1.123,1.123,2.505,1.685,4.146,1.685c2.937,0,5.139-1.728,5.657-4.856h-3.044c-0.324,1.315-1.144,2.18-2.591,2.18
	c-0.82,0-1.468-0.26-1.921-0.799c-0.626-0.668-0.756-1.359-0.756-4.34c0-2.979,0.13-3.671,0.756-4.34
	C144.688,55.505,145.335,55.246,146.156,55.246z"/>
<path id="XMLID_994_" fill="#005A8B" d="M159.077,52.568c-1.75,0-3.089,0.604-4.168,1.685c-1.555,1.556-1.512,3.478-1.512,6.132
	c0,2.655-0.043,4.577,1.512,6.133c1.079,1.078,2.418,1.684,4.168,1.684c1.748,0,3.064-0.604,4.146-1.684
	c1.554-1.556,1.532-3.478,1.532-6.133c0-2.654,0.021-4.576-1.532-6.132C162.142,53.173,160.825,52.568,159.077,52.568z
	 M160.997,64.702c-0.432,0.497-1.101,0.819-1.92,0.819c-0.82,0-1.513-0.322-1.943-0.819c-0.584-0.646-0.734-1.359-0.734-4.317
	s0.15-3.671,0.734-4.318c0.432-0.496,1.123-0.819,1.943-0.819c0.819,0,1.488,0.323,1.92,0.819c0.584,0.647,0.756,1.36,0.756,4.318
	S161.581,64.057,160.997,64.702z"/>
<polygon id="XMLID_992_" fill="#005A8B" points="175.02,61.011 171.004,52.698 168.045,52.698 168.045,68.07 171.047,68.07
	171.047,59.109 174.004,64.939 176.034,64.939 178.97,59.109 178.97,68.07 181.971,68.07 181.971,52.698 179.014,52.698 "/>
<polygon id="XMLID_991_" fill="#005A8B" points="192.754,61.011 188.738,52.698 185.782,52.698 185.782,68.07 188.782,68.07
	188.782,59.109 191.741,64.939 193.77,64.939 196.706,59.109 196.706,68.07 199.708,68.07 199.708,52.698 196.749,52.698 "/>
<rect id="XMLID_866_" x="203.517" y="52.698" fill="#005A8B" width="3.001" height="15.372"/>
<path id="XMLID_865_" fill="#005A8B" d="M216.131,59.089l-1.813-0.259c-0.626-0.087-1.123-0.323-1.426-0.604
	c-0.324-0.304-0.453-0.713-0.453-1.102c0-1.059,0.777-1.943,2.375-1.943c1.016,0,2.182,0.129,3.152,1.059l1.9-1.879
	c-1.318-1.273-2.851-1.791-4.968-1.791c-3.323,0-5.354,1.921-5.354,4.662c0,1.297,0.367,2.289,1.103,3.022
	c0.69,0.67,1.662,1.08,2.979,1.272l1.856,0.261c0.712,0.106,1.058,0.26,1.358,0.539c0.324,0.303,0.476,0.756,0.476,1.297
	c0,1.229-0.948,1.897-2.719,1.897c-1.427,0-2.742-0.322-3.716-1.295l-1.941,1.943c1.512,1.533,3.281,2.029,5.613,2.029
	c3.218,0,5.699-1.684,5.699-4.664c0-1.359-0.366-2.482-1.188-3.26C218.42,59.672,217.536,59.284,216.131,59.089z"/>
<path id="XMLID_864_" fill="#005A8B" d="M228.986,59.089l-1.813-0.259c-0.627-0.087-1.123-0.323-1.426-0.604
	c-0.324-0.304-0.453-0.713-0.453-1.102c0-1.059,0.777-1.943,2.375-1.943c1.016,0,2.182,0.129,3.152,1.059l1.899-1.879
	c-1.317-1.273-2.851-1.791-4.966-1.791c-3.324,0-5.354,1.921-5.354,4.662c0,1.297,0.366,2.289,1.101,3.022
	c0.69,0.67,1.662,1.08,2.979,1.272l1.856,0.261c0.711,0.106,1.058,0.26,1.359,0.539c0.324,0.303,0.475,0.756,0.475,1.297
	c0,1.229-0.949,1.897-2.721,1.897c-1.424,0-2.742-0.322-3.713-1.295l-1.943,1.943c1.513,1.533,3.281,2.029,5.613,2.029
	c3.217,0,5.7-1.684,5.7-4.664c0-1.359-0.366-2.482-1.187-3.26C231.275,59.672,230.39,59.284,228.986,59.089z"/>
<rect id="XMLID_863_" x="236.163" y="52.698" fill="#005A8B" width="3.002" height="15.372"/>
<path id="XMLID_860_" fill="#005A8B" d="M248.131,52.568c-1.75,0-3.088,0.604-4.168,1.685c-1.555,1.556-1.512,3.478-1.512,6.132
	c0,2.655-0.043,4.577,1.512,6.133c1.08,1.078,2.418,1.684,4.168,1.684c1.748,0,3.064-0.604,4.146-1.684
	c1.554-1.556,1.532-3.478,1.532-6.133c0-2.654,0.021-4.576-1.532-6.132C251.196,53.173,249.879,52.568,248.131,52.568z
	 M250.053,64.702c-0.434,0.497-1.102,0.819-1.922,0.819s-1.512-0.322-1.943-0.819c-0.583-0.646-0.734-1.359-0.734-4.317
	s0.151-3.671,0.734-4.318c0.432-0.496,1.123-0.819,1.943-0.819s1.488,0.323,1.922,0.819c0.582,0.647,0.755,1.36,0.755,4.318
	S250.635,64.057,250.053,64.702z"/>
<polygon id="XMLID_859_" fill="#005A8B" points="265.866,62.111 259.777,52.698 257.1,52.698 257.1,68.07 260.101,68.07
	260.101,58.636 266.189,68.07 268.866,68.07 268.866,52.698 265.866,52.698 "/>
<polygon id="XMLID_858_" fill="#005A8B" points="272.676,68.07 282.803,68.07 282.803,65.395 275.676,65.395 275.676,61.658
	281.745,61.658 281.745,58.98 275.676,58.98 275.676,55.376 282.803,55.376 282.803,52.698 272.676,52.698 "/>
<path id="XMLID_855_" fill="#005A8B" d="M294.168,61.441c1.488-0.539,2.807-1.877,2.807-4.037c0-2.568-1.857-4.706-4.988-4.706
	h-6.023V68.07h3.002v-6.133h2.158l3.002,6.133h3.476L294.168,61.441z M291.793,59.436h-2.83v-4.06h2.83
	c1.315,0,2.18,0.842,2.18,2.028C293.973,58.592,293.109,59.436,291.793,59.436z"/>
<path id="XMLID_852_" fill="#005A8B" d="M145.178,4.421c-1.396,0-2.534,0.496-3.434,1.396c-1.285,1.285-1.266,2.736-1.266,5.25
	c0,2.516-0.019,3.966,1.266,5.251c0.9,0.9,2.039,1.396,3.434,1.396s2.552-0.496,3.451-1.396c1.286-1.285,1.249-2.735,1.249-5.251
	c0-2.515,0.037-3.965-1.249-5.25C147.729,4.917,146.573,4.421,145.178,4.421z M147.124,15.125c-0.459,0.496-1.175,0.808-1.946,0.808
	c-0.772,0-1.487-0.312-1.947-0.808c-0.642-0.697-0.771-1.432-0.771-4.058c0-2.625,0.129-3.359,0.771-4.057
	c0.459-0.496,1.175-0.808,1.947-0.808c0.771,0,1.487,0.312,1.946,0.808c0.643,0.698,0.771,1.432,0.771,4.057
	C147.895,13.693,147.766,14.428,147.124,15.125z"/>
<polygon id="XMLID_851_" fill="#005A8B" points="155.717,12.078 161.151,12.078 161.151,10.297 155.717,10.297 155.717,6.313
	162.088,6.313 162.088,4.532 153.734,4.532 153.734,17.604 155.717,17.604 "/>
<polygon id="XMLID_850_" fill="#005A8B" points="172.811,10.297 167.375,10.297 167.375,6.313 173.747,6.313 173.747,4.532
	165.393,4.532 165.393,17.604 167.375,17.604 167.375,12.078 172.811,12.078 "/>
<rect id="XMLID_849_" x="177.051" y="4.532" fill="#005A8B" width="1.982" height="13.072"/>
<path id="XMLID_848_" fill="#005A8B" d="M187.59,17.714c2.369,0,4.223-1.414,4.664-4.021h-2.002c-0.313,1.322-1.211,2.24-2.662,2.24
	c-0.771,0-1.469-0.294-1.928-0.79c-0.644-0.698-0.789-1.451-0.789-4.076s0.146-3.378,0.789-4.076
	c0.459-0.496,1.155-0.789,1.928-0.789c1.451,0,2.332,0.918,2.645,2.24h2.02c-0.459-2.607-2.258-4.021-4.664-4.021
	c-1.357,0-2.532,0.496-3.432,1.396c-1.287,1.285-1.268,2.736-1.268,5.25c0,2.516-0.02,3.966,1.268,5.251
	C185.057,17.218,186.231,17.714,187.59,17.714z"/>
<polygon id="XMLID_847_" fill="#005A8B" points="204.17,15.823 197.799,15.823 197.799,11.894 203.233,11.894 203.233,10.131
	197.799,10.131 197.799,6.313 204.17,6.313 204.17,4.532 195.816,4.532 195.816,17.604 204.17,17.604 "/>
<path id="XMLID_844_" fill="#005A8B" d="M216.344,17.714c1.267,0,2.185-0.478,2.791-1.102c0.881-0.917,1.102-2.093,1.102-3.672
	c0-1.561-0.221-2.736-1.102-3.654c-0.606-0.624-1.524-1.102-2.791-1.102c-1.268,0-2.166,0.478-2.772,1.102
	c-0.882,0.918-1.103,2.093-1.103,3.654c0,1.579,0.221,2.754,1.103,3.672C214.178,17.236,215.077,17.714,216.344,17.714z
	 M214.984,10.389c0.351-0.349,0.81-0.533,1.358-0.533c0.551,0,1.027,0.184,1.378,0.533c0.567,0.569,0.643,1.542,0.643,2.552
	c0,1.01-0.073,1.983-0.643,2.552c-0.351,0.349-0.826,0.551-1.378,0.551c-0.551,0-1.01-0.202-1.358-0.551
	c-0.567-0.569-0.644-1.542-0.644-2.552C214.342,11.93,214.417,10.958,214.984,10.389z"/>
<path id="XMLID_843_" fill="#005A8B" d="M223.981,17.604h1.873V9.893h1.854V8.46h-1.854V7.12c0-0.68,0.329-1.083,1.027-1.083h0.826
	V4.44h-1.176c-1.744,0-2.552,1.249-2.552,2.588V8.46h-1.065v1.432h1.065L223.981,17.604L223.981,17.604z"/>
<path id="XMLID_842_" fill="#005A8B" d="M236.172,15.015c0,1.34,0.809,2.589,2.553,2.589h1.12v-1.598h-0.771
	c-0.697,0-1.029-0.404-1.029-1.083v-5.03h1.801V8.46h-1.801V5.633h-1.873V8.46h-1.063v1.432h1.063V15.015L236.172,15.015z"/>
<path id="XMLID_841_" fill="#005A8B" d="M248.786,17.604h1.873V11.6c0-2.02-1.156-3.415-3.23-3.415
	c-0.918,0-1.764,0.349-2.405,1.047v-4.7h-1.873v13.072h1.873v-5.71c0-1.395,0.845-2.038,1.892-2.038s1.873,0.624,1.873,2.038v5.71
	H248.786z"/>
<path id="XMLID_838_" fill="#005A8B" d="M258.168,17.714c1.635,0,2.535-0.496,3.488-1.45l-1.193-1.12
	c-0.66,0.661-1.211,0.955-2.258,0.955c-1.523,0-2.369-1.009-2.369-2.607h6.041v-0.826c0-2.644-1.449-4.48-3.947-4.48
	c-2.387,0-3.947,1.744-3.947,4.755C253.982,16.484,255.836,17.714,258.168,17.714z M256.077,10.921
	c0.293-0.698,0.973-1.175,1.854-1.175s1.543,0.477,1.836,1.175c0.184,0.422,0.238,0.697,0.258,1.267h-4.188
	C255.855,11.618,255.893,11.343,256.077,10.921z"/>
<g id="XMLID_1025_">
	<polygon id="XMLID_1050_" fill="#4C8B2B" stroke="#4C8B2B" stroke-width="0.5" stroke-miterlimit="10" points="147.011,81.346
		145.612,76.365 144.761,76.365 143.362,81.346 142.149,76.365 141.034,76.365 142.853,83.33 143.772,83.33 145.181,78.448
		146.6,83.33 147.52,83.33 149.339,76.365 148.224,76.365 	"/>
	<path id="XMLID_1047_" fill="#4C8B2B" stroke="#4C8B2B" stroke-width="0.5" stroke-miterlimit="10" d="M156.133,76.365
		l-2.553,6.965h1.125l0.479-1.398h2.749l0.479,1.398h1.125l-2.554-6.965H156.133z M155.497,81.031l1.086-3.092l1.057,3.092H155.497z
		"/>
	<path id="XMLID_1046_" fill="#4C8B2B" stroke="#4C8B2B" stroke-width="0.5" stroke-miterlimit="10" d="M167.221,79.396
		l-0.793-0.117c-0.322-0.049-0.605-0.165-0.782-0.321c-0.187-0.167-0.265-0.392-0.265-0.646c0-0.615,0.451-1.086,1.271-1.086
		c0.588,0,1.088,0.127,1.518,0.539l0.675-0.666c-0.597-0.558-1.242-0.793-2.161-0.793c-1.448,0-2.328,0.832-2.328,2.045
		c0,0.567,0.166,1.008,0.51,1.33c0.303,0.284,0.752,0.479,1.319,0.559l0.821,0.117c0.41,0.059,0.586,0.127,0.764,0.293
		c0.186,0.166,0.273,0.422,0.273,0.725c0,0.675-0.528,1.066-1.438,1.066c-0.714,0-1.271-0.156-1.779-0.666l-0.705,0.695
		c0.666,0.674,1.418,0.92,2.465,0.92c1.459,0,2.504-0.765,2.504-2.045c0-0.599-0.187-1.097-0.566-1.43
		C168.229,79.652,167.866,79.495,167.221,79.396z"/>
	<polygon id="XMLID_1045_" fill="#4C8B2B" stroke="#4C8B2B" stroke-width="0.5" stroke-miterlimit="10" points="178.602,79.339
		175.774,79.339 175.774,76.365 174.719,76.365 174.719,83.33 175.774,83.33 175.774,80.288 178.602,80.288 178.602,83.33
		179.659,83.33 179.659,76.365 178.602,76.365 	"/>

		<rect id="XMLID_1044_" x="185.689" y="76.365" fill="#4C8B2B" stroke="#4C8B2B" stroke-width="0.5" stroke-miterlimit="10" width="1.056" height="6.965"/>
	<polygon id="XMLID_1043_" fill="#4C8B2B" stroke="#4C8B2B" stroke-width="0.5" stroke-miterlimit="10" points="196.961,81.257
		193.743,76.365 192.773,76.365 192.773,83.33 193.831,83.33 193.831,78.43 197.049,83.33 198.018,83.33 198.018,76.365
		196.961,76.365 	"/>
	<path id="XMLID_1042_" fill="#4C8B2B" stroke="#4C8B2B" stroke-width="0.5" stroke-miterlimit="10" d="M206.297,80.464h1.488v0.392
		c0,0.451-0.1,0.803-0.354,1.097c-0.272,0.313-0.675,0.489-1.136,0.489c-0.409,0-0.78-0.156-1.026-0.422
		c-0.342-0.371-0.42-0.771-0.42-2.172c0-1.399,0.078-1.789,0.42-2.16c0.246-0.266,0.617-0.433,1.026-0.433
		c0.783,0,1.293,0.45,1.47,1.213h1.065c-0.197-1.192-1.058-2.161-2.535-2.161c-0.741,0-1.35,0.266-1.828,0.743
		c-0.686,0.687-0.676,1.458-0.676,2.798c0,1.342-0.01,2.112,0.676,2.799c0.479,0.479,1.105,0.744,1.828,0.744
		c0.734,0,1.391-0.236,1.918-0.793c0.459-0.49,0.627-1.066,0.627-1.968v-1.065h-2.545v0.899H206.297z"/>
	<polygon id="XMLID_1041_" fill="#4C8B2B" stroke="#4C8B2B" stroke-width="0.5" stroke-miterlimit="10" points="213.795,77.314
		215.711,77.314 215.711,83.33 216.77,83.33 216.77,77.314 218.686,77.314 218.686,76.365 213.795,76.365 	"/>
	<path id="XMLID_1038_" fill="#4C8B2B" stroke="#4C8B2B" stroke-width="0.5" stroke-miterlimit="10" d="M226.154,76.307
		c-0.743,0-1.351,0.266-1.829,0.743c-0.686,0.687-0.676,1.458-0.676,2.798c0,1.342-0.01,2.112,0.676,2.799
		c0.479,0.479,1.086,0.744,1.829,0.744s1.359-0.267,1.839-0.744c0.686-0.687,0.666-1.457,0.666-2.799c0-1.34,0.02-2.111-0.666-2.798
		C227.514,76.57,226.897,76.307,226.154,76.307z M227.19,82.01c-0.244,0.264-0.626,0.432-1.036,0.432
		c-0.411,0-0.793-0.168-1.036-0.432c-0.344-0.371-0.412-0.763-0.412-2.162c0-1.398,0.068-1.789,0.412-2.16
		c0.243-0.266,0.625-0.433,1.036-0.433c0.41,0,0.792,0.167,1.036,0.433c0.344,0.371,0.411,0.762,0.411,2.16
		C227.601,81.247,227.534,81.639,227.19,82.01z"/>
	<polygon id="XMLID_1037_" fill="#4C8B2B" stroke="#4C8B2B" stroke-width="0.5" stroke-miterlimit="10" points="238.622,81.257
		235.402,76.365 234.434,76.365 234.434,83.33 235.491,83.33 235.491,78.43 238.709,83.33 239.678,83.33 239.678,76.365
		238.622,76.365 	"/>
	<path id="XMLID_1036_" fill="#4C8B2B" stroke="#4C8B2B" stroke-width="0.5" stroke-miterlimit="10" d="M257.036,79.396
		l-0.793-0.117c-0.324-0.049-0.606-0.165-0.783-0.321c-0.187-0.167-0.265-0.392-0.265-0.646c0-0.615,0.449-1.086,1.271-1.086
		c0.589,0,1.086,0.127,1.518,0.539l0.676-0.666c-0.598-0.558-1.242-0.793-2.162-0.793c-1.447,0-2.328,0.832-2.328,2.045
		c0,0.567,0.166,1.008,0.508,1.33c0.305,0.284,0.754,0.479,1.322,0.559l0.819,0.117c0.412,0.059,0.589,0.127,0.765,0.293
		c0.186,0.166,0.272,0.422,0.272,0.725c0,0.675-0.526,1.066-1.438,1.066c-0.713,0-1.271-0.156-1.779-0.666l-0.704,0.695
		c0.665,0.674,1.418,0.92,2.465,0.92c1.457,0,2.504-0.765,2.504-2.045c0-0.599-0.187-1.097-0.565-1.43
		C258.042,79.652,257.68,79.495,257.036,79.396z"/>
	<polygon id="XMLID_1035_" fill="#4C8B2B" stroke="#4C8B2B" stroke-width="0.5" stroke-miterlimit="10" points="263.917,77.314
		265.833,77.314 265.833,83.33 266.89,83.33 266.89,77.314 268.807,77.314 268.807,76.365 263.917,76.365 	"/>
	<path id="XMLID_1032_" fill="#4C8B2B" stroke="#4C8B2B" stroke-width="0.5" stroke-miterlimit="10" d="M275.354,76.365
		l-2.555,6.965h1.125l0.48-1.398h2.748l0.479,1.398h1.125l-2.553-6.965H275.354z M274.719,81.031l1.086-3.092l1.057,3.092H274.719z"
		/>
	<polygon id="XMLID_1031_" fill="#4C8B2B" stroke="#4C8B2B" stroke-width="0.5" stroke-miterlimit="10" points="282.754,77.314
		284.672,77.314 284.672,83.33 285.729,83.33 285.729,77.314 287.646,77.314 287.646,76.365 282.754,76.365 	"/>
	<polygon id="XMLID_1026_" fill="#4C8B2B" stroke="#4C8B2B" stroke-width="0.5" stroke-miterlimit="10" points="297.51,77.314
		297.51,76.365 293.059,76.365 293.059,83.33 297.51,83.33 297.51,82.382 294.116,82.382 294.116,80.288 297.01,80.288
		297.01,79.35 294.116,79.35 294.116,77.314 	"/>
</g>
</svg>
