<?xml version="1.0" encoding="UTF-8"?><svg id="Logo" xmlns="http://www.w3.org/2000/svg" viewBox="0 0 400 46.943"><path d="m69.303,19.016c0-1.307-.716-1.36-1.271-1.36h-.322v-.537c.573,0,1.683.072,2.775.072,1.074,0,1.933-.072,2.882-.072,2.256,0,4.261.609,4.261,3.151,0,1.611-1.074,2.596-2.488,3.151l3.061,4.583c.501.752.859.967,1.737,1.074v.537c-.591,0-1.164-.072-1.755-.072-.555,0-1.128.072-1.683.072-1.379-1.808-2.56-3.742-3.724-5.801h-1.182v3.831c0,1.379.645,1.432,1.468,1.432h.322v.537c-1.021,0-2.059-.072-3.079-.072-.859,0-1.701.072-2.596.072v-.537h.322c.662,0,1.271-.304,1.271-.967v-9.094Zm2.292,4.153h.877c1.79,0,2.757-.68,2.757-2.793,0-1.593-1.02-2.614-2.614-2.614-.537,0-.77.054-1.02.071v5.335Z" style="stroke-width:0px;"/><path d="m83.428,29.078h.251c.645,0,1.325-.09,1.325-1.021v-9.381c0-.931-.68-1.02-1.325-1.02h-.251v-.537c1.092,0,2.954.072,4.458.072s3.366-.072,4.583-.072c-.036.77-.018,1.951.036,2.739l-.537.143c-.09-1.164-.304-2.095-2.184-2.095h-2.488v4.69h2.131c1.074,0,1.307-.609,1.414-1.575h.537c-.036.698-.054,1.396-.054,2.095,0,.68.018,1.36.054,2.041l-.537.107c-.107-1.074-.161-1.772-1.396-1.772h-2.148v4.171c0,1.164,1.038,1.164,2.184,1.164,2.148,0,3.097-.144,3.634-2.184l.501.125c-.233.949-.448,1.898-.609,2.847-1.146,0-3.205-.072-4.816-.072s-3.742.072-4.762.072v-.537Z" style="stroke-width:0px;"/><path d="m104.407,19.768c-.125-1.164-.877-2.274-2.112-2.274-1.414,0-2.202.842-2.202,2.256,0,2.972,5.371,2.077,5.371,6.374,0,2.471-2.041,3.76-4.333,3.76-1.003,0-1.969-.358-2.846-.806-.09-.913-.215-1.808-.305-2.721l.501-.107c.215,1.521,1.074,2.847,2.775,2.847,1.217,0,2.202-.77,2.202-2.041,0-3.169-5.263-2.184-5.263-6.499,0-2.327,1.647-3.706,3.957-3.706.501,0,2.023.197,2.578.268,0,.842.071,1.701.179,2.56l-.501.09Z" style="stroke-width:0px;"/><path d="m110.117,29.078h.251c.645,0,1.325-.09,1.325-1.021v-9.381c0-.931-.68-1.02-1.325-1.02h-.251v-.537c1.092,0,2.954.072,4.458.072s3.366-.072,4.583-.072c-.036.77-.018,1.951.036,2.739l-.537.143c-.09-1.164-.304-2.095-2.184-2.095h-2.488v4.69h2.131c1.074,0,1.307-.609,1.414-1.575h.537c-.036.698-.054,1.396-.054,2.095,0,.68.018,1.36.054,2.041l-.537.107c-.107-1.074-.161-1.772-1.396-1.772h-2.148v4.171c0,1.164,1.038,1.164,2.184,1.164,2.148,0,3.097-.144,3.634-2.184l.501.125c-.233.949-.448,1.898-.609,2.847-1.146,0-3.205-.072-4.816-.072s-3.742.072-4.762.072v-.537Z" style="stroke-width:0px;"/><path d="m126.121,19.016c0-1.307-.716-1.36-1.271-1.36h-.322v-.537c.573,0,1.683.072,2.775.072,1.074,0,1.933-.072,2.882-.072,2.256,0,4.261.609,4.261,3.151,0,1.611-1.074,2.596-2.488,3.151l3.061,4.583c.501.752.859.967,1.737,1.074v.537c-.591,0-1.164-.072-1.755-.072-.555,0-1.128.072-1.683.072-1.379-1.808-2.56-3.742-3.724-5.801h-1.182v3.831c0,1.379.644,1.432,1.468,1.432h.322v.537c-1.02,0-2.059-.072-3.079-.072-.859,0-1.701.072-2.596.072v-.537h.322c.662,0,1.271-.304,1.271-.967v-9.094Zm2.292,4.153h.877c1.79,0,2.757-.68,2.757-2.793,0-1.593-1.02-2.614-2.614-2.614-.537,0-.77.054-1.02.071v5.335Z" style="stroke-width:0px;"/><path d="m143.577,17.656h-.412c-.662,0-.931.268-.931.501,0,.09.071.34.161.573l3.061,7.967h.036l2.847-7.447c.215-.555.232-.877.232-1.003,0-.519-.537-.591-1.146-.591h-.304v-.537c.627,0,1.307.072,2.077.072.555,0,1.128-.072,1.647-.072v.537h-.179c-.322,0-.662.054-.949.627-.143.251-2.757,6.857-3.921,9.828-.232.591-.519,1.181-.734,1.773h-.662l-4.547-11.207c-.34-.842-.716-1.02-1.504-1.02h-.179v-.537c.913,0,1.844.072,2.757.072.877,0,2.131-.072,2.65-.072v.537Z" style="stroke-width:0px;"/><path d="m153.817,29.078h.251c.645,0,1.325-.09,1.325-1.021v-9.381c0-.931-.68-1.02-1.325-1.02h-.251v-.537c1.092,0,2.954.072,4.458.072s3.366-.072,4.583-.072c-.036.77-.018,1.951.036,2.739l-.537.143c-.09-1.164-.304-2.095-2.184-2.095h-2.488v4.69h2.13c1.074,0,1.307-.609,1.414-1.575h.537c-.036.698-.054,1.396-.054,2.095,0,.68.018,1.36.054,2.041l-.537.107c-.107-1.074-.161-1.772-1.396-1.772h-2.148v4.171c0,1.164,1.038,1.164,2.184,1.164,2.148,0,3.097-.144,3.634-2.184l.501.125c-.233.949-.448,1.898-.609,2.847-1.146,0-3.205-.072-4.816-.072s-3.742.072-4.762.072v-.537Z" style="stroke-width:0px;"/><path d="m175.817,29.078h.251c.645,0,1.325-.09,1.325-1.021v-9.381c0-.931-.68-1.02-1.325-1.02h-.251v-.537c.788,0,1.79.072,2.793.072,1.02,0,2.041-.072,2.864-.072,3.008,0,4.135,1.253,4.135,2.811,0,1.826-1.683,2.614-3.258,2.9v.036c1.951-.054,3.992,1.038,3.992,3.205,0,1.933-1.898,3.545-4.225,3.545-.895,0-2.023-.072-3.133-.072s-2.399.072-3.169.072v-.537Zm3.867-6.481h.877c1.521,0,2.649-.644,2.649-2.327,0-2.059-1.235-2.506-2.453-2.506h-1.074v4.834Zm0,4.852c0,1.253.233,1.521,1.611,1.521,1.522,0,2.649-1.235,2.649-2.829,0-1.987-1.325-2.9-3.115-2.9h-1.146v4.207Z" style="stroke-width:0px;"/><path d="m191.84,27.055c-.179.609-.394,1.074-.394,1.397,0,.537.752.627,1.343.627h.197v.537c-.716-.036-1.45-.072-2.166-.072-.645,0-1.289.036-1.933.072v-.537h.107c.698,0,1.289-.412,1.557-1.164l2.864-8.217c.233-.662.555-1.557.662-2.22.573-.197,1.289-.555,1.629-.77.054-.018.09-.036.143-.036s.09,0,.125.054c.054.143.107.304.161.447l3.294,9.363c.215.627.43,1.289.662,1.826.215.501.591.716,1.182.716h.107v.537c-.806-.036-1.611-.072-2.47-.072-.877,0-1.773.036-2.686.072v-.537h.197c.412,0,1.11-.072,1.11-.519,0-.233-.161-.716-.358-1.289l-.698-2.077h-4.064l-.573,1.862Zm2.614-7.931h-.036l-1.665,5.066h3.348l-1.647-5.066Z" style="stroke-width:0px;"/><path d="m215.436,26.088l.036-.036v-6.713c0-1.468-1.021-1.683-1.557-1.683h-.394v-.537c.842,0,1.665.072,2.506.072.734,0,1.468-.072,2.202-.072v.537h-.269c-.752,0-1.593.143-1.593,2.273v8.146c0,.627.018,1.253.107,1.808h-.68l-9.22-10.276v7.376c0,1.558.304,2.095,1.683,2.095h.304v.537c-.77,0-1.539-.072-2.31-.072-.805,0-1.629.072-2.434.072v-.537h.251c1.235,0,1.611-.842,1.611-2.274v-7.537c0-1.003-.823-1.611-1.629-1.611h-.233v-.537c.68,0,1.379.072,2.059.072.538,0,1.057-.072,1.593-.072l7.967,8.969Z" style="stroke-width:0px;"/><path d="m221.502,29.078h.25c.645,0,1.325-.09,1.325-1.021v-9.381c0-.931-.68-1.02-1.325-1.02h-.25v-.537c.716,0,1.79.072,2.703.072.967,0,2.112-.072,2.847-.072v.537h-.215c-.537,0-1.468.018-1.468,1.02v9.381c0,1.003.931,1.021,1.468,1.021h.215v.537c-.734,0-1.88-.072-2.847-.072-.913,0-1.987.072-2.703.072v-.537Zm7.268-11.959c.77,0,1.522.072,2.292.072.805,0,1.593-.072,2.399-.072v.537h-.233c-1.181,0-2.148.805-2.882,1.593l-2.828,3.061,4.601,5.783c.376.537.949.985,1.629.985v.537c-.591,0-1.218-.036-1.826-.036-.573,0-1.128.036-1.701.036-.161-.34-.68-1.056-.931-1.343l-3.867-4.834,3.759-4.189c.232-.233.788-.842.788-1.218,0-.358-.77-.376-1.002-.376h-.197v-.537Z" style="stroke-width:0px;"/><path d="m249.9,16.85c3.813,0,6.857,2.363,6.857,6.176,0,4.118-2.954,6.857-6.767,6.857s-6.696-2.578-6.696-6.427c0-3.724,2.882-6.606,6.606-6.606Zm.269,12.246c3.473,0,4.081-3.062,4.081-5.675s-1.414-5.782-4.386-5.782c-3.133,0-4.064,2.793-4.064,5.192,0,3.205,1.468,6.266,4.368,6.266Z" style="stroke-width:0px;"/><path d="m263.58,22.597h2.506c.878,0,1.146-.555,1.146-1.45h.537c-.036.644-.072,1.271-.072,1.916,0,.734.018,1.45.072,2.184h-.537c0-1.002-.286-1.754-1.432-1.754h-2.22v4.565c0,1.003.824,1.021,1.719,1.021h.233v.537c-.841,0-2.058-.072-3.079-.072-.931,0-2.023.072-2.739.072v-.537h.25c.645,0,1.325-.09,1.325-1.021v-9.381c0-.931-.68-1.02-1.325-1.02h-.25v-.537c1.092,0,2.953.072,4.457.072s3.366-.072,4.583-.072c-.036.77-.018,1.951.036,2.739l-.537.143c-.107-1.235-.394-2.095-1.808-2.095h-2.864v4.69Z" style="stroke-width:0px;"/><path d="m281.738,27.055c-.179.609-.394,1.074-.394,1.397,0,.537.752.627,1.343.627h.197v.537c-.716-.036-1.45-.072-2.166-.072-.645,0-1.289.036-1.934.072v-.537h.107c.699,0,1.289-.412,1.558-1.164l2.864-8.217c.232-.662.554-1.557.662-2.22.573-.197,1.289-.555,1.629-.77.053-.018.09-.036.143-.036.054,0,.09,0,.126.054.053.143.107.304.161.447l3.294,9.363c.215.627.429,1.289.662,1.826.215.501.591.716,1.181.716h.107v.537c-.805-.036-1.611-.072-2.471-.072-.877,0-1.772.036-2.685.072v-.537h.197c.412,0,1.11-.072,1.11-.519,0-.233-.161-.716-.358-1.289l-.698-2.077h-4.064l-.573,1.862Zm2.614-7.931h-.036l-1.665,5.066h3.348l-1.647-5.066Z" style="stroke-width:0px;"/><path d="m294.716,18.963c0-1.289-.662-1.307-1.378-1.307h-.215v-.537c.77,0,1.719.072,2.847.072,1.074,0,1.97-.072,2.685-.072v.537h-.215c-.716,0-1.432.018-1.432,1.307v6.176c0,2.274.842,3.849,3.402,3.849,2.363,0,3.401-1.504,3.401-3.921v-6.105c0-1.289-.68-1.307-1.289-1.307h-.358v-.537c.716,0,1.45.072,2.166.072.698,0,1.378-.072,2.077-.072v.537h-.376c-.484,0-1.146.018-1.146,1.307v5.711c0,4.046-2.149,5.21-4.816,5.21-3.437,0-5.353-1.253-5.353-4.458v-6.463Z" style="stroke-width:0px;"/><path d="m316.036,19.768c-.125-1.164-.877-2.274-2.112-2.274-1.414,0-2.202.842-2.202,2.256,0,2.972,5.371,2.077,5.371,6.374,0,2.471-2.041,3.76-4.332,3.76-1.003,0-1.969-.358-2.847-.806-.09-.913-.215-1.808-.304-2.721l.501-.107c.215,1.521,1.074,2.847,2.775,2.847,1.217,0,2.202-.77,2.202-2.041,0-3.169-5.263-2.184-5.263-6.499,0-2.327,1.647-3.706,3.956-3.706.502,0,2.023.197,2.578.268,0,.842.072,1.701.179,2.56l-.501.09Z" style="stroke-width:0px;"/><path d="m322.588,18.014c-1.343,0-1.396.322-1.665,1.629h-.537c.072-.501.161-1.003.215-1.522.071-.501.107-1.003.107-1.522h.429c.144.537.591.519,1.075.519h9.237c.483,0,.931-.018.967-.555l.43.071c-.072.483-.144.967-.197,1.45-.036.484-.036.967-.036,1.45l-.537.197c-.036-.662-.125-1.719-1.325-1.719h-2.936v9.524c0,1.379.627,1.54,1.486,1.54h.34v.537c-.698,0-1.951-.072-2.918-.072-1.074,0-2.328.072-3.026.072v-.537h.34c.984,0,1.486-.09,1.486-1.504v-9.56h-2.936Z" style="stroke-width:0px;"/><path d="m337.59,19.016c0-1.307-.716-1.36-1.271-1.36h-.323v-.537c.573,0,1.683.072,2.775.072,1.075,0,1.934-.072,2.883-.072,2.255,0,4.26.609,4.26,3.151,0,1.611-1.074,2.596-2.488,3.151l3.061,4.583c.501.752.859.967,1.736,1.074v.537c-.591,0-1.164-.072-1.754-.072-.555,0-1.128.072-1.683.072-1.378-1.808-2.56-3.742-3.724-5.801h-1.181v3.831c0,1.379.645,1.432,1.468,1.432h.323v.537c-1.021,0-2.059-.072-3.08-.072-.859,0-1.7.072-2.596.072v-.537h.323c.662,0,1.271-.304,1.271-.967v-9.094Zm2.292,4.153h.877c1.79,0,2.757-.68,2.757-2.793,0-1.593-1.021-2.614-2.614-2.614-.537,0-.77.054-1.021.071v5.335Z" style="stroke-width:0px;"/><path d="m353.113,27.055c-.179.609-.394,1.074-.394,1.397,0,.537.752.627,1.343.627h.197v.537c-.716-.036-1.45-.072-2.166-.072-.645,0-1.289.036-1.934.072v-.537h.107c.699,0,1.289-.412,1.558-1.164l2.864-8.217c.232-.662.554-1.557.662-2.22.573-.197,1.289-.555,1.629-.77.053-.018.09-.036.143-.036.054,0,.09,0,.126.054.053.143.107.304.161.447l3.294,9.363c.215.627.429,1.289.662,1.826.215.501.591.716,1.181.716h.107v.537c-.805-.036-1.611-.072-2.471-.072-.877,0-1.772.036-2.685.072v-.537h.197c.412,0,1.11-.072,1.11-.519,0-.233-.161-.716-.358-1.289l-.698-2.077h-4.064l-.573,1.862Zm2.614-7.931h-.036l-1.665,5.066h3.348l-1.647-5.066Z" style="stroke-width:0px;"/><path d="m369.312,27.86c0,.716.501.931,1.074,1.003.734.054,1.54.054,2.363-.036.752-.09,1.397-.519,1.719-.967.286-.394.448-.895.555-1.289h.519c-.197,1.021-.447,2.023-.662,3.044-1.575,0-3.151-.072-4.726-.072s-3.151.072-4.727.072v-.537h.251c.645,0,1.343-.09,1.343-1.199v-9.202c0-.931-.698-1.02-1.343-1.02h-.251v-.537c.949,0,1.88.072,2.829.072.913,0,1.808-.072,2.721-.072v.537h-.447c-.68,0-1.218.018-1.218.967v9.238Z" style="stroke-width:0px;"/><path d="m378.713,29.078h.072c.645,0,1.325-.09,1.325-1.021v-9.381c0-.931-.68-1.02-1.325-1.02h-.072v-.537c.698,0,1.594.072,2.471.072.896,0,1.97-.072,2.811-.072v.537h-.251c-.645,0-1.325.089-1.325,1.02v9.381c0,.931.68,1.021,1.325,1.021h.251v.537c-.859,0-1.933-.072-2.829-.072-.877,0-1.755.072-2.453.072v-.537Z" style="stroke-width:0px;"/><path d="m390.458,27.055c-.179.609-.394,1.074-.394,1.397,0,.537.752.627,1.343.627h.197v.537c-.716-.036-1.45-.072-2.166-.072-.644,0-1.289.036-1.933.072v-.537h.107c.699,0,1.289-.412,1.558-1.164l2.864-8.217c.232-.662.555-1.557.662-2.22.573-.197,1.289-.555,1.629-.77.053-.018.09-.036.143-.036.054,0,.09,0,.125.054.054.143.108.304.161.447l3.294,9.363c.215.627.429,1.289.662,1.826.215.501.591.716,1.181.716h.107v.537c-.805-.036-1.611-.072-2.471-.072-.877,0-1.772.036-2.685.072v-.537h.197c.412,0,1.11-.072,1.11-.519,0-.233-.161-.716-.358-1.289l-.698-2.077h-4.064l-.573,1.862Zm2.614-7.931h-.036l-1.665,5.066h3.348l-1.647-5.066Z" style="stroke-width:0px;"/><path d="m9.818,0h33.871l.116.232c-31.372,14.35-9.586,42.47,8.947,10.806l.116.116-9.179,35.788h-.233c-2.033-27.132-31.256-26.435-33.348-.348h-.29L0,13.885l.348-.058C23.355,40.726,37.705,15.745,9.76.174l.058-.174Z" style="stroke-width:0px;"/></svg>