<?xml version="1.0" encoding="utf-8"?>
<!-- Generator: Adobe Illustrator 16.0.0, SVG Export Plug-In . SVG Version: 6.00 Build 0)  -->
<!DOCTYPE svg PUBLIC "-//W3C//DTD SVG 1.1//EN" "http://www.w3.org/Graphics/SVG/1.1/DTD/svg11.dtd">
<svg version="1.1" id="Layer_1" xmlns="http://www.w3.org/2000/svg" xmlns:xlink="http://www.w3.org/1999/xlink" x="0px" y="0px"
	 width="166.599px" height="50.95px" viewBox="53.405 161.858 166.599 50.95" enable-background="new 53.405 161.858 166.599 50.95"
	 xml:space="preserve">
<title>AFA_Logo_Complet</title>
<g id="Layer_2">
	<g id="Primer_plano">
		<path fill="#FFFFFF" d="M68.077,201.357h14.386l-8.604,11.451h-11.52l-8.934-11.549l19.818-39.401h14.726
			c21.971,50.944,21.966,50.95,21.966,50.95H95.194L80,177.619L68.077,201.357z"/>
		<path fill="#FFFFFF" d="M184.623,198.673l-2.133-5.629h-1.166l-2.133,5.629h1.242l0.438-1.157h2.064l0.428,1.157H184.623z
			 M182.652,196.561h-1.477l0.734-2.25L182.652,196.561z"/>
		<path fill="#FFFFFF" d="M189.203,198.673v-2.57c0-0.985-0.402-1.626-1.334-1.626c-0.547,0.006-1.061,0.262-1.393,0.695v-0.615
			h-1.178v4.116h1.205v-2.339c0.041-0.428,0.398-0.758,0.828-0.764c0.457,0,0.65,0.305,0.65,0.744v2.373L189.203,198.673z"/>
		<path fill="#FFFFFF" d="M194.236,198.673v-5.629h-1.217v2.034c-0.285-0.387-0.74-0.611-1.221-0.602
			c-1.143,0-1.781,1.04-1.781,2.133c0,1.094,0.639,2.128,1.781,2.128c0.475-0.021,0.914-0.244,1.207-0.615v0.551H194.236z
			 M193.02,196.609c0,0.72-0.373,1.202-0.896,1.202c-0.52,0-0.881-0.552-0.881-1.202s0.297-1.191,0.881-1.191
			c0.588,0,0.893,0.473,0.893,1.191H193.02z"/>
		<path fill="#FFFFFF" d="M199.389,196.609c0.012-1.186-0.941-2.156-2.127-2.166c-1.188-0.012-2.156,0.941-2.168,2.127
			c-0.01,1.187,0.943,2.156,2.129,2.167c0.006,0,0.012,0,0.018,0c1.17,0.017,2.133-0.919,2.148-2.088
			C199.389,196.637,199.389,196.623,199.389,196.609z M198.172,196.609c0,0.72-0.344,1.202-0.932,1.202
			c-0.584,0-0.93-0.492-0.93-1.202c0-0.709,0.346-1.201,0.93-1.201C197.828,195.408,198.172,195.891,198.172,196.609z"/>
		<path fill="#FFFFFF" d="M202.865,194.507c-0.09-0.014-0.18-0.022-0.27-0.024c-0.506,0.011-0.957,0.314-1.158,0.777v-0.703h-1.182
			v4.116h1.217v-1.847c0-0.719,0.389-1.275,1.072-1.275h0.314L202.865,194.507z"/>
		<path fill="#FFFFFF" d="M206.277,194.507c-0.088-0.014-0.178-0.022-0.27-0.024c-0.506,0.011-0.957,0.314-1.156,0.777v-0.703
			h-1.184v4.116h1.217v-1.847c0-0.719,0.391-1.275,1.074-1.275h0.314L206.277,194.507z"/>
		<path fill="#FFFFFF" d="M210.516,198.673v-2.639c0-1.089-0.779-1.558-2.01-1.558c-0.496,0.004-0.992,0.053-1.479,0.145
			l0.094,0.876c0.418-0.054,0.842-0.082,1.266-0.085c0.719,0,0.922,0.154,0.922,0.577v0.306h-1.184
			c-0.846,0-1.334,0.423-1.334,1.216c0.023,0.704,0.615,1.255,1.318,1.23c0.023-0.001,0.045-0.001,0.064-0.004
			c0.455,0.038,0.896-0.146,1.193-0.492v0.438L210.516,198.673z M209.309,197.16c0.021,0.393-0.277,0.729-0.668,0.751
			c-0.031,0.001-0.064,0.001-0.096-0.001c-0.381,0-0.568-0.143-0.568-0.424c0-0.28,0.213-0.438,0.568-0.438h0.744L209.309,197.16z"
			/>
		<path fill="#FFFFFF" d="M215.439,198.673v-2.57c0-0.985-0.404-1.626-1.334-1.626c-0.547,0.006-1.061,0.262-1.395,0.695v-0.615
			h-1.178v4.116h1.207v-2.339c0.041-0.428,0.396-0.758,0.828-0.764c0.457,0,0.648,0.305,0.648,0.744v2.373L215.439,198.673z"/>
		<path fill="#FFFFFF" d="M220.004,198.673v-2.639c0-1.089-0.777-1.558-2.008-1.558c-0.496,0.004-0.99,0.053-1.479,0.145
			l0.094,0.876c0.42-0.054,0.842-0.082,1.266-0.085c0.719,0,0.92,0.154,0.92,0.577v0.306h-1.182c-0.848,0-1.334,0.423-1.334,1.216
			c0.025,0.704,0.615,1.255,1.32,1.23c0.021-0.001,0.041-0.001,0.064-0.004c0.453,0.038,0.896-0.146,1.191-0.492v0.438
			L220.004,198.673z M218.797,197.16c0.027,0.393-0.27,0.729-0.662,0.754c-0.027,0.003-0.053,0.003-0.08,0
			c-0.379,0-0.566-0.143-0.566-0.422c0-0.281,0.211-0.439,0.566-0.439h0.742V197.16z"/>
		<polygon fill="#FFFFFF" points="184.199,185.682 184.199,184.588 179.865,184.588 179.865,190.217 181.131,190.217 
			181.131,187.862 183.898,187.862 183.898,186.77 181.131,186.77 181.131,185.682 		"/>
		<path fill="#FFFFFF" d="M186.307,190.217v-4.112h-1.217v4.118L186.307,190.217z M186.307,185.415v-1.034h-1.217v1.039
			L186.307,185.415z"/>
		<path fill="#FFFFFF" d="M191.395,190.217v-2.565c0-0.985-0.402-1.62-1.334-1.62c-0.547,0.006-1.061,0.262-1.393,0.694v-0.621
			h-1.174v4.118h1.207v-2.36c0.043-0.426,0.398-0.753,0.828-0.758c0.457,0,0.65,0.306,0.65,0.744v2.374L191.395,190.217z"/>
		<path fill="#FFFFFF" d="M195.965,190.217v-2.635c0-1.088-0.777-1.557-2.008-1.557c-0.496,0.004-0.992,0.052-1.479,0.144
			l0.094,0.876c0.42-0.053,0.842-0.082,1.266-0.084c0.719,0,0.922,0.153,0.922,0.576v0.307h-1.184c-0.846,0-1.334,0.423-1.334,1.217
			c0.025,0.703,0.615,1.254,1.318,1.23c0.025-0.002,0.047-0.003,0.07-0.006c0.453,0.038,0.898-0.145,1.191-0.492v0.439
			L195.965,190.217z M194.754,188.705c0.014,0.391-0.293,0.721-0.684,0.734c-0.018,0.001-0.037,0.001-0.055,0
			c-0.381,0-0.566-0.143-0.566-0.424s0.211-0.438,0.566-0.438h0.738V188.705z"/>
		<path fill="#FFFFFF" d="M200.887,190.217v-2.565c0-0.985-0.404-1.62-1.336-1.62c-0.547,0.004-1.061,0.26-1.395,0.694v-0.621
			h-1.176v4.118h1.221v-2.36c0.043-0.426,0.398-0.753,0.828-0.758c0.457,0,0.648,0.306,0.648,0.744v2.374L200.887,190.217z"/>
		<path fill="#FFFFFF" d="M205.121,190.074l-0.193-0.862c-0.254,0.083-0.521,0.126-0.793,0.128c-0.65,0.008-1.186-0.516-1.193-1.169
			c-0.006-0.653,0.518-1.188,1.172-1.194l0,0c0.268-0.002,0.535,0.039,0.793,0.118l0.191-0.862c-0.344-0.148-0.717-0.221-1.09-0.211
			c-1.176-0.099-2.209,0.775-2.307,1.951c-0.1,1.178,0.775,2.21,1.951,2.309c0.119,0.01,0.236,0.01,0.355,0
			C204.389,190.285,204.768,190.214,205.121,190.074z"/>
		<path fill="#FFFFFF" d="M209.805,188.514v-0.32c0-1.32-0.758-2.162-1.969-2.162c-1.121-0.008-2.035,0.896-2.041,2.016
			c0,0.039,0,0.078,0,0.116c0,1.285,0.848,2.133,2.375,2.133c0.473,0.013,0.941-0.065,1.385-0.227l-0.213-0.861
			c-0.377,0.104-0.766,0.159-1.158,0.163c-0.826,0-1.215-0.355-1.215-0.848L209.805,188.514z M208.662,187.76h-1.664
			c0.01-0.461,0.391-0.826,0.852-0.818c0.438-0.011,0.803,0.336,0.813,0.773C208.662,187.73,208.662,187.745,208.662,187.76z"/>
		<path fill="#FFFFFF" d="M213.332,186.051c-0.092-0.014-0.182-0.022-0.271-0.025c-0.504,0.012-0.957,0.314-1.158,0.779v-0.7h-1.182
			v4.118h1.217v-1.838c0-0.719,0.389-1.275,1.074-1.275h0.316L213.332,186.051z"/>
		<path fill="#FFFFFF" d="M217.561,190.217v-2.635c0-1.088-0.777-1.557-2.008-1.557c-0.496,0.004-0.99,0.052-1.479,0.144
			l0.096,0.876c0.42-0.049,0.844-0.071,1.27-0.068c0.719,0,0.922,0.152,0.922,0.576v0.306h-1.184c-0.848,0-1.334,0.424-1.334,1.216
			c0.025,0.705,0.615,1.256,1.32,1.23c0.021,0,0.041-0.002,0.064-0.004c0.453,0.037,0.896-0.146,1.191-0.492v0.438L217.561,190.217z
			 M216.355,188.705c0.014,0.391-0.293,0.721-0.684,0.734c-0.02,0.001-0.039,0.001-0.061,0c-0.379,0-0.566-0.143-0.566-0.424
			s0.211-0.438,0.566-0.438h0.744V188.705z"/>
		<path fill="#FFFFFF" d="M184.623,181.766l-2.127-5.625h-1.168l-2.137,5.625h1.242l0.438-1.157h2.064l0.428,1.157H184.623z
			 M182.652,179.652h-1.477l0.734-2.25L182.652,179.652z"/>
		<path fill="#FFFFFF" d="M189.174,181.766v-4.117h-1.217v2.359c-0.041,0.426-0.398,0.752-0.828,0.754
			c-0.457,0-0.648-0.296-0.648-0.734v-2.379h-1.217v2.57c0,0.985,0.414,1.615,1.344,1.615c0.545,0,1.059-0.254,1.391-0.684v0.615
			H189.174z"/>
		<path fill="#FFFFFF" d="M192.482,181.775l-0.107-0.887l-0.227,0.025c-0.25,0-0.492-0.074-0.492-0.469v-2.019h0.709v-0.778h-0.709
			v-1.147h-1.207v1.147h-0.531v0.778h0.531v2.122c0,0.912,0.615,1.285,1.418,1.285C192.074,181.834,192.281,181.814,192.482,181.775
			z"/>
		<path fill="#FFFFFF" d="M197.389,179.702c0.008-1.187-0.945-2.153-2.131-2.162c-1.188-0.009-2.156,0.946-2.164,2.132
			c-0.008,1.187,0.947,2.154,2.133,2.162c0.008,0,0.014,0,0.02,0c1.17,0.014,2.129-0.922,2.143-2.092
			C197.389,179.729,197.389,179.715,197.389,179.702z M196.172,179.702c0,0.72-0.344,1.202-0.93,1.202s-0.932-0.493-0.932-1.202
			c0-0.71,0.346-1.202,0.932-1.202S196.172,178.983,196.172,179.702z"/>
		<path fill="#FFFFFF" d="M200.861,177.619c-0.09-0.006-0.18-0.006-0.271,0c-0.504,0.01-0.957,0.314-1.158,0.777v-0.748h-1.182
			v4.117h1.219v-1.832c0-0.719,0.387-1.275,1.072-1.275h0.314L200.861,177.619z"/>
		<path fill="#FFFFFF" d="M202.881,181.766v-4.117h-1.232v4.117H202.881z M202.881,176.964v-1.039h-1.232v1.039H202.881z"/>
		<path fill="#FFFFFF" d="M206.195,181.775l-0.109-0.887l-0.227,0.025c-0.256,0-0.492-0.074-0.492-0.469v-2.019h0.715v-0.778h-0.709
			v-1.147h-1.207v1.147h-0.547v0.778h0.531v2.122c0,0.912,0.615,1.285,1.42,1.285C205.779,181.834,205.988,181.814,206.195,181.775z
			"/>
		<path fill="#FFFFFF" d="M210.559,181.766v-2.635c0-1.094-0.777-1.557-2.01-1.557c-0.494,0.004-0.99,0.051-1.479,0.143l0.096,0.882
			c0.42-0.054,0.842-0.082,1.266-0.083c0.719,0,0.92,0.152,0.92,0.576v0.305h-1.182c-0.848,0-1.336,0.424-1.336,1.217
			c0.027,0.704,0.617,1.255,1.32,1.23c0.023-0.001,0.043-0.002,0.064-0.004c0.453,0.037,0.898-0.146,1.193-0.492v0.438
			L210.559,181.766z M209.352,180.254c0.025,0.391-0.271,0.729-0.662,0.753c-0.027,0.001-0.055,0.002-0.082,0.001
			c-0.379,0-0.566-0.143-0.566-0.424s0.213-0.438,0.566-0.438h0.744V180.254z"/>
		<path fill="#FFFFFF" d="M213.701,181.775l-0.109-0.887l-0.227,0.025c-0.25,0-0.492-0.074-0.492-0.469v-2.019h0.709v-0.778h-0.709
			v-1.147h-1.211v1.147h-0.531v0.778h0.531v2.122c0,0.912,0.615,1.285,1.418,1.285C213.289,181.834,213.496,181.814,213.701,181.775
			z"/>
		<path fill="#FFFFFF" d="M131.334,198.496l-8.446-22.325h-4.625l-8.48,22.325h4.925l1.739-4.595h8.245l1.708,4.59L131.334,198.496z
			 M123.454,190.123h-5.797l2.916-8.914L123.454,190.123z"/>
		<polygon fill="#FFFFFF" points="152.305,180.495 152.305,176.171 135.112,176.171 135.112,198.496 140.135,198.496 
			140.135,189.144 146.469,189.144 149.552,184.819 140.135,184.819 140.135,180.495 		"/>
		<path fill="#FFFFFF" d="M173.281,198.496l-8.447-22.325h-4.626l-8.48,22.325h4.925l1.745-4.591h8.244l1.709,4.591H173.281z
			 M165.4,190.123h-5.797l2.916-8.914L165.4,190.123z"/>
	</g>
</g>
</svg>
