<svg id="Layer_1" data-name="Layer 1" xmlns="http://www.w3.org/2000/svg" width="41.6278mm" height="42.3333mm" viewBox="0 0 118 120"><defs><style>.cls-1{fill:#004d6b;}</style></defs><path class="cls-1" d="M47.6146,48.26,47.2288,35.7a3.462,3.462,0,0,1-.455-.1l-.0121,12.6513c.2594.0049.5462.0084.8529.0091"/><path class="cls-1" d="M87.0652,35.3577l3.98-5.2939c-.2162-.2693-.4395-.5307-.6663-.7872l-3.63,5.4339a4.3268,4.3268,0,0,1,.3165.6472"/><path class="cls-1" d="M88.6533,90.93c-5.35,5.2261-13.5974,7.8646-27.4781,8.7747V93.05h2.13v-.0212h.3667V84.2766h-.7179c.2057-.21.6953-.725.713-1.0917l.0049-.7328H61.1752V76.7893h5.9963l1.197,1.084L70.9123,76.27A1.7018,1.7018,0,0,0,71.4338,77.3v.5625h.0007V77.87l-3.0236,2.2831-2.1735-1.9679v.9885l2.1311,1.9291,3.066-2.3106v2.01L68.3869,83.36l-2.15-1.946v.9886l2.1311,1.93,3.7988-3.1882V77.862h1.0034c.23.0049.5193.0049.7334.0042V82.125l-5.4564,4.5195-2.21-2.0012v.9893l2.1891,1.982,6.21-5.1448V76.1011l.6932-.4381a3.9347,3.9347,0,0,0,4.1944.0021l.68.436V82.47l6.21,5.1448,2.1891-1.982v-.9893l-2.21,2.0012L80.9378,82.125V77.8662c.2134.0007.5031.0007.7334-.0042h1.0041v3.2822l3.8,3.1882,2.13-1.93v-.9886l-2.15,1.946-3.0476-2.5579v-2.01l3.0667,2.3106,2.13-1.9291v-.9885l-2.1735,1.9679L83.4081,77.87v-.5709a1.7018,1.7018,0,0,0,.5215-1.0295l2.5452,1.604,1.197-1.084h8.2087c-1.3976,6.1878-3.7655,10.76-7.2272,14.1408M57.5722,92.3172l-1.5122-2.62V83.1849h1.5418v1.0917H57.599v.7328h5.3392v1.2768H58.2017V87.02h4.7365v1.2768H58.2017V89.03h4.7365v1.2768H58.2017V91.04h4.7365v1.2776Zm3.603-9.1323h1.7114c-.0247.4126-.5928.8981-.9674,1.0917h-.744ZM57.5941,63.7431a3.4728,3.4728,0,0,0-1.1356-.8917v-.1937a5.8151,5.8151,0,0,1,2.9113-1.074h.0367a5.81,5.81,0,0,1,2.9113,1.074v.1937a3.48,3.48,0,0,0-1.1356.8917,3.2421,3.2421,0,0,0-.862,1.9778V84.2766H58.4561V65.7209a3.2421,3.2421,0,0,0-.862-1.9778M81.2084,68.41V66.913h1.4669v7.088l-2.9494-1.8626-.0374-.0311s.154-.1717-.0184-.667-.5-1.4479-.5808-1.8047a7.2791,7.2791,0,0,1-.159-1.2147c-.0177-.2961-.0156-1.1115-.0134-1.5079h1.4365V68.41Zm-3.9443,6.0316h.313l1.3984.8741a3.4362,3.4362,0,0,1-3.0914-.0021Zm-5.0438.3915,3.5945-2.27a.4593.4593,0,0,1,.2438-.0841c.1767-.0007.51-.0028.63.0014a.2824.2824,0,0,1,.2586.2735c.0014.1116.0042.5115.0028.7483a.495.495,0,0,1-.1929.37c-.219.1689-.5638.3788-.7115.472l-.16.1011-1.9814,1.2514v1.4316h-.7454l-.0552-.0014c-1.49-.0438-1.49-.8981-1.49-1.2634a1.3153,1.3153,0,0,1,.607-1.031M74.4885,68.41V66.913H75.925c.0022.3964.0043,1.2118-.0134,1.5079a7.2791,7.2791,0,0,1-.159,1.2147c-.0812.3568-.41,1.3086-.5815,1.8047s-.0184.667-.0184.667l-.0367.0311L72.1666,74.001V66.913h1.4669V68.41Zm4.4679,6.0359-.16-.1011c-.1477-.0932-.4932-.3031-.7115-.472a.4979.4979,0,0,1-.1936-.37c-.0008-.2368.0021-.6367.0028-.7483a.283.283,0,0,1,.2586-.2735c.1194-.0042.4536-.0021.63-.0014a.4593.4593,0,0,1,.2438.0841l3.5945,2.27a1.3172,1.3172,0,0,1,.607,1.031c0,.3653,0,1.22-1.49,1.2634l-.0552.0014h-.7454V75.6976ZM77.1319,62.6514H77.71L83.2986,66.18H78.1855v.51s-.0007,1.1468-.0007,1.42a9.58,9.58,0,0,0,.1731,1.5983,11.791,11.791,0,0,0,.3491,1.173,2.5528,2.5528,0,0,1,.159.6473c0,.325-.2735.3731-.9045.3731,0,0-.1109.2049-.52.2049h-.0409c-.41,0-.52-.2049-.52-.2049-.631,0-.9045-.0481-.9045-.3731a2.562,2.562,0,0,1,.1583-.6473,11.4276,11.4276,0,0,0,.3491-1.173,9.5806,9.5806,0,0,0,.1738-1.5983c0-.1979,0-.85-.0007-1.1977V66.18H71.5433ZM29.2991,90.93c-4.6566-4.5485-7.3339-11.25-8.3324-21.1433h9.557a5.25,5.25,0,0,0,3.4249,1.8965l-.0826.2926H27.2831a4.9374,4.9374,0,0,0,4.9,4.8141,4.7421,4.7421,0,0,0,.5787-.0381l2.565,7.088a2.24,2.24,0,0,0-.985,2.0322,4.249,4.249,0,0,0,.1385,1.2938c.0883.2686,1.3334,4.0779,1.3334,4.0779l.0021-.0007h2.4025l.0007.0007v-.0007H38.22v-.0007l1.3157-1.4252h3.1353l1.3164,1.4252v.0007l.0007.0007v-.0007h2.4025l.0021.0007s1.2458-3.8093,1.3334-4.0779a4.2257,4.2257,0,0,0,.1385-1.2938A2.2407,2.2407,0,0,0,46.88,83.84l2.3509-6.4987,2.0032,4.94L48.28,98.8251c-8.926-1.3405-14.8269-3.8376-18.9811-7.895m2.7162-28.2787a7.14,7.14,0,0,1,3.8956-1.3037v.489a3.8033,3.8033,0,0,0-3.4525,3.579,3.0681,3.0681,0,0,0,2.3622,3.1712l-.6317,2.2421a4.4442,4.4442,0,0,1-3.9867-4.2517,4.6714,4.6714,0,0,1,1.8131-3.9259m.7123,13.3663a3.95,3.95,0,0,1-.5441.04,4.1915,4.1915,0,0,1-4.0729-3.3487H33.66Zm3-7.3085a5.4534,5.4534,0,0,0,10.7518,0c.0594-.0021.12-.0028.1781-.0071l2.1545,7.6463-2.8392,7.8462.5462.2629c.7568.4445.6713,1.9206.5314,2.4173-.0608.2968-1.1886,3.6356-1.1886,3.6356H44.3083L42.9905,89.083l-.0014.0014H39.2179l-.0015-.0014L37.8986,90.51H36.3455s-1.1278-3.3388-1.1886-3.6356c-.1392-.4967-.2254-1.9728.5314-2.4173l.5469-.2629-2.8391-7.8462L35.55,68.7021c.058.0043.118.005.1774.0071m14.022-3.2935a3.8034,3.8034,0,0,0-3.4532-3.579v-.489a7.1378,7.1378,0,0,1,3.8956,1.3037,4.672,4.672,0,0,1,1.8139,3.9259A4.4451,4.4451,0,0,1,48.018,70.829l-.6317-2.2421a3.0679,3.0679,0,0,0,2.3629-3.1712m4.3478,7.2929a4.1929,4.1929,0,0,1-4.0736,3.3487,3.94,3.94,0,0,1-.5434-.04l-.932-3.3091ZM20.6233,54.6327l4.99.3328A16.3858,16.3858,0,0,0,25.5,58.0414H20.5251q.0243-1.7573.0982-3.4087m.3611-4.9837,5.4091,2.3622a11.9584,11.9584,0,0,0-.6586,2.2308l-5.0544-.7427q.1134-2.0022.3039-3.85m.8557-5.7434,5.8225,5.7978a11.3938,11.3938,0,0,0-1.0387,1.7792l-5.5024-3.0582q.2883-2.3869.7186-4.5188m1.9418-6.7079L29.3613,47.821a12.2164,12.2164,0,0,0-1.3652,1.44L22.11,42.645a37.3606,37.3606,0,0,1,1.6719-5.4473m3.2737-5.9468c.3229,1.13,3.0215,10.57,4.3478,15.0939a12.8281,12.8281,0,0,0-1.616,1.1144L24.3592,35.8453a24.8234,24.8234,0,0,1,2.6964-4.5944m2.2435-2.5657a21.6863,21.6863,0,0,1,2.0866-1.7906L33.79,45.234a15.08,15.08,0,0,0-1.8811.8282L27.9679,30.1111c.4253-.496.867-.9737,1.3312-1.4259m7.0937-4.699-.05,20.6013a13.17,13.17,0,0,0-1.9877.4558L32.4909,26.111a26.0348,26.0348,0,0,1,3.9019-2.1248m1.2027-.5053c4.97-1.958,11.4189-3.0985,19.9562-3.6108.0056,2.594.0487,21.4719.0487,21.5256,0,.058-.1116.0912-.1576-.0078-.0367-.0777-4.1075-8.9923-4.1075-8.9923a18.2576,18.2576,0,0,0-1.373-2.6731,3.7647,3.7647,0,0,0-2.98-1.3525c-1.1681.017-4.5082.1547-4.79.1547-1.0267,0-5.4656-.22-5.4656,3.9974a5.837,5.837,0,0,0,.6182,2.9918c1.238-3.697,5.3244-2.8251,5.554-.41l-3.0328.0057-.0014.6607,3.0342.0077c.0156,1.15-1.99,3.184-4.1775.8282-.643,1.4118.1088,5.2551,3.7529,4.1817.0466,5.3449-.0022,17.2534-.0022,17.2534h-.137l-7.4336-13.485ZM26.2635,58.0414a13.4064,13.4064,0,0,1,.766-5.7031l3.4447,1.2274c.0615-.1582.1385-.3342.2346-.5243l.0057-.0141L27.32,51.6593a11.3989,11.3989,0,0,1,2.5459-3.3656l3.05,2.1545q.2289-.1813.484-.3618l-2.9551-2.28A13.36,13.36,0,0,1,36.3483,45.31l7.0124,12.7317ZM82.8188,35.7555a1.31,1.31,0,1,1-1.31,1.31,1.31,1.31,0,0,1,1.31-1.31M98.2887,59.8h0c.0007-12.659-1.8231-21.4493-5.6812-27.5474l-5.2325,4.97a4.7353,4.7353,0,0,1-.113.9242l5.2854-4.3577c3.1855,5.6353,4.7322,13.437,4.8806,24.2531H81.4409c-4.7,0-12.9247-3.4193-12.9247-11.9382,0-5.9716,3.2356-6.76,4.528-6.76a3.2458,3.2458,0,0,1,2.5537,1.238c1.3454-2.647,2.9381-2.0965,4.8834-1.6549l-1.6132-3.1713h2.3848a2.0422,2.0422,0,1,0,1.5772-.732v-.0007H77.6732l1.4528,2.8589a3.44,3.44,0,0,0-3.7161,1.573,3.9781,3.9781,0,0,0-2.3615-.8437,4.7588,4.7588,0,0,0-3.8178,1.9855,9.161,9.161,0,0,0-1.4472,5.4848c0,9.2156,9.003,12.7671,13.6836,12.7671h15.97c.0021.3151.0035.631.0035.9511A80.4953,80.4953,0,0,1,96.065,75.9442h-7.46V74.955l-2.21,2.0011-2.49-1.5694a1.7622,1.7622,0,0,0-.4967-.8487v-1.83l3.066,1.9361,2.13-1.93v-.9886l-2.21,2.0012-2.9861-1.886V69.4787l3.0653,1.9361,2.1311-1.93v-.9885l-2.21,2.0011-2.9861-1.8859V66.25l3.066,1.9354,2.13-1.9291v-.9892l-2.21,2.0018-8.4723-5.35v-.0007H76.92v.0007l-8.4723,5.35-2.21-2.0018v.9892l2.1311,1.9291L71.4338,66.25v2.3622l-2.9861,1.8859-2.21-2.0011v.9885l2.1311,1.93,3.0653-1.9361v2.3622l-2.9861,1.886-2.21-2.0012v.9886l2.1311,1.93,3.0653-1.9361v1.83a1.7668,1.7668,0,0,0-.4974.85l-2.4887,1.568-2.21-2.0011v.9892H61.1752V65.72a2.6569,2.6569,0,0,1,2.4964-2.3834V62.66a6.9425,6.9425,0,0,0-4.2354-1.9213s-.0657-.0007-.05-.0007-.0459.0007-.0459.0007A6.9425,6.9425,0,0,0,55.1054,62.66v.6769A2.6576,2.6576,0,0,1,57.6018,65.72V82.4521H55.3272v7.4428l1.8217,3.155h.4529v6.7079l-.0162-.0014c-3.13-.1865-5.9808-.4586-8.58-.8239L51.9927,82.202v-.0007l-2.1975-5.419c.0756.0042.1512.0077.2282.0077a4.9375,4.9375,0,0,0,4.9011-4.8141H48.341l-.082-.2926a5.0162,5.0162,0,0,0,4.4792-5.106c0-4.0383-3.2123-5.9878-7.1742-5.9878V62.52c.02,0,.0395-.0022.06-.0022a3.1105,3.1105,0,0,1,3.3218,2.8979A2.2614,2.2614,0,0,1,46.56,67.862c0-.0255.0035-.05.0035-.0757v-.8451h-.732s-.0007.5561-.0007.8444a4.7269,4.7269,0,1,1-9.4538,0c0-.2883-.0008-.8444-.0008-.8444h-.7327v.8451c0,.0255.0035.05.0042.0757a2.2621,2.2621,0,0,1-2.3862-2.4463,3.1112,3.1112,0,0,1,3.3225-2.8979c.02,0,.04.0022.0594.0022V60.59c-3.962,0-7.1743,1.95-7.1743,5.9878a5.6322,5.6322,0,0,0,.5335,2.3637H20.8855c-.2509-2.7912-.3738-5.8268-.3738-9.1352,0-.3158.0028-.6253.0049-.9362l37.9409.02v-.848s-8.8757.0036-13.1373,0l.0014-18.673c-1.5885,1.7093-4.109.9943-4.109-1.4725a2.7992,2.7992,0,0,0,4.3542-2.4612,2.942,2.942,0,0,0-1.0041-2.3184,3.2266,3.2266,0,0,0-2.0259-.7617,3.6578,3.6578,0,0,0-2.8646,1.2005c-.09.1152-.2537-.0113-.2614-.1081a5.62,5.62,0,0,1,.2953-2.365c.9292-2.0909,3.4907-1.8259,5.0106-1.8521l.0212,2.8081.3519-.0035.342-2.8046c.9-.0529,2.5106-.1264,3.1812-.1264a3.7141,3.7141,0,0,1,3.2815,2.093l2.92,6.0719,3.1367,6.8329a6.2087,6.2087,0,0,0,.5045-2.182L58.47,19.844c.1434-.0014.3073-.0021.4974-.0021,1.0705,0,1.3645.0233,1.3765.024,13.3939.8013,21.6464,3.14,27.1213,7.7452l-2.305,5.5441a4.759,4.759,0,0,1,.5427.37l2.9451-6.0027c-6.1772-5.6049-15.4579-7.7375-28.2306-8.5013,0,0-.2869-.0269-1.45-.0269s-1.4323.0269-1.4323.0269C31.1561,20.5987,19.6623,28.0026,19.6637,59.8v.0063c-.0014,31.7963,11.4924,39.22,37.8717,40.7971,0,0,.1887.0191.9236.0248V99.78h-.0029V93.05H60.32c.0007,4.1542.0007,7.0838.0007,7.0838h.0021v.4749c.0678-.0029.0947-.0057.0947-.0057,26.3786-1.5771,37.8724-9.0008,37.871-40.7971V59.8"/><path class="cls-1" d="M39.2622,90.5821c.0007.3745,0,.6939-.0049,1.0323l3.4292.0007v-.7327H39.5442Z"/><path class="cls-1" d="M38.8293,75.4005l-.18,1.2861h-1.864a.388.388,0,0,1-.3244-.2155c-.0445-.1-.48-1.0706-.48-1.0706Zm4.5633,0h2.8491s-.4353.9709-.48,1.0706a.388.388,0,0,1-.3244.2155h-1.864Zm-8.5182,0h.3031s.5137,1.1455.6155,1.3709a.9868.9868,0,0,0,.891.6472h1.8626s-.7412,5.2975-.8182,5.8345a1.4487,1.4487,0,0,1-.6628.8812,8.231,8.231,0,0,0,8.0907,0,1.4486,1.4486,0,0,1-.6621-.8812c-.077-.537-.8182-5.8345-.8182-5.8345h1.8619a.987.987,0,0,0,.8917-.6472c.1018-.2254.6148-1.3709.6148-1.3709h.3031l.3265-.732H42.55s1.1984,8.5437,1.2161,8.6666a1.4413,1.4413,0,0,0,.2063.5476,8.2139,8.2139,0,0,1-2.8342.5816h-.0544a8.2112,8.2112,0,0,1-2.8342-.5816,1.4541,1.4541,0,0,0,.2063-.5476c.017-.1229,1.2154-8.6666,1.2154-8.6666h-5.123Z"/><path class="cls-1" d="M38.7179,85.8721H36v.7327h2.1347s.0954.03.0056.1025c-.0791.0643-1.1948.9624-1.4506,1.1687l.65.4176c.4671-.3752,1.46-1.1729,1.6408-1.3213a.6512.6512,0,0,0,.2381-.6014.5487.5487,0,0,0-.5-.4988"/><path class="cls-1" d="M42.9893,86.3708a.6527.6527,0,0,0,.2382.602c.1809.1477,1.1729.9455,1.6407,1.3214l.65-.4183c-.2565-.2063-1.3722-1.1045-1.4514-1.168-.09-.0721.0064-.1025.0064-.1025H46.208v-.7335H43.49a.5488.5488,0,0,0-.5.4989"/><path class="cls-1" d="M50.9845,48.0823l-2.211-12.48a3.6388,3.6388,0,0,1-.4331.0953l1.7941,12.4718c.28-.0226.5639-.0516.85-.0869"/><path class="cls-1" d="M54.4352,47.25,50.1,34.8831a3.6749,3.6749,0,0,1-.3724.2806l3.9034,12.3692c.2727-.0847.542-.178.8041-.2833"/><path class="cls-1" d="M57.0739,45.4727,51.1976,33.2108a3.5535,3.5535,0,0,1-.2282.56L56.43,46.09a5.7009,5.7009,0,0,0,.6438-.6168"/><path class="cls-1" d="M30.3034,51.2442l6.4725,3.372a4.505,4.505,0,0,1,.347-.3328L30.78,50.6592c-.1653.1872-.3243.3815-.4769.585"/><path class="cls-1" d="M33.8736,48.2511l5.0021,5.118c.1647-.0459.3286-.0827.4925-.1131l-4.81-5.35c-.2268.1075-.4558.2219-.6847.3456"/><path class="cls-1" d="M28.6073,55.2771l7.1085,1.1355q.0784-.2216.1675-.4232l-7.1284-1.4366c-.0565.2346-.1067.4763-.1476.7243"/><path class="cls-1" d="M65.2065,39.0191a9.8512,9.8512,0,0,1,.2749-.9674l-3.1183,1.609L62.3673,42l.7321-.4854-.0029-1.4Z"/><path class="cls-1" d="M66.5905,35.8258l-3.4151.4261a10.8548,10.8548,0,0,0-.8063,2.4442l.8494-.4388a12.4376,12.4376,0,0,1,.4586-1.3369l2.4166-.2876a8.667,8.667,0,0,1,.4968-.807"/><path class="cls-1" d="M67.7547,34.4739a8.4835,8.4835,0,0,1,.6939-.5851l-3.2094-.7525a12.7739,12.7739,0,0,0-1.5072,2.0513l.9313-.118A11.4172,11.4172,0,0,1,65.5,33.9538Z"/><path class="cls-1" d="M68.1175,31.6846l2.05,1.1978c.2791-.1244.5646-.2389.8621-.3378l-2.9261-1.7227a11.6724,11.6724,0,0,0-2.1559,1.5948l.8847.2063a11.2843,11.2843,0,0,1,1.2853-.9384"/><path class="cls-1" d="M71.559,30.2947l1.1736,1.8443c.2693-.0417.5434-.0749.8239-.0982L71.8741,29.485A11.2608,11.2608,0,0,0,69,30.36l.7964.4706a10.8071,10.8071,0,0,1,1.7623-.5357"/><path class="cls-1" d="M75.3706,30.1667l.1159,1.8662q.3646.0243.7391.0685l-.1611-2.5685a12.4055,12.4055,0,0,0-3.2433-.1632l.4621.7052a11.24,11.24,0,0,1,2.0873.0918"/><path class="cls-1" d="M78.8547,31.2362l-.0092,1.4q.3678.105.7419.2283V30.7868a11.933,11.933,0,0,0-2.6554-1.0606l.0466.7836a11.563,11.563,0,0,1,1.8761.7264"/><path class="cls-1" d="M73.8173,27.42c-8.87.0643-13.4971,7.7911-13.4971,12.6328V58.8894l14.71-.0014a18.3265,18.3265,0,0,1-1.7828-.8465H63.0909l.0085-.0056-.0029-1.3984L64.98,55.386l-.02-.86-2.5961,1.715.0028,1.8H62.36l-1.185.0007c.02-3.91,0-18.2744,0-18.2744A12.8274,12.8274,0,0,1,73.8173,28.2747a12.4248,12.4248,0,0,1,9.5979,4.2835,4.5116,4.5116,0,0,1,1.4005.4155A13.8479,13.8479,0,0,0,73.8173,27.42"/><path class="cls-1" d="M41.1032,70.0278A2.1707,2.1707,0,0,1,38.9346,67.86c0-.0629.0057-.1251.0106-.1865h4.3153c.0057.0614.0106.1236.0106.1865a2.17,2.17,0,0,1-2.1679,2.1679m2.8887-3.0865h-5.79V67.86a2.9014,2.9014,0,1,0,5.8027,0c0-.0876-.0127-.9186-.0127-.9186"/><path class="cls-1" d="M77.0453,43.9148a5.4879,5.4879,0,0,1-.1406-1.014,3.9986,3.9986,0,0,1,.0226-.4126,7.0638,7.0638,0,0,0,2.3156.5285,4.9748,4.9748,0,0,1,.036.5943,2.3024,2.3024,0,0,1-.1145.6536,7.943,7.943,0,0,1-2.1191-.35m1.8429-3.4207a2.2975,2.2975,0,0,1,2.2442,1.8195,9.7323,9.7323,0,0,1-1.3815.1286,4.28,4.28,0,0,0-.5221-1.0754h-.5894a2.8364,2.8364,0,0,1,.4918,1.06,7.0614,7.0614,0,0,1-2.1029-.4826,1.8668,1.8668,0,0,1,1.86-1.45M90.1021,47.39c-2.7106,0-3.0257,3.0646-4.1916,4.91a4.09,4.09,0,0,1-3.6228,1.828,4.4268,4.4268,0,0,1-4.304-4.405c0-1.915,1.1122-3.5048,1.6506-4.8679a7.383,7.383,0,0,0,.8522-.0742c.077-.2311.1343-.4508.1724-.6183a7.04,7.04,0,0,1-.826.094,2.6247,2.6247,0,0,0,.0876-.6388,4.1643,4.1643,0,0,0-.0452-.5949,10.07,10.07,0,0,0,1.36-.1421,4.3876,4.3876,0,0,1,.0269.4643,4.8015,4.8015,0,0,1-.265,1.3927c-.4572,1.4669-1.8315,2.3714-1.8315,4.6884A3.2338,3.2338,0,0,0,82.1831,52.91c1.751,0,2.1057-1.2125,2.1057-1.6563a1.4063,1.4063,0,0,0-1.0543-1.4111,2.2,2.2,0,0,0-1.0761.1251l.2339.5433c.03-.01.0657-.0233.0961-.031,1.4217-.3392,1.6442,1.6965-.3053,1.6965a2.5879,2.5879,0,0,1-2.2845-2.75,4.87,4.87,0,0,1,.91-2.7452h4.5125a32.0241,32.0241,0,0,0,.2763-5.9023,4.3415,4.3415,0,0,1-.7215.4529,28.7425,28.7425,0,0,1-.2346,4.8573L81.19,46.09a6.2628,6.2628,0,0,0,.8055-2.7544c0-2.4732-1.6026-3.584-3.1069-3.584-1.32,0-2.717.9158-2.717,3.14a16.1287,16.1287,0,0,0,.6826,3.2017H73.6189a5.4169,5.4169,0,0,0,1.1568-2.8434c0-.6339-.0474-2.4449-1.8408-2.4449-1.4669,0-2.9642,1.3553-2.9642,5.2954,0,8.2949,8.4949,10.4875,11.8061,10.4875,6.7439,0,7.7862-5.0954,7.7862-6.5051h-.5879c0,1.5567-1.3172,5.8784-7.1983,5.8784-3.6617,0-11.0734-2.8138-11.0734-9.8693,0-.8748.1689-4.5542,2.2315-4.5542.8035,0,1.1857.7356,1.1052,1.7122a4.87,4.87,0,0,1-1.4995,2.9925v.4395h5.2686c-.11-.3434-.395-1.2514-.6162-2.13a7.9319,7.9319,0,0,0,1.7552.2932c-.5752,1.3228-1.6973,2.9982-1.6973,4.8742a5.1377,5.1377,0,0,0,5.0368,5.1428,4.9469,4.9469,0,0,0,4.2481-2.1764c1.15-1.6132,1.4239-4.61,3.5663-4.61,1.1808,0,1.63,1.3433,1.63,1.3433l.5087-.2939S91.6355,47.39,90.1021,47.39"/><path class="cls-1" d="M82.9641,89.9461,78.807,86.5034V76.974a4.8855,4.8855,0,0,1-.7327.16v9.7146l3.9493,3.2709a6.0067,6.0067,0,0,0,.9405-.1731"/><path class="cls-1" d="M85.2359,88.6691l-5.0318-4.1669v.9518l4.4375,3.6751c.1915-.1342.3894-.29.5943-.46"/><path class="cls-1" d="M71.8772,89.9461l4.157-3.4427V76.974a4.8841,4.8841,0,0,0,.7328.16v9.7146l-3.9493,3.2709a6.0024,6.0024,0,0,1-.9405-.1731"/><path class="cls-1" d="M69.6054,88.6691l5.0318-4.1669v.9518L70.2,89.1291c-.1915-.1342-.3893-.29-.5942-.46"/><polygon class="cls-1" points="76.585 90.19 77.321 89.581 78.057 90.19 79.206 90.19 77.321 88.629 77.321 88.629 75.436 90.19 76.585 90.19"/><path class="cls-1" d="M46.8689,32.1706a.9084.9084,0,1,1,.908.908.9092.9092,0,0,1-.908-.908m2.3918,0a1.4835,1.4835,0,1,0-1.4838,1.4839,1.4855,1.4855,0,0,0,1.4838-1.4839"/><polygon class="cls-1" points="64.959 41.31 62.363 43.024 62.367 45.304 63.099 44.82 63.096 43.421 64.98 42.17 64.959 41.31"/><polygon class="cls-1" points="64.959 44.614 62.363 46.328 62.367 48.608 63.099 48.124 63.096 46.725 64.98 45.474 64.959 44.614"/><polygon class="cls-1" points="64.959 47.918 62.363 49.632 62.367 51.913 63.099 51.428 63.096 50.029 64.98 48.778 64.959 47.918"/><polygon class="cls-1" points="64.959 51.222 62.363 52.936 62.367 55.217 63.099 54.732 63.096 53.333 64.98 52.082 64.959 51.222"/><path class="cls-1" d="M76.9044,33.5079l.37.7293s4.7569-.0043,5.7871-.0043a2.7958,2.7958,0,0,1,2.6152,2.8208,2.8317,2.8317,0,0,1-3.0886,2.9883,8.381,8.381,0,0,1,.2487,4.9357h.7335a10.5926,10.5926,0,0,0,.0021-4.3266A3.5149,3.5149,0,0,0,86.41,37.0537,3.5589,3.5589,0,0,0,83.1459,33.5c-.9094,0-6.2415.0077-6.2415.0077"/><path class="cls-1" d="M81.4486,48.3169l.2317.5405a4.253,4.253,0,0,1,1.5292-.4013c1.8647-.0566,2.0336,1.7707,2.1269,2.5487a2.1281,2.1281,0,0,0-.3392-2.4194,2.2978,2.2978,0,0,0-1.8308-.7307,3.9429,3.9429,0,0,0-1.7178.4622"/><polygon class="cls-1" points="86.394 64.347 81.206 61.07 80.574 60.373 80.574 60.373 77.421 60.373 74.268 60.373 74.268 60.373 73.636 61.07 68.448 64.347 66.237 62.346 66.237 63.335 68.368 65.265 74.114 61.636 74.594 61.106 77.421 61.106 80.249 61.106 80.729 61.636 86.474 65.265 88.604 63.335 88.604 62.346 86.394 64.347"/><path class="cls-1" d="M9.9191,73.677a1.6408,1.6408,0,1,1-1.6408-1.6407A1.6412,1.6412,0,0,1,9.9191,73.677"/><path class="cls-1" d="M111.3507,73.677a1.6408,1.6408,0,1,1-1.6408-1.6407,1.6412,1.6412,0,0,1,1.6408,1.6407"/><path class="cls-1" d="M9.9546,73.663a1.6408,1.6408,0,1,1-1.6408-1.6408A1.6411,1.6411,0,0,1,9.9546,73.663"/><path class="cls-1" d="M111.3861,73.663a1.6408,1.6408,0,1,1-1.6407-1.6408,1.6411,1.6411,0,0,1,1.6407,1.6408"/><polygon class="cls-1" points="22.014 90.19 21.341 89.096 23.929 88.99 24.938 90.421 22.014 90.19"/><path class="cls-1" d="M14.1472,52.2492c0,.3363-.0184.8295-.0523,1.3327-.065.9574-.1887,1.95-.3576,1.953,0,0-1.763.0389-2.3212.0771v-.2043c1.49-.0522,1.89-2.3169,1.89-3.3762,0-1.2931-.6458-2.7225-2.2555-2.7225-3.6836,0-2.1128,5.867-6.4952,5.867a3.4747,3.4747,0,0,1-3.4914-3.791c0-.2473.0982-1.079.1251-1.38.0219-.1866.0551-.46.0784-.7568a.1955.1955,0,0,1,.16-.1781c.4918.0177,1.7962.0657,2.1806.08v.2225a1.873,1.873,0,0,0-1.25.5,2.5612,2.5612,0,0,0-.484,1.4931,2.2458,2.2458,0,0,0,2.1778,2.4965c3.3154,0,1.8711-5.93,6.3835-5.93,1.9213,0,3.7126,1.5135,3.7126,4.3167"/><path class="cls-1" d="M19.3831,108.3162c-.2777-.1894-.6749-.4826-1.0713-.7943-.7539-.5942-1.5029-1.2556-1.4111-1.3969,0,0,.9624-1.4783,1.2451-1.96l.1681.1152c-.7963,1.26.8487,2.8667,1.7228,3.4638,1.0684.73,2.613,1.002,3.521-.3271,2.0768-3.042-3.6546-5.0537-1.1828-8.673a3.4745,3.4745,0,0,1,5.1-.7455c.2042.1392.8359.69,1.0691.8819.142.1229.3484.3045.5808.4911a.1975.1975,0,0,1,.0573.2324c-.2926.3964-1.0677,1.4465-1.296,1.756l-.1844-.1258a1.8648,1.8648,0,0,0,.2926-1.3143,2.5586,2.5586,0,0,0-.96-1.2415,2.2451,2.2451,0,0,0-3.2893.3907c-1.87,2.7382,3.8411,4.8891,1.2973,8.6151-1.0839,1.587-3.3437,2.2131-5.6585.6324"/><path class="cls-1" d="M107.1263,99.5015c-.1915.2763-.4883.6713-.8027,1.0649-.6.749-1.2677,1.4931-1.4083,1.4,0,0-1.4705-.9737-1.95-1.26l.1166-.1682c1.2536.807,2.8738-.8253,3.4773-1.6951.7384-1.0628,1.0232-2.6046-.2989-3.5232-3.0257-2.1008-5.0827,3.6143-8.6822,1.1143a3.4749,3.4749,0,0,1-.7052-5.1053c.1413-.2035.6967-.83.89-1.0627.1243-.1406.3073-.3456.496-.5766a.1962.1962,0,0,1,.2325-.0551c.3943.2953,1.4379,1.079,1.746,1.3093l-.1272.1837a1.8663,1.8663,0,0,0-1.3122-.3024,2.5593,2.5593,0,0,0-1.2492.95,2.2457,2.2457,0,0,0,.3646,3.2928c2.724,1.8909,4.9194-3.803,8.6256-1.2288,1.5779,1.096,2.1863,3.3607.5872,5.6628"/><path class="cls-1" d="M16.9466,22.9872l1.28-1.6612-.6014-.4636-1.28,1.6613m-.9221,1.197-.7794,1.0111.6013.4636.78-1.0119m0,0,2.8921,2.22c1.68,1.3715,1.6309,1.8167,1.2656,2.3184l.212.171.6182-.8522c.4678-.6359.441-.6331.8536-1.14.571-.701,1.0967-1.3815,1.7524-2.187a14.22,14.22,0,0,0,1.857-2.7911c1.2507-2.7947.1724-5.03-2.3777-7.1065-4.64-3.2695-7.5234-.5236-9.2383,1.7249-.607.7455-1.2182,1.587-1.8012,2.3028-.4126.5074-1.79,2.1693-1.79,2.1693l.2148.1661c.4049-.47.7928-.6465,2.5127.6755l2.4265,1.8655m.9221-1.197c-1.6775-1.2931-3.261-2.5134-3.3691-2.5954-.2346-.1788-.2537-.3222-.1236-.5271.407-.6431,1.3446-1.99,1.794-2.546a5.1813,5.1813,0,0,1,7.6117-.7228c2.789,2.271,3.38,4.8381,1.1588,7.6731-.6409.8175-1.1539,1.3828-1.327,1.5644a1.49,1.49,0,0,1-1.6817.2855s-1.6917-1.3044-3.4617-2.6682"/><path class="cls-1" d="M86.0439,111.975c.8352,2.0011.5822,2.3707.024,2.6413l.1053.25.9476-.46c.7123-.34.6868-.3505,1.29-.6027.8331-.3491,1.6541-.63,2.6116-1.0317a14.2179,14.2179,0,0,0,2.9537-1.5863c2.42-1.8754,2.5226-4.3549,1.2528-7.3884-2.5509-5.0706-6.3885-4.0079-8.9613-2.8328-.8868.371-1.8224.8253-2.6738,1.1822-.6028.2522-2.6011,1.0691-2.6011,1.0691l.111.248c.5787-.224,1.0041-.1964,1.8979,1.7792Zm-2.1516-8.44c-.1223-.2679-.0721-.4042.1392-.5236.6621-.3746,2.124-1.1207,2.7819-1.3991a5.1809,5.1809,0,0,1,7.0541,2.95c1.3892,3.3175.701,5.8606-2.5947,7.3134-.95.4191-1.67.6756-1.9078.754a1.49,1.49,0,0,1-1.6174-.5406s-3.7988-8.4306-3.8553-8.5542"/><path class="cls-1" d="M17.4392,34.2676l-.2516-.0735-.171-.0508c-.41-.1131-1.1278-.3534-1.6217-.5526l-.0544.24c1.1928.4247.93,1.8118.7087,2.5771h.0015l-.2233.737c-.25.8691-.6282,2.0915-1.939,1.7015-1.0224-.289-3.6772-1.04-3.8009-1.0776a.1954.1954,0,0,1-.137-.2643l.5384-1.9008c.2-.7031.5038-1.7079.8819-1.9008a1.1392,1.1392,0,0,1,.455-.1363l.07-.2523c-.2318-.0551-.5484-.1371-1.0585-.2819l-.1081-.0269c-.51-.1491-.8211-.248-1.0465-.3243l-.0749.2508a1.1463,1.1463,0,0,1,.313.3576c.2176.3646-.0594,1.3772-.2643,2.0788,0,0-.4833,1.6521-.5547,1.8959a.1954.1954,0,0,1-.2565.1512S5.3561,36.427,4.8961,36.297a.3407.3407,0,0,1-.2749-.4042l.0346-.1681c.1336-.684.8508-3.9861,2.1778-3.6483l.0841-.2311a9.53,9.53,0,0,1-1.5567-.5045c-.1343-.0494-.2713.1117-.3024.2162-.29.9731-1.7581,5.9024-2.069,6.8076l.2615.0742c.2-.5872.4939-.896,2.5826-.3138l7.2117,2.0428c2.07.6445,2.1919,1.0755,2.0407,1.6768l.26.08a46.7948,46.7948,0,0,1,2.1806-7.3325.3085.3085,0,0,0-.0876-.3244"/><path class="cls-1" d="M104.3,52.0057c.0347.619.2784.9949,2.447.9935l7.4852-.1936c2.1679-.065,2.3566-.4466,2.3721-1.067l.272-.0071c-.0084.2827-.0084.9306-.0042,1.7305l.0021.0714c.0361.7985.0686,1.4464.0912,1.7276l-.2721.0015c-.0346-.62-.2784-.995-2.447-.9942l-7.4046.1964c-2.1679.065-2.3565.4473-2.3721,1.0677l-.272.0071c.0077-.3526-.147-3.2512-.17-3.5331Z"/><path class="cls-1" d="M103.7856,46.5463a7.93,7.93,0,0,1,1.2861-2.2025s3.69-4.829,3.75-4.9209a.3276.3276,0,0,1,.3794-.0855c.0813.0474,4.0574,2.2471,4.0574,2.2471,1.8167.9723,2.1728,1.2747,2.2993,1.8817l.2693-.0417c-.0644-.2749-.0114-.0459-.1661-.83l-.0127-.0713c-.123-.7893-.22-1.43-.2537-1.7115l-.2678.0474c-.041.5236-.61.3745-1.2818-.0106,0,0-5.3067-2.8858-5.3385-2.9113s-.0989-.15.0862-.1893,3.1833-.665,3.1833-.665c2.134-.3886,2.4407-.0629,2.5855.54l.2678-.0495c-.0727-.2727-.22-.9044-.3992-1.6831l-.0148-.0707c-.147-.7858-.2629-1.4231-.3053-1.7029l-.2657.0558c.0947.6126-.0226,1.0225-2.1438,1.474l-7.2287,1.5107c-2.134.3887-2.5749.1583-2.72-.4451l-.2678.0494c.383,1.1207.713,2.3545.985,3.4031l.2664-.0551c-.0954-.6134-.1321-1.0571,1.9892-1.5087,0,0,2.92-.6119,3.1825-.6677.2318-.0488.1972.1229.1647.1731-.0177.0269-4.03,5.2947-4.03,5.2947s-.7123.9334-.7059.932c.2317,1.4726.36,2.4915.378,2.6109l.2664-.0558a.8466.8466,0,0,1,.0049-.342"/><path class="cls-1" d="M110.0152,24.7178s-.672-.8147-.9095-1.1256-.8422-1.178-.8422-1.178l-.2163.1647c.35.5123.2883,1.0337-1.4316,2.3558L103.698,27.162l.0029-.0057-2.4294,1.8521c-.188.1441-.4218-.029-.3823-.3237.0036-.0282,1.2366-10.1364,1.5864-12.9981.0318-.2551.0749-.612.089-.7173.01-.0756-.1074-.1406-.1851-.0819s-7.871,6.0055-7.871,6.0055c-1.7581,1.27-2.5417,1.3885-2.9324.9066l-.2205.16c.6077.5109,1.5475,1.31,2.2555,2.011l.2162-.1646c-.35-.5123-.2876-1.0338,1.4316-2.3559l.2735-.2084c.0078-.0057,4.7011-3.4186,4.9138-3.5819.1879-.1434.231.0262.2233.0855-.005.0318-1.6132,13.0858-1.6076,13.0816-.0318.2621-.0975.8076-.1031.85-.01.0756.1074.1414.1844.082s8.008-6.1115,8.008-6.1115c1.7256-1.3129,2.2457-1.2366,2.6484-.7646Z"/><path class="cls-1" d="M40.5039,14.88c-.15-.4027-.3908-1.1489-.518-1.6478l-.2254.0975c.3406,1.1412-.7666,1.7475-1.522,2.0436l-.0064.0028c-.1568.0614-1.469.5427-1.469.5427-.8169.2819-2.1411.6133-2.553-.54l-.1943-.525L31.4168,7.816c-.7454-2.0365-.4607-2.3537.1089-2.6l-.094-.2551c-.2594.113-.8614.354-1.6047.6473l-.0679.0254c-.7546.2636-1.3673.4734-1.6379.5575l.0954.2551c.5914-.1866,1.014-.1321,1.7792,1.8972l2.6131,7.0323c.7052,2.0513.4289,2.4039-.1456,2.6378l.0968.2706c.6586-.3229,2.4463-1.1165,3.779-1.592,1.1991-.4275,3.0363-.9956,4.06-1.262a.291.291,0,0,0,.2049-.2855Z"/><path class="cls-1" d="M51.882,7.9392c-.0049.0007-.1957.0205-.6706.0692l-1.9227.2007c-.4748.05-.6656.07-.67.0707-.2106.0219-.2615-.1717-.2028-.3519.0459-.1449,1.2655-3.9168,1.28-3.9641.0679-.2276.2014-.1152.23-.0622.0021.0042,1.9976,3.502,2.0824,3.6518.0947.1646.0848.3639-.1258.3858m5.5766,4.848a1.1012,1.1012,0,0,1-1.0444-.5462c-.1349-.1794-6.24-10.9567-6.2422-10.96.029.0516.0586.1053.09.1633l-.09-.1633L49.8936.7755a.113.113,0,0,0-.1929.0177c-.0141.0473-3.8426,12.3848-3.9182,12.6229a1.0179,1.0179,0,0,1-.8769.7512l.0283.2678c.7377-.1336,2.47-.407,2.47-.407l-.0269-.2678a.5462.5462,0,0,1-.5426-.4374,1.2177,1.2177,0,0,1,.0565-.5144c.2855-.889.95-2.9813,1.0239-3.1869.1123-.3271.6493-.3632.6493-.3632l3.6214-.3766s.5328-.0756.7095.2219c.1152.1851,1.1779,2.059,1.64,2.87a1.2213,1.2213,0,0,1,.1618.4918.5468.5468,0,0,1-.4409.54l.0283.2678c.7836-.0586,2.5367-.1774,3.2031-.2183Z"/><path class="cls-1" d="M85.488,12.2951c-.0049-.0021-.1837-.0714-.6289-.2445l-1.8033-.6981c-.4451-.1717-.6239-.241-.6288-.2424-.1972-.0763-.1541-.2713-.02-.4056.1067-.1081,2.9119-2.91,2.9458-2.9452.164-.1717.2318-.0106.2332.05,0,.0049.1823,4.0277.1894,4.1994.0092.19-.09.3632-.2876.2869m2.0923,6.233c-.0382-.22-.578-12.9084-.5794-12.9388.0014.0587.0035.1194.0056.1859l-.0056-.1866v.0007c-.0113-.3632-.0177-.573-.0184-.5773a.1127.1127,0,0,0-.18-.0721c-.0339.0354-9.2277,9.44-9.4029,9.6178a1.0167,1.0167,0,0,1-1.1228.2685l-.0968.2515c.5236.1392.8515.1986,1.363.3392l1.1412.3.0975-.2508a.5477.5477,0,0,1-.2833-.6367,1.2209,1.2209,0,0,1,.2848-.4324c.6592-.6607,2.2463-2.2647,2.406-2.4131.248-.24.7426-.0276.7426-.0276l3.3953,1.315s.5088.176.5307.5208c.0183.2176.1067,2.3714.1484,3.3034a1.2252,1.2252,0,0,1-.08.5116.5473.5473,0,0,1-.6388.28l-.0968.2516c1.1483.549,2.0217,1.0324,2.9735,1.6026l.0961-.2508a1.1017,1.1017,0,0,1-.6805-.9625"/><path class="cls-1" d="M52.3065,113.2563c-.0049,0-.1957-.017-.6712-.0594l-1.9263-.1689c-.4762-.041-.667-.0579-.672-.0579-.21-.0184-.2233-.2184-.1314-.3844.0721-.1329,1.9863-3.6052,2.01-3.6483.11-.21.22-.0742.2374-.0176.0014.0049,1.296,3.8185,1.35,3.981.0615.18.0148.3738-.1965.3555m3.6433,5.106c-.0982-.2014-4.0559-11.9687-4.0559-11.9687l.0572.1781c-.147-.4544-.2339-.7222-.2353-.7264a.1124.1124,0,0,0-.1922-.0191c-.0226.0431-5.9885,11.1009-6.108,11.32a1.4836,1.4836,0,0,1-1.2139.655l-.0226.253c.7391.1265,2.5445.3752,2.5445.3752l.0247-.2608a.5476.5476,0,0,1-.4494-.5327,1.2248,1.2248,0,0,1,.1533-.4947c.4494-.8182,1.527-2.8,1.6394-2.9875.1717-.3.7059-.2332.7059-.2332l3.627.3187s.5378.0275.6551.3526c.0777.2042.83,2.459,1.1291,3.343a1.222,1.222,0,0,1,.0651.5137.5466.5466,0,0,1-.5357.4465l-.0226.2686c.7773.0544,1.1871.0862,1.7235.118s.915.0523,1.41.084l.0226-.2685a1.1035,1.1035,0,0,1-.9215-.7348"/><path class="cls-1" d="M39.1731,115.0061l-.2346-.0742c-.489,1.086-2.61.5419-2.9671.4472a5.8784,5.8784,0,0,1-2.2343-.9193,1.12,1.12,0,0,1-.1435-1.1468l.1972-.5243,2.6455-7.0774c.7688-2.028,1.1921-2.0817,1.7835-1.8945l.0954-.2544c-.8691-.2473-2.659-.8988-3.3274-1.1673l-.0947.2551c.5688.2459.8529.5639.1032,2.5989l-2.6117,7.0139c-.8091,2.0124-1.2486,2.0979-1.8365,1.8986l-.1.253c.2367.0792,2.1368.8225,4.1245,1.438,1.6747.5179,3.3762.9256,3.7076,1.0069.0975.024.2805.0283.342-.0813a13.2064,13.2064,0,0,1,.5512-1.7721"/><path class="cls-1" d="M74.7916,104.82s-1.1151.2211-1.4514.2946c-.3265.0523-1.4083.24-1.4083.24l.0375.2692c.6182-.0537,1.0422.2565,1.35,2.4039l.4755,3.4228-.0035-.0056s.3844,2.76.4219,3.0257c.0325.2346-.2325.3533-.47.1738-.0227-.0169-8.225-6.0521-10.5463-7.7621-.207-.1526-.496-.3653-.5808-.4289-.0608-.046-.1759.024-.1625.12s1.3079,9.3951,1.3079,9.3951c.2438,2.1545-.0374,2.8957-.6494,3l.0318.2706c.1364-.0268.7872-.04,1.4451-.1017.6776-.0636,1.3093-.0961,1.4521-.1081l-.0375-.2692c-.6176.053-.973-.2565-1.28-2.4039l-.0643-.4424c-.0007-.01-.7009-6.0288-.7384-6.2938-.0332-.2346.1357-.1887.1837-.1526.0255.02,10.6091,7.8286,10.6084,7.8215.2127.1561.6565.4812.69.5066.0615.046.1759-.024.1625-.12s-1.3687-9.9032-1.3687-9.9032c-.2968-2.1488.0254-2.5636.6338-2.683Z"/><path class="cls-1" d="M8.8139,95.7633c.3476.5137.749.7116,2.6109-.4013L17.7532,91.36c1.8281-1.1673,1.7941-1.592,1.49-2.1325l.23-.1456c.1378.2466.47.8034.8833,1.4874l.0389.0608c.44.667.814,1.192.9779,1.4224l-.2331.1406c-.347-.5137-.7491-.7116-2.61.4014l-6.3433,4.0157c-1.828,1.1673-1.7941,1.592-1.49,2.1325l-.23.1456c-.2953-.4183-.968-1.4556-.968-1.4556-.477-.7575-.7292-1.1921-.9179-1.5292Z"/><path class="cls-1" d="M70.323,10.41a2.6882,2.6882,0,0,1-3.2963,2.5459c-1.226-.1392-1.7009-.137-1.5214-1.7142.12-1.0557.3773-3.803.3922-3.9309a.1955.1955,0,0,1,.236-.1816c.1138.0113.5307-.0092.9469.0318.508.0509,3.6.1138,3.2426,3.249m-3.9-8.3854c.0438-.31.2565-.3427.35-.3413l.171.0043a13.699,13.699,0,0,1,1.59.12,2.0737,2.0737,0,0,1,1.6824,2.4788C69.9655,6.488,68.3826,6.5057,68.0329,6.48c-.5484-.02-1.5694-.1166-1.8217-.1434a.1958.1958,0,0,1-.1936-.2268s.3583-3.6087.4056-4.0843m3.2978,5c-.0876-.0381-.0523-.1929.024-.2091.0735-.01,1.71-.2707,1.9015-2.6908a2.7457,2.7457,0,0,0-2.3983-2.9869c-.8-.0911-1.7319-.1985-2.59-.3C65.4756.6987,64.43.5708,64.0525.5122l-.0268.2706c.6133.0933.9687.3286.7624,2.4873L64.06,10.62c-.27,2.1516-.6727,2.3466-1.2917,2.3035l-.0325.2707c.3992.0261,1.6655.1024,3.0236.2395.944.0947,1.9078.241,2.7565.3293,0,0,2.93.3045,3.3564-3.444A3.2046,3.2046,0,0,0,69.721,7.025"/></svg>