<?xml version="1.0" encoding="UTF-8"?>
<svg xmlns="http://www.w3.org/2000/svg" viewBox="0 0 315.29 309.56">
  <defs>
    <style>
      .cls-1 {
        fill: #fff;
      }

      .cls-2 {
        stroke: #fff;
        stroke-miterlimit: 10;
        stroke-width: 2px;
      }

      .cls-2, .cls-3 {
        fill: #003da5;
      }
    </style>
  </defs>
  <g id="Calque_1" data-name="Calque 1">
    <path class="cls-3" d="m312.38,0H1v232.88h286.4s24.69,0,24.69,0c-64.75-124.15.29-232.87.29-232.87Z"/>
    <g>
      <path class="cls-1" d="m54.25,121.49c-.75-3.22-1.18-3.66-4.38-3.66h-16.11c-2.67,0-3.31.44-4.05,3.5l-3.73,15.34c-1.6,6.57-2.35,10.51-2.35,12.11,0,1.76.54,2.64,3.1,2.93l3.52.44c.75.73.75,3.06-.22,3.65-2.77-.29-6.08-.29-11.09-.44-3.52,0-7.36.29-10.24.44-.64-.59-.86-2.92-.22-3.65l3.52-.44c2.56-.29,4.91-1.9,6.4-7.16,1.92-6.72,4.91-16.21,9.39-32.56l10.88-39.42c1.5-5.25,2.13-8.03,1.82-10.36,2.56-1.02,4.37-3.65,5.55-5.54.64,0,1.39.29,1.6,1.31,1.39,6.42,3.1,13.14,4.69,19.56l14.62,58.69c3.09,12.55,4.48,14.75,9.07,15.48l2.88.44c.75.73.54,3.06,0,3.65-4.37-.29-8.11-.44-12.91-.44-5.12,0-9.17.29-12.27.44-.85-.59-.96-2.92-.21-3.65l3.1-.44c2.24-.29,3.74-1.17,3.74-2.64,0-1.6-.54-4.23-1.39-7.73l-4.69-19.85Zm-21.12-13c-.86,3.35-.75,3.5,2.24,3.5h13.12c3.09,0,3.31-.59,2.35-4.52l-5.76-23.81c-.85-3.5-1.81-7.43-2.46-9.2h-.21c-.32.74-1.38,4.24-2.56,8.62l-6.71,25.41Z"/>
      <path class="cls-1" d="m92.45,87.91c6.13-6.56,13.92-9.78,22.65-9.78,4.53,0,10.9,1.27,14.85,2.76,1.01.34,1.6.57,2.35.46.08,2.64.5,9.88,1.17,16.9-.42.81-1.68.92-2.27.23-1.26-7.82-5.03-16.78-17.2-16.78-12.84,0-23.74,11.15-23.74,34.96s11.16,37.47,24.91,37.47c10.82,0,15.6-9.66,17.53-16.44.59-.57,1.85-.34,2.18.47-.58,5.97-2.76,13.56-4.02,15.74-1.01.23-2.02.69-2.94,1.15-1.85.92-7.88,2.64-13.26,2.64-7.55,0-14.76-2.07-20.89-7.7-6.71-6.32-11.91-16.78-11.91-31.61,0-12.77,4.19-23.69,10.57-30.46Z"/>
      <path class="cls-1" d="m168.05,138.61c0,12.06.21,13.56,7.04,14.36l2.88.35c.63.57.42,2.52-.22,2.86-6.09-.23-9.6-.34-13.87-.34-4.48,0-8.32.12-13.02.34-.64-.34-.85-2.17-.21-2.86l2.24-.35c6.19-.91,6.4-2.3,6.4-14.36v-42.42c0-9.78-.22-11.74-5.02-12.31l-3.84-.46c-.75-.69-.64-2.41.21-2.87,5.65-.8,12.27-.92,21.12-.92s15.47,1.27,20.48,4.6c4.9,3.34,8.53,9.32,8.53,17.25,0,10.58-6.08,15.87-10.66,18.28-4.69,2.42-10.35,3.45-14.72,3.45-.75-.35-.75-2.07-.11-2.3,11.53-2.29,15.69-9.31,15.69-19.31,0-11.15-6.08-18.4-17.18-18.4-5.65,0-5.76.46-5.76,4.14v51.28Z"/>
      <path class="cls-1" d="m220.23,97.34c0-10.92-.32-12.88-4.69-13.46l-3.41-.46c-.75-.58-.75-2.41.11-2.87,5.97-.58,13.34-.92,23.78-.92,6.62,0,12.92.58,17.82,3.45,5.12,2.87,8.85,8.04,8.85,16.09,0,10.93-8.01,16.9-13.34,19.21-.53.68,0,1.83.54,2.75,8.53,14.83,14.18,24.03,21.44,30.58,1.81,1.72,4.48,2.99,7.36,3.22.54.23.64,1.15.11,1.6-.97.34-2.67.57-4.7.57-9.06,0-14.5-2.87-22.08-14.48-2.77-4.25-7.15-12.18-10.46-17.36-1.6-2.53-3.31-3.68-7.58-3.68-4.8,0-5.01.11-5.01,2.53v14.49c0,12.06.21,13.45,6.4,14.36l2.24.35c.64.57.43,2.52-.21,2.86-4.81-.23-8.44-.34-12.7-.34-4.49,0-8.32.12-13.33.34-.64-.34-.86-2.06-.21-2.86l2.67-.35c6.19-.81,6.4-2.3,6.4-14.36v-41.28Zm8.75,16.44c0,2.07,0,3.33.32,3.79.32.34,1.93.58,7.37.58,3.84,0,7.9-.46,10.98-2.99,2.88-2.41,5.34-6.44,5.34-14.25,0-9.1-5.23-17.71-17.07-17.71-6.62,0-6.94.46-6.94,3.68v26.9Z"/>
    </g>
    <path class="cls-1" d="m291.17,234.44c-.02-.12-.04-.25-.06-.37-.02.12-.04.25-.06.37h.12Z"/>
  </g>
  <g id="BDF">
    <g>
      <path class="cls-2" d="m172.99,233.18c4.8-25.53,18.62-41.75,18.62-41.75h-18.19s-11.62,15.9-15.77,41.37c.02.12.04.25.06.38h15.29Z"/>
      <path class="cls-2" d="m206.15,207.25h-18.9s-7.17,12.05-11.44,25.93h16.58c5.07-13.85,13.77-25.93,13.77-25.93Z"/>
      <path class="cls-2" d="m221.1,221.01h-19.85s-3.6,4.93-6.56,12.18h17.12c4.29-7.02,9.28-12.18,9.28-12.18Z"/>
      <path class="cls-2" d="m157.64,232.81c-4.16-25.47-15.77-41.37-15.77-41.37h-18.19s13.82,16.21,18.62,41.75h15.29c.02-.13.04-.25.06-.38Z"/>
      <path class="cls-2" d="m128.03,207.33h-18.9s8.68,12.02,13.75,25.86h16.6c-4.26-13.89-11.39-25.91-11.45-25.86Z"/>
      <path class="cls-2" d="m114.04,221.01h-19.85s4.99,5.16,9.28,12.18h17.16c-2.96-7.24-6.59-12.18-6.59-12.18Z"/>
    </g>
    <g>
      <path class="cls-3" d="m157.64,268.43c4.16,25.28,15.77,41.13,15.77,41.13l18.19-.08s-14.12-16.46-18.77-42.62h-14.94c-.08.53-.16,1.05-.25,1.57Z"/>
      <path class="cls-3" d="m186.94,293.67h18.9s-8.89-12.54-13.81-26.8h-16.79c4.09,14.28,11.7,26.8,11.7,26.8Z"/>
      <path class="cls-3" d="m201.01,280.07h19.85s-6.05-5.27-10.49-13.2h-16.3c2.97,7.92,6.95,13.2,6.95,13.2Z"/>
      <path class="cls-3" d="m142.46,266.86c-4.65,26.16-18.77,42.62-18.77,42.62l18.19.08s11.62-15.84,15.77-41.13c-.09-.52-.17-1.04-.25-1.57h-14.94Z"/>
      <path class="cls-3" d="m109.45,293.75h18.9s7.64-12.57,11.72-26.88h-16.79c-4.92,14.28-13.83,26.88-13.83,26.88Z"/>
      <path class="cls-3" d="m94.43,280.07h19.85s3.98-5.29,6.95-13.2h-16.32c-4.44,7.92-10.47,13.2-10.47,13.2Z"/>
    </g>
    <g id="BdF">
      <g>
        <path class="cls-3" d="m115.18,239.66h-6.56s-.32-.08-.47.24c-.16.24.08.55.79.87.55.24.71,1.74.71,1.74,0,0,.32,11.39.16,13.84-.08,1.34-.24,2.29-.71,3-.32.55-1.42,2.37-4.67,2.37-2.29,0-3.8-.79-4.74-2.37-.79-1.27-.71-2.85-.71-2.85l-.16-12.97s.08-2.06.55-2.53c.47-.47.95-.55.95-.95,0-.32-.32-.24-.32-.24h-6.8s-.4,0-.32.4c.08.47.87.4,1.19,1.03.4.79.47,2.37.47,2.37l.24,13.84s0,2.77,1.9,4.67c2.85,2.85,5.38,3.08,7.99,3.08,2.77,0,5.85-1.03,7.67-3.72,1.5-2.29,1.34-4.82,1.34-4.82v-13.44s.08-1.27.47-2.06.95-.55,1.03-1.03c.4-.4,0-.47,0-.47Z"/>
        <path class="cls-3" d="m160.09,241.95c-1.66-1.42-5.14-2.45-7.12-2.53-2.06-.16-9.96-.16-10.36.08-.32.24-.24.4,0,.71s.47-.24,1.03.87c.55,1.03.47,2.06.47,2.06l.16,16.92s.08,2.37-.47,2.93-1.11.71-1.11,1.03c0,.47.71.47.71.47l10.44-.16s3.08-.4,4.98-1.66c1.82-1.19,3.4-2.53,4.11-4.11,1.9-4.11,1.42-6.96,1.19-9.09-.47-4.19-2.77-6.4-4.03-7.51Zm-4.35,18.34c-2.69,1.19-5.61,1.03-6.48.55-.87-.47-.87-.95-.87-.95l-.24-16.76s.87-.4,2.85-.4,4.03.32,5.69,1.5c.63.47,3.32,2.37,3.4,7.2.16,5.53-1.98,7.75-4.35,8.86Z"/>
        <path class="cls-3" d="m207.14,236.5s0-.55-.16-.79c-.16-.16-.95-.16-.95-.16h-15.1s-.79,0-.71.47c.08.63.55.16,1.27,1.19.63.87.63,2.45.63,2.45l.08,20.48s0,1.5-.63,2.45c-.55.87-1.19.71-1.27,1.11-.08.47.47.47.47.47,0,0,6.96.08,7.35,0s.55-.32.4-.63c-.16-.4-.79-.08-1.34-1.19-.47-.95-.47-2.21-.47-2.21v-9.17l6.64.08s1.34.16,1.74.79c.47.71.63,1.03,1.03,1.11s.47-.63.47-.63v-6.48s0-.47-.55-.4c-.32.08-.4,1.03-1.34,1.42-.79.32-2.06.55-2.06.55l-5.93-.08v-8.22h6.01s1.58,0,2.45.32c1.03.4,1.03,1.5,1.58,1.58.47.08.47-.4.47-.4l-.08-4.11Z"/>
        <path class="cls-3" d="m251.34,261.01c-.47-.95-10.04-22.38-10.04-22.38,0,0-.32-.47-.71-.47-.24,0-.47.4-.47.4l-10.2,23.64s-.4.71-.87.87c-.32.08-.55.32-.63.47l-1.19-.95s-5.38-7.67-6.4-9.17c-.08-.16-.08-.4-.08-.4,0,0,1.82-.63,2.77-1.5,1.34-1.19,2.29-3.08,2.37-4.82.08-2.53-.63-3.72-1.34-4.74-1.5-2.37-5.38-2.77-5.38-2.77l-10.67-.08s-.55,0-.55.4c0,.47.79.47,1.19,1.27.47.79.4,2.06.4,2.06l.16,18.03s0,.87-.32,1.66c-.4.79-1.11.79-1.19,1.11-.08.4.32.47.32.47h6.4s.47,0,.47-.4-.24-.16-.87-.87c-.63-.71-.71-1.98-.71-1.98l-.16-17.71s-.08-.47.24-.71c.4-.32,3.24-.4,5.06.08,1.66.4,2.69,2.29,2.61,4.03,0,1.74-.95,3.08-2.85,3.72-1.9.63-3.64,0-3.87.4-.32.55.71,1.9.71,1.9l6.4,9.73s.95,1.5,2.06,1.82c1.03.24,5.14,0,5.14,0l-.32-.24c1.03.08,5.85-.08,5.85-.08,0,0,.32.16.24-.4-.08-.63-.71-.24-.71-1.42,0-.79,1.9-4.82,1.9-4.82h9.09s1.82,3.48,1.82,4.9c0,1.03-.79.87-.79,1.34s.47.4.47.4h6.17s.63-.08.24-.71c0-.08-.55.32-1.74-2.06Zm-13.92-7.04l3.4-8.38,3.24,8.46-6.64-.08Z"/>
        <path class="cls-3" d="m276.88,238.95h-6.8s-.24,0-.24.4c0,.47.79,0,1.27.71.4.55.63,1.58.63,1.58l.16,14.15-16.37-17.79s-.16-.16-.47-.16c-.16,0-.32.4-.32.4l.24,22.53s0,1.03-.55,1.74c-.47.55-.87.63-.87,1.03,0,.32.24.32.24.32h6.4s.4,0,.32-.47c-.08-.4-.87,0-1.42-1.27-.32-.79-.4-1.82-.4-1.82l-.08-13.13,16.13,17.47s.47.32.71.08c.16-.16.16-.55.16-.55l-.08-21.82s.08-1.34.4-1.98,1.11-.55,1.11-.95c.08-.47-.16-.47-.16-.47Z"/>
        <path class="cls-3" d="m297.43,259.03c-.47,0-.79.47-.79.47,0,0-1.5,1.19-4.03,1.66-2.45.4-4.9.24-7.12-1.42-2.85-2.13-3.56-5.3-3.56-8.14-.08-4.35,1.98-7.43,4.35-8.78,2.77-1.66,5.93-1.11,7.99-.63,1.98.47,2.37,1.5,3,1.5.47,0,.47-.55.47-.55v-3.87s0-.4-.32-.47c-.55-.08-.55.32-1.03.32s-1.34-.24-1.74-.4-5.46-1.11-8.7.08c-4.59,1.74-6.33,4.74-7.43,7.43-1.11,2.61-1.42,7.99.63,11.78,3.08,5.77,7.83,6.64,11.23,6.64,4.19.08,7.04-1.27,7.04-1.27l.55-3.64c-.16.24-.16-.63-.55-.71Z"/>
        <path class="cls-3" d="m314.99,258.8c-.71.08-.32.63-1.27,1.19-1.03.63-1.98.55-1.98.55l-4.9.08s-.71,0-1.19-.4c-.32-.24-.24-1.27-.24-1.27l-.08-6.48s3.87-.08,5.22,0c1.27.08,1.82.32,2.29.71.32.32.63.95.95.95.24,0,.32-.55.32-.55v-5.93s-.08-.47-.4-.32c-.4.16-.79.71-1.11,1.11-.4.47-1.34.63-1.34.63l-5.93.08s-.08-5.22-.08-6.72c0-.32.47-.4.47-.4h5.3s1.5,0,1.9.32c.55.47.87,1.34,1.5,1.34.4,0,.4-.63.4-.63l-.08-3.64s0-.47-.24-.55c-.24-.16-1.27-.08-1.27-.08l-13.52.08s-.55.16-.16.55,1.03.55,1.19,1.42c.24.95.32,1.74.32,1.74l.08,17.79s-.08,1.58-.47,2.21c-.32.63-1.11.4-1.03.87.08.4.63.47.63.47l14.31-.08s.08-.08.32-1.9c.32-1.74.63-3.24.08-3.16Z"/>
        <path class="cls-3" d="m93.83,266.78c-1.03.16-3.24-1.11-4.03-1.5-.71-.32-2.85-1.58-2.85-1.58,0,0,2.61-1.58,4.35-4.35,1.27-1.98,1.82-4.82,1.82-7.2.08-6.01-3.32-10.12-6.64-11.86-3.24-1.66-9.49-1.74-12.97.4-2.93,1.74-6.09,5.14-6.09,11.15,0,7.91,5.14,11.62,7.83,12.49,3.95,1.34,7.04.71,7.04.71,0,0,4.98,2.93,5.85,3.24.87.32,2.29,1.27,3.24,1.19,1.34-.08,3.4-2.21,3.4-2.21,0,0,.32-.47.16-.71-.24-.08-.47.08-1.11.24Zm-12.97-4.98c-3.24.16-6.01-1.27-7.59-3.72-2.29-3.4-2.21-9.65.87-12.97,1.5-1.58,2.45-2.29,5.77-2.69,5.85,0,8.3,3.72,8.93,7.91.71,5.61-2.06,11.23-7.99,11.47Z"/>
        <path class="cls-3" d="m66.94,239.82h-6.8s-.24,0-.24.4c0,.47.79,0,1.27.71.4.55.63,1.58.63,1.58l.16,14.15-16.37-17.79s-.16-.16-.47-.16c-.16,0-.32.4-.32.4l.16,22.53s0,1.03-.55,1.74c-.47.55-.87.55-.87,1.03,0,.32.24.32.24.32h6.4s.4,0,.32-.47c-.08-.4-.87,0-1.42-1.27-.32-.79-.4-1.82-.4-1.82l-.08-13.13,16.13,17.47s.47.32.63.08c.16-.16.16-.55.16-.55l-.08-21.82s.08-1.34.4-1.98,1.03-.55,1.11-.95c.24-.47,0-.47,0-.47Z"/>
        <path class="cls-3" d="m41.33,261.8c-.47-.95-10.04-22.38-10.04-22.38,0,0-.32-.47-.71-.47-.24,0-.47.4-.47.4l-10.2,23.64s-.4.71-.87.87c-.63.16-.87.71-.32.87s6.01-.08,6.01-.08c0,0,.32.16.24-.4-.08-.63-.71-.24-.71-1.42,0-.79,1.9-4.82,1.9-4.82h9.09s1.82,3.48,1.82,4.9c0,1.03-.79.87-.79,1.34s.47.4.47.4h6.17s.63-.08.24-.71c-.08-.16-.63.24-1.82-2.13Zm-13.92-7.04l3.4-8.38,3.24,8.46-6.64-.08Z"/>
        <path class="cls-3" d="m18.55,251.6c-1.19-1.27-3.32-2.37-3.32-2.37,0,0,1.82-.87,2.93-2.77.55-.95.71-2.29.55-4.03-.32-3.87-4.11-5.61-6.48-5.77-2.06-.16-11.78-.16-11.78-.16,0,0-.32,0-.32.47,0,.24.87.55,1.27,1.11.71.95.55,2.61.55,2.61v19.61s0,1.11-.32,2.13c-.4,1.42-1.11,1.11-1.5,1.58s.24.71.24.71l11.15.08s3.56.16,6.25-2.06c1.19-.95,2.61-2.53,2.69-5.93-.08-2.06-.87-4.03-1.9-5.22Zm-12.18-11.54s5.06-.87,6.72,1.11c1.82,2.06,1.11,4.98-.87,6.09-2.37,1.19-5.85.79-5.85.79v-7.99Zm8.3,19.77c-2.06,2.21-6.72,1.66-7.51,1.27-.63-.32-.71-.95-.71-.95v-8.3s0-.24,1.11-.32,2.85,0,3.72.16c2.45.47,3.4,1.42,4.11,3,.55,1.19.47,3.87-.71,5.14Z"/>
        <path class="cls-3" d="m131.62,259.35c-.71.08-.32.63-1.27,1.19-1.03.63-1.82.55-1.82.55l-4.9.08s-.71,0-1.19-.4c-.32-.24-.24-1.27-.24-1.27v-6.48s3.87-.08,5.22,0c1.27.08,1.82.32,2.29.71.32.32.47.95.87.95.24,0,.32-.55.32-.55v-5.93s-.08-.47-.4-.32c-.4.16-.63.71-.95,1.11-.4.47-1.34.63-1.34.63l-5.93.08s-.08-4.98-.08-6.56c0-.32.47-.4.47-.4h5.3s1.5,0,1.9.32c.47.47.71,1.34,1.34,1.34.4,0,.4-.63.4-.63l-.08-3.64s0-.47-.24-.55c-.24-.16-1.11-.08-1.11-.08l-13.52.08s-.55.16-.16.55c.32.4,1.03.32,1.19,1.27s.32,1.74.32,1.74l.08,17.79s-.08,1.58-.47,2.21c-.32.63-1.11.4-1.03.87.08.4.63.47.63.47l14.23-.08s.08-.08.32-1.9c.16-1.74.47-3.24-.16-3.16Z"/>
        <path class="cls-3" d="m179.7,259.11c-.71.08-.32.63-1.27,1.19-1.03.63-1.82.55-1.82.55l-4.9.08s-.71,0-1.19-.4c-.32-.24-.24-1.27-.24-1.27v-6.48s3.87-.08,5.22,0c1.27.08,1.82.32,2.29.71.32.32.47.95.87.95.24,0,.32-.55.32-.55v-5.93s-.08-.47-.4-.32c-.4.16-.63.71-.95,1.11-.4.47-1.34.63-1.34.63l-5.93.08s-.08-4.98-.08-6.48c0-.32.47-.4.47-.4h5.3s1.5,0,1.9.32c.55.47.71,1.34,1.34,1.34.4,0,.4-.63.4-.63l-.08-3.64s0-.47-.24-.55c-.24-.16-1.11-.08-1.11-.08l-13.52.08s-.55.16-.16.55c.32.4,1.03.32,1.19,1.27.24.95.32,1.74.32,1.74l.08,17.79s-.08,1.58-.47,2.21c-.32.63-1.11.4-1.03.87.08.4.63.47.63.47l14.23-.08s.08-.08.32-1.9c.16-1.82.4-3.32-.16-3.24Z"/>
      </g>
    </g>
  </g>
</svg>