<svg width="46" height="80" viewBox="0 0 46 80" fill="none" xmlns="http://www.w3.org/2000/svg">
<path d="M37.0333 13.0891V28.5085L28.419 36.1023L36.5365 43.4467L45.1485 35.8528V20.4162L37.0333 13.0891ZM16.7313 36.1023L8.11812 28.5079V13.0891L0 20.4162V35.8528L8.61433 43.4467L16.7313 36.1023ZM35.8539 27.463V12.0264L22.6179 0.078232V0L22.5749 0.039116L22.5324 0V0.078232L9.2958 12.0264V27.4636L22.5754 15.4763L35.8539 27.463ZM13.0247 55.2129C10.1832 55.2129 7.97769 57.3737 7.97769 60.3637C7.97769 63.3543 10.1832 65.5152 13.0247 65.5152C15.8663 65.5152 18.0718 63.3543 18.0718 60.3637C18.0718 57.3737 15.8663 55.2129 13.0247 55.2129ZM13.0247 64.0472C11.2523 64.0472 9.81797 62.6337 9.81797 60.3637C9.81797 58.0944 11.2523 56.6809 13.0247 56.6809C14.7972 56.6809 16.2315 58.0944 16.2315 60.3637C16.2321 62.6337 14.7978 64.0472 13.0247 64.0472ZM34.9582 55.5116V65.2159H36.6634V55.5116H34.9582ZM20.6832 57.999C20.6832 57.2783 21.2786 56.6803 22.6451 56.6803C23.7679 56.6803 24.6883 57.1699 24.6883 58.5425H26.4743C26.3256 55.9875 24.4446 55.2129 22.5772 55.2129C20.7098 55.2129 18.8966 56.0823 18.8966 58.1756C18.8966 62.022 24.7957 60.1599 24.7957 62.5388C24.7957 63.6531 23.5779 64.0199 22.6716 64.0472C21.4402 64.0199 20.4118 63.4219 20.4118 62.0357H18.6258C18.6665 64.4822 20.3174 65.5152 22.5766 65.5152C24.7691 65.5152 26.5817 64.4822 26.5817 62.3213C26.5829 58.3659 20.6832 60.1462 20.6832 57.999ZM33.3345 59.4392H29.451V56.9251H33.97V55.5116H27.7464V65.2159H29.451V60.8527H33.3345V59.4392ZM20.4171 72.4838C20.4171 71.7631 21.0125 71.1651 22.379 71.1651C23.5018 71.1651 24.4222 71.6546 24.4222 73.0273H26.2082C26.0595 70.4723 24.1785 69.6977 22.3111 69.6977C20.4437 69.6977 18.6311 70.5671 18.6311 72.6604C18.6311 76.5068 24.5302 74.6447 24.5302 77.0236C24.5302 78.1378 23.3124 78.5047 22.4055 78.532C21.1741 78.5047 20.1463 77.9067 20.1463 76.5204H18.3603C18.401 78.967 20.0519 80 22.3111 80C24.503 80 26.3162 78.967 26.3162 76.8061C26.3168 72.8507 20.4171 74.6304 20.4171 72.4838ZM31.1066 79.7007H32.8111V75.3375H36.6947V73.924H32.8111V71.4099H37.3307V69.9964H31.1066V79.7007ZM15.6273 74.4947V74.468C16.1141 74.3999 17.3189 74.0875 17.3189 72.2663C17.3189 70.608 16.1955 69.9964 14.4095 69.9964H10.2015V79.7007H15.0591C16.7507 79.7007 17.9143 78.5995 17.9143 77.0776C17.9143 75.5277 17.021 74.6304 15.6273 74.4947ZM11.9067 71.4099H14.1393C15.222 71.4099 15.6279 71.804 15.6144 72.6331C15.6008 73.4084 15.1004 73.87 14.0178 73.87H11.9067V71.4099ZM14.2066 78.2872H11.9067V75.2836H14.3694C15.4657 75.2836 16.0746 75.7998 16.0746 76.7919C16.074 77.7301 15.5872 78.2872 14.2066 78.2872ZM27.5617 79.7007H29.2663V69.9964H27.5617V79.7007ZM0.228339 79.6823H0.751099V55.5015H0.228339V79.6823ZM44.352 79.6823H44.8742V55.5015H44.352V79.6823Z" fill="white"/>
</svg>
