<svg xmlns="http://www.w3.org/2000/svg" viewBox="0 0 940.26 281.11"><defs><style>.cls-1{fill:#006437;}.cls-2{fill:#40bcff;}</style></defs><g id="Layer_2" data-name="Layer 2"><g id="Layer_1-2" data-name="Layer 1"><g id="Logo"><path class="cls-1" d="M733.75,32.2c-6.24,0-10.23,3.68-10.23,10.84l-.17,31.16H709.44V21h13.3l.17,7.59C725.57,23.7,731,21,738.56,21h4.49V32.2Z"/><polygon class="cls-1" points="174.97 78.93 87.48 213.6 43.74 146.27 0 213.6 0 265.22 262.46 265.22 262.46 78.93 218.72 146.27 174.97 78.93"/><polygon class="cls-2" points="0 2.76 0 187.65 43.74 120.31 87.48 187.65 174.97 52.98 218.72 120.31 262.46 52.98 262.46 2.76 0 2.76"/><path class="cls-1" d="M318.59,2.6h32.84C364,2.6,371.89,10,371.89,20.7c0,8.18-4,13.6-9,16.47,7.36,1.53,13.3,7.16,13.3,16.88,0,12-9.92,20.15-24.24,20.15H318.6V2.6Zm29.67,29.66c6,0,9.31-4,9.31-9.51s-3.48-8.9-9.41-8.9H332.51V32.26Zm3,30.69c6.85,0,10.64-3.78,10.64-9.82s-4-9.72-10.74-9.72H332.5V62.94h18.72Z"/><path class="cls-1" d="M384.66,43.51V33.28c0-18.31,9.72-32.11,31.3-32.11,18.1,0,29.25,12.27,30,26.9h-13.3c-.92-8.08-6-15.14-16.67-15.14-12,0-17.08,8.18-17.08,19.64V44.23c0,11.46,5.11,19.64,17.08,19.64,10.64,0,15.75-7.06,16.67-15.14h13.3c-.72,14.63-11.86,26.9-30,26.9C394.37,75.63,384.66,61.82,384.66,43.51Z"/><path class="cls-1" d="M472.4,53.43V51.59h13.7v1.53c0,6.65,5.22,11.46,14.83,11.46,8.49,0,14-3.78,14-10.43,0-4-1.94-6.85-6.75-8.08l-18.72-4.81c-10.84-2.76-16-7.77-16-18.51,0-13.5,10.23-21.58,26.29-21.58,15.85,0,25.88,8.8,25.88,21.38v1.74H512.49V22.86c0-6-3.89-10.64-12.68-10.64-7.57,0-12.48,3.07-12.48,9.31,0,4.19,2.15,6.55,6.14,7.57l19.64,5.22c10.53,2.76,15.65,9,15.65,18.72,0,13.6-12.17,22.6-28.33,22.6C483.55,75.63,472.4,67.45,472.4,53.43Z"/><path class="cls-1" d="M536.45,51.7V44.44C536.45,30,545,19.79,561,19.79c15.75,0,23.73,10.53,23.73,23.32v9.31H550v1.33c0,6.24,3.17,11.66,11.25,11.66,5.93,0,9.61-3.07,10.94-6.75h12.17c-1.84,9.72-11.35,16.77-23.11,16.77C546.16,75.42,536.45,66.63,536.45,51.7ZM550,42.59h22V41.26c0-6.65-3.48-11.66-10.94-11.66-8,0-11,5.32-11,12.48Z"/><path class="cls-1" d="M593.36,51.39V43.82c0-13.91,9.1-24,25.16-24,14.22,0,23.83,8.9,24.24,21.07H630.08c-.61-5.22-3.89-9.82-11.25-9.82-7.88,0-11.56,5.11-11.56,12.27V51.9c0,7.16,3.68,12.27,11.56,12.27,7.36,0,10.64-4.6,11.25-9.82h12.68c-.41,12.17-10,21.07-24.24,21.07C602.46,75.42,593.36,65.3,593.36,51.39Z"/><path class="cls-1" d="M698.58,74.2h-13.3V67.86c-2.45,4.5-8.59,7.57-15.44,7.57-12,0-18.61-8.29-18.61-20.35V21h13.91V53.13c0,6.75,3.17,10.64,9.41,10.64,6.44,0,10.13-4.09,10.13-10.74V21h13.91V74.2Z"/><path class="cls-1" d="M750.15,21h13.91V74.19H750.15Z"/><path class="cls-1" d="M750.15,0h13.91V13H750.15Z"/><path class="cls-1" d="M815.42,0h13.91V13H815.42Z"/><path class="cls-1" d="M792.77,21V6.49h-14V21h-7.57V32.26h7.57v26.8c0,9.41,4.81,15.14,15,15.14h12.64V63H792.77V32.27h22.65V74.2h13.91V21H792.77Z"/><path class="cls-1" d="M838.71,51.7V44.44c0-14.42,8.59-24.65,24.55-24.65C879,19.79,887,30.32,887,43.11v9.31H852.22v1.33c0,6.24,3.17,11.66,11.25,11.66,5.93,0,9.61-3.07,10.94-6.75h12.17c-1.84,9.72-11.35,16.77-23.11,16.77C848.42,75.42,838.71,66.63,838.71,51.7Zm13.5-9.11h22V41.26c0-6.65-3.48-11.66-10.94-11.66-8,0-11,5.32-11,12.48Z"/><path class="cls-1" d="M894.33,58.45l12.27-.21c0,4.6,4.19,7.36,10.74,7.36,5.83,0,10.13-2.35,10.13-6.44,0-2.56-1.33-4.09-4.4-4.81l-15.75-3.58c-8-1.84-12.17-5.93-12.17-14,0-10.94,8.9-17,21.48-17,12.78,0,21.07,6.44,21.07,17l-12.17-.1c0-4.09-2.56-6.95-8.69-6.95-5.63,0-8.69,2.05-8.69,5.83,0,2.66,1.33,3.89,4.09,4.5l16.16,4c7.88,1.94,11.86,6.14,11.86,13.6,0,10.33-9.82,17.8-23,17.8C903.74,75.42,894.33,69.8,894.33,58.45Z"/><path class="cls-1" d="M316.44,139.21V129c0-18.31,9.72-32.11,31.3-32.11,18.1,0,29.25,12.27,30,26.9h-13.3c-.92-8.08-6-15.14-16.67-15.14-12,0-17.08,8.18-17.08,19.64v11.66c0,11.46,5.11,19.64,17.08,19.64,10.64,0,15.75-7.06,16.67-15.14h13.3c-.72,14.63-11.86,26.9-30,26.9C326.16,171.33,316.44,157.52,316.44,139.21Z"/><path class="cls-1" d="M385.44,147.09v-7.57c0-13.6,9.1-24,25.06-24s25.06,10.43,25.06,24v7.57c0,13.6-9.1,24-25.06,24S385.44,160.69,385.44,147.09Zm36.62-8.49c0-7-3.68-12.17-11.56-12.17s-11.56,5.22-11.56,12.17V148c0,7,3.68,12.17,11.56,12.17S422.06,155,422.06,148Z"/><path class="cls-1" d="M444.52,116.71h13.3v6.34c2.66-4.91,7.77-7.57,15.34-7.57,6.85,0,12.17,2.76,15.34,7.57,3.89-5,9.82-7.57,17.59-7.57,11.15,0,19,7.57,19,20.35v34.06H511.2V138.08c0-6.14-2.76-10.53-9.51-10.53-6.14,0-9.92,3.68-9.92,10.84v31.5H477.86V138.08c0-6.14-2.76-10.53-9.51-10.53-6.24,0-9.92,3.68-9.92,10.84v31.5H444.52V116.71Z"/><path class="cls-1" d="M535.87,116.71h13.3v6.34c2.66-4.91,7.77-7.57,15.34-7.57,6.85,0,12.17,2.76,15.34,7.57,3.89-5,9.82-7.57,17.59-7.57,11.15,0,19,7.57,19,20.35v34.06H602.55V138.08c0-6.14-2.76-10.53-9.51-10.53-6.14,0-9.92,3.68-9.92,10.84v31.5H569.21V138.08c0-6.14-2.76-10.53-9.51-10.53-6.24,0-9.92,3.68-9.92,10.84v31.5H535.87V116.71Z"/><path class="cls-1" d="M649.25,154.15l12.27-.21c0,4.6,4.19,7.36,10.74,7.36,5.83,0,10.13-2.35,10.13-6.44,0-2.56-1.33-4.09-4.4-4.81l-15.75-3.58c-8-1.84-12.17-5.93-12.17-14,0-10.94,8.9-17,21.48-17,12.78,0,21.07,6.44,21.07,17l-12.17-.1c0-4.09-2.56-7-8.69-7-5.63,0-8.69,2-8.69,5.83,0,2.66,1.33,3.89,4.09,4.5l16.16,4c7.88,1.94,11.86,6.14,11.86,13.6,0,10.33-9.82,17.8-23,17.8C658.66,171.12,649.25,165.5,649.25,154.15Z"/><path class="cls-1" d="M702,154.15l12.27-.21c0,4.6,4.19,7.36,10.74,7.36,5.83,0,10.13-2.35,10.13-6.44,0-2.56-1.33-4.09-4.4-4.81L715,146.47c-8-1.84-12.17-5.93-12.17-14,0-10.94,8.9-17,21.48-17,12.78,0,21.07,6.44,21.07,17l-12.17-.1c0-4.09-2.56-7-8.69-7-5.63,0-8.69,2-8.69,5.83,0,2.66,1.33,3.89,4.09,4.5l16.16,4c7.88,1.94,11.86,6.14,11.86,13.6,0,10.33-9.82,17.8-23,17.8C711.43,171.12,702,165.5,702,154.15Z"/><path class="cls-1" d="M778.66,147.09v-7.57c0-13.6,9.1-24,25.06-24s25.06,10.43,25.06,24v7.57c0,13.6-9.1,24-25.06,24S778.66,160.69,778.66,147.09Zm36.61-8.49c0-7-3.68-12.17-11.56-12.17s-11.56,5.22-11.56,12.17V148c0,7,3.68,12.17,11.56,12.17S815.27,155,815.27,148Z"/><path class="cls-1" d="M837.73,116.71H851v6.34c2.66-4.91,8.08-7.57,15.65-7.57,11.56,0,18.82,7.57,18.82,20.35v34.06H871.58V138.08c0-6.14-3-10.53-9.72-10.53-6.24,0-10.23,3.68-10.23,10.84v31.5H837.72V116.71Z"/><path class="cls-1" d="M756,116.71h13.91v53.18H756Z"/><path class="cls-1" d="M756,95.7h13.91v13H756Z"/><path class="cls-1" d="M627.12,116.71H641v53.18H627.12Z"/><path class="cls-1" d="M627.12,95.7H641v13H627.12Z"/><path class="cls-1" d="M318.59,208.16h6.28v56.9h-6.28Z"/><path class="cls-1" d="M337.39,223.45h5.79v7.07c1.93-4.71,6.6-8.05,13.76-8.05,9.26,0,15.13,6.34,15.13,16.34v26.26H366V239.71c0-7.07-3.14-11.87-10.54-11.87-6.76,0-11.91,4.15-11.91,12.76v24.47h-6.12V223.45Z"/><path class="cls-1" d="M399.43,265.07H393l-15.13-41.62h6l12.31,35.44,12.31-35.44h6Z"/><path class="cls-1" d="M419.7,247.92v-6.67c0-11.3,6.36-18.78,17.95-18.78,11.75,0,17.46,7.89,17.46,18.13v6.18H425.58v1.46c0,7.23,3.7,13.09,12.31,13.09,6.2,0,10-3.33,11.35-8h5.47c-1.37,7.48-8.21,12.76-16.82,12.76C427.19,266,419.7,259.13,419.7,247.92Zm5.88-5.86H449.4v-1.95c0-7.4-3.7-12.92-11.75-12.92-8.85,0-12.07,5.93-12.07,13.58Z"/><path class="cls-1" d="M486.73,242.55l-12.64-3c-3-.73-4.35-2.52-4.35-5.37,0-4.63,4.19-7.07,9.9-7.07,5.88,0,9.52,3.16,9.79,8H495c-.24-7.49-6.82-12.58-15.27-12.58-9.09,0-15.61,4.07-15.61,11.87,0,5.45,3.54,9.19,9.66,10.57L486,247.76c3.3.73,5.15,2.85,5.15,5.77,0,5.37-4.59,7.89-10.95,7.89-6.52,0-11.22-3.26-11.56-8.15h-5.56c.23,7.82,7.23,12.78,17,12.78,9.66,0,16.74-5.37,16.74-12.76C496.87,247.26,493.08,244.09,486.73,242.55Z"/><path class="cls-1" d="M554.65,208.16h23.26c12.39,0,18.91,8.05,18.91,18.13,0,7.88-4.51,14.55-12.15,17l12.23,21.79h-7.16l-11.43-20.81H560.93v20.81h-6.28V208.16Zm22.45,31.06c9,0,13.44-5.53,13.44-12.92s-4.67-13-13.44-13H560.92v25.93Z"/><path class="cls-1" d="M607.57,223.45h6.12v41.62h-6.12Z"/><path class="cls-1" d="M607.57,208.63h6.12v8.07h-6.12Z"/><path class="cls-1" d="M672,208.16h6.12v21.7c2.33-4.31,6.6-7.4,13.44-7.4,9.26,0,15.13,6.34,15.13,16.34v26.26h-6.12V239.7c0-7.07-3.14-11.87-10.54-11.87-6.76,0-11.91,4.15-11.91,12.76v24.47H672v-56.9Z"/><path class="cls-1" d="M720.59,258.69V228.48h-7v-5h7V211.49h6.12v11.95h11.45v5H726.71V260h11.45v5H727A6.36,6.36,0,0,1,720.59,258.69Z"/><path class="cls-1" d="M508.7,258.69V228.48h-7v-5h7V211.49h6.12v11.95H526v5H514.82V260H526v5H515.08A6.36,6.36,0,0,1,508.7,258.69Z"/><path class="cls-1" d="M655.25,223.45V230c-1.77-3.82-7.08-7.48-13.92-7.48-11,0-17.22,8.05-17.22,18.62V246c0,10.81,6.68,18.62,17.06,18.62,6.44,0,11.27-2.93,13.76-7.15V276H627.72v5.1H655c3.37,0,6.09-2.73,6.09-7.1V223.45Zm-13,36.14c-7.81,0-12.07-6.18-12.07-13.82v-4.44c0-7.64,3.62-13.82,12.15-13.82,8.13,0,12.56,6.26,12.56,14.31v4C654.93,254.31,649.13,259.59,642.29,259.59Z"/></g></g></g></svg>